{
	Skinned 0 
	PosSkin 0 
	Pos 6 { 
		-0.596478	1.053474	-3.802174 
		-0.993690	0.990928	-3.682623 
		-1.035122	1.082070	-3.608924 
		-0.664956	1.111374	-3.736859 
		-0.568406	0.964905	-3.824856 
		-1.038787	1.122198	-3.556180 
	}

	Nrm 4 { 
		-0.312500	0.328125	-0.890625 
		-0.296875	0.640625	-0.703125 
		-0.312500	0.140625	-0.937500 
		-0.265625	0.765625	-0.593750 
	}

	Cpv 6 { 
		0.500000	0.500000	0.500000	0.000000 
		0.500000	0.500000	0.500000	0.000000 
		0.500000	0.500000	0.500000	0.000000 
		0.500000	0.500000	0.500000	0.000000 
		0.500000	0.500000	0.500000	0.000000 
		0.500000	0.500000	0.500000	0.000000 
	}

	Tex0 6 { 
		0.180664	0.875000 
		0.018555	0.844727 
		0.004883	0.875977 
		0.152344	0.895508 
		0.193359	0.844727 
		0.001953	0.907227 
	}

	Tex1 0 
	Adj 6 { 
		P 0 
		N 0 
		C0 0 
		T0 0 
		P 1 
		N 0 
		C0 1 
		T0 1 
		P 2 
		N 1 
		C0 2 
		T0 2 
		P 3 
		N 1 
		C0 3 
		T0 3 
		P 4 
		N 2 
		C0 4 
		T0 4 
		P 5 
		N 3 
		C0 5 
		T0 5 
	}

	Mtl 1 { 
		{
			Name "#4" 
			Priority 32 
			Prim 1 { 
				{
					Type TRISTRIP
					Priority 32 
					Idx 6 { 4 1 0 2 3 5 }
				}
			}

		}
	}

	Offset 0 
}
