{
	Skinned 0 
	PosSkin 0 
	Pos 8 { 
		-0.213864	1.388758	0.140314 
		0.213864	1.388758	0.140314 
		0.163857	1.486150	0.099248 
		-0.163857	1.486150	0.099248 
		0.163857	1.486150	0.045531 
		-0.163857	1.486150	0.045531 
		0.213864	1.388758	0.004466 
		-0.213864	1.388758	0.004466 
	}

	Nrm 8 { 
		-0.656250	0.453125	0.593750 
		0.656250	0.453125	0.593750 
		0.453125	0.781250	0.421875 
		-0.453125	0.781250	0.421875 
		0.453125	0.781250	-0.421875 
		-0.453125	0.781250	-0.421875 
		0.656250	0.453125	-0.593750 
		-0.656250	0.453125	-0.593750 
	}

	Cpv 12 { 
		0.498543	0.447107	0.500000	0.003922 
		0.498321	0.433336	0.500000	0.003922 
		0.501483	0.434896	0.500000	0.003922 
		0.501653	0.445447	0.500000	0.003922 
		0.501653	0.445447	0.500000	0.003922 
		0.501483	0.434896	0.500000	0.003922 
		0.501483	0.434896	0.500000	0.003922 
		0.501653	0.445447	0.500000	0.003922 
		0.498321	0.433336	0.500000	0.003922 
		0.498543	0.447107	0.500000	0.003922 
		0.498321	0.433336	0.500000	0.003922 
		0.498543	0.447107	0.500000	0.003922 
	}

	Tex0 8 { 
		0.127930	0.155273 
		0.302734	0.155273 
		0.282227	0.212891 
		0.148438	0.212891 
		0.282227	0.215820 
		0.148438	0.215820 
		0.127930	0.158203 
		0.302734	0.158203 
	}

	Tex1 0 
	Adj 12 { 
		P 0 
		N 0 
		C0 0 
		T0 0 
		P 1 
		N 1 
		C0 1 
		T0 1 
		P 2 
		N 2 
		C0 2 
		T0 2 
		P 3 
		N 3 
		C0 3 
		T0 3 
		P 3 
		N 3 
		C0 4 
		T0 4 
		P 2 
		N 2 
		C0 5 
		T0 5 
		P 4 
		N 4 
		C0 6 
		T0 3 
		P 5 
		N 5 
		C0 7 
		T0 2 
		P 6 
		N 6 
		C0 8 
		T0 0 
		P 7 
		N 7 
		C0 9 
		T0 1 
		P 1 
		N 1 
		C0 10 
		T0 6 
		P 0 
		N 0 
		C0 11 
		T0 7 
	}

	Mtl 1 { 
		{
			Name "#4" 
			Priority 32 
			Prim 2 { 
				{
					Type TRISTRIP
					Priority 32 
					Idx 4 { 0 1 3 2 }
				}
				{
					Type TRISTRIP
					Priority 32 
					Idx 12 { 10 8 5 6 4 7 11 7 9 7 8 6 }
				}
			}

		}
	}

	Offset 0 
}
