{
	Skinned 0 
	PosSkin 0 
	Pos 272 { 
		0.358740	2.348184	-0.999868 
		0.358740	2.272960	-0.996889 
		0.201853	2.272960	-0.996889 
		0.201853	2.348184	-0.999869 
		0.087424	2.348184	-0.999868 
		0.087424	2.272960	-0.996889 
		-0.069215	2.272960	-0.996889 
		-0.069215	2.348184	-0.999869 
		-0.183643	2.348184	-0.999869 
		-0.183643	2.272960	-0.996889 
		-0.341647	2.272960	-0.996889 
		-0.341647	2.348184	-0.999869 
		-0.456075	2.348184	-0.999869 
		-0.456075	2.272960	-0.996889 
		-0.613816	2.272960	-0.996889 
		-0.613816	2.348184	-0.999869 
		0.554962	2.234581	-0.845695 
		0.554962	2.237391	-0.774897 
		0.020835	2.237378	-0.774713 
		0.020835	2.234567	-0.845512 
		-0.513292	2.237391	-0.774898 
		-0.513292	2.234581	-0.845697 
		0.020835	2.285947	-0.847547 
		0.554962	2.285960	-0.847731 
		-0.513292	2.285960	-0.847732 
		0.020835	2.288745	-0.776748 
		-0.513292	2.288759	-0.776932 
		0.554962	2.288759	-0.776932 
		-0.602892	2.160657	-0.676893 
		-0.602892	2.147612	-0.937215 
		0.675922	2.160663	-0.676895 
		0.675922	2.147617	-0.937217 
		-0.628099	2.147617	-0.937217 
		-0.628099	2.160663	-0.676896 
		0.650715	2.160657	-0.676893 
		0.628351	2.272960	-0.996889 
		0.628351	2.275137	-0.938725 
		-0.613816	2.275137	-0.938725 
		0.628351	2.348184	-0.999869 
		-0.613816	2.350362	-0.941704 
		0.628351	2.350362	-0.941704 
		0.565284	2.294195	-0.688647 
		0.630246	2.371006	-0.632620 
		-0.614870	2.371006	-0.632620 
		-0.549908	2.294195	-0.688648 
		0.565284	2.282686	-0.918359 
		-0.549908	2.282686	-0.918359 
		-0.614870	2.353512	-0.981782 
		0.630246	2.353512	-0.981782 
		0.473169	2.272960	-0.996889 
		0.473169	2.348184	-0.999869 
		0.551295	2.438214	-0.702878 
		-0.535919	2.438214	-0.702878 
		-0.535919	2.427406	-0.918594 
		0.551295	2.427406	-0.918594 
		-0.004251	2.201157	-0.485495 
		-0.004251	2.174133	-1.079644 
		-0.794052	2.139380	-1.052606 
		-0.794052	2.165139	-0.484802 
		-0.004251	2.114321	-1.191717 
		-0.804455	2.079545	-1.164674 
		-0.004251	1.548291	-1.713216 
		-0.941725	1.519851	-1.683485 
		-0.004251	1.387429	-2.572331 
		-0.941725	1.358989	-2.508921 
		-0.004251	1.251878	-2.635007 
		-0.941725	1.223439	-2.571595 
		-0.004251	0.717151	-2.621011 
		-0.941725	0.718358	-2.558175 
		-0.004251	0.683974	-2.680627 
		-0.941725	0.685181	-2.617791 
		-0.004251	0.419636	-2.675981 
		-0.941725	0.420842	-2.613134 
		-0.957073	0.414316	-1.403920 
		-0.669747	0.374937	-1.403172 
		-1.171700	0.376014	-1.402689 
		-1.168607	0.415393	-1.403437 
		-1.023192	0.397307	-2.416529 
		-1.038251	0.717910	-2.341331 
		-1.043298	0.686726	-2.568525 
		-1.012128	0.417345	-2.563649 
		-1.022757	0.717339	-2.533255 
		-0.970996	0.501063	-1.447397 
		-0.971604	0.533526	-0.454818 
		-1.022757	0.867811	-0.460911 
		-1.022757	0.823546	-1.609022 
		-1.022757	1.506534	-0.472162 
		-0.851017	2.126338	-0.484058 
		-0.851017	2.100739	-1.032687 
		-0.867953	2.054774	-1.132933 
		-1.022757	1.491584	-1.645293 
		-1.035193	0.917441	-1.804315 
		-1.022757	1.339531	-2.489072 
		-1.035193	0.905837	-2.160470 
		-1.022757	1.217390	-2.543317 
		-1.165789	0.396714	-0.451777 
		-1.163087	0.435933	-0.452531 
		-0.957073	0.438561	-0.453087 
		-1.154956	2.719612	-0.440256 
		-1.154956	2.793626	3.414546 
		1.139952	2.793626	3.414546 
		1.139952	2.719612	-0.440256 
		-1.248428	2.662906	-0.439167 
		-1.248428	2.736920	3.415638 
		-1.244820	0.573189	1.530598 
		-1.244799	0.541401	-0.398432 
		-1.244530	0.384430	-0.395418 
		-1.244530	0.421845	1.483351 
		-1.198081	2.738104	3.477267 
		-1.244530	0.458511	3.459385 
		-1.195103	0.459494	3.518586 
		-1.195347	0.646165	3.515201 
		-1.244817	0.626525	3.456158 
		-1.195103	0.465286	3.830133 
		-1.194194	0.372216	3.831627 
		1.179808	0.372216	3.831627 
		1.180095	0.465284	3.830133 
		1.183085	2.738104	3.477267 
		-1.198081	2.661732	-0.500278 
		-1.197974	0.538326	-0.457240 
		-1.197966	0.383289	-0.454097 
		1.183085	2.661732	-0.500278 
		1.183534	0.544021	-0.457355 
		1.183568	0.383289	-0.454097 
		0.785550	2.139380	-1.052606 
		0.785550	2.165139	-0.484803 
		0.795953	2.079545	-1.164674 
		0.933222	1.519851	-1.683485 
		0.933222	1.358989	-2.508921 
		0.933222	1.223439	-2.571595 
		0.933222	0.718358	-2.558175 
		0.933222	0.685181	-2.617791 
		0.933222	0.420842	-2.613134 
		1.160339	0.376014	-1.402689 
		0.661244	0.374937	-1.403172 
		0.948571	0.414316	-1.403920 
		1.160097	0.415393	-1.403437 
		1.014689	0.397307	-2.416529 
		1.003625	0.417345	-2.563649 
		1.034795	0.686726	-2.568525 
		1.029749	0.717910	-2.341331 
		1.014254	0.717339	-2.533255 
		1.014255	0.867811	-0.460911 
		0.966306	0.554464	-0.455200 
		0.966306	0.524814	-1.459301 
		1.014254	0.823546	-1.609022 
		1.014255	1.506534	-0.472162 
		0.842515	2.100739	-1.032687 
		0.842515	2.126338	-0.484058 
		0.859450	2.054774	-1.132933 
		1.014254	1.491584	-1.645293 
		1.026690	0.917441	-1.804315 
		1.026690	0.905837	-2.160470 
		1.014254	1.339531	-2.489072 
		1.014254	1.217390	-2.543317 
		1.154577	0.435933	-0.452531 
		1.154427	0.396714	-0.451777 
		0.948571	0.438561	-0.453087 
		1.233421	2.736920	3.415638 
		1.233421	2.662906	-0.439167 
		1.229534	0.384430	-0.395418 
		1.229804	0.542445	-0.398452 
		1.229842	0.582774	1.533590 
		1.229534	0.421845	1.483351 
		1.180328	0.636555	3.515375 
		1.229825	0.628889	3.456112 
		-1.193573	0.365101	3.461040 
		-0.671529	0.459494	3.518586 
		-0.888733	0.459494	3.518586 
		1.179382	0.365121	3.462087 
		1.180095	0.459494	3.518586 
		1.229534	0.458511	3.459385 
		1.335081	1.478704	-1.398710 
		1.335081	1.757637	-1.398710 
		1.374641	1.757637	-1.415018 
		1.374641	1.441651	-1.415018 
		1.368983	1.441651	-1.372606 
		1.368983	1.757637	-1.372606 
		1.002018	1.478704	-1.443158 
		1.041577	1.441651	-1.459454 
		1.035918	1.441651	-1.417053 
		1.002018	1.260170	-1.443158 
		1.041577	1.260170	-1.459454 
		1.035918	1.260170	-1.417053 
		1.434510	1.886080	-1.339992 
		1.258928	1.886080	-1.347662 
		1.258744	1.558825	-1.343660 
		1.434337	1.558825	-1.336001 
		1.348156	1.648329	-1.376797 
		1.348237	1.795081	-1.378592 
		-1.394386	1.757637	-1.415018 
		-1.354826	1.757637	-1.398710 
		-1.354826	1.478704	-1.398710 
		-1.394386	1.441651	-1.415018 
		-1.388728	1.757637	-1.372606 
		-1.388728	1.441651	-1.372606 
		-1.021767	1.478704	-1.443158 
		-1.061326	1.441651	-1.459454 
		-1.055667	1.441651	-1.417053 
		-1.021767	1.260170	-1.443158 
		-1.061326	1.260170	-1.459454 
		-1.055667	1.260170	-1.417053 
		-1.278639	1.558825	-1.342889 
		-1.278777	1.886080	-1.346892 
		-1.454428	1.886080	-1.340751 
		-1.454290	1.558825	-1.336760 
		-1.367758	1.648329	-1.376809 
		-1.367821	1.795081	-1.378603 
		-1.105362	0.645801	3.515208 
		-0.890653	0.644933	3.515223 
		-0.676392	0.644066	3.515239 
		-1.102547	0.459494	3.518586 
		1.087623	0.459494	3.518586 
		1.087877	0.636929	3.515368 
		0.883685	0.637755	3.515354 
		0.885707	0.459494	3.518586 
		0.673175	0.638606	3.515338 
		0.669755	0.459494	3.518586 
		-1.244830	0.595873	2.291173 
		-1.244990	0.680442	2.265534 
		-1.244530	0.437633	2.339145 
		1.229850	0.604493	2.288560 
		1.229534	0.437633	2.339145 
		1.229994	0.680442	2.265534 
		1.229994	0.661840	1.558272 
		1.230120	0.834439	1.745493 
		1.230120	0.840351	2.056074 
		-1.244990	0.661840	1.558272 
		0.000000	2.617332	3.523030 
		1.111849	2.617332	3.523030 
		1.111849	2.723259	3.523030 
		0.000000	2.723259	3.523030 
		1.111849	2.723259	3.474602 
		0.000000	2.723259	3.474602 
		0.000000	2.617332	3.474602 
		1.111849	2.617332	3.474602 
		-1.111849	2.617332	3.474602 
		-1.111849	2.617332	3.523030 
		-1.111849	2.723259	3.523030 
		-1.111849	2.723259	3.474602 
		0.000000	2.515201	-0.543347 
		0.000000	2.621129	-0.543347 
		1.111849	2.621129	-0.543347 
		1.111849	2.515201	-0.543347 
		0.000000	2.621129	-0.494919 
		1.111849	2.621129	-0.494919 
		0.000000	2.515201	-0.494919 
		1.111849	2.515201	-0.494919 
		-1.111849	2.515201	-0.494919 
		-1.111849	2.621129	-0.494919 
		-1.111849	2.621129	-0.543347 
		-1.111849	2.515201	-0.543347 
		-1.247732	2.317414	2.762756 
		-1.247021	1.901879	2.766924 
		-1.247701	2.264105	0.938248 
		-1.247038	1.875873	0.949437 
		-1.245128	0.834439	1.745493 
		-1.245128	0.840351	2.056074 
		-0.669747	0.349264	-2.416541 
		-0.669747	0.905363	-2.306141 
		-0.669747	0.917470	-1.651676 
		0.661244	0.349264	-2.416541 
		-0.846139	0.422563	1.483339 
		-0.846138	0.438350	2.339123 
		-0.846664	0.857768	2.249549 
		-0.846666	0.857849	1.581227 
		0.837637	0.422562	1.483339 
		0.837636	0.438350	2.339123 
		0.661244	0.905363	-2.306141 
		0.661244	0.917470	-1.651676 
		0.838163	0.857767	2.249549 
		0.838163	0.857849	1.581227 
	}

	Nrm 208 { 
		0.000000	-0.046875	-1.000000 
		0.000000	-1.000000	0.046875 
		0.000000	0.046875	1.000000 
		0.671875	-0.734375	0.031250 
		0.734375	0.671875	-0.031250 
		-0.750000	0.656250	-0.031250 
		-0.625000	-0.031250	-0.781250 
		0.734375	-0.031250	-0.687500 
		0.000000	0.546875	-0.843750 
		0.640625	0.031250	0.765625 
		0.000000	0.781250	0.609375 
		-0.703125	0.031250	0.703125 
		0.000000	0.609375	0.781250 
		0.000000	-1.000000	0.031250 
		0.000000	1.000000	-0.031250 
		-1.000000	0.000000	0.000000 
		1.000000	0.000000	0.000000 
		0.000000	-0.593750	0.812500 
		0.000000	-0.671875	-0.750000 
		-0.750000	-0.656250	0.031250 
		0.750000	-0.656250	0.031250 
		0.000000	0.718750	0.687500 
		0.000000	0.656250	-0.765625 
		-0.671875	0.750000	-0.031250 
		0.671875	0.750000	-0.031250 
		0.000000	1.000000	-0.046875 
		-0.046875	1.000000	-0.046875 
		0.000000	0.765625	-0.656250 
		-0.296875	0.781250	-0.546875 
		0.015625	0.906250	-0.437500 
		-0.218750	0.890625	-0.421875 
		0.000000	0.734375	-0.671875 
		-0.203125	0.765625	-0.609375 
		0.000000	0.125000	-0.984375 
		-0.218750	0.234375	-0.953125 
		0.000000	0.656250	-0.750000 
		-0.171875	0.468750	-0.859375 
		0.000000	0.312500	-0.953125 
		-0.187500	0.593750	-0.781250 
		0.000000	-0.015625	-1.000000 
		-0.296875	-0.031250	-0.953125 
		-0.015625	-0.171875	-0.984375 
		-0.015625	-0.312500	-0.953125 
		-1.000000	-0.078125	-0.046875 
		-0.968750	0.234375	-0.046875 
		-0.765625	0.359375	-0.531250 
		-0.843750	-0.109375	-0.515625 
		-0.765625	0.312500	-0.562500 
		-1.000000	-0.109375	0.000000 
		-1.000000	-0.031250	0.015625 
		-0.984375	0.171875	0.000000 
		-0.812500	0.578125	-0.031250 
		-0.781250	0.625000	-0.062500 
		-0.765625	0.593750	-0.250000 
		-0.921875	0.359375	-0.171875 
		-1.000000	0.015625	0.031250 
		-0.703125	0.562500	-0.437500 
		-1.000000	0.031250	-0.031250 
		-0.812500	0.109375	-0.578125 
		-1.000000	0.062500	0.000000 
		-1.000000	0.078125	0.000000 
		-0.187500	0.921875	-0.343750 
		-0.281250	0.906250	0.296875 
		0.265625	0.953125	0.171875 
		0.265625	0.906250	-0.312500 
		-0.953125	0.250000	-0.171875 
		-0.968750	0.187500	0.187500 
		-0.968750	0.000000	-0.218750 
		-0.937500	-0.015625	-0.328125 
		-0.171875	0.234375	0.953125 
		-0.984375	0.000000	0.171875 
		-0.343750	0.015625	0.937500 
		-0.421875	0.015625	0.906250 
		-0.968750	0.000000	0.218750 
		0.000000	0.015625	1.000000 
		0.265625	0.312500	0.906250 
		-0.296875	0.343750	-0.890625 
		-0.437500	-0.015625	-0.906250 
		0.296875	0.515625	-0.812500 
		0.437500	-0.015625	-0.906250 
		0.046875	1.000000	-0.046875 
		0.296875	0.781250	-0.546875 
		0.234375	0.859375	-0.453125 
		0.171875	0.828125	-0.531250 
		0.218750	0.234375	-0.953125 
		0.171875	0.468750	-0.859375 
		0.187500	0.593750	-0.781250 
		0.296875	-0.031250	-0.953125 
		0.015625	-0.312500	-0.953125 
		0.015625	-0.171875	-0.984375 
		1.000000	-0.078125	-0.046875 
		0.843750	-0.109375	-0.515625 
		0.765625	0.359375	-0.531250 
		0.968750	0.234375	-0.046875 
		0.765625	0.312500	-0.562500 
		1.000000	-0.109375	0.000000 
		1.000000	-0.031250	0.015625 
		0.984375	0.171875	0.000000 
		0.781250	0.625000	-0.062500 
		0.812500	0.578125	-0.031250 
		0.765625	0.593750	-0.250000 
		0.921875	0.359375	-0.171875 
		1.000000	0.015625	0.031250 
		1.000000	0.031250	-0.031250 
		0.703125	0.562500	-0.437500 
		0.812500	0.109375	-0.578125 
		0.015625	1.000000	-0.015625 
		0.953125	0.265625	0.156250 
		0.890625	0.359375	-0.250000 
		0.937500	0.000000	-0.328125 
		0.968750	0.000000	-0.265625 
		-0.703125	-0.375000	0.593750 
		-1.000000	-0.015625	0.000000 
		0.000000	1.000000	-0.015625 
		0.718750	-0.359375	0.593750 
		-0.703125	0.703125	-0.093750 
		-0.921875	0.000000	0.375000 
		0.125000	0.000000	-0.984375 
		0.609375	0.000000	-0.796875 
		-0.109375	-0.500000	0.859375 
		0.796875	0.000000	0.609375 
		0.109375	-0.500000	-0.859375 
		0.375000	0.000000	0.921875 
		-0.796875	0.000000	-0.609375 
		0.921875	0.000000	-0.375000 
		-0.125000	0.000000	0.984375 
		0.000000	1.000000	0.000000 
		0.000000	-1.000000	0.000000 
		-0.046875	0.015625	1.000000 
		0.234375	-0.218750	-0.953125 
		0.562500	-0.140625	-0.812500 
		-0.218750	-0.281250	-0.937500 
		0.359375	0.062500	-0.937500 
		0.296875	0.250000	-0.921875 
		-0.484375	0.125000	-0.859375 
		-0.125000	0.000000	-0.984375 
		0.921875	0.000000	0.375000 
		0.703125	0.703125	-0.093750 
		-0.609375	0.000000	-0.796875 
		-0.796875	0.000000	0.609375 
		0.109375	-0.500000	0.859375 
		-0.109375	-0.500000	-0.859375 
		-0.375000	0.000000	0.921875 
		0.796875	0.000000	-0.609375 
		-0.921875	0.000000	-0.375000 
		0.125000	0.000000	0.984375 
		0.031250	0.015625	1.000000 
		0.234375	-0.281250	-0.937500 
		-0.562500	-0.140625	-0.812500 
		0.281250	-0.093750	-0.953125 
		-0.296875	0.250000	-0.921875 
		-0.359375	0.062500	-0.937500 
		0.500000	0.125000	-0.859375 
		0.968750	0.000000	0.265625 
		0.421875	0.015625	0.906250 
		-0.984375	-0.156250	0.000000 
		0.984375	-0.156250	0.000000 
		0.578125	0.578125	0.578125 
		-0.046875	-0.250000	-0.968750 
		0.703125	0.703125	0.000000 
		0.703125	-0.703125	0.000000 
		-0.703125	-0.703125	0.000000 
		-0.703125	0.703125	0.000000 
		-0.578125	0.578125	-0.578125 
		-0.578125	-0.578125	-0.578125 
		0.000000	-0.968750	-0.218750 
		-0.125000	-0.906250	-0.390625 
		-0.093750	-0.921875	-0.359375 
		0.000000	-0.953125	-0.296875 
		0.000000	-0.203125	0.984375 
		0.078125	-0.859375	0.515625 
		0.093750	-0.375000	0.921875 
		0.156250	-0.906250	0.390625 
		0.062500	-0.859375	-0.500000 
		0.062500	-0.984375	-0.125000 
		0.046875	-0.609375	-0.781250 
		0.000000	-1.000000	0.015625 
		-0.250000	-0.875000	-0.421875 
		0.000000	-0.984375	-0.171875 
		0.218750	-0.546875	-0.812500 
		0.156250	-0.968750	-0.203125 
		0.125000	-0.656250	-0.734375 
		0.203125	-0.906250	0.359375 
		0.140625	-0.859375	0.484375 
		0.125000	-0.421875	0.890625 
		0.046875	-0.250000	-0.968750 
		0.000000	-0.203125	-0.984375 
		0.031250	-0.265625	0.968750 
		0.093750	-0.921875	-0.359375 
		0.125000	-0.906250	-0.390625 
		-0.093750	-0.375000	0.921875 
		-0.078125	-0.859375	0.515625 
		-0.156250	-0.906250	0.390625 
		-0.062500	-0.984375	-0.125000 
		-0.062500	-0.859375	-0.500000 
		-0.046875	-0.609375	-0.781250 
		0.250000	-0.875000	-0.421875 
		-0.218750	-0.546875	-0.812500 
		-0.140625	-0.656250	-0.734375 
		-0.156250	-0.968750	-0.203125 
		-0.140625	-0.859375	0.484375 
		-0.203125	-0.906250	0.359375 
		-0.125000	-0.421875	0.890625 
		-0.031250	-0.265625	0.968750 
		0.000000	-0.296875	0.953125 
		0.000000	-0.031250	-1.000000 
		0.156250	0.062500	-0.984375 
		-0.031250	-1.000000	0.015625 
	}

	Cpv 616 { 
		0.500000	0.500000	0.500000	0.003922 
		0.500000	0.500000	0.500000	0.003922 
		0.500000	0.500000	0.500000	0.003922 
		0.500000	0.500000	0.500000	0.003922 
		0.500000	0.500000	0.500000	0.003922 
		0.500000	0.500000	0.500000	0.003922 
		0.500000	0.500000	0.500000	0.003922 
		0.500000	0.500000	0.500000	0.003922 
		0.500000	0.500000	0.500000	0.003922 
		0.500000	0.500000	0.500000	0.003922 
		0.500000	0.500000	0.500000	0.003922 
		0.500000	0.500000	0.500000	0.003922 
		0.500000	0.500000	0.500000	0.003922 
		0.500000	0.500000	0.500000	0.003922 
		0.500000	0.500000	0.500000	0.003922 
		0.500000	0.500000	0.500000	0.003922 
		0.500000	0.500000	0.500000	0.003922 
		0.500000	0.500000	0.500000	0.003922 
		0.500000	0.500000	0.500000	0.003922 
		0.500000	0.500000	0.500000	0.003922 
		0.500000	0.500000	0.500000	0.003922 
		0.500000	0.500000	0.500000	0.003922 
		0.500000	0.500000	0.500000	0.003922 
		0.500000	0.500000	0.500000	0.003922 
		0.500000	0.500000	0.500000	0.003922 
		0.500000	0.500000	0.500000	0.003922 
		0.500000	0.500000	0.500000	0.003922 
		0.500000	0.500000	0.500000	0.003922 
		0.500000	0.500000	0.500000	0.003922 
		0.500000	0.500000	0.500000	0.003922 
		0.500000	0.500000	0.500000	0.003922 
		0.500000	0.500000	0.500000	0.003922 
		0.500000	0.500000	0.500000	0.003922 
		0.500000	0.500000	0.500000	0.003922 
		0.500000	0.500000	0.500000	0.003922 
		0.500000	0.500000	0.500000	0.003922 
		0.500000	0.500000	0.500000	0.003922 
		0.500000	0.500000	0.500000	0.003922 
		0.500000	0.500000	0.500000	0.003922 
		0.500000	0.500000	0.500000	0.003922 
		0.500000	0.500000	0.500000	0.003922 
		0.500000	0.500000	0.500000	0.003922 
		0.500000	0.500000	0.500000	0.003922 
		0.500000	0.500000	0.500000	0.003922 
		0.500000	0.500000	0.500000	0.003922 
		0.500000	0.500000	0.500000	0.003922 
		0.500000	0.500000	0.500000	0.003922 
		0.500000	0.500000	0.500000	0.003922 
		0.500000	0.500000	0.500000	0.003922 
		0.500000	0.500000	0.500000	0.003922 
		0.500000	0.500000	0.500000	0.003922 
		0.500000	0.500000	0.500000	0.003922 
		0.500000	0.500000	0.500000	0.003922 
		0.500000	0.500000	0.500000	0.003922 
		0.500000	0.500000	0.500000	0.003922 
		0.500000	0.500000	0.500000	0.003922 
		0.500000	0.500000	0.500000	0.003922 
		0.500000	0.500000	0.500000	0.003922 
		0.500000	0.500000	0.500000	0.003922 
		0.500000	0.500000	0.500000	0.003922 
		0.500000	0.500000	0.500000	0.003922 
		0.500000	0.500000	0.500000	0.003922 
		0.500000	0.500000	0.500000	0.003922 
		0.500000	0.500000	0.500000	0.003922 
		0.500000	0.500000	0.500000	0.003922 
		0.500000	0.500000	0.500000	0.003922 
		0.500000	0.500000	0.500000	0.003922 
		0.500000	0.500000	0.500000	0.003922 
		0.500000	0.500000	0.500000	0.003922 
		0.500000	0.500000	0.500000	0.003922 
		0.500000	0.500000	0.500000	0.003922 
		0.500000	0.500000	0.500000	0.003922 
		0.500000	0.500000	0.500000	0.003922 
		0.500000	0.500000	0.500000	0.003922 
		0.500000	0.500000	0.500000	0.003922 
		0.500000	0.500000	0.500000	0.003922 
		0.500000	0.500000	0.500000	0.003922 
		0.500000	0.500000	0.500000	0.003922 
		0.500000	0.500000	0.500000	0.003922 
		0.500000	0.500000	0.500000	0.003922 
		0.500000	0.500000	0.500000	0.003922 
		0.500000	0.500000	0.500000	0.003922 
		0.500000	0.500000	0.500000	0.003922 
		0.500000	0.500000	0.500000	0.003922 
		0.500000	0.500000	0.500000	0.003922 
		0.500000	0.500000	0.500000	0.003922 
		0.500000	0.500000	0.500000	0.003922 
		0.500000	0.500000	0.500000	0.003922 
		0.500000	0.500000	0.500000	0.003922 
		0.500000	0.500000	0.500000	0.003922 
		0.500000	0.500000	0.500000	0.003922 
		0.500000	0.500000	0.500000	0.003922 
		0.500000	0.500000	0.500000	0.003922 
		0.500000	0.500000	0.500000	0.003922 
		0.500000	0.500000	0.500000	0.003922 
		0.500000	0.500000	0.500000	0.003922 
		0.500000	0.500000	0.500000	0.003922 
		0.500000	0.500000	0.500000	0.003922 
		0.500000	0.500000	0.500000	0.003922 
		0.500000	0.500000	0.500000	0.003922 
		0.500000	0.500000	0.500000	0.003922 
		0.500000	0.500000	0.500000	0.003922 
		0.500000	0.500000	0.500000	0.003922 
		0.500000	0.500000	0.500000	0.003922 
		0.500000	0.500000	0.500000	0.003922 
		0.500000	0.500000	0.500000	0.003922 
		0.500000	0.500000	0.500000	0.003922 
		0.500000	0.500000	0.500000	0.003922 
		0.500000	0.500000	0.500000	0.003922 
		0.500000	0.500000	0.500000	0.003922 
		0.500000	0.500000	0.500000	0.003922 
		0.500000	0.500000	0.500000	0.003922 
		0.500000	0.500000	0.500000	0.003922 
		0.500000	0.500000	0.500000	0.003922 
		0.500000	0.500000	0.500000	0.003922 
		0.500000	0.500000	0.500000	0.003922 
		0.500000	0.500000	0.500000	0.003922 
		0.500000	0.500000	0.500000	0.003922 
		0.500000	0.500000	0.500000	0.003922 
		0.500000	0.500000	0.500000	0.003922 
		0.500000	0.500000	0.500000	0.003922 
		0.500000	0.500000	0.500000	0.003922 
		0.500000	0.500000	0.500000	0.003922 
		0.500000	0.500000	0.500000	0.003922 
		0.500000	0.500000	0.500000	0.003922 
		0.500000	0.500000	0.500000	0.003922 
		0.500000	0.500000	0.500000	0.003922 
		0.500000	0.500000	0.500000	0.003922 
		0.500000	0.500000	0.500000	0.003922 
		0.500000	0.500000	0.500000	0.003922 
		0.500000	0.500000	0.500000	0.003922 
		0.500000	0.500000	0.500000	0.003922 
		0.500000	0.500000	0.500000	0.003922 
		0.500000	0.500000	0.500000	0.003922 
		0.500000	0.500000	0.500000	0.003922 
		0.500000	0.500000	0.500000	0.003922 
		0.500000	0.500000	0.500000	0.003922 
		0.500000	0.500000	0.500000	0.003922 
		0.500000	0.500000	0.500000	0.003922 
		0.500000	0.500000	0.500000	0.003922 
		0.500000	0.500000	0.500000	0.003922 
		0.500000	0.500000	0.500000	0.003922 
		0.500000	0.500000	0.500000	0.003922 
		0.500000	0.500000	0.500000	0.003922 
		0.500000	0.500000	0.500000	0.003922 
		0.500000	0.500000	0.500000	0.000000 
		0.500000	0.500000	0.500000	0.000000 
		0.500000	0.418071	0.651699	0.000000 
		0.500000	0.448571	0.500000	0.000000 
		0.500000	0.500000	0.500000	0.000000 
		0.500000	0.500000	0.500000	0.000000 
		0.500000	0.418071	0.651699	0.000000 
		0.500000	0.418071	0.651699	0.000000 
		0.500000	0.448571	0.500000	0.000000 
		0.500000	0.448571	0.500000	0.000000 
		0.500000	0.594092	0.651699	0.000000 
		0.500000	0.500000	0.500000	0.000000 
		0.500000	0.594092	0.651699	0.000000 
		0.500000	0.500000	0.500000	0.000000 
		0.500000	0.594092	0.651699	0.000000 
		0.500000	0.588683	0.500000	0.000000 
		0.500000	0.500000	0.500000	0.000000 
		0.500000	0.500000	0.500000	0.000000 
		0.500000	0.500000	0.500000	0.000000 
		0.500000	0.500000	0.500000	0.000000 
		0.500000	0.588683	0.500000	0.000000 
		0.500000	0.500000	0.500000	0.000000 
		0.500000	0.500000	0.500000	0.000000 
		0.500000	0.588683	0.500000	0.000000 
		0.500000	0.500000	0.500000	0.000000 
		0.500000	0.500000	0.500000	0.000000 
		0.500000	0.500000	0.500000	0.000000 
		0.500000	0.500000	0.500000	0.000000 
		0.500000	0.500000	0.500000	0.000000 
		0.500000	0.500000	0.500000	0.000000 
		0.500000	0.500000	0.500000	0.003922 
		0.500000	0.500000	0.500000	0.003922 
		0.500000	0.500000	0.500000	0.003922 
		0.500000	0.500000	0.500000	0.000000 
		0.500000	0.500000	0.500000	0.000000 
		0.500000	0.448571	0.500000	0.000000 
		0.500000	0.500000	0.500000	0.000000 
		0.500000	0.448571	0.500000	0.000000 
		0.500000	0.500000	0.500000	0.000000 
		0.500000	0.500000	0.500000	0.003922 
		0.500000	0.500000	0.500000	0.003922 
		0.500000	0.500000	0.500000	0.003922 
		0.500000	0.500000	0.500000	0.003922 
		0.500000	0.500000	0.500000	0.000000 
		0.500000	0.448571	0.500000	0.000000 
		0.500000	0.500000	0.500000	0.000000 
		0.500000	0.448571	0.500000	0.000000 
		0.500000	0.448571	0.500000	0.000000 
		0.500000	0.500000	0.500000	0.000000 
		0.500000	0.500000	0.500000	0.000000 
		0.500000	0.588683	0.500000	0.000000 
		0.500000	0.500000	0.500000	0.000000 
		0.500000	0.500000	0.500000	0.000000 
		0.500000	0.500000	0.500000	0.000000 
		0.500000	0.500000	0.500000	0.000000 
		0.500000	0.500000	0.500000	0.000000 
		0.500000	0.500000	0.500000	0.000000 
		0.500000	0.500000	0.500000	0.000000 
		0.500000	0.500000	0.500000	0.000000 
		0.500000	0.397825	0.500000	0.003922 
		0.500000	0.388159	0.500000	0.003922 
		0.500000	0.500000	0.500000	0.003922 
		0.500000	0.500000	0.500000	0.003922 
		0.500000	0.397825	0.500000	0.003922 
		0.500000	0.388159	0.500000	0.003922 
		0.500000	0.500000	0.500000	0.000000 
		0.500000	0.500000	0.500000	0.000000 
		0.500000	0.500000	0.500000	0.000000 
		0.500000	0.500000	0.500000	0.000000 
		0.500000	0.388159	0.500000	0.003922 
		0.500000	0.500000	0.500000	0.000000 
		0.500000	0.500000	0.491168	0.000000 
		0.500000	0.500000	0.491168	0.000000 
		0.500000	0.500000	0.500000	0.000000 
		0.588232	0.398124	0.389704	0.000000 
		0.588232	0.398124	0.389704	0.000000 
		0.500000	0.500000	0.500000	0.000000 
		0.500000	0.500000	0.500000	0.000000 
		0.500000	0.500000	0.500000	0.003922 
		0.500000	0.397825	0.500000	0.003922 
		0.500000	0.500000	0.500000	0.000000 
		0.500000	0.500000	0.500000	0.000000 
		0.500000	0.500000	0.500000	0.003922 
		0.500000	0.500000	0.500000	0.000000 
		0.500000	0.500000	0.500000	0.000000 
		0.500000	0.500000	0.500000	0.003922 
		0.500000	0.500000	0.500000	0.003922 
		0.500000	0.500000	0.500000	0.003922 
		0.500000	0.500000	0.500000	0.003922 
		0.500000	0.500000	0.500000	0.000000 
		0.500000	0.500000	0.500000	0.000000 
		0.500000	0.500000	0.500000	0.000000 
		0.500000	0.500000	0.500000	0.000000 
		0.500000	0.500000	0.500000	0.000000 
		0.500000	0.500000	0.500000	0.000000 
		0.500000	0.500000	0.500000	0.000000 
		0.500000	0.500000	0.500000	0.000000 
		0.500000	0.500000	0.500000	0.000000 
		0.500000	0.500000	0.500000	0.000000 
		0.500000	0.500000	0.500000	0.000000 
		0.500000	0.500000	0.500000	0.000000 
		0.500000	0.500000	0.500000	0.000000 
		0.500000	0.500000	0.500000	0.000000 
		0.500000	0.500000	0.500000	0.000000 
		0.500000	0.500000	0.500000	0.000000 
		0.500000	0.500000	0.500000	0.000000 
		0.500000	0.500000	0.500000	0.000000 
		0.500000	0.500000	0.500000	0.000000 
		0.500000	0.500000	0.500000	0.000000 
		0.500000	0.500000	0.500000	0.000000 
		0.500000	0.500000	0.500000	0.000000 
		0.500000	0.500000	0.500000	0.003922 
		0.500000	0.500000	0.500000	0.003922 
		0.500000	0.500000	0.500000	0.003922 
		0.500000	0.500000	0.500000	0.000000 
		0.500000	0.500000	0.500000	0.000000 
		0.500000	0.500000	0.500000	0.000000 
		0.500000	0.500000	0.500000	0.000000 
		0.500000	0.500000	0.500000	0.000000 
		0.500000	0.500000	0.500000	0.000000 
		0.500000	0.500000	0.500000	0.003922 
		0.500000	0.500000	0.500000	0.003922 
		0.500000	0.500000	0.500000	0.003922 
		0.500000	0.500000	0.500000	0.003922 
		0.500000	0.500000	0.500000	0.000000 
		0.500000	0.500000	0.500000	0.000000 
		0.500000	0.500000	0.500000	0.000000 
		0.500000	0.500000	0.500000	0.000000 
		0.500000	0.500000	0.500000	0.000000 
		0.500000	0.500000	0.500000	0.000000 
		0.500000	0.500000	0.500000	0.000000 
		0.500000	0.500000	0.500000	0.000000 
		0.500000	0.500000	0.500000	0.000000 
		0.500000	0.500000	0.500000	0.000000 
		0.500000	0.500000	0.500000	0.000000 
		0.500000	0.500000	0.500000	0.000000 
		0.500000	0.500000	0.500000	0.000000 
		0.500000	0.500000	0.500000	0.000000 
		0.500000	0.500000	0.500000	0.000000 
		0.500000	0.500000	0.500000	0.000000 
		0.500000	0.500000	0.500000	0.003922 
		0.500000	0.500000	0.500000	0.003922 
		0.500000	0.500000	0.500000	0.000000 
		0.500000	0.500000	0.500000	0.000000 
		0.500000	0.500000	0.500000	0.000000 
		0.500000	0.500000	0.500000	0.000000 
		0.500000	0.500000	0.500000	0.003922 
		0.500000	0.500000	0.500000	0.000000 
		0.500000	0.500000	0.500000	0.000000 
		0.500000	0.500000	0.500000	0.003922 
		0.500000	0.500000	0.491168	0.000000 
		0.500000	0.500000	0.500000	0.000000 
		0.500000	0.500000	0.500000	0.000000 
		0.588232	0.398124	0.389704	0.000000 
		0.588232	0.398124	0.389704	0.000000 
		0.500000	0.500000	0.491168	0.000000 
		0.500000	0.500000	0.500000	0.000000 
		0.500000	0.500000	0.419214	0.000000 
		0.500000	0.500000	0.419214	0.000000 
		0.588232	0.398124	0.389704	0.000000 
		0.500000	0.500000	0.500000	0.000000 
		0.500000	0.500000	0.500000	0.000000 
		0.500000	0.500000	0.500000	0.000000 
		0.500000	0.500000	0.500000	0.000000 
		0.500000	0.500000	0.500000	0.000000 
		0.500000	0.500000	0.500000	0.000000 
		0.500000	0.500000	0.500000	0.000000 
		0.500000	0.500000	0.500000	0.000000 
		0.500000	0.500000	0.500000	0.000000 
		0.500000	0.500000	0.500000	0.000000 
		0.500000	0.500000	0.500000	0.000000 
		0.500000	0.500000	0.500000	0.000000 
		0.500000	0.500000	0.500000	0.000000 
		0.500000	0.500000	0.500000	0.000000 
		0.500000	0.500000	0.500000	0.000000 
		0.500000	0.500000	0.500000	0.000000 
		0.500000	0.500000	0.500000	0.000000 
		0.500000	0.500000	0.500000	0.000000 
		0.500000	0.500000	0.500000	0.000000 
		0.500000	0.500000	0.500000	0.000000 
		0.500000	0.500000	0.500000	0.000000 
		0.500000	0.500000	0.500000	0.000000 
		0.500000	0.500000	0.500000	0.000000 
		0.500000	0.500000	0.500000	0.000000 
		0.500000	0.500000	0.500000	0.000000 
		0.401022	0.521275	0.504714	0.000000 
		0.435708	0.423943	0.551914	0.000000 
		0.608887	0.478725	0.493660	0.000000 
		0.574195	0.576064	0.446457	0.000000 
		0.532358	0.513279	0.487463	0.000000 
		0.574195	0.576064	0.446457	0.000000 
		0.608887	0.478725	0.493660	0.000000 
		0.454700	0.488712	0.513587	0.000000 
		0.401022	0.521275	0.504714	0.000000 
		0.435708	0.423943	0.551914	0.000000 
		0.738641	0.503216	0.500000	0.000000 
		0.735213	0.487107	0.500000	0.000000 
		0.621634	0.511279	0.500000	0.000000 
		0.609975	0.530598	0.500000	0.000000 
		0.738151	0.500912	0.500000	0.000000 
		0.609485	0.528294	0.500000	0.000000 
		0.500000	0.500000	0.500000	0.000000 
		0.500000	0.500000	0.500000	0.000000 
		0.500000	0.500000	0.500000	0.000000 
		0.500000	0.500000	0.500000	0.000000 
		0.500000	0.500000	0.500000	0.000000 
		0.500000	0.500000	0.500000	0.000000 
		0.738151	0.500912	0.500000	0.000000 
		0.735213	0.487107	0.500000	0.000000 
		0.738641	0.503216	0.500000	0.000000 
		0.500000	0.500000	0.500000	0.000000 
		0.500000	0.500000	0.500000	0.000000 
		0.500000	0.500000	0.500000	0.000000 
		0.647656	0.473313	0.500000	0.000000 
		0.780924	0.445010	0.500000	0.000000 
		0.796145	0.516533	0.500000	0.000000 
		0.662878	0.544836	0.500000	0.000000 
		0.647656	0.473313	0.500000	0.000000 
		0.662878	0.544836	0.500000	0.000000 
		0.691825	0.501845	0.500000	0.000000 
		0.796145	0.516533	0.500000	0.000000 
		0.751586	0.489154	0.500000	0.000000 
		0.780924	0.445010	0.500000	0.000000 
		0.500000	0.388159	0.500000	0.003922 
		0.500000	0.500000	0.500000	0.000000 
		0.500000	0.500000	0.500000	0.000000 
		0.500000	0.500000	0.419214	0.000000 
		0.500000	0.500000	0.419214	0.000000 
		0.500000	0.500000	0.500000	0.000000 
		0.500000	0.500000	0.500000	0.000000 
		0.500000	0.500000	0.500000	0.000000 
		0.500000	0.500000	0.500000	0.000000 
		0.500000	0.500000	0.500000	0.000000 
		0.500000	0.500000	0.491168	0.000000 
		0.500000	0.388159	0.500000	0.003922 
		0.500000	0.388159	0.500000	0.003922 
		0.500000	0.500000	0.500000	0.000000 
		0.500000	0.500000	0.491168	0.000000 
		0.500000	0.500000	0.500000	0.000000 
		0.500000	0.500000	0.500000	0.000000 
		0.500000	0.500000	0.491168	0.000000 
		0.500000	0.500000	0.500000	0.000000 
		0.500000	0.500000	0.491168	0.000000 
		0.500000	0.500000	0.500000	0.000000 
		0.500000	0.500000	0.500000	0.000000 
		0.500000	0.500000	0.500000	0.000000 
		0.500000	0.500000	0.500000	0.000000 
		0.500000	0.500000	0.500000	0.000000 
		0.500000	0.500000	0.500000	0.000000 
		0.500000	0.500000	0.500000	0.000000 
		0.500000	0.500000	0.419214	0.000000 
		0.500000	0.500000	0.500000	0.000000 
		0.500000	0.500000	0.500000	0.000000 
		0.500000	0.500000	0.419214	0.000000 
		0.500000	0.500000	0.500000	0.000000 
		0.500000	0.500000	0.500000	0.000000 
		0.500000	0.500000	0.500000	0.000000 
		0.500000	0.500000	0.419214	0.000000 
		0.500000	0.500000	0.500000	0.003922 
		0.500000	0.500000	0.491168	0.000000 
		0.500000	0.500000	0.500000	0.000000 
		0.500000	0.500000	0.500000	0.000000 
		0.500000	0.500000	0.419214	0.000000 
		0.500000	0.500000	0.500000	0.000000 
		0.500000	0.500000	0.500000	0.000000 
		0.500000	0.500000	0.500000	0.000000 
		0.500000	0.500000	0.500000	0.000000 
		0.500000	0.500000	0.500000	0.000000 
		0.500000	0.500000	0.500000	0.000000 
		0.621110	0.500000	0.500000	0.000000 
		0.621110	0.500000	0.500000	0.000000 
		0.500000	0.397825	0.500000	0.003922 
		0.500000	0.397825	0.500000	0.003922 
		0.500000	0.500000	0.500000	0.000000 
		0.500000	0.500000	0.500000	0.000000 
		0.500000	0.500000	0.500000	0.003922 
		0.500000	0.500000	0.500000	0.000000 
		0.500000	0.500000	0.500000	0.000000 
		0.621110	0.500000	0.500000	0.000000 
		0.621110	0.500000	0.500000	0.000000 
		0.500000	0.500000	0.500000	0.000000 
		0.500000	0.500000	0.500000	0.000000 
		0.500000	0.500000	0.500000	0.000000 
		0.500000	0.500000	0.500000	0.000000 
		0.500000	0.500000	0.500000	0.000000 
		0.500000	0.500000	0.500000	0.000000 
		0.500000	0.500000	0.500000	0.000000 
		0.500000	0.500000	0.500000	0.000000 
		0.500000	0.500000	0.500000	0.000000 
		0.500000	0.500000	0.500000	0.000000 
		0.500000	0.500000	0.500000	0.000000 
		0.500000	0.500000	0.500000	0.000000 
		0.424044	0.500000	0.500000	0.000000 
		0.500000	0.500000	0.500000	0.000000 
		0.500000	0.500000	0.500000	0.000000 
		0.424044	0.500000	0.500000	0.000000 
		0.500000	0.500000	0.500000	0.003922 
		0.500000	0.500000	0.500000	0.000000 
		0.500000	0.500000	0.500000	0.003922 
		0.500000	0.500000	0.500000	0.000000 
		0.500000	0.500000	0.500000	0.000000 
		0.500000	0.500000	0.500000	0.000000 
		0.500000	0.500000	0.500000	0.000000 
		0.502411	0.426815	0.500000	0.003922 
		0.500000	0.500000	0.500000	0.003922 
		0.493028	0.499770	0.500000	0.003922 
		0.495439	0.426585	0.500000	0.003922 
		0.493028	0.499770	0.500000	0.003922 
		0.495439	0.426585	0.500000	0.003922 
		0.502411	0.426815	0.500000	0.003922 
		0.500000	0.500000	0.500000	0.003922 
		0.500000	0.500000	0.500000	0.003922 
		0.500000	0.500000	0.500000	0.003922 
		0.493028	0.499770	0.500000	0.003922 
		0.493028	0.499770	0.500000	0.003922 
		0.504822	0.353631	0.500000	0.003922 
		0.504822	0.353631	0.500000	0.003922 
		0.497850	0.353401	0.500000	0.003922 
		0.497850	0.353401	0.500000	0.003922 
		0.497850	0.353401	0.500000	0.003922 
		0.495439	0.426585	0.500000	0.003922 
		0.497850	0.353401	0.500000	0.003922 
		0.504822	0.353631	0.500000	0.003922 
		0.497850	0.353401	0.500000	0.003922 
		0.504822	0.353631	0.500000	0.003922 
		0.502411	0.426815	0.500000	0.003922 
		0.500734	0.459615	0.500000	0.003922 
		0.496886	0.459545	0.500000	0.003922 
		0.496152	0.499930	0.500000	0.003922 
		0.500000	0.500000	0.500000	0.003922 
		0.496886	0.459545	0.500000	0.003922 
		0.496152	0.499930	0.500000	0.003922 
		0.500734	0.459615	0.500000	0.003922 
		0.500000	0.500000	0.500000	0.003922 
		0.500000	0.500000	0.500000	0.003922 
		0.496152	0.499930	0.500000	0.003922 
		0.496152	0.499930	0.500000	0.003922 
		0.500000	0.500000	0.500000	0.003922 
		0.501467	0.419230	0.500000	0.003922 
		0.497620	0.419160	0.500000	0.003922 
		0.497620	0.419160	0.500000	0.003922 
		0.501467	0.419230	0.500000	0.003922 
		0.497620	0.419160	0.500000	0.003922 
		0.497620	0.419160	0.500000	0.003922 
		0.496886	0.459545	0.500000	0.003922 
		0.501467	0.419230	0.500000	0.003922 
		0.497620	0.419160	0.500000	0.003922 
		0.501467	0.419230	0.500000	0.003922 
		0.500734	0.459615	0.500000	0.003922 
		0.539739	0.500000	0.500000	0.003922 
		0.539739	0.500000	0.500000	0.003922 
		0.539739	0.500000	0.500000	0.003922 
		0.500000	0.397825	0.500000	0.003922 
		0.539739	0.500000	0.500000	0.003922 
		0.500000	0.500000	0.500000	0.000000 
		0.571535	0.500000	0.500000	0.000000 
		0.539739	0.500000	0.500000	0.003922 
		0.539739	0.500000	0.500000	0.003922 
		0.539739	0.500000	0.500000	0.003922 
		0.539739	0.500000	0.500000	0.003922 
		0.500000	0.500000	0.500000	0.003922 
		0.500000	0.500000	0.500000	0.003922 
		0.500000	0.612541	0.500000	0.000000 
		0.500000	0.588683	0.500000	0.000000 
		0.500000	0.588683	0.500000	0.000000 
		0.500000	0.594092	0.651699	0.000000 
		0.500000	0.612541	0.500000	0.000000 
		0.500000	0.500000	0.500000	0.000000 
		0.500000	0.500000	0.500000	0.000000 
		0.500000	0.588683	0.500000	0.000000 
		0.500000	0.500000	0.500000	0.000000 
		0.500000	0.500000	0.500000	0.000000 
		0.500000	0.500000	0.500000	0.000000 
		0.500000	0.500000	0.500000	0.000000 
		0.500000	0.500000	0.500000	0.000000 
		0.500000	0.500000	0.500000	0.000000 
		0.500000	0.500000	0.500000	0.000000 
		0.500000	0.500000	0.500000	0.000000 
		0.500000	0.500000	0.500000	0.000000 
		0.500000	0.500000	0.500000	0.000000 
		0.500000	0.500000	0.500000	0.000000 
		0.500000	0.500000	0.500000	0.000000 
		0.500000	0.500000	0.500000	0.000000 
		0.500000	0.588683	0.500000	0.000000 
		0.500000	0.612541	0.500000	0.000000 
		0.500000	0.500000	0.500000	0.000000 
		0.500000	0.500000	0.500000	0.000000 
		0.500000	0.500000	0.500000	0.000000 
		0.500000	0.570515	0.500000	0.000000 
		0.500000	0.500000	0.500000	0.000000 
		0.500000	0.500000	0.500000	0.000000 
		0.500000	0.500000	0.500000	0.000000 
		0.500000	0.500000	0.500000	0.000000 
		0.500000	0.500000	0.500000	0.000000 
		0.621110	0.500000	0.500000	0.000000 
		0.571535	0.500000	0.500000	0.000000 
		0.500000	0.500000	0.500000	0.000000 
		0.500000	0.500000	0.500000	0.000000 
		0.500000	0.500000	0.500000	0.000000 
		0.500000	0.500000	0.500000	0.000000 
		0.621110	0.500000	0.500000	0.000000 
		0.621110	0.500000	0.500000	0.000000 
		0.500000	0.500000	0.500000	0.000000 
		0.500000	0.500000	0.500000	0.000000 
		0.500000	0.500000	0.500000	0.000000 
		0.500000	0.500000	0.500000	0.000000 
		0.500000	0.500000	0.500000	0.000000 
		0.500000	0.500000	0.500000	0.000000 
		0.500000	0.500000	0.500000	0.000000 
		0.500000	0.500000	0.500000	0.000000 
		0.500000	0.500000	0.500000	0.000000 
		0.500000	0.500000	0.500000	0.000000 
		0.500000	0.500000	0.500000	0.000000 
		0.500000	0.500000	0.500000	0.000000 
		0.500000	0.500000	0.500000	0.000000 
		0.500000	0.500000	0.500000	0.000000 
		0.500000	0.500000	0.500000	0.000000 
		0.500000	0.500000	0.500000	0.000000 
		0.500000	0.500000	0.500000	0.000000 
		0.500000	0.570515	0.500000	0.000000 
		0.500000	0.500000	0.500000	0.000000 
		0.500000	0.500000	0.500000	0.000000 
		0.500000	0.500000	0.500000	0.000000 
		0.500000	0.500000	0.500000	0.000000 
		0.500000	0.500000	0.500000	0.000000 
		0.500000	0.500000	0.500000	0.000000 
		0.500000	0.500000	0.500000	0.000000 
		0.500000	0.500000	0.500000	0.000000 
		0.500000	0.500000	0.500000	0.000000 
		0.500000	0.500000	0.500000	0.000000 
		0.500000	0.500000	0.500000	0.000000 
		0.500000	0.500000	0.500000	0.000000 
		0.500000	0.570515	0.500000	0.000000 
		0.500000	0.500000	0.500000	0.000000 
		0.500000	0.500000	0.500000	0.000000 
		0.500000	0.500000	0.500000	0.000000 
		0.500000	0.500000	0.500000	0.000000 
		0.500000	0.500000	0.500000	0.000000 
		0.500000	0.500000	0.500000	0.000000 
		0.500000	0.500000	0.500000	0.000000 
		0.500000	0.500000	0.500000	0.000000 
		0.500000	0.500000	0.500000	0.000000 
		0.424044	0.500000	0.500000	0.000000 
		0.424044	0.500000	0.500000	0.000000 
		0.500000	0.500000	0.500000	0.000000 
		0.500000	0.500000	0.500000	0.000000 
		0.500000	0.500000	0.500000	0.000000 
		0.500000	0.500000	0.500000	0.000000 
		0.500000	0.500000	0.500000	0.000000 
		0.500000	0.500000	0.500000	0.000000 
		0.500000	0.500000	0.500000	0.000000 
		0.500000	0.500000	0.500000	0.000000 
		0.621110	0.500000	0.500000	0.000000 
		0.500000	0.500000	0.500000	0.000000 
		0.500000	0.500000	0.500000	0.000000 
		0.500000	0.500000	0.500000	0.000000 
		0.500000	0.500000	0.500000	0.000000 
		0.500000	0.500000	0.500000	0.000000 
		0.500000	0.500000	0.500000	0.000000 
		0.500000	0.500000	0.500000	0.000000 
		0.500000	0.500000	0.500000	0.000000 
		0.500000	0.500000	0.500000	0.000000 
		0.588232	0.398124	0.389704	0.000000 
		0.500000	0.500000	0.500000	0.000000 
		0.500000	0.500000	0.500000	0.000000 
		0.500000	0.500000	0.500000	0.000000 
		0.500000	0.500000	0.500000	0.000000 
		0.500000	0.500000	0.500000	0.000000 
		0.500000	0.500000	0.500000	0.000000 
		0.500000	0.500000	0.500000	0.000000 
		0.500000	0.500000	0.500000	0.000000 
	}

	Tex0 308 { 
		0.851563	0.059570 
		0.851563	0.007813 
		0.746094	0.007813 
		0.746094	0.059570 
		0.177734	0.640625 
		0.407227	0.637695 
		0.029297	0.025391 
		0.648438	0.007813 
		0.648438	0.059570 
		0.252930	0.918945 
		0.252930	0.953125 
		0.088867	0.950195 
		0.088867	0.918945 
		0.250977	0.895508 
		0.250977	0.853516 
		0.072266	0.851563 
		0.083008	0.893555 
		0.250977	0.758789 
		0.044922	0.751953 
		0.252930	0.754883 
		0.051758	0.752930 
		0.047852	0.731445 
		0.252930	0.733398 
		0.249023	0.711914 
		0.249023	0.682617 
		0.451172	0.676758 
		0.451172	0.706055 
		0.249023	0.565430 
		0.451172	0.565430 
		0.249023	0.557617 
		0.451172	0.558594 
		0.249023	0.500000 
		0.451172	0.500000 
		0.702148	0.522461 
		0.767578	0.499023 
		0.653320	0.500000 
		0.654297	0.522461 
		0.435547	0.500000 
		0.414063	0.568359 
		0.462891	0.558594 
		0.463867	0.500000 
		0.457031	0.568359 
		0.865234	0.094727 
		0.667969	0.099609 
		0.663086	0.138672 
		0.886719	0.131836 
		0.665039	0.253906 
		0.673828	0.400391 
		0.762695	0.399414 
		0.779297	0.391602 
		0.882813	0.251953 
		0.916016	0.148438 
		0.985352	0.224609 
		0.932617	0.146484 
		0.994141	0.203125 
		0.992188	0.113281 
		0.077148	0.949219 
		0.077148	0.918945 
		0.057617	0.851563 
		0.070313	0.890625 
		0.027344	0.751953 
		0.019531	0.752930 
		0.014648	0.730469 
		0.468750	0.674805 
		0.468750	0.702148 
		0.468750	0.565430 
		0.473633	0.558594 
		0.466797	0.499023 
		0.849609	0.500000 
		0.602539	0.500000 
		0.602539	0.522461 
		0.849609	0.522461 
		0.608398	0.524414 
		0.826172	0.524414 
		0.826172	0.570313 
		0.608398	0.568359 
		0.673828	0.465820 
		0.047852	0.114258 
		0.047852	0.109375 
		0.500977	0.518555 
		0.511719	0.518555 
		0.511719	0.572266 
		0.500977	0.566406 
		0.501953	0.522461 
		0.501953	0.500977 
		0.998047	0.500977 
		0.998047	0.522461 
		0.052734	0.113281 
		0.052734	0.109375 
		0.416016	0.950195 
		0.416016	0.918945 
		0.430664	0.851563 
		0.418945	0.893555 
		0.457031	0.757813 
		0.449219	0.752930 
		0.449219	0.731445 
		0.046875	0.676758 
		0.046875	0.706055 
		0.046875	0.565430 
		0.046875	0.558594 
		0.046875	0.500000 
		0.737305	0.500000 
		0.550781	0.499023 
		0.658203	0.521484 
		0.737305	0.521484 
		0.667969	0.103516 
		0.867188	0.098633 
		0.427734	0.949219 
		0.427734	0.918945 
		0.444336	0.851563 
		0.431641	0.890625 
		0.474609	0.751953 
		0.498047	0.752930 
		0.498047	0.730469 
		0.029297	0.702148 
		0.029297	0.674805 
		0.029297	0.565430 
		0.024414	0.558594 
		0.031250	0.499023 
		0.833008	0.569336 
		0.833008	0.524414 
		0.052734	0.115234 
		0.003906	0.474609 
		0.005859	0.069336 
		0.018555	0.067383 
		0.013672	0.474609 
		0.126953	0.790039 
		0.133789	0.791016 
		0.133789	0.783203 
		0.095703	0.779297 
		0.094727	0.787109 
		0.673828	0.525391 
		0.648438	0.525391 
		0.613281	0.573242 
		0.131836	0.512695 
		0.384766	0.562500 
		0.459961	0.562500 
		0.459961	0.550781 
		0.384766	0.550781 
		0.919922	0.305664 
		0.950195	0.274414 
		0.888672	0.274414 
		0.919922	0.356445 
		0.950195	0.387695 
		0.889648	0.387695 
		0.486328	0.549805 
		0.486328	0.563477 
		0.397461	0.563477 
		0.397461	0.549805 
		0.514648	0.984375 
		0.533203	0.553711 
		0.576172	0.553711 
		0.564453	0.524414 
		0.610352	0.524414 
		0.609375	0.559570 
		0.564453	0.559570 
		0.511719	0.569336 
		0.500000	0.524414 
		0.519531	0.524414 
		0.519531	0.559570 
		0.500000	0.559570 
		0.624023	0.525391 
		0.613281	0.525391 
		0.887695	0.525391 
		0.877930	0.525391 
		0.887695	0.573242 
		0.979492	0.557617 
		0.978516	0.524414 
		0.998047	0.524414 
		0.998047	0.557617 
		0.936523	0.557617 
		0.936523	0.524414 
		0.854492	0.525391 
		0.891602	0.558594 
		0.891602	0.524414 
		0.829102	0.525391 
		0.618164	0.553711 
		0.885742	0.551758 
		0.986328	0.984375 
		0.515625	0.553711 
		0.967773	0.551758 
		0.985352	0.551758 
		0.926758	0.551758 
		0.961914	0.113281 
		0.048828	0.112305 
		0.206055	0.067383 
		0.209961	0.083984 
		0.416992	0.475586 
		0.416992	0.068359 
		0.429688	0.475586 
		0.429688	0.069336 
		0.047852	0.116211 
		0.065430	0.118164 
		0.040039	0.120117 
		0.040039	0.108398 
		0.064453	0.106445 
		0.206055	0.069336 
		0.323242	0.083008 
		0.327148	0.068359 
		0.637695	0.069336 
		0.291992	0.115234 
		0.632813	0.477539 
		0.242188	0.115234 
		0.328125	0.066406 
		0.546875	0.018555 
		0.977539	0.018555 
		0.977539	0.056641 
		0.546875	0.056641 
		0.965820	0.021484 
		0.972656	0.021484 
		0.972656	0.054688 
		0.965820	0.054688 
		0.957031	0.018555 
		0.972656	0.018555 
		0.972656	0.056641 
		0.957031	0.056641 
		0.075195	0.015625 
		0.075195	0.053711 
		0.473633	0.053711 
		0.473633	0.015625 
		0.463867	0.018555 
		0.463867	0.050781 
		0.469727	0.050781 
		0.469727	0.018555 
		0.455078	0.015625 
		0.455078	0.053711 
		0.469727	0.053711 
		0.469727	0.015625 
		0.120117	0.397461 
		0.118164	0.317383 
		0.416992	0.397461 
		0.417969	0.319336 
		0.122070	0.319336 
		0.416992	0.321289 
		0.416992	0.400391 
		0.121094	0.392578 
		0.027344	0.200195 
		0.027344	0.057617 
		-0.002930	0.090820 
		-0.012695	0.469727 
		0.043945	0.200195 
		0.039063	0.051758 
		0.066406	0.052734 
		0.144531	0.200195 
		0.121094	0.052734 
		0.151367	0.057617 
		0.182617	0.200195 
		0.175781	0.079102 
		0.654297	0.496094 
		0.329102	0.000000 
		0.182617	-0.001953 
		0.004883	0.062500 
		0.761719	0.711914 
		0.763672	0.711914 
		0.763672	0.726563 
		0.761719	0.726563 
		0.027344	0.738281 
		0.182617	0.738281 
		0.772461	0.713867 
		0.774414	0.713867 
		0.774414	0.725586 
		0.772461	0.725586 
		0.757813	-0.031250 
		0.930664	-0.031250 
		0.747070	-0.032227 
		0.714844	-0.032227 
		0.744141	0.128906 
		0.666992	-0.032227 
		0.641602	0.128906 
		0.637695	-0.032227 
		0.750977	-0.032227 
		0.757813	0.128906 
		0.633789	-0.032227 
		0.626953	0.128906 
		0.626953	0.809570 
		0.757813	0.809570 
		0.930664	0.967773 
		-0.002930	0.848633 
		0.027344	0.880859 
		0.039063	0.886719 
		0.043945	0.738281 
		0.066406	0.885742 
		0.121094	0.885742 
		0.144531	0.738281 
		0.151367	0.880859 
		0.174805	0.861328 
		0.182617	0.939453 
		0.329102	0.937500 
		0.004883	0.876953 
		0.757813	0.967773 
		0.747070	0.967773 
		0.744141	0.809570 
		0.714844	0.967773 
		0.641602	0.809570 
		0.666992	0.967773 
		0.637695	0.967773 
		0.750000	0.967773 
		0.626953	0.967773 
		0.633789	0.967773 
		0.337891	-0.031250 
		0.337891	0.967773 
		0.626953	-0.031250 
		0.930664	0.947266 
		0.987305	0.948242 
		0.930664	-0.010742 
		0.987305	-0.011719 
		0.182617	0.084961 
		0.182617	0.854492 
	}

	Tex1 0 
	Adj 616 { 
		P 0 
		N 0 
		C0 0 
		T0 0 
		P 1 
		N 0 
		C0 1 
		T0 1 
		P 2 
		N 0 
		C0 2 
		T0 2 
		P 3 
		N 0 
		C0 3 
		T0 3 
		P 4 
		N 0 
		C0 4 
		T0 0 
		P 5 
		N 0 
		C0 5 
		T0 1 
		P 6 
		N 0 
		C0 6 
		T0 2 
		P 7 
		N 0 
		C0 7 
		T0 3 
		P 8 
		N 0 
		C0 8 
		T0 0 
		P 9 
		N 0 
		C0 9 
		T0 1 
		P 10 
		N 0 
		C0 10 
		T0 2 
		P 11 
		N 0 
		C0 11 
		T0 3 
		P 12 
		N 0 
		C0 12 
		T0 0 
		P 13 
		N 0 
		C0 13 
		T0 1 
		P 14 
		N 0 
		C0 14 
		T0 2 
		P 15 
		N 0 
		C0 15 
		T0 3 
		P 16 
		N 1 
		C0 16 
		T0 4 
		P 17 
		N 1 
		C0 17 
		T0 4 
		P 18 
		N 1 
		C0 18 
		T0 4 
		P 19 
		N 1 
		C0 19 
		T0 4 
		P 20 
		N 1 
		C0 20 
		T0 4 
		P 21 
		N 1 
		C0 21 
		T0 4 
		P 16 
		N 0 
		C0 22 
		T0 4 
		P 19 
		N 0 
		C0 23 
		T0 4 
		P 22 
		N 0 
		C0 24 
		T0 4 
		P 23 
		N 0 
		C0 25 
		T0 4 
		P 21 
		N 0 
		C0 26 
		T0 4 
		P 24 
		N 0 
		C0 27 
		T0 4 
		P 20 
		N 2 
		C0 28 
		T0 4 
		P 18 
		N 2 
		C0 29 
		T0 4 
		P 25 
		N 2 
		C0 30 
		T0 4 
		P 26 
		N 2 
		C0 31 
		T0 4 
		P 17 
		N 2 
		C0 32 
		T0 4 
		P 27 
		N 2 
		C0 33 
		T0 4 
		P 21 
		N 3 
		C0 34 
		T0 4 
		P 20 
		N 3 
		C0 35 
		T0 4 
		P 28 
		N 3 
		C0 36 
		T0 4 
		P 29 
		N 3 
		C0 37 
		T0 4 
		P 23 
		N 4 
		C0 38 
		T0 4 
		P 27 
		N 4 
		C0 39 
		T0 4 
		P 30 
		N 4 
		C0 40 
		T0 4 
		P 31 
		N 4 
		C0 41 
		T0 4 
		P 26 
		N 5 
		C0 42 
		T0 4 
		P 24 
		N 5 
		C0 43 
		T0 4 
		P 32 
		N 5 
		C0 44 
		T0 4 
		P 33 
		N 5 
		C0 45 
		T0 4 
		P 16 
		N 6 
		C0 46 
		T0 4 
		P 23 
		N 6 
		C0 47 
		T0 4 
		P 31 
		N 6 
		C0 48 
		T0 4 
		P 24 
		N 7 
		C0 49 
		T0 4 
		P 21 
		N 7 
		C0 50 
		T0 4 
		P 29 
		N 7 
		C0 51 
		T0 4 
		P 29 
		N 8 
		C0 52 
		T0 4 
		P 32 
		N 8 
		C0 53 
		T0 4 
		P 24 
		N 8 
		C0 54 
		T0 4 
		P 20 
		N 9 
		C0 55 
		T0 4 
		P 26 
		N 9 
		C0 56 
		T0 4 
		P 33 
		N 9 
		C0 57 
		T0 4 
		P 33 
		N 10 
		C0 58 
		T0 4 
		P 28 
		N 10 
		C0 59 
		T0 4 
		P 20 
		N 10 
		C0 60 
		T0 4 
		P 27 
		N 11 
		C0 61 
		T0 4 
		P 17 
		N 11 
		C0 62 
		T0 4 
		P 34 
		N 11 
		C0 63 
		T0 4 
		P 34 
		N 12 
		C0 64 
		T0 4 
		P 30 
		N 12 
		C0 65 
		T0 4 
		P 27 
		N 12 
		C0 66 
		T0 4 
		P 35 
		N 13 
		C0 67 
		T0 5 
		P 36 
		N 13 
		C0 68 
		T0 5 
		P 37 
		N 13 
		C0 69 
		T0 5 
		P 14 
		N 13 
		C0 70 
		T0 5 
		P 38 
		N 14 
		C0 71 
		T0 5 
		P 15 
		N 14 
		C0 72 
		T0 5 
		P 39 
		N 14 
		C0 73 
		T0 5 
		P 40 
		N 14 
		C0 74 
		T0 5 
		P 14 
		N 15 
		C0 75 
		T0 5 
		P 37 
		N 15 
		C0 76 
		T0 5 
		P 39 
		N 15 
		C0 77 
		T0 5 
		P 15 
		N 15 
		C0 78 
		T0 5 
		P 37 
		N 2 
		C0 79 
		T0 5 
		P 36 
		N 2 
		C0 80 
		T0 5 
		P 40 
		N 2 
		C0 81 
		T0 5 
		P 39 
		N 2 
		C0 82 
		T0 5 
		P 36 
		N 16 
		C0 83 
		T0 5 
		P 35 
		N 16 
		C0 84 
		T0 5 
		P 38 
		N 16 
		C0 85 
		T0 5 
		P 40 
		N 16 
		C0 86 
		T0 5 
		P 41 
		N 17 
		C0 87 
		T0 6 
		P 42 
		N 17 
		C0 88 
		T0 6 
		P 43 
		N 17 
		C0 89 
		T0 6 
		P 44 
		N 17 
		C0 90 
		T0 6 
		P 45 
		N 18 
		C0 91 
		T0 6 
		P 46 
		N 18 
		C0 92 
		T0 6 
		P 47 
		N 18 
		C0 93 
		T0 6 
		P 48 
		N 18 
		C0 94 
		T0 6 
		P 41 
		N 1 
		C0 95 
		T0 6 
		P 44 
		N 1 
		C0 96 
		T0 6 
		P 46 
		N 1 
		C0 97 
		T0 6 
		P 45 
		N 1 
		C0 98 
		T0 6 
		P 44 
		N 19 
		C0 99 
		T0 6 
		P 43 
		N 19 
		C0 100 
		T0 6 
		P 47 
		N 19 
		C0 101 
		T0 6 
		P 46 
		N 19 
		C0 102 
		T0 6 
		P 42 
		N 20 
		C0 103 
		T0 6 
		P 41 
		N 20 
		C0 104 
		T0 6 
		P 45 
		N 20 
		C0 105 
		T0 6 
		P 48 
		N 20 
		C0 106 
		T0 6 
		P 49 
		N 0 
		C0 107 
		T0 2 
		P 1 
		N 0 
		C0 108 
		T0 7 
		P 0 
		N 0 
		C0 109 
		T0 8 
		P 50 
		N 0 
		C0 110 
		T0 3 
		P 5 
		N 0 
		C0 111 
		T0 7 
		P 4 
		N 0 
		C0 112 
		T0 8 
		P 9 
		N 0 
		C0 113 
		T0 7 
		P 8 
		N 0 
		C0 114 
		T0 8 
		P 13 
		N 0 
		C0 115 
		T0 7 
		P 12 
		N 0 
		C0 116 
		T0 8 
		P 43 
		N 21 
		C0 117 
		T0 6 
		P 42 
		N 21 
		C0 118 
		T0 6 
		P 51 
		N 21 
		C0 119 
		T0 6 
		P 52 
		N 21 
		C0 120 
		T0 6 
		P 48 
		N 22 
		C0 121 
		T0 6 
		P 47 
		N 22 
		C0 122 
		T0 6 
		P 53 
		N 22 
		C0 123 
		T0 6 
		P 54 
		N 22 
		C0 124 
		T0 6 
		P 47 
		N 23 
		C0 125 
		T0 6 
		P 43 
		N 23 
		C0 126 
		T0 6 
		P 52 
		N 23 
		C0 127 
		T0 6 
		P 53 
		N 23 
		C0 128 
		T0 6 
		P 42 
		N 24 
		C0 129 
		T0 6 
		P 48 
		N 24 
		C0 130 
		T0 6 
		P 54 
		N 24 
		C0 131 
		T0 6 
		P 51 
		N 24 
		C0 132 
		T0 6 
		P 52 
		N 25 
		C0 133 
		T0 6 
		P 51 
		N 25 
		C0 134 
		T0 6 
		P 54 
		N 25 
		C0 135 
		T0 6 
		P 53 
		N 25 
		C0 136 
		T0 6 
		P 55 
		N 25 
		C0 137 
		T0 9 
		P 56 
		N 25 
		C0 138 
		T0 10 
		P 57 
		N 26 
		C0 139 
		T0 11 
		P 58 
		N 26 
		C0 140 
		T0 12 
		P 56 
		N 25 
		C0 141 
		T0 13 
		P 59 
		N 27 
		C0 142 
		T0 14 
		P 60 
		N 28 
		C0 143 
		T0 15 
		P 57 
		N 26 
		C0 144 
		T0 16 
		P 61 
		N 29 
		C0 145 
		T0 17 
		P 62 
		N 30 
		C0 146 
		T0 18 
		P 63 
		N 31 
		C0 147 
		T0 19 
		P 64 
		N 32 
		C0 148 
		T0 20 
		P 62 
		N 30 
		C0 149 
		T0 21 
		P 61 
		N 29 
		C0 150 
		T0 22 
		P 63 
		N 31 
		C0 151 
		T0 23 
		P 65 
		N 33 
		C0 152 
		T0 24 
		P 66 
		N 34 
		C0 153 
		T0 25 
		P 64 
		N 32 
		C0 154 
		T0 26 
		P 67 
		N 35 
		C0 155 
		T0 27 
		P 68 
		N 36 
		C0 156 
		T0 28 
		P 69 
		N 37 
		C0 157 
		T0 29 
		P 70 
		N 38 
		C0 158 
		T0 30 
		P 71 
		N 39 
		C0 159 
		T0 31 
		P 72 
		N 40 
		C0 160 
		T0 32 
		P 73 
		N 41 
		C0 161 
		T0 33 
		P 74 
		N 42 
		C0 162 
		T0 34 
		P 75 
		N 39 
		C0 163 
		T0 35 
		P 76 
		N 39 
		C0 164 
		T0 36 
		P 77 
		N 43 
		C0 165 
		T0 37 
		P 78 
		N 44 
		C0 166 
		T0 38 
		P 79 
		N 45 
		C0 167 
		T0 39 
		P 80 
		N 46 
		C0 168 
		T0 40 
		P 81 
		N 47 
		C0 169 
		T0 41 
		P 82 
		N 43 
		C0 170 
		T0 42 
		P 83 
		N 44 
		C0 171 
		T0 43 
		P 84 
		N 48 
		C0 172 
		T0 44 
		P 85 
		N 49 
		C0 173 
		T0 45 
		P 86 
		N 50 
		C0 174 
		T0 46 
		P 87 
		N 51 
		C0 175 
		T0 47 
		P 88 
		N 52 
		C0 176 
		T0 48 
		P 89 
		N 53 
		C0 177 
		T0 49 
		P 90 
		N 54 
		C0 178 
		T0 50 
		P 91 
		N 55 
		C0 179 
		T0 51 
		P 92 
		N 56 
		C0 180 
		T0 52 
		P 93 
		N 57 
		C0 181 
		T0 53 
		P 94 
		N 58 
		C0 182 
		T0 54 
		P 81 
		N 47 
		C0 183 
		T0 55 
		P 88 
		N 52 
		C0 184 
		T0 56 
		P 87 
		N 51 
		C0 185 
		T0 57 
		P 89 
		N 53 
		C0 186 
		T0 58 
		P 88 
		N 52 
		C0 187 
		T0 59 
		P 90 
		N 54 
		C0 188 
		T0 60 
		P 92 
		N 56 
		C0 189 
		T0 61 
		P 90 
		N 54 
		C0 190 
		T0 62 
		P 94 
		N 58 
		C0 191 
		T0 63 
		P 92 
		N 56 
		C0 192 
		T0 64 
		P 81 
		N 47 
		C0 193 
		T0 65 
		P 79 
		N 45 
		C0 194 
		T0 66 
		P 80 
		N 46 
		C0 195 
		T0 67 
		P 75 
		N 39 
		C0 196 
		T0 68 
		P 95 
		N 59 
		C0 197 
		T0 69 
		P 96 
		N 60 
		C0 198 
		T0 70 
		P 76 
		N 39 
		C0 199 
		T0 71 
		P 97 
		N 14 
		C0 200 
		T0 72 
		P 73 
		N 41 
		C0 201 
		T0 73 
		P 76 
		N 39 
		C0 202 
		T0 74 
		P 96 
		N 60 
		C0 203 
		T0 75 
		P 98 
		N 61 
		C0 204 
		T0 76 
		P 99 
		N 62 
		C0 205 
		T0 76 
		P 100 
		N 63 
		C0 206 
		T0 76 
		P 101 
		N 64 
		C0 207 
		T0 76 
		P 102 
		N 65 
		C0 208 
		T0 76 
		P 103 
		N 66 
		C0 209 
		T0 76 
		P 104 
		N 62 
		C0 210 
		T0 77 
		P 105 
		N 67 
		C0 211 
		T0 77 
		P 106 
		N 68 
		C0 212 
		T0 78 
		P 107 
		N 15 
		C0 213 
		T0 78 
		P 108 
		N 69 
		C0 214 
		T0 76 
		P 109 
		N 70 
		C0 215 
		T0 79 
		P 110 
		N 71 
		C0 216 
		T0 80 
		P 111 
		N 72 
		C0 217 
		T0 81 
		P 112 
		N 73 
		C0 218 
		T0 82 
		P 113 
		N 74 
		C0 219 
		T0 83 
		P 114 
		N 74 
		C0 220 
		T0 84 
		P 115 
		N 74 
		C0 221 
		T0 85 
		P 116 
		N 74 
		C0 222 
		T0 86 
		P 117 
		N 75 
		C0 223 
		T0 76 
		P 118 
		N 76 
		C0 224 
		T0 76 
		P 119 
		N 77 
		C0 225 
		T0 77 
		P 120 
		N 77 
		C0 226 
		T0 78 
		P 121 
		N 78 
		C0 227 
		T0 76 
		P 122 
		N 79 
		C0 228 
		T0 87 
		P 123 
		N 79 
		C0 229 
		T0 88 
		P 124 
		N 80 
		C0 230 
		T0 89 
		P 125 
		N 80 
		C0 231 
		T0 90 
		P 126 
		N 81 
		C0 232 
		T0 91 
		P 124 
		N 80 
		C0 233 
		T0 92 
		P 127 
		N 82 
		C0 234 
		T0 93 
		P 128 
		N 83 
		C0 235 
		T0 94 
		P 127 
		N 82 
		C0 236 
		T0 95 
		P 129 
		N 84 
		C0 237 
		T0 96 
		P 128 
		N 83 
		C0 238 
		T0 97 
		P 130 
		N 85 
		C0 239 
		T0 98 
		P 131 
		N 86 
		C0 240 
		T0 99 
		P 132 
		N 87 
		C0 241 
		T0 100 
		P 133 
		N 39 
		C0 242 
		T0 101 
		P 134 
		N 88 
		C0 243 
		T0 102 
		P 135 
		N 89 
		C0 244 
		T0 103 
		P 136 
		N 39 
		C0 245 
		T0 104 
		P 137 
		N 90 
		C0 246 
		T0 37 
		P 138 
		N 91 
		C0 247 
		T0 40 
		P 139 
		N 92 
		C0 248 
		T0 39 
		P 140 
		N 93 
		C0 249 
		T0 38 
		P 141 
		N 94 
		C0 250 
		T0 41 
		P 142 
		N 95 
		C0 251 
		T0 44 
		P 143 
		N 91 
		C0 252 
		T0 105 
		P 144 
		N 92 
		C0 253 
		T0 106 
		P 145 
		N 96 
		C0 254 
		T0 45 
		P 146 
		N 97 
		C0 255 
		T0 46 
		P 147 
		N 98 
		C0 256 
		T0 48 
		P 148 
		N 99 
		C0 257 
		T0 47 
		P 149 
		N 100 
		C0 258 
		T0 49 
		P 150 
		N 101 
		C0 259 
		T0 50 
		P 151 
		N 102 
		C0 260 
		T0 51 
		P 152 
		N 103 
		C0 261 
		T0 53 
		P 153 
		N 104 
		C0 262 
		T0 52 
		P 154 
		N 105 
		C0 263 
		T0 54 
		P 141 
		N 94 
		C0 264 
		T0 55 
		P 147 
		N 98 
		C0 265 
		T0 107 
		P 148 
		N 99 
		C0 266 
		T0 108 
		P 149 
		N 100 
		C0 267 
		T0 109 
		P 147 
		N 98 
		C0 268 
		T0 110 
		P 150 
		N 101 
		C0 269 
		T0 111 
		P 153 
		N 104 
		C0 270 
		T0 112 
		P 150 
		N 101 
		C0 271 
		T0 113 
		P 153 
		N 104 
		C0 272 
		T0 114 
		P 154 
		N 105 
		C0 273 
		T0 115 
		P 141 
		N 94 
		C0 274 
		T0 116 
		P 139 
		N 92 
		C0 275 
		T0 117 
		P 138 
		N 91 
		C0 276 
		T0 118 
		P 155 
		N 16 
		C0 277 
		T0 70 
		P 156 
		N 16 
		C0 278 
		T0 69 
		P 133 
		N 39 
		C0 279 
		T0 68 
		P 136 
		N 39 
		C0 280 
		T0 71 
		P 136 
		N 39 
		C0 281 
		T0 119 
		P 135 
		N 89 
		C0 282 
		T0 120 
		P 157 
		N 106 
		C0 283 
		T0 72 
		P 155 
		N 16 
		C0 284 
		T0 75 
		P 158 
		N 107 
		C0 285 
		T0 76 
		P 159 
		N 108 
		C0 286 
		T0 76 
		P 160 
		N 109 
		C0 287 
		T0 88 
		P 161 
		N 110 
		C0 288 
		T0 87 
		P 162 
		N 106 
		C0 289 
		T0 121 
		P 163 
		N 16 
		C0 290 
		T0 88 
		P 117 
		N 75 
		C0 291 
		T0 122 
		P 164 
		N 107 
		C0 292 
		T0 123 
		P 165 
		N 108 
		C0 293 
		T0 124 
		P 158 
		N 107 
		C0 294 
		T0 125 
		P 110 
		N 111 
		C0 295 
		T0 126 
		P 109 
		N 111 
		C0 296 
		T0 127 
		P 166 
		N 111 
		C0 297 
		T0 128 
		P 114 
		N 112 
		C0 298 
		T0 129 
		P 113 
		N 112 
		C0 299 
		T0 130 
		P 110 
		N 112 
		C0 300 
		T0 126 
		P 166 
		N 112 
		C0 301 
		T0 128 
		P 167 
		N 113 
		C0 302 
		T0 131 
		P 168 
		N 113 
		C0 303 
		T0 132 
		P 113 
		N 113 
		C0 304 
		T0 133 
		P 169 
		N 16 
		C0 305 
		T0 128 
		P 170 
		N 16 
		C0 306 
		T0 126 
		P 116 
		N 16 
		C0 307 
		T0 130 
		P 115 
		N 16 
		C0 308 
		T0 129 
		P 170 
		N 114 
		C0 309 
		T0 126 
		P 169 
		N 114 
		C0 310 
		T0 128 
		P 171 
		N 114 
		C0 311 
		T0 127 
		P 172 
		N 115 
		C0 312 
		T0 134 
		P 173 
		N 116 
		C0 313 
		T0 134 
		P 174 
		N 117 
		C0 314 
		T0 134 
		P 175 
		N 118 
		C0 315 
		T0 134 
		P 176 
		N 119 
		C0 316 
		T0 134 
		P 177 
		N 120 
		C0 317 
		T0 134 
		P 178 
		N 115 
		C0 318 
		T0 134 
		P 179 
		N 121 
		C0 319 
		T0 134 
		P 180 
		N 122 
		C0 320 
		T0 134 
		P 181 
		N 123 
		C0 321 
		T0 134 
		P 182 
		N 124 
		C0 322 
		T0 134 
		P 183 
		N 125 
		C0 323 
		T0 134 
		P 177 
		N 126 
		C0 324 
		T0 134 
		P 174 
		N 126 
		C0 325 
		T0 134 
		P 173 
		N 126 
		C0 326 
		T0 134 
		P 183 
		N 127 
		C0 327 
		T0 134 
		P 181 
		N 127 
		C0 328 
		T0 134 
		P 182 
		N 127 
		C0 329 
		T0 134 
		P 184 
		N 128 
		C0 330 
		T0 135 
		P 185 
		N 128 
		C0 331 
		T0 136 
		P 186 
		N 128 
		C0 332 
		T0 137 
		P 187 
		N 128 
		C0 333 
		T0 138 
		P 188 
		N 129 
		C0 334 
		T0 139 
		P 187 
		N 130 
		C0 335 
		T0 140 
		P 186 
		N 131 
		C0 336 
		T0 141 
		P 189 
		N 132 
		C0 337 
		T0 142 
		P 184 
		N 133 
		C0 338 
		T0 143 
		P 185 
		N 134 
		C0 339 
		T0 144 
		P 190 
		N 135 
		C0 340 
		T0 134 
		P 191 
		N 136 
		C0 341 
		T0 134 
		P 192 
		N 137 
		C0 342 
		T0 134 
		P 193 
		N 138 
		C0 343 
		T0 134 
		P 194 
		N 139 
		C0 344 
		T0 134 
		P 195 
		N 140 
		C0 345 
		T0 134 
		P 196 
		N 137 
		C0 346 
		T0 134 
		P 197 
		N 141 
		C0 347 
		T0 134 
		P 198 
		N 142 
		C0 348 
		T0 134 
		P 199 
		N 143 
		C0 349 
		T0 134 
		P 200 
		N 144 
		C0 350 
		T0 134 
		P 201 
		N 145 
		C0 351 
		T0 134 
		P 194 
		N 126 
		C0 352 
		T0 134 
		P 191 
		N 126 
		C0 353 
		T0 134 
		P 190 
		N 126 
		C0 354 
		T0 134 
		P 201 
		N 127 
		C0 355 
		T0 134 
		P 200 
		N 127 
		C0 356 
		T0 134 
		P 199 
		N 127 
		C0 357 
		T0 134 
		P 202 
		N 146 
		C0 358 
		T0 145 
		P 203 
		N 146 
		C0 359 
		T0 146 
		P 204 
		N 146 
		C0 360 
		T0 147 
		P 205 
		N 146 
		C0 361 
		T0 148 
		P 202 
		N 147 
		C0 362 
		T0 140 
		P 205 
		N 148 
		C0 363 
		T0 141 
		P 206 
		N 149 
		C0 364 
		T0 139 
		P 204 
		N 150 
		C0 365 
		T0 144 
		P 207 
		N 151 
		C0 366 
		T0 142 
		P 203 
		N 152 
		C0 367 
		T0 143 
		P 108 
		N 69 
		C0 368 
		T0 149 
		P 208 
		N 146 
		C0 369 
		T0 150 
		P 209 
		N 146 
		C0 370 
		T0 151 
		P 168 
		N 74 
		C0 371 
		T0 152 
		P 167 
		N 74 
		C0 372 
		T0 153 
		P 210 
		N 74 
		C0 373 
		T0 154 
		P 209 
		N 146 
		C0 374 
		T0 155 
		P 171 
		N 153 
		C0 375 
		T0 79 
		P 164 
		N 107 
		C0 376 
		T0 156 
		P 170 
		N 154 
		C0 377 
		T0 80 
		P 111 
		N 72 
		C0 378 
		T0 123 
		P 108 
		N 69 
		C0 379 
		T0 122 
		P 103 
		N 66 
		C0 380 
		T0 125 
		P 112 
		N 73 
		C0 381 
		T0 124 
		P 110 
		N 71 
		C0 382 
		T0 157 
		P 211 
		N 74 
		C0 383 
		T0 158 
		P 208 
		N 146 
		C0 384 
		T0 159 
		P 111 
		N 72 
		C0 385 
		T0 160 
		P 211 
		N 113 
		C0 386 
		T0 161 
		P 110 
		N 113 
		C0 387 
		T0 162 
		P 170 
		N 113 
		C0 388 
		T0 163 
		P 212 
		N 113 
		C0 389 
		T0 164 
		P 116 
		N 113 
		C0 390 
		T0 165 
		P 213 
		N 74 
		C0 391 
		T0 166 
		P 212 
		N 74 
		C0 392 
		T0 167 
		P 170 
		N 154 
		C0 393 
		T0 168 
		P 164 
		N 107 
		C0 394 
		T0 169 
		P 214 
		N 74 
		C0 395 
		T0 170 
		P 215 
		N 74 
		C0 396 
		T0 171 
		P 215 
		N 113 
		C0 397 
		T0 172 
		P 216 
		N 74 
		C0 398 
		T0 173 
		P 217 
		N 74 
		C0 399 
		T0 174 
		P 217 
		N 113 
		C0 400 
		T0 175 
		P 210 
		N 74 
		C0 401 
		T0 176 
		P 216 
		N 74 
		C0 402 
		T0 177 
		P 117 
		N 75 
		C0 403 
		T0 178 
		P 111 
		N 72 
		C0 404 
		T0 179 
		P 213 
		N 74 
		C0 405 
		T0 180 
		P 164 
		N 107 
		C0 406 
		T0 181 
		P 214 
		N 74 
		C0 407 
		T0 182 
		P 78 
		N 44 
		C0 408 
		T0 183 
		P 140 
		N 93 
		C0 409 
		T0 183 
		P 73 
		N 155 
		C0 410 
		T0 78 
		P 97 
		N 155 
		C0 411 
		T0 78 
		P 83 
		N 44 
		C0 412 
		T0 77 
		P 82 
		N 43 
		C0 413 
		T0 184 
		P 218 
		N 15 
		C0 414 
		T0 185 
		P 219 
		N 15 
		C0 415 
		T0 186 
		P 102 
		N 65 
		C0 416 
		T0 187 
		P 118 
		N 76 
		C0 417 
		T0 187 
		P 119 
		N 77 
		C0 418 
		T0 188 
		P 105 
		N 67 
		C0 419 
		T0 188 
		P 121 
		N 78 
		C0 420 
		T0 189 
		P 122 
		N 79 
		C0 421 
		T0 190 
		P 112 
		N 73 
		C0 422 
		T0 191 
		P 218 
		N 15 
		C0 423 
		T0 77 
		P 220 
		N 15 
		C0 424 
		T0 78 
		P 109 
		N 70 
		C0 425 
		T0 184 
		P 165 
		N 108 
		C0 426 
		T0 82 
		P 221 
		N 155 
		C0 427 
		T0 192 
		P 165 
		N 108 
		C0 428 
		T0 193 
		P 171 
		N 153 
		C0 429 
		T0 194 
		P 222 
		N 16 
		C0 430 
		T0 195 
		P 143 
		N 91 
		C0 431 
		T0 87 
		P 157 
		N 156 
		C0 432 
		T0 88 
		P 135 
		N 156 
		C0 433 
		T0 88 
		P 144 
		N 92 
		C0 434 
		T0 87 
		P 223 
		N 16 
		C0 435 
		T0 186 
		P 221 
		N 155 
		C0 436 
		T0 196 
		P 224 
		N 16 
		C0 437 
		T0 197 
		P 162 
		N 106 
		C0 438 
		T0 198 
		P 161 
		N 110 
		C0 439 
		T0 199 
		P 225 
		N 16 
		C0 440 
		T0 200 
		P 159 
		N 108 
		C0 441 
		T0 201 
		P 226 
		N 16 
		C0 442 
		T0 202 
		P 159 
		N 108 
		C0 443 
		T0 189 
		P 161 
		N 110 
		C0 444 
		T0 190 
		P 227 
		N 15 
		C0 445 
		T0 197 
		P 105 
		N 67 
		C0 446 
		T0 199 
		P 104 
		N 62 
		C0 447 
		T0 203 
		P 228 
		N 70 
		C0 448 
		T0 204 
		P 229 
		N 153 
		C0 449 
		T0 205 
		P 230 
		N 157 
		C0 450 
		T0 206 
		P 231 
		N 153 
		C0 451 
		T0 207 
		P 232 
		N 16 
		C0 452 
		T0 206 
		P 233 
		N 158 
		C0 453 
		T0 207 
		P 234 
		N 156 
		C0 454 
		T0 204 
		P 235 
		N 156 
		C0 455 
		T0 205 
		P 229 
		N 153 
		C0 456 
		T0 208 
		P 235 
		N 156 
		C0 457 
		T0 209 
		P 232 
		N 16 
		C0 458 
		T0 210 
		P 230 
		N 157 
		C0 459 
		T0 211 
		P 236 
		N 89 
		C0 460 
		T0 212 
		P 237 
		N 16 
		C0 461 
		T0 213 
		P 238 
		N 16 
		C0 462 
		T0 214 
		P 239 
		N 16 
		C0 463 
		T0 215 
		P 238 
		N 16 
		C0 464 
		T0 205 
		P 231 
		N 153 
		C0 465 
		T0 204 
		P 239 
		N 16 
		C0 466 
		T0 206 
		P 237 
		N 16 
		C0 467 
		T0 205 
		P 238 
		N 16 
		C0 468 
		T0 206 
		P 236 
		N 89 
		C0 469 
		T0 206 
		P 234 
		N 156 
		C0 470 
		T0 207 
		P 240 
		N 108 
		C0 471 
		T0 216 
		P 241 
		N 16 
		C0 472 
		T0 217 
		P 242 
		N 15 
		C0 473 
		T0 218 
		P 243 
		N 15 
		C0 474 
		T0 219 
		P 244 
		N 15 
		C0 475 
		T0 217 
		P 245 
		N 159 
		C0 476 
		T0 218 
		P 246 
		N 127 
		C0 477 
		T0 216 
		P 247 
		N 160 
		C0 478 
		T0 219 
		P 243 
		N 15 
		C0 479 
		T0 220 
		P 242 
		N 15 
		C0 480 
		T0 221 
		P 245 
		N 159 
		C0 481 
		T0 222 
		P 247 
		N 160 
		C0 482 
		T0 223 
		P 248 
		N 161 
		C0 483 
		T0 224 
		P 249 
		N 162 
		C0 484 
		T0 225 
		P 250 
		N 163 
		C0 485 
		T0 226 
		P 251 
		N 164 
		C0 486 
		T0 227 
		P 250 
		N 163 
		C0 487 
		T0 219 
		P 249 
		N 162 
		C0 488 
		T0 218 
		P 241 
		N 16 
		C0 489 
		T0 216 
		P 251 
		N 164 
		C0 490 
		T0 219 
		P 250 
		N 163 
		C0 491 
		T0 218 
		P 248 
		N 161 
		C0 492 
		T0 218 
		P 246 
		N 127 
		C0 493 
		T0 217 
		P 252 
		N 15 
		C0 494 
		T0 228 
		P 253 
		N 15 
		C0 495 
		T0 229 
		P 254 
		N 15 
		C0 496 
		T0 230 
		P 102 
		N 65 
		C0 497 
		T0 201 
		P 255 
		N 15 
		C0 498 
		T0 231 
		P 256 
		N 15 
		C0 499 
		T0 200 
		P 257 
		N 15 
		C0 500 
		T0 202 
		P 255 
		N 15 
		C0 501 
		T0 232 
		P 253 
		N 15 
		C0 502 
		T0 233 
		P 252 
		N 15 
		C0 503 
		T0 234 
		P 254 
		N 15 
		C0 504 
		T0 235 
		P 38 
		N 0 
		C0 505 
		T0 0 
		P 35 
		N 0 
		C0 506 
		T0 1 
		P 258 
		N 165 
		C0 507 
		T0 236 
		P 77 
		N 166 
		C0 508 
		T0 237 
		P 72 
		N 167 
		C0 509 
		T0 238 
		P 71 
		N 168 
		C0 510 
		T0 239 
		P 258 
		N 169 
		C0 511 
		T0 236 
		P 259 
		N 170 
		C0 512 
		T0 240 
		P 78 
		N 171 
		C0 513 
		T0 241 
		P 77 
		N 169 
		C0 514 
		T0 237 
		P 93 
		N 172 
		C0 515 
		T0 242 
		P 260 
		N 173 
		C0 516 
		T0 243 
		P 91 
		N 174 
		C0 517 
		T0 244 
		P 85 
		N 175 
		C0 518 
		T0 245 
		P 74 
		N 42 
		C0 519 
		T0 246 
		P 82 
		N 175 
		C0 520 
		T0 247 
		P 156 
		N 176 
		C0 521 
		T0 248 
		P 95 
		N 176 
		C0 522 
		T0 248 
		P 74 
		N 13 
		C0 523 
		T0 248 
		P 134 
		N 176 
		C0 524 
		T0 248 
		P 74 
		N 13 
		C0 525 
		T0 246 
		P 95 
		N 176 
		C0 526 
		T0 249 
		P 75 
		N 176 
		C0 527 
		T0 250 
		P 80 
		N 177 
		C0 528 
		T0 251 
		P 258 
		N 15 
		C0 529 
		T0 252 
		P 74 
		N 15 
		C0 530 
		T0 253 
		P 260 
		N 15 
		C0 531 
		T0 254 
		P 259 
		N 15 
		C0 532 
		T0 255 
		P 261 
		N 178 
		C0 533 
		T0 256 
		P 134 
		N 176 
		C0 534 
		T0 257 
		P 262 
		N 15 
		C0 535 
		T0 258 
		P 263 
		N 15 
		C0 536 
		T0 259 
		P 264 
		N 15 
		C0 537 
		T0 260 
		P 265 
		N 15 
		C0 538 
		T0 261 
		P 219 
		N 179 
		C0 539 
		T0 264 
		P 257 
		N 180 
		C0 540 
		T0 265 
		P 264 
		N 181 
		C0 541 
		T0 266 
		P 256 
		N 182 
		C0 542 
		T0 267 
		P 265 
		N 183 
		C0 543 
		T0 268 
		P 227 
		N 184 
		C0 544 
		T0 269 
		P 220 
		N 185 
		C0 545 
		T0 262 
		P 218 
		N 182 
		C0 546 
		T0 270 
		P 263 
		N 186 
		C0 547 
		T0 271 
		P 104 
		N 182 
		C0 548 
		T0 272 
		P 262 
		N 187 
		C0 549 
		T0 273 
		P 266 
		N 176 
		C0 550 
		T0 274 
		P 267 
		N 176 
		C0 551 
		T0 275 
		P 263 
		N 176 
		C0 552 
		T0 271 
		P 262 
		N 176 
		C0 553 
		T0 273 
		P 171 
		N 176 
		C0 554 
		T0 276 
		P 109 
		N 176 
		C0 555 
		T0 263 
		P 123 
		N 176 
		C0 556 
		T0 248 
		P 160 
		N 176 
		C0 557 
		T0 248 
		P 106 
		N 176 
		C0 558 
		T0 248 
		P 120 
		N 176 
		C0 559 
		T0 248 
		P 132 
		N 188 
		C0 560 
		T0 277 
		P 137 
		N 189 
		C0 561 
		T0 278 
		P 140 
		N 190 
		C0 562 
		T0 279 
		P 268 
		N 191 
		C0 563 
		T0 280 
		P 261 
		N 169 
		C0 564 
		T0 256 
		P 137 
		N 169 
		C0 565 
		T0 278 
		P 152 
		N 192 
		C0 566 
		T0 281 
		P 151 
		N 193 
		C0 567 
		T0 282 
		P 269 
		N 194 
		C0 568 
		T0 283 
		P 145 
		N 195 
		C0 569 
		T0 284 
		P 144 
		N 193 
		C0 570 
		T0 285 
		P 134 
		N 88 
		C0 571 
		T0 257 
		P 133 
		N 176 
		C0 572 
		T0 286 
		P 156 
		N 176 
		C0 573 
		T0 287 
		P 138 
		N 196 
		C0 574 
		T0 288 
		P 269 
		N 16 
		C0 575 
		T0 254 
		P 134 
		N 16 
		C0 576 
		T0 253 
		P 261 
		N 16 
		C0 577 
		T0 252 
		P 268 
		N 16 
		C0 578 
		T0 255 
		P 270 
		N 16 
		C0 579 
		T0 260 
		P 267 
		N 16 
		C0 580 
		T0 259 
		P 266 
		N 16 
		C0 581 
		T0 258 
		P 271 
		N 16 
		C0 582 
		T0 261 
		P 223 
		N 197 
		C0 583 
		T0 290 
		P 270 
		N 198 
		C0 584 
		T0 291 
		P 226 
		N 199 
		C0 585 
		T0 292 
		P 271 
		N 200 
		C0 586 
		T0 293 
		P 225 
		N 201 
		C0 587 
		T0 294 
		P 224 
		N 202 
		C0 588 
		T0 295 
		P 221 
		N 198 
		C0 589 
		T0 296 
		P 267 
		N 186 
		C0 590 
		T0 275 
		P 266 
		N 203 
		C0 591 
		T0 274 
		P 163 
		N 204 
		C0 592 
		T0 297 
		P 162 
		N 199 
		C0 593 
		T0 298 
		P 106 
		N 176 
		C0 594 
		T0 299 
		P 160 
		N 176 
		C0 595 
		T0 300 
		P 163 
		N 176 
		C0 596 
		T0 297 
		P 220 
		N 176 
		C0 597 
		T0 262 
		P 222 
		N 176 
		C0 598 
		T0 289 
		P 107 
		N 176 
		C0 599 
		T0 301 
		P 109 
		N 205 
		C0 600 
		T0 263 
		P 171 
		N 205 
		C0 601 
		T0 276 
		P 169 
		N 205 
		C0 602 
		T0 302 
		P 115 
		N 206 
		C0 603 
		T0 303 
		P 166 
		N 206 
		C0 604 
		T0 304 
		P 109 
		N 206 
		C0 605 
		T0 263 
		P 115 
		N 176 
		C0 606 
		T0 303 
		P 114 
		N 176 
		C0 607 
		T0 305 
		P 166 
		N 176 
		C0 608 
		T0 304 
		P 109 
		N 207 
		C0 609 
		T0 263 
		P 169 
		N 207 
		C0 610 
		T0 302 
		P 115 
		N 207 
		C0 611 
		T0 303 
		P 73 
		N 41 
		C0 612 
		T0 306 
		P 107 
		N 204 
		C0 613 
		T0 301 
		P 222 
		N 158 
		C0 614 
		T0 289 
		P 135 
		N 89 
		C0 615 
		T0 307 
	}

	Mtl 2 { 
		{
			Name "#2" 
			Priority 32 
			Prim 97 { 
				{
					Type TRISTRIP
					Priority 32 
					Idx 6 { 0 1 3 2 112 111 }
				}
				{
					Type TRISTRIP
					Priority 32 
					Idx 6 { 4 5 7 6 114 113 }
				}
				{
					Type TRISTRIP
					Priority 32 
					Idx 6 { 8 9 11 10 116 115 }
				}
				{
					Type TRISTRIP
					Priority 32 
					Idx 4 { 14 15 13 12 }
				}
				{
					Type TRISTRIP
					Priority 32 
					Idx 6 { 25 22 24 23 27 26 }
				}
				{
					Type TRISTRIP
					Priority 32 
					Idx 4 { 37 34 36 35 }
				}
				{
					Type TRISTRIP
					Priority 32 
					Idx 4 { 41 38 40 39 }
				}
				{
					Type TRISTRIP
					Priority 32 
					Idx 4 { 44 45 43 42 }
				}
				{
					Type TRISTRIP
					Priority 32 
					Idx 4 { 70 67 69 68 }
				}
				{
					Type TRISTRIP
					Priority 32 
					Idx 4 { 72 73 71 74 }
				}
				{
					Type TRISTRIP
					Priority 32 
					Idx 4 { 75 76 78 77 }
				}
				{
					Type TRISTRIP
					Priority 32 
					Idx 4 { 79 80 82 81 }
				}
				{
					Type TRISTRIP
					Priority 32 
					Idx 4 { 84 85 83 86 }
				}
				{
					Type TRISTRIP
					Priority 32 
					Idx 4 { 90 87 89 88 }
				}
				{
					Type TRISTRIP
					Priority 32 
					Idx 4 { 93 94 92 91 }
				}
				{
					Type TRISTRIP
					Priority 32 
					Idx 4 { 97 98 96 95 }
				}
				{
					Type TRISTRIP
					Priority 32 
					Idx 4 { 101 102 100 99 }
				}
				{
					Type TRISTRIP
					Priority 32 
					Idx 4 { 105 106 104 103 }
				}
				{
					Type TRISTRIP
					Priority 32 
					Idx 6 { 108 109 107 110 506 505 }
				}
				{
					Type TRISTRIP
					Priority 32 
					Idx 4 { 117 118 120 119 }
				}
				{
					Type TRISTRIP
					Priority 32 
					Idx 4 { 122 123 121 124 }
				}
				{
					Type TRISTRIP
					Priority 32 
					Idx 4 { 125 126 128 127 }
				}
				{
					Type TRISTRIP
					Priority 32 
					Idx 4 { 130 131 129 132 }
				}
				{
					Type TRISTRIP
					Priority 32 
					Idx 4 { 136 133 135 134 }
				}
				{
					Type TRISTRIP
					Priority 32 
					Idx 4 { 163 164 162 161 }
				}
				{
					Type TRISTRIP
					Priority 32 
					Idx 5 { 168 165 167 166 169 }
				}
				{
					Type TRISTRIP2
					Priority 32 
					Idx 6 { 17 16 18 19 20 21 }
				}
				{
					Type TRISTRIP2
					Priority 32 
					Idx 6 { 28 31 29 30 32 33 }
				}
				{
					Type TRISTRIP2
					Priority 32 
					Idx 4 { 196 199 197 198 }
				}
				{
					Type TRISTRIP2
					Priority 32 
					Idx 4 { 202 201 203 200 }
				}
				{
					Type TRISTRIP2
					Priority 32 
					Idx 4 { 215 218 216 217 }
				}
				{
					Type TRISTRIP2
					Priority 32 
					Idx 4 { 219 222 220 221 }
				}
				{
					Type TRISTRIP2
					Priority 32 
					Idx 4 { 243 242 244 245 }
				}
				{
					Type TRISTRIP2
					Priority 32 
					Idx 5 { 247 246 248 249 250 }
				}
				{
					Type TRISTRIP
					Priority 32 
					Idx 10 { 184 185 139 140 138 137 230 231 265 266 }
				}
				{
					Type TRISTRIP
					Priority 32 
					Idx 10 { 189 190 148 149 147 150 235 236 270 271 }
				}
				{
					Type TRISTRIP
					Priority 32 
					Idx 4 { 279 280 278 277 }
				}
				{
					Type TRISTRIP
					Priority 32 
					Idx 4 { 282 283 281 284 }
				}
				{
					Type TRISTRIP
					Priority 32 
					Idx 6 { 291 292 294 293 435 436 }
				}
				{
					Type TRISTRIP
					Priority 32 
					Idx 8 { 438 439 437 441 440 294 442 435 }
				}
				{
					Type TRISTRIP
					Priority 32 
					Idx 4 { 305 306 308 307 }
				}
				{
					Type TRISTRIP
					Priority 32 
					Idx 4 { 332 333 331 330 }
				}
				{
					Type TRISTRIP
					Priority 32 
					Idx 4 { 361 358 360 359 }
				}
				{
					Type TRISTRIP
					Priority 32 
					Idx 4 { 377 375 376 426 }
				}
				{
					Type TRISTRIP
					Priority 32 
					Idx 4 { 413 410 412 411 }
				}
				{
					Type TRISTRIP
					Priority 32 
					Idx 4 { 423 424 422 425 }
				}
				{
					Type TRISTRIP
					Priority 32 
					Idx 4 { 427 428 430 429 }
				}
				{
					Type TRISTRIP
					Priority 32 
					Idx 4 { 434 431 433 432 }
				}
				{
					Type TRISTRIP
					Priority 32 
					Idx 4 { 301 298 300 299 }
				}
				{
					Type TRISTRIP
					Priority 32 
					Idx 4 { 457 458 456 459 }
				}
				{
					Type TRISTRIP
					Priority 32 
					Idx 4 { 460 461 463 462 }
				}
				{
					Type TRISTRIP
					Priority 32 
					Idx 4 { 466 464 453 465 }
				}
				{
					Type TRISTRIP
					Priority 32 
					Idx 4 { 479 480 482 481 }
				}
				{
					Type TRISTRIP
					Priority 32 
					Idx 4 { 486 483 485 484 }
				}
				{
					Type TRISTRIP
					Priority 32 
					Idx 4 { 487 488 489 475 }
				}
				{
					Type TRISTRIP
					Priority 32 
					Idx 4 { 501 502 504 503 }
				}
				{
					Type TRISTRIP
					Priority 32 
					Idx 9 { 478 477 474 471 474 472 473 475 476 }
				}
				{
					Type TRISTRIP2
					Priority 32 
					Idx 17 { 272 238 273 237 274 239 275 240 276 240 241 157 159 158 160 194 195 }
				}
				{
					Type TRISTRIP
					Priority 32 
					Idx 13 { 447 445 446 498 497 496 380 494 381 495 381 415 414 }
				}
				{
					Type TRISTRIP2
					Priority 32 
					Idx 6 { 445 498 499 495 500 415 }
				}
				{
					Type TRISTRIP2
					Priority 32 
					Idx 4 { 381 380 378 379 }
				}
				{
					Type TRISTRIP2
					Priority 32 
					Idx 13 { 268 233 267 232 269 232 234 142 145 143 146 186 188 }
				}
				{
					Type TRISTRIP
					Priority 32 
					Idx 9 { 233 232 141 142 144 143 144 186 187 }
				}
				{
					Type TRISTRIP2
					Priority 32 
					Idx 13 { 238 151 237 152 239 155 240 155 157 156 158 193 194 }
				}
				{
					Type TRISTRIP
					Priority 32 
					Idx 17 { 394 391 393 391 392 395 396 398 399 373 372 374 371 384 383 385 382 }
				}
				{
					Type TRISTRIP2
					Priority 32 
					Idx 12 { 408 183 181 182 181 180 179 178 173 172 170 171 }
				}
				{
					Type TRISTRIP2
					Priority 32 
					Idx 10 { 257 256 255 258 255 259 251 254 252 253 }
				}
				{
					Type TRISTRIP2
					Priority 32 
					Idx 9 { 254 259 260 262 261 263 261 264 409 }
				}
				{
					Type TRISTRIP
					Priority 32 
					Idx 6 { 451 468 448 467 470 469 }
				}
				{
					Type TRISTRIP
					Priority 32 
					Idx 9 { 443 444 420 421 417 418 417 419 416 }
				}
				{
					Type TRISTRIP2
					Priority 32 
					Idx 9 { 453 452 451 450 451 449 448 455 454 }
				}
				{
					Type TRISTRIP
					Priority 32 
					Idx 13 { 289 290 288 287 228 229 225 226 225 212 211 213 210 }
				}
				{
					Type TRISTRIP2
					Priority 32 
					Idx 9 { 193 156 191 153 192 153 154 152 151 }
				}
				{
					Type TRISTRIP
					Priority 32 
					Idx 4 { 156 153 155 152 }
				}
				{
					Type TRISTRIP
					Priority 32 
					Idx 7 { 493 492 471 490 471 491 472 }
				}
				{
					Type TRISTRIP2
					Priority 32 
					Idx 7 { 172 178 174 177 174 176 175 }
				}
				{
					Type TRISTRIP
					Priority 32 
					Idx 13 { 404 369 368 370 368 401 368 402 403 407 403 405 406 }
				}
				{
					Type TRISTRIP2
					Priority 32 
					Idx 13 { 387 386 304 303 304 302 304 400 390 397 390 389 388 }
				}
				{
					Type TRISTRIP
					Priority 32 
					Idx 8 { 362 363 364 365 366 367 364 362 }
				}
				{
					Type TRISTRIP
					Priority 32 
					Idx 21 { 323 318 321 318 322 319 323 320 318 312 319 315 320 316 312 313 315 314 316 317 313 }
				}
				{
					Type TRISTRIP2
					Priority 32 
					Idx 9 { 350 347 351 348 351 346 349 347 350 }
				}
				{
					Type TRISTRIP
					Priority 32 
					Idx 15 { 340 341 342 344 345 340 343 342 343 347 345 348 342 346 347 }
				}
				{
					Type TRISTRIP2
					Priority 32 
					Idx 9 { 336 334 339 337 338 337 335 334 336 }
				}
				{
					Type TRISTRIP
					Priority 32 
					Idx 21 { 227 207 286 206 285 206 223 206 214 205 209 204 208 204 224 204 227 204 207 205 206 }
				}
				{
					Type TRISTRIP2
					Priority 32 
					Idx 3 { 46 48 47 }
				}
				{
					Type TRISTRIP
					Priority 32 
					Idx 3 { 51 49 50 }
				}
				{
					Type TRISTRIP2
					Priority 32 
					Idx 3 { 52 54 53 }
				}
				{
					Type TRISTRIP
					Priority 32 
					Idx 3 { 57 55 56 }
				}
				{
					Type TRISTRIP2
					Priority 32 
					Idx 3 { 58 60 59 }
				}
				{
					Type TRISTRIP
					Priority 32 
					Idx 3 { 63 61 62 }
				}
				{
					Type TRISTRIP2
					Priority 32 
					Idx 3 { 64 66 65 }
				}
				{
					Type TRISTRIP
					Priority 32 
					Idx 3 { 297 295 296 }
				}
				{
					Type TRISTRIP2
					Priority 32 
					Idx 3 { 309 311 310 }
				}
				{
					Type TRISTRIP
					Priority 32 
					Idx 3 { 326 324 325 }
				}
				{
					Type TRISTRIP2
					Priority 32 
					Idx 3 { 327 329 328 }
				}
				{
					Type TRISTRIP
					Priority 32 
					Idx 3 { 354 352 353 }
				}
				{
					Type TRISTRIP2
					Priority 32 
					Idx 3 { 355 357 356 }
				}
			}

		}
		{
			Name "#3" 
			Priority 32 
			Prim 21 { 
				{
					Type TRISTRIP
					Priority 32 
					Idx 4 { 523 524 522 521 }
				}
				{
					Type TRISTRIP
					Priority 32 
					Idx 4 { 529 530 532 531 }
				}
				{
					Type TRISTRIP
					Priority 32 
					Idx 4 { 535 536 538 537 }
				}
				{
					Type TRISTRIP
					Priority 32 
					Idx 4 { 559 556 558 557 }
				}
				{
					Type TRISTRIP
					Priority 32 
					Idx 9 { 574 561 560 533 510 507 509 508 528 }
				}
				{
					Type TRISTRIP2
					Priority 32 
					Idx 4 { 507 525 533 534 }
				}
				{
					Type TRISTRIP2
					Priority 32 
					Idx 4 { 577 576 578 575 }
				}
				{
					Type TRISTRIP2
					Priority 32 
					Idx 4 { 581 580 582 579 }
				}
				{
					Type TRISTRIP2
					Priority 32 
					Idx 14 { 614 589 590 583 584 585 584 587 586 588 586 593 591 592 }
				}
				{
					Type TRISTRIP2
					Priority 32 
					Idx 7 { 599 553 594 553 595 550 596 }
				}
				{
					Type TRISTRIP
					Priority 32 
					Idx 4 { 553 550 552 551 }
				}
				{
					Type TRISTRIP
					Priority 32 
					Idx 6 { 597 552 555 551 554 598 }
				}
				{
					Type TRISTRIP
					Priority 32 
					Idx 13 { 564 565 563 562 563 566 568 567 568 569 571 570 615 }
				}
				{
					Type TRISTRIP2
					Priority 32 
					Idx 13 { 612 519 520 516 518 516 517 512 515 512 513 511 514 }
				}
				{
					Type TRISTRIP
					Priority 32 
					Idx 15 { 613 549 548 543 544 543 542 541 540 541 539 541 546 547 545 }
				}
				{
					Type TRISTRIP2
					Priority 32 
					Idx 3 { 525 527 526 }
				}
				{
					Type TRISTRIP
					Priority 32 
					Idx 3 { 573 534 572 }
				}
				{
					Type TRISTRIP2
					Priority 32 
					Idx 3 { 600 602 601 }
				}
				{
					Type TRISTRIP
					Priority 32 
					Idx 3 { 605 603 604 }
				}
				{
					Type TRISTRIP2
					Priority 32 
					Idx 3 { 606 608 607 }
				}
				{
					Type TRISTRIP
					Priority 32 
					Idx 3 { 611 609 610 }
				}
			}

		}
	}

	Offset 0 
}
