{
	Skinned 0 
	PosSkin 0 
	Pos 78 { 
		1.746178	1.186805	-4.272734 
		1.702206	1.186781	-0.449102 
		1.702127	0.050000	-0.449104 
		1.745757	0.050000	-4.272746 
		1.702127	0.050000	-12.550894 
		1.702208	1.186788	-12.550897 
		1.746186	1.186816	-8.756971 
		1.745757	0.050000	-8.756974 
		1.746189	1.186820	-6.499995 
		1.745757	0.050000	-6.499997 
		1.503594	3.326597	-4.272733 
		1.503594	3.326596	-0.500924 
		1.503594	3.326597	-6.499995 
		1.503594	3.326597	-8.756969 
		1.503594	3.326597	-12.499072 
		0.539356	1.186767	-12.923235 
		0.539356	0.050000	-12.923235 
		-1.499008	3.326598	-12.499072 
		-1.366249	3.581300	-12.390670 
		-0.451721	3.581300	-12.718959 
		-0.475966	3.326598	-12.923237 
		0.004561	3.326597	-12.976671 
		-0.027904	1.186754	-12.976671 
		-0.595164	1.186742	-12.923235 
		-1.711449	1.186747	-12.550895 
		-1.711268	0.050000	-12.550895 
		-0.595175	0.050000	-12.923235 
		-0.027909	0.050000	-12.976671 
		0.485089	3.326597	-12.923235 
		0.468788	3.581299	-12.716785 
		1.375137	3.581298	-12.390669 
		0.332414	3.727022	-12.349422 
		1.124854	3.760506	-12.061546 
		0.004580	3.581300	-12.763010 
		-0.347247	3.728004	-12.340981 
		-1.118140	3.760507	-12.061546 
		-1.746179	1.186806	-4.272735 
		-1.745757	0.050000	-4.272735 
		-1.711268	0.050000	-0.449105 
		-1.711451	1.186749	-0.449105 
		-1.141728	3.762237	-4.272733 
		-1.118141	3.760507	-0.938451 
		1.124853	3.760506	-0.938452 
		1.150900	3.762236	-4.272733 
		0.539355	1.186766	-0.076765 
		0.539355	0.050000	-0.076765 
		-1.395085	3.581300	-4.272733 
		-1.499009	3.326598	-4.272733 
		-1.499009	3.326598	-0.500925 
		-1.366250	3.581300	-0.609327 
		-0.475967	3.326598	-0.076763 
		-0.441555	3.581299	-0.293720 
		1.404255	3.581297	-4.272733 
		1.375136	3.581297	-0.609328 
		-0.362757	3.728658	-0.664640 
		-1.745757	0.050000	-8.756973 
		-1.746186	1.186817	-8.756973 
		-1.745757	0.050000	-6.499998 
		-1.746189	1.186821	-6.499996 
		-1.499009	3.326598	-6.499996 
		-1.499009	3.326598	-8.756969 
		-0.595165	1.186742	-0.076766 
		-0.027905	1.186754	-0.049664 
		0.004560	3.326596	-0.049664 
		-0.595176	0.050000	-0.076766 
		0.004579	3.581300	-0.209889 
		0.485088	3.326596	-0.076765 
		0.435977	3.581299	-0.289741 
		-0.027910	0.050000	-0.049664 
		0.354746	3.727966	-0.658692 
		1.404255	3.581297	-6.499996 
		1.404255	3.581297	-8.756969 
		1.150900	3.762236	-6.499996 
		1.150900	3.762236	-8.756969 
		-1.141728	3.762237	-8.756969 
		-1.141728	3.762237	-6.499996 
		-1.395085	3.581300	-8.756969 
		-1.395085	3.581300	-6.499996 
	}

	Nrm 71 { 
		1.000000	0.046875	0.000000 
		0.812500	0.046875	0.578125 
		0.796875	0.000000	0.593750 
		1.000000	0.000000	0.000000 
		0.796875	0.000000	-0.593750 
		0.812500	0.046875	-0.578125 
		1.000000	0.062500	0.000000 
		1.000000	0.109375	0.000000 
		0.812500	0.078125	0.578125 
		0.812500	0.078125	-0.578125 
		0.218750	0.015625	-0.984375 
		0.203125	0.000000	-0.984375 
		-0.687500	0.562500	-0.437500 
		-0.546875	0.781250	-0.328125 
		-0.140625	0.796875	-0.593750 
		-0.187500	0.609375	-0.781250 
		-0.234375	0.015625	-0.968750 
		0.000000	0.000000	-1.000000 
		-0.218750	0.015625	-0.968750 
		-0.812500	0.046875	-0.578125 
		-0.812500	0.093750	-0.578125 
		-0.812500	0.000000	-0.593750 
		-0.203125	0.000000	-0.984375 
		0.218750	0.015625	-0.968750 
		0.140625	0.796875	-0.593750 
		0.546875	0.765625	-0.328125 
		0.703125	0.562500	-0.453125 
		0.187500	0.609375	-0.781250 
		0.031250	0.953125	-0.296875 
		0.187500	0.968750	-0.125000 
		0.000000	0.843750	-0.531250 
		0.000000	0.640625	-0.765625 
		-0.031250	0.953125	-0.296875 
		-0.187500	0.968750	-0.125000 
		-1.000000	0.062500	0.000000 
		-1.000000	0.000000	0.000000 
		-0.812500	0.000000	0.593750 
		-0.812500	0.046875	0.578125 
		-0.312500	0.953125	0.000000 
		-0.187500	0.968750	0.125000 
		0.187500	0.968750	0.125000 
		0.296875	0.953125	0.000000 
		0.187500	0.015625	0.984375 
		0.171875	0.000000	0.984375 
		-0.781250	0.625000	0.000000 
		-0.921875	0.406250	0.000000 
		-0.687500	0.578125	0.437500 
		-0.531250	0.781250	0.328125 
		-0.187500	0.593750	0.781250 
		-0.140625	0.781250	0.593750 
		0.687500	0.578125	0.437500 
		0.921875	0.390625	0.000000 
		0.781250	0.625000	0.000000 
		0.546875	0.781250	0.328125 
		-0.046875	0.953125	0.296875 
		-1.000000	0.109375	0.000000 
		-0.812500	0.093750	0.578125 
		-0.203125	0.015625	0.984375 
		-0.187500	0.015625	0.984375 
		0.000000	0.000000	1.000000 
		-0.187500	0.000000	0.984375 
		0.000000	0.843750	0.546875 
		0.000000	0.593750	0.796875 
		0.187500	0.593750	0.781250 
		0.140625	0.781250	0.593750 
		0.203125	0.015625	0.984375 
		0.046875	0.953125	0.296875 
		0.796875	0.609375	0.000000 
		0.937500	0.359375	0.000000 
		0.312500	0.953125	0.000000 
		-0.921875	0.375000	0.000000 
	}

	Cpv 94 { 
		1.000000	1.000000	1.000000	1.000000 
		1.000000	1.000000	1.000000	1.000000 
		1.000000	1.000000	1.000000	1.000000 
		1.000000	1.000000	1.000000	1.000000 
		1.000000	1.000000	1.000000	1.000000 
		1.000000	1.000000	1.000000	1.000000 
		1.000000	1.000000	1.000000	1.000000 
		1.000000	1.000000	1.000000	1.000000 
		1.000000	1.000000	1.000000	1.000000 
		1.000000	1.000000	1.000000	1.000000 
		0.600000	0.600000	0.600000	1.000000 
		0.600000	0.600000	0.600000	1.000000 
		0.600000	0.600000	0.600000	1.000000 
		0.600000	0.600000	0.600000	1.000000 
		0.600000	0.600000	0.600000	1.000000 
		1.000000	1.000000	1.000000	1.000000 
		1.000000	1.000000	1.000000	1.000000 
		0.600000	0.600000	0.600000	1.000000 
		0.500000	0.500000	0.500000	1.000000 
		0.500000	0.500000	0.500000	1.000000 
		0.600000	0.600000	0.600000	1.000000 
		0.600000	0.600000	0.600000	1.000000 
		0.600000	0.600000	0.600000	1.000000 
		1.000000	1.000000	1.000000	1.000000 
		1.000000	1.000000	1.000000	1.000000 
		1.000000	1.000000	1.000000	1.000000 
		0.600000	0.600000	0.600000	1.000000 
		1.000000	1.000000	1.000000	1.000000 
		1.000000	1.000000	1.000000	1.000000 
		1.000000	1.000000	1.000000	1.000000 
		0.600000	0.600000	0.600000	1.000000 
		0.500000	0.500000	0.500000	1.000000 
		0.500000	0.500000	0.500000	1.000000 
		0.600000	0.600000	0.600000	1.000000 
		0.600000	0.600000	0.600000	1.000000 
		0.400000	0.400000	0.400000	1.000000 
		0.400000	0.400000	0.400000	1.000000 
		0.500000	0.500000	0.500000	1.000000 
		0.600000	0.600000	0.600000	1.000000 
		0.400000	0.400000	0.400000	1.000000 
		0.400000	0.400000	0.400000	1.000000 
		1.000000	1.000000	1.000000	1.000000 
		1.000000	1.000000	1.000000	1.000000 
		1.000000	1.000000	1.000000	1.000000 
		1.000000	1.000000	1.000000	1.000000 
		0.400000	0.400000	0.400000	1.000000 
		0.400000	0.400000	0.400000	1.000000 
		0.400000	0.400000	0.400000	1.000000 
		0.400000	0.400000	0.400000	1.000000 
		1.000000	1.000000	1.000000	1.000000 
		1.000000	1.000000	1.000000	1.000000 
		0.500000	0.500000	0.500000	1.000000 
		0.600000	0.600000	0.600000	1.000000 
		0.600000	0.600000	0.600000	1.000000 
		0.500000	0.500000	0.500000	1.000000 
		0.600000	0.600000	0.600000	1.000000 
		0.500000	0.500000	0.500000	1.000000 
		0.600000	0.600000	0.600000	1.000000 
		0.600000	0.600000	0.600000	1.000000 
		0.500000	0.500000	0.500000	1.000000 
		0.500000	0.500000	0.500000	1.000000 
		0.400000	0.400000	0.400000	1.000000 
		1.000000	1.000000	1.000000	1.000000 
		1.000000	1.000000	1.000000	1.000000 
		1.000000	1.000000	1.000000	1.000000 
		1.000000	1.000000	1.000000	1.000000 
		0.600000	0.600000	0.600000	1.000000 
		0.600000	0.600000	0.600000	1.000000 
		0.600000	0.600000	0.600000	1.000000 
		0.600000	0.600000	0.600000	1.000000 
		0.600000	0.600000	0.600000	1.000000 
		1.000000	1.000000	1.000000	1.000000 
		1.000000	1.000000	1.000000	1.000000 
		0.600000	0.600000	0.600000	1.000000 
		1.000000	1.000000	1.000000	1.000000 
		0.500000	0.500000	0.500000	1.000000 
		0.600000	0.600000	0.600000	1.000000 
		0.600000	0.600000	0.600000	1.000000 
		0.500000	0.500000	0.500000	1.000000 
		1.000000	1.000000	1.000000	1.000000 
		0.600000	0.600000	0.600000	1.000000 
		0.400000	0.400000	0.400000	1.000000 
		0.500000	0.500000	0.500000	1.000000 
		0.600000	0.600000	0.600000	1.000000 
		0.600000	0.600000	0.600000	1.000000 
		0.500000	0.500000	0.500000	1.000000 
		0.400000	0.400000	0.400000	1.000000 
		0.400000	0.400000	0.400000	1.000000 
		0.400000	0.400000	0.400000	1.000000 
		0.400000	0.400000	0.400000	1.000000 
		0.500000	0.500000	0.500000	1.000000 
		0.500000	0.500000	0.500000	1.000000 
		0.600000	0.600000	0.600000	1.000000 
		0.600000	0.600000	0.600000	1.000000 
	}

	Tex0 55 { 
		0.000977	0.701172 
		0.996094	0.701172 
		0.996094	0.514648 
		0.000977	0.514648 
		0.575195	0.701172 
		0.575195	0.514648 
		0.000977	1.000000 
		0.996094	1.000000 
		0.575195	1.000000 
		0.235352	0.701172 
		0.235352	0.514648 
		0.269531	0.617188 
		0.276367	0.623047 
		0.265625	0.678711 
		0.252930	0.676758 
		0.205078	1.000000 
		0.053711	1.000000 
		0.053711	0.701172 
		0.054688	0.514648 
		0.265625	0.675781 
		0.276367	0.625000 
		0.269531	0.619141 
		0.252930	0.674805 
		0.278320	0.683594 
		0.291992	0.646484 
		0.259766	0.705078 
		0.252930	0.705078 
		0.291992	0.701172 
		0.639648	0.701172 
		0.789063	0.701172 
		0.789063	0.646484 
		0.639648	0.631836 
		0.639648	0.622070 
		0.639648	0.615234 
		0.810547	0.617188 
		0.803711	0.623047 
		0.828125	0.676758 
		0.815430	0.678711 
		0.810547	0.619141 
		0.639648	0.617188 
		0.803711	0.625000 
		0.801758	0.683594 
		0.820313	0.705078 
		0.828125	0.705078 
		0.828125	0.674805 
		0.540039	0.623047 
		0.540039	0.617188 
		0.439453	0.617188 
		0.439453	0.623047 
		0.540039	0.631836 
		0.439453	0.631836 
		0.439453	0.701172 
		0.540039	0.701172 
		0.439453	0.615234 
		0.540039	0.615234 
	}

	Tex1 0 
	Adj 94 { 
		P 0 
		N 0 
		C0 0 
		T0 0 
		P 1 
		N 1 
		C0 1 
		T0 1 
		P 2 
		N 2 
		C0 2 
		T0 2 
		P 3 
		N 3 
		C0 3 
		T0 3 
		P 4 
		N 4 
		C0 4 
		T0 2 
		P 5 
		N 5 
		C0 5 
		T0 1 
		P 6 
		N 0 
		C0 6 
		T0 0 
		P 7 
		N 3 
		C0 7 
		T0 3 
		P 8 
		N 6 
		C0 8 
		T0 4 
		P 9 
		N 3 
		C0 9 
		T0 5 
		P 10 
		N 7 
		C0 10 
		T0 6 
		P 11 
		N 8 
		C0 11 
		T0 7 
		P 12 
		N 7 
		C0 12 
		T0 8 
		P 13 
		N 7 
		C0 13 
		T0 6 
		P 14 
		N 9 
		C0 14 
		T0 7 
		P 15 
		N 10 
		C0 15 
		T0 9 
		P 16 
		N 11 
		C0 16 
		T0 10 
		P 17 
		N 12 
		C0 17 
		T0 11 
		P 18 
		N 13 
		C0 18 
		T0 12 
		P 19 
		N 14 
		C0 19 
		T0 13 
		P 20 
		N 15 
		C0 20 
		T0 14 
		P 20 
		N 16 
		C0 21 
		T0 15 
		P 21 
		N 17 
		C0 22 
		T0 16 
		P 22 
		N 17 
		C0 23 
		T0 17 
		P 23 
		N 18 
		C0 24 
		T0 9 
		P 24 
		N 19 
		C0 25 
		T0 1 
		P 17 
		N 20 
		C0 26 
		T0 7 
		P 25 
		N 21 
		C0 27 
		T0 2 
		P 26 
		N 22 
		C0 28 
		T0 10 
		P 27 
		N 17 
		C0 29 
		T0 18 
		P 28 
		N 23 
		C0 30 
		T0 15 
		P 29 
		N 24 
		C0 31 
		T0 19 
		P 30 
		N 25 
		C0 32 
		T0 20 
		P 14 
		N 26 
		C0 33 
		T0 21 
		P 28 
		N 27 
		C0 34 
		T0 22 
		P 31 
		N 28 
		C0 35 
		T0 23 
		P 32 
		N 29 
		C0 36 
		T0 24 
		P 33 
		N 30 
		C0 37 
		T0 25 
		P 21 
		N 31 
		C0 38 
		T0 26 
		P 34 
		N 32 
		C0 39 
		T0 23 
		P 35 
		N 33 
		C0 40 
		T0 27 
		P 36 
		N 34 
		C0 41 
		T0 0 
		P 37 
		N 35 
		C0 42 
		T0 3 
		P 38 
		N 36 
		C0 43 
		T0 2 
		P 39 
		N 37 
		C0 44 
		T0 1 
		P 40 
		N 38 
		C0 45 
		T0 28 
		P 41 
		N 39 
		C0 46 
		T0 29 
		P 42 
		N 40 
		C0 47 
		T0 30 
		P 43 
		N 41 
		C0 48 
		T0 31 
		P 44 
		N 42 
		C0 49 
		T0 9 
		P 45 
		N 43 
		C0 50 
		T0 10 
		P 46 
		N 44 
		C0 51 
		T0 32 
		P 47 
		N 45 
		C0 52 
		T0 33 
		P 48 
		N 46 
		C0 53 
		T0 34 
		P 49 
		N 47 
		C0 54 
		T0 35 
		P 50 
		N 48 
		C0 55 
		T0 36 
		P 51 
		N 49 
		C0 56 
		T0 37 
		P 11 
		N 50 
		C0 57 
		T0 38 
		P 10 
		N 51 
		C0 58 
		T0 39 
		P 52 
		N 52 
		C0 59 
		T0 32 
		P 53 
		N 53 
		C0 60 
		T0 40 
		P 54 
		N 54 
		C0 61 
		T0 41 
		P 55 
		N 35 
		C0 62 
		T0 3 
		P 56 
		N 34 
		C0 63 
		T0 0 
		P 57 
		N 35 
		C0 64 
		T0 5 
		P 58 
		N 34 
		C0 65 
		T0 4 
		P 47 
		N 55 
		C0 66 
		T0 6 
		P 48 
		N 56 
		C0 67 
		T0 7 
		P 59 
		N 55 
		C0 68 
		T0 8 
		P 60 
		N 55 
		C0 69 
		T0 6 
		P 50 
		N 57 
		C0 70 
		T0 15 
		P 61 
		N 58 
		C0 71 
		T0 9 
		P 62 
		N 59 
		C0 72 
		T0 17 
		P 63 
		N 59 
		C0 73 
		T0 16 
		P 64 
		N 60 
		C0 74 
		T0 10 
		P 65 
		N 61 
		C0 75 
		T0 42 
		P 63 
		N 62 
		C0 76 
		T0 43 
		P 66 
		N 63 
		C0 77 
		T0 44 
		P 67 
		N 64 
		C0 78 
		T0 37 
		P 68 
		N 59 
		C0 79 
		T0 18 
		P 66 
		N 65 
		C0 80 
		T0 15 
		P 69 
		N 66 
		C0 81 
		T0 41 
		P 70 
		N 67 
		C0 82 
		T0 45 
		P 12 
		N 68 
		C0 83 
		T0 46 
		P 13 
		N 51 
		C0 84 
		T0 47 
		P 71 
		N 52 
		C0 85 
		T0 48 
		P 72 
		N 69 
		C0 86 
		T0 49 
		P 73 
		N 41 
		C0 87 
		T0 50 
		P 74 
		N 38 
		C0 88 
		T0 51 
		P 75 
		N 38 
		C0 89 
		T0 52 
		P 76 
		N 44 
		C0 90 
		T0 48 
		P 77 
		N 44 
		C0 91 
		T0 45 
		P 60 
		N 45 
		C0 92 
		T0 53 
		P 59 
		N 70 
		C0 93 
		T0 54 
	}

	Mtl 1 { 
		{
			Name "#3" 
			Priority 32 
			Prim 4 { 
				{
					Type TRISTRIP
					Priority 32 
					Idx 71 { 50 72 79 71 74 44 43 41 42 65 64 63 62 25 27 25 28 24 29 23 16 15 4 5 7 6 9 8 3 0 2 1 50 49 72 49 73 49 80 49 11 1 10 0 12 8 13 6 14 5 30 15 22 23 21 24 26 25 26 63 69 65 68 41 66 44 67 71 70 72 73 }
				}
				{
					Type TRISTRIP2
					Priority 32 
					Idx 37 { 76 75 77 78 57 60 57 59 58 82 83 85 84 32 33 31 34 37 38 19 20 18 17 18 92 90 93 91 52 51 53 54 53 56 55 75 76 }
				}
				{
					Type TRISTRIP
					Priority 32 
					Idx 38 { 81 47 61 46 54 45 51 89 91 88 90 40 18 40 19 39 37 35 31 35 32 36 85 87 85 86 82 48 59 47 60 81 78 81 75 61 56 54 }
				}
				{
					Type TRISTRIP
					Priority 32 
					Idx 13 { 35 39 36 40 36 88 87 89 86 45 48 46 47 }
				}
			}

		}
	}

	Offset 0 
}
