{
	Skinned 0 
	PosSkin 0 
	Pos 271 { 
		0.628351	2.348184	-0.999869 
		0.628351	2.272960	-0.996889 
		0.473169	2.272960	-0.996889 
		0.473169	2.348184	-0.999869 
		0.358740	2.348184	-0.999868 
		0.358740	2.272960	-0.996889 
		0.201853	2.272960	-0.996889 
		0.201853	2.348184	-0.999869 
		0.087424	2.348184	-0.999868 
		0.087424	2.272960	-0.996889 
		-0.069215	2.272960	-0.996889 
		-0.069215	2.348184	-0.999869 
		-0.183643	2.348184	-0.999869 
		-0.183643	2.272960	-0.996889 
		-0.341647	2.272960	-0.996889 
		-0.341647	2.348184	-0.999869 
		-0.456075	2.348184	-0.999869 
		-0.456075	2.272960	-0.996889 
		-0.613816	2.272960	-0.996889 
		-0.613816	2.348184	-0.999869 
		0.554962	2.234581	-0.845695 
		0.554962	2.237391	-0.774897 
		0.020835	2.237378	-0.774713 
		0.020835	2.234567	-0.845512 
		-0.513292	2.237391	-0.774898 
		-0.513292	2.234581	-0.845697 
		0.020835	2.285947	-0.847547 
		0.554962	2.285960	-0.847731 
		-0.513292	2.285960	-0.847732 
		0.020835	2.288745	-0.776748 
		-0.513292	2.288759	-0.776932 
		0.554962	2.288759	-0.776932 
		-0.602892	2.160657	-0.676893 
		-0.602892	2.147612	-0.937215 
		0.675922	2.160663	-0.676895 
		0.675922	2.147617	-0.937217 
		-0.628099	2.147617	-0.937217 
		-0.628099	2.160663	-0.676896 
		0.650715	2.160657	-0.676893 
		0.628351	2.275137	-0.938725 
		-0.613816	2.275137	-0.938725 
		-0.613816	2.350362	-0.941704 
		0.628351	2.350362	-0.941704 
		0.565284	2.294195	-0.688647 
		0.630246	2.371006	-0.632620 
		-0.614870	2.371006	-0.632620 
		-0.549908	2.294195	-0.688648 
		0.565284	2.282686	-0.918359 
		-0.549908	2.282686	-0.918359 
		-0.614870	2.353512	-0.981782 
		0.630246	2.353512	-0.981782 
		0.551295	2.438214	-0.702878 
		-0.535919	2.438214	-0.702878 
		-0.535919	2.427406	-0.918594 
		0.551295	2.427406	-0.918594 
		-0.004251	2.201158	-0.485495 
		-0.004251	2.174133	-1.079645 
		-0.794052	2.139380	-1.052606 
		-0.794052	2.165139	-0.484802 
		-0.004251	2.114321	-1.191717 
		-0.804455	2.079545	-1.164674 
		-0.004251	1.548291	-1.713216 
		-0.941725	1.519851	-1.683485 
		-0.004251	1.387429	-2.572331 
		-0.941725	1.358989	-2.508921 
		-0.004251	1.251878	-2.635007 
		-0.941725	1.223439	-2.571595 
		-0.004251	0.717151	-2.621011 
		-0.941725	0.718358	-2.558175 
		-0.004251	0.683974	-2.680627 
		-0.941725	0.685181	-2.617791 
		-0.004251	0.419636	-2.675981 
		-0.941725	0.420842	-2.613134 
		-0.957073	0.414316	-1.403920 
		-0.669747	0.374937	-1.403172 
		-1.171700	0.376014	-1.402689 
		-1.168607	0.415393	-1.403437 
		-1.023192	0.397307	-2.416529 
		-1.038251	0.717910	-2.341331 
		-1.043298	0.686726	-2.568525 
		-1.012128	0.417345	-2.563649 
		-1.022757	0.717339	-2.533255 
		-0.970996	0.501063	-1.447397 
		-0.971604	0.533526	-0.454818 
		-1.022757	0.867811	-0.460911 
		-1.022757	0.823546	-1.609022 
		-1.022757	1.506534	-0.472162 
		-0.851017	2.126338	-0.484058 
		-0.851017	2.100739	-1.032687 
		-0.867953	2.054774	-1.132933 
		-1.022757	1.491584	-1.645293 
		-1.035193	0.917441	-1.804315 
		-1.022757	1.339531	-2.489072 
		-1.035193	0.905837	-2.160470 
		-1.022757	1.217390	-2.543317 
		-1.165790	0.396714	-0.451777 
		-1.163087	0.435933	-0.452531 
		-0.957073	0.438561	-0.453087 
		-1.154957	2.719612	-0.440256 
		-1.154957	2.793626	3.414546 
		1.139952	2.793626	3.414546 
		1.139952	2.719612	-0.440256 
		-1.248428	2.662906	-0.439167 
		-1.248428	2.736920	3.415638 
		-1.244820	0.573189	1.530598 
		-1.244799	0.541401	-0.398432 
		-1.244530	0.384430	-0.395418 
		-1.244530	0.421845	1.483351 
		-1.198081	2.738104	3.477267 
		-1.244530	0.458511	3.459385 
		-1.195103	0.459494	3.518586 
		-1.195347	0.646165	3.515201 
		-1.244817	0.626525	3.456158 
		-1.195103	0.465286	3.830133 
		-1.194194	0.372216	3.831628 
		1.179808	0.372216	3.831628 
		1.180096	0.465284	3.830133 
		1.183085	2.738104	3.477267 
		-1.198081	2.661732	-0.500278 
		-1.197974	0.538326	-0.457240 
		-1.197967	0.383289	-0.454097 
		1.183085	2.661732	-0.500278 
		1.183534	0.544021	-0.457355 
		1.183568	0.383289	-0.454097 
		0.785550	2.139380	-1.052606 
		0.785550	2.165139	-0.484803 
		0.795953	2.079545	-1.164674 
		0.933222	1.519851	-1.683485 
		0.933222	1.358989	-2.508921 
		0.933222	1.223439	-2.571595 
		0.933222	0.718358	-2.558175 
		0.933222	0.685181	-2.617791 
		0.933222	0.420842	-2.613134 
		1.160339	0.376014	-1.402689 
		0.661244	0.374937	-1.403172 
		0.948571	0.414316	-1.403920 
		1.160097	0.415393	-1.403437 
		1.014689	0.397307	-2.416529 
		1.003625	0.417345	-2.563649 
		1.034795	0.686726	-2.568525 
		1.029749	0.717910	-2.341331 
		1.014254	0.717339	-2.533255 
		1.014255	0.867811	-0.460911 
		0.966306	0.554464	-0.455200 
		0.966306	0.524814	-1.459301 
		1.014254	0.823546	-1.609022 
		1.014255	1.506534	-0.472162 
		0.842515	2.100739	-1.032687 
		0.842515	2.126338	-0.484058 
		0.859450	2.054774	-1.132933 
		1.014254	1.491584	-1.645293 
		1.026690	0.917441	-1.804315 
		1.026690	0.905837	-2.160470 
		1.014254	1.339531	-2.489072 
		1.014254	1.217390	-2.543317 
		1.154577	0.435933	-0.452531 
		1.154428	0.396714	-0.451777 
		0.948571	0.438561	-0.453087 
		1.233421	2.736920	3.415638 
		1.233421	2.662906	-0.439167 
		1.229534	0.384430	-0.395418 
		1.229804	0.542445	-0.398452 
		1.229842	0.582774	1.533590 
		1.229534	0.421845	1.483351 
		1.180328	0.636555	3.515375 
		1.229825	0.628889	3.456112 
		-1.193573	0.365101	3.461040 
		-0.671529	0.459494	3.518586 
		-0.888733	0.459494	3.518586 
		1.179383	0.365121	3.462087 
		1.180096	0.459494	3.518586 
		1.229534	0.458511	3.459385 
		1.335081	1.478705	-1.398710 
		1.335081	1.757637	-1.398710 
		1.374641	1.757637	-1.415018 
		1.374641	1.441652	-1.415018 
		1.368983	1.441652	-1.372606 
		1.368983	1.757637	-1.372606 
		1.002018	1.478705	-1.443158 
		1.041577	1.441652	-1.459454 
		1.035918	1.441652	-1.417053 
		1.002018	1.260170	-1.443158 
		1.041577	1.260170	-1.459454 
		1.035918	1.260170	-1.417053 
		1.434510	1.886081	-1.339992 
		1.258928	1.886081	-1.347662 
		1.258744	1.558825	-1.343660 
		1.434337	1.558825	-1.336001 
		1.348156	1.648330	-1.376797 
		1.348237	1.795081	-1.378592 
		-1.394387	1.757637	-1.415018 
		-1.354826	1.757637	-1.398710 
		-1.354826	1.478705	-1.398710 
		-1.394387	1.441652	-1.415018 
		-1.388728	1.757637	-1.372606 
		-1.388728	1.441652	-1.372606 
		-1.021767	1.478705	-1.443158 
		-1.061326	1.441652	-1.459454 
		-1.055667	1.441652	-1.417053 
		-1.021767	1.260170	-1.443158 
		-1.061326	1.260170	-1.459454 
		-1.055667	1.260170	-1.417053 
		-1.278639	1.558825	-1.342889 
		-1.278777	1.886081	-1.346892 
		-1.454428	1.886081	-1.340751 
		-1.454290	1.558825	-1.336760 
		-1.367758	1.648330	-1.376809 
		-1.367821	1.795081	-1.378603 
		-1.105362	0.645801	3.515208 
		-0.890653	0.644933	3.515223 
		-0.676392	0.644066	3.515239 
		-1.102547	0.459494	3.518586 
		1.087624	0.459494	3.518586 
		1.087877	0.636929	3.515368 
		0.883685	0.637755	3.515354 
		0.885707	0.459494	3.518586 
		0.673175	0.638606	3.515338 
		0.669755	0.459494	3.518586 
		-1.244830	0.595873	2.291173 
		-1.244990	0.680442	2.265534 
		-1.244530	0.437633	2.339145 
		1.229850	0.604493	2.288560 
		1.229534	0.437633	2.339145 
		1.229994	0.680442	2.265534 
		1.229994	0.661840	1.558272 
		1.230120	0.834439	1.745493 
		1.230120	0.840351	2.056074 
		-1.244990	0.661840	1.558272 
		-1.245687	1.092681	1.385126 
		-1.245680	1.064272	0.132293 
		-1.245140	0.737611	0.146793 
		0.000000	2.617332	3.523030 
		1.111849	2.617332	3.523030 
		1.111849	2.723259	3.523030 
		0.000000	2.723259	3.523030 
		1.111849	2.723259	3.474602 
		0.000000	2.723259	3.474602 
		0.000000	2.617332	3.474602 
		1.111849	2.617332	3.474602 
		-1.111849	2.617332	3.474602 
		-1.111849	2.617332	3.523030 
		-1.111849	2.723259	3.523030 
		-1.111849	2.723259	3.474602 
		0.000000	2.515201	-0.543347 
		0.000000	2.621129	-0.543347 
		1.111849	2.621129	-0.543347 
		1.111849	2.515201	-0.543347 
		0.000000	2.621129	-0.494919 
		1.111849	2.621129	-0.494919 
		0.000000	2.515201	-0.494919 
		1.111849	2.515201	-0.494919 
		-1.111849	2.515201	-0.494919 
		-1.111849	2.621129	-0.494919 
		-1.111849	2.621129	-0.543347 
		-1.111849	2.515201	-0.543347 
		-1.245128	0.834439	1.745493 
		-1.245128	0.840351	2.056074 
		-0.669747	0.349264	-2.416541 
		-0.669747	0.905363	-2.306141 
		-0.669747	0.917470	-1.651676 
		0.661244	0.349264	-2.416541 
		-0.846139	0.422563	1.483339 
		-0.846138	0.438350	2.339123 
		-0.846665	0.857768	2.249550 
		-0.846666	0.857849	1.581227 
		0.837637	0.422562	1.483339 
		0.837636	0.438350	2.339123 
		0.661244	0.905363	-2.306141 
		0.661244	0.917470	-1.651676 
		0.838163	0.857767	2.249550 
		0.838163	0.857849	1.581227 
	}

	Nrm 224 { 
		0.000000	-0.046875	-1.000000 
		0.000000	-1.000000	0.046875 
		0.000000	0.046875	1.000000 
		0.671875	-0.734375	0.031250 
		0.734375	0.671875	-0.031250 
		-0.750000	0.656250	-0.031250 
		-0.625000	-0.031250	-0.781250 
		0.734375	-0.031250	-0.687500 
		0.000000	0.546875	-0.843750 
		0.640625	0.031250	0.765625 
		0.000000	0.781250	0.609375 
		-0.703125	0.031250	0.703125 
		0.000000	0.609375	0.781250 
		0.000000	-1.000000	0.031250 
		0.000000	1.000000	-0.031250 
		-1.000000	0.000000	0.000000 
		1.000000	0.000000	0.000000 
		0.000000	-0.593750	0.812500 
		0.000000	-0.671875	-0.750000 
		-0.750000	-0.656250	0.031250 
		0.750000	-0.656250	0.031250 
		0.000000	0.718750	0.687500 
		0.000000	0.656250	-0.765625 
		-0.671875	0.750000	-0.031250 
		0.671875	0.750000	-0.031250 
		0.000000	1.000000	-0.046875 
		-0.046875	1.000000	-0.046875 
		0.000000	0.765625	-0.656250 
		-0.296875	0.781250	-0.546875 
		0.015625	0.906250	-0.437500 
		-0.218750	0.890625	-0.421875 
		0.000000	0.734375	-0.671875 
		-0.203125	0.765625	-0.609375 
		0.000000	0.125000	-0.984375 
		-0.218750	0.234375	-0.953125 
		0.000000	0.656250	-0.750000 
		-0.171875	0.468750	-0.859375 
		0.000000	0.312500	-0.953125 
		-0.187500	0.593750	-0.781250 
		0.000000	-0.015625	-1.000000 
		-0.296875	-0.031250	-0.953125 
		-0.015625	-0.171875	-0.984375 
		-0.015625	-0.312500	-0.953125 
		-1.000000	-0.078125	-0.046875 
		-0.968750	0.234375	-0.046875 
		-0.765625	0.359375	-0.531250 
		-0.843750	-0.109375	-0.515625 
		-0.765625	0.312500	-0.562500 
		-0.984375	-0.156250	0.000000 
		-1.000000	-0.109375	0.000000 
		-1.000000	-0.031250	0.015625 
		-0.984375	0.171875	0.000000 
		-0.812500	0.578125	-0.031250 
		-0.781250	0.625000	-0.062500 
		-0.765625	0.593750	-0.250000 
		-0.921875	0.359375	-0.171875 
		-1.000000	0.015625	0.031250 
		-0.703125	0.562500	-0.437500 
		-1.000000	0.031250	-0.031250 
		-0.812500	0.109375	-0.578125 
		-1.000000	0.062500	0.000000 
		-1.000000	0.078125	0.000000 
		-0.187500	0.921875	-0.343750 
		-0.281250	0.906250	0.296875 
		0.265625	0.953125	0.171875 
		0.265625	0.906250	-0.312500 
		-0.953125	0.250000	-0.171875 
		-0.968750	0.187500	0.187500 
		-0.968750	0.000000	-0.218750 
		-0.171875	0.234375	0.953125 
		-0.984375	0.000000	0.171875 
		-0.343750	0.015625	0.937500 
		-0.421875	0.015625	0.906250 
		-0.968750	0.000000	0.265625 
		0.000000	0.015625	1.000000 
		0.265625	0.312500	0.906250 
		-0.296875	0.343750	-0.890625 
		-0.437500	-0.015625	-0.906250 
		-0.562500	-0.015625	-0.828125 
		0.296875	0.515625	-0.812500 
		0.437500	-0.015625	-0.906250 
		0.046875	1.000000	-0.046875 
		0.296875	0.781250	-0.546875 
		0.234375	0.859375	-0.453125 
		0.171875	0.828125	-0.531250 
		0.218750	0.234375	-0.953125 
		0.171875	0.468750	-0.859375 
		0.187500	0.593750	-0.781250 
		0.296875	-0.031250	-0.953125 
		0.015625	-0.312500	-0.953125 
		0.015625	-0.171875	-0.984375 
		1.000000	-0.078125	-0.046875 
		0.843750	-0.109375	-0.515625 
		0.765625	0.359375	-0.531250 
		0.968750	0.234375	-0.046875 
		0.765625	0.312500	-0.562500 
		1.000000	-0.109375	0.000000 
		0.984375	-0.156250	0.000000 
		1.000000	-0.031250	0.015625 
		0.984375	0.171875	0.000000 
		0.781250	0.625000	-0.062500 
		0.812500	0.578125	-0.031250 
		0.765625	0.593750	-0.250000 
		0.921875	0.359375	-0.171875 
		1.000000	0.015625	0.031250 
		1.000000	0.031250	-0.031250 
		0.703125	0.562500	-0.437500 
		0.812500	0.109375	-0.578125 
		0.015625	1.000000	-0.015625 
		0.953125	0.265625	0.156250 
		0.890625	0.359375	-0.250000 
		0.968750	0.000000	-0.218750 
		0.968750	0.000000	-0.265625 
		0.500000	0.015625	0.859375 
		0.968750	0.000000	0.265625 
		-0.703125	-0.375000	0.593750 
		-1.000000	-0.015625	0.000000 
		0.000000	1.000000	-0.015625 
		0.718750	-0.359375	0.593750 
		-0.703125	0.703125	-0.093750 
		-0.921875	0.000000	0.375000 
		0.125000	0.000000	-0.984375 
		0.609375	0.000000	-0.796875 
		-0.109375	-0.500000	0.859375 
		0.796875	0.000000	0.609375 
		0.109375	-0.500000	-0.859375 
		0.375000	0.000000	0.921875 
		-0.796875	0.000000	-0.609375 
		0.921875	0.000000	-0.375000 
		-0.125000	0.000000	0.984375 
		0.000000	1.000000	0.000000 
		0.000000	-1.000000	0.000000 
		-0.046875	0.015625	1.000000 
		0.234375	-0.218750	-0.953125 
		0.562500	-0.140625	-0.812500 
		-0.218750	-0.281250	-0.937500 
		0.359375	0.062500	-0.937500 
		0.296875	0.250000	-0.921875 
		-0.484375	0.125000	-0.859375 
		-0.125000	0.000000	-0.984375 
		0.921875	0.000000	0.375000 
		0.703125	0.703125	-0.093750 
		-0.609375	0.000000	-0.796875 
		-0.796875	0.000000	0.609375 
		0.109375	-0.500000	0.859375 
		-0.109375	-0.500000	-0.859375 
		-0.375000	0.000000	0.921875 
		0.796875	0.000000	-0.609375 
		-0.921875	0.000000	-0.375000 
		0.125000	0.000000	0.984375 
		0.031250	0.015625	1.000000 
		0.234375	-0.281250	-0.937500 
		-0.562500	-0.140625	-0.812500 
		0.281250	-0.093750	-0.953125 
		-0.296875	0.250000	-0.921875 
		-0.359375	0.062500	-0.937500 
		0.500000	0.125000	-0.859375 
		0.156250	0.015625	0.984375 
		0.000000	-0.703125	0.703125 
		0.578125	-0.578125	0.578125 
		0.578125	0.578125	0.578125 
		0.000000	0.703125	0.703125 
		0.703125	0.703125	0.000000 
		0.703125	-0.703125	0.000000 
		-0.703125	-0.703125	0.000000 
		-0.578125	-0.578125	0.578125 
		-0.578125	0.578125	0.578125 
		-0.703125	0.703125	0.000000 
		0.000000	-0.703125	-0.703125 
		0.000000	0.703125	-0.703125 
		0.578125	0.578125	-0.578125 
		0.578125	-0.578125	-0.578125 
		-0.578125	0.578125	-0.578125 
		-0.578125	-0.578125	-0.578125 
		0.000000	-0.968750	-0.218750 
		-0.125000	-0.906250	-0.390625 
		-0.093750	-0.921875	-0.359375 
		0.000000	-0.953125	-0.296875 
		0.000000	-0.203125	0.984375 
		0.078125	-0.859375	0.515625 
		0.093750	-0.375000	0.921875 
		0.156250	-0.906250	0.390625 
		0.062500	-0.859375	-0.500000 
		0.062500	-0.984375	-0.125000 
		0.046875	-0.609375	-0.781250 
		-0.046875	-0.437500	-0.890625 
		0.000000	-1.000000	0.015625 
		-0.250000	-0.875000	-0.421875 
		0.000000	-0.984375	-0.171875 
		0.218750	-0.546875	-0.812500 
		0.156250	-0.968750	-0.203125 
		0.125000	-0.656250	-0.734375 
		0.203125	-0.906250	0.359375 
		0.140625	-0.859375	0.484375 
		0.125000	-0.421875	0.890625 
		0.046875	-0.250000	-0.968750 
		0.015625	-0.250000	-0.968750 
		0.000000	-0.203125	-0.984375 
		0.015625	-0.265625	0.968750 
		0.031250	-0.265625	0.968750 
		0.093750	-0.921875	-0.359375 
		0.125000	-0.906250	-0.390625 
		-0.093750	-0.375000	0.921875 
		-0.078125	-0.859375	0.515625 
		-0.156250	-0.906250	0.390625 
		-0.062500	-0.984375	-0.125000 
		-0.062500	-0.859375	-0.500000 
		-0.046875	-0.609375	-0.781250 
		0.031250	-0.437500	-0.890625 
		0.250000	-0.875000	-0.421875 
		-0.218750	-0.546875	-0.812500 
		-0.140625	-0.656250	-0.734375 
		-0.156250	-0.968750	-0.203125 
		-0.140625	-0.859375	0.484375 
		-0.203125	-0.906250	0.359375 
		-0.125000	-0.421875	0.890625 
		-0.015625	-0.250000	-0.968750 
		-0.031250	-0.265625	0.968750 
		0.000000	-0.296875	0.953125 
		-0.015625	-0.265625	0.968750 
		0.000000	-0.031250	-1.000000 
		0.156250	0.062500	-0.984375 
		-0.031250	-1.000000	0.015625 
		-0.046875	-0.250000	-0.968750 
	}

	Cpv 609 { 
		0.489271	0.502151	0.481707	0.003922 
		0.491562	0.502186	0.481704	0.003922 
		0.491784	0.497741	0.488705	0.003922 
		0.489492	0.497706	0.488708	0.003922 
		0.489656	0.494429	0.493871	0.003922 
		0.491947	0.494463	0.493868	0.003922 
		0.492171	0.489969	0.500946	0.003922 
		0.489880	0.489935	0.500949	0.003922 
		0.490044	0.486657	0.506112	0.003922 
		0.492335	0.486692	0.506108	0.003922 
		0.492559	0.482205	0.513176	0.003922 
		0.490267	0.482171	0.513179	0.003922 
		0.490431	0.478893	0.518341	0.003922 
		0.492722	0.478928	0.518338	0.003922 
		0.492948	0.474402	0.525467	0.003922 
		0.490657	0.474367	0.525470	0.003922 
		0.490820	0.471090	0.530632	0.003922 
		0.493111	0.471125	0.530629	0.003922 
		0.493337	0.466607	0.537746	0.003922 
		0.491046	0.466572	0.537749	0.003922 
		0.499586	0.500295	0.484861	0.003922 
		0.502698	0.500386	0.484789	0.003922 
		0.503470	0.485087	0.508887	0.003922 
		0.500358	0.484996	0.508959	0.003922 
		0.504224	0.469788	0.532985	0.003922 
		0.501112	0.469697	0.533057	0.003922 
		0.499586	0.500295	0.484861	0.003922 
		0.500358	0.484996	0.508959	0.003922 
		0.498793	0.484972	0.508961	0.003922 
		0.498021	0.500271	0.484863	0.003922 
		0.501112	0.469697	0.533057	0.003922 
		0.499547	0.469673	0.533059	0.003922 
		0.504224	0.469788	0.532985	0.003922 
		0.503470	0.485087	0.508887	0.003922 
		0.501905	0.485063	0.508889	0.003922 
		0.502660	0.469764	0.532987	0.003922 
		0.502698	0.500386	0.484789	0.003922 
		0.501133	0.500362	0.484791	0.003922 
		0.501112	0.469697	0.533057	0.003922 
		0.504224	0.469788	0.532985	0.003922 
		0.510972	0.467380	0.536927	0.003922 
		0.499606	0.467048	0.537192	0.003922 
		0.498021	0.500271	0.484863	0.003922 
		0.501133	0.500362	0.484791	0.003922 
		0.509145	0.504008	0.479232	0.003922 
		0.497779	0.503677	0.479497	0.003922 
		0.502660	0.469764	0.532987	0.003922 
		0.499547	0.469673	0.533059	0.003922 
		0.499642	0.466326	0.538330	0.003922 
		0.511008	0.466657	0.538065	0.003922 
		0.499586	0.500295	0.484861	0.003922 
		0.498021	0.500271	0.484863	0.003922 
		0.497779	0.503677	0.479497	0.003922 
		0.499547	0.469673	0.533059	0.003922 
		0.501112	0.469697	0.533057	0.003922 
		0.499606	0.467048	0.537192	0.003922 
		0.499606	0.467048	0.537192	0.003922 
		0.499642	0.466326	0.538330	0.003922 
		0.499547	0.469673	0.533059	0.003922 
		0.504224	0.469788	0.532985	0.003922 
		0.502660	0.469764	0.532987	0.003922 
		0.511008	0.466657	0.538065	0.003922 
		0.511008	0.466657	0.538065	0.003922 
		0.510972	0.467380	0.536927	0.003922 
		0.504224	0.469788	0.532985	0.003922 
		0.501133	0.500362	0.484791	0.003922 
		0.502698	0.500386	0.484789	0.003922 
		0.509181	0.503286	0.480369	0.003922 
		0.509181	0.503286	0.480369	0.003922 
		0.509145	0.504008	0.479232	0.003922 
		0.501133	0.500362	0.484791	0.003922 
		0.491562	0.502186	0.481704	0.003922 
		0.494122	0.502260	0.481644	0.003922 
		0.495897	0.466681	0.537687	0.003922 
		0.493337	0.466607	0.537746	0.003922 
		0.489271	0.502151	0.481707	0.003922 
		0.491046	0.466572	0.537749	0.003922 
		0.493337	0.466607	0.537746	0.003922 
		0.491562	0.502186	0.481704	0.003922 
		0.493337	0.466607	0.537746	0.003922 
		0.495897	0.466681	0.537687	0.003922 
		0.493337	0.466607	0.537746	0.003922 
		0.491046	0.466572	0.537749	0.003922 
		0.495897	0.466681	0.537687	0.003922 
		0.494122	0.502260	0.481644	0.003922 
		0.491562	0.502186	0.481704	0.003922 
		0.493337	0.466607	0.537746	0.003922 
		0.494122	0.502260	0.481644	0.003922 
		0.491562	0.502186	0.481704	0.003922 
		0.489271	0.502151	0.481707	0.003922 
		0.491562	0.502186	0.481704	0.003922 
		0.504944	0.500769	0.484235	0.003922 
		0.505176	0.502671	0.481247	0.003922 
		0.506955	0.467007	0.537423	0.003922 
		0.506538	0.468827	0.534549	0.003922 
		0.494915	0.500477	0.484469	0.003922 
		0.496508	0.468534	0.534783	0.003922 
		0.491046	0.466572	0.537749	0.003922 
		0.489271	0.502151	0.481707	0.003922 
		0.504944	0.500769	0.484235	0.003922 
		0.506538	0.468827	0.534549	0.003922 
		0.496508	0.468534	0.534783	0.003922 
		0.494915	0.500477	0.484469	0.003922 
		0.506538	0.468827	0.534549	0.003922 
		0.506955	0.467007	0.537423	0.003922 
		0.491046	0.466572	0.537749	0.003922 
		0.496508	0.468534	0.534783	0.003922 
		0.505176	0.502671	0.481247	0.003922 
		0.504944	0.500769	0.484235	0.003922 
		0.494915	0.500477	0.484469	0.003922 
		0.489271	0.502151	0.481707	0.003922 
		0.491947	0.494463	0.493868	0.003922 
		0.489656	0.494429	0.493871	0.003922 
		0.492335	0.486692	0.506108	0.003922 
		0.490044	0.486657	0.506112	0.003922 
		0.492722	0.478928	0.518338	0.003922 
		0.490431	0.478893	0.518341	0.003922 
		0.493111	0.471125	0.530629	0.003922 
		0.490820	0.471090	0.530632	0.003922 
		0.506955	0.467007	0.537423	0.003922 
		0.505176	0.502671	0.481247	0.003922 
		0.499586	0.500295	0.484861	0.003922 
		0.501112	0.469697	0.533057	0.003922 
		0.489271	0.502151	0.481707	0.003922 
		0.491046	0.466572	0.537749	0.003922 
		0.492328	0.468875	0.534152	0.003922 
		0.490775	0.500016	0.485100	0.003922 
		0.491046	0.466572	0.537749	0.003922 
		0.506955	0.467007	0.537423	0.003922 
		0.501112	0.469697	0.533057	0.003922 
		0.492328	0.468875	0.534152	0.003922 
		0.505176	0.502671	0.481247	0.003922 
		0.489271	0.502151	0.481707	0.003922 
		0.490775	0.500016	0.485100	0.003922 
		0.499586	0.500295	0.484861	0.003922 
		0.501112	0.469697	0.533057	0.003922 
		0.499586	0.500295	0.484861	0.003922 
		0.490775	0.500016	0.485100	0.003922 
		0.492328	0.468875	0.534152	0.003922 
		0.500000	0.500000	0.500000	0.003922 
		0.500000	0.440589	0.500000	0.003922 
		0.500000	0.453266	0.500000	0.003922 
		0.500000	0.500000	0.500000	0.003922 
		0.500000	0.440589	0.500000	0.003922 
		0.500000	0.440589	0.500000	0.003922 
		0.500000	0.453266	0.500000	0.003922 
		0.500000	0.453266	0.500000	0.003922 
		0.500000	0.500000	0.500000	0.000000 
		0.500000	0.500000	0.500000	0.000000 
		0.500000	0.500000	0.650070	0.000000 
		0.500000	0.472757	0.672146	0.000000 
		0.500000	0.500000	0.500000	0.000000 
		0.500000	0.500000	0.500000	0.000000 
		0.500000	0.500000	0.650070	0.000000 
		0.500000	0.500000	0.650070	0.000000 
		0.500000	0.472757	0.672146	0.000000 
		0.500000	0.472757	0.672146	0.000000 
		0.500000	0.610968	0.642401	0.000000 
		0.500000	0.606404	0.578206	0.000000 
		0.500000	0.610968	0.642401	0.000000 
		0.500000	0.606404	0.578206	0.000000 
		0.500000	0.610968	0.642401	0.000000 
		0.500000	0.606404	0.578206	0.000000 
		0.500000	0.500000	0.500000	0.000000 
		0.500000	0.500000	0.500000	0.000000 
		0.555335	0.527630	0.500000	0.000000 
		0.555335	0.527630	0.500000	0.000000 
		0.500000	0.606404	0.500000	0.000000 
		0.500000	0.500000	0.500000	0.000000 
		0.500000	0.606404	0.578206	0.000000 
		0.500000	0.606404	0.578206	0.000000 
		0.500000	0.606404	0.578206	0.000000 
		0.500000	0.500000	0.500000	0.000000 
		0.500000	0.500000	0.500000	0.000000 
		0.500000	0.500000	0.500000	0.000000 
		0.500000	0.500000	0.500000	0.000000 
		0.500000	0.500000	0.500000	0.000000 
		0.500000	0.500000	0.500000	0.003922 
		0.500000	0.453266	0.500000	0.003922 
		0.500000	0.453266	0.500000	0.003922 
		0.500000	0.500000	0.500000	0.000000 
		0.500000	0.500000	0.500000	0.000000 
		0.500000	0.472757	0.672146	0.000000 
		0.500000	0.500000	0.500000	0.000000 
		0.500000	0.472757	0.672146	0.000000 
		0.500000	0.606404	0.578206	0.000000 
		0.500000	0.453266	0.500000	0.003922 
		0.500000	0.500000	0.500000	0.003922 
		0.500000	0.453266	0.500000	0.003922 
		0.500000	0.453266	0.500000	0.003922 
		0.500000	0.500000	0.500000	0.000000 
		0.500000	0.472757	0.672146	0.000000 
		0.500000	0.500000	0.500000	0.000000 
		0.500000	0.472757	0.672146	0.000000 
		0.500000	0.472757	0.672146	0.000000 
		0.500000	0.606404	0.578206	0.000000 
		0.500000	0.606404	0.578206	0.000000 
		0.500000	0.606404	0.578206	0.000000 
		0.555335	0.527630	0.500000	0.000000 
		0.500000	0.500000	0.500000	0.000000 
		0.500000	0.500000	0.500000	0.000000 
		0.555335	0.527630	0.500000	0.000000 
		0.500000	0.500000	0.500000	0.000000 
		0.500000	0.500000	0.500000	0.000000 
		0.555335	0.527630	0.500000	0.000000 
		0.500000	0.500000	0.500000	0.000000 
		0.500000	0.500000	0.500000	0.003922 
		0.500000	0.500000	0.500000	0.003922 
		0.500000	0.500000	0.500000	0.003922 
		0.500000	0.500000	0.500000	0.003922 
		0.500000	0.500000	0.500000	0.003922 
		0.500000	0.500000	0.500000	0.003922 
		0.603298	0.500000	0.500000	0.000000 
		0.500000	0.500000	0.500000	0.000000 
		0.500000	0.500000	0.500000	0.000000 
		0.603298	0.500000	0.500000	0.000000 
		0.500000	0.500000	0.500000	0.003922 
		0.591089	0.412238	0.500000	0.000000 
		0.592556	0.500000	0.500000	0.000000 
		0.575241	0.497527	0.498642	0.000000 
		0.576237	0.476036	0.498974	0.000000 
		0.708566	0.402761	0.448729	0.000000 
		0.708566	0.411988	0.406803	0.000000 
		0.500000	0.500000	0.500000	0.000000 
		0.500000	0.500000	0.500000	0.000000 
		0.500000	0.500000	0.500000	0.003922 
		0.500000	0.500000	0.500000	0.003922 
		0.500000	0.500000	0.500000	0.000000 
		0.500000	0.500000	0.500000	0.000000 
		0.500000	0.500000	0.500000	0.003922 
		0.500000	0.500000	0.500000	0.000000 
		0.500000	0.500000	0.500000	0.000000 
		0.500000	0.500000	0.500000	0.003922 
		0.500000	0.500000	0.500000	0.003922 
		0.500000	0.500000	0.500000	0.003922 
		0.500000	0.500000	0.500000	0.003922 
		0.500000	0.500000	0.500000	0.000000 
		0.500000	0.500000	0.500000	0.000000 
		0.500000	0.500000	0.500000	0.000000 
		0.500000	0.500000	0.500000	0.000000 
		0.500000	0.500000	0.500000	0.000000 
		0.500000	0.500000	0.500000	0.000000 
		0.500000	0.500000	0.500000	0.000000 
		0.500000	0.500000	0.500000	0.000000 
		0.500000	0.500000	0.500000	0.000000 
		0.500000	0.500000	0.500000	0.000000 
		0.500000	0.500000	0.500000	0.000000 
		0.500000	0.500000	0.500000	0.000000 
		0.500000	0.500000	0.500000	0.000000 
		0.500000	0.500000	0.500000	0.000000 
		0.500000	0.500000	0.500000	0.000000 
		0.500000	0.500000	0.500000	0.000000 
		0.500000	0.500000	0.500000	0.000000 
		0.500000	0.500000	0.500000	0.000000 
		0.500000	0.500000	0.500000	0.000000 
		0.500000	0.500000	0.500000	0.000000 
		0.500000	0.500000	0.500000	0.000000 
		0.500000	0.500000	0.500000	0.000000 
		0.500000	0.500000	0.500000	0.003922 
		0.500000	0.500000	0.500000	0.003922 
		0.500000	0.500000	0.500000	0.003922 
		0.500000	0.500000	0.500000	0.000000 
		0.500000	0.500000	0.500000	0.000000 
		0.500000	0.500000	0.500000	0.000000 
		0.500000	0.500000	0.500000	0.000000 
		0.500000	0.500000	0.500000	0.000000 
		0.500000	0.500000	0.500000	0.000000 
		0.500000	0.500000	0.500000	0.003922 
		0.500000	0.500000	0.500000	0.003922 
		0.500000	0.500000	0.500000	0.003922 
		0.500000	0.500000	0.500000	0.003922 
		0.500000	0.500000	0.500000	0.000000 
		0.500000	0.500000	0.500000	0.000000 
		0.500000	0.500000	0.500000	0.000000 
		0.500000	0.500000	0.500000	0.000000 
		0.500000	0.500000	0.500000	0.000000 
		0.500000	0.500000	0.500000	0.000000 
		0.500000	0.500000	0.500000	0.000000 
		0.500000	0.500000	0.500000	0.000000 
		0.500000	0.500000	0.500000	0.000000 
		0.500000	0.500000	0.500000	0.000000 
		0.500000	0.500000	0.500000	0.000000 
		0.500000	0.500000	0.500000	0.000000 
		0.500000	0.500000	0.500000	0.000000 
		0.500000	0.500000	0.500000	0.000000 
		0.500000	0.500000	0.500000	0.000000 
		0.500000	0.500000	0.500000	0.000000 
		0.500000	0.500000	0.500000	0.003922 
		0.500000	0.500000	0.500000	0.003922 
		0.500000	0.500000	0.500000	0.000000 
		0.500000	0.500000	0.500000	0.000000 
		0.500000	0.500000	0.500000	0.000000 
		0.500000	0.500000	0.500000	0.000000 
		0.500000	0.500000	0.500000	0.003922 
		0.500000	0.500000	0.500000	0.000000 
		0.500000	0.500000	0.500000	0.000000 
		0.500000	0.500000	0.500000	0.003922 
		0.592556	0.500000	0.500000	0.000000 
		0.591089	0.412238	0.500000	0.000000 
		0.558590	0.509415	0.557546	0.000000 
		0.708566	0.411988	0.406803	0.000000 
		0.708566	0.402761	0.448729	0.000000 
		0.592556	0.500000	0.500000	0.000000 
		0.558590	0.509415	0.557546	0.000000 
		0.511025	0.486292	0.500000	0.000000 
		0.513434	0.454028	0.500000	0.000000 
		0.708566	0.402761	0.448729	0.000000 
		0.500000	0.500000	0.500000	0.000000 
		0.500000	0.500000	0.500000	0.000000 
		0.500000	0.500000	0.500000	0.000000 
		0.500000	0.500000	0.500000	0.000000 
		0.500000	0.500000	0.500000	0.000000 
		0.500000	0.500000	0.500000	0.000000 
		0.500000	0.500000	0.500000	0.000000 
		0.294152	0.467394	0.691246	0.000000 
		0.342864	0.463108	0.691246	0.000000 
		0.341959	0.456252	0.724575	0.000000 
		0.286776	0.461108	0.724576	0.000000 
		0.258592	0.467110	0.707649	0.000000 
		0.313775	0.462254	0.707649	0.000000 
		0.500000	0.500000	0.500000	0.000000 
		0.500000	0.500000	0.500000	0.000000 
		0.500000	0.500000	0.500000	0.000000 
		0.500000	0.500000	0.500000	0.000000 
		0.500000	0.500000	0.500000	0.000000 
		0.500000	0.500000	0.500000	0.000000 
		0.313775	0.462254	0.707649	0.000000 
		0.341959	0.456252	0.724575	0.000000 
		0.342864	0.463108	0.691246	0.000000 
		0.500000	0.500000	0.500000	0.000000 
		0.500000	0.500000	0.500000	0.000000 
		0.500000	0.500000	0.500000	0.000000 
		0.292586	0.456395	0.744766	0.000000 
		0.353153	0.476794	0.621124	0.000000 
		0.293232	0.482347	0.619777	0.000000 
		0.232670	0.461945	0.743432	0.000000 
		0.304188	0.465942	0.693979	0.000000 
		0.232670	0.461945	0.743432	0.000000 
		0.293232	0.482347	0.619777	0.000000 
		0.331059	0.463453	0.694581	0.000000 
		0.292586	0.456395	0.744766	0.000000 
		0.353153	0.476794	0.621124	0.000000 
		0.547005	0.235840	0.624529	0.000000 
		0.520438	0.274103	0.594150	0.000000 
		0.584042	0.386172	0.500000	0.000000 
		0.605578	0.372107	0.500000	0.000000 
		0.570829	0.257804	0.604007	0.000000 
		0.604941	0.374716	0.500000	0.000000 
		0.500000	0.500000	0.500000	0.000000 
		0.500000	0.500000	0.500000	0.000000 
		0.500000	0.500000	0.500000	0.000000 
		0.500000	0.500000	0.500000	0.000000 
		0.500000	0.500000	0.500000	0.000000 
		0.500000	0.500000	0.500000	0.000000 
		0.570829	0.257804	0.604007	0.000000 
		0.520438	0.274103	0.594150	0.000000 
		0.547005	0.235840	0.624529	0.000000 
		0.500000	0.500000	0.500000	0.000000 
		0.500000	0.500000	0.500000	0.000000 
		0.500000	0.500000	0.500000	0.000000 
		0.629880	0.468967	0.420122	0.000000 
		0.434571	0.208570	0.595753	0.000000 
		0.562682	0.146715	0.698937	0.000000 
		0.801968	0.331389	0.523311	0.000000 
		0.629880	0.468967	0.420122	0.000000 
		0.801968	0.331389	0.523311	0.000000 
		0.626942	0.333899	0.534993	0.000000 
		0.562682	0.146715	0.698937	0.000000 
		0.519637	0.251083	0.613752	0.000000 
		0.434571	0.208570	0.595753	0.000000 
		0.500000	0.500000	0.500000	0.003922 
		0.500000	0.500000	0.500000	0.000000 
		0.485910	0.451686	0.396808	0.000000 
		0.513434	0.454028	0.500000	0.000000 
		0.511025	0.486292	0.500000	0.000000 
		0.483662	0.483522	0.396808	0.000000 
		0.485910	0.451686	0.396808	0.000000 
		0.500000	0.500000	0.500000	0.000000 
		0.500000	0.500000	0.500000	0.000000 
		0.500000	0.500000	0.500000	0.000000 
		0.575241	0.497527	0.498642	0.000000 
		0.500000	0.500000	0.500000	0.003922 
		0.500000	0.500000	0.500000	0.003922 
		0.576237	0.476036	0.498974	0.000000 
		0.592556	0.500000	0.500000	0.000000 
		0.500000	0.500000	0.500000	0.000000 
		0.500000	0.500000	0.500000	0.000000 
		0.575241	0.497527	0.498642	0.000000 
		0.500000	0.500000	0.500000	0.000000 
		0.592556	0.500000	0.500000	0.000000 
		0.500000	0.500000	0.500000	0.000000 
		0.500000	0.500000	0.500000	0.000000 
		0.500000	0.500000	0.500000	0.000000 
		0.500000	0.500000	0.500000	0.000000 
		0.500000	0.500000	0.500000	0.000000 
		0.500000	0.500000	0.500000	0.000000 
		0.500000	0.500000	0.500000	0.000000 
		0.500000	0.500000	0.500000	0.000000 
		0.500000	0.500000	0.500000	0.000000 
		0.500000	0.500000	0.500000	0.000000 
		0.500000	0.500000	0.500000	0.000000 
		0.500000	0.500000	0.500000	0.000000 
		0.500000	0.500000	0.500000	0.000000 
		0.483662	0.483522	0.396808	0.000000 
		0.500000	0.500000	0.500000	0.000000 
		0.500000	0.500000	0.500000	0.003922 
		0.575241	0.497527	0.498642	0.000000 
		0.500000	0.500000	0.500000	0.000000 
		0.500000	0.500000	0.500000	0.000000 
		0.500000	0.500000	0.500000	0.000000 
		0.500000	0.500000	0.500000	0.000000 
		0.500000	0.500000	0.500000	0.000000 
		0.500000	0.500000	0.500000	0.000000 
		0.500000	0.500000	0.500000	0.000000 
		0.500000	0.500000	0.500000	0.000000 
		0.500000	0.500000	0.500000	0.000000 
		0.603298	0.500000	0.500000	0.000000 
		0.603298	0.500000	0.500000	0.000000 
		0.500000	0.500000	0.500000	0.003922 
		0.500000	0.500000	0.500000	0.003922 
		0.500000	0.500000	0.500000	0.000000 
		0.500000	0.500000	0.500000	0.000000 
		0.500000	0.500000	0.500000	0.003922 
		0.500000	0.500000	0.500000	0.003922 
		0.500000	0.500000	0.500000	0.000000 
		0.500000	0.500000	0.500000	0.000000 
		0.576237	0.476036	0.498974	0.000000 
		0.603298	0.500000	0.500000	0.000000 
		0.603298	0.500000	0.500000	0.000000 
		0.591089	0.412238	0.500000	0.000000 
		0.500000	0.500000	0.500000	0.000000 
		0.500000	0.500000	0.500000	0.000000 
		0.500000	0.500000	0.500000	0.000000 
		0.500000	0.500000	0.500000	0.000000 
		0.500000	0.500000	0.500000	0.000000 
		0.500000	0.500000	0.500000	0.000000 
		0.500000	0.500000	0.500000	0.000000 
		0.500000	0.500000	0.500000	0.000000 
		0.500000	0.500000	0.500000	0.000000 
		0.500000	0.500000	0.500000	0.000000 
		0.500000	0.500000	0.500000	0.000000 
		0.500000	0.500000	0.500000	0.000000 
		0.500000	0.500000	0.500000	0.000000 
		0.500000	0.500000	0.500000	0.000000 
		0.500000	0.500000	0.500000	0.000000 
		0.500000	0.500000	0.500000	0.003922 
		0.500000	0.500000	0.500000	0.000000 
		0.500000	0.500000	0.500000	0.000000 
		0.500000	0.500000	0.500000	0.003922 
		0.603298	0.500000	0.500000	0.000000 
		0.603298	0.500000	0.500000	0.000000 
		0.603298	0.500000	0.500000	0.000000 
		0.648620	0.500000	0.500000	0.000000 
		0.648620	0.500000	0.500000	0.000000 
		0.648620	0.500000	0.500000	0.000000 
		0.502518	0.425210	0.500000	0.003922 
		0.500000	0.500000	0.500000	0.003922 
		0.492875	0.499760	0.500000	0.003922 
		0.495393	0.424970	0.500000	0.003922 
		0.492875	0.499760	0.500000	0.003922 
		0.495393	0.424970	0.500000	0.003922 
		0.502518	0.425210	0.500000	0.003922 
		0.500000	0.500000	0.500000	0.003922 
		0.500000	0.500000	0.500000	0.003922 
		0.500000	0.500000	0.500000	0.003922 
		0.492875	0.499760	0.500000	0.003922 
		0.492875	0.499760	0.500000	0.003922 
		0.505037	0.350420	0.500000	0.003922 
		0.505037	0.350420	0.500000	0.003922 
		0.497911	0.350180	0.500000	0.003922 
		0.497911	0.350180	0.500000	0.003922 
		0.497911	0.350180	0.500000	0.003922 
		0.495393	0.424970	0.500000	0.003922 
		0.497911	0.350180	0.500000	0.003922 
		0.505037	0.350420	0.500000	0.003922 
		0.497911	0.350180	0.500000	0.003922 
		0.505037	0.350420	0.500000	0.003922 
		0.502518	0.425210	0.500000	0.003922 
		0.493657	0.381406	0.500000	0.003922 
		0.504956	0.380801	0.500000	0.003922 
		0.498613	0.262207	0.500000	0.003922 
		0.487314	0.262811	0.500000	0.003922 
		0.504956	0.380801	0.500000	0.003922 
		0.498613	0.262207	0.500000	0.003922 
		0.493657	0.381406	0.500000	0.003922 
		0.487314	0.262811	0.500000	0.003922 
		0.487314	0.262811	0.500000	0.003922 
		0.498613	0.262207	0.500000	0.003922 
		0.498613	0.262207	0.500000	0.003922 
		0.487314	0.262811	0.500000	0.003922 
		0.500000	0.500000	0.500000	0.003922 
		0.511299	0.499396	0.500000	0.003922 
		0.511299	0.499396	0.500000	0.003922 
		0.500000	0.500000	0.500000	0.003922 
		0.511299	0.499396	0.500000	0.003922 
		0.511299	0.499396	0.500000	0.003922 
		0.504956	0.380801	0.500000	0.003922 
		0.500000	0.500000	0.500000	0.003922 
		0.511299	0.499396	0.500000	0.003922 
		0.500000	0.500000	0.500000	0.003922 
		0.493657	0.381406	0.500000	0.003922 
		0.603298	0.500000	0.500000	0.000000 
		0.648620	0.500000	0.500000	0.000000 
		0.648620	0.500000	0.500000	0.000000 
		0.648620	0.500000	0.500000	0.000000 
		0.603298	0.500000	0.500000	0.000000 
		0.500000	0.500000	0.500000	0.000000 
		0.500000	0.606404	0.500000	0.000000 
		0.500000	0.606404	0.578206	0.000000 
		0.500000	0.610968	0.642401	0.000000 
		0.500000	0.500000	0.500000	0.000000 
		0.500000	0.500000	0.500000	0.000000 
		0.500000	0.500000	0.500000	0.000000 
		0.500000	0.606404	0.500000	0.000000 
		0.500000	0.500000	0.500000	0.000000 
		0.500000	0.500000	0.500000	0.000000 
		0.500000	0.500000	0.500000	0.000000 
		0.500000	0.500000	0.500000	0.000000 
		0.500000	0.500000	0.500000	0.000000 
		0.500000	0.500000	0.500000	0.000000 
		0.500000	0.500000	0.500000	0.000000 
		0.500000	0.500000	0.500000	0.000000 
		0.500000	0.500000	0.500000	0.000000 
		0.500000	0.500000	0.500000	0.000000 
		0.555335	0.527630	0.500000	0.000000 
		0.500000	0.606404	0.578206	0.000000 
		0.500000	0.500000	0.500000	0.000000 
		0.500000	0.500000	0.500000	0.000000 
		0.500000	0.500000	0.500000	0.000000 
		0.500000	0.500000	0.500000	0.000000 
		0.500000	0.500000	0.500000	0.000000 
		0.500000	0.500000	0.500000	0.000000 
		0.500000	0.500000	0.500000	0.000000 
		0.500000	0.500000	0.500000	0.000000 
		0.500000	0.500000	0.500000	0.000000 
		0.603298	0.500000	0.500000	0.000000 
		0.603298	0.500000	0.500000	0.000000 
		0.500000	0.500000	0.500000	0.000000 
		0.603298	0.500000	0.500000	0.000000 
		0.500000	0.500000	0.500000	0.000000 
		0.603298	0.500000	0.500000	0.000000 
		0.603298	0.500000	0.500000	0.000000 
		0.603298	0.500000	0.500000	0.000000 
		0.500000	0.500000	0.500000	0.000000 
		0.603298	0.500000	0.500000	0.000000 
		0.500000	0.500000	0.500000	0.000000 
		0.500000	0.500000	0.500000	0.000000 
		0.500000	0.500000	0.500000	0.000000 
		0.500000	0.500000	0.500000	0.000000 
		0.500000	0.500000	0.500000	0.000000 
		0.500000	0.500000	0.500000	0.000000 
		0.591089	0.412238	0.500000	0.000000 
		0.500000	0.500000	0.500000	0.000000 
		0.500000	0.500000	0.500000	0.000000 
		0.500000	0.500000	0.500000	0.000000 
		0.500000	0.500000	0.500000	0.000000 
		0.500000	0.500000	0.500000	0.000000 
		0.500000	0.500000	0.500000	0.000000 
		0.500000	0.500000	0.500000	0.000000 
		0.500000	0.500000	0.500000	0.000000 
		0.500000	0.500000	0.500000	0.000000 
		0.500000	0.500000	0.500000	0.000000 
		0.500000	0.500000	0.500000	0.000000 
		0.500000	0.500000	0.500000	0.000000 
		0.500000	0.500000	0.500000	0.000000 
		0.500000	0.500000	0.500000	0.000000 
		0.500000	0.500000	0.500000	0.000000 
		0.500000	0.500000	0.500000	0.000000 
		0.500000	0.500000	0.500000	0.000000 
		0.500000	0.500000	0.500000	0.000000 
		0.500000	0.500000	0.500000	0.000000 
		0.500000	0.500000	0.500000	0.000000 
		0.500000	0.500000	0.500000	0.000000 
		0.500000	0.500000	0.500000	0.000000 
		0.500000	0.500000	0.500000	0.000000 
		0.500000	0.500000	0.500000	0.000000 
		0.500000	0.500000	0.500000	0.000000 
		0.500000	0.500000	0.500000	0.000000 
		0.500000	0.500000	0.500000	0.000000 
		0.500000	0.500000	0.500000	0.000000 
		0.500000	0.500000	0.500000	0.000000 
		0.500000	0.500000	0.500000	0.000000 
		0.500000	0.500000	0.500000	0.000000 
		0.500000	0.500000	0.500000	0.000000 
		0.500000	0.500000	0.500000	0.000000 
		0.500000	0.500000	0.500000	0.000000 
		0.500000	0.500000	0.500000	0.000000 
		0.500000	0.500000	0.500000	0.000000 
		0.500000	0.500000	0.500000	0.000000 
		0.500000	0.500000	0.500000	0.000000 
		0.603298	0.500000	0.500000	0.000000 
		0.500000	0.500000	0.500000	0.000000 
		0.603298	0.500000	0.500000	0.000000 
		0.591089	0.412238	0.500000	0.000000 
		0.500000	0.500000	0.500000	0.000000 
		0.500000	0.500000	0.500000	0.000000 
		0.500000	0.500000	0.500000	0.000000 
		0.558590	0.509415	0.557546	0.000000 
		0.591089	0.412238	0.500000	0.000000 
		0.500000	0.500000	0.500000	0.000000 
		0.708566	0.411988	0.406803	0.000000 
		0.558590	0.509415	0.557546	0.000000 
		0.591089	0.412238	0.500000	0.000000 
		0.500000	0.500000	0.500000	0.000000 
		0.500000	0.500000	0.500000	0.000000 
		0.500000	0.500000	0.500000	0.000000 
		0.603298	0.500000	0.500000	0.000000 
		0.500000	0.500000	0.500000	0.000000 
		0.500000	0.500000	0.500000	0.000000 
	}

	Tex0 322 { 
		0.851563	0.059570 
		0.851563	0.007813 
		0.746094	0.007813 
		0.746094	0.059570 
		0.177734	0.640625 
		0.407227	0.637695 
		0.029297	0.025391 
		0.648438	0.007813 
		0.648438	0.059570 
		0.252930	0.918945 
		0.252930	0.953125 
		0.088867	0.950195 
		0.088867	0.918945 
		0.250000	0.931641 
		0.250000	0.864258 
		0.070313	0.862305 
		0.081055	0.930664 
		0.250000	0.758789 
		0.043945	0.757813 
		0.252930	0.754883 
		0.051758	0.752930 
		0.047852	0.731445 
		0.252930	0.733398 
		0.249023	0.711914 
		0.249023	0.682617 
		0.451172	0.676758 
		0.451172	0.706055 
		0.249023	0.565430 
		0.451172	0.565430 
		0.249023	0.557617 
		0.451172	0.558594 
		0.249023	0.500000 
		0.451172	0.500000 
		0.702148	0.522461 
		0.767578	0.499023 
		0.653320	0.500000 
		0.654297	0.522461 
		0.435547	0.500000 
		0.414063	0.568359 
		0.462891	0.558594 
		0.463867	0.500000 
		0.457031	0.568359 
		0.859375	0.073242 
		0.662109	0.079102 
		0.663086	0.138672 
		0.886719	0.131836 
		0.665039	0.253906 
		0.673828	0.400391 
		0.762695	0.399414 
		0.779297	0.391602 
		0.882813	0.251953 
		0.916016	0.148438 
		0.985352	0.224609 
		0.932617	0.146484 
		0.994141	0.203125 
		0.992188	0.113281 
		0.077148	0.949219 
		0.077148	0.918945 
		0.056641	0.862305 
		0.069336	0.927734 
		0.025391	0.758789 
		0.035156	0.752930 
		0.031250	0.730469 
		0.468750	0.674805 
		0.468750	0.702148 
		0.468750	0.565430 
		0.473633	0.558594 
		0.466797	0.499023 
		0.849609	0.500000 
		0.602539	0.500000 
		0.602539	0.522461 
		0.849609	0.522461 
		0.608398	0.524414 
		0.826172	0.524414 
		0.826172	0.570313 
		0.608398	0.568359 
		0.775391	0.489258 
		0.775391	0.474609 
		0.887695	0.474609 
		0.887695	0.489258 
		0.771484	0.489258 
		0.771484	0.474609 
		0.047852	0.162109 
		0.047852	0.156250 
		0.773438	0.474609 
		0.500977	0.518555 
		0.511719	0.518555 
		0.511719	0.572266 
		0.500977	0.566406 
		0.501953	0.522461 
		0.501953	0.500977 
		0.998047	0.500977 
		0.998047	0.522461 
		0.890625	0.474609 
		0.773438	0.489258 
		0.890625	0.489258 
		0.052734	0.161133 
		0.052734	0.156250 
		0.416016	0.950195 
		0.416016	0.918945 
		0.428711	0.862305 
		0.417969	0.930664 
		0.456055	0.757813 
		0.449219	0.752930 
		0.449219	0.731445 
		0.046875	0.676758 
		0.046875	0.706055 
		0.046875	0.565430 
		0.046875	0.558594 
		0.046875	0.500000 
		0.737305	0.500000 
		0.550781	0.499023 
		0.658203	0.521484 
		0.737305	0.521484 
		0.662109	0.083008 
		0.861328	0.078125 
		0.427734	0.949219 
		0.427734	0.918945 
		0.443359	0.862305 
		0.429688	0.927734 
		0.473633	0.758789 
		0.466797	0.752930 
		0.466797	0.730469 
		0.029297	0.702148 
		0.029297	0.674805 
		0.029297	0.565430 
		0.024414	0.558594 
		0.031250	0.499023 
		0.833008	0.569336 
		0.833008	0.524414 
		0.892578	0.474609 
		0.892578	0.489258 
		0.003906	0.474609 
		0.005859	0.078125 
		0.015625	0.076172 
		0.013672	0.474609 
		0.126953	0.790039 
		0.133789	0.791016 
		0.133789	0.783203 
		0.095703	0.779297 
		0.094727	0.787109 
		0.673828	0.525391 
		0.648438	0.525391 
		0.613281	0.573242 
		0.131836	0.512695 
		0.384766	0.562500 
		0.459961	0.562500 
		0.459961	0.550781 
		0.384766	0.550781 
		0.919922	0.305664 
		0.950195	0.274414 
		0.888672	0.274414 
		0.919922	0.356445 
		0.950195	0.387695 
		0.889648	0.387695 
		0.486328	0.549805 
		0.486328	0.563477 
		0.397461	0.563477 
		0.397461	0.549805 
		0.514648	0.978516 
		0.533203	0.578125 
		0.576172	0.578125 
		0.564453	0.524414 
		0.610352	0.524414 
		0.609375	0.559570 
		0.564453	0.559570 
		0.511719	0.569336 
		0.500000	0.524414 
		0.519531	0.524414 
		0.519531	0.559570 
		0.500000	0.559570 
		0.624023	0.525391 
		0.613281	0.525391 
		0.887695	0.525391 
		0.877930	0.525391 
		0.887695	0.573242 
		0.979492	0.557617 
		0.978516	0.524414 
		0.998047	0.524414 
		0.998047	0.557617 
		0.936523	0.557617 
		0.936523	0.524414 
		0.854492	0.525391 
		0.891602	0.558594 
		0.891602	0.524414 
		0.829102	0.525391 
		0.618164	0.577148 
		0.885742	0.576172 
		0.986328	0.978516 
		0.515625	0.578125 
		0.967773	0.576172 
		0.985352	0.576172 
		0.926758	0.576172 
		0.961914	0.113281 
		0.450195	0.556641 
		0.417969	0.556641 
		0.417969	0.565430 
		0.201172	0.074219 
		0.205078	0.089844 
		0.628906	0.472656 
		0.638672	0.472656 
		0.639648	0.071289 
		0.629883	0.071289 
		0.635742	0.472656 
		0.644531	0.472656 
		0.644531	0.072266 
		0.635742	0.071289 
		0.047852	0.158203 
		0.145508	0.133789 
		0.287109	0.137695 
		0.288086	0.110352 
		0.152344	0.107422 
		0.417969	0.567383 
		0.452148	0.567383 
		0.317383	0.088867 
		0.322266	0.073242 
		0.287109	0.120117 
		0.238281	0.121094 
		0.568359	0.097656 
		0.541016	0.166992 
		0.338867	0.164063 
		0.340820	0.111328 
		0.546875	0.018555 
		0.977539	0.018555 
		0.977539	0.056641 
		0.546875	0.056641 
		0.965820	0.021484 
		0.972656	0.021484 
		0.972656	0.054688 
		0.965820	0.054688 
		0.957031	0.018555 
		0.972656	0.018555 
		0.972656	0.056641 
		0.957031	0.056641 
		0.075195	0.015625 
		0.075195	0.053711 
		0.473633	0.053711 
		0.473633	0.015625 
		0.463867	0.018555 
		0.463867	0.050781 
		0.469727	0.050781 
		0.469727	0.018555 
		0.455078	0.015625 
		0.455078	0.053711 
		0.469727	0.053711 
		0.469727	0.015625 
		0.343750	0.170898 
		0.542969	0.107422 
		0.543945	0.169922 
		0.027344	0.200195 
		0.027344	0.057617 
		-0.002930	0.090820 
		-0.012695	0.469727 
		0.043945	0.200195 
		0.039063	0.051758 
		0.066406	0.052734 
		0.144531	0.200195 
		0.121094	0.052734 
		0.151367	0.057617 
		0.182617	0.200195 
		0.175781	0.079102 
		0.329102	0.937500 
		0.329102	0.000000 
		0.182617	0.738281 
		0.182617	-0.001953 
		0.004883	0.062500 
		0.761719	0.711914 
		0.763672	0.711914 
		0.763672	0.726563 
		0.761719	0.726563 
		0.027344	0.738281 
		0.772461	0.713867 
		0.774414	0.713867 
		0.774414	0.725586 
		0.772461	0.725586 
		0.757813	-0.031250 
		0.930664	-0.031250 
		0.747070	-0.032227 
		0.714844	-0.032227 
		0.744141	0.128906 
		0.666992	-0.032227 
		0.641602	0.128906 
		0.637695	-0.032227 
		0.750977	-0.032227 
		0.757813	0.128906 
		0.633789	-0.032227 
		0.626953	0.128906 
		0.626953	0.809570 
		0.757813	0.809570 
		0.930664	0.967773 
		0.329102	0.949219 
		0.337891	0.967773 
		0.337891	-0.031250 
		0.329102	-0.012695 
		-0.002930	0.848633 
		0.027344	0.880859 
		0.039063	0.886719 
		0.043945	0.738281 
		0.066406	0.885742 
		0.121094	0.885742 
		0.144531	0.738281 
		0.151367	0.880859 
		0.174805	0.861328 
		0.182617	0.939453 
		0.004883	0.876953 
		0.757813	0.967773 
		0.747070	0.967773 
		0.744141	0.809570 
		0.714844	0.967773 
		0.641602	0.809570 
		0.666992	0.967773 
		0.637695	0.967773 
		0.750000	0.967773 
		0.626953	0.967773 
		0.633789	0.967773 
		0.626953	-0.031250 
		0.930664	0.947266 
		0.987305	0.948242 
		0.930664	-0.010742 
		0.987305	-0.011719 
		0.182617	0.084961 
		0.182617	0.854492 
	}

	Tex1 0 
	Adj 609 { 
		P 0 
		N 0 
		C0 0 
		T0 0 
		P 1 
		N 0 
		C0 1 
		T0 1 
		P 2 
		N 0 
		C0 2 
		T0 2 
		P 3 
		N 0 
		C0 3 
		T0 3 
		P 4 
		N 0 
		C0 4 
		T0 0 
		P 5 
		N 0 
		C0 5 
		T0 1 
		P 6 
		N 0 
		C0 6 
		T0 2 
		P 7 
		N 0 
		C0 7 
		T0 3 
		P 8 
		N 0 
		C0 8 
		T0 0 
		P 9 
		N 0 
		C0 9 
		T0 1 
		P 10 
		N 0 
		C0 10 
		T0 2 
		P 11 
		N 0 
		C0 11 
		T0 3 
		P 12 
		N 0 
		C0 12 
		T0 0 
		P 13 
		N 0 
		C0 13 
		T0 1 
		P 14 
		N 0 
		C0 14 
		T0 2 
		P 15 
		N 0 
		C0 15 
		T0 3 
		P 16 
		N 0 
		C0 16 
		T0 0 
		P 17 
		N 0 
		C0 17 
		T0 1 
		P 18 
		N 0 
		C0 18 
		T0 2 
		P 19 
		N 0 
		C0 19 
		T0 3 
		P 20 
		N 1 
		C0 20 
		T0 4 
		P 21 
		N 1 
		C0 21 
		T0 4 
		P 22 
		N 1 
		C0 22 
		T0 4 
		P 23 
		N 1 
		C0 23 
		T0 4 
		P 24 
		N 1 
		C0 24 
		T0 4 
		P 25 
		N 1 
		C0 25 
		T0 4 
		P 20 
		N 0 
		C0 26 
		T0 4 
		P 23 
		N 0 
		C0 27 
		T0 4 
		P 26 
		N 0 
		C0 28 
		T0 4 
		P 27 
		N 0 
		C0 29 
		T0 4 
		P 25 
		N 0 
		C0 30 
		T0 4 
		P 28 
		N 0 
		C0 31 
		T0 4 
		P 24 
		N 2 
		C0 32 
		T0 4 
		P 22 
		N 2 
		C0 33 
		T0 4 
		P 29 
		N 2 
		C0 34 
		T0 4 
		P 30 
		N 2 
		C0 35 
		T0 4 
		P 21 
		N 2 
		C0 36 
		T0 4 
		P 31 
		N 2 
		C0 37 
		T0 4 
		P 25 
		N 3 
		C0 38 
		T0 4 
		P 24 
		N 3 
		C0 39 
		T0 4 
		P 32 
		N 3 
		C0 40 
		T0 4 
		P 33 
		N 3 
		C0 41 
		T0 4 
		P 27 
		N 4 
		C0 42 
		T0 4 
		P 31 
		N 4 
		C0 43 
		T0 4 
		P 34 
		N 4 
		C0 44 
		T0 4 
		P 35 
		N 4 
		C0 45 
		T0 4 
		P 30 
		N 5 
		C0 46 
		T0 4 
		P 28 
		N 5 
		C0 47 
		T0 4 
		P 36 
		N 5 
		C0 48 
		T0 4 
		P 37 
		N 5 
		C0 49 
		T0 4 
		P 20 
		N 6 
		C0 50 
		T0 4 
		P 27 
		N 6 
		C0 51 
		T0 4 
		P 35 
		N 6 
		C0 52 
		T0 4 
		P 28 
		N 7 
		C0 53 
		T0 4 
		P 25 
		N 7 
		C0 54 
		T0 4 
		P 33 
		N 7 
		C0 55 
		T0 4 
		P 33 
		N 8 
		C0 56 
		T0 4 
		P 36 
		N 8 
		C0 57 
		T0 4 
		P 28 
		N 8 
		C0 58 
		T0 4 
		P 24 
		N 9 
		C0 59 
		T0 4 
		P 30 
		N 9 
		C0 60 
		T0 4 
		P 37 
		N 9 
		C0 61 
		T0 4 
		P 37 
		N 10 
		C0 62 
		T0 4 
		P 32 
		N 10 
		C0 63 
		T0 4 
		P 24 
		N 10 
		C0 64 
		T0 4 
		P 31 
		N 11 
		C0 65 
		T0 4 
		P 21 
		N 11 
		C0 66 
		T0 4 
		P 38 
		N 11 
		C0 67 
		T0 4 
		P 38 
		N 12 
		C0 68 
		T0 4 
		P 34 
		N 12 
		C0 69 
		T0 4 
		P 31 
		N 12 
		C0 70 
		T0 4 
		P 1 
		N 13 
		C0 71 
		T0 5 
		P 39 
		N 13 
		C0 72 
		T0 5 
		P 40 
		N 13 
		C0 73 
		T0 5 
		P 18 
		N 13 
		C0 74 
		T0 5 
		P 0 
		N 14 
		C0 75 
		T0 5 
		P 19 
		N 14 
		C0 76 
		T0 5 
		P 41 
		N 14 
		C0 77 
		T0 5 
		P 42 
		N 14 
		C0 78 
		T0 5 
		P 18 
		N 15 
		C0 79 
		T0 5 
		P 40 
		N 15 
		C0 80 
		T0 5 
		P 41 
		N 15 
		C0 81 
		T0 5 
		P 19 
		N 15 
		C0 82 
		T0 5 
		P 40 
		N 2 
		C0 83 
		T0 5 
		P 39 
		N 2 
		C0 84 
		T0 5 
		P 42 
		N 2 
		C0 85 
		T0 5 
		P 41 
		N 2 
		C0 86 
		T0 5 
		P 39 
		N 16 
		C0 87 
		T0 5 
		P 1 
		N 16 
		C0 88 
		T0 5 
		P 0 
		N 16 
		C0 89 
		T0 5 
		P 42 
		N 16 
		C0 90 
		T0 5 
		P 43 
		N 17 
		C0 91 
		T0 6 
		P 44 
		N 17 
		C0 92 
		T0 6 
		P 45 
		N 17 
		C0 93 
		T0 6 
		P 46 
		N 17 
		C0 94 
		T0 6 
		P 47 
		N 18 
		C0 95 
		T0 6 
		P 48 
		N 18 
		C0 96 
		T0 6 
		P 49 
		N 18 
		C0 97 
		T0 6 
		P 50 
		N 18 
		C0 98 
		T0 6 
		P 43 
		N 1 
		C0 99 
		T0 6 
		P 46 
		N 1 
		C0 100 
		T0 6 
		P 48 
		N 1 
		C0 101 
		T0 6 
		P 47 
		N 1 
		C0 102 
		T0 6 
		P 46 
		N 19 
		C0 103 
		T0 6 
		P 45 
		N 19 
		C0 104 
		T0 6 
		P 49 
		N 19 
		C0 105 
		T0 6 
		P 48 
		N 19 
		C0 106 
		T0 6 
		P 44 
		N 20 
		C0 107 
		T0 6 
		P 43 
		N 20 
		C0 108 
		T0 6 
		P 47 
		N 20 
		C0 109 
		T0 6 
		P 50 
		N 20 
		C0 110 
		T0 6 
		P 5 
		N 0 
		C0 111 
		T0 7 
		P 4 
		N 0 
		C0 112 
		T0 8 
		P 9 
		N 0 
		C0 113 
		T0 7 
		P 8 
		N 0 
		C0 114 
		T0 8 
		P 13 
		N 0 
		C0 115 
		T0 7 
		P 12 
		N 0 
		C0 116 
		T0 8 
		P 17 
		N 0 
		C0 117 
		T0 7 
		P 16 
		N 0 
		C0 118 
		T0 8 
		P 45 
		N 21 
		C0 119 
		T0 6 
		P 44 
		N 21 
		C0 120 
		T0 6 
		P 51 
		N 21 
		C0 121 
		T0 6 
		P 52 
		N 21 
		C0 122 
		T0 6 
		P 50 
		N 22 
		C0 123 
		T0 6 
		P 49 
		N 22 
		C0 124 
		T0 6 
		P 53 
		N 22 
		C0 125 
		T0 6 
		P 54 
		N 22 
		C0 126 
		T0 6 
		P 49 
		N 23 
		C0 127 
		T0 6 
		P 45 
		N 23 
		C0 128 
		T0 6 
		P 52 
		N 23 
		C0 129 
		T0 6 
		P 53 
		N 23 
		C0 130 
		T0 6 
		P 44 
		N 24 
		C0 131 
		T0 6 
		P 50 
		N 24 
		C0 132 
		T0 6 
		P 54 
		N 24 
		C0 133 
		T0 6 
		P 51 
		N 24 
		C0 134 
		T0 6 
		P 52 
		N 25 
		C0 135 
		T0 6 
		P 51 
		N 25 
		C0 136 
		T0 6 
		P 54 
		N 25 
		C0 137 
		T0 6 
		P 53 
		N 25 
		C0 138 
		T0 6 
		P 55 
		N 25 
		C0 139 
		T0 9 
		P 56 
		N 25 
		C0 140 
		T0 10 
		P 57 
		N 26 
		C0 141 
		T0 11 
		P 58 
		N 26 
		C0 142 
		T0 12 
		P 56 
		N 25 
		C0 143 
		T0 13 
		P 59 
		N 27 
		C0 144 
		T0 14 
		P 60 
		N 28 
		C0 145 
		T0 15 
		P 57 
		N 26 
		C0 146 
		T0 16 
		P 61 
		N 29 
		C0 147 
		T0 17 
		P 62 
		N 30 
		C0 148 
		T0 18 
		P 63 
		N 31 
		C0 149 
		T0 19 
		P 64 
		N 32 
		C0 150 
		T0 20 
		P 62 
		N 30 
		C0 151 
		T0 21 
		P 61 
		N 29 
		C0 152 
		T0 22 
		P 63 
		N 31 
		C0 153 
		T0 23 
		P 65 
		N 33 
		C0 154 
		T0 24 
		P 66 
		N 34 
		C0 155 
		T0 25 
		P 64 
		N 32 
		C0 156 
		T0 26 
		P 67 
		N 35 
		C0 157 
		T0 27 
		P 68 
		N 36 
		C0 158 
		T0 28 
		P 69 
		N 37 
		C0 159 
		T0 29 
		P 70 
		N 38 
		C0 160 
		T0 30 
		P 71 
		N 39 
		C0 161 
		T0 31 
		P 72 
		N 40 
		C0 162 
		T0 32 
		P 73 
		N 41 
		C0 163 
		T0 33 
		P 74 
		N 42 
		C0 164 
		T0 34 
		P 75 
		N 39 
		C0 165 
		T0 35 
		P 76 
		N 39 
		C0 166 
		T0 36 
		P 77 
		N 43 
		C0 167 
		T0 37 
		P 78 
		N 44 
		C0 168 
		T0 38 
		P 79 
		N 45 
		C0 169 
		T0 39 
		P 80 
		N 46 
		C0 170 
		T0 40 
		P 81 
		N 47 
		C0 171 
		T0 41 
		P 82 
		N 48 
		C0 172 
		T0 42 
		P 83 
		N 48 
		C0 173 
		T0 43 
		P 84 
		N 49 
		C0 174 
		T0 44 
		P 85 
		N 50 
		C0 175 
		T0 45 
		P 86 
		N 51 
		C0 176 
		T0 46 
		P 87 
		N 52 
		C0 177 
		T0 47 
		P 88 
		N 53 
		C0 178 
		T0 48 
		P 89 
		N 54 
		C0 179 
		T0 49 
		P 90 
		N 55 
		C0 180 
		T0 50 
		P 91 
		N 56 
		C0 181 
		T0 51 
		P 92 
		N 57 
		C0 182 
		T0 52 
		P 93 
		N 58 
		C0 183 
		T0 53 
		P 94 
		N 59 
		C0 184 
		T0 54 
		P 81 
		N 47 
		C0 185 
		T0 55 
		P 88 
		N 53 
		C0 186 
		T0 56 
		P 87 
		N 52 
		C0 187 
		T0 57 
		P 89 
		N 54 
		C0 188 
		T0 58 
		P 88 
		N 53 
		C0 189 
		T0 59 
		P 90 
		N 55 
		C0 190 
		T0 60 
		P 92 
		N 57 
		C0 191 
		T0 61 
		P 90 
		N 55 
		C0 192 
		T0 62 
		P 94 
		N 59 
		C0 193 
		T0 63 
		P 92 
		N 57 
		C0 194 
		T0 64 
		P 81 
		N 47 
		C0 195 
		T0 65 
		P 79 
		N 45 
		C0 196 
		T0 66 
		P 80 
		N 46 
		C0 197 
		T0 67 
		P 75 
		N 39 
		C0 198 
		T0 68 
		P 95 
		N 60 
		C0 199 
		T0 69 
		P 96 
		N 61 
		C0 200 
		T0 70 
		P 76 
		N 39 
		C0 201 
		T0 71 
		P 97 
		N 14 
		C0 202 
		T0 72 
		P 73 
		N 41 
		C0 203 
		T0 73 
		P 76 
		N 39 
		C0 204 
		T0 74 
		P 96 
		N 61 
		C0 205 
		T0 75 
		P 98 
		N 62 
		C0 206 
		T0 76 
		P 99 
		N 63 
		C0 207 
		T0 77 
		P 100 
		N 64 
		C0 208 
		T0 78 
		P 101 
		N 65 
		C0 209 
		T0 79 
		P 102 
		N 66 
		C0 210 
		T0 80 
		P 103 
		N 67 
		C0 211 
		T0 81 
		P 104 
		N 15 
		C0 212 
		T0 82 
		P 105 
		N 68 
		C0 213 
		T0 82 
		P 106 
		N 68 
		C0 214 
		T0 83 
		P 107 
		N 15 
		C0 215 
		T0 83 
		P 108 
		N 69 
		C0 216 
		T0 84 
		P 109 
		N 70 
		C0 217 
		T0 85 
		P 110 
		N 71 
		C0 218 
		T0 86 
		P 111 
		N 72 
		C0 219 
		T0 87 
		P 112 
		N 73 
		C0 220 
		T0 88 
		P 113 
		N 74 
		C0 221 
		T0 89 
		P 114 
		N 74 
		C0 222 
		T0 90 
		P 115 
		N 74 
		C0 223 
		T0 91 
		P 116 
		N 74 
		C0 224 
		T0 92 
		P 117 
		N 75 
		C0 225 
		T0 93 
		P 118 
		N 76 
		C0 226 
		T0 94 
		P 119 
		N 77 
		C0 227 
		T0 82 
		P 120 
		N 78 
		C0 228 
		T0 83 
		P 121 
		N 79 
		C0 229 
		T0 95 
		P 122 
		N 80 
		C0 230 
		T0 96 
		P 123 
		N 80 
		C0 231 
		T0 97 
		P 124 
		N 81 
		C0 232 
		T0 98 
		P 125 
		N 81 
		C0 233 
		T0 99 
		P 126 
		N 82 
		C0 234 
		T0 100 
		P 124 
		N 81 
		C0 235 
		T0 101 
		P 127 
		N 83 
		C0 236 
		T0 102 
		P 128 
		N 84 
		C0 237 
		T0 103 
		P 127 
		N 83 
		C0 238 
		T0 104 
		P 129 
		N 85 
		C0 239 
		T0 105 
		P 128 
		N 84 
		C0 240 
		T0 106 
		P 130 
		N 86 
		C0 241 
		T0 107 
		P 131 
		N 87 
		C0 242 
		T0 108 
		P 132 
		N 88 
		C0 243 
		T0 109 
		P 133 
		N 39 
		C0 244 
		T0 110 
		P 134 
		N 89 
		C0 245 
		T0 111 
		P 135 
		N 90 
		C0 246 
		T0 112 
		P 136 
		N 39 
		C0 247 
		T0 113 
		P 137 
		N 91 
		C0 248 
		T0 37 
		P 138 
		N 92 
		C0 249 
		T0 40 
		P 139 
		N 93 
		C0 250 
		T0 39 
		P 140 
		N 94 
		C0 251 
		T0 38 
		P 141 
		N 95 
		C0 252 
		T0 41 
		P 142 
		N 96 
		C0 253 
		T0 44 
		P 143 
		N 97 
		C0 254 
		T0 114 
		P 144 
		N 97 
		C0 255 
		T0 115 
		P 145 
		N 98 
		C0 256 
		T0 45 
		P 146 
		N 99 
		C0 257 
		T0 46 
		P 147 
		N 100 
		C0 258 
		T0 48 
		P 148 
		N 101 
		C0 259 
		T0 47 
		P 149 
		N 102 
		C0 260 
		T0 49 
		P 150 
		N 103 
		C0 261 
		T0 50 
		P 151 
		N 104 
		C0 262 
		T0 51 
		P 152 
		N 105 
		C0 263 
		T0 53 
		P 153 
		N 106 
		C0 264 
		T0 52 
		P 154 
		N 107 
		C0 265 
		T0 54 
		P 141 
		N 95 
		C0 266 
		T0 55 
		P 147 
		N 100 
		C0 267 
		T0 116 
		P 148 
		N 101 
		C0 268 
		T0 117 
		P 149 
		N 102 
		C0 269 
		T0 118 
		P 147 
		N 100 
		C0 270 
		T0 119 
		P 150 
		N 103 
		C0 271 
		T0 120 
		P 153 
		N 106 
		C0 272 
		T0 121 
		P 150 
		N 103 
		C0 273 
		T0 122 
		P 153 
		N 106 
		C0 274 
		T0 123 
		P 154 
		N 107 
		C0 275 
		T0 124 
		P 141 
		N 95 
		C0 276 
		T0 125 
		P 139 
		N 93 
		C0 277 
		T0 126 
		P 138 
		N 92 
		C0 278 
		T0 127 
		P 155 
		N 16 
		C0 279 
		T0 70 
		P 156 
		N 16 
		C0 280 
		T0 69 
		P 133 
		N 39 
		C0 281 
		T0 68 
		P 136 
		N 39 
		C0 282 
		T0 71 
		P 136 
		N 39 
		C0 283 
		T0 128 
		P 135 
		N 90 
		C0 284 
		T0 129 
		P 157 
		N 108 
		C0 285 
		T0 72 
		P 155 
		N 16 
		C0 286 
		T0 75 
		P 158 
		N 109 
		C0 287 
		T0 130 
		P 159 
		N 110 
		C0 288 
		T0 131 
		P 160 
		N 111 
		C0 289 
		T0 97 
		P 161 
		N 112 
		C0 290 
		T0 96 
		P 162 
		N 16 
		C0 291 
		T0 96 
		P 163 
		N 16 
		C0 292 
		T0 97 
		P 117 
		N 75 
		C0 293 
		T0 132 
		P 164 
		N 113 
		C0 294 
		T0 133 
		P 165 
		N 114 
		C0 295 
		T0 134 
		P 158 
		N 109 
		C0 296 
		T0 135 
		P 110 
		N 115 
		C0 297 
		T0 136 
		P 109 
		N 115 
		C0 298 
		T0 137 
		P 166 
		N 115 
		C0 299 
		T0 138 
		P 114 
		N 116 
		C0 300 
		T0 139 
		P 113 
		N 116 
		C0 301 
		T0 140 
		P 110 
		N 116 
		C0 302 
		T0 136 
		P 166 
		N 116 
		C0 303 
		T0 138 
		P 167 
		N 117 
		C0 304 
		T0 141 
		P 168 
		N 117 
		C0 305 
		T0 142 
		P 113 
		N 117 
		C0 306 
		T0 143 
		P 169 
		N 16 
		C0 307 
		T0 138 
		P 170 
		N 16 
		C0 308 
		T0 136 
		P 116 
		N 16 
		C0 309 
		T0 140 
		P 115 
		N 16 
		C0 310 
		T0 139 
		P 170 
		N 118 
		C0 311 
		T0 136 
		P 169 
		N 118 
		C0 312 
		T0 138 
		P 171 
		N 118 
		C0 313 
		T0 137 
		P 172 
		N 119 
		C0 314 
		T0 144 
		P 173 
		N 120 
		C0 315 
		T0 144 
		P 174 
		N 121 
		C0 316 
		T0 144 
		P 175 
		N 122 
		C0 317 
		T0 144 
		P 176 
		N 123 
		C0 318 
		T0 144 
		P 177 
		N 124 
		C0 319 
		T0 144 
		P 178 
		N 119 
		C0 320 
		T0 144 
		P 179 
		N 125 
		C0 321 
		T0 144 
		P 180 
		N 126 
		C0 322 
		T0 144 
		P 181 
		N 127 
		C0 323 
		T0 144 
		P 182 
		N 128 
		C0 324 
		T0 144 
		P 183 
		N 129 
		C0 325 
		T0 144 
		P 177 
		N 130 
		C0 326 
		T0 144 
		P 174 
		N 130 
		C0 327 
		T0 144 
		P 173 
		N 130 
		C0 328 
		T0 144 
		P 183 
		N 131 
		C0 329 
		T0 144 
		P 181 
		N 131 
		C0 330 
		T0 144 
		P 182 
		N 131 
		C0 331 
		T0 144 
		P 184 
		N 132 
		C0 332 
		T0 145 
		P 185 
		N 132 
		C0 333 
		T0 146 
		P 186 
		N 132 
		C0 334 
		T0 147 
		P 187 
		N 132 
		C0 335 
		T0 148 
		P 188 
		N 133 
		C0 336 
		T0 149 
		P 187 
		N 134 
		C0 337 
		T0 150 
		P 186 
		N 135 
		C0 338 
		T0 151 
		P 189 
		N 136 
		C0 339 
		T0 152 
		P 184 
		N 137 
		C0 340 
		T0 153 
		P 185 
		N 138 
		C0 341 
		T0 154 
		P 190 
		N 139 
		C0 342 
		T0 144 
		P 191 
		N 140 
		C0 343 
		T0 144 
		P 192 
		N 141 
		C0 344 
		T0 144 
		P 193 
		N 142 
		C0 345 
		T0 144 
		P 194 
		N 143 
		C0 346 
		T0 144 
		P 195 
		N 144 
		C0 347 
		T0 144 
		P 196 
		N 141 
		C0 348 
		T0 144 
		P 197 
		N 145 
		C0 349 
		T0 144 
		P 198 
		N 146 
		C0 350 
		T0 144 
		P 199 
		N 147 
		C0 351 
		T0 144 
		P 200 
		N 148 
		C0 352 
		T0 144 
		P 201 
		N 149 
		C0 353 
		T0 144 
		P 194 
		N 130 
		C0 354 
		T0 144 
		P 191 
		N 130 
		C0 355 
		T0 144 
		P 190 
		N 130 
		C0 356 
		T0 144 
		P 201 
		N 131 
		C0 357 
		T0 144 
		P 200 
		N 131 
		C0 358 
		T0 144 
		P 199 
		N 131 
		C0 359 
		T0 144 
		P 202 
		N 150 
		C0 360 
		T0 155 
		P 203 
		N 150 
		C0 361 
		T0 156 
		P 204 
		N 150 
		C0 362 
		T0 157 
		P 205 
		N 150 
		C0 363 
		T0 158 
		P 202 
		N 151 
		C0 364 
		T0 150 
		P 205 
		N 152 
		C0 365 
		T0 151 
		P 206 
		N 153 
		C0 366 
		T0 149 
		P 204 
		N 154 
		C0 367 
		T0 154 
		P 207 
		N 155 
		C0 368 
		T0 152 
		P 203 
		N 156 
		C0 369 
		T0 153 
		P 108 
		N 69 
		C0 370 
		T0 159 
		P 208 
		N 74 
		C0 371 
		T0 160 
		P 209 
		N 74 
		C0 372 
		T0 161 
		P 168 
		N 74 
		C0 373 
		T0 162 
		P 167 
		N 74 
		C0 374 
		T0 163 
		P 210 
		N 74 
		C0 375 
		T0 164 
		P 209 
		N 74 
		C0 376 
		T0 165 
		P 171 
		N 114 
		C0 377 
		T0 85 
		P 164 
		N 113 
		C0 378 
		T0 166 
		P 170 
		N 157 
		C0 379 
		T0 86 
		P 111 
		N 72 
		C0 380 
		T0 133 
		P 108 
		N 69 
		C0 381 
		T0 132 
		P 103 
		N 67 
		C0 382 
		T0 135 
		P 112 
		N 73 
		C0 383 
		T0 134 
		P 110 
		N 71 
		C0 384 
		T0 167 
		P 211 
		N 74 
		C0 385 
		T0 168 
		P 208 
		N 74 
		C0 386 
		T0 169 
		P 111 
		N 72 
		C0 387 
		T0 170 
		P 211 
		N 117 
		C0 388 
		T0 171 
		P 110 
		N 117 
		C0 389 
		T0 172 
		P 170 
		N 117 
		C0 390 
		T0 173 
		P 212 
		N 117 
		C0 391 
		T0 174 
		P 116 
		N 117 
		C0 392 
		T0 175 
		P 213 
		N 74 
		C0 393 
		T0 176 
		P 212 
		N 74 
		C0 394 
		T0 177 
		P 170 
		N 157 
		C0 395 
		T0 178 
		P 164 
		N 113 
		C0 396 
		T0 179 
		P 214 
		N 74 
		C0 397 
		T0 180 
		P 215 
		N 74 
		C0 398 
		T0 181 
		P 215 
		N 117 
		C0 399 
		T0 182 
		P 216 
		N 74 
		C0 400 
		T0 183 
		P 217 
		N 74 
		C0 401 
		T0 184 
		P 217 
		N 117 
		C0 402 
		T0 185 
		P 210 
		N 74 
		C0 403 
		T0 186 
		P 216 
		N 74 
		C0 404 
		T0 187 
		P 117 
		N 75 
		C0 405 
		T0 188 
		P 111 
		N 72 
		C0 406 
		T0 189 
		P 213 
		N 74 
		C0 407 
		T0 190 
		P 164 
		N 113 
		C0 408 
		T0 191 
		P 214 
		N 74 
		C0 409 
		T0 192 
		P 78 
		N 44 
		C0 410 
		T0 193 
		P 140 
		N 94 
		C0 411 
		T0 193 
		P 73 
		N 48 
		C0 412 
		T0 194 
		P 97 
		N 48 
		C0 413 
		T0 195 
		P 83 
		N 48 
		C0 414 
		T0 196 
		P 82 
		N 48 
		C0 415 
		T0 28 
		P 218 
		N 15 
		C0 416 
		T0 197 
		P 219 
		N 15 
		C0 417 
		T0 198 
		P 102 
		N 66 
		C0 418 
		T0 199 
		P 118 
		N 76 
		C0 419 
		T0 200 
		P 119 
		N 77 
		C0 420 
		T0 201 
		P 105 
		N 68 
		C0 421 
		T0 202 
		P 118 
		N 76 
		C0 422 
		T0 203 
		P 121 
		N 79 
		C0 423 
		T0 204 
		P 122 
		N 80 
		C0 424 
		T0 205 
		P 119 
		N 77 
		C0 425 
		T0 206 
		P 112 
		N 73 
		C0 426 
		T0 82 
		P 218 
		N 15 
		C0 427 
		T0 82 
		P 220 
		N 15 
		C0 428 
		T0 83 
		P 109 
		N 70 
		C0 429 
		T0 207 
		P 165 
		N 114 
		C0 430 
		T0 88 
		P 221 
		N 16 
		C0 431 
		T0 208 
		P 165 
		N 114 
		C0 432 
		T0 209 
		P 171 
		N 114 
		C0 433 
		T0 210 
		P 222 
		N 16 
		C0 434 
		T0 211 
		P 143 
		N 97 
		C0 435 
		T0 212 
		P 157 
		N 97 
		C0 436 
		T0 195 
		P 135 
		N 97 
		C0 437 
		T0 194 
		P 144 
		N 97 
		C0 438 
		T0 213 
		P 223 
		N 16 
		C0 439 
		T0 198 
		P 221 
		N 16 
		C0 440 
		T0 197 
		P 224 
		N 16 
		C0 441 
		T0 214 
		P 162 
		N 16 
		C0 442 
		T0 215 
		P 161 
		N 112 
		C0 443 
		T0 202 
		P 225 
		N 16 
		C0 444 
		T0 216 
		P 159 
		N 110 
		C0 445 
		T0 199 
		P 226 
		N 16 
		C0 446 
		T0 217 
		P 122 
		N 80 
		C0 447 
		T0 201 
		P 121 
		N 79 
		C0 448 
		T0 200 
		P 227 
		N 15 
		C0 449 
		T0 214 
		P 104 
		N 15 
		C0 450 
		T0 215 
		P 227 
		N 15 
		C0 451 
		T0 218 
		P 228 
		N 15 
		C0 452 
		T0 219 
		P 229 
		N 15 
		C0 453 
		T0 220 
		P 230 
		N 15 
		C0 454 
		T0 221 
		P 231 
		N 158 
		C0 455 
		T0 222 
		P 232 
		N 159 
		C0 456 
		T0 223 
		P 233 
		N 160 
		C0 457 
		T0 224 
		P 234 
		N 161 
		C0 458 
		T0 225 
		P 235 
		N 162 
		C0 459 
		T0 224 
		P 236 
		N 130 
		C0 460 
		T0 225 
		P 237 
		N 131 
		C0 461 
		T0 222 
		P 238 
		N 163 
		C0 462 
		T0 223 
		P 232 
		N 159 
		C0 463 
		T0 226 
		P 238 
		N 163 
		C0 464 
		T0 227 
		P 235 
		N 162 
		C0 465 
		T0 228 
		P 233 
		N 160 
		C0 466 
		T0 229 
		P 239 
		N 164 
		C0 467 
		T0 230 
		P 240 
		N 165 
		C0 468 
		T0 231 
		P 241 
		N 166 
		C0 469 
		T0 232 
		P 242 
		N 167 
		C0 470 
		T0 233 
		P 241 
		N 166 
		C0 471 
		T0 223 
		P 234 
		N 161 
		C0 472 
		T0 222 
		P 242 
		N 167 
		C0 473 
		T0 224 
		P 240 
		N 165 
		C0 474 
		T0 223 
		P 241 
		N 166 
		C0 475 
		T0 224 
		P 239 
		N 164 
		C0 476 
		T0 224 
		P 237 
		N 131 
		C0 477 
		T0 225 
		P 243 
		N 168 
		C0 478 
		T0 234 
		P 244 
		N 169 
		C0 479 
		T0 235 
		P 245 
		N 170 
		C0 480 
		T0 236 
		P 246 
		N 171 
		C0 481 
		T0 237 
		P 247 
		N 130 
		C0 482 
		T0 235 
		P 248 
		N 162 
		C0 483 
		T0 236 
		P 249 
		N 131 
		C0 484 
		T0 234 
		P 250 
		N 163 
		C0 485 
		T0 237 
		P 246 
		N 171 
		C0 486 
		T0 238 
		P 245 
		N 170 
		C0 487 
		T0 239 
		P 248 
		N 162 
		C0 488 
		T0 240 
		P 250 
		N 163 
		C0 489 
		T0 241 
		P 251 
		N 164 
		C0 490 
		T0 242 
		P 252 
		N 167 
		C0 491 
		T0 243 
		P 253 
		N 172 
		C0 492 
		T0 244 
		P 254 
		N 173 
		C0 493 
		T0 245 
		P 253 
		N 172 
		C0 494 
		T0 237 
		P 252 
		N 167 
		C0 495 
		T0 236 
		P 244 
		N 169 
		C0 496 
		T0 234 
		P 254 
		N 173 
		C0 497 
		T0 237 
		P 253 
		N 172 
		C0 498 
		T0 236 
		P 251 
		N 164 
		C0 499 
		T0 236 
		P 249 
		N 131 
		C0 500 
		T0 235 
		P 255 
		N 15 
		C0 501 
		T0 216 
		P 228 
		N 15 
		C0 502 
		T0 246 
		P 230 
		N 15 
		C0 503 
		T0 247 
		P 229 
		N 15 
		C0 504 
		T0 248 
		P 256 
		N 15 
		C0 505 
		T0 217 
		P 257 
		N 174 
		C0 506 
		T0 249 
		P 77 
		N 175 
		C0 507 
		T0 250 
		P 72 
		N 176 
		C0 508 
		T0 251 
		P 71 
		N 177 
		C0 509 
		T0 252 
		P 257 
		N 178 
		C0 510 
		T0 249 
		P 258 
		N 179 
		C0 511 
		T0 253 
		P 78 
		N 180 
		C0 512 
		T0 254 
		P 77 
		N 178 
		C0 513 
		T0 250 
		P 93 
		N 181 
		C0 514 
		T0 255 
		P 259 
		N 182 
		C0 515 
		T0 256 
		P 91 
		N 183 
		C0 516 
		T0 257 
		P 85 
		N 184 
		C0 517 
		T0 258 
		P 74 
		N 42 
		C0 518 
		T0 259 
		P 82 
		N 185 
		C0 519 
		T0 260 
		P 156 
		N 186 
		C0 520 
		T0 261 
		P 95 
		N 186 
		C0 521 
		T0 262 
		P 74 
		N 13 
		C0 522 
		T0 259 
		P 134 
		N 186 
		C0 523 
		T0 263 
		P 75 
		N 186 
		C0 524 
		T0 264 
		P 80 
		N 187 
		C0 525 
		T0 265 
		P 257 
		N 15 
		C0 526 
		T0 266 
		P 74 
		N 15 
		C0 527 
		T0 267 
		P 259 
		N 15 
		C0 528 
		T0 268 
		P 258 
		N 15 
		C0 529 
		T0 269 
		P 260 
		N 188 
		C0 530 
		T0 270 
		P 261 
		N 15 
		C0 531 
		T0 271 
		P 262 
		N 15 
		C0 532 
		T0 272 
		P 263 
		N 15 
		C0 533 
		T0 273 
		P 264 
		N 15 
		C0 534 
		T0 274 
		P 219 
		N 189 
		C0 535 
		T0 277 
		P 256 
		N 190 
		C0 536 
		T0 278 
		P 263 
		N 191 
		C0 537 
		T0 279 
		P 255 
		N 192 
		C0 538 
		T0 280 
		P 264 
		N 193 
		C0 539 
		T0 281 
		P 227 
		N 194 
		C0 540 
		T0 282 
		P 220 
		N 195 
		C0 541 
		T0 275 
		P 218 
		N 196 
		C0 542 
		T0 283 
		P 262 
		N 197 
		C0 543 
		T0 284 
		P 104 
		N 198 
		C0 544 
		T0 285 
		P 261 
		N 199 
		C0 545 
		T0 286 
		P 265 
		N 186 
		C0 546 
		T0 287 
		P 266 
		N 186 
		C0 547 
		T0 288 
		P 262 
		N 186 
		C0 548 
		T0 284 
		P 261 
		N 186 
		C0 549 
		T0 286 
		P 171 
		N 186 
		C0 550 
		T0 289 
		P 109 
		N 186 
		C0 551 
		T0 276 
		P 123 
		N 186 
		C0 552 
		T0 290 
		P 160 
		N 186 
		C0 553 
		T0 291 
		P 106 
		N 186 
		C0 554 
		T0 292 
		P 120 
		N 186 
		C0 555 
		T0 293 
		P 132 
		N 200 
		C0 556 
		T0 294 
		P 137 
		N 201 
		C0 557 
		T0 295 
		P 140 
		N 202 
		C0 558 
		T0 296 
		P 267 
		N 203 
		C0 559 
		T0 297 
		P 260 
		N 178 
		C0 560 
		T0 270 
		P 137 
		N 178 
		C0 561 
		T0 295 
		P 152 
		N 204 
		C0 562 
		T0 298 
		P 151 
		N 205 
		C0 563 
		T0 299 
		P 268 
		N 206 
		C0 564 
		T0 300 
		P 145 
		N 207 
		C0 565 
		T0 301 
		P 144 
		N 208 
		C0 566 
		T0 302 
		P 134 
		N 89 
		C0 567 
		T0 263 
		P 133 
		N 186 
		C0 568 
		T0 303 
		P 138 
		N 209 
		C0 569 
		T0 304 
		P 268 
		N 16 
		C0 570 
		T0 268 
		P 134 
		N 16 
		C0 571 
		T0 267 
		P 260 
		N 16 
		C0 572 
		T0 266 
		P 267 
		N 16 
		C0 573 
		T0 269 
		P 269 
		N 16 
		C0 574 
		T0 273 
		P 266 
		N 16 
		C0 575 
		T0 272 
		P 265 
		N 16 
		C0 576 
		T0 271 
		P 270 
		N 16 
		C0 577 
		T0 274 
		P 223 
		N 210 
		C0 578 
		T0 306 
		P 269 
		N 211 
		C0 579 
		T0 307 
		P 226 
		N 212 
		C0 580 
		T0 308 
		P 270 
		N 213 
		C0 581 
		T0 309 
		P 225 
		N 214 
		C0 582 
		T0 310 
		P 224 
		N 215 
		C0 583 
		T0 311 
		P 221 
		N 216 
		C0 584 
		T0 312 
		P 266 
		N 197 
		C0 585 
		T0 288 
		P 265 
		N 217 
		C0 586 
		T0 287 
		P 163 
		N 218 
		C0 587 
		T0 313 
		P 162 
		N 219 
		C0 588 
		T0 314 
		P 163 
		N 186 
		C0 589 
		T0 313 
		P 220 
		N 186 
		C0 590 
		T0 275 
		P 222 
		N 186 
		C0 591 
		T0 305 
		P 107 
		N 186 
		C0 592 
		T0 315 
		P 109 
		N 220 
		C0 593 
		T0 276 
		P 171 
		N 220 
		C0 594 
		T0 289 
		P 169 
		N 220 
		C0 595 
		T0 316 
		P 115 
		N 221 
		C0 596 
		T0 317 
		P 166 
		N 221 
		C0 597 
		T0 318 
		P 109 
		N 221 
		C0 598 
		T0 276 
		P 115 
		N 186 
		C0 599 
		T0 317 
		P 114 
		N 186 
		C0 600 
		T0 319 
		P 166 
		N 186 
		C0 601 
		T0 318 
		P 109 
		N 222 
		C0 602 
		T0 276 
		P 169 
		N 222 
		C0 603 
		T0 316 
		P 115 
		N 222 
		C0 604 
		T0 317 
		P 73 
		N 41 
		C0 605 
		T0 320 
		P 107 
		N 218 
		C0 606 
		T0 315 
		P 222 
		N 223 
		C0 607 
		T0 305 
		P 135 
		N 90 
		C0 608 
		T0 321 
	}

	Mtl 2 { 
		{
			Name "#2" 
			Priority 32 
			Prim 99 { 
				{
					Type TRISTRIP
					Priority 32 
					Idx 6 { 0 1 3 2 112 111 }
				}
				{
					Type TRISTRIP
					Priority 32 
					Idx 6 { 4 5 7 6 114 113 }
				}
				{
					Type TRISTRIP
					Priority 32 
					Idx 6 { 8 9 11 10 116 115 }
				}
				{
					Type TRISTRIP
					Priority 32 
					Idx 6 { 12 13 15 14 118 117 }
				}
				{
					Type TRISTRIP
					Priority 32 
					Idx 4 { 18 19 17 16 }
				}
				{
					Type TRISTRIP
					Priority 32 
					Idx 6 { 29 26 28 27 31 30 }
				}
				{
					Type TRISTRIP
					Priority 32 
					Idx 4 { 41 38 40 39 }
				}
				{
					Type TRISTRIP
					Priority 32 
					Idx 4 { 45 42 44 43 }
				}
				{
					Type TRISTRIP
					Priority 32 
					Idx 4 { 48 49 47 46 }
				}
				{
					Type TRISTRIP
					Priority 32 
					Idx 4 { 74 71 73 72 }
				}
				{
					Type TRISTRIP
					Priority 32 
					Idx 4 { 76 77 75 78 }
				}
				{
					Type TRISTRIP
					Priority 32 
					Idx 4 { 79 80 82 81 }
				}
				{
					Type TRISTRIP
					Priority 32 
					Idx 4 { 83 84 86 85 }
				}
				{
					Type TRISTRIP
					Priority 32 
					Idx 4 { 88 89 87 90 }
				}
				{
					Type TRISTRIP
					Priority 32 
					Idx 4 { 94 91 93 92 }
				}
				{
					Type TRISTRIP
					Priority 32 
					Idx 4 { 97 98 96 95 }
				}
				{
					Type TRISTRIP
					Priority 32 
					Idx 4 { 101 102 100 99 }
				}
				{
					Type TRISTRIP
					Priority 32 
					Idx 4 { 105 106 104 103 }
				}
				{
					Type TRISTRIP
					Priority 32 
					Idx 4 { 109 110 108 107 }
				}
				{
					Type TRISTRIP
					Priority 32 
					Idx 4 { 119 120 122 121 }
				}
				{
					Type TRISTRIP
					Priority 32 
					Idx 4 { 124 125 123 126 }
				}
				{
					Type TRISTRIP
					Priority 32 
					Idx 4 { 127 128 130 129 }
				}
				{
					Type TRISTRIP
					Priority 32 
					Idx 4 { 132 133 131 134 }
				}
				{
					Type TRISTRIP
					Priority 32 
					Idx 4 { 138 135 137 136 }
				}
				{
					Type TRISTRIP
					Priority 32 
					Idx 4 { 165 166 164 163 }
				}
				{
					Type TRISTRIP
					Priority 32 
					Idx 5 { 170 167 169 168 171 }
				}
				{
					Type TRISTRIP2
					Priority 32 
					Idx 6 { 21 20 22 23 24 25 }
				}
				{
					Type TRISTRIP2
					Priority 32 
					Idx 6 { 32 35 33 34 36 37 }
				}
				{
					Type TRISTRIP2
					Priority 32 
					Idx 4 { 198 201 199 200 }
				}
				{
					Type TRISTRIP2
					Priority 32 
					Idx 4 { 204 203 205 202 }
				}
				{
					Type TRISTRIP2
					Priority 32 
					Idx 4 { 217 220 218 219 }
				}
				{
					Type TRISTRIP2
					Priority 32 
					Idx 4 { 221 224 222 223 }
				}
				{
					Type TRISTRIP2
					Priority 32 
					Idx 4 { 245 244 246 247 }
				}
				{
					Type TRISTRIP2
					Priority 32 
					Idx 5 { 249 248 250 251 252 }
				}
				{
					Type TRISTRIP
					Priority 32 
					Idx 10 { 186 187 141 142 140 139 232 233 267 268 }
				}
				{
					Type TRISTRIP
					Priority 32 
					Idx 10 { 191 192 150 151 149 152 237 238 272 273 }
				}
				{
					Type TRISTRIP
					Priority 32 
					Idx 4 { 281 282 280 279 }
				}
				{
					Type TRISTRIP
					Priority 32 
					Idx 4 { 284 285 283 286 }
				}
				{
					Type TRISTRIP
					Priority 32 
					Idx 6 { 293 294 296 295 439 440 }
				}
				{
					Type TRISTRIP
					Priority 32 
					Idx 8 { 442 443 441 445 444 296 446 439 }
				}
				{
					Type TRISTRIP
					Priority 32 
					Idx 4 { 447 448 443 445 }
				}
				{
					Type TRISTRIP
					Priority 32 
					Idx 4 { 334 335 333 332 }
				}
				{
					Type TRISTRIP
					Priority 32 
					Idx 4 { 363 360 362 361 }
				}
				{
					Type TRISTRIP
					Priority 32 
					Idx 4 { 379 377 378 430 }
				}
				{
					Type TRISTRIP
					Priority 32 
					Idx 4 { 415 412 414 413 }
				}
				{
					Type TRISTRIP
					Priority 32 
					Idx 4 { 425 422 424 423 }
				}
				{
					Type TRISTRIP
					Priority 32 
					Idx 4 { 427 428 426 429 }
				}
				{
					Type TRISTRIP
					Priority 32 
					Idx 4 { 431 432 434 433 }
				}
				{
					Type TRISTRIP
					Priority 32 
					Idx 4 { 438 435 437 436 }
				}
				{
					Type TRISTRIP
					Priority 32 
					Idx 4 { 303 300 302 301 }
				}
				{
					Type TRISTRIP
					Priority 32 
					Idx 4 { 307 308 310 309 }
				}
				{
					Type TRISTRIP
					Priority 32 
					Idx 4 { 454 451 453 452 }
				}
				{
					Type TRISTRIP
					Priority 32 
					Idx 4 { 464 465 463 466 }
				}
				{
					Type TRISTRIP
					Priority 32 
					Idx 4 { 467 468 470 469 }
				}
				{
					Type TRISTRIP
					Priority 32 
					Idx 4 { 473 471 460 472 }
				}
				{
					Type TRISTRIP
					Priority 32 
					Idx 4 { 486 487 489 488 }
				}
				{
					Type TRISTRIP
					Priority 32 
					Idx 4 { 493 490 492 491 }
				}
				{
					Type TRISTRIP
					Priority 32 
					Idx 4 { 494 495 496 482 }
				}
				{
					Type TRISTRIP
					Priority 32 
					Idx 9 { 485 484 481 478 481 479 480 482 483 }
				}
				{
					Type TRISTRIP2
					Priority 32 
					Idx 6 { 381 380 382 383 417 416 }
				}
				{
					Type TRISTRIP2
					Priority 32 
					Idx 6 { 449 502 501 382 505 417 }
				}
				{
					Type TRISTRIP2
					Priority 32 
					Idx 9 { 382 502 418 504 418 503 421 449 450 }
				}
				{
					Type TRISTRIP
					Priority 32 
					Idx 13 { 291 292 290 289 230 231 227 228 227 214 213 215 212 }
				}
				{
					Type TRISTRIP2
					Priority 32 
					Idx 13 { 270 235 269 234 271 234 236 144 147 145 148 188 190 }
				}
				{
					Type TRISTRIP
					Priority 32 
					Idx 9 { 235 234 143 144 146 145 146 188 189 }
				}
				{
					Type TRISTRIP2
					Priority 32 
					Idx 12 { 410 185 183 184 183 182 181 180 175 174 172 173 }
				}
				{
					Type TRISTRIP2
					Priority 32 
					Idx 10 { 259 258 257 260 257 261 253 256 254 255 }
				}
				{
					Type TRISTRIP2
					Priority 32 
					Idx 17 { 274 240 275 239 276 241 277 242 278 242 243 159 161 160 162 196 197 }
				}
				{
					Type TRISTRIP
					Priority 32 
					Idx 4 { 420 421 419 418 }
				}
				{
					Type TRISTRIP
					Priority 32 
					Idx 13 { 240 239 153 154 156 155 194 155 193 158 195 160 196 }
				}
				{
					Type TRISTRIP2
					Priority 32 
					Idx 9 { 239 154 241 157 242 157 159 158 160 }
				}
				{
					Type TRISTRIP
					Priority 32 
					Idx 4 { 158 155 157 154 }
				}
				{
					Type TRISTRIP
					Priority 32 
					Idx 9 { 411 266 263 265 263 264 262 261 256 }
				}
				{
					Type TRISTRIP2
					Priority 32 
					Idx 9 { 460 459 458 457 458 456 455 462 461 }
				}
				{
					Type TRISTRIP
					Priority 32 
					Idx 6 { 458 475 455 474 477 476 }
				}
				{
					Type TRISTRIP
					Priority 32 
					Idx 17 { 396 393 395 393 394 397 398 400 401 375 374 376 373 386 385 387 384 }
				}
				{
					Type TRISTRIP2
					Priority 32 
					Idx 7 { 479 498 478 497 478 499 500 }
				}
				{
					Type TRISTRIP
					Priority 32 
					Idx 7 { 177 178 176 179 176 180 174 }
				}
				{
					Type TRISTRIP2
					Priority 32 
					Idx 13 { 408 407 405 409 405 404 370 403 370 372 370 371 406 }
				}
				{
					Type TRISTRIP
					Priority 32 
					Idx 13 { 390 391 392 399 392 402 306 304 306 305 306 388 389 }
				}
				{
					Type TRISTRIP2
					Priority 32 
					Idx 20 { 315 319 318 316 317 315 314 318 322 317 321 314 320 322 325 321 324 320 323 325 }
				}
				{
					Type TRISTRIP2
					Priority 32 
					Idx 8 { 365 364 366 369 368 367 366 365 }
				}
				{
					Type TRISTRIP2
					Priority 32 
					Idx 9 { 352 349 353 350 353 348 351 349 352 }
				}
				{
					Type TRISTRIP
					Priority 32 
					Idx 15 { 342 343 344 346 347 342 345 344 345 349 347 350 344 348 349 }
				}
				{
					Type TRISTRIP2
					Priority 32 
					Idx 9 { 338 336 341 339 340 339 337 336 338 }
				}
				{
					Type TRISTRIP
					Priority 32 
					Idx 21 { 229 209 288 208 287 208 225 208 216 207 211 206 210 206 226 206 229 206 209 207 208 }
				}
				{
					Type TRISTRIP2
					Priority 32 
					Idx 3 { 50 52 51 }
				}
				{
					Type TRISTRIP
					Priority 32 
					Idx 3 { 55 53 54 }
				}
				{
					Type TRISTRIP2
					Priority 32 
					Idx 3 { 56 58 57 }
				}
				{
					Type TRISTRIP
					Priority 32 
					Idx 3 { 61 59 60 }
				}
				{
					Type TRISTRIP2
					Priority 32 
					Idx 3 { 62 64 63 }
				}
				{
					Type TRISTRIP
					Priority 32 
					Idx 3 { 67 65 66 }
				}
				{
					Type TRISTRIP2
					Priority 32 
					Idx 3 { 68 70 69 }
				}
				{
					Type TRISTRIP
					Priority 32 
					Idx 3 { 299 297 298 }
				}
				{
					Type TRISTRIP2
					Priority 32 
					Idx 3 { 311 313 312 }
				}
				{
					Type TRISTRIP
					Priority 32 
					Idx 3 { 328 326 327 }
				}
				{
					Type TRISTRIP2
					Priority 32 
					Idx 3 { 329 331 330 }
				}
				{
					Type TRISTRIP
					Priority 32 
					Idx 3 { 356 354 355 }
				}
				{
					Type TRISTRIP2
					Priority 32 
					Idx 3 { 357 359 358 }
				}
			}

		}
		{
			Name "#3" 
			Priority 32 
			Prim 18 { 
				{
					Type TRISTRIP
					Priority 32 
					Idx 6 { 524 522 521 523 520 568 }
				}
				{
					Type TRISTRIP
					Priority 32 
					Idx 4 { 526 527 529 528 }
				}
				{
					Type TRISTRIP
					Priority 32 
					Idx 4 { 531 532 534 533 }
				}
				{
					Type TRISTRIP
					Priority 32 
					Idx 9 { 569 557 556 530 509 506 508 507 525 }
				}
				{
					Type TRISTRIP2
					Priority 32 
					Idx 4 { 506 522 530 523 }
				}
				{
					Type TRISTRIP2
					Priority 32 
					Idx 4 { 572 571 573 570 }
				}
				{
					Type TRISTRIP2
					Priority 32 
					Idx 4 { 576 575 577 574 }
				}
				{
					Type TRISTRIP2
					Priority 32 
					Idx 14 { 607 584 585 578 579 580 579 582 581 583 581 588 586 587 }
				}
				{
					Type TRISTRIP2
					Priority 32 
					Idx 7 { 592 549 554 553 554 552 555 }
				}
				{
					Type TRISTRIP
					Priority 32 
					Idx 6 { 590 548 551 547 550 591 }
				}
				{
					Type TRISTRIP
					Priority 32 
					Idx 7 { 547 548 546 549 546 553 589 }
				}
				{
					Type TRISTRIP2
					Priority 32 
					Idx 13 { 608 566 567 565 564 563 564 562 559 558 559 561 560 }
				}
				{
					Type TRISTRIP
					Priority 32 
					Idx 13 { 513 510 512 511 514 511 516 515 517 515 519 518 605 }
				}
				{
					Type TRISTRIP2
					Priority 32 
					Idx 15 { 541 543 542 537 535 537 536 537 538 539 540 539 544 545 606 }
				}
				{
					Type TRISTRIP
					Priority 32 
					Idx 3 { 595 593 594 }
				}
				{
					Type TRISTRIP2
					Priority 32 
					Idx 3 { 596 598 597 }
				}
				{
					Type TRISTRIP
					Priority 32 
					Idx 3 { 601 599 600 }
				}
				{
					Type TRISTRIP2
					Priority 32 
					Idx 3 { 602 604 603 }
				}
			}

		}
	}

	Offset 0 
}
