{
	Skinned 0 
	PosSkin 0 
	Pos 228 { 
		-0.511502	1.045990	2.186056 
		-0.503887	1.031164	2.186133 
		0.000000	1.058590	2.205550 
		-0.729656	0.849419	2.169642 
		-0.696261	1.011610	2.177751 
		-0.753136	0.973044	2.153832 
		-0.778497	0.845139	2.147089 
		-0.737365	0.811979	2.167770 
		-0.785416	0.810242	2.145250 
		-0.391212	0.811804	2.187271 
		-0.441156	0.854151	2.184931 
		-0.422877	0.873450	2.186951 
		-0.493765	1.011459	2.186235 
		-0.690088	1.041590	2.179250 
		-0.746409	1.006970	2.155620 
		0.511502	1.045990	2.186056 
		0.503887	1.031164	2.186133 
		0.729656	0.849419	2.169642 
		0.778497	0.845139	2.147089 
		0.753136	0.973044	2.153832 
		0.696261	1.011610	2.177751 
		0.737365	0.811979	2.167770 
		0.785416	0.810242	2.145250 
		0.422877	0.873450	2.186951 
		0.391212	0.811804	2.187271 
		0.441156	0.854151	2.184931 
		0.493575	1.011088	2.186237 
		0.690088	1.041590	2.179250 
		0.746409	1.006970	2.155620 
		0.000000	1.010223	2.206286 
		0.104062	1.013031	2.200973 
		-0.107986	1.011313	2.200800 
		0.000000	0.811606	2.209310 
		-0.786603	0.337279	2.128380 
		-0.809638	0.319719	1.767830 
		-0.739366	0.341584	2.196630 
		0.000000	0.341850	2.234630 
		0.000000	0.479015	2.295370 
		-0.775092	0.478732	2.254940 
		0.000000	0.677646	2.305180 
		-0.782617	0.677366	2.265070 
		0.000000	0.706325	2.210650 
		-0.745638	0.706064	2.173270 
		0.000000	1.165260	1.761990 
		-0.651276	1.146040	1.737700 
		0.000000	1.303980	1.352670 
		-0.611982	1.281680	1.328400 
		0.000000	1.438060	0.919141 
		-0.540565	1.402660	0.919388 
		-0.518359	1.424200	0.335090 
		0.000000	1.459600	0.334843 
		-0.566185	1.375620	-0.168525 
		0.000000	1.404410	-0.217970 
		0.000000	1.203890	-0.583008 
		-0.652807	1.183770	-0.548541 
		0.000000	0.954313	-0.983314 
		-0.760316	0.936793	-0.934234 
		0.000000	0.856016	-1.608800 
		-0.706585	0.833862	-1.522020 
		0.000000	0.756603	-1.935190 
		-0.672390	0.750327	-1.844930 
		0.000000	0.544498	-2.083180 
		0.000000	0.251622	-2.063630 
		-0.651229	0.243287	-1.985030 
		-0.654784	0.545052	-2.003790 
		-0.385680	0.544824	-2.036418 
		-0.805090	0.194560	-0.972113 
		-0.803618	0.219694	0.338420 
		-0.845547	0.372675	0.338420 
		-0.849317	0.363408	-0.988904 
		-0.868119	0.522922	0.338420 
		-0.868026	0.506337	-1.040500 
		-0.868167	0.531365	1.040380 
		-0.866300	0.657924	1.166270 
		-0.865020	0.649856	0.338420 
		-0.862706	0.635265	-1.158730 
		-0.853410	0.758870	0.338420 
		-0.858254	0.684482	-1.385490 
		-0.866046	0.689272	1.332290 
		-0.850589	0.802196	1.342460 
		-0.789559	0.991570	1.354780 
		-0.802199	0.544580	-1.921450 
		-0.781256	0.238056	-1.901200 
		-0.806794	0.231432	-1.737280 
		-0.837354	0.460032	-1.709460 
		-0.841311	0.543996	-1.669960 
		-0.845477	0.632643	-1.592700 
		-0.806565	0.612900	-1.862360 
		-0.804517	0.580848	-1.890082 
		-0.802600	0.665979	-1.815100 
		-0.799303	0.704749	-1.783824 
		-0.801635	0.806084	-1.457840 
		-0.819001	0.905541	-0.872550 
		-0.802994	0.952314	0.338420 
		-0.711173	1.166770	-0.511413 
		-0.700727	1.191873	0.338420 
		-0.589101	1.375420	0.907622 
		-0.597378	1.364604	0.338420 
		-0.689527	1.218790	1.249660 
		-0.562554	1.398690	0.336766 
		-0.824611	0.478607	2.192340 
		-0.857000	0.471477	1.718960 
		-0.832617	0.677562	2.212110 
		-0.857000	0.576950	1.649330 
		-0.865583	0.667585	1.529180 
		-0.795639	0.705648	2.145210 
		-0.604567	1.355210	-0.155971 
		-1.000660	1.041570	-0.596259 
		-0.999895	1.059050	-0.540465 
		-0.800246	1.055540	-0.573393 
		-0.762824	0.995135	-0.700328 
		-1.010890	0.930348	-0.539778 
		-1.005470	0.933350	-0.595230 
		-0.789520	0.903500	-0.695801 
		-0.790115	0.908740	-0.570271 
		-0.764259	0.989745	-0.583116 
		-0.802895	0.232029	0.981565 
		-0.843706	0.377199	0.986424 
		-0.778087	0.666366	-1.832618 
		-0.669854	0.697403	-1.887433 
		-0.732508	0.696107	-1.842026 
		0.000000	0.667445	-2.004260 
		-0.480613	0.667913	-1.937185 
		0.000000	0.590947	-2.057235 
		-0.417300	0.600965	-1.997323 
		-0.398277	0.567190	-2.020843 
		0.786603	0.337279	2.128380 
		0.739366	0.341584	2.196630 
		0.809638	0.319719	1.767830 
		0.775092	0.478732	2.254940 
		0.782617	0.677366	2.265070 
		0.745638	0.706064	2.173270 
		0.651276	1.146040	1.737700 
		0.611982	1.281680	1.328400 
		0.540565	1.402660	0.919388 
		0.518359	1.424200	0.335090 
		0.566185	1.375620	-0.168525 
		0.652807	1.183770	-0.548541 
		0.760316	0.936793	-0.934234 
		0.706585	0.833862	-1.522020 
		0.672390	0.750327	-1.844930 
		0.385680	0.544824	-2.036418 
		0.654784	0.545052	-2.003790 
		0.651229	0.243287	-1.985030 
		0.805090	0.194560	-0.972113 
		0.849317	0.363408	-0.988904 
		0.845547	0.372675	0.338420 
		0.803618	0.219694	0.338420 
		0.868026	0.506337	-1.040500 
		0.868119	0.522922	0.338420 
		0.868167	0.531365	1.040380 
		0.865020	0.649856	0.338420 
		0.866300	0.657924	1.166270 
		0.862706	0.635265	-1.158730 
		0.858254	0.684482	-1.385490 
		0.853410	0.758870	0.338420 
		0.850589	0.802196	1.342460 
		0.866046	0.689272	1.332290 
		0.789559	0.991570	1.354780 
		0.802199	0.544580	-1.921450 
		0.837354	0.460032	-1.709460 
		0.806794	0.231432	-1.737280 
		0.781256	0.238056	-1.901200 
		0.841311	0.543996	-1.669960 
		0.845477	0.632643	-1.592700 
		0.804517	0.580848	-1.890082 
		0.806565	0.612900	-1.862360 
		0.802600	0.665979	-1.815100 
		0.799303	0.704749	-1.783824 
		0.801635	0.806084	-1.457840 
		0.819001	0.905541	-0.872550 
		0.802994	0.952314	0.338420 
		0.711173	1.166770	-0.511413 
		0.700727	1.191873	0.338420 
		0.589101	1.375420	0.907622 
		0.689527	1.218790	1.249660 
		0.597378	1.364604	0.338420 
		0.562554	1.398690	0.336766 
		0.857000	0.471477	1.718960 
		0.824611	0.478607	2.192340 
		0.832617	0.677562	2.212110 
		0.857000	0.576950	1.649330 
		0.865583	0.667585	1.529180 
		0.795639	0.705648	2.145210 
		0.604567	1.355210	-0.155971 
		1.000660	1.041570	-0.596259 
		0.762824	0.995135	-0.700328 
		0.800246	1.055540	-0.573393 
		0.999895	1.059050	-0.540465 
		1.010890	0.930348	-0.539778 
		1.005470	0.933350	-0.595230 
		0.789520	0.903500	-0.695801 
		0.790115	0.908740	-0.570271 
		0.764259	0.989745	-0.583116 
		0.843706	0.377199	0.986424 
		0.802895	0.232029	0.981565 
		0.778087	0.666366	-1.832618 
		0.732508	0.696107	-1.842026 
		0.669854	0.697403	-1.887433 
		0.480613	0.667913	-1.937185 
		0.417300	0.600965	-1.997323 
		0.398277	0.567190	-2.020843 
		-0.519100	0.219694	0.338420 
		-0.519164	0.232029	0.981565 
		-0.519164	0.319719	1.767830 
		-0.518971	0.231432	-1.737280 
		-0.484949	0.632643	-1.592700 
		-0.484949	0.635265	-1.158730 
		-0.518971	0.194560	-0.972113 
		-0.519164	0.531365	1.040380 
		-0.519164	0.576950	1.649330 
		0.000000	0.207127	-0.316847 
		0.000000	0.275874	1.374697 
		0.519164	0.232029	0.981565 
		0.519100	0.219694	0.338420 
		0.519164	0.319719	1.767830 
		0.518971	0.231432	-1.737280 
		0.484949	0.632643	-1.592700 
		0.484949	0.635265	-1.158730 
		0.518971	0.194560	-0.972113 
		0.519164	0.531365	1.040380 
		0.519164	0.576950	1.649330 
		-0.668449	0.668096	-1.910970 
		-0.662254	0.606845	-1.962155 
		-0.657877	0.570634	-1.986553 
		0.668449	0.668096	-1.910970 
		0.662254	0.606845	-1.962155 
		0.657877	0.570634	-1.986553 
	}

	Nrm 294 { 
		-0.031250	-0.015625	1.000000 
		-0.234375	0.000000	0.968750 
		-0.171875	-0.015625	0.984375 
		-0.421875	0.031250	0.906250 
		-0.421875	0.046875	0.906250 
		-0.046875	-0.015625	1.000000 
		-0.062500	-0.031250	1.000000 
		-0.046875	-0.031250	1.000000 
		-0.031250	-0.031250	1.000000 
		-0.406250	0.031250	0.906250 
		0.031250	-0.015625	1.000000 
		0.234375	0.000000	0.968750 
		0.421875	0.031250	0.906250 
		0.171875	-0.015625	0.984375 
		0.234375	0.000000	-0.968750 
		0.421875	0.046875	0.906250 
		0.078125	-0.031250	1.000000 
		0.062500	-0.031250	1.000000 
		0.046875	-0.015625	1.000000 
		0.046875	-0.031250	1.000000 
		0.031250	-0.031250	1.000000 
		0.406250	0.031250	0.906250 
		0.000000	-0.015625	1.000000 
		-0.046875	0.000000	1.000000 
		0.000000	0.000000	1.000000 
		0.015625	-1.000000	0.046875 
		0.000000	-0.406250	0.921875 
		0.000000	-0.234375	0.968750 
		-0.437500	-0.265625	0.859375 
		-0.421875	-0.453125	0.796875 
		0.000000	0.578125	0.812500 
		-0.343750	0.593750	0.734375 
		0.000000	0.953125	0.296875 
		-0.109375	0.953125	0.265625 
		-0.265625	0.046875	0.968750 
		0.000000	0.031250	1.000000 
		-0.046875	0.031250	1.000000 
		0.000000	0.968750	0.234375 
		0.000000	0.968750	0.265625 
		-0.031250	0.968750	0.234375 
		-0.546875	0.812500	0.187500 
		-0.312500	0.937500	0.187500 
		-0.390625	0.890625	0.234375 
		0.000000	0.984375	0.156250 
		-0.328125	0.937500	0.125000 
		-0.281250	0.953125	-0.015625 
		0.000000	1.000000	-0.031250 
		-0.281250	0.937500	-0.234375 
		0.000000	0.953125	-0.281250 
		0.000000	0.875000	-0.500000 
		-0.312500	0.859375	-0.421875 
		0.000000	0.937500	-0.359375 
		-0.296875	0.906250	-0.312500 
		0.000000	0.968750	-0.218750 
		-0.265625	0.937500	-0.234375 
		0.000000	0.828125	-0.562500 
		-0.296875	0.796875	-0.531250 
		0.000000	0.234375	-0.968750 
		0.000000	-0.062500	-1.000000 
		-0.328125	-0.078125	-0.937500 
		-0.312500	0.250000	-0.921875 
		-0.109375	0.343750	-0.937500 
		-0.968750	-0.265625	0.000000 
		-0.984375	-0.203125	0.000000 
		-1.000000	-0.062500	0.000000 
		-1.000000	-0.046875	0.000000 
		-1.000000	0.093750	-0.015625 
		-1.000000	0.062500	0.000000 
		-0.984375	0.171875	0.000000 
		-0.968750	0.250000	-0.046875 
		-0.984375	0.140625	0.000000 
		-0.984375	0.187500	0.015625 
		-0.812500	0.593750	0.078125 
		-0.906250	0.406250	0.046875 
		-0.906250	0.187500	0.390625 
		-0.968750	0.250000	0.062500 
		-0.875000	0.109375	-0.468750 
		-0.812500	-0.093750	-0.562500 
		-0.984375	-0.093750	-0.187500 
		-0.984375	-0.031250	-0.171875 
		-0.984375	0.046875	-0.156250 
		-0.984375	0.078125	-0.156250 
		-0.812500	0.328125	-0.484375 
		-0.687500	0.421875	-0.593750 
		-0.781250	0.453125	-0.437500 
		-0.953125	0.250000	-0.140625 
		-0.781250	0.437500	-0.437500 
		-0.687500	0.546875	-0.453125 
		-0.734375	0.656250	-0.171875 
		-0.828125	0.546875	-0.125000 
		-0.953125	0.328125	0.000000 
		-0.750000	0.640625	-0.171875 
		-0.890625	0.453125	0.000000 
		-0.687500	0.734375	0.031250 
		-0.781250	0.625000	0.000000 
		-0.812500	0.578125	0.093750 
		-0.593750	0.796875	0.000000 
		-0.953125	-0.281250	0.078125 
		-0.875000	-0.375000	0.328125 
		-0.906250	-0.218750	0.359375 
		-0.984375	-0.156250	0.062500 
		-0.890625	0.343750	0.296875 
		-0.984375	0.140625	0.046875 
		-0.984375	0.203125	0.046875 
		-0.796875	0.453125	0.390625 
		-0.656250	0.750000	-0.093750 
		-0.640625	0.468750	-0.609375 
		-0.687500	0.656250	-0.296875 
		-0.015625	0.921875	-0.390625 
		-0.250000	0.578125	-0.781250 
		-0.765625	-0.640625	-0.031250 
		-0.765625	-0.437500	-0.484375 
		-0.375000	-0.671875	-0.640625 
		-0.109375	-1.000000	0.015625 
		0.156250	0.015625	0.984375 
		0.328125	0.046875	0.937500 
		0.953125	-0.296875	0.015625 
		0.875000	0.468750	0.031250 
		-0.484375	0.578125	-0.656250 
		-0.312500	0.578125	-0.750000 
		-0.500000	0.546875	-0.671875 
		0.000000	0.609375	-0.796875 
		-0.109375	0.593750	-0.796875 
		0.000000	0.593750	-0.812500 
		-0.109375	0.531250	-0.843750 
		0.000000	0.515625	-0.859375 
		-0.109375	0.515625	-0.859375 
		-0.078125	-0.031250	1.000000 
		0.046875	0.000000	1.000000 
		-0.015625	-1.000000	0.046875 
		0.421875	-0.453125	0.796875 
		0.437500	-0.265625	0.859375 
		0.343750	0.593750	0.734375 
		0.109375	0.953125	0.265625 
		0.265625	0.046875	0.968750 
		0.046875	0.031250	1.000000 
		0.031250	0.968750	0.234375 
		0.312500	0.937500	0.187500 
		0.546875	0.812500	0.187500 
		0.390625	0.890625	0.234375 
		0.328125	0.937500	0.125000 
		0.281250	0.953125	-0.015625 
		0.281250	0.937500	-0.234375 
		0.312500	0.859375	-0.421875 
		0.296875	0.906250	-0.312500 
		0.265625	0.937500	-0.234375 
		0.296875	0.796875	-0.531250 
		0.109375	0.343750	-0.937500 
		0.312500	0.250000	-0.921875 
		0.328125	-0.078125	-0.937500 
		0.968750	-0.265625	0.000000 
		0.984375	-0.203125	0.000000 
		1.000000	-0.046875	0.000000 
		1.000000	-0.062500	0.000000 
		1.000000	0.062500	0.000000 
		1.000000	0.093750	-0.015625 
		0.968750	0.250000	-0.046875 
		0.984375	0.171875	0.000000 
		0.984375	0.187500	0.015625 
		0.984375	0.140625	0.000000 
		0.812500	0.593750	0.078125 
		0.968750	0.250000	0.062500 
		0.906250	0.187500	0.390625 
		0.906250	0.406250	0.046875 
		0.875000	0.109375	-0.468750 
		0.984375	-0.031250	-0.171875 
		0.984375	-0.093750	-0.187500 
		0.812500	-0.093750	-0.562500 
		0.984375	0.046875	-0.156250 
		0.984375	0.078125	-0.156250 
		0.687500	0.421875	-0.593750 
		0.812500	0.328125	-0.484375 
		0.781250	0.453125	-0.437500 
		0.781250	0.437500	-0.437500 
		0.953125	0.250000	-0.140625 
		0.687500	0.546875	-0.453125 
		0.734375	0.656250	-0.171875 
		0.828125	0.546875	-0.125000 
		0.953125	0.328125	0.000000 
		0.750000	0.640625	-0.171875 
		0.890625	0.453125	0.000000 
		0.687500	0.734375	0.031250 
		0.812500	0.578125	0.093750 
		0.781250	0.625000	0.000000 
		0.593750	0.796875	0.000000 
		0.953125	-0.281250	0.078125 
		0.984375	-0.156250	0.062500 
		0.906250	-0.218750	0.359375 
		0.875000	-0.375000	0.328125 
		0.890625	0.343750	0.296875 
		0.984375	0.140625	0.046875 
		0.984375	0.203125	0.046875 
		0.796875	0.453125	0.390625 
		0.656250	0.750000	-0.093750 
		0.640625	0.468750	-0.609375 
		0.250000	0.578125	-0.781250 
		0.015625	0.921875	-0.390625 
		0.687500	0.656250	-0.296875 
		0.765625	-0.640625	-0.031250 
		0.765625	-0.437500	-0.484375 
		0.375000	-0.671875	-0.640625 
		0.109375	-1.000000	0.015625 
		-0.156250	0.015625	0.984375 
		-0.328125	0.046875	0.937500 
		-0.953125	-0.296875	0.015625 
		-0.875000	0.468750	0.031250 
		0.484375	0.578125	-0.656250 
		0.500000	0.546875	-0.671875 
		0.312500	0.578125	-0.750000 
		0.109375	0.593750	-0.796875 
		0.109375	0.531250	-0.843750 
		0.109375	0.515625	-0.859375 
		0.000000	-1.000000	0.015625 
		0.000000	-1.000000	0.046875 
		0.000000	-1.000000	-0.046875 
		-0.437500	-0.765625	0.468750 
		-0.078125	-0.671875	0.734375 
		-0.078125	-0.234375	0.968750 
		-0.500000	-0.171875	0.843750 
		-0.046875	-0.984375	0.187500 
		-0.421875	-0.671875	-0.593750 
		-0.046875	-0.906250	-0.437500 
		0.000000	-0.890625	0.437500 
		-0.078125	-0.531250	-0.843750 
		-0.500000	-0.171875	-0.843750 
		-0.078125	-0.234375	-0.968750 
		0.000000	-0.093750	-1.000000 
		-0.031250	-0.343750	0.937500 
		-0.046875	-0.140625	0.984375 
		-0.718750	-0.093750	0.687500 
		-0.484375	-0.562500	0.671875 
		0.000000	-0.546875	0.843750 
		-0.187500	-0.828125	0.531250 
		-0.406250	-0.750000	-0.531250 
		-0.250000	-0.968750	-0.125000 
		-0.125000	-0.937500	-0.328125 
		-0.062500	-0.781250	-0.609375 
		-0.015625	-0.468750	-0.890625 
		-0.718750	-0.265625	-0.640625 
		-0.031250	-0.375000	-0.921875 
		0.000000	-0.125000	1.000000 
		0.015625	-1.000000	0.078125 
		0.015625	-1.000000	0.031250 
		0.000000	-1.000000	0.000000 
		0.000000	-1.000000	0.078125 
		-0.015625	-1.000000	0.093750 
		0.015625	-1.000000	0.000000 
		0.046875	-1.000000	-0.031250 
		0.000000	-1.000000	-0.031250 
		0.437500	-0.765625	0.468750 
		0.500000	-0.171875	0.843750 
		0.078125	-0.234375	0.968750 
		0.078125	-0.671875	0.734375 
		0.046875	-0.984375	0.187500 
		0.046875	-0.906250	-0.437500 
		0.421875	-0.671875	-0.593750 
		0.078125	-0.531250	-0.843750 
		0.078125	-0.234375	-0.968750 
		0.500000	-0.171875	-0.843750 
		0.031250	-0.343750	0.937500 
		0.484375	-0.562500	0.671875 
		0.718750	-0.093750	0.687500 
		0.046875	-0.140625	0.984375 
		0.187500	-0.828125	0.531250 
		0.250000	-0.968750	-0.125000 
		0.406250	-0.750000	-0.531250 
		0.125000	-0.937500	-0.328125 
		0.062500	-0.781250	-0.609375 
		0.015625	-0.468750	-0.890625 
		0.718750	-0.265625	-0.640625 
		0.031250	-0.375000	-0.921875 
		-0.015625	-1.000000	0.078125 
		-0.015625	-1.000000	0.031250 
		0.015625	-1.000000	0.093750 
		-0.015625	-1.000000	0.000000 
		-0.046875	-1.000000	-0.031250 
		-0.484375	0.546875	-0.687500 
		-0.500000	0.531250	-0.687500 
		-0.312500	0.593750	-0.750000 
		-0.296875	0.593750	-0.750000 
		-0.468750	0.562500	-0.671875 
		-0.281250	0.609375	-0.734375 
		-0.265625	0.546875	-0.796875 
		-0.109375	0.625000	-0.781250 
		-0.281250	0.531250	-0.796875 
		0.484375	0.546875	-0.687500 
		0.296875	0.593750	-0.750000 
		0.312500	0.593750	-0.750000 
		0.500000	0.531250	-0.687500 
		0.468750	0.562500	-0.671875 
		0.281250	0.609375	-0.734375 
		0.265625	0.546875	-0.796875 
		0.109375	0.625000	-0.781250 
		0.281250	0.531250	-0.796875 
	}

	Cpv 470 { 
		0.546315	0.474907	0.406473	0.000000 
		0.546315	0.474907	0.406473	0.000000 
		0.467904	0.425653	0.277793	0.000000 
		0.513281	0.508394	0.477832	0.000000 
		0.546315	0.474907	0.406473	0.000000 
		0.546315	0.474907	0.406473	0.000000 
		0.570925	0.521450	0.459683	0.000000 
		0.513281	0.508394	0.477832	0.000000 
		0.513281	0.508394	0.477832	0.000000 
		0.570925	0.521450	0.459683	0.000000 
		0.570925	0.521450	0.459683	0.000000 
		0.513281	0.508394	0.477832	0.000000 
		0.513281	0.508394	0.477832	0.000000 
		0.513281	0.508394	0.477832	0.000000 
		0.513281	0.508394	0.477832	0.000000 
		0.513281	0.508394	0.477832	0.000000 
		0.542188	0.479091	0.415389	0.000000 
		0.546315	0.474907	0.406473	0.000000 
		0.546315	0.474907	0.406473	0.000000 
		0.546315	0.474907	0.406473	0.000000 
		0.546315	0.474907	0.406473	0.000000 
		0.546315	0.474907	0.406473	0.000000 
		0.546315	0.474907	0.406473	0.000000 
		0.546315	0.474907	0.406473	0.000000 
		0.546315	0.474907	0.406473	0.000000 
		0.525235	0.492725	0.303381	0.000000 
		0.525235	0.492725	0.303381	0.000000 
		0.455566	0.493143	0.328555	0.000000 
		0.455566	0.493143	0.328555	0.000000 
		0.462791	0.476586	0.280859	0.000000 
		0.462791	0.476586	0.280859	0.000000 
		0.455566	0.493143	0.328555	0.000000 
		0.455566	0.493143	0.328555	0.000000 
		0.455566	0.493143	0.328555	0.000000 
		0.455566	0.493143	0.328555	0.000000 
		0.525235	0.492725	0.340332	0.000000 
		0.525235	0.492725	0.340332	0.000000 
		0.525235	0.492725	0.340332	0.000000 
		0.455566	0.493143	0.328555	0.000000 
		0.525235	0.492725	0.340332	0.000000 
		0.525235	0.492725	0.303381	0.000000 
		0.525235	0.492725	0.308084	0.000000 
		0.525235	0.492725	0.340332	0.000000 
		0.525235	0.492725	0.303381	0.000000 
		0.462791	0.476586	0.280859	0.000000 
		0.462791	0.476586	0.280859	0.000000 
		0.525235	0.492725	0.303381	0.000000 
		0.462791	0.476586	0.280859	0.000000 
		0.462791	0.476586	0.280859	0.000000 
		0.462791	0.476586	0.280859	0.000000 
		0.460556	0.442220	0.275983	0.000000 
		0.482012	0.442158	0.293183	0.000000 
		0.479492	0.446782	0.328876	0.000000 
		0.542188	0.479091	0.415389	0.000000 
		0.513281	0.508394	0.477832	0.000000 
		0.479492	0.446782	0.328876	0.000000 
		0.513281	0.508394	0.477832	0.000000 
		0.430382	0.510248	0.268550	0.000000 
		0.460556	0.442220	0.275983	0.000000 
		0.572872	0.555530	0.469468	0.000000 
		0.552777	0.545763	0.524151	0.000000 
		0.572872	0.555530	0.469468	0.000000 
		0.430382	0.510248	0.268550	0.000000 
		0.430382	0.510248	0.268550	0.000000 
		0.576759	0.503551	0.458177	0.000000 
		0.572872	0.555530	0.469468	0.000000 
		0.430382	0.510248	0.268550	0.000000 
		0.576759	0.503551	0.458177	0.000000 
		0.430382	0.510248	0.268550	0.000000 
		0.513281	0.508394	0.477832	0.000000 
		0.513281	0.508394	0.477832	0.000000 
		0.430382	0.510248	0.268550	0.000000 
		0.430382	0.510248	0.268550	0.000000 
		0.513281	0.508394	0.477832	0.000000 
		0.513281	0.508394	0.477832	0.000000 
		0.467904	0.425653	0.277793	0.000000 
		0.467904	0.347132	0.280580	0.003922 
		0.546315	0.474907	0.406473	0.000000 
		0.500000	0.421479	0.439954	0.003922 
		0.546315	0.474907	0.406473	0.000000 
		0.467904	0.347132	0.280580	0.003922 
		0.447024	0.285477	0.353194	0.003922 
		0.555020	0.403003	0.474290	0.003922 
		0.500000	0.421479	0.439954	0.003922 
		0.514301	0.339993	0.553535	0.003922 
		0.500000	0.435336	0.583140	0.003922 
		0.500000	0.463049	0.550808	0.003922 
		0.500000	0.435336	0.583140	0.003922 
		0.514301	0.339993	0.553535	0.003922 
		0.491510	0.295104	0.577953	0.003922 
		0.523691	0.378853	0.567238	0.003922 
		0.500000	0.407622	0.550808	0.003922 
		0.500000	0.407622	0.550808	0.003922 
		0.500000	0.407622	0.596997	0.003922 
		0.500000	0.407622	0.596997	0.003922 
		0.523691	0.378853	0.567238	0.003922 
		0.503452	0.482344	0.541476	0.003922 
		0.595613	0.500000	0.493649	0.003922 
		0.503452	0.482344	0.541476	0.003922 
		0.494754	0.559896	0.554246	0.000000 
		0.552288	0.560383	0.525437	0.000000 
		0.595613	0.500000	0.493649	0.003922 
		0.533722	0.555871	0.640811	0.000000 
		0.590889	0.543143	0.586930	0.000000 
		0.533722	0.555871	0.640811	0.000000 
		0.533722	0.555871	0.682381	0.000000 
		0.590889	0.543143	0.628500	0.000000 
		0.590889	0.543143	0.586930	0.000000 
		0.552737	0.506550	0.586701	0.000000 
		0.653161	0.511171	0.475737	0.000000 
		0.600125	0.627178	0.535861	0.000000 
		0.591763	0.593639	0.532197	0.000000 
		0.653161	0.511171	0.475737	0.000000 
		0.635296	0.585245	0.572484	0.000000 
		0.605587	0.503095	0.499669	0.000000 
		0.559194	0.531812	0.448913	0.000000 
		0.554590	0.518983	0.505045	0.000000 
		0.595651	0.541659	0.520906	0.000000 
		0.582275	0.503095	0.501217	0.000000 
		0.595651	0.541659	0.520906	0.000000 
		0.486654	0.493487	0.503397	0.000000 
		0.596070	0.541167	0.492980	0.000000 
		0.596070	0.541167	0.492980	0.000000 
		0.546315	0.474907	0.406473	0.000000 
		0.522122	0.500000	0.511664	0.000000 
		0.570925	0.521450	0.459683	0.000000 
		0.570925	0.521450	0.459683	0.000000 
		0.546315	0.474907	0.406473	0.000000 
		0.562254	0.498443	0.513430	0.000000 
		0.562254	0.498443	0.554999	0.000000 
		0.562254	0.498443	0.554999	0.000000 
		0.562254	0.498443	0.513430	0.000000 
		0.562254	0.498443	0.513430	0.000000 
		0.562254	0.498443	0.513430	0.000000 
		0.562254	0.498443	0.513430	0.000000 
		0.562254	0.498443	0.513430	0.000000 
		0.562254	0.498443	0.513430	0.000000 
		0.562254	0.498443	0.513430	0.000000 
		0.562254	0.498443	0.513430	0.000000 
		0.562254	0.498443	0.513430	0.000000 
		0.476689	0.555427	0.515405	0.000000 
		0.595613	0.500000	0.493649	0.003922 
		0.595651	0.541659	0.520906	0.000000 
		0.500000	0.407622	0.596997	0.003922 
		0.575494	0.476825	0.533524	0.003922 
		0.500000	0.435336	0.583140	0.003922 
		0.500000	0.463049	0.550808	0.003922 
		0.555020	0.403003	0.474290	0.003922 
		0.500000	0.463049	0.550808	0.003922 
		0.552777	0.545763	0.524151	0.000000 
		0.572872	0.555530	0.469468	0.000000 
		0.576759	0.503551	0.458177	0.000000 
		0.556665	0.493783	0.512860	0.000000 
		0.576759	0.503551	0.458177	0.000000 
		0.550831	0.511683	0.514367	0.000000 
		0.550831	0.511683	0.514367	0.000000 
		0.570925	0.521450	0.459683	0.000000 
		0.576759	0.503551	0.458177	0.000000 
		0.572872	0.555530	0.469468	0.000000 
		0.576759	0.503551	0.458177	0.000000 
		0.570925	0.521450	0.459683	0.000000 
		0.546315	0.474907	0.406473	0.000000 
		0.500000	0.421479	0.439954	0.003922 
		0.555020	0.403003	0.474290	0.003922 
		0.500000	0.435336	0.583140	0.003922 
		0.500000	0.463049	0.550808	0.003922 
		0.523691	0.378853	0.567238	0.003922 
		0.523691	0.378853	0.567238	0.003922 
		0.500000	0.407622	0.596997	0.003922 
		0.595613	0.500000	0.493649	0.003922 
		0.552288	0.560383	0.525437	0.000000 
		0.590889	0.543143	0.586930	0.000000 
		0.562254	0.498443	0.513430	0.000000 
		0.562254	0.498443	0.554999	0.000000 
		0.570925	0.521450	0.459683	0.000000 
		0.604683	0.394758	0.613417	0.000000 
		0.649738	0.394115	0.589812	0.000000 
		0.506696	0.478042	0.445864	0.000000 
		0.385984	0.497898	0.460638	0.000000 
		0.683512	0.401450	0.551220	0.000000 
		0.630930	0.402797	0.577174	0.000000 
		0.424433	0.495231	0.446155	0.000000 
		0.534245	0.495974	0.382444	0.000000 
		0.506696	0.478042	0.445864	0.000000 
		0.649738	0.394115	0.589812	0.000000 
		0.683512	0.401450	0.551220	0.000000 
		0.534245	0.495974	0.382444	0.000000 
		0.491169	0.499177	0.398095	0.000000 
		0.506696	0.478042	0.445864	0.000000 
		0.534245	0.495974	0.382444	0.000000 
		0.534245	0.495974	0.382444	0.000000 
		0.424433	0.495231	0.446155	0.000000 
		0.385984	0.497898	0.460638	0.000000 
		0.491169	0.499177	0.398095	0.000000 
		0.506696	0.478042	0.445864	0.000000 
		0.491169	0.499177	0.398095	0.000000 
		0.385984	0.497898	0.460638	0.000000 
		0.548270	0.557638	0.478476	0.000000 
		0.550702	0.570963	0.516336	0.000000 
		0.562254	0.498443	0.513430	0.000000 
		0.562254	0.498443	0.513430	0.000000 
		0.562254	0.498443	0.513430	0.000000 
		0.590889	0.543143	0.586930	0.000000 
		0.590889	0.543143	0.586930	0.000000 
		0.590889	0.543143	0.586930	0.000000 
		0.562254	0.498443	0.513430	0.000000 
		0.533722	0.555871	0.640811	0.000000 
		0.552737	0.506550	0.586701	0.000000 
		0.533722	0.555871	0.640811	0.000000 
		0.533722	0.555871	0.640811	0.000000 
		0.552737	0.506550	0.586701	0.000000 
		0.552737	0.506550	0.586701	0.000000 
		0.533722	0.555871	0.640811	0.000000 
		0.552737	0.506550	0.586701	0.000000 
		0.513281	0.508394	0.477832	0.000000 
		0.525235	0.492725	0.308084	0.000000 
		0.482012	0.442158	0.293183	0.000000 
		0.525235	0.492725	0.340332	0.000000 
		0.525235	0.492725	0.340332	0.000000 
		0.454301	0.491518	0.330307	0.000000 
		0.454301	0.491518	0.330307	0.000000 
		0.455236	0.495045	0.444287	0.000000 
		0.454301	0.491518	0.330307	0.000000 
		0.454301	0.491518	0.330307	0.000000 
		0.454301	0.491518	0.330307	0.000000 
		0.455566	0.493143	0.328555	0.000000 
		0.455566	0.493143	0.328555	0.000000 
		0.455566	0.493143	0.328555	0.000000 
		0.525235	0.492725	0.340332	0.000000 
		0.525235	0.492725	0.303381	0.000000 
		0.462791	0.476586	0.280859	0.000000 
		0.508615	0.419963	0.376456	0.003922 
		0.508615	0.419963	0.376456	0.003922 
		0.483165	0.353388	0.420983	0.003922 
		0.471480	0.351764	0.582794	0.003922 
		0.481302	0.410529	0.548748	0.003922 
		0.471480	0.351764	0.582794	0.003922 
		0.481302	0.355103	0.548748	0.003922 
		0.481302	0.355103	0.548748	0.003922 
		0.500000	0.407622	0.596997	0.003922 
		0.500000	0.500000	0.500000	0.003922 
		0.500000	0.500000	0.500000	0.003922 
		0.418425	0.612116	0.514871	0.000000 
		0.518924	0.500000	0.609556	0.000000 
		0.511775	0.500530	0.596530	0.000000 
		0.503946	0.491868	0.666977	0.000000 
		0.506894	0.496573	0.719407	0.000000 
		0.466029	0.503475	0.489147	0.000000 
		0.397782	0.430756	0.489147	0.000000 
		0.378086	0.495239	0.526418	0.000000 
		0.369902	0.518865	0.527346	0.000000 
		0.466029	0.503475	0.489147	0.000000 
		0.403873	0.515390	0.538199	0.000000 
		0.533901	0.489516	0.450356	0.000000 
		0.347530	0.498155	0.517378	0.000000 
		0.533901	0.489516	0.450356	0.000000 
		0.500000	0.500000	0.500000	0.000000 
		0.418425	0.556689	0.501015	0.000000 
		0.403873	0.515390	0.538199	0.000000 
		0.500000	0.500000	0.500000	0.000000 
		0.533901	0.489516	0.450356	0.000000 
		0.462791	0.476586	0.280859	0.000000 
		0.462791	0.476586	0.280859	0.000000 
		0.455566	0.493143	0.328555	0.000000 
		0.455566	0.493143	0.328555	0.000000 
		0.500000	0.500000	0.500000	0.000000 
		0.503946	0.491868	0.666977	0.000000 
		0.503946	0.491868	0.666977	0.000000 
		0.514043	0.496044	0.732433	0.000000 
		0.514043	0.496044	0.732433	0.000000 
		0.503946	0.491868	0.666977	0.000000 
		0.384454	0.560164	0.490162	0.000000 
		0.503946	0.491868	0.666977	0.000000 
		0.503946	0.491868	0.666977	0.000000 
		0.503946	0.491868	0.666977	0.000000 
		0.484953	0.503475	0.598703	0.000000 
		0.384454	0.560164	0.490162	0.000000 
		0.518924	0.500000	0.609556	0.000000 
		0.418425	0.612116	0.514871	0.000000 
		0.500000	0.500000	0.500000	0.003922 
		0.419149	0.495598	0.527663	0.000000 
		0.500000	0.407622	0.596997	0.003922 
		0.500000	0.500000	0.500000	0.003922 
		0.471480	0.351764	0.582794	0.003922 
		0.483165	0.353388	0.420983	0.003922 
		0.481302	0.410529	0.548748	0.003922 
		0.481302	0.410529	0.548748	0.003922 
		0.455236	0.495045	0.444287	0.000000 
		0.455236	0.495045	0.444287	0.000000 
		0.454301	0.491518	0.330307	0.000000 
		0.454301	0.491518	0.330307	0.000000 
		0.430129	0.489804	0.333992	0.000000 
		0.508615	0.498484	0.436501	0.000000 
		0.500000	0.500000	0.500000	0.000000 
		0.455566	0.493143	0.328555	0.000000 
		0.454301	0.491518	0.330307	0.000000 
		0.454301	0.491518	0.330307	0.000000 
		0.430129	0.489804	0.333992	0.000000 
		0.455566	0.493143	0.328555	0.000000 
		0.462791	0.476586	0.280859	0.000000 
		0.508615	0.419963	0.376456	0.003922 
		0.483165	0.353388	0.420983	0.003922 
		0.471480	0.351764	0.582794	0.003922 
		0.481302	0.410529	0.548748	0.003922 
		0.481302	0.355103	0.548748	0.003922 
		0.481302	0.355103	0.548748	0.003922 
		0.500000	0.407622	0.596997	0.003922 
		0.500000	0.500000	0.500000	0.003922 
		0.418425	0.612116	0.514871	0.000000 
		0.518924	0.500000	0.609556	0.000000 
		0.503946	0.491868	0.666977	0.000000 
		0.514043	0.496044	0.732433	0.000000 
		0.455566	0.493143	0.328555	0.000000 
		0.473596	0.472879	0.567011	0.000000 
		0.543609	0.471353	0.473374	0.000000 
		0.487069	0.483438	0.471104	0.000000 
		0.449901	0.478952	0.558821	0.000000 
		0.437193	0.479476	0.574042	0.000000 
		0.463207	0.473549	0.577719	0.000000 
		0.530600	0.471407	0.492420	0.000000 
		0.474073	0.485214	0.477771	0.000000 
		0.487069	0.483438	0.471104	0.000000 
		0.474073	0.485214	0.477771	0.000000 
		0.437193	0.479476	0.574042	0.000000 
		0.449901	0.478952	0.558821	0.000000 
		0.489838	0.484281	0.460918	0.000000 
		0.474073	0.485214	0.477771	0.000000 
		0.487069	0.483438	0.471104	0.000000 
		0.474073	0.485214	0.477771	0.000000 
		0.489838	0.484281	0.460918	0.000000 
		0.543609	0.471353	0.473374	0.000000 
		0.530600	0.471407	0.492420	0.000000 
		0.487069	0.483438	0.471104	0.000000 
		0.543609	0.471353	0.473374	0.000000 
		0.489838	0.484281	0.460918	0.000000 
		0.533901	0.489516	0.450356	0.000000 
		0.533901	0.489516	0.450356	0.000000 
		0.503946	0.491868	0.666977	0.000000 
		0.484953	0.503475	0.598703	0.000000 
		0.484953	0.503475	0.598703	0.000000 
		0.518924	0.500000	0.609556	0.000000 
		0.518924	0.500000	0.609556	0.000000 
		0.484953	0.503475	0.598703	0.000000 
		0.484953	0.503475	0.598703	0.000000 
		0.477804	0.504004	0.585677	0.000000 
		0.477804	0.504004	0.585677	0.000000 
		0.477804	0.504004	0.585677	0.000000 
		0.511775	0.500530	0.596530	0.000000 
		0.548270	0.557638	0.478476	0.000000 
		0.600125	0.627178	0.535861	0.000000 
		0.591763	0.593639	0.532197	0.000000 
		0.518234	0.551980	0.522954	0.000000 
		0.572872	0.555530	0.469468	0.000000 
		0.552777	0.545763	0.524151	0.000000 
		0.496112	0.551980	0.511291	0.000000 
		0.430382	0.510248	0.268550	0.000000 
		0.533722	0.555871	0.682381	0.000000 
		0.562254	0.498443	0.554999	0.000000 
		0.590889	0.543143	0.628500	0.000000 
		0.562254	0.498443	0.554999	0.000000 
		0.562254	0.498443	0.554999	0.000000 
		0.562254	0.498443	0.513430	0.000000 
		0.562254	0.498443	0.513430	0.000000 
		0.562254	0.498443	0.513430	0.000000 
		0.562254	0.498443	0.554999	0.000000 
		0.486654	0.493487	0.503397	0.000000 
		0.576940	0.546564	0.489473	0.000000 
		0.582275	0.503095	0.501217	0.000000 
		0.562254	0.498443	0.513430	0.000000 
		0.605587	0.503095	0.499669	0.000000 
		0.591733	0.561588	0.509111	0.000000 
		0.653161	0.511171	0.475737	0.000000 
		0.653161	0.511171	0.475737	0.000000 
		0.550702	0.570963	0.516336	0.000000 
		0.548270	0.557638	0.478476	0.000000 
		0.518234	0.551980	0.522954	0.000000 
		0.522122	0.500000	0.511664	0.000000 
		0.559194	0.531812	0.448913	0.000000 
		0.554590	0.518983	0.505045	0.000000 
		0.500000	0.500000	0.500000	0.000000 
		0.596070	0.541167	0.492980	0.000000 
		0.550831	0.511683	0.514367	0.000000 
		0.550831	0.511683	0.514367	0.000000 
		0.556665	0.493783	0.512860	0.000000 
		0.496112	0.551980	0.511291	0.000000 
		0.552777	0.545763	0.524151	0.000000 
		0.562254	0.498443	0.554999	0.000000 
		0.653161	0.511171	0.475737	0.000000 
		0.591733	0.561588	0.509111	0.000000 
		0.518234	0.551980	0.522954	0.000000 
		0.591763	0.593639	0.532197	0.000000 
		0.500000	0.500000	0.500000	0.000000 
		0.500000	0.500000	0.500000	0.000000 
		0.430382	0.510248	0.268550	0.000000 
		0.496112	0.551980	0.511291	0.000000 
		0.591733	0.561588	0.509111	0.000000 
		0.562254	0.498443	0.554999	0.000000 
		0.533722	0.555871	0.682381	0.000000 
		0.533901	0.489516	0.450356	0.000000 
		0.500000	0.500000	0.500000	0.000000 
		0.410275	0.518865	0.527346	0.000000 
		0.369902	0.518865	0.527346	0.000000 
		0.454301	0.491518	0.330307	0.000000 
		0.508615	0.498484	0.436501	0.000000 
		0.455236	0.495045	0.444287	0.000000 
		0.506894	0.496573	0.719407	0.000000 
		0.403447	0.548557	0.600006	0.000000 
		0.514043	0.496044	0.732433	0.000000 
		0.514043	0.496044	0.732433	0.000000 
		0.466029	0.503475	0.489147	0.000000 
		0.403447	0.548557	0.600006	0.000000 
		0.503946	0.491868	0.666977	0.000000 
		0.503946	0.491868	0.666977	0.000000 
		0.418425	0.556689	0.501015	0.000000 
		0.500000	0.500000	0.500000	0.000000 
		0.500000	0.500000	0.500000	0.000000 
		0.384454	0.560164	0.490162	0.000000 
		0.466029	0.503475	0.489147	0.000000 
		0.397782	0.430756	0.489147	0.000000 
		0.466029	0.503475	0.489147	0.000000 
		0.466029	0.503475	0.489147	0.000000 
		0.533901	0.489516	0.450356	0.000000 
		0.500000	0.500000	0.500000	0.000000 
		0.500000	0.500000	0.500000	0.000000 
		0.533901	0.489516	0.450356	0.000000 
		0.533901	0.489516	0.450356	0.000000 
		0.533901	0.489516	0.450356	0.000000 
		0.533901	0.489516	0.450356	0.000000 
		0.508615	0.498484	0.436501	0.000000 
		0.500000	0.500000	0.500000	0.000000 
		0.508615	0.498484	0.436501	0.000000 
		0.455236	0.495045	0.444287	0.000000 
		0.508615	0.498484	0.436501	0.000000 
		0.455236	0.495045	0.444287	0.000000 
		0.514043	0.496044	0.732433	0.000000 
		0.466029	0.503475	0.489147	0.000000 
		0.466029	0.503475	0.489147	0.000000 
		0.500000	0.500000	0.500000	0.000000 
		0.410275	0.518865	0.527346	0.000000 
		0.508615	0.498484	0.436501	0.000000 
		0.466029	0.503475	0.489147	0.000000 
		0.403447	0.548557	0.600006	0.000000 
		0.562254	0.498443	0.513430	0.000000 
		0.590889	0.543143	0.586930	0.000000 
		0.590889	0.543143	0.586930	0.000000 
		0.590889	0.543143	0.586930	0.000000 
		0.562254	0.498443	0.513430	0.000000 
		0.590889	0.543143	0.586930	0.000000 
		0.562254	0.498443	0.513430	0.000000 
		0.590889	0.543143	0.586930	0.000000 
		0.552737	0.506550	0.586701	0.000000 
		0.552737	0.506550	0.586701	0.000000 
		0.552737	0.506550	0.586701	0.000000 
		0.562254	0.498443	0.513430	0.000000 
		0.590889	0.543143	0.586930	0.000000 
		0.590889	0.543143	0.586930	0.000000 
		0.484953	0.503475	0.598703	0.000000 
		0.484953	0.503475	0.598703	0.000000 
		0.484953	0.503475	0.598703	0.000000 
		0.484953	0.503475	0.598703	0.000000 
		0.503946	0.491868	0.666977	0.000000 
		0.484953	0.503475	0.598703	0.000000 
		0.503946	0.491868	0.666977	0.000000 
		0.503946	0.491868	0.666977	0.000000 
		0.477804	0.504004	0.585677	0.000000 
		0.477804	0.504004	0.585677	0.000000 
		0.511775	0.500530	0.596530	0.000000 
		0.503946	0.491868	0.666977	0.000000 
		0.484953	0.503475	0.598703	0.000000 
		0.503946	0.491868	0.666977	0.000000 
	}

	Tex0 230 { 
		0.662109	0.808594 
		0.667969	0.804688 
		0.658203	0.542969 
		0.736328	0.934570 
		0.674805	0.915039 
		0.689453	0.947266 
		0.737305	0.961914 
		0.750000	0.938477 
		0.750977	0.965820 
		0.750000	0.763672 
		0.734375	0.792969 
		0.726563	0.782227 
		0.675781	0.801758 
		0.664063	0.911133 
		0.676758	0.943359 
		0.675781	0.542969 
		0.674805	0.601563 
		0.675781	0.603516 
		0.750000	0.542969 
		0.329102	0.956055 
		0.324219	0.806641 
		0.360352	0.992188 
		0.962891	0.542969 
		0.910156	0.542969 
		0.910156	0.959961 
		0.962891	0.939453 
		0.859375	0.542969 
		0.859375	0.964844 
		0.789063	0.542969 
		0.789063	0.943359 
		0.217773	0.389648 
		0.217773	0.454102 
		0.139648	0.381836 
		0.119141	0.442383 
		0.113281	0.378906 
		0.101563	0.977539 
		0.068359	0.977539 
		0.074219	0.707031 
		0.105469	0.701172 
		0.037109	0.977539 
		0.045898	0.718750 
		0.172852	0.432617 
		0.061523	0.414063 
		0.061523	0.444336 
		0.172852	0.462891 
		0.268555	0.391602 
		0.277344	0.416016 
		0.044922	0.977539 
		0.091797	0.977539 
		0.096680	0.700195 
		0.051758	0.713867 
		0.150391	0.977539 
		0.154297	0.683594 
		0.188477	0.983398 
		0.213867	0.983398 
		0.225586	0.622070 
		0.198242	0.599609 
		0.240234	0.983398 
		0.247070	0.635742 
		0.327148	0.985352 
		0.484375	0.985352 
		0.489258	0.611328 
		0.326172	0.609375 
		0.327148	0.748047 
		0.229492	0.000000 
		0.546875	0.009766 
		0.546875	0.071289 
		0.225586	0.067383 
		0.546875	0.130859 
		0.212891	0.124023 
		0.716797	0.133789 
		0.747070	0.184570 
		0.546875	0.181641 
		0.184570	0.175781 
		0.546875	0.224609 
		0.129883	0.195313 
		0.787109	0.197266 
		0.790039	0.242188 
		0.966797	0.324219 
		0.792969	0.317383 
		0.963867	0.245117 
		0.964844	0.259766 
		0.966797	0.310547 
		0.000000	0.139648 
		0.004883	0.017578 
		0.029297	0.014648 
		0.035156	0.105469 
		0.052734	0.139648 
		0.079102	0.174805 
		0.014648	0.166992 
		0.007813	0.154297 
		0.035156	0.187500 
		0.042969	0.203125 
		0.112305	0.244141 
		0.250977	0.275391 
		0.546875	0.301758 
		0.340820	0.387695 
		0.546875	0.397461 
		0.684570	0.470703 
		0.546875	0.466797 
		0.767578	0.408203 
		0.545898	0.479492 
		0.892578	0.049805 
		0.979492	0.056641 
		0.995117	0.113281 
		0.880859	0.110352 
		1.000000	0.154297 
		0.864258	0.152344 
		0.834961	0.188477 
		0.983398	0.204102 
		0.910156	0.988281 
		0.963867	0.966797 
		0.859375	0.993164 
		0.790039	0.971680 
		0.104492	0.358398 
		0.884766	0.378906 
		0.786133	0.433594 
		0.687500	0.481445 
		0.545898	0.490234 
		0.426758	0.462891 
		0.423828	0.470703 
		0.332031	0.394531 
		0.236328	0.288086 
		0.096680	0.254883 
		0.040039	0.221680 
		0.327148	0.533203 
		0.492188	0.543945 
		0.614258	0.282227 
		0.636719	0.288086 
		0.623047	0.287109 
		0.571289	0.266602 
		0.637695	0.245117 
		0.614258	0.246094 
		0.573242	0.236328 
		0.625000	0.238281 
		0.396484	0.646484 
		0.392578	0.700195 
		0.390625	0.581055 
		0.445313	0.576172 
		0.447266	0.651367 
		0.702148	0.014648 
		0.703125	0.073242 
		0.290039	0.531250 
		0.261719	0.533203 
		0.261719	0.545898 
		0.215820	0.600586 
		0.244141	0.601563 
		0.245117	0.569336 
		0.240234	0.535156 
		0.260742	0.985352 
		0.260742	0.699219 
		0.212891	0.985352 
		0.301758	0.985352 
		0.296875	0.732422 
		0.314453	0.742188 
		0.953125	0.939453 
		0.913086	0.959961 
		0.862305	0.964844 
		0.913086	0.988281 
		0.955078	0.966797 
		0.862305	0.993164 
		0.708008	0.036133 
		0.558594	0.035156 
		0.558594	0.199219 
		0.708008	0.199219 
		0.990234	0.072266 
		0.890625	0.032227 
		0.890625	0.199219 
		0.999023	0.498047 
		-0.000977	0.498047 
		0.075195	0.199219 
		0.017578	0.123047 
		0.075195	0.033203 
		0.037109	0.048828 
		0.108398	0.218750 
		0.090820	0.013672 
		0.082031	0.015625 
		0.157227	0.003906 
		0.209961	0.218750 
		0.209961	0.000977 
		0.108398	0.011719 
		0.237305	-0.001953 
		0.252930	0.199219 
		0.249023	0.008789 
		0.252930	0.034180 
		0.708984	0.012695 
		0.721680	0.199219 
		0.721680	-0.001953 
		0.750977	-0.000977 
		0.863281	0.199219 
		0.789063	0.000000 
		0.834961	0.000000 
		0.863281	0.004883 
		0.878906	0.004883 
		0.405273	0.498047 
		0.798828	0.498047 
		0.708008	0.960938 
		0.708008	0.796875 
		0.558594	0.796875 
		0.558594	0.960938 
		0.990234	0.923828 
		0.890625	0.796875 
		0.890625	0.964844 
		0.017578	0.873047 
		0.075195	0.796875 
		0.075195	0.962891 
		0.037109	0.948242 
		0.108398	0.777344 
		0.082031	0.980469 
		0.090820	0.982422 
		0.157227	0.992188 
		0.209961	0.995117 
		0.209961	0.777344 
		0.108398	0.985352 
		0.237305	0.998047 
		0.249023	0.987305 
		0.252930	0.796875 
		0.252930	0.961914 
		0.708984	0.984375 
		0.721680	0.796875 
		0.721680	0.998047 
		0.750977	0.997070 
		0.789063	0.997070 
		0.863281	0.796875 
		0.834961	0.997070 
		0.878906	0.992188 
		0.260742	0.602539 
		0.292969	0.605469 
		0.307617	0.532227 
		0.312500	0.607422 
	}

	Tex1 0 
	Adj 470 { 
		P 0 
		N 0 
		C0 0 
		T0 0 
		P 1 
		N 0 
		C0 1 
		T0 1 
		P 2 
		N 1 
		C0 2 
		T0 2 
		P 3 
		N 1 
		C0 3 
		T0 3 
		P 4 
		N 2 
		C0 4 
		T0 4 
		P 5 
		N 3 
		C0 5 
		T0 5 
		P 6 
		N 3 
		C0 6 
		T0 6 
		P 7 
		N 1 
		C0 7 
		T0 7 
		P 3 
		N 4 
		C0 8 
		T0 3 
		P 6 
		N 4 
		C0 9 
		T0 6 
		P 8 
		N 1 
		C0 10 
		T0 8 
		P 3 
		N 5 
		C0 11 
		T0 3 
		P 9 
		N 6 
		C0 12 
		T0 9 
		P 10 
		N 6 
		C0 13 
		T0 10 
		P 10 
		N 7 
		C0 14 
		T0 10 
		P 11 
		N 5 
		C0 15 
		T0 11 
		P 12 
		N 5 
		C0 16 
		T0 12 
		P 1 
		N 5 
		C0 17 
		T0 1 
		P 1 
		N 8 
		C0 18 
		T0 1 
		P 0 
		N 8 
		C0 19 
		T0 0 
		P 13 
		N 1 
		C0 20 
		T0 13 
		P 4 
		N 8 
		C0 21 
		T0 4 
		P 5 
		N 9 
		C0 22 
		T0 5 
		P 4 
		N 9 
		C0 23 
		T0 4 
		P 14 
		N 1 
		C0 24 
		T0 14 
		P 15 
		N 10 
		C0 25 
		T0 0 
		P 16 
		N 10 
		C0 26 
		T0 1 
		P 17 
		N 11 
		C0 27 
		T0 3 
		P 18 
		N 12 
		C0 28 
		T0 6 
		P 19 
		N 12 
		C0 29 
		T0 5 
		P 20 
		N 13 
		C0 30 
		T0 4 
		P 21 
		N 14 
		C0 31 
		T0 7 
		P 22 
		N 14 
		C0 32 
		T0 8 
		P 18 
		N 15 
		C0 33 
		T0 6 
		P 17 
		N 15 
		C0 34 
		T0 3 
		P 23 
		N 16 
		C0 35 
		T0 11 
		P 24 
		N 17 
		C0 36 
		T0 9 
		P 25 
		N 17 
		C0 37 
		T0 10 
		P 17 
		N 18 
		C0 38 
		T0 3 
		P 25 
		N 19 
		C0 39 
		T0 10 
		P 16 
		N 18 
		C0 40 
		T0 1 
		P 26 
		N 18 
		C0 41 
		T0 12 
		P 23 
		N 18 
		C0 42 
		T0 11 
		P 16 
		N 20 
		C0 43 
		T0 1 
		P 20 
		N 20 
		C0 44 
		T0 4 
		P 27 
		N 14 
		C0 45 
		T0 13 
		P 15 
		N 20 
		C0 46 
		T0 0 
		P 19 
		N 21 
		C0 47 
		T0 5 
		P 28 
		N 14 
		C0 48 
		T0 14 
		P 20 
		N 21 
		C0 49 
		T0 4 
		P 29 
		N 22 
		C0 50 
		T0 15 
		P 30 
		N 18 
		C0 51 
		T0 16 
		P 31 
		N 5 
		C0 52 
		T0 17 
		P 12 
		N 0 
		C0 53 
		T0 12 
		P 11 
		N 23 
		C0 54 
		T0 11 
		P 31 
		N 23 
		C0 55 
		T0 17 
		P 9 
		N 23 
		C0 56 
		T0 9 
		P 32 
		N 1 
		C0 57 
		T0 18 
		P 29 
		N 24 
		C0 58 
		T0 15 
		P 33 
		N 25 
		C0 59 
		T0 19 
		P 34 
		N 25 
		C0 60 
		T0 20 
		P 35 
		N 25 
		C0 61 
		T0 21 
		P 36 
		N 26 
		C0 62 
		T0 22 
		P 37 
		N 27 
		C0 63 
		T0 23 
		P 38 
		N 28 
		C0 64 
		T0 24 
		P 35 
		N 29 
		C0 65 
		T0 25 
		P 39 
		N 30 
		C0 66 
		T0 26 
		P 40 
		N 31 
		C0 67 
		T0 27 
		P 41 
		N 32 
		C0 68 
		T0 28 
		P 42 
		N 33 
		C0 69 
		T0 29 
		P 42 
		N 34 
		C0 70 
		T0 29 
		P 41 
		N 35 
		C0 71 
		T0 28 
		P 32 
		N 35 
		C0 72 
		T0 18 
		P 9 
		N 36 
		C0 73 
		T0 9 
		P 7 
		N 34 
		C0 74 
		T0 7 
		P 2 
		N 37 
		C0 75 
		T0 30 
		P 43 
		N 38 
		C0 76 
		T0 31 
		P 0 
		N 39 
		C0 77 
		T0 32 
		P 44 
		N 40 
		C0 78 
		T0 33 
		P 13 
		N 41 
		C0 79 
		T0 34 
		P 43 
		N 38 
		C0 80 
		T0 35 
		P 45 
		N 32 
		C0 81 
		T0 36 
		P 46 
		N 42 
		C0 82 
		T0 37 
		P 44 
		N 40 
		C0 83 
		T0 38 
		P 47 
		N 43 
		C0 84 
		T0 39 
		P 48 
		N 44 
		C0 85 
		T0 40 
		P 49 
		N 45 
		C0 86 
		T0 41 
		P 48 
		N 44 
		C0 87 
		T0 42 
		P 47 
		N 43 
		C0 88 
		T0 43 
		P 50 
		N 46 
		C0 89 
		T0 44 
		P 51 
		N 47 
		C0 90 
		T0 45 
		P 52 
		N 48 
		C0 91 
		T0 46 
		P 52 
		N 48 
		C0 92 
		T0 47 
		P 53 
		N 49 
		C0 93 
		T0 48 
		P 54 
		N 50 
		C0 94 
		T0 49 
		P 51 
		N 47 
		C0 95 
		T0 50 
		P 55 
		N 51 
		C0 96 
		T0 51 
		P 56 
		N 52 
		C0 97 
		T0 52 
		P 55 
		N 51 
		C0 98 
		T0 53 
		P 57 
		N 53 
		C0 99 
		T0 54 
		P 58 
		N 54 
		C0 100 
		T0 55 
		P 56 
		N 52 
		C0 101 
		T0 56 
		P 59 
		N 55 
		C0 102 
		T0 57 
		P 60 
		N 56 
		C0 103 
		T0 58 
		P 61 
		N 57 
		C0 104 
		T0 59 
		P 62 
		N 58 
		C0 105 
		T0 60 
		P 63 
		N 59 
		C0 106 
		T0 61 
		P 64 
		N 60 
		C0 107 
		T0 62 
		P 65 
		N 61 
		C0 108 
		T0 63 
		P 66 
		N 62 
		C0 109 
		T0 64 
		P 67 
		N 62 
		C0 110 
		T0 65 
		P 68 
		N 63 
		C0 111 
		T0 66 
		P 69 
		N 63 
		C0 112 
		T0 67 
		P 70 
		N 64 
		C0 113 
		T0 68 
		P 71 
		N 65 
		C0 114 
		T0 69 
		P 72 
		N 64 
		C0 115 
		T0 70 
		P 73 
		N 66 
		C0 116 
		T0 71 
		P 74 
		N 67 
		C0 117 
		T0 72 
		P 75 
		N 67 
		C0 118 
		T0 73 
		P 76 
		N 68 
		C0 119 
		T0 74 
		P 77 
		N 69 
		C0 120 
		T0 75 
		P 78 
		N 70 
		C0 121 
		T0 76 
		P 79 
		N 71 
		C0 122 
		T0 77 
		P 14 
		N 72 
		C0 123 
		T0 78 
		P 80 
		N 73 
		C0 124 
		T0 79 
		P 8 
		N 74 
		C0 125 
		T0 80 
		P 6 
		N 75 
		C0 126 
		T0 81 
		P 5 
		N 75 
		C0 127 
		T0 82 
		P 81 
		N 76 
		C0 128 
		T0 83 
		P 82 
		N 77 
		C0 129 
		T0 84 
		P 83 
		N 78 
		C0 130 
		T0 85 
		P 84 
		N 79 
		C0 131 
		T0 86 
		P 85 
		N 80 
		C0 132 
		T0 87 
		P 86 
		N 81 
		C0 133 
		T0 88 
		P 87 
		N 82 
		C0 134 
		T0 89 
		P 88 
		N 83 
		C0 135 
		T0 90 
		P 87 
		N 84 
		C0 136 
		T0 89 
		P 86 
		N 85 
		C0 137 
		T0 88 
		P 89 
		N 86 
		C0 138 
		T0 91 
		P 90 
		N 87 
		C0 139 
		T0 92 
		P 91 
		N 88 
		C0 140 
		T0 93 
		P 92 
		N 89 
		C0 141 
		T0 94 
		P 93 
		N 90 
		C0 142 
		T0 95 
		P 94 
		N 91 
		C0 143 
		T0 96 
		P 95 
		N 92 
		C0 144 
		T0 97 
		P 96 
		N 93 
		C0 145 
		T0 98 
		P 97 
		N 94 
		C0 146 
		T0 99 
		P 98 
		N 95 
		C0 147 
		T0 100 
		P 99 
		N 96 
		C0 148 
		T0 101 
		P 34 
		N 97 
		C0 149 
		T0 102 
		P 33 
		N 98 
		C0 150 
		T0 103 
		P 100 
		N 99 
		C0 151 
		T0 104 
		P 101 
		N 100 
		C0 152 
		T0 105 
		P 102 
		N 101 
		C0 153 
		T0 106 
		P 103 
		N 102 
		C0 154 
		T0 107 
		P 104 
		N 103 
		C0 155 
		T0 108 
		P 105 
		N 104 
		C0 156 
		T0 109 
		P 100 
		N 99 
		C0 157 
		T0 110 
		P 33 
		N 98 
		C0 158 
		T0 111 
		P 102 
		N 101 
		C0 159 
		T0 112 
		P 105 
		N 104 
		C0 160 
		T0 113 
		P 14 
		N 72 
		C0 161 
		T0 114 
		P 44 
		N 40 
		C0 162 
		T0 115 
		P 46 
		N 42 
		C0 163 
		T0 116 
		P 48 
		N 44 
		C0 164 
		T0 117 
		P 49 
		N 45 
		C0 165 
		T0 118 
		P 106 
		N 105 
		C0 166 
		T0 119 
		P 51 
		N 47 
		C0 167 
		T0 120 
		P 54 
		N 50 
		C0 168 
		T0 121 
		P 56 
		N 52 
		C0 169 
		T0 122 
		P 58 
		N 54 
		C0 170 
		T0 123 
		P 60 
		N 56 
		C0 171 
		T0 124 
		P 81 
		N 76 
		C0 172 
		T0 125 
		P 82 
		N 77 
		C0 173 
		T0 126 
		P 8 
		N 74 
		C0 174 
		T0 8 
		P 107 
		N 106 
		C0 175 
		T0 127 
		P 108 
		N 107 
		C0 176 
		T0 128 
		P 109 
		N 108 
		C0 177 
		T0 129 
		P 110 
		N 109 
		C0 178 
		T0 130 
		P 111 
		N 110 
		C0 179 
		T0 131 
		P 112 
		N 111 
		C0 180 
		T0 132 
		P 113 
		N 112 
		C0 181 
		T0 133 
		P 114 
		N 113 
		C0 182 
		T0 134 
		P 109 
		N 114 
		C0 183 
		T0 129 
		P 108 
		N 114 
		C0 184 
		T0 128 
		P 111 
		N 114 
		C0 185 
		T0 131 
		P 114 
		N 114 
		C0 186 
		T0 134 
		P 115 
		N 115 
		C0 187 
		T0 135 
		P 109 
		N 115 
		C0 188 
		T0 136 
		P 114 
		N 115 
		C0 189 
		T0 137 
		P 114 
		N 116 
		C0 190 
		T0 137 
		P 113 
		N 116 
		C0 191 
		T0 138 
		P 110 
		N 116 
		C0 192 
		T0 139 
		P 115 
		N 116 
		C0 193 
		T0 135 
		P 109 
		N 117 
		C0 194 
		T0 136 
		P 115 
		N 117 
		C0 195 
		T0 135 
		P 110 
		N 117 
		C0 196 
		T0 139 
		P 116 
		N 62 
		C0 197 
		T0 140 
		P 117 
		N 63 
		C0 198 
		T0 141 
		P 87 
		N 84 
		C0 199 
		T0 142 
		P 89 
		N 86 
		C0 200 
		T0 143 
		P 118 
		N 118 
		C0 201 
		T0 144 
		P 60 
		N 56 
		C0 202 
		T0 145 
		P 119 
		N 119 
		C0 203 
		T0 146 
		P 120 
		N 120 
		C0 204 
		T0 147 
		P 90 
		N 87 
		C0 205 
		T0 148 
		P 121 
		N 121 
		C0 206 
		T0 149 
		P 122 
		N 122 
		C0 207 
		T0 150 
		P 59 
		N 55 
		C0 208 
		T0 151 
		P 123 
		N 123 
		C0 209 
		T0 152 
		P 124 
		N 122 
		C0 210 
		T0 153 
		P 124 
		N 124 
		C0 211 
		T0 153 
		P 123 
		N 125 
		C0 212 
		T0 152 
		P 125 
		N 126 
		C0 213 
		T0 154 
		P 11 
		N 127 
		C0 214 
		T0 11 
		P 26 
		N 10 
		C0 215 
		T0 12 
		P 30 
		N 128 
		C0 216 
		T0 16 
		P 23 
		N 128 
		C0 217 
		T0 11 
		P 24 
		N 128 
		C0 218 
		T0 9 
		P 126 
		N 129 
		C0 219 
		T0 19 
		P 127 
		N 129 
		C0 220 
		T0 21 
		P 128 
		N 129 
		C0 221 
		T0 20 
		P 127 
		N 130 
		C0 222 
		T0 155 
		P 129 
		N 131 
		C0 223 
		T0 156 
		P 130 
		N 132 
		C0 224 
		T0 157 
		P 131 
		N 133 
		C0 225 
		T0 29 
		P 131 
		N 134 
		C0 226 
		T0 29 
		P 21 
		N 134 
		C0 227 
		T0 7 
		P 24 
		N 135 
		C0 228 
		T0 9 
		P 15 
		N 136 
		C0 229 
		T0 32 
		P 27 
		N 137 
		C0 230 
		T0 34 
		P 132 
		N 138 
		C0 231 
		T0 33 
		P 132 
		N 138 
		C0 232 
		T0 38 
		P 133 
		N 139 
		C0 233 
		T0 37 
		P 134 
		N 140 
		C0 234 
		T0 40 
		P 135 
		N 141 
		C0 235 
		T0 41 
		P 134 
		N 140 
		C0 236 
		T0 42 
		P 136 
		N 142 
		C0 237 
		T0 45 
		P 136 
		N 142 
		C0 238 
		T0 50 
		P 137 
		N 143 
		C0 239 
		T0 49 
		P 138 
		N 144 
		C0 240 
		T0 52 
		P 138 
		N 144 
		C0 241 
		T0 56 
		P 139 
		N 145 
		C0 242 
		T0 55 
		P 140 
		N 146 
		C0 243 
		T0 58 
		P 141 
		N 147 
		C0 244 
		T0 63 
		P 142 
		N 148 
		C0 245 
		T0 62 
		P 143 
		N 149 
		C0 246 
		T0 61 
		P 144 
		N 150 
		C0 247 
		T0 64 
		P 145 
		N 151 
		C0 248 
		T0 67 
		P 146 
		N 151 
		C0 249 
		T0 66 
		P 147 
		N 150 
		C0 250 
		T0 65 
		P 148 
		N 152 
		C0 251 
		T0 69 
		P 149 
		N 153 
		C0 252 
		T0 68 
		P 150 
		N 153 
		C0 253 
		T0 70 
		P 151 
		N 154 
		C0 254 
		T0 72 
		P 152 
		N 155 
		C0 255 
		T0 71 
		P 153 
		N 154 
		C0 256 
		T0 73 
		P 154 
		N 156 
		C0 257 
		T0 75 
		P 155 
		N 157 
		C0 258 
		T0 74 
		P 156 
		N 158 
		C0 259 
		T0 77 
		P 157 
		N 159 
		C0 260 
		T0 76 
		P 28 
		N 160 
		C0 261 
		T0 78 
		P 19 
		N 161 
		C0 262 
		T0 82 
		P 18 
		N 161 
		C0 263 
		T0 81 
		P 22 
		N 162 
		C0 264 
		T0 80 
		P 158 
		N 163 
		C0 265 
		T0 79 
		P 159 
		N 164 
		C0 266 
		T0 83 
		P 160 
		N 165 
		C0 267 
		T0 86 
		P 161 
		N 166 
		C0 268 
		T0 85 
		P 162 
		N 167 
		C0 269 
		T0 84 
		P 163 
		N 168 
		C0 270 
		T0 87 
		P 164 
		N 169 
		C0 271 
		T0 88 
		P 165 
		N 170 
		C0 272 
		T0 90 
		P 166 
		N 171 
		C0 273 
		T0 89 
		P 166 
		N 172 
		C0 274 
		T0 89 
		P 167 
		N 173 
		C0 275 
		T0 91 
		P 164 
		N 174 
		C0 276 
		T0 88 
		P 168 
		N 175 
		C0 277 
		T0 92 
		P 169 
		N 176 
		C0 278 
		T0 93 
		P 170 
		N 177 
		C0 279 
		T0 94 
		P 171 
		N 178 
		C0 280 
		T0 95 
		P 172 
		N 179 
		C0 281 
		T0 96 
		P 173 
		N 180 
		C0 282 
		T0 97 
		P 174 
		N 181 
		C0 283 
		T0 98 
		P 175 
		N 182 
		C0 284 
		T0 100 
		P 176 
		N 183 
		C0 285 
		T0 99 
		P 177 
		N 184 
		C0 286 
		T0 101 
		P 128 
		N 185 
		C0 287 
		T0 102 
		P 178 
		N 186 
		C0 288 
		T0 105 
		P 179 
		N 187 
		C0 289 
		T0 104 
		P 126 
		N 188 
		C0 290 
		T0 103 
		P 180 
		N 189 
		C0 291 
		T0 106 
		P 181 
		N 190 
		C0 292 
		T0 107 
		P 182 
		N 191 
		C0 293 
		T0 108 
		P 183 
		N 192 
		C0 294 
		T0 109 
		P 179 
		N 187 
		C0 295 
		T0 158 
		P 126 
		N 188 
		C0 296 
		T0 159 
		P 180 
		N 189 
		C0 297 
		T0 160 
		P 183 
		N 192 
		C0 298 
		T0 113 
		P 28 
		N 160 
		C0 299 
		T0 114 
		P 132 
		N 138 
		C0 300 
		T0 115 
		P 133 
		N 139 
		C0 301 
		T0 116 
		P 134 
		N 140 
		C0 302 
		T0 117 
		P 135 
		N 141 
		C0 303 
		T0 118 
		P 184 
		N 193 
		C0 304 
		T0 119 
		P 136 
		N 142 
		C0 305 
		T0 120 
		P 137 
		N 143 
		C0 306 
		T0 121 
		P 138 
		N 144 
		C0 307 
		T0 122 
		P 139 
		N 145 
		C0 308 
		T0 123 
		P 140 
		N 146 
		C0 309 
		T0 124 
		P 159 
		N 164 
		C0 310 
		T0 125 
		P 162 
		N 167 
		C0 311 
		T0 126 
		P 22 
		N 162 
		C0 312 
		T0 8 
		P 185 
		N 194 
		C0 313 
		T0 127 
		P 186 
		N 195 
		C0 314 
		T0 130 
		P 187 
		N 196 
		C0 315 
		T0 129 
		P 188 
		N 197 
		C0 316 
		T0 128 
		P 189 
		N 198 
		C0 317 
		T0 131 
		P 190 
		N 199 
		C0 318 
		T0 132 
		P 191 
		N 200 
		C0 319 
		T0 133 
		P 192 
		N 201 
		C0 320 
		T0 134 
		P 187 
		N 202 
		C0 321 
		T0 129 
		P 192 
		N 202 
		C0 322 
		T0 134 
		P 189 
		N 202 
		C0 323 
		T0 131 
		P 188 
		N 202 
		C0 324 
		T0 128 
		P 193 
		N 203 
		C0 325 
		T0 135 
		P 192 
		N 203 
		C0 326 
		T0 137 
		P 187 
		N 203 
		C0 327 
		T0 136 
		P 192 
		N 204 
		C0 328 
		T0 137 
		P 193 
		N 204 
		C0 329 
		T0 135 
		P 186 
		N 204 
		C0 330 
		T0 139 
		P 191 
		N 204 
		C0 331 
		T0 138 
		P 187 
		N 205 
		C0 332 
		T0 136 
		P 186 
		N 205 
		C0 333 
		T0 139 
		P 193 
		N 205 
		C0 334 
		T0 135 
		P 194 
		N 151 
		C0 335 
		T0 141 
		P 195 
		N 150 
		C0 336 
		T0 140 
		P 166 
		N 172 
		C0 337 
		T0 142 
		P 196 
		N 206 
		C0 338 
		T0 144 
		P 167 
		N 173 
		C0 339 
		T0 143 
		P 140 
		N 146 
		C0 340 
		T0 145 
		P 168 
		N 175 
		C0 341 
		T0 148 
		P 197 
		N 207 
		C0 342 
		T0 147 
		P 198 
		N 208 
		C0 343 
		T0 146 
		P 199 
		N 209 
		C0 344 
		T0 150 
		P 200 
		N 209 
		C0 345 
		T0 153 
		P 200 
		N 210 
		C0 346 
		T0 153 
		P 201 
		N 211 
		C0 347 
		T0 154 
		P 116 
		N 212 
		C0 348 
		T0 161 
		P 67 
		N 212 
		C0 349 
		T0 162 
		P 202 
		N 212 
		C0 350 
		T0 163 
		P 203 
		N 212 
		C0 351 
		T0 164 
		P 35 
		N 25 
		C0 352 
		T0 165 
		P 34 
		N 25 
		C0 353 
		T0 166 
		P 204 
		N 213 
		C0 354 
		T0 167 
		P 36 
		N 213 
		C0 355 
		T0 168 
		P 62 
		N 214 
		C0 356 
		T0 169 
		P 205 
		N 214 
		C0 357 
		T0 170 
		P 63 
		N 214 
		C0 358 
		T0 171 
		P 83 
		N 214 
		C0 359 
		T0 172 
		P 82 
		N 214 
		C0 360 
		T0 173 
		P 206 
		N 215 
		C0 361 
		T0 174 
		P 85 
		N 216 
		C0 362 
		T0 175 
		P 84 
		N 217 
		C0 363 
		T0 176 
		P 205 
		N 218 
		C0 364 
		T0 170 
		P 77 
		N 219 
		C0 365 
		T0 177 
		P 207 
		N 220 
		C0 366 
		T0 178 
		P 75 
		N 221 
		C0 367 
		T0 179 
		P 86 
		N 222 
		C0 368 
		T0 180 
		P 71 
		N 223 
		C0 369 
		T0 181 
		P 208 
		N 224 
		C0 370 
		T0 182 
		P 69 
		N 225 
		C0 371 
		T0 183 
		P 66 
		N 226 
		C0 372 
		T0 184 
		P 117 
		N 227 
		C0 373 
		T0 185 
		P 116 
		N 228 
		C0 374 
		T0 161 
		P 203 
		N 229 
		C0 375 
		T0 164 
		P 209 
		N 230 
		C0 376 
		T0 186 
		P 72 
		N 231 
		C0 377 
		T0 187 
		P 73 
		N 232 
		C0 378 
		T0 188 
		P 210 
		N 233 
		C0 379 
		T0 189 
		P 78 
		N 234 
		C0 380 
		T0 190 
		P 104 
		N 235 
		C0 381 
		T0 191 
		P 103 
		N 236 
		C0 382 
		T0 192 
		P 101 
		N 237 
		C0 383 
		T0 193 
		P 204 
		N 238 
		C0 384 
		T0 167 
		P 34 
		N 239 
		C0 385 
		T0 166 
		P 83 
		N 240 
		C0 386 
		T0 172 
		P 66 
		N 212 
		C0 387 
		T0 184 
		P 208 
		N 212 
		C0 388 
		T0 182 
		P 203 
		N 241 
		C0 389 
		T0 164 
		P 202 
		N 242 
		C0 390 
		T0 163 
		P 211 
		N 243 
		C0 391 
		T0 194 
		P 212 
		N 244 
		C0 392 
		T0 195 
		P 36 
		N 244 
		C0 393 
		T0 168 
		P 204 
		N 245 
		C0 394 
		T0 167 
		P 208 
		N 246 
		C0 395 
		T0 182 
		P 205 
		N 247 
		C0 396 
		T0 170 
		P 62 
		N 248 
		C0 397 
		T0 169 
		P 195 
		N 212 
		C0 398 
		T0 196 
		P 213 
		N 212 
		C0 399 
		T0 197 
		P 214 
		N 212 
		C0 400 
		T0 198 
		P 147 
		N 212 
		C0 401 
		T0 199 
		P 127 
		N 129 
		C0 402 
		T0 200 
		P 215 
		N 213 
		C0 403 
		T0 201 
		P 128 
		N 129 
		C0 404 
		T0 202 
		P 143 
		N 214 
		C0 405 
		T0 203 
		P 216 
		N 214 
		C0 406 
		T0 204 
		P 161 
		N 214 
		C0 407 
		T0 205 
		P 162 
		N 214 
		C0 408 
		T0 206 
		P 217 
		N 249 
		C0 409 
		T0 207 
		P 216 
		N 250 
		C0 410 
		T0 204 
		P 160 
		N 251 
		C0 411 
		T0 208 
		P 163 
		N 252 
		C0 412 
		T0 209 
		P 154 
		N 253 
		C0 413 
		T0 210 
		P 153 
		N 254 
		C0 414 
		T0 211 
		P 218 
		N 255 
		C0 415 
		T0 212 
		P 164 
		N 222 
		C0 416 
		T0 213 
		P 148 
		N 256 
		C0 417 
		T0 214 
		P 145 
		N 257 
		C0 418 
		T0 215 
		P 219 
		N 258 
		C0 419 
		T0 216 
		P 144 
		N 226 
		C0 420 
		T0 217 
		P 194 
		N 259 
		C0 421 
		T0 218 
		P 220 
		N 260 
		C0 422 
		T0 219 
		P 213 
		N 261 
		C0 423 
		T0 197 
		P 195 
		N 262 
		C0 424 
		T0 196 
		P 150 
		N 231 
		C0 425 
		T0 220 
		P 152 
		N 263 
		C0 426 
		T0 221 
		P 157 
		N 264 
		C0 427 
		T0 222 
		P 221 
		N 265 
		C0 428 
		T0 223 
		P 182 
		N 266 
		C0 429 
		T0 224 
		P 181 
		N 267 
		C0 430 
		T0 160 
		P 178 
		N 268 
		C0 431 
		T0 225 
		P 215 
		N 269 
		C0 432 
		T0 201 
		P 128 
		N 270 
		C0 433 
		T0 202 
		P 161 
		N 240 
		C0 434 
		T0 205 
		P 219 
		N 212 
		C0 435 
		T0 216 
		P 144 
		N 212 
		C0 436 
		T0 217 
		P 213 
		N 271 
		C0 437 
		T0 197 
		P 214 
		N 272 
		C0 438 
		T0 198 
		P 215 
		N 273 
		C0 439 
		T0 201 
		P 219 
		N 274 
		C0 440 
		T0 216 
		P 216 
		N 275 
		C0 441 
		T0 204 
		P 118 
		N 276 
		C0 442 
		T0 144 
		P 120 
		N 277 
		C0 443 
		T0 147 
		P 119 
		N 278 
		C0 444 
		T0 146 
		P 222 
		N 279 
		C0 445 
		T0 226 
		P 87 
		N 280 
		C0 446 
		T0 142 
		P 223 
		N 281 
		C0 447 
		T0 227 
		P 88 
		N 83 
		C0 448 
		T0 228 
		P 224 
		N 282 
		C0 449 
		T0 229 
		P 122 
		N 283 
		C0 450 
		T0 150 
		P 124 
		N 283 
		C0 451 
		T0 153 
		P 125 
		N 124 
		C0 452 
		T0 154 
		P 87 
		N 82 
		C0 453 
		T0 142 
		P 223 
		N 284 
		C0 454 
		T0 227 
		P 224 
		N 284 
		C0 455 
		T0 229 
		P 196 
		N 285 
		C0 456 
		T0 144 
		P 225 
		N 286 
		C0 457 
		T0 226 
		P 198 
		N 287 
		C0 458 
		T0 146 
		P 197 
		N 288 
		C0 459 
		T0 147 
		P 166 
		N 289 
		C0 460 
		T0 142 
		P 226 
		N 290 
		C0 461 
		T0 227 
		P 227 
		N 291 
		C0 462 
		T0 229 
		P 165 
		N 170 
		C0 463 
		T0 228 
		P 199 
		N 292 
		C0 464 
		T0 150 
		P 200 
		N 292 
		C0 465 
		T0 153 
		P 201 
		N 210 
		C0 466 
		T0 154 
		P 227 
		N 293 
		C0 467 
		T0 229 
		P 226 
		N 293 
		C0 468 
		T0 227 
		P 166 
		N 171 
		C0 469 
		T0 142 
	}

	Mtl 4 { 
		{
			Name "#2" 
			Priority 32 
			Prim 11 { 
				{
					Type TRISTRIP
					Priority 32 
					Idx 4 { 10 7 9 8 }
				}
				{
					Type TRISTRIP
					Priority 32 
					Idx 4 { 7 12 11 13 }
				}
				{
					Type TRISTRIP
					Priority 32 
					Idx 4 { 21 18 20 19 }
				}
				{
					Type TRISTRIP
					Priority 32 
					Idx 4 { 22 23 24 20 }
				}
				{
					Type TRISTRIP
					Priority 32 
					Idx 4 { 32 33 31 34 }
				}
				{
					Type TRISTRIP
					Priority 32 
					Idx 5 { 35 36 37 31 38 }
				}
				{
					Type TRISTRIP2
					Priority 32 
					Idx 4 { 43 46 44 45 }
				}
				{
					Type TRISTRIP2
					Priority 32 
					Idx 4 { 47 49 48 45 }
				}
				{
					Type TRISTRIP2
					Priority 32 
					Idx 10 { 17 16 4 15 4 14 4 3 5 6 }
				}
				{
					Type TRISTRIP2
					Priority 32 
					Idx 11 { 40 30 41 30 42 30 39 30 27 29 28 }
				}
				{
					Type TRISTRIP
					Priority 32 
					Idx 15 { 0 1 2 16 2 52 2 50 2 51 2 41 2 26 25 }
				}
			}

		}
		{
			Name "#3" 
			Priority 32 
			Prim 42 { 
				{
					Type TRISTRIP
					Priority 32 
					Idx 4 { 186 183 185 184 }
				}
				{
					Type TRISTRIP
					Priority 32 
					Idx 4 { 191 192 190 193 }
				}
				{
					Type TRISTRIP
					Priority 32 
					Idx 4 { 322 323 321 324 }
				}
				{
					Type TRISTRIP
					Priority 32 
					Idx 4 { 331 328 330 329 }
				}
				{
					Type TRISTRIP
					Priority 32 
					Idx 14 { 262 263 261 264 259 264 293 294 292 291 288 289 287 290 }
				}
				{
					Type TRISTRIP
					Priority 32 
					Idx 11 { 160 159 69 67 68 66 225 224 225 297 298 }
				}
				{
					Type TRISTRIP2
					Priority 32 
					Idx 14 { 127 126 123 125 122 125 155 156 154 153 152 151 149 150 }
				}
				{
					Type TRISTRIP2
					Priority 32 
					Idx 9 { 241 98 242 99 243 99 102 100 103 }
				}
				{
					Type TRISTRIP
					Priority 32 
					Idx 4 { 100 101 99 98 }
				}
				{
					Type TRISTRIP
					Priority 32 
					Idx 10 { 211 212 213 104 108 104 107 106 172 173 }
				}
				{
					Type TRISTRIP
					Priority 32 
					Idx 7 { 310 311 245 246 104 105 106 }
				}
				{
					Type TRISTRIP2
					Priority 32 
					Idx 9 { 238 92 239 93 240 93 96 94 97 }
				}
				{
					Type TRISTRIP
					Priority 32 
					Idx 4 { 94 95 93 92 }
				}
				{
					Type TRISTRIP
					Priority 32 
					Idx 6 { 245 104 244 212 347 346 }
				}
				{
					Type TRISTRIP
					Priority 32 
					Idx 9 { 236 235 88 89 87 89 86 91 90 }
				}
				{
					Type TRISTRIP2
					Priority 32 
					Idx 4 { 91 237 89 235 }
				}
				{
					Type TRISTRIP2
					Priority 32 
					Idx 9 { 232 80 233 81 234 81 84 82 85 }
				}
				{
					Type TRISTRIP
					Priority 32 
					Idx 4 { 82 83 81 80 }
				}
				{
					Type TRISTRIP
					Priority 32 
					Idx 16 { 293 260 259 255 258 255 254 253 252 335 249 336 249 250 248 247 }
				}
				{
					Type TRISTRIP
					Priority 32 
					Idx 15 { 210 207 209 206 345 206 344 206 343 340 342 341 338 339 337 }
				}
				{
					Type TRISTRIP2
					Priority 32 
					Idx 7 { 340 208 206 202 206 203 207 }
				}
				{
					Type TRISTRIP
					Priority 32 
					Idx 8 { 199 200 201 205 204 205 203 202 }
				}
				{
					Type TRISTRIP
					Priority 32 
					Idx 12 { 215 216 217 58 218 58 57 55 56 55 54 53 }
				}
				{
					Type TRISTRIP
					Priority 32 
					Idx 17 { 158 65 157 64 159 64 67 63 66 223 224 223 297 223 295 222 296 }
				}
				{
					Type TRISTRIP2
					Priority 32 
					Idx 6 { 65 64 62 63 222 223 }
				}
				{
					Type TRISTRIP2
					Priority 32 
					Idx 12 { 299 230 231 229 76 75 76 77 76 79 78 161 }
				}
				{
					Type TRISTRIP2
					Priority 32 
					Idx 40 { 309 277 308 278 307 279 306 281 305 304 303 286 302 283 301 284 300 265 261 265 259 280 258 280 279 280 281 280 282 265 282 284 285 283 285 286 285 304 282 281 }
				}
				{
					Type TRISTRIP2
					Priority 32 
					Idx 17 { 248 249 251 252 251 254 256 258 257 279 257 278 276 277 276 275 274 }
				}
				{
					Type TRISTRIP
					Priority 32 
					Idx 10 { 134 135 133 128 132 128 131 128 130 129 }
				}
				{
					Type TRISTRIP
					Priority 32 
					Idx 48 { 136 137 138 137 139 140 171 140 170 141 169 141 168 143 167 166 167 148 165 145 164 147 163 147 162 124 123 124 122 142 119 142 141 142 143 142 144 124 144 147 146 145 146 148 146 166 144 143 }
				}
				{
					Type TRISTRIP
					Priority 32 
					Idx 29 { 155 122 121 122 116 119 116 117 115 113 198 111 197 111 110 111 109 111 112 113 114 117 118 119 120 141 120 140 137 }
				}
				{
					Type TRISTRIP2
					Priority 32 
					Idx 10 { 273 272 271 266 270 266 267 266 268 269 }
				}
				{
					Type TRISTRIP2
					Priority 32 
					Idx 17 { 160 174 70 74 70 73 70 72 71 72 226 228 226 227 226 312 298 }
				}
				{
					Type TRISTRIP
					Priority 32 
					Idx 12 { 320 318 317 313 316 313 315 313 314 318 319 320 }
				}
				{
					Type TRISTRIP
					Priority 32 
					Idx 12 { 181 182 180 179 175 176 175 177 175 178 180 181 }
				}
				{
					Type TRISTRIP
					Priority 32 
					Idx 3 { 61 59 60 }
				}
				{
					Type TRISTRIP2
					Priority 32 
					Idx 3 { 187 189 188 }
				}
				{
					Type TRISTRIP
					Priority 32 
					Idx 3 { 196 194 195 }
				}
				{
					Type TRISTRIP2
					Priority 32 
					Idx 3 { 214 12 13 }
				}
				{
					Type TRISTRIP
					Priority 32 
					Idx 3 { 221 219 220 }
				}
				{
					Type TRISTRIP2
					Priority 32 
					Idx 3 { 325 327 326 }
				}
				{
					Type TRISTRIP
					Priority 32 
					Idx 3 { 334 332 333 }
				}
			}

		}
		{
			Name "#4" 
			Priority 32 
			Prim 14 { 
				{
					Type TRISTRIP
					Priority 32 
					Idx 6 { 351 348 350 349 388 387 }
				}
				{
					Type TRISTRIP
					Priority 32 
					Idx 4 { 353 354 352 355 }
				}
				{
					Type TRISTRIP
					Priority 32 
					Idx 5 { 356 357 358 359 360 }
				}
				{
					Type TRISTRIP2
					Priority 32 
					Idx 4 { 403 355 404 402 }
				}
				{
					Type TRISTRIP2
					Priority 32 
					Idx 5 { 356 406 405 407 408 }
				}
				{
					Type TRISTRIP
					Priority 32 
					Idx 6 { 398 399 401 400 436 435 }
				}
				{
					Type TRISTRIP
					Priority 32 
					Idx 7 { 416 413 412 409 411 410 434 }
				}
				{
					Type TRISTRIP2
					Priority 32 
					Idx 12 { 410 419 409 415 413 415 414 415 417 419 418 420 }
				}
				{
					Type TRISTRIP2
					Priority 32 
					Idx 16 { 372 370 371 366 369 366 367 366 365 361 368 361 362 364 363 386 }
				}
				{
					Type TRISTRIP2
					Priority 32 
					Idx 4 { 364 361 370 366 }
				}
				{
					Type TRISTRIP2
					Priority 32 
					Idx 17 { 385 384 383 379 382 379 381 379 380 379 378 376 377 376 373 375 374 }
				}
				{
					Type TRISTRIP
					Priority 32 
					Idx 4 { 375 384 376 379 }
				}
				{
					Type TRISTRIP
					Priority 32 
					Idx 22 { 425 426 421 422 424 422 423 422 432 422 428 426 428 427 428 429 428 430 428 431 432 433 }
				}
				{
					Type TRISTRIP
					Priority 32 
					Idx 24 { 396 397 395 397 391 441 391 440 391 438 392 437 392 439 392 393 392 394 392 389 392 390 391 395 }
				}
			}

		}
		{
			Name "#2" 
			Priority 32 
			Prim 7 { 
				{
					Type TRISTRIP
					Priority 32 
					Idx 6 { 172 448 107 449 108 452 }
				}
				{
					Type TRISTRIP
					Priority 32 
					Idx 6 { 448 453 455 454 452 211 }
				}
				{
					Type TRISTRIP
					Priority 32 
					Idx 7 { 459 456 458 457 464 461 465 }
				}
				{
					Type TRISTRIP2
					Priority 32 
					Idx 4 { 461 460 457 456 }
				}
				{
					Type TRISTRIP2
					Priority 32 
					Idx 7 { 466 467 346 467 468 463 469 }
				}
				{
					Type TRISTRIP
					Priority 32 
					Idx 6 { 463 310 462 245 466 244 }
				}
				{
					Type TRISTRIP
					Priority 32 
					Idx 12 { 446 442 447 445 451 445 450 445 444 445 443 442 }
				}
			}

		}
	}

	Offset 0 
}
