{
	Skinned 0 
	PosSkin 0 
	Pos 273 { 
		0.358740	2.348184	-0.999868 
		0.358740	2.272960	-0.996889 
		0.201853	2.272960	-0.996889 
		0.201853	2.348184	-0.999869 
		0.087424	2.348184	-0.999868 
		0.087424	2.272960	-0.996889 
		-0.069215	2.272960	-0.996889 
		-0.069215	2.348184	-0.999869 
		-0.183643	2.348184	-0.999869 
		-0.183643	2.272960	-0.996889 
		-0.341647	2.272960	-0.996889 
		-0.341647	2.348184	-0.999869 
		-0.456075	2.348184	-0.999869 
		-0.456075	2.272960	-0.996889 
		-0.613816	2.272960	-0.996889 
		-0.613816	2.348184	-0.999869 
		0.554962	2.234581	-0.845695 
		0.554962	2.237391	-0.774897 
		0.020835	2.237378	-0.774713 
		0.020835	2.234567	-0.845512 
		-0.513292	2.237391	-0.774898 
		-0.513292	2.234581	-0.845697 
		0.020835	2.285947	-0.847547 
		0.554962	2.285960	-0.847731 
		-0.513292	2.285960	-0.847732 
		0.020835	2.288745	-0.776748 
		-0.513292	2.288759	-0.776932 
		0.554962	2.288759	-0.776932 
		0.650715	2.147612	-0.937215 
		0.650715	2.160657	-0.676893 
		-0.602892	2.160657	-0.676893 
		-0.602892	2.147612	-0.937215 
		0.675922	2.160663	-0.676895 
		0.675922	2.147617	-0.937217 
		-0.628099	2.147617	-0.937217 
		-0.628099	2.160663	-0.676896 
		0.628351	2.272960	-0.996889 
		0.628351	2.275137	-0.938725 
		-0.613816	2.275137	-0.938725 
		0.628351	2.348184	-0.999869 
		-0.613816	2.350362	-0.941704 
		0.628351	2.350362	-0.941704 
		0.565284	2.294195	-0.688647 
		0.630246	2.371006	-0.632620 
		-0.614870	2.371006	-0.632620 
		-0.549908	2.294195	-0.688648 
		0.565284	2.282686	-0.918359 
		-0.549908	2.282686	-0.918359 
		-0.614870	2.353512	-0.981782 
		0.630246	2.353512	-0.981782 
		0.473169	2.272960	-0.996889 
		0.473169	2.348184	-0.999869 
		0.551295	2.438214	-0.702878 
		-0.535919	2.438214	-0.702878 
		-0.535919	2.427406	-0.918594 
		0.551295	2.427406	-0.918594 
		-0.004251	2.201158	-0.485494 
		-0.004251	2.174133	-1.079644 
		-0.794052	2.139380	-1.052607 
		-0.794052	2.165139	-0.484802 
		-0.004251	2.114321	-1.191718 
		-0.804455	2.079545	-1.164674 
		-0.004251	1.548291	-1.713216 
		-0.941725	1.519851	-1.683485 
		-0.004251	1.387429	-2.572331 
		-0.941725	1.358989	-2.508920 
		-0.004251	1.251878	-2.635007 
		-0.941725	1.223439	-2.571596 
		-0.004251	0.717151	-2.621011 
		-0.941725	0.718358	-2.558175 
		-0.004251	0.683974	-2.680627 
		-0.941725	0.685181	-2.617791 
		-0.004251	0.419636	-2.675981 
		-0.941725	0.420842	-2.613133 
		-0.957073	0.414316	-1.403920 
		-0.669747	0.374937	-1.403172 
		-1.171700	0.376014	-1.402689 
		-1.168607	0.415393	-1.403437 
		-1.023192	0.397307	-2.416530 
		-1.038251	0.717910	-2.341331 
		-1.043298	0.686726	-2.568525 
		-1.012128	0.417345	-2.563649 
		-1.022757	0.717339	-2.533255 
		-0.970996	0.501063	-1.447397 
		-0.971604	0.533526	-0.454818 
		-1.022757	0.867811	-0.460911 
		-1.022757	0.823546	-1.609022 
		-1.022757	1.506534	-0.472162 
		-0.851017	2.126338	-0.484058 
		-0.851017	2.100739	-1.032686 
		-0.867953	2.054774	-1.132933 
		-1.022757	1.491584	-1.645294 
		-1.035193	0.917441	-1.804315 
		-1.022757	1.339531	-2.489072 
		-1.035193	0.905837	-2.160470 
		-1.022757	1.217390	-2.543317 
		-1.165790	0.396714	-0.451778 
		-1.163087	0.435933	-0.452531 
		-0.957073	0.438561	-0.453087 
		-1.154957	2.719612	-0.440256 
		-1.154957	2.793626	3.414546 
		1.139952	2.793626	3.414546 
		1.139952	2.719612	-0.440256 
		-1.248428	2.662906	-0.439167 
		-1.248428	2.736920	3.415638 
		-1.244820	0.573189	1.530598 
		-1.244799	0.541401	-0.398432 
		-1.244530	0.384430	-0.395418 
		-1.244530	0.421845	1.483351 
		-1.198081	2.738104	3.477267 
		-1.244530	0.458511	3.459384 
		-1.195103	0.459494	3.518586 
		-1.195347	0.646165	3.515201 
		-1.244817	0.626525	3.456158 
		-1.195103	0.465286	3.830132 
		-1.194194	0.372216	3.831628 
		1.179808	0.372216	3.831628 
		1.180096	0.465284	3.830132 
		1.183085	2.738104	3.477267 
		-1.198081	2.661732	-0.500278 
		-1.197974	0.538326	-0.457239 
		-1.197967	0.383289	-0.454097 
		1.183085	2.661732	-0.500278 
		1.183534	0.544021	-0.457355 
		1.183568	0.383289	-0.454097 
		0.785550	2.139380	-1.052607 
		0.785550	2.165139	-0.484803 
		0.795953	2.079545	-1.164674 
		0.933222	1.519851	-1.683485 
		0.933222	1.358989	-2.508920 
		0.933222	1.223439	-2.571596 
		0.933222	0.718358	-2.558175 
		0.933222	0.685181	-2.617791 
		0.933222	0.420842	-2.613133 
		1.160339	0.376014	-1.402689 
		0.661244	0.374937	-1.403172 
		0.948571	0.414316	-1.403920 
		1.160097	0.415393	-1.403437 
		1.014689	0.397307	-2.416530 
		1.003625	0.417345	-2.563649 
		1.034795	0.686726	-2.568525 
		1.029749	0.717910	-2.341331 
		1.014254	0.717339	-2.533255 
		1.014255	0.867811	-0.460911 
		0.966306	0.554464	-0.455200 
		0.966306	0.524814	-1.459301 
		1.014254	0.823546	-1.609022 
		1.014255	1.506534	-0.472162 
		0.842515	2.100739	-1.032686 
		0.842515	2.126338	-0.484058 
		0.859450	2.054774	-1.132933 
		1.014254	1.491584	-1.645294 
		1.026690	0.917441	-1.804315 
		1.026690	0.905837	-2.160470 
		1.014254	1.339531	-2.489072 
		1.014254	1.217390	-2.543317 
		1.154577	0.435933	-0.452531 
		1.154428	0.396714	-0.451778 
		0.948571	0.438561	-0.453087 
		1.233421	2.736920	3.415638 
		1.233421	2.662906	-0.439167 
		1.229534	0.384430	-0.395418 
		1.229804	0.542445	-0.398452 
		1.229842	0.582774	1.533590 
		1.229534	0.421845	1.483351 
		1.180328	0.636555	3.515375 
		1.229825	0.628889	3.456113 
		-1.193573	0.365101	3.461040 
		-0.671529	0.459494	3.518586 
		-0.888733	0.459494	3.518586 
		1.179383	0.365121	3.462086 
		1.180096	0.459494	3.518586 
		1.229534	0.458511	3.459384 
		1.335081	1.478705	-1.398710 
		1.335081	1.757637	-1.398711 
		1.374641	1.757637	-1.415018 
		1.374641	1.441652	-1.415018 
		1.368983	1.441652	-1.372606 
		1.368983	1.757637	-1.372606 
		1.002018	1.478705	-1.443158 
		1.041577	1.441652	-1.459454 
		1.035918	1.441652	-1.417053 
		1.002018	1.260170	-1.443158 
		1.041577	1.260170	-1.459454 
		1.035918	1.260170	-1.417053 
		1.434510	1.886081	-1.339992 
		1.258928	1.886081	-1.347662 
		1.258744	1.558825	-1.343660 
		1.434337	1.558825	-1.336001 
		1.348156	1.648330	-1.376797 
		1.348237	1.795081	-1.378591 
		-1.394387	1.757637	-1.415018 
		-1.354826	1.757637	-1.398711 
		-1.354826	1.478705	-1.398710 
		-1.394387	1.441652	-1.415018 
		-1.388728	1.757637	-1.372606 
		-1.388728	1.441652	-1.372606 
		-1.021767	1.478705	-1.443158 
		-1.061326	1.441652	-1.459454 
		-1.055667	1.441652	-1.417053 
		-1.021767	1.260170	-1.443158 
		-1.061326	1.260170	-1.459454 
		-1.055667	1.260170	-1.417053 
		-1.278639	1.558825	-1.342889 
		-1.278777	1.886081	-1.346892 
		-1.454428	1.886081	-1.340751 
		-1.454290	1.558825	-1.336760 
		-1.367758	1.648330	-1.376809 
		-1.367821	1.795081	-1.378603 
		-1.105362	0.645801	3.515208 
		-0.890653	0.644933	3.515223 
		-0.676392	0.644066	3.515239 
		-1.246345	1.519337	3.439016 
		-1.102547	0.459494	3.518586 
		1.087624	0.459494	3.518586 
		1.087877	0.636929	3.515369 
		0.883685	0.637755	3.515354 
		0.885707	0.459494	3.518586 
		0.673175	0.638606	3.515338 
		0.669755	0.459494	3.518586 
		-1.244830	0.595873	2.291173 
		-1.244990	0.680442	2.265534 
		-1.245518	0.981928	1.511050 
		-1.245487	1.018030	3.448641 
		-1.246326	1.470925	1.438909 
		-1.244530	0.437633	2.339146 
		1.229850	0.604493	2.288560 
		1.229534	0.437633	2.339146 
		1.229994	0.680442	2.265534 
		1.229994	0.661840	1.558273 
		1.230120	0.834439	1.745493 
		1.230120	0.840351	2.056073 
		-1.244990	0.661840	1.558273 
		-1.245128	0.834439	1.745493 
		-1.245128	0.840351	2.056073 
		0.000000	2.617332	3.523030 
		1.111849	2.617332	3.523030 
		1.111849	2.723259	3.523030 
		0.000000	2.723259	3.523030 
		1.111849	2.723259	3.474602 
		0.000000	2.723259	3.474602 
		0.000000	2.617332	3.474602 
		1.111849	2.617332	3.474602 
		-1.111849	2.617332	3.474602 
		-1.111849	2.617332	3.523030 
		-1.111849	2.723259	3.523030 
		-1.111849	2.723259	3.474602 
		0.000000	2.515201	-0.543347 
		0.000000	2.621129	-0.543347 
		1.111849	2.621129	-0.543347 
		1.111849	2.515201	-0.543347 
		0.000000	2.621129	-0.494919 
		1.111849	2.621129	-0.494919 
		0.000000	2.515201	-0.494919 
		1.111849	2.515201	-0.494919 
		-1.111849	2.515201	-0.494919 
		-1.111849	2.621129	-0.494919 
		-1.111849	2.621129	-0.543347 
		-1.111849	2.515201	-0.543347 
		-0.669747	0.349264	-2.416541 
		-0.669747	0.905363	-2.306141 
		-0.669747	0.917470	-1.651676 
		0.661244	0.349264	-2.416541 
		-0.846139	0.422563	1.483339 
		-0.846138	0.438350	2.339123 
		-0.846665	0.857768	2.249550 
		-0.846666	0.857849	1.581227 
		0.837637	0.422562	1.483339 
		0.837636	0.438350	2.339123 
		0.661244	0.905363	-2.306141 
		0.661244	0.917470	-1.651676 
		0.838163	0.857767	2.249550 
		0.838163	0.857849	1.581227 
	}

	Nrm 227 { 
		0.000000	-0.046875	-1.000000 
		0.000000	-1.000000	0.046875 
		0.000000	0.046875	1.000000 
		-0.656250	-0.765625	0.031250 
		0.671875	-0.734375	0.031250 
		0.734375	0.671875	-0.031250 
		-0.750000	0.656250	-0.031250 
		-0.625000	-0.031250	-0.781250 
		0.000000	0.718750	-0.687500 
		0.734375	-0.031250	-0.687500 
		0.000000	0.546875	-0.843750 
		0.640625	0.031250	0.765625 
		0.000000	0.781250	0.609375 
		-0.703125	0.031250	0.703125 
		0.000000	0.609375	0.781250 
		0.000000	-1.000000	0.031250 
		0.000000	1.000000	-0.031250 
		-1.000000	0.000000	0.000000 
		1.000000	0.000000	0.000000 
		0.000000	-0.593750	0.812500 
		0.000000	-0.671875	-0.750000 
		-0.750000	-0.656250	0.031250 
		0.750000	-0.656250	0.031250 
		0.000000	0.718750	0.687500 
		0.000000	0.656250	-0.765625 
		-0.671875	0.750000	-0.031250 
		0.671875	0.750000	-0.031250 
		0.000000	1.000000	-0.046875 
		-0.046875	1.000000	-0.046875 
		0.000000	0.765625	-0.656250 
		-0.296875	0.781250	-0.546875 
		0.015625	0.906250	-0.437500 
		-0.218750	0.890625	-0.421875 
		0.000000	0.734375	-0.671875 
		-0.203125	0.765625	-0.609375 
		0.000000	0.125000	-0.984375 
		-0.218750	0.234375	-0.953125 
		0.000000	0.656250	-0.750000 
		-0.171875	0.468750	-0.859375 
		0.000000	0.312500	-0.953125 
		-0.187500	0.593750	-0.781250 
		0.000000	-0.015625	-1.000000 
		-0.296875	-0.031250	-0.953125 
		-0.015625	-0.171875	-0.984375 
		-0.015625	-0.312500	-0.953125 
		-1.000000	-0.078125	-0.046875 
		-0.968750	0.234375	-0.046875 
		-0.765625	0.359375	-0.531250 
		-0.843750	-0.109375	-0.515625 
		-0.765625	0.312500	-0.562500 
		-0.984375	-0.156250	0.000000 
		-1.000000	-0.109375	0.000000 
		-1.000000	-0.031250	0.015625 
		-0.984375	0.171875	0.000000 
		-0.812500	0.578125	-0.031250 
		-0.781250	0.625000	-0.062500 
		-0.765625	0.593750	-0.250000 
		-0.921875	0.359375	-0.171875 
		-1.000000	0.015625	0.031250 
		-0.703125	0.562500	-0.437500 
		-1.000000	0.031250	-0.031250 
		-0.812500	0.109375	-0.578125 
		-1.000000	0.062500	0.000000 
		-1.000000	0.078125	0.000000 
		-0.187500	0.921875	-0.343750 
		-0.281250	0.906250	0.296875 
		0.265625	0.953125	0.171875 
		0.265625	0.906250	-0.312500 
		-0.953125	0.250000	-0.171875 
		-0.968750	0.187500	0.187500 
		-0.968750	0.000000	-0.218750 
		-0.171875	0.234375	0.953125 
		-0.984375	0.000000	0.171875 
		-0.343750	0.015625	0.937500 
		-0.562500	0.015625	0.828125 
		-0.968750	0.000000	0.265625 
		0.000000	0.015625	1.000000 
		0.265625	0.312500	0.906250 
		-0.296875	0.343750	-0.890625 
		-0.437500	-0.015625	-0.906250 
		-0.562500	-0.015625	-0.828125 
		0.296875	0.515625	-0.812500 
		0.437500	-0.015625	-0.906250 
		0.046875	1.000000	-0.046875 
		0.296875	0.781250	-0.546875 
		0.234375	0.859375	-0.453125 
		0.171875	0.828125	-0.531250 
		0.218750	0.234375	-0.953125 
		0.171875	0.468750	-0.859375 
		0.187500	0.593750	-0.781250 
		0.296875	-0.031250	-0.953125 
		0.015625	-0.312500	-0.953125 
		0.015625	-0.171875	-0.984375 
		1.000000	-0.078125	-0.046875 
		0.843750	-0.109375	-0.515625 
		0.765625	0.359375	-0.531250 
		0.968750	0.234375	-0.046875 
		0.765625	0.312500	-0.562500 
		1.000000	-0.109375	0.000000 
		0.984375	-0.156250	0.000000 
		1.000000	-0.031250	0.015625 
		0.984375	0.171875	0.000000 
		0.781250	0.625000	-0.062500 
		0.812500	0.578125	-0.031250 
		0.765625	0.593750	-0.250000 
		0.921875	0.359375	-0.171875 
		1.000000	0.015625	0.031250 
		1.000000	0.031250	-0.031250 
		0.703125	0.562500	-0.437500 
		0.812500	0.109375	-0.578125 
		0.015625	1.000000	-0.015625 
		0.953125	0.265625	0.156250 
		0.890625	0.359375	-0.250000 
		0.968750	0.000000	-0.218750 
		0.968750	0.000000	-0.265625 
		0.500000	0.015625	0.859375 
		0.968750	0.000000	0.265625 
		-0.703125	-0.375000	0.593750 
		-1.000000	-0.015625	0.000000 
		0.000000	1.000000	-0.015625 
		0.718750	-0.359375	0.593750 
		-0.703125	0.703125	-0.093750 
		-0.921875	0.000000	0.375000 
		0.125000	0.000000	-0.984375 
		0.609375	0.000000	-0.796875 
		-0.109375	-0.500000	0.859375 
		0.796875	0.000000	0.609375 
		0.109375	-0.500000	-0.859375 
		0.375000	0.000000	0.921875 
		-0.796875	0.000000	-0.609375 
		0.921875	0.000000	-0.375000 
		-0.125000	0.000000	0.984375 
		0.000000	1.000000	0.000000 
		0.000000	-1.000000	0.000000 
		-0.046875	0.015625	1.000000 
		0.234375	-0.218750	-0.953125 
		0.562500	-0.140625	-0.812500 
		-0.218750	-0.281250	-0.937500 
		0.359375	0.062500	-0.937500 
		0.296875	0.250000	-0.921875 
		-0.484375	0.125000	-0.859375 
		-0.125000	0.000000	-0.984375 
		0.921875	0.000000	0.375000 
		0.703125	0.703125	-0.093750 
		-0.609375	0.000000	-0.796875 
		-0.796875	0.000000	0.609375 
		0.109375	-0.500000	0.859375 
		-0.109375	-0.500000	-0.859375 
		-0.375000	0.000000	0.921875 
		0.796875	0.000000	-0.609375 
		-0.921875	0.000000	-0.375000 
		0.125000	0.000000	0.984375 
		0.031250	0.015625	1.000000 
		0.234375	-0.281250	-0.937500 
		-0.562500	-0.140625	-0.812500 
		0.281250	-0.093750	-0.953125 
		-0.296875	0.250000	-0.921875 
		-0.359375	0.062500	-0.937500 
		0.500000	0.125000	-0.859375 
		0.156250	0.015625	0.984375 
		-0.937500	0.000000	0.343750 
		0.000000	-0.703125	0.703125 
		0.578125	-0.578125	0.578125 
		0.578125	0.578125	0.578125 
		0.000000	0.703125	0.703125 
		0.703125	0.703125	0.000000 
		0.703125	-0.703125	0.000000 
		-0.703125	-0.703125	0.000000 
		-0.578125	-0.578125	0.578125 
		-0.578125	0.578125	0.578125 
		-0.703125	0.703125	0.000000 
		0.000000	-0.703125	-0.703125 
		0.000000	0.703125	-0.703125 
		0.578125	0.578125	-0.578125 
		0.578125	-0.578125	-0.578125 
		-0.578125	0.578125	-0.578125 
		-0.578125	-0.578125	-0.578125 
		0.000000	-0.968750	-0.218750 
		-0.125000	-0.906250	-0.390625 
		-0.093750	-0.921875	-0.359375 
		0.000000	-0.953125	-0.296875 
		0.000000	-0.203125	0.984375 
		0.078125	-0.859375	0.515625 
		0.093750	-0.375000	0.921875 
		0.156250	-0.906250	0.390625 
		0.062500	-0.859375	-0.500000 
		0.062500	-0.984375	-0.125000 
		0.046875	-0.609375	-0.781250 
		-0.046875	-0.437500	-0.890625 
		0.000000	-1.000000	0.015625 
		-0.250000	-0.875000	-0.421875 
		0.000000	-0.984375	-0.171875 
		0.218750	-0.546875	-0.812500 
		0.156250	-0.968750	-0.203125 
		0.125000	-0.656250	-0.734375 
		0.203125	-0.906250	0.359375 
		0.140625	-0.859375	0.484375 
		0.125000	-0.421875	0.890625 
		0.046875	-0.250000	-0.968750 
		0.015625	-0.250000	-0.968750 
		0.000000	-0.203125	-0.984375 
		0.015625	-0.265625	0.968750 
		0.031250	-0.265625	0.968750 
		0.093750	-0.921875	-0.359375 
		0.125000	-0.906250	-0.390625 
		-0.093750	-0.375000	0.921875 
		-0.078125	-0.859375	0.515625 
		-0.156250	-0.906250	0.390625 
		-0.062500	-0.984375	-0.125000 
		-0.062500	-0.859375	-0.500000 
		-0.046875	-0.609375	-0.781250 
		0.031250	-0.437500	-0.890625 
		0.250000	-0.875000	-0.421875 
		-0.218750	-0.546875	-0.812500 
		-0.140625	-0.656250	-0.734375 
		-0.156250	-0.968750	-0.203125 
		-0.140625	-0.859375	0.484375 
		-0.203125	-0.906250	0.359375 
		-0.125000	-0.421875	0.890625 
		-0.015625	-0.250000	-0.968750 
		-0.031250	-0.265625	0.968750 
		0.000000	-0.296875	0.953125 
		-0.015625	-0.265625	0.968750 
		0.000000	-0.031250	-1.000000 
		0.156250	0.062500	-0.984375 
		-0.031250	-1.000000	0.015625 
		-0.046875	-0.250000	-0.968750 
	}

	Cpv 615 { 
		0.481940	0.490448	0.479202	0.003922 
		0.484350	0.490486	0.479196	0.003922 
		0.484732	0.485862	0.489113	0.003922 
		0.482322	0.485824	0.489119	0.003922 
		0.482601	0.482451	0.496353	0.003922 
		0.485011	0.482490	0.496347	0.003922 
		0.485392	0.477873	0.506248	0.003922 
		0.482982	0.477835	0.506254	0.003922 
		0.483261	0.474463	0.513487	0.003922 
		0.485671	0.474501	0.513481	0.003922 
		0.486055	0.469844	0.523468	0.003922 
		0.483646	0.469806	0.523474	0.003922 
		0.483924	0.466434	0.530708	0.003922 
		0.486334	0.466472	0.530702	0.003922 
		0.486718	0.461823	0.540672	0.003922 
		0.484308	0.461785	0.540678	0.003922 
		0.494558	0.496568	0.466491	0.003922 
		0.498949	0.496699	0.466349	0.003922 
		0.500261	0.480958	0.500111	0.003922 
		0.495871	0.480827	0.500253	0.003922 
		0.501550	0.465215	0.533874	0.003922 
		0.497160	0.465085	0.534016	0.003922 
		0.494558	0.496568	0.466491	0.003922 
		0.495871	0.480827	0.500253	0.003922 
		0.494225	0.480800	0.500257	0.003922 
		0.492913	0.496542	0.466495	0.003922 
		0.497160	0.465085	0.534016	0.003922 
		0.495514	0.465058	0.534020	0.003922 
		0.501550	0.465215	0.533874	0.003922 
		0.500261	0.480958	0.500111	0.003922 
		0.498616	0.480931	0.500115	0.003922 
		0.499904	0.465189	0.533878	0.003922 
		0.498949	0.496699	0.466349	0.003922 
		0.497303	0.496673	0.466353	0.003922 
		0.498949	0.496699	0.466349	0.003922 
		0.494558	0.496568	0.466491	0.003922 
		0.491111	0.499257	0.460621	0.003922 
		0.507174	0.499737	0.460101	0.003922 
		0.497160	0.465085	0.534016	0.003922 
		0.501550	0.465215	0.533874	0.003922 
		0.510226	0.462791	0.539342	0.003922 
		0.494164	0.462311	0.539863	0.003922 
		0.492913	0.496542	0.466495	0.003922 
		0.497303	0.496673	0.466353	0.003922 
		0.507112	0.500480	0.458507	0.003922 
		0.491049	0.500000	0.459028	0.003922 
		0.499904	0.465189	0.533878	0.003922 
		0.495514	0.465058	0.534020	0.003922 
		0.494225	0.461568	0.541456	0.003922 
		0.510287	0.462048	0.540935	0.003922 
		0.494558	0.496568	0.466491	0.003922 
		0.492913	0.496542	0.466495	0.003922 
		0.491049	0.500000	0.459028	0.003922 
		0.491049	0.500000	0.459028	0.003922 
		0.491111	0.499257	0.460621	0.003922 
		0.494558	0.496568	0.466491	0.003922 
		0.495514	0.465058	0.534020	0.003922 
		0.497160	0.465085	0.534016	0.003922 
		0.494164	0.462311	0.539863	0.003922 
		0.494164	0.462311	0.539863	0.003922 
		0.494225	0.461568	0.541456	0.003922 
		0.495514	0.465058	0.534020	0.003922 
		0.501550	0.465215	0.533874	0.003922 
		0.499904	0.465189	0.533878	0.003922 
		0.510287	0.462048	0.540935	0.003922 
		0.510287	0.462048	0.540935	0.003922 
		0.510226	0.462791	0.539342	0.003922 
		0.501550	0.465215	0.533874	0.003922 
		0.497303	0.496673	0.466353	0.003922 
		0.498949	0.496699	0.466349	0.003922 
		0.507174	0.499737	0.460101	0.003922 
		0.507174	0.499737	0.460101	0.003922 
		0.507112	0.500480	0.458507	0.003922 
		0.497303	0.496673	0.466353	0.003922 
		0.483693	0.498432	0.462154	0.003922 
		0.487304	0.498539	0.462038	0.003922 
		0.490329	0.461931	0.540556	0.003922 
		0.486718	0.461823	0.540672	0.003922 
		0.481284	0.498394	0.462160	0.003922 
		0.484308	0.461785	0.540678	0.003922 
		0.487919	0.461892	0.540562	0.003922 
		0.484894	0.498501	0.462044	0.003922 
		0.486718	0.461823	0.540672	0.003922 
		0.490329	0.461931	0.540556	0.003922 
		0.487919	0.461892	0.540562	0.003922 
		0.484308	0.461785	0.540678	0.003922 
		0.490329	0.461931	0.540556	0.003922 
		0.487304	0.498539	0.462038	0.003922 
		0.484894	0.498501	0.462044	0.003922 
		0.487919	0.461892	0.540562	0.003922 
		0.487304	0.498539	0.462038	0.003922 
		0.483693	0.498432	0.462154	0.003922 
		0.481284	0.498394	0.462160	0.003922 
		0.484894	0.498501	0.462044	0.003922 
		0.502696	0.497139	0.465524	0.003922 
		0.503809	0.499125	0.461306	0.003922 
		0.506841	0.462429	0.540011	0.003922 
		0.505411	0.464273	0.536016	0.003922 
		0.488522	0.496716	0.465984	0.003922 
		0.491237	0.463849	0.536476	0.003922 
		0.484308	0.461785	0.540678	0.003922 
		0.481284	0.498394	0.462160	0.003922 
		0.502696	0.497139	0.465524	0.003922 
		0.505411	0.464273	0.536016	0.003922 
		0.491237	0.463849	0.536476	0.003922 
		0.488522	0.496716	0.465984	0.003922 
		0.505411	0.464273	0.536016	0.003922 
		0.506841	0.462429	0.540011	0.003922 
		0.484308	0.461785	0.540678	0.003922 
		0.491237	0.463849	0.536476	0.003922 
		0.503809	0.499125	0.461306	0.003922 
		0.502696	0.497139	0.465524	0.003922 
		0.488522	0.496716	0.465984	0.003922 
		0.481284	0.498394	0.462160	0.003922 
		0.484071	0.493858	0.471963	0.003922 
		0.484350	0.490486	0.479196	0.003922 
		0.481940	0.490448	0.479202	0.003922 
		0.481662	0.493820	0.471969	0.003922 
		0.485011	0.482490	0.496347	0.003922 
		0.482601	0.482451	0.496353	0.003922 
		0.485671	0.474501	0.513481	0.003922 
		0.483261	0.474463	0.513487	0.003922 
		0.486334	0.466472	0.530702	0.003922 
		0.483924	0.466434	0.530708	0.003922 
		0.506841	0.462429	0.540011	0.003922 
		0.503809	0.499125	0.461306	0.003922 
		0.497303	0.496673	0.466353	0.003922 
		0.500225	0.464596	0.535161	0.003922 
		0.481284	0.498394	0.462160	0.003922 
		0.484308	0.461785	0.540678	0.003922 
		0.486915	0.464198	0.535592	0.003922 
		0.484267	0.496240	0.466868	0.003922 
		0.484308	0.461785	0.540678	0.003922 
		0.506841	0.462429	0.540011	0.003922 
		0.500225	0.464596	0.535161	0.003922 
		0.486915	0.464198	0.535592	0.003922 
		0.503809	0.499125	0.461306	0.003922 
		0.481284	0.498394	0.462160	0.003922 
		0.484267	0.496240	0.466868	0.003922 
		0.497303	0.496673	0.466353	0.003922 
		0.500225	0.464596	0.535161	0.003922 
		0.497303	0.496673	0.466353	0.003922 
		0.484267	0.496240	0.466868	0.003922 
		0.486915	0.464198	0.535592	0.003922 
		0.500000	0.500000	0.500000	0.003922 
		0.500000	0.440589	0.500000	0.003922 
		0.500000	0.453266	0.500000	0.003922 
		0.500000	0.500000	0.500000	0.003922 
		0.500000	0.440589	0.500000	0.003922 
		0.500000	0.440589	0.500000	0.003922 
		0.500000	0.453266	0.500000	0.003922 
		0.500000	0.453266	0.500000	0.003922 
		0.500000	0.500000	0.500000	0.000000 
		0.500000	0.500000	0.500000	0.000000 
		0.500000	0.500000	0.650070	0.000000 
		0.500000	0.472757	0.672146	0.000000 
		0.500000	0.500000	0.500000	0.000000 
		0.500000	0.500000	0.500000	0.000000 
		0.500000	0.500000	0.650070	0.000000 
		0.500000	0.500000	0.650070	0.000000 
		0.500000	0.472757	0.672146	0.000000 
		0.500000	0.472757	0.672146	0.000000 
		0.500000	0.610968	0.642401	0.000000 
		0.500000	0.606404	0.578206	0.000000 
		0.500000	0.610968	0.642401	0.000000 
		0.500000	0.606404	0.578206	0.000000 
		0.500000	0.610968	0.642401	0.000000 
		0.500000	0.606404	0.578206	0.000000 
		0.500000	0.500000	0.500000	0.000000 
		0.500000	0.500000	0.500000	0.000000 
		0.555335	0.527630	0.500000	0.000000 
		0.555335	0.527630	0.500000	0.000000 
		0.500000	0.606404	0.500000	0.000000 
		0.500000	0.606404	0.500000	0.000000 
		0.500000	0.606404	0.578206	0.000000 
		0.500000	0.606404	0.578206	0.000000 
		0.500000	0.606404	0.578206	0.000000 
		0.500000	0.500000	0.500000	0.000000 
		0.500000	0.500000	0.500000	0.000000 
		0.500000	0.500000	0.500000	0.000000 
		0.500000	0.500000	0.500000	0.000000 
		0.500000	0.500000	0.500000	0.000000 
		0.500000	0.500000	0.500000	0.003922 
		0.500000	0.453266	0.500000	0.003922 
		0.500000	0.453266	0.500000	0.003922 
		0.500000	0.500000	0.500000	0.000000 
		0.500000	0.500000	0.500000	0.000000 
		0.500000	0.472757	0.672146	0.000000 
		0.500000	0.500000	0.500000	0.000000 
		0.500000	0.472757	0.672146	0.000000 
		0.500000	0.606404	0.578206	0.000000 
		0.500000	0.453266	0.500000	0.003922 
		0.500000	0.500000	0.500000	0.003922 
		0.500000	0.453266	0.500000	0.003922 
		0.500000	0.453266	0.500000	0.003922 
		0.500000	0.500000	0.500000	0.000000 
		0.500000	0.472757	0.672146	0.000000 
		0.500000	0.500000	0.500000	0.000000 
		0.500000	0.472757	0.672146	0.000000 
		0.500000	0.472757	0.672146	0.000000 
		0.500000	0.606404	0.578206	0.000000 
		0.500000	0.606404	0.578206	0.000000 
		0.500000	0.606404	0.578206	0.000000 
		0.555335	0.527630	0.500000	0.000000 
		0.500000	0.500000	0.500000	0.000000 
		0.500000	0.500000	0.500000	0.000000 
		0.555335	0.527630	0.500000	0.000000 
		0.500000	0.500000	0.500000	0.000000 
		0.500000	0.500000	0.500000	0.000000 
		0.555335	0.527630	0.500000	0.000000 
		0.500000	0.500000	0.500000	0.000000 
		0.500000	0.500000	0.500000	0.003922 
		0.500000	0.500000	0.500000	0.003922 
		0.500000	0.500000	0.500000	0.003922 
		0.500000	0.500000	0.500000	0.003922 
		0.500000	0.500000	0.500000	0.003922 
		0.500000	0.500000	0.500000	0.003922 
		0.603298	0.500000	0.500000	0.000000 
		0.500000	0.500000	0.500000	0.000000 
		0.500000	0.500000	0.500000	0.000000 
		0.603298	0.500000	0.500000	0.000000 
		0.500000	0.500000	0.500000	0.003922 
		0.591089	0.412238	0.500000	0.000000 
		0.560120	0.415022	0.500000	0.000000 
		0.532544	0.412937	0.500000	0.000000 
		0.566312	0.410358	0.500000	0.000000 
		0.708566	0.402761	0.448729	0.000000 
		0.708566	0.411988	0.406803	0.000000 
		0.500000	0.500000	0.500000	0.000000 
		0.500000	0.500000	0.500000	0.000000 
		0.500000	0.500000	0.500000	0.003922 
		0.500000	0.500000	0.500000	0.003922 
		0.500000	0.500000	0.500000	0.000000 
		0.500000	0.500000	0.500000	0.000000 
		0.500000	0.500000	0.500000	0.003922 
		0.500000	0.500000	0.500000	0.000000 
		0.500000	0.500000	0.500000	0.000000 
		0.500000	0.500000	0.500000	0.003922 
		0.500000	0.500000	0.500000	0.003922 
		0.500000	0.500000	0.500000	0.003922 
		0.500000	0.500000	0.500000	0.003922 
		0.500000	0.500000	0.500000	0.000000 
		0.500000	0.500000	0.500000	0.000000 
		0.500000	0.500000	0.500000	0.000000 
		0.500000	0.500000	0.500000	0.000000 
		0.500000	0.500000	0.500000	0.000000 
		0.500000	0.500000	0.500000	0.000000 
		0.500000	0.500000	0.500000	0.000000 
		0.500000	0.500000	0.500000	0.000000 
		0.500000	0.500000	0.500000	0.000000 
		0.500000	0.500000	0.500000	0.000000 
		0.500000	0.500000	0.500000	0.000000 
		0.500000	0.500000	0.500000	0.000000 
		0.500000	0.500000	0.500000	0.000000 
		0.500000	0.500000	0.500000	0.000000 
		0.500000	0.500000	0.500000	0.000000 
		0.500000	0.500000	0.500000	0.000000 
		0.500000	0.500000	0.500000	0.000000 
		0.500000	0.500000	0.500000	0.000000 
		0.500000	0.500000	0.500000	0.000000 
		0.500000	0.500000	0.500000	0.000000 
		0.500000	0.500000	0.500000	0.000000 
		0.500000	0.500000	0.500000	0.000000 
		0.500000	0.500000	0.500000	0.003922 
		0.500000	0.500000	0.500000	0.003922 
		0.500000	0.500000	0.500000	0.003922 
		0.500000	0.500000	0.500000	0.000000 
		0.500000	0.500000	0.500000	0.000000 
		0.500000	0.500000	0.500000	0.000000 
		0.500000	0.500000	0.500000	0.000000 
		0.500000	0.500000	0.500000	0.000000 
		0.500000	0.500000	0.500000	0.000000 
		0.500000	0.500000	0.500000	0.003922 
		0.500000	0.500000	0.500000	0.003922 
		0.500000	0.500000	0.500000	0.003922 
		0.500000	0.500000	0.500000	0.003922 
		0.500000	0.500000	0.500000	0.000000 
		0.500000	0.500000	0.500000	0.000000 
		0.500000	0.500000	0.500000	0.000000 
		0.500000	0.500000	0.500000	0.000000 
		0.500000	0.500000	0.500000	0.000000 
		0.500000	0.500000	0.500000	0.000000 
		0.500000	0.500000	0.500000	0.000000 
		0.500000	0.500000	0.500000	0.000000 
		0.500000	0.500000	0.500000	0.000000 
		0.500000	0.500000	0.500000	0.000000 
		0.500000	0.500000	0.500000	0.000000 
		0.500000	0.500000	0.500000	0.000000 
		0.500000	0.500000	0.500000	0.000000 
		0.500000	0.500000	0.500000	0.000000 
		0.500000	0.500000	0.500000	0.000000 
		0.500000	0.500000	0.500000	0.000000 
		0.500000	0.500000	0.500000	0.003922 
		0.500000	0.500000	0.500000	0.003922 
		0.500000	0.500000	0.500000	0.000000 
		0.500000	0.500000	0.500000	0.000000 
		0.500000	0.500000	0.500000	0.000000 
		0.500000	0.500000	0.500000	0.000000 
		0.500000	0.500000	0.500000	0.003922 
		0.500000	0.500000	0.500000	0.000000 
		0.500000	0.500000	0.500000	0.000000 
		0.500000	0.500000	0.500000	0.003922 
		0.560120	0.415022	0.500000	0.000000 
		0.591089	0.412238	0.500000	0.000000 
		0.542931	0.500000	0.500000	0.000000 
		0.708566	0.411988	0.406803	0.000000 
		0.708566	0.402761	0.448729	0.000000 
		0.560120	0.415022	0.500000	0.000000 
		0.542931	0.500000	0.500000	0.000000 
		0.511025	0.486292	0.500000	0.000000 
		0.513434	0.454028	0.500000	0.000000 
		0.708566	0.402761	0.448729	0.000000 
		0.500000	0.500000	0.500000	0.000000 
		0.500000	0.500000	0.500000	0.000000 
		0.500000	0.500000	0.500000	0.000000 
		0.500000	0.500000	0.500000	0.000000 
		0.500000	0.500000	0.500000	0.000000 
		0.500000	0.500000	0.500000	0.000000 
		0.500000	0.500000	0.500000	0.000000 
		0.294152	0.467394	0.691246	0.000000 
		0.342864	0.463108	0.691246	0.000000 
		0.341959	0.456252	0.724575	0.000000 
		0.286776	0.461108	0.724575	0.000000 
		0.258592	0.467110	0.707649	0.000000 
		0.313775	0.462254	0.707649	0.000000 
		0.500000	0.500000	0.500000	0.000000 
		0.500000	0.500000	0.500000	0.000000 
		0.500000	0.500000	0.500000	0.000000 
		0.500000	0.500000	0.500000	0.000000 
		0.500000	0.500000	0.500000	0.000000 
		0.500000	0.500000	0.500000	0.000000 
		0.313775	0.462254	0.707649	0.000000 
		0.341959	0.456252	0.724575	0.000000 
		0.342864	0.463108	0.691246	0.000000 
		0.500000	0.500000	0.500000	0.000000 
		0.500000	0.500000	0.500000	0.000000 
		0.500000	0.500000	0.500000	0.000000 
		0.292586	0.456395	0.744766	0.000000 
		0.353153	0.476794	0.621123	0.000000 
		0.293232	0.482347	0.619777	0.000000 
		0.232670	0.461945	0.743432	0.000000 
		0.304188	0.465942	0.693979	0.000000 
		0.232670	0.461945	0.743432	0.000000 
		0.293232	0.482347	0.619777	0.000000 
		0.331059	0.463453	0.694581	0.000000 
		0.292586	0.456395	0.744766	0.000000 
		0.353153	0.476794	0.621123	0.000000 
		0.547005	0.235840	0.624529	0.000000 
		0.520438	0.274103	0.594150	0.000000 
		0.584042	0.386172	0.500000	0.000000 
		0.605578	0.372107	0.500000	0.000000 
		0.570829	0.257804	0.604007	0.000000 
		0.604941	0.374716	0.500000	0.000000 
		0.500000	0.500000	0.500000	0.000000 
		0.500000	0.500000	0.500000	0.000000 
		0.500000	0.500000	0.500000	0.000000 
		0.500000	0.500000	0.500000	0.000000 
		0.500000	0.500000	0.500000	0.000000 
		0.500000	0.500000	0.500000	0.000000 
		0.570829	0.257804	0.604007	0.000000 
		0.520438	0.274103	0.594150	0.000000 
		0.547005	0.235840	0.624529	0.000000 
		0.500000	0.500000	0.500000	0.000000 
		0.500000	0.500000	0.500000	0.000000 
		0.500000	0.500000	0.500000	0.000000 
		0.629880	0.468967	0.420122	0.000000 
		0.434571	0.208570	0.595753	0.000000 
		0.562682	0.146715	0.698937	0.000000 
		0.801968	0.331389	0.523311	0.000000 
		0.629880	0.468967	0.420122	0.000000 
		0.801968	0.331389	0.523311	0.000000 
		0.626942	0.333899	0.534993	0.000000 
		0.562682	0.146715	0.698937	0.000000 
		0.519637	0.251083	0.613752	0.000000 
		0.434571	0.208570	0.595753	0.000000 
		0.500000	0.500000	0.500000	0.003922 
		0.488163	0.419783	0.500000	0.000000 
		0.485910	0.451686	0.396808	0.000000 
		0.513434	0.454028	0.500000	0.000000 
		0.511025	0.486292	0.500000	0.000000 
		0.483662	0.483522	0.396808	0.000000 
		0.485910	0.451686	0.396808	0.000000 
		0.500000	0.500000	0.500000	0.000000 
		0.500000	0.500000	0.500000	0.000000 
		0.500000	0.500000	0.500000	0.000000 
		0.639691	0.500000	0.500000	0.000000 
		0.532544	0.412937	0.500000	0.000000 
		0.500000	0.500000	0.500000	0.003922 
		0.500000	0.500000	0.500000	0.003922 
		0.560120	0.415022	0.500000	0.000000 
		0.515806	0.422268	0.500000	0.000000 
		0.488163	0.419783	0.500000	0.000000 
		0.532544	0.412937	0.500000	0.000000 
		0.515806	0.422268	0.500000	0.000000 
		0.560120	0.415022	0.500000	0.000000 
		0.500000	0.500000	0.500000	0.000000 
		0.500000	0.500000	0.500000	0.000000 
		0.500000	0.500000	0.500000	0.000000 
		0.500000	0.500000	0.500000	0.000000 
		0.500000	0.500000	0.500000	0.000000 
		0.500000	0.500000	0.500000	0.000000 
		0.500000	0.500000	0.500000	0.000000 
		0.500000	0.500000	0.500000	0.000000 
		0.500000	0.500000	0.500000	0.000000 
		0.500000	0.500000	0.500000	0.000000 
		0.500000	0.500000	0.500000	0.000000 
		0.500000	0.500000	0.500000	0.000000 
		0.500000	0.500000	0.500000	0.000000 
		0.483662	0.483522	0.396808	0.000000 
		0.500000	0.500000	0.500000	0.000000 
		0.500000	0.500000	0.500000	0.003922 
		0.532544	0.412937	0.500000	0.000000 
		0.500000	0.500000	0.500000	0.000000 
		0.500000	0.500000	0.500000	0.000000 
		0.500000	0.500000	0.500000	0.000000 
		0.500000	0.606404	0.500000	0.000000 
		0.500000	0.500000	0.500000	0.000000 
		0.500000	0.500000	0.500000	0.000000 
		0.500000	0.500000	0.500000	0.000000 
		0.500000	0.500000	0.500000	0.000000 
		0.500000	0.500000	0.500000	0.000000 
		0.603298	0.500000	0.500000	0.000000 
		0.566312	0.410358	0.500000	0.000000 
		0.603298	0.500000	0.500000	0.000000 
		0.639691	0.500000	0.500000	0.000000 
		0.639691	0.500000	0.500000	0.000000 
		0.639691	0.500000	0.500000	0.000000 
		0.639691	0.500000	0.500000	0.000000 
		0.500000	0.500000	0.500000	0.003922 
		0.500000	0.500000	0.500000	0.003922 
		0.500000	0.500000	0.500000	0.000000 
		0.500000	0.500000	0.500000	0.000000 
		0.500000	0.500000	0.500000	0.003922 
		0.500000	0.500000	0.500000	0.003922 
		0.500000	0.500000	0.500000	0.000000 
		0.500000	0.500000	0.500000	0.000000 
		0.566312	0.410358	0.500000	0.000000 
		0.603298	0.500000	0.500000	0.000000 
		0.603298	0.500000	0.500000	0.000000 
		0.591089	0.412238	0.500000	0.000000 
		0.500000	0.500000	0.500000	0.000000 
		0.500000	0.500000	0.500000	0.000000 
		0.500000	0.500000	0.500000	0.000000 
		0.500000	0.500000	0.500000	0.000000 
		0.500000	0.500000	0.500000	0.000000 
		0.500000	0.500000	0.500000	0.000000 
		0.500000	0.500000	0.500000	0.000000 
		0.500000	0.500000	0.500000	0.000000 
		0.500000	0.500000	0.500000	0.000000 
		0.500000	0.500000	0.500000	0.000000 
		0.500000	0.500000	0.500000	0.000000 
		0.500000	0.500000	0.500000	0.000000 
		0.500000	0.500000	0.500000	0.000000 
		0.500000	0.500000	0.500000	0.003922 
		0.500000	0.500000	0.500000	0.000000 
		0.500000	0.500000	0.500000	0.000000 
		0.500000	0.500000	0.500000	0.003922 
		0.603298	0.500000	0.500000	0.000000 
		0.603298	0.500000	0.500000	0.000000 
		0.639691	0.500000	0.500000	0.000000 
		0.603298	0.500000	0.500000	0.000000 
		0.639691	0.500000	0.500000	0.000000 
		0.603298	0.500000	0.500000	0.000000 
		0.502518	0.425210	0.500000	0.003922 
		0.500000	0.500000	0.500000	0.003922 
		0.492875	0.499760	0.500000	0.003922 
		0.495393	0.424970	0.500000	0.003922 
		0.492875	0.499760	0.500000	0.003922 
		0.495393	0.424970	0.500000	0.003922 
		0.502518	0.425210	0.500000	0.003922 
		0.500000	0.500000	0.500000	0.003922 
		0.500000	0.500000	0.500000	0.003922 
		0.500000	0.500000	0.500000	0.003922 
		0.492875	0.499760	0.500000	0.003922 
		0.492875	0.499760	0.500000	0.003922 
		0.505037	0.350420	0.500000	0.003922 
		0.505037	0.350420	0.500000	0.003922 
		0.497911	0.350180	0.500000	0.003922 
		0.497911	0.350180	0.500000	0.003922 
		0.497911	0.350180	0.500000	0.003922 
		0.495393	0.424970	0.500000	0.003922 
		0.497911	0.350180	0.500000	0.003922 
		0.505037	0.350420	0.500000	0.003922 
		0.497911	0.350180	0.500000	0.003922 
		0.505037	0.350420	0.500000	0.003922 
		0.502518	0.425210	0.500000	0.003922 
		0.493657	0.381406	0.500000	0.003922 
		0.504956	0.380801	0.500000	0.003922 
		0.498613	0.262207	0.500000	0.003922 
		0.487314	0.262811	0.500000	0.003922 
		0.504956	0.380801	0.500000	0.003922 
		0.498613	0.262207	0.500000	0.003922 
		0.493657	0.381406	0.500000	0.003922 
		0.487314	0.262811	0.500000	0.003922 
		0.487314	0.262811	0.500000	0.003922 
		0.498613	0.262207	0.500000	0.003922 
		0.498613	0.262207	0.500000	0.003922 
		0.487314	0.262811	0.500000	0.003922 
		0.500000	0.500000	0.500000	0.003922 
		0.511299	0.499396	0.500000	0.003922 
		0.511299	0.499396	0.500000	0.003922 
		0.500000	0.500000	0.500000	0.003922 
		0.511299	0.499396	0.500000	0.003922 
		0.511299	0.499396	0.500000	0.003922 
		0.504956	0.380801	0.500000	0.003922 
		0.500000	0.500000	0.500000	0.003922 
		0.511299	0.499396	0.500000	0.003922 
		0.500000	0.500000	0.500000	0.003922 
		0.493657	0.381406	0.500000	0.003922 
		0.639691	0.500000	0.500000	0.000000 
		0.481284	0.498394	0.462160	0.003922 
		0.483693	0.498432	0.462154	0.003922 
		0.500000	0.606404	0.500000	0.000000 
		0.500000	0.606404	0.500000	0.000000 
		0.500000	0.606404	0.578206	0.000000 
		0.500000	0.610968	0.642401	0.000000 
		0.500000	0.606404	0.500000	0.000000 
		0.500000	0.472757	0.500000	0.000000 
		0.500000	0.606404	0.500000	0.000000 
		0.500000	0.606404	0.500000	0.000000 
		0.500000	0.500000	0.500000	0.000000 
		0.500000	0.500000	0.500000	0.000000 
		0.500000	0.500000	0.500000	0.000000 
		0.500000	0.500000	0.500000	0.000000 
		0.500000	0.500000	0.500000	0.000000 
		0.500000	0.500000	0.500000	0.000000 
		0.500000	0.500000	0.500000	0.000000 
		0.500000	0.500000	0.500000	0.000000 
		0.500000	0.500000	0.500000	0.000000 
		0.500000	0.500000	0.500000	0.000000 
		0.555335	0.527630	0.500000	0.000000 
		0.500000	0.606404	0.578206	0.000000 
		0.500000	0.606404	0.500000	0.000000 
		0.500000	0.500000	0.500000	0.000000 
		0.500000	0.500000	0.500000	0.000000 
		0.500000	0.472757	0.500000	0.000000 
		0.500000	0.500000	0.500000	0.000000 
		0.500000	0.500000	0.500000	0.000000 
		0.500000	0.500000	0.500000	0.000000 
		0.500000	0.500000	0.500000	0.000000 
		0.500000	0.500000	0.500000	0.000000 
		0.603298	0.500000	0.500000	0.000000 
		0.603298	0.500000	0.500000	0.000000 
		0.500000	0.500000	0.500000	0.000000 
		0.603298	0.500000	0.500000	0.000000 
		0.500000	0.500000	0.500000	0.000000 
		0.603298	0.500000	0.500000	0.000000 
		0.603298	0.500000	0.500000	0.000000 
		0.603298	0.500000	0.500000	0.000000 
		0.500000	0.500000	0.500000	0.000000 
		0.603298	0.500000	0.500000	0.000000 
		0.500000	0.500000	0.500000	0.000000 
		0.500000	0.500000	0.500000	0.000000 
		0.500000	0.500000	0.500000	0.000000 
		0.500000	0.500000	0.500000	0.000000 
		0.500000	0.500000	0.500000	0.000000 
		0.500000	0.500000	0.500000	0.000000 
		0.591089	0.412238	0.500000	0.000000 
		0.500000	0.500000	0.500000	0.000000 
		0.500000	0.500000	0.500000	0.000000 
		0.500000	0.500000	0.500000	0.000000 
		0.500000	0.500000	0.500000	0.000000 
		0.500000	0.500000	0.500000	0.000000 
		0.500000	0.500000	0.500000	0.000000 
		0.500000	0.500000	0.500000	0.000000 
		0.500000	0.500000	0.500000	0.000000 
		0.500000	0.500000	0.500000	0.000000 
		0.500000	0.500000	0.500000	0.000000 
		0.500000	0.500000	0.500000	0.000000 
		0.500000	0.500000	0.500000	0.000000 
		0.500000	0.500000	0.500000	0.000000 
		0.500000	0.500000	0.500000	0.000000 
		0.500000	0.500000	0.500000	0.000000 
		0.500000	0.500000	0.500000	0.000000 
		0.500000	0.500000	0.500000	0.000000 
		0.500000	0.500000	0.500000	0.000000 
		0.500000	0.500000	0.500000	0.000000 
		0.500000	0.500000	0.500000	0.000000 
		0.500000	0.500000	0.500000	0.000000 
		0.500000	0.500000	0.500000	0.000000 
		0.500000	0.500000	0.500000	0.000000 
		0.500000	0.500000	0.500000	0.000000 
		0.500000	0.500000	0.500000	0.000000 
		0.500000	0.500000	0.500000	0.000000 
		0.500000	0.500000	0.500000	0.000000 
		0.500000	0.500000	0.500000	0.000000 
		0.500000	0.500000	0.500000	0.000000 
		0.500000	0.500000	0.500000	0.000000 
		0.500000	0.500000	0.500000	0.000000 
		0.500000	0.500000	0.500000	0.000000 
		0.500000	0.500000	0.500000	0.000000 
		0.500000	0.500000	0.500000	0.000000 
		0.500000	0.500000	0.500000	0.000000 
		0.500000	0.500000	0.500000	0.000000 
		0.500000	0.500000	0.500000	0.000000 
		0.500000	0.500000	0.500000	0.000000 
		0.603298	0.500000	0.500000	0.000000 
		0.500000	0.500000	0.500000	0.000000 
		0.603298	0.500000	0.500000	0.000000 
		0.591089	0.412238	0.500000	0.000000 
		0.500000	0.500000	0.500000	0.000000 
		0.500000	0.500000	0.500000	0.000000 
		0.500000	0.500000	0.500000	0.000000 
		0.542931	0.500000	0.500000	0.000000 
		0.591089	0.412238	0.500000	0.000000 
		0.500000	0.500000	0.500000	0.000000 
		0.708566	0.411988	0.406803	0.000000 
		0.542931	0.500000	0.500000	0.000000 
		0.591089	0.412238	0.500000	0.000000 
		0.500000	0.500000	0.500000	0.000000 
		0.500000	0.500000	0.500000	0.000000 
		0.500000	0.500000	0.500000	0.000000 
		0.603298	0.500000	0.500000	0.000000 
		0.500000	0.500000	0.500000	0.000000 
		0.500000	0.500000	0.500000	0.000000 
	}

	Tex0 322 { 
		0.851563	0.059570 
		0.851563	0.007813 
		0.746094	0.007813 
		0.746094	0.059570 
		0.177734	0.640625 
		0.407227	0.637695 
		0.029297	0.025391 
		0.648438	0.007813 
		0.648438	0.059570 
		0.252930	0.918945 
		0.252930	0.953125 
		0.088867	0.950195 
		0.088867	0.918945 
		0.240234	0.931641 
		0.240234	0.867188 
		0.083984	0.865234 
		0.094727	0.929688 
		0.240234	0.754883 
		0.057617	0.753906 
		0.252930	0.750977 
		0.051758	0.748047 
		0.047852	0.712891 
		0.252930	0.715820 
		0.249023	0.711914 
		0.249023	0.682617 
		0.451172	0.676758 
		0.451172	0.706055 
		0.249023	0.565430 
		0.451172	0.565430 
		0.249023	0.557617 
		0.451172	0.558594 
		0.249023	0.500000 
		0.451172	0.500000 
		0.702148	0.522461 
		0.767578	0.499023 
		0.653320	0.500000 
		0.654297	0.522461 
		0.435547	0.500000 
		0.414063	0.568359 
		0.462891	0.558594 
		0.463867	0.500000 
		0.457031	0.568359 
		0.859375	0.073242 
		0.662109	0.079102 
		0.663086	0.138672 
		0.886719	0.131836 
		0.665039	0.253906 
		0.673828	0.400391 
		0.762695	0.399414 
		0.779297	0.391602 
		0.882813	0.251953 
		0.916016	0.148438 
		0.985352	0.224609 
		0.932617	0.146484 
		0.994141	0.203125 
		0.992188	0.113281 
		0.077148	0.949219 
		0.077148	0.918945 
		0.070313	0.865234 
		0.083008	0.927734 
		0.039063	0.753906 
		0.035156	0.747070 
		0.031250	0.711914 
		0.468750	0.674805 
		0.468750	0.702148 
		0.468750	0.565430 
		0.473633	0.558594 
		0.466797	0.499023 
		0.849609	0.500000 
		0.602539	0.500000 
		0.602539	0.522461 
		0.849609	0.522461 
		0.608398	0.524414 
		0.826172	0.524414 
		0.826172	0.570313 
		0.608398	0.568359 
		0.775391	0.495117 
		0.775391	0.480469 
		0.887695	0.480469 
		0.887695	0.495117 
		0.771484	0.495117 
		0.771484	0.480469 
		0.047852	0.079102 
		0.047852	0.073242 
		0.773438	0.480469 
		0.500977	0.518555 
		0.511719	0.518555 
		0.511719	0.572266 
		0.500977	0.566406 
		0.501953	0.522461 
		0.501953	0.500977 
		0.998047	0.500977 
		0.998047	0.522461 
		0.890625	0.480469 
		0.773438	0.495117 
		0.890625	0.495117 
		0.052734	0.078125 
		0.052734	0.073242 
		0.416016	0.950195 
		0.416016	0.918945 
		0.419922	0.865234 
		0.408203	0.929688 
		0.446289	0.753906 
		0.449219	0.748047 
		0.449219	0.712891 
		0.046875	0.676758 
		0.046875	0.706055 
		0.046875	0.565430 
		0.046875	0.558594 
		0.046875	0.500000 
		0.737305	0.500000 
		0.550781	0.499023 
		0.658203	0.521484 
		0.737305	0.521484 
		0.662109	0.083008 
		0.861328	0.078125 
		0.427734	0.949219 
		0.427734	0.918945 
		0.433594	0.865234 
		0.420898	0.927734 
		0.463867	0.753906 
		0.466797	0.747070 
		0.466797	0.711914 
		0.029297	0.702148 
		0.029297	0.674805 
		0.029297	0.565430 
		0.024414	0.558594 
		0.031250	0.499023 
		0.833008	0.569336 
		0.833008	0.524414 
		0.892578	0.480469 
		0.892578	0.495117 
		0.003906	0.474609 
		0.005859	0.077148 
		0.015625	0.076172 
		0.013672	0.474609 
		0.126953	0.790039 
		0.133789	0.791016 
		0.133789	0.783203 
		0.095703	0.779297 
		0.094727	0.787109 
		0.673828	0.525391 
		0.648438	0.525391 
		0.613281	0.573242 
		0.131836	0.512695 
		0.384766	0.562500 
		0.459961	0.562500 
		0.459961	0.550781 
		0.384766	0.550781 
		0.919922	0.305664 
		0.950195	0.274414 
		0.888672	0.274414 
		0.919922	0.356445 
		0.950195	0.387695 
		0.889648	0.387695 
		0.486328	0.549805 
		0.486328	0.563477 
		0.397461	0.563477 
		0.397461	0.549805 
		0.514648	0.978516 
		0.533203	0.578125 
		0.576172	0.578125 
		0.564453	0.524414 
		0.610352	0.524414 
		0.609375	0.559570 
		0.564453	0.559570 
		0.511719	0.569336 
		0.014648	0.245117 
		0.005859	0.079102 
		0.500000	0.524414 
		0.519531	0.524414 
		0.519531	0.559570 
		0.500000	0.559570 
		0.624023	0.525391 
		0.613281	0.525391 
		0.887695	0.525391 
		0.877930	0.525391 
		0.887695	0.573242 
		0.979492	0.557617 
		0.978516	0.524414 
		0.998047	0.524414 
		0.998047	0.557617 
		0.936523	0.557617 
		0.936523	0.524414 
		0.854492	0.525391 
		0.891602	0.558594 
		0.891602	0.524414 
		0.829102	0.525391 
		0.618164	0.577148 
		0.885742	0.576172 
		0.986328	0.978516 
		0.515625	0.578125 
		0.967773	0.576172 
		0.985352	0.576172 
		0.926758	0.576172 
		0.961914	0.113281 
		0.048828	0.077148 
		0.201172	0.074219 
		0.205078	0.089844 
		0.017578	0.150391 
		0.330078	0.149414 
		0.330078	0.242188 
		0.007813	0.243164 
		0.628906	0.472656 
		0.638672	0.472656 
		0.639648	0.071289 
		0.629883	0.071289 
		0.635742	0.472656 
		0.644531	0.472656 
		0.644531	0.072266 
		0.635742	0.071289 
		0.047852	0.075195 
		0.015625	0.082031 
		0.194336	0.082031 
		0.415039	0.564453 
		0.415039	0.552734 
		0.470703	0.552734 
		0.473633	0.563477 
		0.317383	0.088867 
		0.322266	0.073242 
		0.287109	0.120117 
		0.238281	0.121094 
		0.323242	0.149414 
		0.015625	0.150391 
		0.546875	0.018555 
		0.977539	0.018555 
		0.977539	0.056641 
		0.546875	0.056641 
		0.965820	0.021484 
		0.972656	0.021484 
		0.972656	0.054688 
		0.965820	0.054688 
		0.957031	0.018555 
		0.972656	0.018555 
		0.972656	0.056641 
		0.957031	0.056641 
		0.075195	0.015625 
		0.075195	0.053711 
		0.473633	0.053711 
		0.473633	0.015625 
		0.463867	0.018555 
		0.463867	0.050781 
		0.469727	0.050781 
		0.469727	0.018555 
		0.455078	0.015625 
		0.455078	0.053711 
		0.469727	0.053711 
		0.469727	0.015625 
		0.332031	0.241211 
		0.027344	0.200195 
		0.027344	0.057617 
		-0.002930	0.090820 
		-0.012695	0.469727 
		0.043945	0.200195 
		0.039063	0.051758 
		0.066406	0.052734 
		0.144531	0.200195 
		0.121094	0.052734 
		0.151367	0.057617 
		0.182617	0.200195 
		0.175781	0.079102 
		0.329102	0.937500 
		0.329102	0.000000 
		0.182617	0.738281 
		0.182617	-0.001953 
		0.004883	0.062500 
		0.761719	0.711914 
		0.763672	0.711914 
		0.763672	0.726563 
		0.761719	0.726563 
		0.027344	0.738281 
		0.772461	0.713867 
		0.774414	0.713867 
		0.774414	0.725586 
		0.772461	0.725586 
		0.757813	-0.031250 
		0.930664	-0.031250 
		0.747070	-0.032227 
		0.714844	-0.032227 
		0.744141	0.128906 
		0.666992	-0.032227 
		0.641602	0.128906 
		0.637695	-0.032227 
		0.750977	-0.032227 
		0.757813	0.128906 
		0.633789	-0.032227 
		0.626953	0.128906 
		0.626953	0.809570 
		0.757813	0.809570 
		0.930664	0.967773 
		0.329102	0.949219 
		0.337891	0.967773 
		0.337891	-0.031250 
		0.329102	-0.012695 
		-0.002930	0.848633 
		0.027344	0.880859 
		0.039063	0.886719 
		0.043945	0.738281 
		0.066406	0.885742 
		0.121094	0.885742 
		0.144531	0.738281 
		0.151367	0.880859 
		0.174805	0.861328 
		0.182617	0.939453 
		0.004883	0.876953 
		0.757813	0.967773 
		0.747070	0.967773 
		0.744141	0.809570 
		0.714844	0.967773 
		0.641602	0.809570 
		0.666992	0.967773 
		0.637695	0.967773 
		0.750000	0.967773 
		0.626953	0.967773 
		0.633789	0.967773 
		0.626953	-0.031250 
		0.930664	0.947266 
		0.987305	0.948242 
		0.930664	-0.010742 
		0.987305	-0.011719 
		0.182617	0.084961 
		0.182617	0.854492 
	}

	Tex1 0 
	Adj 615 { 
		P 0 
		N 0 
		C0 0 
		T0 0 
		P 1 
		N 0 
		C0 1 
		T0 1 
		P 2 
		N 0 
		C0 2 
		T0 2 
		P 3 
		N 0 
		C0 3 
		T0 3 
		P 4 
		N 0 
		C0 4 
		T0 0 
		P 5 
		N 0 
		C0 5 
		T0 1 
		P 6 
		N 0 
		C0 6 
		T0 2 
		P 7 
		N 0 
		C0 7 
		T0 3 
		P 8 
		N 0 
		C0 8 
		T0 0 
		P 9 
		N 0 
		C0 9 
		T0 1 
		P 10 
		N 0 
		C0 10 
		T0 2 
		P 11 
		N 0 
		C0 11 
		T0 3 
		P 12 
		N 0 
		C0 12 
		T0 0 
		P 13 
		N 0 
		C0 13 
		T0 1 
		P 14 
		N 0 
		C0 14 
		T0 2 
		P 15 
		N 0 
		C0 15 
		T0 3 
		P 16 
		N 1 
		C0 16 
		T0 4 
		P 17 
		N 1 
		C0 17 
		T0 4 
		P 18 
		N 1 
		C0 18 
		T0 4 
		P 19 
		N 1 
		C0 19 
		T0 4 
		P 20 
		N 1 
		C0 20 
		T0 4 
		P 21 
		N 1 
		C0 21 
		T0 4 
		P 16 
		N 0 
		C0 22 
		T0 4 
		P 19 
		N 0 
		C0 23 
		T0 4 
		P 22 
		N 0 
		C0 24 
		T0 4 
		P 23 
		N 0 
		C0 25 
		T0 4 
		P 21 
		N 0 
		C0 26 
		T0 4 
		P 24 
		N 0 
		C0 27 
		T0 4 
		P 20 
		N 2 
		C0 28 
		T0 4 
		P 18 
		N 2 
		C0 29 
		T0 4 
		P 25 
		N 2 
		C0 30 
		T0 4 
		P 26 
		N 2 
		C0 31 
		T0 4 
		P 17 
		N 2 
		C0 32 
		T0 4 
		P 27 
		N 2 
		C0 33 
		T0 4 
		P 17 
		N 3 
		C0 34 
		T0 4 
		P 16 
		N 3 
		C0 35 
		T0 4 
		P 28 
		N 3 
		C0 36 
		T0 4 
		P 29 
		N 3 
		C0 37 
		T0 4 
		P 21 
		N 4 
		C0 38 
		T0 4 
		P 20 
		N 4 
		C0 39 
		T0 4 
		P 30 
		N 4 
		C0 40 
		T0 4 
		P 31 
		N 4 
		C0 41 
		T0 4 
		P 23 
		N 5 
		C0 42 
		T0 4 
		P 27 
		N 5 
		C0 43 
		T0 4 
		P 32 
		N 5 
		C0 44 
		T0 4 
		P 33 
		N 5 
		C0 45 
		T0 4 
		P 26 
		N 6 
		C0 46 
		T0 4 
		P 24 
		N 6 
		C0 47 
		T0 4 
		P 34 
		N 6 
		C0 48 
		T0 4 
		P 35 
		N 6 
		C0 49 
		T0 4 
		P 16 
		N 7 
		C0 50 
		T0 4 
		P 23 
		N 7 
		C0 51 
		T0 4 
		P 33 
		N 7 
		C0 52 
		T0 4 
		P 33 
		N 8 
		C0 53 
		T0 4 
		P 28 
		N 8 
		C0 54 
		T0 4 
		P 16 
		N 8 
		C0 55 
		T0 4 
		P 24 
		N 9 
		C0 56 
		T0 4 
		P 21 
		N 9 
		C0 57 
		T0 4 
		P 31 
		N 9 
		C0 58 
		T0 4 
		P 31 
		N 10 
		C0 59 
		T0 4 
		P 34 
		N 10 
		C0 60 
		T0 4 
		P 24 
		N 10 
		C0 61 
		T0 4 
		P 20 
		N 11 
		C0 62 
		T0 4 
		P 26 
		N 11 
		C0 63 
		T0 4 
		P 35 
		N 11 
		C0 64 
		T0 4 
		P 35 
		N 12 
		C0 65 
		T0 4 
		P 30 
		N 12 
		C0 66 
		T0 4 
		P 20 
		N 12 
		C0 67 
		T0 4 
		P 27 
		N 13 
		C0 68 
		T0 4 
		P 17 
		N 13 
		C0 69 
		T0 4 
		P 29 
		N 13 
		C0 70 
		T0 4 
		P 29 
		N 14 
		C0 71 
		T0 4 
		P 32 
		N 14 
		C0 72 
		T0 4 
		P 27 
		N 14 
		C0 73 
		T0 4 
		P 36 
		N 15 
		C0 74 
		T0 5 
		P 37 
		N 15 
		C0 75 
		T0 5 
		P 38 
		N 15 
		C0 76 
		T0 5 
		P 14 
		N 15 
		C0 77 
		T0 5 
		P 39 
		N 16 
		C0 78 
		T0 5 
		P 15 
		N 16 
		C0 79 
		T0 5 
		P 40 
		N 16 
		C0 80 
		T0 5 
		P 41 
		N 16 
		C0 81 
		T0 5 
		P 14 
		N 17 
		C0 82 
		T0 5 
		P 38 
		N 17 
		C0 83 
		T0 5 
		P 40 
		N 17 
		C0 84 
		T0 5 
		P 15 
		N 17 
		C0 85 
		T0 5 
		P 38 
		N 2 
		C0 86 
		T0 5 
		P 37 
		N 2 
		C0 87 
		T0 5 
		P 41 
		N 2 
		C0 88 
		T0 5 
		P 40 
		N 2 
		C0 89 
		T0 5 
		P 37 
		N 18 
		C0 90 
		T0 5 
		P 36 
		N 18 
		C0 91 
		T0 5 
		P 39 
		N 18 
		C0 92 
		T0 5 
		P 41 
		N 18 
		C0 93 
		T0 5 
		P 42 
		N 19 
		C0 94 
		T0 6 
		P 43 
		N 19 
		C0 95 
		T0 6 
		P 44 
		N 19 
		C0 96 
		T0 6 
		P 45 
		N 19 
		C0 97 
		T0 6 
		P 46 
		N 20 
		C0 98 
		T0 6 
		P 47 
		N 20 
		C0 99 
		T0 6 
		P 48 
		N 20 
		C0 100 
		T0 6 
		P 49 
		N 20 
		C0 101 
		T0 6 
		P 42 
		N 1 
		C0 102 
		T0 6 
		P 45 
		N 1 
		C0 103 
		T0 6 
		P 47 
		N 1 
		C0 104 
		T0 6 
		P 46 
		N 1 
		C0 105 
		T0 6 
		P 45 
		N 21 
		C0 106 
		T0 6 
		P 44 
		N 21 
		C0 107 
		T0 6 
		P 48 
		N 21 
		C0 108 
		T0 6 
		P 47 
		N 21 
		C0 109 
		T0 6 
		P 43 
		N 22 
		C0 110 
		T0 6 
		P 42 
		N 22 
		C0 111 
		T0 6 
		P 46 
		N 22 
		C0 112 
		T0 6 
		P 49 
		N 22 
		C0 113 
		T0 6 
		P 50 
		N 0 
		C0 114 
		T0 2 
		P 1 
		N 0 
		C0 115 
		T0 7 
		P 0 
		N 0 
		C0 116 
		T0 8 
		P 51 
		N 0 
		C0 117 
		T0 3 
		P 5 
		N 0 
		C0 118 
		T0 7 
		P 4 
		N 0 
		C0 119 
		T0 8 
		P 9 
		N 0 
		C0 120 
		T0 7 
		P 8 
		N 0 
		C0 121 
		T0 8 
		P 13 
		N 0 
		C0 122 
		T0 7 
		P 12 
		N 0 
		C0 123 
		T0 8 
		P 44 
		N 23 
		C0 124 
		T0 6 
		P 43 
		N 23 
		C0 125 
		T0 6 
		P 52 
		N 23 
		C0 126 
		T0 6 
		P 53 
		N 23 
		C0 127 
		T0 6 
		P 49 
		N 24 
		C0 128 
		T0 6 
		P 48 
		N 24 
		C0 129 
		T0 6 
		P 54 
		N 24 
		C0 130 
		T0 6 
		P 55 
		N 24 
		C0 131 
		T0 6 
		P 48 
		N 25 
		C0 132 
		T0 6 
		P 44 
		N 25 
		C0 133 
		T0 6 
		P 53 
		N 25 
		C0 134 
		T0 6 
		P 54 
		N 25 
		C0 135 
		T0 6 
		P 43 
		N 26 
		C0 136 
		T0 6 
		P 49 
		N 26 
		C0 137 
		T0 6 
		P 55 
		N 26 
		C0 138 
		T0 6 
		P 52 
		N 26 
		C0 139 
		T0 6 
		P 53 
		N 27 
		C0 140 
		T0 6 
		P 52 
		N 27 
		C0 141 
		T0 6 
		P 55 
		N 27 
		C0 142 
		T0 6 
		P 54 
		N 27 
		C0 143 
		T0 6 
		P 56 
		N 27 
		C0 144 
		T0 9 
		P 57 
		N 27 
		C0 145 
		T0 10 
		P 58 
		N 28 
		C0 146 
		T0 11 
		P 59 
		N 28 
		C0 147 
		T0 12 
		P 57 
		N 27 
		C0 148 
		T0 13 
		P 60 
		N 29 
		C0 149 
		T0 14 
		P 61 
		N 30 
		C0 150 
		T0 15 
		P 58 
		N 28 
		C0 151 
		T0 16 
		P 62 
		N 31 
		C0 152 
		T0 17 
		P 63 
		N 32 
		C0 153 
		T0 18 
		P 64 
		N 33 
		C0 154 
		T0 19 
		P 65 
		N 34 
		C0 155 
		T0 20 
		P 63 
		N 32 
		C0 156 
		T0 21 
		P 62 
		N 31 
		C0 157 
		T0 22 
		P 64 
		N 33 
		C0 158 
		T0 23 
		P 66 
		N 35 
		C0 159 
		T0 24 
		P 67 
		N 36 
		C0 160 
		T0 25 
		P 65 
		N 34 
		C0 161 
		T0 26 
		P 68 
		N 37 
		C0 162 
		T0 27 
		P 69 
		N 38 
		C0 163 
		T0 28 
		P 70 
		N 39 
		C0 164 
		T0 29 
		P 71 
		N 40 
		C0 165 
		T0 30 
		P 72 
		N 41 
		C0 166 
		T0 31 
		P 73 
		N 42 
		C0 167 
		T0 32 
		P 74 
		N 43 
		C0 168 
		T0 33 
		P 75 
		N 44 
		C0 169 
		T0 34 
		P 76 
		N 41 
		C0 170 
		T0 35 
		P 77 
		N 41 
		C0 171 
		T0 36 
		P 78 
		N 45 
		C0 172 
		T0 37 
		P 79 
		N 46 
		C0 173 
		T0 38 
		P 80 
		N 47 
		C0 174 
		T0 39 
		P 81 
		N 48 
		C0 175 
		T0 40 
		P 82 
		N 49 
		C0 176 
		T0 41 
		P 83 
		N 50 
		C0 177 
		T0 42 
		P 84 
		N 50 
		C0 178 
		T0 43 
		P 85 
		N 51 
		C0 179 
		T0 44 
		P 86 
		N 52 
		C0 180 
		T0 45 
		P 87 
		N 53 
		C0 181 
		T0 46 
		P 88 
		N 54 
		C0 182 
		T0 47 
		P 89 
		N 55 
		C0 183 
		T0 48 
		P 90 
		N 56 
		C0 184 
		T0 49 
		P 91 
		N 57 
		C0 185 
		T0 50 
		P 92 
		N 58 
		C0 186 
		T0 51 
		P 93 
		N 59 
		C0 187 
		T0 52 
		P 94 
		N 60 
		C0 188 
		T0 53 
		P 95 
		N 61 
		C0 189 
		T0 54 
		P 82 
		N 49 
		C0 190 
		T0 55 
		P 89 
		N 55 
		C0 191 
		T0 56 
		P 88 
		N 54 
		C0 192 
		T0 57 
		P 90 
		N 56 
		C0 193 
		T0 58 
		P 89 
		N 55 
		C0 194 
		T0 59 
		P 91 
		N 57 
		C0 195 
		T0 60 
		P 93 
		N 59 
		C0 196 
		T0 61 
		P 91 
		N 57 
		C0 197 
		T0 62 
		P 95 
		N 61 
		C0 198 
		T0 63 
		P 93 
		N 59 
		C0 199 
		T0 64 
		P 82 
		N 49 
		C0 200 
		T0 65 
		P 80 
		N 47 
		C0 201 
		T0 66 
		P 81 
		N 48 
		C0 202 
		T0 67 
		P 76 
		N 41 
		C0 203 
		T0 68 
		P 96 
		N 62 
		C0 204 
		T0 69 
		P 97 
		N 63 
		C0 205 
		T0 70 
		P 77 
		N 41 
		C0 206 
		T0 71 
		P 98 
		N 16 
		C0 207 
		T0 72 
		P 74 
		N 43 
		C0 208 
		T0 73 
		P 77 
		N 41 
		C0 209 
		T0 74 
		P 97 
		N 63 
		C0 210 
		T0 75 
		P 99 
		N 64 
		C0 211 
		T0 76 
		P 100 
		N 65 
		C0 212 
		T0 77 
		P 101 
		N 66 
		C0 213 
		T0 78 
		P 102 
		N 67 
		C0 214 
		T0 79 
		P 103 
		N 68 
		C0 215 
		T0 80 
		P 104 
		N 69 
		C0 216 
		T0 81 
		P 105 
		N 17 
		C0 217 
		T0 82 
		P 106 
		N 70 
		C0 218 
		T0 82 
		P 107 
		N 70 
		C0 219 
		T0 83 
		P 108 
		N 17 
		C0 220 
		T0 83 
		P 109 
		N 71 
		C0 221 
		T0 84 
		P 110 
		N 72 
		C0 222 
		T0 85 
		P 111 
		N 73 
		C0 223 
		T0 86 
		P 112 
		N 74 
		C0 224 
		T0 87 
		P 113 
		N 75 
		C0 225 
		T0 88 
		P 114 
		N 76 
		C0 226 
		T0 89 
		P 115 
		N 76 
		C0 227 
		T0 90 
		P 116 
		N 76 
		C0 228 
		T0 91 
		P 117 
		N 76 
		C0 229 
		T0 92 
		P 118 
		N 77 
		C0 230 
		T0 93 
		P 119 
		N 78 
		C0 231 
		T0 94 
		P 120 
		N 79 
		C0 232 
		T0 82 
		P 121 
		N 80 
		C0 233 
		T0 83 
		P 122 
		N 81 
		C0 234 
		T0 95 
		P 123 
		N 82 
		C0 235 
		T0 96 
		P 124 
		N 82 
		C0 236 
		T0 97 
		P 125 
		N 83 
		C0 237 
		T0 98 
		P 126 
		N 83 
		C0 238 
		T0 99 
		P 127 
		N 84 
		C0 239 
		T0 100 
		P 125 
		N 83 
		C0 240 
		T0 101 
		P 128 
		N 85 
		C0 241 
		T0 102 
		P 129 
		N 86 
		C0 242 
		T0 103 
		P 128 
		N 85 
		C0 243 
		T0 104 
		P 130 
		N 87 
		C0 244 
		T0 105 
		P 129 
		N 86 
		C0 245 
		T0 106 
		P 131 
		N 88 
		C0 246 
		T0 107 
		P 132 
		N 89 
		C0 247 
		T0 108 
		P 133 
		N 90 
		C0 248 
		T0 109 
		P 134 
		N 41 
		C0 249 
		T0 110 
		P 135 
		N 91 
		C0 250 
		T0 111 
		P 136 
		N 92 
		C0 251 
		T0 112 
		P 137 
		N 41 
		C0 252 
		T0 113 
		P 138 
		N 93 
		C0 253 
		T0 37 
		P 139 
		N 94 
		C0 254 
		T0 40 
		P 140 
		N 95 
		C0 255 
		T0 39 
		P 141 
		N 96 
		C0 256 
		T0 38 
		P 142 
		N 97 
		C0 257 
		T0 41 
		P 143 
		N 98 
		C0 258 
		T0 44 
		P 144 
		N 99 
		C0 259 
		T0 114 
		P 145 
		N 99 
		C0 260 
		T0 115 
		P 146 
		N 100 
		C0 261 
		T0 45 
		P 147 
		N 101 
		C0 262 
		T0 46 
		P 148 
		N 102 
		C0 263 
		T0 48 
		P 149 
		N 103 
		C0 264 
		T0 47 
		P 150 
		N 104 
		C0 265 
		T0 49 
		P 151 
		N 105 
		C0 266 
		T0 50 
		P 152 
		N 106 
		C0 267 
		T0 51 
		P 153 
		N 107 
		C0 268 
		T0 53 
		P 154 
		N 108 
		C0 269 
		T0 52 
		P 155 
		N 109 
		C0 270 
		T0 54 
		P 142 
		N 97 
		C0 271 
		T0 55 
		P 148 
		N 102 
		C0 272 
		T0 116 
		P 149 
		N 103 
		C0 273 
		T0 117 
		P 150 
		N 104 
		C0 274 
		T0 118 
		P 148 
		N 102 
		C0 275 
		T0 119 
		P 151 
		N 105 
		C0 276 
		T0 120 
		P 154 
		N 108 
		C0 277 
		T0 121 
		P 151 
		N 105 
		C0 278 
		T0 122 
		P 154 
		N 108 
		C0 279 
		T0 123 
		P 155 
		N 109 
		C0 280 
		T0 124 
		P 142 
		N 97 
		C0 281 
		T0 125 
		P 140 
		N 95 
		C0 282 
		T0 126 
		P 139 
		N 94 
		C0 283 
		T0 127 
		P 156 
		N 18 
		C0 284 
		T0 70 
		P 157 
		N 18 
		C0 285 
		T0 69 
		P 134 
		N 41 
		C0 286 
		T0 68 
		P 137 
		N 41 
		C0 287 
		T0 71 
		P 137 
		N 41 
		C0 288 
		T0 128 
		P 136 
		N 92 
		C0 289 
		T0 129 
		P 158 
		N 110 
		C0 290 
		T0 72 
		P 156 
		N 18 
		C0 291 
		T0 75 
		P 159 
		N 111 
		C0 292 
		T0 130 
		P 160 
		N 112 
		C0 293 
		T0 131 
		P 161 
		N 113 
		C0 294 
		T0 97 
		P 162 
		N 114 
		C0 295 
		T0 96 
		P 163 
		N 18 
		C0 296 
		T0 96 
		P 164 
		N 18 
		C0 297 
		T0 97 
		P 118 
		N 77 
		C0 298 
		T0 132 
		P 165 
		N 115 
		C0 299 
		T0 133 
		P 166 
		N 116 
		C0 300 
		T0 134 
		P 159 
		N 111 
		C0 301 
		T0 135 
		P 111 
		N 117 
		C0 302 
		T0 136 
		P 110 
		N 117 
		C0 303 
		T0 137 
		P 167 
		N 117 
		C0 304 
		T0 138 
		P 115 
		N 118 
		C0 305 
		T0 139 
		P 114 
		N 118 
		C0 306 
		T0 140 
		P 111 
		N 118 
		C0 307 
		T0 136 
		P 167 
		N 118 
		C0 308 
		T0 138 
		P 168 
		N 119 
		C0 309 
		T0 141 
		P 169 
		N 119 
		C0 310 
		T0 142 
		P 114 
		N 119 
		C0 311 
		T0 143 
		P 170 
		N 18 
		C0 312 
		T0 138 
		P 171 
		N 18 
		C0 313 
		T0 136 
		P 117 
		N 18 
		C0 314 
		T0 140 
		P 116 
		N 18 
		C0 315 
		T0 139 
		P 171 
		N 120 
		C0 316 
		T0 136 
		P 170 
		N 120 
		C0 317 
		T0 138 
		P 172 
		N 120 
		C0 318 
		T0 137 
		P 173 
		N 121 
		C0 319 
		T0 144 
		P 174 
		N 122 
		C0 320 
		T0 144 
		P 175 
		N 123 
		C0 321 
		T0 144 
		P 176 
		N 124 
		C0 322 
		T0 144 
		P 177 
		N 125 
		C0 323 
		T0 144 
		P 178 
		N 126 
		C0 324 
		T0 144 
		P 179 
		N 121 
		C0 325 
		T0 144 
		P 180 
		N 127 
		C0 326 
		T0 144 
		P 181 
		N 128 
		C0 327 
		T0 144 
		P 182 
		N 129 
		C0 328 
		T0 144 
		P 183 
		N 130 
		C0 329 
		T0 144 
		P 184 
		N 131 
		C0 330 
		T0 144 
		P 178 
		N 132 
		C0 331 
		T0 144 
		P 175 
		N 132 
		C0 332 
		T0 144 
		P 174 
		N 132 
		C0 333 
		T0 144 
		P 184 
		N 133 
		C0 334 
		T0 144 
		P 182 
		N 133 
		C0 335 
		T0 144 
		P 183 
		N 133 
		C0 336 
		T0 144 
		P 185 
		N 134 
		C0 337 
		T0 145 
		P 186 
		N 134 
		C0 338 
		T0 146 
		P 187 
		N 134 
		C0 339 
		T0 147 
		P 188 
		N 134 
		C0 340 
		T0 148 
		P 189 
		N 135 
		C0 341 
		T0 149 
		P 188 
		N 136 
		C0 342 
		T0 150 
		P 187 
		N 137 
		C0 343 
		T0 151 
		P 190 
		N 138 
		C0 344 
		T0 152 
		P 185 
		N 139 
		C0 345 
		T0 153 
		P 186 
		N 140 
		C0 346 
		T0 154 
		P 191 
		N 141 
		C0 347 
		T0 144 
		P 192 
		N 142 
		C0 348 
		T0 144 
		P 193 
		N 143 
		C0 349 
		T0 144 
		P 194 
		N 144 
		C0 350 
		T0 144 
		P 195 
		N 145 
		C0 351 
		T0 144 
		P 196 
		N 146 
		C0 352 
		T0 144 
		P 197 
		N 143 
		C0 353 
		T0 144 
		P 198 
		N 147 
		C0 354 
		T0 144 
		P 199 
		N 148 
		C0 355 
		T0 144 
		P 200 
		N 149 
		C0 356 
		T0 144 
		P 201 
		N 150 
		C0 357 
		T0 144 
		P 202 
		N 151 
		C0 358 
		T0 144 
		P 195 
		N 132 
		C0 359 
		T0 144 
		P 192 
		N 132 
		C0 360 
		T0 144 
		P 191 
		N 132 
		C0 361 
		T0 144 
		P 202 
		N 133 
		C0 362 
		T0 144 
		P 201 
		N 133 
		C0 363 
		T0 144 
		P 200 
		N 133 
		C0 364 
		T0 144 
		P 203 
		N 152 
		C0 365 
		T0 155 
		P 204 
		N 152 
		C0 366 
		T0 156 
		P 205 
		N 152 
		C0 367 
		T0 157 
		P 206 
		N 152 
		C0 368 
		T0 158 
		P 203 
		N 153 
		C0 369 
		T0 150 
		P 206 
		N 154 
		C0 370 
		T0 151 
		P 207 
		N 155 
		C0 371 
		T0 149 
		P 205 
		N 156 
		C0 372 
		T0 154 
		P 208 
		N 157 
		C0 373 
		T0 152 
		P 204 
		N 158 
		C0 374 
		T0 153 
		P 109 
		N 71 
		C0 375 
		T0 159 
		P 209 
		N 76 
		C0 376 
		T0 160 
		P 210 
		N 76 
		C0 377 
		T0 161 
		P 169 
		N 76 
		C0 378 
		T0 162 
		P 168 
		N 76 
		C0 379 
		T0 163 
		P 211 
		N 76 
		C0 380 
		T0 164 
		P 210 
		N 76 
		C0 381 
		T0 165 
		P 172 
		N 116 
		C0 382 
		T0 85 
		P 165 
		N 115 
		C0 383 
		T0 166 
		P 171 
		N 159 
		C0 384 
		T0 86 
		P 212 
		N 160 
		C0 385 
		T0 167 
		P 112 
		N 74 
		C0 386 
		T0 168 
		P 109 
		N 71 
		C0 387 
		T0 132 
		P 104 
		N 69 
		C0 388 
		T0 135 
		P 111 
		N 73 
		C0 389 
		T0 169 
		P 213 
		N 76 
		C0 390 
		T0 170 
		P 209 
		N 76 
		C0 391 
		T0 171 
		P 112 
		N 74 
		C0 392 
		T0 172 
		P 213 
		N 119 
		C0 393 
		T0 173 
		P 111 
		N 119 
		C0 394 
		T0 174 
		P 171 
		N 119 
		C0 395 
		T0 175 
		P 214 
		N 119 
		C0 396 
		T0 176 
		P 117 
		N 119 
		C0 397 
		T0 177 
		P 215 
		N 76 
		C0 398 
		T0 178 
		P 214 
		N 76 
		C0 399 
		T0 179 
		P 171 
		N 159 
		C0 400 
		T0 180 
		P 165 
		N 115 
		C0 401 
		T0 181 
		P 216 
		N 76 
		C0 402 
		T0 182 
		P 217 
		N 76 
		C0 403 
		T0 183 
		P 217 
		N 119 
		C0 404 
		T0 184 
		P 218 
		N 76 
		C0 405 
		T0 185 
		P 219 
		N 76 
		C0 406 
		T0 186 
		P 219 
		N 119 
		C0 407 
		T0 187 
		P 211 
		N 76 
		C0 408 
		T0 188 
		P 218 
		N 76 
		C0 409 
		T0 189 
		P 118 
		N 77 
		C0 410 
		T0 190 
		P 112 
		N 74 
		C0 411 
		T0 191 
		P 215 
		N 76 
		C0 412 
		T0 192 
		P 165 
		N 115 
		C0 413 
		T0 193 
		P 216 
		N 76 
		C0 414 
		T0 194 
		P 79 
		N 46 
		C0 415 
		T0 195 
		P 141 
		N 96 
		C0 416 
		T0 195 
		P 74 
		N 50 
		C0 417 
		T0 83 
		P 98 
		N 50 
		C0 418 
		T0 83 
		P 84 
		N 50 
		C0 419 
		T0 82 
		P 83 
		N 50 
		C0 420 
		T0 196 
		P 220 
		N 17 
		C0 421 
		T0 197 
		P 113 
		N 75 
		C0 422 
		T0 134 
		P 221 
		N 17 
		C0 423 
		T0 198 
		P 222 
		N 17 
		C0 424 
		T0 199 
		P 223 
		N 75 
		C0 425 
		T0 200 
		P 212 
		N 160 
		C0 426 
		T0 201 
		P 224 
		N 17 
		C0 427 
		T0 202 
		P 103 
		N 68 
		C0 428 
		T0 203 
		P 119 
		N 78 
		C0 429 
		T0 204 
		P 120 
		N 79 
		C0 430 
		T0 205 
		P 106 
		N 70 
		C0 431 
		T0 206 
		P 119 
		N 78 
		C0 432 
		T0 207 
		P 122 
		N 81 
		C0 433 
		T0 208 
		P 123 
		N 82 
		C0 434 
		T0 209 
		P 120 
		N 79 
		C0 435 
		T0 210 
		P 113 
		N 75 
		C0 436 
		T0 82 
		P 220 
		N 17 
		C0 437 
		T0 82 
		P 225 
		N 17 
		C0 438 
		T0 83 
		P 110 
		N 72 
		C0 439 
		T0 211 
		P 166 
		N 116 
		C0 440 
		T0 88 
		P 226 
		N 18 
		C0 441 
		T0 197 
		P 172 
		N 116 
		C0 442 
		T0 212 
		P 227 
		N 18 
		C0 443 
		T0 213 
		P 144 
		N 99 
		C0 444 
		T0 214 
		P 158 
		N 99 
		C0 445 
		T0 215 
		P 136 
		N 99 
		C0 446 
		T0 216 
		P 145 
		N 99 
		C0 447 
		T0 217 
		P 228 
		N 18 
		C0 448 
		T0 198 
		P 229 
		N 18 
		C0 449 
		T0 218 
		P 163 
		N 18 
		C0 450 
		T0 219 
		P 162 
		N 114 
		C0 451 
		T0 206 
		P 230 
		N 18 
		C0 452 
		T0 220 
		P 160 
		N 112 
		C0 453 
		T0 203 
		P 231 
		N 18 
		C0 454 
		T0 221 
		P 123 
		N 82 
		C0 455 
		T0 205 
		P 122 
		N 81 
		C0 456 
		T0 204 
		P 232 
		N 17 
		C0 457 
		T0 218 
		P 105 
		N 17 
		C0 458 
		T0 219 
		P 222 
		N 17 
		C0 459 
		T0 222 
		P 233 
		N 17 
		C0 460 
		T0 220 
		P 223 
		N 75 
		C0 461 
		T0 223 
		P 234 
		N 17 
		C0 462 
		T0 221 
		P 235 
		N 161 
		C0 463 
		T0 224 
		P 236 
		N 162 
		C0 464 
		T0 225 
		P 237 
		N 163 
		C0 465 
		T0 226 
		P 238 
		N 164 
		C0 466 
		T0 227 
		P 239 
		N 165 
		C0 467 
		T0 226 
		P 240 
		N 132 
		C0 468 
		T0 227 
		P 241 
		N 133 
		C0 469 
		T0 224 
		P 242 
		N 166 
		C0 470 
		T0 225 
		P 236 
		N 162 
		C0 471 
		T0 228 
		P 242 
		N 166 
		C0 472 
		T0 229 
		P 239 
		N 165 
		C0 473 
		T0 230 
		P 237 
		N 163 
		C0 474 
		T0 231 
		P 243 
		N 167 
		C0 475 
		T0 232 
		P 244 
		N 168 
		C0 476 
		T0 233 
		P 245 
		N 169 
		C0 477 
		T0 234 
		P 246 
		N 170 
		C0 478 
		T0 235 
		P 245 
		N 169 
		C0 479 
		T0 225 
		P 238 
		N 164 
		C0 480 
		T0 224 
		P 246 
		N 170 
		C0 481 
		T0 226 
		P 244 
		N 168 
		C0 482 
		T0 225 
		P 245 
		N 169 
		C0 483 
		T0 226 
		P 243 
		N 167 
		C0 484 
		T0 226 
		P 241 
		N 133 
		C0 485 
		T0 227 
		P 247 
		N 171 
		C0 486 
		T0 236 
		P 248 
		N 172 
		C0 487 
		T0 237 
		P 249 
		N 173 
		C0 488 
		T0 238 
		P 250 
		N 174 
		C0 489 
		T0 239 
		P 251 
		N 132 
		C0 490 
		T0 237 
		P 252 
		N 165 
		C0 491 
		T0 238 
		P 253 
		N 133 
		C0 492 
		T0 236 
		P 254 
		N 166 
		C0 493 
		T0 239 
		P 250 
		N 174 
		C0 494 
		T0 240 
		P 249 
		N 173 
		C0 495 
		T0 241 
		P 252 
		N 165 
		C0 496 
		T0 242 
		P 254 
		N 166 
		C0 497 
		T0 243 
		P 255 
		N 167 
		C0 498 
		T0 244 
		P 256 
		N 170 
		C0 499 
		T0 245 
		P 257 
		N 175 
		C0 500 
		T0 246 
		P 258 
		N 176 
		C0 501 
		T0 247 
		P 257 
		N 175 
		C0 502 
		T0 239 
		P 256 
		N 170 
		C0 503 
		T0 238 
		P 248 
		N 172 
		C0 504 
		T0 236 
		P 258 
		N 176 
		C0 505 
		T0 239 
		P 257 
		N 175 
		C0 506 
		T0 238 
		P 255 
		N 167 
		C0 507 
		T0 238 
		P 253 
		N 133 
		C0 508 
		T0 237 
		P 224 
		N 17 
		C0 509 
		T0 248 
		P 39 
		N 0 
		C0 510 
		T0 0 
		P 36 
		N 0 
		C0 511 
		T0 1 
		P 259 
		N 177 
		C0 512 
		T0 249 
		P 78 
		N 178 
		C0 513 
		T0 250 
		P 73 
		N 179 
		C0 514 
		T0 251 
		P 72 
		N 180 
		C0 515 
		T0 252 
		P 259 
		N 181 
		C0 516 
		T0 249 
		P 260 
		N 182 
		C0 517 
		T0 253 
		P 79 
		N 183 
		C0 518 
		T0 254 
		P 78 
		N 181 
		C0 519 
		T0 250 
		P 94 
		N 184 
		C0 520 
		T0 255 
		P 261 
		N 185 
		C0 521 
		T0 256 
		P 92 
		N 186 
		C0 522 
		T0 257 
		P 86 
		N 187 
		C0 523 
		T0 258 
		P 75 
		N 44 
		C0 524 
		T0 259 
		P 83 
		N 188 
		C0 525 
		T0 260 
		P 157 
		N 189 
		C0 526 
		T0 261 
		P 96 
		N 189 
		C0 527 
		T0 262 
		P 75 
		N 15 
		C0 528 
		T0 259 
		P 135 
		N 189 
		C0 529 
		T0 263 
		P 76 
		N 189 
		C0 530 
		T0 264 
		P 81 
		N 190 
		C0 531 
		T0 265 
		P 259 
		N 17 
		C0 532 
		T0 266 
		P 75 
		N 17 
		C0 533 
		T0 267 
		P 261 
		N 17 
		C0 534 
		T0 268 
		P 260 
		N 17 
		C0 535 
		T0 269 
		P 262 
		N 191 
		C0 536 
		T0 270 
		P 263 
		N 17 
		C0 537 
		T0 271 
		P 264 
		N 17 
		C0 538 
		T0 272 
		P 265 
		N 17 
		C0 539 
		T0 273 
		P 266 
		N 17 
		C0 540 
		T0 274 
		P 221 
		N 192 
		C0 541 
		T0 277 
		P 234 
		N 193 
		C0 542 
		T0 278 
		P 265 
		N 194 
		C0 543 
		T0 279 
		P 233 
		N 195 
		C0 544 
		T0 280 
		P 266 
		N 196 
		C0 545 
		T0 281 
		P 232 
		N 197 
		C0 546 
		T0 282 
		P 225 
		N 198 
		C0 547 
		T0 275 
		P 220 
		N 199 
		C0 548 
		T0 283 
		P 264 
		N 200 
		C0 549 
		T0 284 
		P 105 
		N 201 
		C0 550 
		T0 285 
		P 263 
		N 202 
		C0 551 
		T0 286 
		P 267 
		N 189 
		C0 552 
		T0 287 
		P 268 
		N 189 
		C0 553 
		T0 288 
		P 264 
		N 189 
		C0 554 
		T0 284 
		P 263 
		N 189 
		C0 555 
		T0 286 
		P 172 
		N 189 
		C0 556 
		T0 289 
		P 110 
		N 189 
		C0 557 
		T0 276 
		P 124 
		N 189 
		C0 558 
		T0 290 
		P 161 
		N 189 
		C0 559 
		T0 291 
		P 107 
		N 189 
		C0 560 
		T0 292 
		P 121 
		N 189 
		C0 561 
		T0 293 
		P 133 
		N 203 
		C0 562 
		T0 294 
		P 138 
		N 204 
		C0 563 
		T0 295 
		P 141 
		N 205 
		C0 564 
		T0 296 
		P 269 
		N 206 
		C0 565 
		T0 297 
		P 262 
		N 181 
		C0 566 
		T0 270 
		P 138 
		N 181 
		C0 567 
		T0 295 
		P 153 
		N 207 
		C0 568 
		T0 298 
		P 152 
		N 208 
		C0 569 
		T0 299 
		P 270 
		N 209 
		C0 570 
		T0 300 
		P 146 
		N 210 
		C0 571 
		T0 301 
		P 145 
		N 211 
		C0 572 
		T0 302 
		P 135 
		N 91 
		C0 573 
		T0 263 
		P 134 
		N 189 
		C0 574 
		T0 303 
		P 139 
		N 212 
		C0 575 
		T0 304 
		P 270 
		N 18 
		C0 576 
		T0 268 
		P 135 
		N 18 
		C0 577 
		T0 267 
		P 262 
		N 18 
		C0 578 
		T0 266 
		P 269 
		N 18 
		C0 579 
		T0 269 
		P 271 
		N 18 
		C0 580 
		T0 273 
		P 268 
		N 18 
		C0 581 
		T0 272 
		P 267 
		N 18 
		C0 582 
		T0 271 
		P 272 
		N 18 
		C0 583 
		T0 274 
		P 228 
		N 213 
		C0 584 
		T0 306 
		P 271 
		N 214 
		C0 585 
		T0 307 
		P 231 
		N 215 
		C0 586 
		T0 308 
		P 272 
		N 216 
		C0 587 
		T0 309 
		P 230 
		N 217 
		C0 588 
		T0 310 
		P 229 
		N 218 
		C0 589 
		T0 311 
		P 226 
		N 219 
		C0 590 
		T0 312 
		P 268 
		N 200 
		C0 591 
		T0 288 
		P 267 
		N 220 
		C0 592 
		T0 287 
		P 164 
		N 221 
		C0 593 
		T0 313 
		P 163 
		N 222 
		C0 594 
		T0 314 
		P 164 
		N 189 
		C0 595 
		T0 313 
		P 225 
		N 189 
		C0 596 
		T0 275 
		P 227 
		N 189 
		C0 597 
		T0 305 
		P 108 
		N 189 
		C0 598 
		T0 315 
		P 110 
		N 223 
		C0 599 
		T0 276 
		P 172 
		N 223 
		C0 600 
		T0 289 
		P 170 
		N 223 
		C0 601 
		T0 316 
		P 116 
		N 224 
		C0 602 
		T0 317 
		P 167 
		N 224 
		C0 603 
		T0 318 
		P 110 
		N 224 
		C0 604 
		T0 276 
		P 116 
		N 189 
		C0 605 
		T0 317 
		P 115 
		N 189 
		C0 606 
		T0 319 
		P 167 
		N 189 
		C0 607 
		T0 318 
		P 110 
		N 225 
		C0 608 
		T0 276 
		P 170 
		N 225 
		C0 609 
		T0 316 
		P 116 
		N 225 
		C0 610 
		T0 317 
		P 74 
		N 43 
		C0 611 
		T0 320 
		P 108 
		N 221 
		C0 612 
		T0 315 
		P 227 
		N 226 
		C0 613 
		T0 305 
		P 136 
		N 92 
		C0 614 
		T0 321 
	}

	Mtl 2 { 
		{
			Name "#2" 
			Priority 32 
			Prim 98 { 
				{
					Type TRISTRIP
					Priority 32 
					Idx 6 { 0 1 3 2 119 118 }
				}
				{
					Type TRISTRIP
					Priority 32 
					Idx 6 { 4 5 7 6 121 120 }
				}
				{
					Type TRISTRIP
					Priority 32 
					Idx 6 { 8 9 11 10 123 122 }
				}
				{
					Type TRISTRIP
					Priority 32 
					Idx 4 { 14 15 13 12 }
				}
				{
					Type TRISTRIP
					Priority 32 
					Idx 6 { 25 22 24 23 27 26 }
				}
				{
					Type TRISTRIP
					Priority 32 
					Idx 4 { 36 37 35 34 }
				}
				{
					Type TRISTRIP
					Priority 32 
					Idx 4 { 41 38 40 39 }
				}
				{
					Type TRISTRIP
					Priority 32 
					Idx 4 { 45 42 44 43 }
				}
				{
					Type TRISTRIP
					Priority 32 
					Idx 4 { 48 49 47 46 }
				}
				{
					Type TRISTRIP
					Priority 32 
					Idx 4 { 77 74 76 75 }
				}
				{
					Type TRISTRIP
					Priority 32 
					Idx 4 { 79 80 78 81 }
				}
				{
					Type TRISTRIP
					Priority 32 
					Idx 4 { 82 83 85 84 }
				}
				{
					Type TRISTRIP
					Priority 32 
					Idx 4 { 86 87 89 88 }
				}
				{
					Type TRISTRIP
					Priority 32 
					Idx 4 { 91 92 90 93 }
				}
				{
					Type TRISTRIP
					Priority 32 
					Idx 4 { 97 94 96 95 }
				}
				{
					Type TRISTRIP
					Priority 32 
					Idx 4 { 100 101 99 98 }
				}
				{
					Type TRISTRIP
					Priority 32 
					Idx 4 { 104 105 103 102 }
				}
				{
					Type TRISTRIP
					Priority 32 
					Idx 4 { 108 109 107 106 }
				}
				{
					Type TRISTRIP
					Priority 32 
					Idx 4 { 112 113 111 110 }
				}
				{
					Type TRISTRIP
					Priority 32 
					Idx 6 { 115 116 114 117 511 510 }
				}
				{
					Type TRISTRIP
					Priority 32 
					Idx 4 { 124 125 127 126 }
				}
				{
					Type TRISTRIP
					Priority 32 
					Idx 4 { 129 130 128 131 }
				}
				{
					Type TRISTRIP
					Priority 32 
					Idx 4 { 132 133 135 134 }
				}
				{
					Type TRISTRIP
					Priority 32 
					Idx 4 { 137 138 136 139 }
				}
				{
					Type TRISTRIP
					Priority 32 
					Idx 4 { 143 140 142 141 }
				}
				{
					Type TRISTRIP
					Priority 32 
					Idx 4 { 170 171 169 168 }
				}
				{
					Type TRISTRIP
					Priority 32 
					Idx 5 { 175 172 174 173 176 }
				}
				{
					Type TRISTRIP2
					Priority 32 
					Idx 6 { 17 16 18 19 20 21 }
				}
				{
					Type TRISTRIP2
					Priority 32 
					Idx 6 { 28 31 29 30 32 33 }
				}
				{
					Type TRISTRIP2
					Priority 32 
					Idx 4 { 203 206 204 205 }
				}
				{
					Type TRISTRIP2
					Priority 32 
					Idx 4 { 209 208 210 207 }
				}
				{
					Type TRISTRIP2
					Priority 32 
					Idx 4 { 222 225 223 224 }
				}
				{
					Type TRISTRIP2
					Priority 32 
					Idx 4 { 226 229 227 228 }
				}
				{
					Type TRISTRIP2
					Priority 32 
					Idx 4 { 250 249 251 252 }
				}
				{
					Type TRISTRIP2
					Priority 32 
					Idx 5 { 254 253 255 256 257 }
				}
				{
					Type TRISTRIP
					Priority 32 
					Idx 10 { 191 192 146 147 145 144 237 238 272 273 }
				}
				{
					Type TRISTRIP
					Priority 32 
					Idx 10 { 196 197 155 156 154 157 242 243 277 278 }
				}
				{
					Type TRISTRIP
					Priority 32 
					Idx 4 { 286 287 285 284 }
				}
				{
					Type TRISTRIP
					Priority 32 
					Idx 4 { 289 290 288 291 }
				}
				{
					Type TRISTRIP
					Priority 32 
					Idx 4 { 308 305 307 306 }
				}
				{
					Type TRISTRIP
					Priority 32 
					Idx 4 { 312 313 315 314 }
				}
				{
					Type TRISTRIP
					Priority 32 
					Idx 4 { 339 340 338 337 }
				}
				{
					Type TRISTRIP
					Priority 32 
					Idx 4 { 368 365 367 366 }
				}
				{
					Type TRISTRIP
					Priority 32 
					Idx 4 { 384 382 383 440 }
				}
				{
					Type TRISTRIP
					Priority 32 
					Idx 4 { 420 417 419 418 }
				}
				{
					Type TRISTRIP
					Priority 32 
					Idx 4 { 424 425 427 426 }
				}
				{
					Type TRISTRIP
					Priority 32 
					Idx 4 { 435 432 434 433 }
				}
				{
					Type TRISTRIP
					Priority 32 
					Idx 4 { 437 438 436 439 }
				}
				{
					Type TRISTRIP
					Priority 32 
					Idx 4 { 447 444 446 445 }
				}
				{
					Type TRISTRIP
					Priority 32 
					Idx 4 { 472 473 471 474 }
				}
				{
					Type TRISTRIP
					Priority 32 
					Idx 4 { 475 476 478 477 }
				}
				{
					Type TRISTRIP
					Priority 32 
					Idx 4 { 481 479 468 480 }
				}
				{
					Type TRISTRIP
					Priority 32 
					Idx 4 { 494 495 497 496 }
				}
				{
					Type TRISTRIP
					Priority 32 
					Idx 4 { 501 498 500 499 }
				}
				{
					Type TRISTRIP
					Priority 32 
					Idx 4 { 502 503 504 490 }
				}
				{
					Type TRISTRIP
					Priority 32 
					Idx 9 { 493 492 489 486 489 487 488 490 491 }
				}
				{
					Type TRISTRIP2
					Priority 32 
					Idx 7 { 487 506 486 505 486 507 508 }
				}
				{
					Type TRISTRIP
					Priority 32 
					Idx 13 { 296 297 295 294 235 236 232 233 232 219 218 220 217 }
				}
				{
					Type TRISTRIP2
					Priority 32 
					Idx 13 { 275 240 274 239 276 239 241 149 152 150 153 193 195 }
				}
				{
					Type TRISTRIP
					Priority 32 
					Idx 9 { 240 239 148 149 151 150 151 193 194 }
				}
				{
					Type TRISTRIP2
					Priority 32 
					Idx 12 { 415 190 188 189 188 187 186 185 180 179 177 178 }
				}
				{
					Type TRISTRIP2
					Priority 32 
					Idx 7 { 179 185 181 184 181 183 182 }
				}
				{
					Type TRISTRIP
					Priority 32 
					Idx 17 { 401 398 400 398 399 402 403 405 406 380 379 381 378 391 390 392 389 }
				}
				{
					Type TRISTRIP2
					Priority 32 
					Idx 10 { 264 263 262 265 262 266 258 261 259 260 }
				}
				{
					Type TRISTRIP2
					Priority 32 
					Idx 9 { 468 467 466 465 466 464 463 470 469 }
				}
				{
					Type TRISTRIP
					Priority 32 
					Idx 6 { 466 483 463 482 485 484 }
				}
				{
					Type TRISTRIP
					Priority 32 
					Idx 9 { 416 271 268 270 268 269 267 266 261 }
				}
				{
					Type TRISTRIP2
					Priority 32 
					Idx 9 { 244 159 246 162 247 162 164 163 165 }
				}
				{
					Type TRISTRIP
					Priority 32 
					Idx 4 { 163 160 162 159 }
				}
				{
					Type TRISTRIP
					Priority 32 
					Idx 13 { 245 244 158 159 161 160 199 160 198 163 200 165 201 }
				}
				{
					Type TRISTRIP2
					Priority 32 
					Idx 17 { 279 245 280 244 281 246 282 247 283 247 248 164 166 165 167 201 202 }
				}
				{
					Type TRISTRIP
					Priority 32 
					Idx 7 { 455 456 451 453 451 449 450 }
				}
				{
					Type TRISTRIP2
					Priority 32 
					Idx 14 { 422 461 386 385 387 385 388 509 428 459 428 431 429 430 }
				}
				{
					Type TRISTRIP2
					Priority 32 
					Idx 11 { 458 431 457 459 460 461 462 461 423 422 421 }
				}
				{
					Type TRISTRIP
					Priority 32 
					Idx 12 { 449 453 452 301 454 301 448 300 441 300 443 442 }
				}
				{
					Type TRISTRIP
					Priority 32 
					Idx 4 { 300 301 299 298 }
				}
				{
					Type TRISTRIP
					Priority 32 
					Idx 13 { 411 376 375 377 375 408 375 409 410 414 410 412 413 }
				}
				{
					Type TRISTRIP2
					Priority 32 
					Idx 13 { 394 393 311 310 311 309 311 407 397 404 397 396 395 }
				}
				{
					Type TRISTRIP
					Priority 32 
					Idx 8 { 369 370 371 372 373 374 371 369 }
				}
				{
					Type TRISTRIP
					Priority 32 
					Idx 21 { 330 325 328 325 329 326 330 327 325 319 326 322 327 323 319 320 322 321 323 324 320 }
				}
				{
					Type TRISTRIP2
					Priority 32 
					Idx 9 { 357 354 358 355 358 353 356 354 357 }
				}
				{
					Type TRISTRIP
					Priority 32 
					Idx 15 { 347 348 349 351 352 347 350 349 350 354 352 355 349 353 354 }
				}
				{
					Type TRISTRIP2
					Priority 32 
					Idx 9 { 343 341 346 344 345 344 342 341 343 }
				}
				{
					Type TRISTRIP
					Priority 32 
					Idx 21 { 234 214 293 213 292 213 230 213 221 212 216 211 215 211 231 211 234 211 214 212 213 }
				}
				{
					Type TRISTRIP2
					Priority 32 
					Idx 3 { 50 52 51 }
				}
				{
					Type TRISTRIP
					Priority 32 
					Idx 3 { 55 53 54 }
				}
				{
					Type TRISTRIP2
					Priority 32 
					Idx 3 { 56 58 57 }
				}
				{
					Type TRISTRIP
					Priority 32 
					Idx 3 { 61 59 60 }
				}
				{
					Type TRISTRIP2
					Priority 32 
					Idx 3 { 62 64 63 }
				}
				{
					Type TRISTRIP
					Priority 32 
					Idx 3 { 67 65 66 }
				}
				{
					Type TRISTRIP2
					Priority 32 
					Idx 3 { 68 70 69 }
				}
				{
					Type TRISTRIP
					Priority 32 
					Idx 3 { 73 71 72 }
				}
				{
					Type TRISTRIP2
					Priority 32 
					Idx 3 { 302 304 303 }
				}
				{
					Type TRISTRIP
					Priority 32 
					Idx 3 { 318 316 317 }
				}
				{
					Type TRISTRIP2
					Priority 32 
					Idx 3 { 331 333 332 }
				}
				{
					Type TRISTRIP
					Priority 32 
					Idx 3 { 336 334 335 }
				}
				{
					Type TRISTRIP2
					Priority 32 
					Idx 3 { 359 361 360 }
				}
				{
					Type TRISTRIP
					Priority 32 
					Idx 3 { 364 362 363 }
				}
			}

		}
		{
			Name "#3" 
			Priority 32 
			Prim 18 { 
				{
					Type TRISTRIP
					Priority 32 
					Idx 6 { 530 528 527 529 526 574 }
				}
				{
					Type TRISTRIP
					Priority 32 
					Idx 4 { 532 533 535 534 }
				}
				{
					Type TRISTRIP
					Priority 32 
					Idx 4 { 537 538 540 539 }
				}
				{
					Type TRISTRIP
					Priority 32 
					Idx 9 { 575 563 562 536 515 512 514 513 531 }
				}
				{
					Type TRISTRIP2
					Priority 32 
					Idx 4 { 512 528 536 529 }
				}
				{
					Type TRISTRIP2
					Priority 32 
					Idx 4 { 578 577 579 576 }
				}
				{
					Type TRISTRIP2
					Priority 32 
					Idx 4 { 582 581 583 580 }
				}
				{
					Type TRISTRIP2
					Priority 32 
					Idx 14 { 613 590 591 584 585 586 585 588 587 589 587 594 592 593 }
				}
				{
					Type TRISTRIP2
					Priority 32 
					Idx 7 { 598 555 560 559 560 558 561 }
				}
				{
					Type TRISTRIP
					Priority 32 
					Idx 6 { 596 554 557 553 556 597 }
				}
				{
					Type TRISTRIP
					Priority 32 
					Idx 7 { 553 554 552 555 552 559 595 }
				}
				{
					Type TRISTRIP2
					Priority 32 
					Idx 13 { 614 572 573 571 570 569 570 568 565 564 565 567 566 }
				}
				{
					Type TRISTRIP
					Priority 32 
					Idx 13 { 519 516 518 517 520 517 522 521 523 521 525 524 611 }
				}
				{
					Type TRISTRIP2
					Priority 32 
					Idx 15 { 547 549 548 543 541 543 542 543 544 545 546 545 550 551 612 }
				}
				{
					Type TRISTRIP
					Priority 32 
					Idx 3 { 601 599 600 }
				}
				{
					Type TRISTRIP2
					Priority 32 
					Idx 3 { 602 604 603 }
				}
				{
					Type TRISTRIP
					Priority 32 
					Idx 3 { 607 605 606 }
				}
				{
					Type TRISTRIP2
					Priority 32 
					Idx 3 { 608 610 609 }
				}
			}

		}
	}

	Offset 0 
}
