{
	Skinned 0 
	PosSkin 0 
	Pos 161 { 
		-0.000000	1.185912	2.192038 
		-0.797482	1.185912	2.192038 
		-0.797482	1.185912	2.366287 
		-0.000000	1.185912	2.366287 
		-0.000000	1.137144	2.192038 
		-0.797482	1.137144	2.192038 
		-0.000000	1.137144	2.366287 
		-0.797482	1.137144	2.366287 
		-0.303683	0.564516	8.426842 
		-0.303688	1.480797	8.353690 
		-0.303688	1.480797	11.011584 
		-0.303683	0.564516	10.938433 
		-0.449992	1.480797	11.011584 
		-0.449992	1.480797	8.353690 
		-0.449987	0.564516	8.426842 
		-0.449987	0.564516	10.938433 
		-0.000000	0.947698	12.356050 
		-1.145715	0.947698	12.356050 
		-1.145715	0.947698	12.420715 
		-0.000000	0.947698	12.420714 
		-0.000000	0.862891	12.420715 
		-1.145715	0.862891	12.420715 
		-1.145715	0.862891	12.356050 
		-0.000000	0.862891	12.356050 
		-0.557893	0.868100	12.360104 
		-0.557893	1.100024	12.266462 
		-0.557893	1.100024	12.412766 
		-0.557893	0.868100	12.412766 
		-0.677578	1.100024	12.412766 
		-0.677578	1.100024	12.266462 
		-0.677570	0.868100	12.360104 
		-0.677570	0.868100	12.412766 
		-1.185744	1.480797	11.937001 
		-1.185744	1.480797	12.202649 
		-1.185744	3.827319	12.202649 
		-0.000000	3.827319	12.202648 
		-0.000000	3.827319	8.966679 
		-1.185744	3.827319	8.966679 
		-1.185744	1.081344	12.442491 
		-0.000000	1.081344	12.442491 
		-0.000000	3.827319	12.442491 
		-1.185744	3.827319	12.442491 
		-1.185744	3.827319	5.730707 
		-0.000000	3.827319	5.730707 
		0.000000	3.827319	2.494735 
		-1.185744	3.827318	2.494735 
		-1.185744	1.480797	2.494735 
		-1.185744	1.480797	5.730707 
		-0.000000	1.480797	5.730707 
		-0.000000	1.480747	2.494735 
		-1.185744	1.480797	8.966679 
		-0.000000	1.480797	8.966679 
		0.000000	3.827319	-0.741236 
		-0.000000	1.480747	-0.741236 
		-1.185744	1.480747	-0.741236 
		-1.185744	3.827318	-0.741236 
		-1.185744	1.081344	12.202649 
		-0.000000	1.081344	12.202649 
		-0.000000	1.480797	11.937001 
		-0.797482	0.661707	2.277580 
		-0.797487	1.502904	2.017787 
		-0.797487	1.502904	2.540555 
		-0.797482	0.661707	2.538955 
		-0.986438	1.502904	2.540555 
		-0.986438	1.502904	2.017787 
		-0.986438	0.661707	2.277580 
		-0.986438	0.661707	2.538955 
		-0.710497	0.535889	2.202886 
		-0.710497	0.535889	2.613648 
		-1.073423	0.535889	2.613648 
		-1.073423	0.535889	2.202886 
		-0.845482	0.636741	2.490955 
		-0.845482	0.636741	2.325580 
		-0.938438	0.636741	2.490955 
		-0.938438	0.636741	2.325580 
		0.797482	1.185912	2.366287 
		0.797482	1.185912	2.192038 
		0.797482	1.137144	2.192038 
		0.797482	1.137144	2.366287 
		0.303683	0.564516	8.426842 
		0.303683	0.564516	10.938433 
		0.303688	1.480797	11.011584 
		0.303688	1.480797	8.353690 
		0.449992	1.480797	11.011584 
		0.449987	0.564516	10.938433 
		0.449987	0.564516	8.426842 
		0.449992	1.480797	8.353690 
		1.145715	0.947698	12.420714 
		1.145715	0.947698	12.356050 
		1.145715	0.862891	12.356050 
		1.145715	0.862891	12.420714 
		0.557893	0.868100	12.360104 
		0.557893	0.868100	12.412766 
		0.557893	1.100024	12.412766 
		0.557893	1.100024	12.266462 
		0.677578	1.100024	12.412766 
		0.677570	0.868100	12.412766 
		0.677570	0.868100	12.360104 
		0.677578	1.100024	12.266462 
		1.185744	1.480797	11.937001 
		1.185744	3.827319	12.202649 
		1.185744	1.480797	12.202649 
		1.185744	3.827319	8.966679 
		1.185744	1.081344	12.442491 
		1.185744	3.827319	12.442491 
		1.185744	3.827319	5.730707 
		1.185744	3.827319	2.494735 
		1.185744	1.480797	2.494735 
		1.185744	1.480797	5.730707 
		1.185744	1.480797	8.966679 
		1.185744	3.827318	-0.741236 
		1.185744	1.480747	-0.741236 
		1.185744	1.081344	12.202649 
		0.797482	0.661707	2.277580 
		0.797482	0.661707	2.538955 
		0.797487	1.502904	2.540555 
		0.797487	1.502904	2.017787 
		0.986438	1.502904	2.540555 
		0.986438	0.661707	2.538955 
		0.986439	0.661707	2.277580 
		0.986438	1.502904	2.017787 
		0.710497	0.535889	2.202886 
		1.073423	0.535889	2.202886 
		1.073423	0.535889	2.613648 
		0.710497	0.535889	2.613648 
		0.845482	0.636741	2.325580 
		0.845482	0.636741	2.490955 
		0.938438	0.636741	2.490955 
		0.938438	0.636741	2.325580 
		0.525367	0.596574	10.429537 
		-0.547528	0.596574	10.429537 
		-0.547523	0.415952	10.429537 
		0.525373	0.415952	10.429537 
		0.525367	0.596574	10.248864 
		-0.547528	0.596574	10.248864 
		0.525373	0.415952	10.248864 
		-0.547523	0.415952	10.248864 
		0.525368	0.596574	9.161558 
		-0.547528	0.596574	9.161558 
		-0.547523	0.415952	9.161558 
		0.525373	0.415952	9.161558 
		0.525367	0.596574	8.980934 
		-0.547528	0.596574	8.980934 
		0.525373	0.415952	8.980934 
		-0.547523	0.415952	8.980934 
		-1.056088	1.117540	12.452257 
		-0.923768	1.117540	12.452257 
		-0.927295	1.235120	12.452257 
		-1.056088	1.235120	12.452257 
		-0.900021	1.117540	12.451292 
		-0.767702	1.117540	12.451292 
		-0.771229	1.235120	12.451292 
		-0.900021	1.235120	12.451292 
		1.056088	1.117540	12.452258 
		1.056088	1.235120	12.452258 
		0.927295	1.235120	12.452258 
		0.923768	1.117540	12.452258 
		0.900021	1.117540	12.451292 
		0.900021	1.235120	12.451292 
		0.771228	1.235120	12.451292 
		0.767702	1.117540	12.451292 
	}

	Nrm 20 { 
		0.000000	1.000000	0.000000 
		0.000000	0.000000	-1.000000 
		0.000000	-1.000000	0.000000 
		0.000000	0.000000	1.000000 
		1.000000	0.000000	0.000000 
		-1.000000	0.000000	0.000000 
		0.000000	-0.078125	-1.000000 
		0.000000	-0.078125	1.000000 
		0.000000	-0.375000	-0.921875 
		0.000000	0.703125	0.703125 
		0.000000	-0.546875	-0.828125 
		0.000000	-0.296875	-0.953125 
		0.250000	-0.937500	-0.250000 
		0.250000	-0.937500	0.250000 
		-0.250000	-0.937500	0.250000 
		-0.250000	-0.937500	-0.250000 
		0.593750	0.796875	0.000000 
		0.000000	0.765625	0.640625 
		-0.593750	0.796875	0.000000 
		0.000000	0.765625	-0.640625 
	}

	Cpv 366 { 
		0.500000	0.500000	0.500000	0.000000 
		0.500000	0.500000	0.500000	0.000000 
		0.500000	0.500000	0.500000	0.000000 
		0.500000	0.500000	0.500000	0.000000 
		0.500000	0.500000	0.500000	0.000000 
		0.500000	0.500000	0.500000	0.000000 
		0.500000	0.500000	0.500000	0.000000 
		0.500000	0.500000	0.500000	0.000000 
		0.500000	0.500000	0.500000	0.000000 
		0.500000	0.500000	0.500000	0.000000 
		0.500000	0.500000	0.500000	0.000000 
		0.500000	0.500000	0.500000	0.000000 
		0.500000	0.500000	0.500000	0.000000 
		0.500000	0.500000	0.500000	0.000000 
		0.500000	0.500000	0.500000	0.000000 
		0.500000	0.500000	0.500000	0.000000 
		0.500000	0.500000	0.500000	0.000000 
		0.500000	0.500000	0.500000	0.000000 
		0.500000	0.500000	0.500000	0.000000 
		0.500000	0.500000	0.500000	0.000000 
		0.500000	0.500000	0.500000	0.000000 
		0.500000	0.500000	0.500000	0.000000 
		0.500000	0.500000	0.500000	0.000000 
		0.500000	0.500000	0.500000	0.000000 
		0.500000	0.500000	0.500000	0.000000 
		0.500000	0.500000	0.500000	0.000000 
		0.500000	0.500000	0.500000	0.000000 
		0.500000	0.500000	0.500000	0.000000 
		0.500000	0.500000	0.500000	0.000000 
		0.500000	0.500000	0.500000	0.000000 
		0.500000	0.500000	0.500000	0.000000 
		0.500000	0.500000	0.500000	0.000000 
		0.500000	0.500000	0.500000	0.000000 
		0.500000	0.500000	0.500000	0.000000 
		0.500000	0.500000	0.500000	0.000000 
		0.500000	0.500000	0.500000	0.000000 
		0.500000	0.535205	0.407080	0.000000 
		0.500000	0.574871	0.500000	0.000000 
		0.500000	0.574871	0.500000	0.000000 
		0.500000	0.535205	0.407080	0.000000 
		0.500000	0.535205	0.407080	0.000000 
		0.500000	0.574871	0.500000	0.000000 
		0.500000	0.574871	0.500000	0.000000 
		0.500000	0.535205	0.407080	0.000000 
		0.500000	0.535205	0.407080	0.000000 
		0.500000	0.574871	0.500000	0.000000 
		0.500000	0.574871	0.500000	0.000000 
		0.500000	0.535205	0.407080	0.000000 
		0.500000	0.535205	0.407080	0.000000 
		0.500000	0.574871	0.500000	0.000000 
		0.500000	0.574871	0.500000	0.000000 
		0.500000	0.535205	0.407080	0.000000 
		0.500000	0.574871	0.500000	0.000000 
		0.500000	0.574871	0.500000	0.000000 
		0.500000	0.574871	0.500000	0.000000 
		0.500000	0.574871	0.500000	0.000000 
		0.500000	0.556014	0.433487	0.000000 
		0.500000	0.500000	0.433487	0.000000 
		0.500000	0.500000	0.433487	0.000000 
		0.500000	0.556014	0.433487	0.000000 
		0.500000	0.500000	0.433487	0.000000 
		0.500000	0.500000	0.433487	0.000000 
		0.500000	0.556014	0.433487	0.000000 
		0.500000	0.556014	0.433487	0.000000 
		0.500000	0.500000	0.433487	0.000000 
		0.500000	0.556014	0.433487	0.000000 
		0.500000	0.556014	0.433487	0.000000 
		0.500000	0.500000	0.433487	0.000000 
		0.500000	0.556014	0.433487	0.000000 
		0.500000	0.556014	0.433487	0.000000 
		0.500000	0.556014	0.433487	0.000000 
		0.500000	0.556014	0.433487	0.000000 
		0.500000	0.556014	0.433487	0.000000 
		0.500000	0.500000	0.433487	0.000000 
		0.500000	0.500000	0.433487	0.000000 
		0.500000	0.556014	0.433487	0.000000 
		0.643374	0.500000	0.500000	0.000000 
		0.614491	0.500000	0.500000	0.000000 
		0.500000	0.375001	0.500000	0.003922 
		0.500000	0.375001	0.500000	0.003922 
		0.500000	0.360692	0.500000	0.003922 
		0.500000	0.360692	0.500000	0.003922 
		0.500000	0.375001	0.500000	0.003922 
		0.500000	0.500000	0.500000	0.000000 
		0.500000	0.584521	0.392226	0.000000 
		0.500000	0.360692	0.500000	0.003922 
		0.500000	0.375001	0.500000	0.003922 
		0.759979	0.375001	0.500000	0.003922 
		0.500000	0.360692	0.500000	0.003922 
		0.500000	0.360692	0.500000	0.003922 
		0.500000	0.375001	0.500000	0.003922 
		0.500000	0.500000	0.500000	0.000000 
		0.759979	0.622652	0.500000	0.000000 
		0.759979	0.375001	0.500000	0.003922 
		0.500000	0.375001	0.500000	0.003922 
		0.500000	0.622652	0.500000	0.000000 
		0.759979	0.622652	0.500000	0.000000 
		0.500000	0.500000	0.500000	0.000000 
		0.500000	0.500000	0.500000	0.000000 
		0.500000	0.500000	0.500000	0.000000 
		0.500000	0.375001	0.500000	0.003922 
		0.500000	0.500000	0.500000	0.000000 
		0.500000	0.500000	0.500000	0.000000 
		0.500000	0.360692	0.500000	0.003922 
		0.500000	0.500000	0.500000	0.000000 
		0.500000	0.500000	0.500000	0.000000 
		0.500000	0.375001	0.500000	0.003922 
		0.500000	0.360692	0.500000	0.003922 
		0.500000	0.375001	0.500000	0.003922 
		0.500000	0.500000	0.500000	0.000000 
		0.500000	0.375001	0.500000	0.003922 
		0.500000	0.500000	0.500000	0.000000 
		0.500000	0.500000	0.500000	0.000000 
		0.500000	0.500000	0.500000	0.000000 
		0.500000	0.500000	0.500000	0.000000 
		0.500000	0.584521	0.392226	0.000000 
		0.500000	0.500000	0.500000	0.000000 
		0.500000	0.360692	0.500000	0.003922 
		0.500000	0.375001	0.500000	0.003922 
		0.500000	0.375001	0.500000	0.003922 
		0.500000	0.360692	0.500000	0.003922 
		0.500000	0.375001	0.500000	0.003922 
		0.614491	0.500000	0.500000	0.000000 
		0.500000	0.500000	0.500000	0.000000 
		0.500000	0.375001	0.500000	0.003922 
		0.500000	0.500000	0.500000	0.000000 
		0.643374	0.500000	0.500000	0.000000 
		0.643374	0.500000	0.500000	0.000000 
		0.500000	0.500000	0.500000	0.000000 
		0.500000	0.500000	0.500000	0.000000 
		0.500000	0.500000	0.500000	0.000000 
		0.643374	0.500000	0.500000	0.000000 
		0.500000	0.500000	0.500000	0.000000 
		0.500000	0.500000	0.500000	0.000000 
		0.500000	0.500000	0.500000	0.000000 
		0.500000	0.500000	0.500000	0.000000 
		0.500000	0.500000	0.500000	0.000000 
		0.500000	0.500000	0.500000	0.000000 
		0.500000	0.500000	0.500000	0.000000 
		0.500000	0.500000	0.500000	0.000000 
		0.500000	0.500000	0.500000	0.000000 
		0.500000	0.500000	0.500000	0.000000 
		0.500000	0.500000	0.500000	0.000000 
		0.500000	0.500000	0.500000	0.000000 
		0.500000	0.500000	0.500000	0.000000 
		0.500000	0.500000	0.500000	0.000000 
		0.500000	0.500000	0.500000	0.000000 
		0.500000	0.500000	0.500000	0.000000 
		0.500000	0.500000	0.500000	0.000000 
		0.500000	0.500000	0.500000	0.000000 
		0.500000	0.500000	0.500000	0.000000 
		0.500000	0.500000	0.500000	0.000000 
		0.500000	0.500000	0.500000	0.000000 
		0.500000	0.500000	0.500000	0.000000 
		0.500000	0.500000	0.500000	0.000000 
		0.500000	0.500000	0.500000	0.000000 
		0.500000	0.500000	0.500000	0.000000 
		0.500000	0.500000	0.500000	0.000000 
		0.500000	0.500000	0.500000	0.000000 
		0.500000	0.500000	0.500000	0.000000 
		0.500000	0.500000	0.500000	0.000000 
		0.500000	0.500000	0.500000	0.000000 
		0.500000	0.500000	0.500000	0.000000 
		0.500000	0.500000	0.500000	0.000000 
		0.500000	0.500000	0.500000	0.000000 
		0.500000	0.500000	0.500000	0.000000 
		0.500000	0.500000	0.500000	0.000000 
		0.500000	0.500000	0.500000	0.000000 
		0.500000	0.500000	0.500000	0.000000 
		0.500000	0.500000	0.500000	0.000000 
		0.500000	0.500000	0.500000	0.000000 
		0.500000	0.500000	0.500000	0.000000 
		0.500000	0.500000	0.500000	0.000000 
		0.500000	0.500000	0.500000	0.000000 
		0.500000	0.500000	0.500000	0.000000 
		0.500000	0.500000	0.500000	0.000000 
		0.500000	0.500000	0.500000	0.000000 
		0.500000	0.500000	0.500000	0.000000 
		0.500000	0.500000	0.500000	0.000000 
		0.500000	0.500000	0.500000	0.000000 
		0.500000	0.500000	0.500000	0.000000 
		0.500000	0.500000	0.500000	0.000000 
		0.500000	0.500000	0.500000	0.000000 
		0.500000	0.500000	0.500000	0.000000 
		0.500000	0.500000	0.500000	0.000000 
		0.500000	0.500000	0.500000	0.000000 
		0.500000	0.500000	0.500000	0.000000 
		0.500000	0.500000	0.500000	0.000000 
		0.500000	0.500000	0.500000	0.000000 
		0.500000	0.500000	0.500000	0.000000 
		0.500000	0.500000	0.500000	0.000000 
		0.500000	0.500000	0.500000	0.000000 
		0.500000	0.500000	0.500000	0.000000 
		0.500000	0.500000	0.500000	0.000000 
		0.500000	0.500000	0.500000	0.000000 
		0.500000	0.500000	0.500000	0.000000 
		0.500000	0.500000	0.500000	0.000000 
		0.500000	0.500000	0.500000	0.000000 
		0.500000	0.500000	0.500000	0.000000 
		0.500000	0.500000	0.500000	0.000000 
		0.500000	0.500000	0.500000	0.000000 
		0.500000	0.500000	0.500000	0.000000 
		0.500000	0.500000	0.500000	0.000000 
		0.500000	0.500000	0.500000	0.000000 
		0.500000	0.500000	0.500000	0.000000 
		0.500000	0.500000	0.500000	0.000000 
		0.500000	0.500000	0.500000	0.000000 
		0.500000	0.500000	0.500000	0.000000 
		0.500000	0.500000	0.500000	0.000000 
		0.500000	0.500000	0.500000	0.000000 
		0.500000	0.500000	0.500000	0.000000 
		0.500000	0.500000	0.500000	0.000000 
		0.500000	0.500000	0.500000	0.000000 
		0.500000	0.500000	0.500000	0.000000 
		0.500000	0.500000	0.500000	0.000000 
		0.500000	0.500000	0.500000	0.000000 
		0.500000	0.500000	0.500000	0.000000 
		0.500000	0.536883	0.423261	0.000000 
		0.500000	0.536883	0.423261	0.000000 
		0.500000	0.500000	0.423261	0.000000 
		0.500000	0.500000	0.423261	0.000000 
		0.500000	0.500000	0.423261	0.000000 
		0.500000	0.536883	0.423261	0.000000 
		0.500000	0.536883	0.423261	0.000000 
		0.500000	0.500000	0.423261	0.000000 
		0.500000	0.500000	0.423261	0.000000 
		0.500000	0.500000	0.423261	0.000000 
		0.500000	0.536883	0.423261	0.000000 
		0.500000	0.536883	0.423261	0.000000 
		0.500000	0.536883	0.423261	0.000000 
		0.500000	0.536883	0.423261	0.000000 
		0.500000	0.536883	0.423261	0.000000 
		0.500000	0.536883	0.423261	0.000000 
		0.500000	0.536883	0.423261	0.000000 
		0.500000	0.536883	0.423261	0.000000 
		0.500000	0.500000	0.423261	0.000000 
		0.500000	0.500000	0.423261	0.000000 
		0.500000	0.500000	0.500000	0.000000 
		0.500000	0.500000	0.500000	0.003922 
		0.500000	0.500000	0.500000	0.000000 
		0.500000	0.500000	0.500000	0.003922 
		0.500000	0.500000	0.500000	0.003922 
		0.500000	0.500000	0.500000	0.000000 
		0.500000	0.500000	0.500000	0.003922 
		0.072070	0.500000	0.500000	0.003922 
		0.500000	0.500000	0.500000	0.003922 
		0.500000	0.500000	0.500000	0.000000 
		0.500000	0.500000	0.500000	0.003922 
		0.072070	0.500000	0.500000	0.003922 
		0.072070	0.622652	0.500000	0.000000 
		0.500000	0.500000	0.500000	0.000000 
		0.072070	0.622652	0.500000	0.000000 
		0.500000	0.500000	0.500000	0.003922 
		0.500000	0.500000	0.500000	0.000000 
		0.500000	0.500000	0.500000	0.000000 
		0.500000	0.500000	0.500000	0.003922 
		0.500000	0.500000	0.500000	0.000000 
		0.500000	0.500000	0.500000	0.003922 
		0.500000	0.500000	0.500000	0.000000 
		0.500000	0.500000	0.500000	0.003922 
		0.500000	0.500000	0.500000	0.000000 
		0.500000	0.500000	0.500000	0.000000 
		0.500000	0.500000	0.500000	0.000000 
		0.500000	0.500000	0.500000	0.003922 
		0.500000	0.500000	0.500000	0.003922 
		0.500000	0.500000	0.500000	0.003922 
		0.500000	0.500000	0.500000	0.003922 
		0.500000	0.500000	0.500000	0.000000 
		0.500000	0.500000	0.500000	0.000000 
		0.500000	0.500000	0.500000	0.000000 
		0.500000	0.500000	0.500000	0.000000 
		0.500000	0.500000	0.500000	0.000000 
		0.500000	0.500000	0.500000	0.000000 
		0.500000	0.500000	0.500000	0.000000 
		0.500000	0.500000	0.500000	0.000000 
		0.500000	0.500000	0.500000	0.000000 
		0.500000	0.500000	0.500000	0.000000 
		0.500000	0.500000	0.500000	0.000000 
		0.500000	0.500000	0.500000	0.000000 
		0.500000	0.500000	0.500000	0.000000 
		0.500000	0.500000	0.500000	0.000000 
		0.500000	0.500000	0.500000	0.000000 
		0.500000	0.500000	0.500000	0.000000 
		0.500000	0.500000	0.500000	0.000000 
		0.500000	0.500000	0.500000	0.000000 
		0.500000	0.500000	0.500000	0.000000 
		0.500000	0.500000	0.500000	0.000000 
		0.500000	0.500000	0.500000	0.000000 
		0.500000	0.500000	0.500000	0.000000 
		0.500000	0.500000	0.500000	0.000000 
		0.500000	0.500000	0.500000	0.000000 
		0.500000	0.500000	0.500000	0.000000 
		0.500000	0.500000	0.500000	0.000000 
		0.500000	0.500000	0.500000	0.000000 
		0.500000	0.500000	0.500000	0.000000 
		0.500000	0.500000	0.500000	0.000000 
		0.500000	0.500000	0.500000	0.000000 
		0.500000	0.500000	0.500000	0.000000 
		0.500000	0.500000	0.500000	0.000000 
		0.500000	0.500000	0.500000	0.000000 
		0.500000	0.500000	0.500000	0.000000 
		0.500000	0.500000	0.500000	0.000000 
		0.500000	0.500000	0.500000	0.000000 
		0.500000	0.500000	0.500000	0.000000 
		0.500000	0.500000	0.500000	0.000000 
		0.500000	0.500000	0.500000	0.000000 
		0.500000	0.500000	0.500000	0.000000 
		0.500000	0.500000	0.500000	0.000000 
		0.500000	0.500000	0.500000	0.000000 
		0.500000	0.500000	0.500000	0.000000 
		0.500000	0.500000	0.500000	0.000000 
		0.500000	0.500000	0.500000	0.000000 
		0.500000	0.500000	0.500000	0.000000 
		0.500000	0.500000	0.500000	0.000000 
		0.500000	0.500000	0.500000	0.000000 
		0.500000	0.500000	0.500000	0.000000 
		0.500000	0.500000	0.500000	0.000000 
		0.500000	0.500000	0.500000	0.000000 
		0.500000	0.500000	0.500000	0.000000 
		0.500000	0.500000	0.500000	0.000000 
		0.500000	0.500000	0.500000	0.000000 
		0.500000	0.500000	0.500000	0.000000 
		0.500000	0.500000	0.500000	0.000000 
		0.500000	0.500000	0.500000	0.000000 
		0.500000	0.500000	0.500000	0.000000 
		0.500000	0.500000	0.500000	0.000000 
		0.500000	0.500000	0.500000	0.000000 
		0.500000	0.500000	0.500000	0.000000 
		0.500000	0.500000	0.500000	0.000000 
		0.500000	0.500000	0.500000	0.000000 
		0.500000	0.500000	0.500000	0.000000 
		0.500000	0.500000	0.500000	0.000000 
		0.500000	0.500000	0.500000	0.000000 
		0.500000	0.500000	0.500000	0.000000 
		0.500000	0.500000	0.500000	0.000000 
		0.500000	0.500000	0.500000	0.000000 
		0.500000	0.500000	0.500000	0.000000 
		0.500000	0.500000	0.500000	0.000000 
		0.500000	0.500000	0.500000	0.000000 
		0.500000	0.500000	0.500000	0.000000 
		0.500000	0.500000	0.500000	0.000000 
		0.500000	0.500000	0.500000	0.000000 
		0.500000	0.500000	0.500000	0.000000 
		0.500000	0.500000	0.500000	0.000000 
		0.500000	0.500000	0.500000	0.000000 
		0.500000	0.500000	0.500000	0.000000 
		0.500000	0.500000	0.500000	0.000000 
		0.500000	0.500000	0.500000	0.000000 
		0.500000	0.500000	0.500000	0.000000 
		0.500000	0.500000	0.500000	0.000000 
		0.500000	0.500000	0.500000	0.000000 
		0.500000	0.500000	0.500000	0.000000 
		0.500000	0.500000	0.500000	0.000000 
		0.500000	0.500000	0.500000	0.000000 
		0.500000	0.500000	0.500000	0.000000 
		0.500000	0.500000	0.500000	0.000000 
		0.500000	0.500000	0.500000	0.000000 
		0.500000	0.500000	0.500000	0.000000 
		0.500000	0.500000	0.500000	0.000000 
		0.500000	0.500000	0.500000	0.000000 
		0.500000	0.500000	0.500000	0.000000 
		0.500000	0.500000	0.500000	0.000000 
		0.500000	0.500000	0.500000	0.000000 
		0.500000	0.500000	0.500000	0.000000 
		0.500000	0.500000	0.500000	0.000000 
		0.500000	0.500000	0.500000	0.000000 
	}

	Tex0 67 { 
		0.287109	0.798828 
		0.279297	0.792969 
		0.276367	0.794922 
		0.285156	0.800781 
		0.289063	0.803711 
		0.014648	0.525391 
		0.014648	0.427734 
		0.007813	0.427734 
		0.007813	0.525391 
		0.007813	0.514648 
		0.007813	0.416992 
		0.014648	0.416992 
		0.014648	0.514648 
		0.940430	0.961914 
		0.940430	0.586914 
		0.991211	0.586914 
		0.991211	0.961914 
		0.299805	0.794922 
		0.293945	0.794922 
		0.007813	0.478516 
		0.018555	0.471680 
		0.018555	0.493164 
		0.007813	0.493164 
		0.018555	0.473633 
		0.018555	0.453125 
		0.007813	0.459961 
		0.007813	0.473633 
		0.296875	0.794922 
		0.046875	0.001953 
		0.007813	0.001953 
		0.007813	0.298828 
		0.151367	0.042969 
		0.277344	0.042969 
		0.277344	0.271484 
		0.151367	0.271484 
		0.007813	0.315430 
		0.007813	0.558594 
		0.656250	0.558594 
		0.656250	0.315430 
		0.482422	0.001953 
		0.482422	0.298828 
		0.299805	0.796875 
		0.293945	0.796875 
		0.320313	0.296875 
		0.320313	0.002930 
		0.157227	0.002930 
		0.157227	0.296875 
		0.293945	0.799805 
		0.299805	0.799805 
		0.590820	0.534180 
		0.343750	0.534180 
		0.343750	0.555664 
		0.590820	0.555664 
		0.315430	0.533203 
		0.562500	0.533203 
		0.580078	0.555664 
		0.315430	0.555664 
		0.562500	0.507813 
		0.580078	0.533203 
		0.283203	0.802734 
		0.284180	0.806641 
		0.281250	0.806641 
		0.281250	0.802734 
		0.508789	0.218750 
		0.572266	0.218750 
		0.570313	0.282227 
		0.508789	0.282227 
	}

	Tex1 0 
	Adj 366 { 
		P 0 
		N 0 
		C0 0 
		T0 0 
		P 1 
		N 0 
		C0 1 
		T0 1 
		P 2 
		N 0 
		C0 2 
		T0 2 
		P 3 
		N 0 
		C0 3 
		T0 3 
		P 4 
		N 1 
		C0 4 
		T0 0 
		P 5 
		N 1 
		C0 5 
		T0 1 
		P 1 
		N 1 
		C0 6 
		T0 1 
		P 0 
		N 1 
		C0 7 
		T0 0 
		P 6 
		N 2 
		C0 8 
		T0 3 
		P 7 
		N 2 
		C0 9 
		T0 2 
		P 5 
		N 2 
		C0 10 
		T0 1 
		P 4 
		N 2 
		C0 11 
		T0 0 
		P 3 
		N 3 
		C0 12 
		T0 3 
		P 2 
		N 3 
		C0 13 
		T0 2 
		P 7 
		N 3 
		C0 14 
		T0 2 
		P 6 
		N 3 
		C0 15 
		T0 3 
		P 8 
		N 4 
		C0 16 
		T0 4 
		P 9 
		N 4 
		C0 17 
		T0 4 
		P 10 
		N 4 
		C0 18 
		T0 4 
		P 11 
		N 4 
		C0 19 
		T0 4 
		P 12 
		N 5 
		C0 20 
		T0 4 
		P 13 
		N 5 
		C0 21 
		T0 4 
		P 14 
		N 5 
		C0 22 
		T0 4 
		P 15 
		N 5 
		C0 23 
		T0 4 
		P 9 
		N 6 
		C0 24 
		T0 4 
		P 8 
		N 6 
		C0 25 
		T0 4 
		P 14 
		N 6 
		C0 26 
		T0 4 
		P 13 
		N 6 
		C0 27 
		T0 4 
		P 8 
		N 2 
		C0 28 
		T0 4 
		P 11 
		N 2 
		C0 29 
		T0 4 
		P 15 
		N 2 
		C0 30 
		T0 4 
		P 14 
		N 2 
		C0 31 
		T0 4 
		P 11 
		N 7 
		C0 32 
		T0 4 
		P 10 
		N 7 
		C0 33 
		T0 4 
		P 12 
		N 7 
		C0 34 
		T0 4 
		P 15 
		N 7 
		C0 35 
		T0 4 
		P 16 
		N 0 
		C0 36 
		T0 5 
		P 17 
		N 0 
		C0 37 
		T0 6 
		P 18 
		N 0 
		C0 38 
		T0 7 
		P 19 
		N 0 
		C0 39 
		T0 8 
		P 20 
		N 2 
		C0 40 
		T0 9 
		P 21 
		N 2 
		C0 41 
		T0 10 
		P 22 
		N 2 
		C0 42 
		T0 11 
		P 23 
		N 2 
		C0 43 
		T0 12 
		P 19 
		N 3 
		C0 44 
		T0 13 
		P 18 
		N 3 
		C0 45 
		T0 14 
		P 21 
		N 3 
		C0 46 
		T0 15 
		P 20 
		N 3 
		C0 47 
		T0 16 
		P 23 
		N 1 
		C0 48 
		T0 17 
		P 22 
		N 1 
		C0 49 
		T0 18 
		P 17 
		N 1 
		C0 50 
		T0 18 
		P 16 
		N 1 
		C0 51 
		T0 17 
		P 18 
		N 5 
		C0 52 
		T0 7 
		P 17 
		N 5 
		C0 53 
		T0 6 
		P 22 
		N 5 
		C0 54 
		T0 11 
		P 21 
		N 5 
		C0 55 
		T0 10 
		P 24 
		N 4 
		C0 56 
		T0 19 
		P 25 
		N 4 
		C0 57 
		T0 20 
		P 26 
		N 4 
		C0 58 
		T0 21 
		P 27 
		N 4 
		C0 59 
		T0 22 
		P 28 
		N 5 
		C0 60 
		T0 23 
		P 29 
		N 5 
		C0 61 
		T0 24 
		P 30 
		N 5 
		C0 62 
		T0 25 
		P 31 
		N 5 
		C0 63 
		T0 26 
		P 25 
		N 8 
		C0 64 
		T0 27 
		P 24 
		N 8 
		C0 65 
		T0 27 
		P 30 
		N 8 
		C0 66 
		T0 27 
		P 29 
		N 8 
		C0 67 
		T0 27 
		P 24 
		N 2 
		C0 68 
		T0 19 
		P 27 
		N 2 
		C0 69 
		T0 22 
		P 31 
		N 2 
		C0 70 
		T0 26 
		P 30 
		N 2 
		C0 71 
		T0 25 
		P 27 
		N 3 
		C0 72 
		T0 22 
		P 26 
		N 3 
		C0 73 
		T0 21 
		P 28 
		N 3 
		C0 74 
		T0 23 
		P 31 
		N 3 
		C0 75 
		T0 26 
		P 32 
		N 5 
		C0 76 
		T0 28 
		P 33 
		N 5 
		C0 77 
		T0 29 
		P 34 
		N 5 
		C0 78 
		T0 30 
		P 34 
		N 0 
		C0 79 
		T0 31 
		P 35 
		N 0 
		C0 80 
		T0 32 
		P 36 
		N 0 
		C0 81 
		T0 33 
		P 37 
		N 0 
		C0 82 
		T0 34 
		P 38 
		N 3 
		C0 83 
		T0 35 
		P 39 
		N 3 
		C0 84 
		T0 36 
		P 40 
		N 9 
		C0 85 
		T0 37 
		P 41 
		N 9 
		C0 86 
		T0 38 
		P 42 
		N 0 
		C0 87 
		T0 31 
		P 43 
		N 0 
		C0 88 
		T0 32 
		P 44 
		N 0 
		C0 89 
		T0 33 
		P 45 
		N 0 
		C0 90 
		T0 34 
		P 46 
		N 5 
		C0 91 
		T0 39 
		P 47 
		N 5 
		C0 92 
		T0 29 
		P 42 
		N 5 
		C0 93 
		T0 30 
		P 45 
		N 5 
		C0 94 
		T0 40 
		P 48 
		N 2 
		C0 95 
		T0 41 
		P 47 
		N 2 
		C0 96 
		T0 42 
		P 46 
		N 2 
		C0 97 
		T0 42 
		P 49 
		N 2 
		C0 98 
		T0 41 
		P 50 
		N 5 
		C0 99 
		T0 39 
		P 37 
		N 5 
		C0 100 
		T0 40 
		P 51 
		N 2 
		C0 101 
		T0 17 
		P 50 
		N 2 
		C0 102 
		T0 18 
		P 52 
		N 1 
		C0 103 
		T0 43 
		P 53 
		N 1 
		C0 104 
		T0 44 
		P 54 
		N 1 
		C0 105 
		T0 45 
		P 55 
		N 1 
		C0 106 
		T0 46 
		P 52 
		N 0 
		C0 107 
		T0 32 
		P 55 
		N 0 
		C0 108 
		T0 31 
		P 54 
		N 5 
		C0 109 
		T0 29 
		P 55 
		N 5 
		C0 110 
		T0 30 
		P 54 
		N 2 
		C0 111 
		T0 47 
		P 53 
		N 2 
		C0 112 
		T0 48 
		P 56 
		N 2 
		C0 113 
		T0 18 
		P 57 
		N 2 
		C0 114 
		T0 17 
		P 39 
		N 2 
		C0 115 
		T0 17 
		P 38 
		N 2 
		C0 116 
		T0 18 
		P 35 
		N 0 
		C0 117 
		T0 49 
		P 34 
		N 0 
		C0 118 
		T0 50 
		P 41 
		N 9 
		C0 119 
		T0 51 
		P 40 
		N 9 
		C0 120 
		T0 52 
		P 34 
		N 5 
		C0 121 
		T0 53 
		P 33 
		N 5 
		C0 122 
		T0 54 
		P 38 
		N 5 
		C0 123 
		T0 55 
		P 41 
		N 5 
		C0 124 
		T0 56 
		P 58 
		N 2 
		C0 125 
		T0 17 
		P 32 
		N 2 
		C0 126 
		T0 18 
		P 32 
		N 10 
		C0 127 
		T0 18 
		P 58 
		N 10 
		C0 128 
		T0 17 
		P 57 
		N 10 
		C0 129 
		T0 17 
		P 56 
		N 10 
		C0 130 
		T0 18 
		P 32 
		N 5 
		C0 131 
		T0 57 
		P 56 
		N 5 
		C0 132 
		T0 58 
		P 59 
		N 4 
		C0 133 
		T0 59 
		P 60 
		N 4 
		C0 134 
		T0 60 
		P 61 
		N 4 
		C0 135 
		T0 61 
		P 62 
		N 4 
		C0 136 
		T0 62 
		P 63 
		N 5 
		C0 137 
		T0 61 
		P 64 
		N 5 
		C0 138 
		T0 60 
		P 65 
		N 5 
		C0 139 
		T0 62 
		P 66 
		N 5 
		C0 140 
		T0 62 
		P 60 
		N 11 
		C0 141 
		T0 60 
		P 59 
		N 11 
		C0 142 
		T0 59 
		P 65 
		N 11 
		C0 143 
		T0 62 
		P 64 
		N 11 
		C0 144 
		T0 60 
		P 67 
		N 2 
		C0 145 
		T0 59 
		P 68 
		N 2 
		C0 146 
		T0 62 
		P 69 
		N 2 
		C0 147 
		T0 62 
		P 70 
		N 2 
		C0 148 
		T0 62 
		P 62 
		N 3 
		C0 149 
		T0 62 
		P 61 
		N 3 
		C0 150 
		T0 61 
		P 63 
		N 3 
		C0 151 
		T0 61 
		P 66 
		N 3 
		C0 152 
		T0 62 
		P 59 
		N 12 
		C0 153 
		T0 59 
		P 62 
		N 13 
		C0 154 
		T0 62 
		P 71 
		N 13 
		C0 155 
		T0 62 
		P 72 
		N 12 
		C0 156 
		T0 59 
		P 66 
		N 14 
		C0 157 
		T0 62 
		P 73 
		N 14 
		C0 158 
		T0 62 
		P 65 
		N 15 
		C0 159 
		T0 62 
		P 74 
		N 15 
		C0 160 
		T0 62 
		P 72 
		N 16 
		C0 161 
		T0 59 
		P 71 
		N 16 
		C0 162 
		T0 62 
		P 68 
		N 16 
		C0 163 
		T0 62 
		P 67 
		N 16 
		C0 164 
		T0 59 
		P 71 
		N 17 
		C0 165 
		T0 62 
		P 73 
		N 17 
		C0 166 
		T0 62 
		P 69 
		N 17 
		C0 167 
		T0 62 
		P 68 
		N 17 
		C0 168 
		T0 62 
		P 73 
		N 18 
		C0 169 
		T0 62 
		P 74 
		N 18 
		C0 170 
		T0 62 
		P 70 
		N 18 
		C0 171 
		T0 62 
		P 69 
		N 18 
		C0 172 
		T0 62 
		P 74 
		N 19 
		C0 173 
		T0 62 
		P 72 
		N 19 
		C0 174 
		T0 59 
		P 67 
		N 19 
		C0 175 
		T0 59 
		P 70 
		N 19 
		C0 176 
		T0 62 
		P 75 
		N 0 
		C0 177 
		T0 2 
		P 76 
		N 0 
		C0 178 
		T0 1 
		P 76 
		N 1 
		C0 179 
		T0 1 
		P 77 
		N 1 
		C0 180 
		T0 1 
		P 77 
		N 2 
		C0 181 
		T0 1 
		P 78 
		N 2 
		C0 182 
		T0 2 
		P 78 
		N 3 
		C0 183 
		T0 2 
		P 75 
		N 3 
		C0 184 
		T0 2 
		P 79 
		N 5 
		C0 185 
		T0 4 
		P 80 
		N 5 
		C0 186 
		T0 4 
		P 81 
		N 5 
		C0 187 
		T0 4 
		P 82 
		N 5 
		C0 188 
		T0 4 
		P 83 
		N 4 
		C0 189 
		T0 4 
		P 84 
		N 4 
		C0 190 
		T0 4 
		P 85 
		N 4 
		C0 191 
		T0 4 
		P 86 
		N 4 
		C0 192 
		T0 4 
		P 82 
		N 6 
		C0 193 
		T0 4 
		P 86 
		N 6 
		C0 194 
		T0 4 
		P 85 
		N 6 
		C0 195 
		T0 4 
		P 79 
		N 6 
		C0 196 
		T0 4 
		P 79 
		N 2 
		C0 197 
		T0 4 
		P 85 
		N 2 
		C0 198 
		T0 4 
		P 84 
		N 2 
		C0 199 
		T0 4 
		P 80 
		N 2 
		C0 200 
		T0 4 
		P 80 
		N 7 
		C0 201 
		T0 4 
		P 84 
		N 7 
		C0 202 
		T0 4 
		P 83 
		N 7 
		C0 203 
		T0 4 
		P 81 
		N 7 
		C0 204 
		T0 4 
		P 87 
		N 0 
		C0 205 
		T0 7 
		P 88 
		N 0 
		C0 206 
		T0 6 
		P 89 
		N 2 
		C0 207 
		T0 11 
		P 90 
		N 2 
		C0 208 
		T0 10 
		P 90 
		N 3 
		C0 209 
		T0 15 
		P 87 
		N 3 
		C0 210 
		T0 14 
		P 88 
		N 1 
		C0 211 
		T0 18 
		P 89 
		N 1 
		C0 212 
		T0 18 
		P 87 
		N 4 
		C0 213 
		T0 7 
		P 90 
		N 4 
		C0 214 
		T0 10 
		P 89 
		N 4 
		C0 215 
		T0 11 
		P 88 
		N 4 
		C0 216 
		T0 6 
		P 91 
		N 5 
		C0 217 
		T0 19 
		P 92 
		N 5 
		C0 218 
		T0 22 
		P 93 
		N 5 
		C0 219 
		T0 21 
		P 94 
		N 5 
		C0 220 
		T0 20 
		P 95 
		N 4 
		C0 221 
		T0 23 
		P 96 
		N 4 
		C0 222 
		T0 26 
		P 97 
		N 4 
		C0 223 
		T0 25 
		P 98 
		N 4 
		C0 224 
		T0 24 
		P 94 
		N 8 
		C0 225 
		T0 27 
		P 98 
		N 8 
		C0 226 
		T0 27 
		P 97 
		N 8 
		C0 227 
		T0 27 
		P 91 
		N 8 
		C0 228 
		T0 27 
		P 91 
		N 2 
		C0 229 
		T0 19 
		P 97 
		N 2 
		C0 230 
		T0 25 
		P 96 
		N 2 
		C0 231 
		T0 26 
		P 92 
		N 2 
		C0 232 
		T0 22 
		P 92 
		N 3 
		C0 233 
		T0 22 
		P 96 
		N 3 
		C0 234 
		T0 26 
		P 95 
		N 3 
		C0 235 
		T0 23 
		P 93 
		N 3 
		C0 236 
		T0 21 
		P 99 
		N 4 
		C0 237 
		T0 28 
		P 100 
		N 4 
		C0 238 
		T0 30 
		P 101 
		N 4 
		C0 239 
		T0 29 
		P 100 
		N 0 
		C0 240 
		T0 31 
		P 102 
		N 0 
		C0 241 
		T0 34 
		P 103 
		N 3 
		C0 242 
		T0 35 
		P 104 
		N 9 
		C0 243 
		T0 38 
		P 105 
		N 0 
		C0 244 
		T0 31 
		P 106 
		N 0 
		C0 245 
		T0 34 
		P 107 
		N 4 
		C0 246 
		T0 39 
		P 106 
		N 4 
		C0 247 
		T0 40 
		P 105 
		N 4 
		C0 248 
		T0 30 
		P 108 
		N 4 
		C0 249 
		T0 29 
		P 107 
		N 2 
		C0 250 
		T0 42 
		P 108 
		N 2 
		C0 251 
		T0 42 
		P 102 
		N 4 
		C0 252 
		T0 40 
		P 109 
		N 4 
		C0 253 
		T0 39 
		P 109 
		N 2 
		C0 254 
		T0 18 
		P 110 
		N 1 
		C0 255 
		T0 46 
		P 111 
		N 1 
		C0 256 
		T0 45 
		P 110 
		N 0 
		C0 257 
		T0 31 
		P 111 
		N 4 
		C0 258 
		T0 29 
		P 110 
		N 4 
		C0 259 
		T0 30 
		P 111 
		N 2 
		C0 260 
		T0 47 
		P 112 
		N 2 
		C0 261 
		T0 18 
		P 103 
		N 2 
		C0 262 
		T0 18 
		P 104 
		N 9 
		C0 263 
		T0 51 
		P 100 
		N 0 
		C0 264 
		T0 50 
		P 100 
		N 4 
		C0 265 
		T0 53 
		P 104 
		N 4 
		C0 266 
		T0 56 
		P 103 
		N 4 
		C0 267 
		T0 55 
		P 101 
		N 4 
		C0 268 
		T0 54 
		P 99 
		N 2 
		C0 269 
		T0 18 
		P 99 
		N 10 
		C0 270 
		T0 18 
		P 112 
		N 10 
		C0 271 
		T0 18 
		P 112 
		N 4 
		C0 272 
		T0 58 
		P 99 
		N 4 
		C0 273 
		T0 57 
		P 113 
		N 5 
		C0 274 
		T0 59 
		P 114 
		N 5 
		C0 275 
		T0 62 
		P 115 
		N 5 
		C0 276 
		T0 61 
		P 116 
		N 5 
		C0 277 
		T0 60 
		P 117 
		N 4 
		C0 278 
		T0 61 
		P 118 
		N 4 
		C0 279 
		T0 62 
		P 119 
		N 4 
		C0 280 
		T0 62 
		P 120 
		N 4 
		C0 281 
		T0 60 
		P 116 
		N 11 
		C0 282 
		T0 60 
		P 120 
		N 11 
		C0 283 
		T0 60 
		P 119 
		N 11 
		C0 284 
		T0 62 
		P 113 
		N 11 
		C0 285 
		T0 59 
		P 121 
		N 2 
		C0 286 
		T0 59 
		P 122 
		N 2 
		C0 287 
		T0 62 
		P 123 
		N 2 
		C0 288 
		T0 62 
		P 124 
		N 2 
		C0 289 
		T0 62 
		P 114 
		N 3 
		C0 290 
		T0 62 
		P 118 
		N 3 
		C0 291 
		T0 62 
		P 117 
		N 3 
		C0 292 
		T0 61 
		P 115 
		N 3 
		C0 293 
		T0 61 
		P 113 
		N 15 
		C0 294 
		T0 59 
		P 125 
		N 15 
		C0 295 
		T0 59 
		P 126 
		N 14 
		C0 296 
		T0 62 
		P 114 
		N 14 
		C0 297 
		T0 62 
		P 127 
		N 13 
		C0 298 
		T0 62 
		P 118 
		N 13 
		C0 299 
		T0 62 
		P 128 
		N 12 
		C0 300 
		T0 62 
		P 119 
		N 12 
		C0 301 
		T0 62 
		P 125 
		N 18 
		C0 302 
		T0 59 
		P 121 
		N 18 
		C0 303 
		T0 59 
		P 124 
		N 18 
		C0 304 
		T0 62 
		P 126 
		N 18 
		C0 305 
		T0 62 
		P 126 
		N 17 
		C0 306 
		T0 62 
		P 124 
		N 17 
		C0 307 
		T0 62 
		P 123 
		N 17 
		C0 308 
		T0 62 
		P 127 
		N 17 
		C0 309 
		T0 62 
		P 127 
		N 16 
		C0 310 
		T0 62 
		P 123 
		N 16 
		C0 311 
		T0 62 
		P 122 
		N 16 
		C0 312 
		T0 62 
		P 128 
		N 16 
		C0 313 
		T0 62 
		P 128 
		N 19 
		C0 314 
		T0 62 
		P 122 
		N 19 
		C0 315 
		T0 62 
		P 121 
		N 19 
		C0 316 
		T0 59 
		P 125 
		N 19 
		C0 317 
		T0 59 
		P 129 
		N 3 
		C0 318 
		T0 4 
		P 130 
		N 3 
		C0 319 
		T0 4 
		P 131 
		N 3 
		C0 320 
		T0 4 
		P 132 
		N 3 
		C0 321 
		T0 4 
		P 133 
		N 0 
		C0 322 
		T0 4 
		P 134 
		N 0 
		C0 323 
		T0 4 
		P 130 
		N 0 
		C0 324 
		T0 4 
		P 129 
		N 0 
		C0 325 
		T0 4 
		P 135 
		N 1 
		C0 326 
		T0 4 
		P 136 
		N 1 
		C0 327 
		T0 4 
		P 134 
		N 1 
		C0 328 
		T0 4 
		P 133 
		N 1 
		C0 329 
		T0 4 
		P 132 
		N 2 
		C0 330 
		T0 4 
		P 131 
		N 2 
		C0 331 
		T0 4 
		P 136 
		N 2 
		C0 332 
		T0 4 
		P 135 
		N 2 
		C0 333 
		T0 4 
		P 137 
		N 3 
		C0 334 
		T0 4 
		P 138 
		N 3 
		C0 335 
		T0 4 
		P 139 
		N 3 
		C0 336 
		T0 4 
		P 140 
		N 3 
		C0 337 
		T0 4 
		P 141 
		N 0 
		C0 338 
		T0 4 
		P 142 
		N 0 
		C0 339 
		T0 4 
		P 138 
		N 0 
		C0 340 
		T0 4 
		P 137 
		N 0 
		C0 341 
		T0 4 
		P 143 
		N 1 
		C0 342 
		T0 4 
		P 144 
		N 1 
		C0 343 
		T0 4 
		P 142 
		N 1 
		C0 344 
		T0 4 
		P 141 
		N 1 
		C0 345 
		T0 4 
		P 140 
		N 2 
		C0 346 
		T0 4 
		P 139 
		N 2 
		C0 347 
		T0 4 
		P 144 
		N 2 
		C0 348 
		T0 4 
		P 143 
		N 2 
		C0 349 
		T0 4 
		P 145 
		N 3 
		C0 350 
		T0 63 
		P 146 
		N 3 
		C0 351 
		T0 64 
		P 147 
		N 3 
		C0 352 
		T0 65 
		P 148 
		N 3 
		C0 353 
		T0 66 
		P 149 
		N 3 
		C0 354 
		T0 63 
		P 150 
		N 3 
		C0 355 
		T0 64 
		P 151 
		N 3 
		C0 356 
		T0 65 
		P 152 
		N 3 
		C0 357 
		T0 66 
		P 153 
		N 3 
		C0 358 
		T0 63 
		P 154 
		N 3 
		C0 359 
		T0 66 
		P 155 
		N 3 
		C0 360 
		T0 65 
		P 156 
		N 3 
		C0 361 
		T0 64 
		P 157 
		N 3 
		C0 362 
		T0 63 
		P 158 
		N 3 
		C0 363 
		T0 66 
		P 159 
		N 3 
		C0 364 
		T0 65 
		P 160 
		N 3 
		C0 365 
		T0 64 
	}

	Mtl 2 { 
		{
			Name "#0" 
			Priority 32 
			Prim 71 { 
				{
					Type TRISTRIP
					Priority 32 
					Idx 6 { 1 2 0 3 178 177 }
				}
				{
					Type TRISTRIP
					Priority 32 
					Idx 6 { 5 6 4 7 180 179 }
				}
				{
					Type TRISTRIP
					Priority 32 
					Idx 4 { 17 18 16 19 }
				}
				{
					Type TRISTRIP
					Priority 32 
					Idx 4 { 21 22 20 23 }
				}
				{
					Type TRISTRIP
					Priority 32 
					Idx 4 { 27 24 26 25 }
				}
				{
					Type TRISTRIP
					Priority 32 
					Idx 4 { 31 28 30 29 }
				}
				{
					Type TRISTRIP
					Priority 32 
					Idx 4 { 35 32 34 33 }
				}
				{
					Type TRISTRIP
					Priority 32 
					Idx 6 { 37 38 36 39 206 205 }
				}
				{
					Type TRISTRIP
					Priority 32 
					Idx 6 { 49 50 48 51 212 211 }
				}
				{
					Type TRISTRIP
					Priority 32 
					Idx 4 { 54 55 53 52 }
				}
				{
					Type TRISTRIP
					Priority 32 
					Idx 4 { 57 58 56 59 }
				}
				{
					Type TRISTRIP
					Priority 32 
					Idx 4 { 61 62 60 63 }
				}
				{
					Type TRISTRIP
					Priority 32 
					Idx 4 { 67 64 66 65 }
				}
				{
					Type TRISTRIP
					Priority 32 
					Idx 4 { 71 68 70 69 }
				}
				{
					Type TRISTRIP
					Priority 32 
					Idx 4 { 75 72 74 73 }
				}
				{
					Type TRISTRIP
					Priority 32 
					Idx 11 { 77 78 76 100 99 93 92 94 91 110 109 }
				}
				{
					Type TRISTRIP2
					Priority 32 
					Idx 6 { 10 9 11 8 181 182 }
				}
				{
					Type TRISTRIP2
					Priority 32 
					Idx 6 { 14 13 15 12 183 184 }
				}
				{
					Type TRISTRIP2
					Priority 32 
					Idx 6 { 42 41 43 40 207 208 }
				}
				{
					Type TRISTRIP2
					Priority 32 
					Idx 6 { 46 45 47 44 209 210 }
				}
				{
					Type TRISTRIP2
					Priority 32 
					Idx 6 { 83 86 84 85 242 243 }
				}
				{
					Type TRISTRIP2
					Priority 32 
					Idx 6 { 113 116 114 115 261 262 }
				}
				{
					Type TRISTRIP2
					Priority 32 
					Idx 6 { 127 130 128 129 270 271 }
				}
				{
					Type TRISTRIP2
					Priority 32 
					Idx 4 { 134 133 135 136 }
				}
				{
					Type TRISTRIP2
					Priority 32 
					Idx 4 { 138 137 139 140 }
				}
				{
					Type TRISTRIP2
					Priority 32 
					Idx 4 { 144 143 141 142 }
				}
				{
					Type TRISTRIP2
					Priority 32 
					Idx 4 { 148 147 145 146 }
				}
				{
					Type TRISTRIP2
					Priority 32 
					Idx 4 { 152 151 149 150 }
				}
				{
					Type TRISTRIP2
					Priority 32 
					Idx 4 { 164 163 161 162 }
				}
				{
					Type TRISTRIP2
					Priority 32 
					Idx 4 { 166 165 167 168 }
				}
				{
					Type TRISTRIP2
					Priority 32 
					Idx 4 { 171 170 172 169 }
				}
				{
					Type TRISTRIP2
					Priority 32 
					Idx 4 { 176 175 173 174 }
				}
				{
					Type TRISTRIP2
					Priority 32 
					Idx 4 { 188 187 185 186 }
				}
				{
					Type TRISTRIP2
					Priority 32 
					Idx 4 { 192 191 189 190 }
				}
				{
					Type TRISTRIP2
					Priority 32 
					Idx 4 { 193 196 194 195 }
				}
				{
					Type TRISTRIP2
					Priority 32 
					Idx 4 { 197 200 198 199 }
				}
				{
					Type TRISTRIP2
					Priority 32 
					Idx 4 { 201 204 202 203 }
				}
				{
					Type TRISTRIP2
					Priority 32 
					Idx 4 { 215 214 216 213 }
				}
				{
					Type TRISTRIP2
					Priority 32 
					Idx 4 { 220 219 217 218 }
				}
				{
					Type TRISTRIP2
					Priority 32 
					Idx 4 { 224 223 221 222 }
				}
				{
					Type TRISTRIP2
					Priority 32 
					Idx 4 { 225 228 226 227 }
				}
				{
					Type TRISTRIP2
					Priority 32 
					Idx 4 { 229 232 230 231 }
				}
				{
					Type TRISTRIP2
					Priority 32 
					Idx 4 { 233 236 234 235 }
				}
				{
					Type TRISTRIP2
					Priority 32 
					Idx 11 { 239 238 237 252 253 248 249 247 246 259 258 }
				}
				{
					Type TRISTRIP
					Priority 32 
					Idx 6 { 105 106 104 103 256 255 }
				}
				{
					Type TRISTRIP
					Priority 32 
					Idx 6 { 118 119 117 120 264 263 }
				}
				{
					Type TRISTRIP
					Priority 32 
					Idx 6 { 124 121 123 122 132 131 }
				}
				{
					Type TRISTRIP
					Priority 32 
					Idx 4 { 277 274 276 275 }
				}
				{
					Type TRISTRIP
					Priority 32 
					Idx 4 { 281 278 280 279 }
				}
				{
					Type TRISTRIP
					Priority 32 
					Idx 4 { 282 283 285 284 }
				}
				{
					Type TRISTRIP
					Priority 32 
					Idx 4 { 286 287 289 288 }
				}
				{
					Type TRISTRIP
					Priority 32 
					Idx 4 { 290 291 293 292 }
				}
				{
					Type TRISTRIP
					Priority 32 
					Idx 4 { 303 304 302 305 }
				}
				{
					Type TRISTRIP
					Priority 32 
					Idx 4 { 306 307 309 308 }
				}
				{
					Type TRISTRIP
					Priority 32 
					Idx 4 { 312 313 311 310 }
				}
				{
					Type TRISTRIP
					Priority 32 
					Idx 4 { 316 317 315 314 }
				}
				{
					Type TRISTRIP
					Priority 32 
					Idx 4 { 320 321 319 318 }
				}
				{
					Type TRISTRIP
					Priority 32 
					Idx 4 { 323 324 322 325 }
				}
				{
					Type TRISTRIP
					Priority 32 
					Idx 4 { 327 328 326 329 }
				}
				{
					Type TRISTRIP
					Priority 32 
					Idx 4 { 332 333 331 330 }
				}
				{
					Type TRISTRIP
					Priority 32 
					Idx 4 { 336 337 335 334 }
				}
				{
					Type TRISTRIP
					Priority 32 
					Idx 4 { 339 340 338 341 }
				}
				{
					Type TRISTRIP
					Priority 32 
					Idx 4 { 343 344 342 345 }
				}
				{
					Type TRISTRIP
					Priority 32 
					Idx 4 { 348 349 347 346 }
				}
				{
					Type TRISTRIP
					Priority 32 
					Idx 13 { 240 241 80 81 79 81 82 88 87 89 90 107 108 }
				}
				{
					Type TRISTRIP2
					Priority 32 
					Idx 8 { 241 81 244 88 245 89 257 107 }
				}
				{
					Type TRISTRIP2
					Priority 32 
					Idx 6 { 266 265 267 268 272 273 }
				}
				{
					Type TRISTRIP2
					Priority 32 
					Idx 13 { 269 254 125 101 126 101 102 95 96 98 97 112 111 }
				}
				{
					Type TRISTRIP
					Priority 32 
					Idx 8 { 254 101 251 95 250 98 260 112 }
				}
				{
					Type TRISTRIP
					Priority 32 
					Idx 10 { 157 159 160 153 156 154 155 157 158 160 }
				}
				{
					Type TRISTRIP
					Priority 32 
					Idx 10 { 297 294 295 301 300 299 298 297 296 295 }
				}
			}

		}
		{
			Name "#2" 
			Priority 32 
			Prim 4 { 
				{
					Type TRISTRIP
					Priority 32 
					Idx 4 { 350 351 353 352 }
				}
				{
					Type TRISTRIP
					Priority 32 
					Idx 4 { 354 355 357 356 }
				}
				{
					Type TRISTRIP
					Priority 32 
					Idx 4 { 361 358 360 359 }
				}
				{
					Type TRISTRIP
					Priority 32 
					Idx 4 { 365 362 364 363 }
				}
			}

		}
	}

	Offset 0 
}
