{
	Skinned 0 
	PosSkin 0 
	Pos 8 { 
		-0.233833	2.959306	-3.695530 
		-0.310491	2.959306	-3.744869 
		-0.310491	3.031876	-3.744869 
		-0.233833	3.031876	-3.695530 
		-0.387150	3.031876	-3.695530 
		-0.310491	3.031876	-3.646192 
		-0.387150	2.959306	-3.695530 
		-0.310491	2.959306	-3.646192 
	}

	Nrm 8 { 
		1.000000	0.000000	0.000000 
		0.000000	0.000000	-1.000000 
		0.000000	0.515625	-0.859375 
		0.734375	0.671875	0.000000 
		-0.734375	0.671875	0.000000 
		0.000000	0.515625	0.859375 
		-1.000000	0.000000	0.000000 
		0.000000	0.000000	1.000000 
	}

	Cpv 18 { 
		0.500000	0.500000	0.500000	0.003922 
		0.500000	0.500000	0.500000	0.003922 
		0.500000	0.500000	0.500000	0.003922 
		0.500000	0.500000	0.500000	0.003922 
		0.500000	0.500000	0.500000	0.003922 
		0.500000	0.500000	0.500000	0.003922 
		0.500000	0.500000	0.500000	0.003922 
		0.500000	0.500000	0.500000	0.003922 
		0.500000	0.500000	0.500000	0.003922 
		0.500000	0.500000	0.500000	0.003922 
		0.500000	0.500000	0.500000	0.003922 
		0.500000	0.500000	0.500000	0.003922 
		0.500000	0.500000	0.500000	0.003922 
		0.500000	0.500000	0.500000	0.003922 
		0.500000	0.500000	0.500000	0.003922 
		0.500000	0.500000	0.500000	0.003922 
		0.500000	0.500000	0.500000	0.003922 
		0.500000	0.500000	0.500000	0.003922 
	}

	Tex0 4 { 
		0.066406	0.438477 
		0.066406	0.494141 
		0.005859	0.494141 
		0.005859	0.438477 
	}

	Tex1 0 
	Adj 18 { 
		P 0 
		N 0 
		C0 0 
		T0 0 
		P 1 
		N 1 
		C0 1 
		T0 1 
		P 2 
		N 2 
		C0 2 
		T0 2 
		P 3 
		N 3 
		C0 3 
		T0 3 
		P 3 
		N 3 
		C0 4 
		T0 0 
		P 2 
		N 2 
		C0 5 
		T0 1 
		P 4 
		N 4 
		C0 6 
		T0 2 
		P 5 
		N 5 
		C0 7 
		T0 3 
		P 5 
		N 5 
		C0 8 
		T0 0 
		P 4 
		N 4 
		C0 9 
		T0 1 
		P 6 
		N 6 
		C0 10 
		T0 2 
		P 7 
		N 7 
		C0 11 
		T0 3 
		P 1 
		N 1 
		C0 12 
		T0 0 
		P 6 
		N 6 
		C0 13 
		T0 1 
		P 2 
		N 2 
		C0 14 
		T0 3 
		P 7 
		N 7 
		C0 15 
		T0 0 
		P 0 
		N 0 
		C0 16 
		T0 1 
		P 3 
		N 3 
		C0 17 
		T0 2 
	}

	Mtl 1 { 
		{
			Name "#4" 
			Priority 32 
			Prim 5 { 
				{
					Type TRISTRIP
					Priority 32 
					Idx 4 { 1 2 0 3 }
				}
				{
					Type TRISTRIP
					Priority 32 
					Idx 4 { 6 7 5 4 }
				}
				{
					Type TRISTRIP
					Priority 32 
					Idx 4 { 13 6 12 14 }
				}
				{
					Type TRISTRIP
					Priority 32 
					Idx 4 { 15 16 7 17 }
				}
				{
					Type TRISTRIP
					Priority 32 
					Idx 4 { 10 11 9 8 }
				}
			}

		}
	}

	Offset 0 
}
