{
	Skinned 0 
	PosSkin 0 
	Pos 8 { 
		0.977463	2.959306	-2.418213 
		0.977463	3.031876	-2.418213 
		1.054122	3.031876	-2.368874 
		1.054122	2.959306	-2.368874 
		1.054122	3.031876	-2.467552 
		1.130781	3.031876	-2.418213 
		1.054122	2.959306	-2.467552 
		1.130781	2.959306	-2.418213 
	}

	Nrm 8 { 
		1.000000	0.000000	0.000000 
		0.734375	-0.671875	0.000000 
		0.000000	-0.515625	-0.859375 
		0.000000	0.000000	-1.000000 
		0.000000	-0.515625	0.859375 
		-0.734375	-0.671875	0.000000 
		0.000000	0.000000	1.000000 
		-1.000000	0.000000	0.000000 
	}

	Cpv 18 { 
		0.500000	0.500000	0.500000	0.003922 
		0.500000	0.500000	0.500000	0.003922 
		0.500000	0.500000	0.500000	0.003922 
		0.500000	0.500000	0.500000	0.003922 
		0.500000	0.500000	0.500000	0.003922 
		0.500000	0.500000	0.500000	0.003922 
		0.500000	0.500000	0.500000	0.003922 
		0.500000	0.500000	0.500000	0.003922 
		0.500000	0.500000	0.500000	0.003922 
		0.500000	0.500000	0.500000	0.003922 
		0.500000	0.500000	0.500000	0.003922 
		0.500000	0.500000	0.500000	0.003922 
		0.500000	0.500000	0.500000	0.003922 
		0.500000	0.500000	0.500000	0.003922 
		0.500000	0.500000	0.500000	0.003922 
		0.500000	0.500000	0.500000	0.003922 
		0.500000	0.500000	0.500000	0.003922 
		0.500000	0.500000	0.500000	0.003922 
	}

	Tex0 4 { 
		0.066406	0.438477 
		0.005859	0.438477 
		0.005859	0.494141 
		0.066406	0.494141 
	}

	Tex1 0 
	Adj 18 { 
		P 0 
		N 0 
		C0 0 
		T0 0 
		P 1 
		N 1 
		C0 1 
		T0 1 
		P 2 
		N 2 
		C0 2 
		T0 2 
		P 3 
		N 3 
		C0 3 
		T0 3 
		P 1 
		N 1 
		C0 4 
		T0 0 
		P 4 
		N 4 
		C0 5 
		T0 1 
		P 5 
		N 5 
		C0 6 
		T0 2 
		P 2 
		N 2 
		C0 7 
		T0 3 
		P 4 
		N 4 
		C0 8 
		T0 0 
		P 6 
		N 6 
		C0 9 
		T0 1 
		P 7 
		N 7 
		C0 10 
		T0 2 
		P 5 
		N 5 
		C0 11 
		T0 3 
		P 3 
		N 3 
		C0 12 
		T0 0 
		P 2 
		N 2 
		C0 13 
		T0 1 
		P 7 
		N 7 
		C0 14 
		T0 3 
		P 6 
		N 6 
		C0 15 
		T0 0 
		P 1 
		N 1 
		C0 16 
		T0 2 
		P 0 
		N 0 
		C0 17 
		T0 3 
	}

	Mtl 1 { 
		{
			Name "#4" 
			Priority 32 
			Prim 5 { 
				{
					Type TRISTRIP
					Priority 32 
					Idx 4 { 0 1 3 2 }
				}
				{
					Type TRISTRIP
					Priority 32 
					Idx 4 { 4 5 7 6 }
				}
				{
					Type TRISTRIP
					Priority 32 
					Idx 4 { 12 13 14 6 }
				}
				{
					Type TRISTRIP
					Priority 32 
					Idx 4 { 17 15 16 5 }
				}
				{
					Type TRISTRIP
					Priority 32 
					Idx 4 { 9 10 8 11 }
				}
			}

		}
	}

	Offset 0 
}
