{
	Skinned 0 
	PosSkin 0 
	Pos 22 { 
		-0.355783	2.436595	3.054987 
		0.203745	2.436595	3.054987 
		0.203745	2.862554	2.573811 
		-0.355783	2.862554	2.573811 
		-0.284442	3.085942	-2.598558 
		0.132403	3.085942	-2.598558 
		0.132403	3.081680	-2.873315 
		-0.284442	3.081680	-2.873315 
		-0.284442	2.431235	-2.847179 
		0.132403	2.431235	-2.847179 
		0.132403	2.399513	-1.345743 
		-0.284442	2.399513	-1.345743 
		-0.355783	2.328994	-1.343714 
		-0.355783	2.284011	3.052599 
		-0.355783	2.888496	-1.333166 
		-0.284442	2.832968	-2.324252 
		0.132403	2.832968	-2.324252 
		-0.284442	2.816334	-1.337624 
		0.132403	2.816334	-1.337624 
		0.203745	2.328994	-1.343714 
		0.203745	2.284011	3.052599 
		0.203745	2.888496	-1.333166 
	}

	Nrm 18 { 
		0.000000	0.750000	0.656250 
		0.000000	0.937500	0.359375 
		0.000000	1.000000	-0.015625 
		0.000000	-1.000000	-0.015625 
		-1.000000	0.000000	0.000000 
		0.000000	0.734375	0.671875 
		1.000000	0.000000	0.000000 
		0.000000	-0.046875	-1.000000 
		0.000000	1.000000	0.015625 
		0.468750	0.031250	-0.890625 
		0.468750	0.000000	-0.890625 
		-0.468750	0.000000	-0.890625 
		-0.468750	0.031250	-0.890625 
		0.015625	0.000000	-1.000000 
		-0.015625	0.000000	-1.000000 
		-0.015625	0.046875	-1.000000 
		0.015625	0.046875	-1.000000 
		0.000000	1.000000	0.000000 
	}

	Cpv 60 { 
		0.500000	0.500000	0.500000	0.003922 
		0.500000	0.500000	0.500000	0.003922 
		0.500000	0.500000	0.500000	0.003922 
		0.500000	0.500000	0.500000	0.003922 
		0.500000	0.500000	0.500000	0.003922 
		0.500000	0.500000	0.500000	0.003922 
		0.500000	0.500000	0.500000	0.003922 
		0.500000	0.500000	0.500000	0.003922 
		0.500000	0.500000	0.500000	0.003922 
		0.500000	0.500000	0.500000	0.003922 
		0.500000	0.500000	0.500000	0.003922 
		0.500000	0.500000	0.500000	0.003922 
		0.500000	0.500000	0.500000	0.003922 
		0.500000	0.500000	0.500000	0.003922 
		0.500000	0.500000	0.500000	0.003922 
		0.500000	0.500000	0.500000	0.003922 
		0.500000	0.500000	0.500000	0.003922 
		0.500000	0.500000	0.500000	0.003922 
		0.500000	0.500000	0.500000	0.003922 
		0.500000	0.500000	0.500000	0.003922 
		0.500000	0.500000	0.500000	0.003922 
		0.500000	0.500000	0.500000	0.003922 
		0.500000	0.500000	0.500000	0.003922 
		0.500000	0.500000	0.500000	0.003922 
		0.500000	0.500000	0.500000	0.003922 
		0.500000	0.500000	0.500000	0.003922 
		0.500000	0.500000	0.500000	0.003922 
		0.500000	0.500000	0.500000	0.003922 
		0.500000	0.500000	0.500000	0.003922 
		0.500000	0.500000	0.500000	0.003922 
		0.500000	0.500000	0.500000	0.003922 
		0.500000	0.500000	0.500000	0.003922 
		0.500000	0.500000	0.500000	0.003922 
		0.500000	0.500000	0.500000	0.003922 
		0.500000	0.500000	0.500000	0.003922 
		0.500000	0.500000	0.500000	0.003922 
		0.500000	0.500000	0.500000	0.003922 
		0.500000	0.500000	0.500000	0.003922 
		0.500000	0.500000	0.500000	0.003922 
		0.500000	0.500000	0.500000	0.003922 
		0.500000	0.500000	0.500000	0.003922 
		0.500000	0.500000	0.500000	0.003922 
		0.500000	0.500000	0.500000	0.003922 
		0.500000	0.500000	0.500000	0.003922 
		0.500000	0.500000	0.500000	0.003922 
		0.500000	0.500000	0.500000	0.003922 
		0.500000	0.500000	0.500000	0.003922 
		0.500000	0.500000	0.500000	0.003922 
		0.500000	0.500000	0.500000	0.003922 
		0.500000	0.500000	0.500000	0.003922 
		0.500000	0.500000	0.500000	0.003922 
		0.500000	0.500000	0.500000	0.003922 
		0.500000	0.500000	0.500000	0.003922 
		0.500000	0.500000	0.500000	0.003922 
		0.500000	0.500000	0.500000	0.003922 
		0.500000	0.500000	0.500000	0.003922 
		0.500000	0.500000	0.500000	0.003922 
		0.500000	0.500000	0.500000	0.003922 
		0.500000	0.500000	0.500000	0.003922 
		0.500000	0.500000	0.500000	0.003922 
	}

	Tex0 37 { 
		0.118164	0.284180 
		0.147461	0.284180 
		0.147461	0.314453 
		0.118164	0.314453 
		0.068359	0.767578 
		0.029297	0.767578 
		0.029297	0.739258 
		0.068359	0.739258 
		0.030273	0.984375 
		0.027344	0.724609 
		0.014648	0.537109 
		0.014648	0.034180 
		0.166016	0.093750 
		0.163086	0.540039 
		0.054688	0.035156 
		0.068359	0.796875 
		0.029297	0.796875 
		0.107422	0.876953 
		0.152344	0.980469 
		0.154297	0.926758 
		0.046875	0.926758 
		0.046875	0.963867 
		0.123047	0.963867 
		0.123047	0.926758 
		0.068359	0.900391 
		0.029297	0.900391 
		0.118164	0.558594 
		0.147461	0.558594 
		0.106445	0.724609 
		0.069336	0.465820 
		0.020508	0.465820 
		0.027344	0.471680 
		0.063477	0.471680 
		0.020508	0.514648 
		0.069336	0.514648 
		0.063477	0.507813 
		0.027344	0.507813 
	}

	Tex1 0 
	Adj 60 { 
		P 0 
		N 0 
		C0 0 
		T0 0 
		P 1 
		N 0 
		C0 1 
		T0 1 
		P 2 
		N 1 
		C0 2 
		T0 2 
		P 3 
		N 1 
		C0 3 
		T0 3 
		P 4 
		N 2 
		C0 4 
		T0 4 
		P 5 
		N 2 
		C0 5 
		T0 5 
		P 6 
		N 2 
		C0 6 
		T0 6 
		P 7 
		N 2 
		C0 7 
		T0 7 
		P 8 
		N 3 
		C0 8 
		T0 8 
		P 9 
		N 3 
		C0 9 
		T0 8 
		P 10 
		N 3 
		C0 10 
		T0 9 
		P 11 
		N 3 
		C0 11 
		T0 9 
		P 12 
		N 4 
		C0 12 
		T0 10 
		P 13 
		N 4 
		C0 13 
		T0 11 
		P 3 
		N 4 
		C0 14 
		T0 12 
		P 14 
		N 4 
		C0 15 
		T0 13 
		P 0 
		N 4 
		C0 16 
		T0 14 
		P 15 
		N 5 
		C0 17 
		T0 15 
		P 16 
		N 5 
		C0 18 
		T0 16 
		P 5 
		N 5 
		C0 19 
		T0 5 
		P 4 
		N 5 
		C0 20 
		T0 4 
		P 16 
		N 6 
		C0 21 
		T0 17 
		P 9 
		N 6 
		C0 22 
		T0 8 
		P 6 
		N 6 
		C0 23 
		T0 18 
		P 5 
		N 6 
		C0 24 
		T0 19 
		P 9 
		N 7 
		C0 25 
		T0 20 
		P 8 
		N 7 
		C0 26 
		T0 21 
		P 7 
		N 7 
		C0 27 
		T0 22 
		P 6 
		N 7 
		C0 28 
		T0 23 
		P 8 
		N 4 
		C0 29 
		T0 8 
		P 15 
		N 4 
		C0 30 
		T0 17 
		P 4 
		N 4 
		C0 31 
		T0 19 
		P 7 
		N 4 
		C0 32 
		T0 18 
		P 17 
		N 8 
		C0 33 
		T0 24 
		P 18 
		N 8 
		C0 34 
		T0 25 
		P 16 
		N 8 
		C0 35 
		T0 16 
		P 15 
		N 8 
		C0 36 
		T0 15 
		P 12 
		N 3 
		C0 37 
		T0 26 
		P 19 
		N 3 
		C0 38 
		T0 27 
		P 20 
		N 3 
		C0 39 
		T0 1 
		P 13 
		N 3 
		C0 40 
		T0 0 
		P 18 
		N 9 
		C0 41 
		T0 28 
		P 10 
		N 10 
		C0 42 
		T0 9 
		P 11 
		N 11 
		C0 43 
		T0 9 
		P 17 
		N 12 
		C0 44 
		T0 28 
		P 19 
		N 13 
		C0 45 
		T0 29 
		P 12 
		N 14 
		C0 46 
		T0 30 
		P 11 
		N 11 
		C0 47 
		T0 31 
		P 10 
		N 10 
		C0 48 
		T0 32 
		P 14 
		N 15 
		C0 49 
		T0 33 
		P 21 
		N 16 
		C0 50 
		T0 34 
		P 18 
		N 9 
		C0 51 
		T0 35 
		P 17 
		N 12 
		C0 52 
		T0 36 
		P 21 
		N 17 
		C0 53 
		T0 27 
		P 14 
		N 17 
		C0 54 
		T0 26 
		P 1 
		N 6 
		C0 55 
		T0 14 
		P 20 
		N 6 
		C0 56 
		T0 11 
		P 2 
		N 6 
		C0 57 
		T0 12 
		P 19 
		N 6 
		C0 58 
		T0 10 
		P 21 
		N 6 
		C0 59 
		T0 13 
	}

	Mtl 1 { 
		{
			Name "#2" 
			Priority 32 
			Prim 12 { 
				{
					Type TRISTRIP
					Priority 32 
					Idx 4 { 7 4 6 5 }
				}
				{
					Type TRISTRIP
					Priority 32 
					Idx 4 { 8 9 11 10 }
				}
				{
					Type TRISTRIP
					Priority 32 
					Idx 5 { 16 14 13 15 12 }
				}
				{
					Type TRISTRIP2
					Priority 32 
					Idx 6 { 1 0 2 3 53 54 }
				}
				{
					Type TRISTRIP2
					Priority 32 
					Idx 4 { 17 20 18 19 }
				}
				{
					Type TRISTRIP2
					Priority 32 
					Idx 4 { 26 25 27 28 }
				}
				{
					Type TRISTRIP2
					Priority 32 
					Idx 4 { 36 35 33 34 }
				}
				{
					Type TRISTRIP2
					Priority 32 
					Idx 4 { 37 40 38 39 }
				}
				{
					Type TRISTRIP2
					Priority 32 
					Idx 5 { 55 57 56 59 58 }
				}
				{
					Type TRISTRIP
					Priority 32 
					Idx 7 { 41 42 21 22 21 23 24 }
				}
				{
					Type TRISTRIP2
					Priority 32 
					Idx 7 { 44 43 30 29 30 32 31 }
				}
				{
					Type TRISTRIP
					Priority 32 
					Idx 12 { 49 50 51 45 48 45 47 46 47 49 52 51 }
				}
			}

		}
	}

	Offset 0 
}
