{
	Skinned 0 
	PosSkin 0 
	Pos 164 { 
		0.090554	1.567742	0.130996 
		0.074310	1.469317	0.180726 
		0.213481	1.469317	0.180726 
		0.197238	1.567742	0.130996 
		0.104835	1.441789	0.015857 
		0.182956	1.441789	0.015857 
		0.192990	1.441789	0.170331 
		0.094802	1.441789	0.170331 
		0.088532	1.469317	-0.052952 
		0.199260	1.469317	-0.052952 
		-0.053342	1.567742	0.051484 
		-0.069586	1.469318	0.101214 
		0.069586	1.469318	0.101214 
		0.053342	1.567742	0.051484 
		-0.039060	1.441790	-0.063654 
		0.039060	1.441790	-0.063654 
		0.049094	1.441790	0.090820 
		-0.049094	1.441790	0.090820 
		-0.055364	1.469318	-0.132464 
		0.055364	1.469318	-0.132464 
		-0.197238	1.567742	0.130996 
		-0.213481	1.469317	0.180726 
		-0.074310	1.469317	0.180726 
		-0.090554	1.567742	0.130996 
		-0.182956	1.441789	0.015857 
		-0.104835	1.441789	0.015857 
		-0.094802	1.441789	0.170331 
		-0.192990	1.441789	0.170331 
		-0.199260	1.469317	-0.052952 
		-0.088532	1.469317	-0.052952 
		-0.341134	1.567742	0.217927 
		-0.357377	1.469317	0.267656 
		-0.218206	1.469317	0.267656 
		-0.234450	1.567742	0.217927 
		-0.245352	1.556438	0.081196 
		-0.330232	1.556438	0.081196 
		-0.232428	1.469317	0.033979 
		-0.343156	1.469317	0.033979 
		-0.326852	1.441789	0.102788 
		-0.248731	1.441789	0.102788 
		-0.238698	1.441789	0.257262 
		-0.336886	1.441789	0.257262 
		-0.485029	1.567742	0.312102 
		-0.501273	1.469317	0.361831 
		-0.362102	1.469317	0.361831 
		-0.378346	1.567742	0.312102 
		-0.389248	1.556438	0.175371 
		-0.474128	1.556438	0.175371 
		-0.376324	1.469317	0.128153 
		-0.487051	1.469317	0.128153 
		-0.470748	1.441789	0.196963 
		-0.392627	1.441789	0.196963 
		-0.382593	1.441789	0.351437 
		-0.480782	1.441789	0.351437 
		-0.509193	1.467489	0.408719 
		-0.509193	1.436229	0.392203 
		-0.469595	1.436229	0.392203 
		-0.469595	1.467489	0.408719 
		0.509193	1.436229	0.392203 
		0.469595	1.436229	0.392203 
		0.509193	1.436229	0.315111 
		-0.509193	1.436229	0.315111 
		-0.075917	1.436229	0.051485 
		-0.075917	1.467489	0.051485 
		0.075917	1.467489	0.051485 
		0.075917	1.436229	0.051485 
		-0.305516	1.499354	0.352766 
		-0.469595	1.499354	0.427353 
		0.469595	1.499354	0.427353 
		0.328147	1.499354	0.352766 
		0.509193	1.467489	0.408719 
		0.509193	1.467489	0.331628 
		-0.509193	1.467489	0.331628 
		0.328147	1.467489	0.331628 
		-0.305516	1.467489	0.331628 
		0.469595	1.433162	0.480624 
		0.469595	1.499354	0.477381 
		0.352196	1.499354	0.477381 
		0.352196	1.433162	0.480624 
		0.469595	1.467489	0.408719 
		-0.469595	1.499354	0.477381 
		-0.352196	1.499354	0.477381 
		-0.234798	1.499354	0.477381 
		-0.117399	1.499354	0.477381 
		0.000000	1.499354	0.477381 
		0.117399	1.499354	0.477381 
		0.234798	1.499354	0.477381 
		0.234798	1.433162	0.480624 
		0.117399	1.433162	0.480624 
		0.000000	1.433162	0.480624 
		-0.117399	1.433162	0.480624 
		-0.234798	1.433162	0.480624 
		-0.352196	1.433162	0.480624 
		-0.469595	1.433162	0.480624 
		0.378346	1.567742	0.312102 
		0.362102	1.469317	0.361831 
		0.501273	1.469317	0.361831 
		0.485029	1.567742	0.312102 
		0.474128	1.556438	0.175371 
		0.389248	1.556438	0.175371 
		0.487051	1.469317	0.128153 
		0.376324	1.469317	0.128153 
		0.392627	1.441789	0.196963 
		0.470748	1.441789	0.196963 
		0.480782	1.441789	0.351437 
		0.382593	1.441789	0.351437 
		0.234450	1.567742	0.217927 
		0.218206	1.469317	0.267656 
		0.357377	1.469317	0.267656 
		0.341134	1.567742	0.217927 
		0.330232	1.556438	0.081196 
		0.245352	1.556438	0.081196 
		0.343156	1.469317	0.033979 
		0.232428	1.469317	0.033979 
		0.248731	1.441789	0.102788 
		0.326852	1.441789	0.102788 
		0.336886	1.441789	0.257262 
		0.238698	1.441789	0.257262 
		0.523279	1.424598	0.439233 
		0.514927	1.436072	0.439233 
		0.505729	1.423652	0.439233 
		0.471461	1.436072	0.427855 
		0.514927	1.436072	0.141140 
		0.471461	1.436072	0.183327 
		0.523279	1.424598	0.136544 
		0.505729	1.423652	0.136544 
		0.523279	1.424598	0.392315 
		0.523279	1.424598	0.183327 
		0.505729	1.423652	0.183327 
		0.505729	1.423652	0.392315 
		0.531428	1.392052	0.120512 
		0.517076	1.393008	0.120512 
		0.512872	1.403777	0.443231 
		0.527225	1.402820	0.443231 
		0.512872	1.403777	0.401379 
		0.527225	1.402820	0.401379 
		0.531428	1.392052	0.164775 
		0.517076	1.393008	0.164775 
		-0.523279	1.424598	0.439233 
		-0.505729	1.423652	0.439233 
		-0.514927	1.436072	0.439233 
		-0.471461	1.436072	0.427855 
		-0.471461	1.436072	0.183327 
		-0.514927	1.436072	0.141140 
		-0.523279	1.424598	0.136544 
		-0.505729	1.423652	0.136544 
		-0.523279	1.424598	0.392315 
		-0.523279	1.424598	0.183327 
		-0.505729	1.423652	0.392315 
		-0.505729	1.423652	0.183327 
		-0.517076	1.393008	0.120512 
		-0.531428	1.392051	0.120512 
		-0.527225	1.402820	0.443231 
		-0.512872	1.403777	0.443231 
		-0.512872	1.403777	0.401379 
		-0.527225	1.402820	0.401379 
		-0.531428	1.392051	0.164775 
		-0.517076	1.393008	0.164775 
		0.186336	1.556438	-0.005734 
		0.101456	1.556438	-0.005734 
		0.042440	1.556438	-0.085246 
		-0.042440	1.556438	-0.085246 
		-0.101456	1.556438	-0.005734 
		-0.186336	1.556438	-0.005734 
	}

	Nrm 69 { 
		-0.484375	0.796875	0.359375 
		-0.687500	0.421875	0.578125 
		0.687500	0.421875	0.578125 
		0.484375	0.796875	0.359375 
		-0.296875	-0.937500	-0.156250 
		0.296875	-0.937500	-0.156250 
		0.359375	-0.859375	0.390625 
		-0.359375	-0.859375	0.390625 
		-0.453125	-0.859375	-0.234375 
		0.453125	-0.859375	-0.234375 
		0.531250	-0.625000	0.578125 
		-0.531250	-0.625000	0.578125 
		0.000000	1.000000	0.000000 
		0.453125	0.750000	-0.484375 
		-0.453125	0.750000	-0.484375 
		0.656250	0.421875	-0.625000 
		-0.656250	0.421875	-0.625000 
		0.000000	-0.468750	0.890625 
		0.000000	-1.000000	0.000000 
		0.000000	-1.000000	-0.015625 
		0.000000	-1.000000	-0.031250 
		0.000000	0.000000	-1.000000 
		1.000000	0.000000	0.000000 
		-1.000000	0.000000	0.000000 
		-0.515625	0.218750	-0.828125 
		0.515625	0.218750	-0.828125 
		0.000000	0.046875	1.000000 
		0.000000	0.546875	-0.828125 
		0.406250	0.484375	-0.765625 
		-0.359375	0.500000	-0.796875 
		0.000000	0.093750	1.000000 
		-0.125000	0.093750	0.984375 
		-0.078125	0.125000	0.984375 
		-0.250000	0.187500	0.953125 
		0.593750	0.796875	0.000000 
		-0.015625	0.406250	-0.906250 
		-0.203125	0.500000	-0.843750 
		-0.296875	0.515625	-0.796875 
		-0.546875	0.609375	-0.562500 
		0.984375	0.140625	0.000000 
		0.984375	0.156250	0.000000 
		-0.343750	-0.937500	0.000000 
		0.000000	0.453125	-0.890625 
		0.000000	0.187500	0.984375 
		-0.937500	-0.343750	0.000000 
		0.921875	0.390625	0.000000 
		0.984375	0.171875	0.000000 
		0.906250	0.421875	0.000000 
		0.968750	0.250000	0.000000 
		0.000000	-0.406250	-0.921875 
		0.046875	-1.000000	0.000000 
		0.000000	-0.500000	0.859375 
		0.078125	0.125000	0.984375 
		0.125000	0.093750	0.984375 
		0.250000	0.187500	0.953125 
		-0.593750	0.796875	0.000000 
		0.015625	0.406250	-0.906250 
		0.296875	0.515625	-0.796875 
		0.203125	0.500000	-0.843750 
		0.546875	0.609375	-0.562500 
		-0.984375	0.140625	0.000000 
		-0.984375	0.156250	0.000000 
		0.343750	-0.937500	0.000000 
		0.937500	-0.343750	0.000000 
		-0.921875	0.390625	0.000000 
		-0.984375	0.171875	0.000000 
		-0.906250	0.421875	0.000000 
		-0.968750	0.250000	0.000000 
		-0.046875	-1.000000	0.000000 
	}

	Cpv 348 { 
		0.500000	0.500000	0.500000	0.003922 
		0.500000	0.500000	0.500000	0.003922 
		0.500000	0.500000	0.500000	0.003922 
		0.500000	0.500000	0.500000	0.003922 
		0.325579	0.527528	0.585356	0.003922 
		0.386629	0.527528	0.585356	0.003922 
		0.253668	0.625952	0.381153	0.003922 
		0.458540	0.625952	0.381153	0.003922 
		0.604458	0.472472	0.723284	0.003922 
		0.395542	0.472472	0.723284	0.003922 
		0.469475	0.472472	0.335132	0.003922 
		0.530525	0.472472	0.335132	0.003922 
		0.395542	0.472472	0.723284	0.003922 
		0.604458	0.472472	0.723284	0.003922 
		0.530525	0.472472	0.335132	0.003922 
		0.469475	0.472472	0.335132	0.003922 
		0.497978	0.401576	0.316052	0.003922 
		0.500000	0.500000	0.500000	0.003922 
		0.500000	0.500000	0.500000	0.003922 
		0.502022	0.401576	0.316052	0.003922 
		0.325579	0.527528	0.744380	0.003922 
		0.386629	0.527528	0.744380	0.003922 
		0.251646	0.527528	0.356228	0.003922 
		0.460562	0.527528	0.356228	0.003922 
		0.358126	0.598424	0.763460	0.003922 
		0.354082	0.598424	0.763460	0.003922 
		0.356104	0.500000	0.579512	0.003922 
		0.356104	0.500000	0.579512	0.003922 
		0.354082	0.598424	0.763460	0.003922 
		0.358126	0.598424	0.763460	0.003922 
		0.356104	0.500000	0.579512	0.003922 
		0.356104	0.500000	0.579512	0.003922 
		0.602436	0.374048	0.539335	0.003922 
		0.530525	0.472472	0.335132	0.003922 
		0.469475	0.472472	0.335132	0.003922 
		0.397564	0.374048	0.539335	0.003922 
		0.325579	0.527528	0.751799	0.003922 
		0.386629	0.527528	0.751799	0.003922 
		0.251646	0.527528	0.363647	0.003922 
		0.460562	0.527528	0.363647	0.003922 
		0.356104	0.500000	0.586931	0.003922 
		0.356104	0.500000	0.586931	0.003922 
		0.328959	0.587121	0.400470	0.003922 
		0.383250	0.587121	0.400470	0.003922 
		0.356104	0.500000	0.586931	0.003922 
		0.356104	0.500000	0.586931	0.003922 
		0.383250	0.587121	0.400470	0.003922 
		0.328959	0.587121	0.400470	0.003922 
		0.602436	0.374048	0.539335	0.003922 
		0.530525	0.472472	0.335132	0.003922 
		0.469475	0.472472	0.335132	0.003922 
		0.397564	0.374048	0.539335	0.003922 
		0.383250	0.412879	0.780635	0.003922 
		0.330568	0.384506	0.779496	0.003922 
		0.343010	0.586995	0.784197	0.003922 
		0.347823	0.574235	0.783388	0.003922 
		0.327188	0.499155	0.757904	0.003922 
		0.386629	0.527528	0.759043	0.003922 
		0.253153	0.515638	0.370329	0.003922 
		0.461271	0.528881	0.371168	0.003922 
		0.357611	0.488110	0.593612	0.003922 
		0.356813	0.501353	0.594451	0.003922 
		0.319320	0.583140	0.413270	0.003922 
		0.374222	0.572988	0.412626	0.003922 
		0.356813	0.501353	0.594451	0.003922 
		0.357611	0.488110	0.593612	0.003922 
		0.374222	0.572988	0.412626	0.003922 
		0.319320	0.583140	0.413270	0.003922 
		0.606489	0.360780	0.537388	0.003922 
		0.535214	0.458432	0.332826	0.003922 
		0.473600	0.467776	0.333418	0.003922 
		0.402325	0.349036	0.536644	0.003922 
		0.740868	0.476153	0.562560	0.003922 
		0.466820	0.378782	0.731941	0.003922 
		0.739422	0.491054	0.571393	0.003922 
		0.483490	0.435974	0.760712	0.003922 
		0.467187	0.468379	0.614965	0.003922 
		0.385319	0.498307	0.633412	0.003922 
		0.749835	0.507200	0.494450	0.003922 
		0.749828	0.498597	0.490833	0.003922 
		0.911134	0.498172	0.423331	0.003922 
		0.952241	0.498172	0.423331	0.003922 
		0.703602	0.484620	0.355744	0.003922 
		0.701561	0.484321	0.352938	0.003922 
		0.952241	0.498172	0.423331	0.003922 
		0.911134	0.498172	0.423331	0.003922 
		0.701561	0.484321	0.352938	0.003922 
		0.703602	0.484620	0.355744	0.003922 
		0.541199	0.472467	0.498893	0.003922 
		0.749837	0.507979	0.504216	0.003922 
		0.497781	0.530955	0.585935	0.003922 
		0.749192	0.508454	0.518218	0.003922 
		0.460402	0.500000	0.500000	0.003922 
		0.030405	0.563125	0.585178	0.003922 
		0.251793	0.508633	0.528615	0.003922 
		0.497781	0.530955	0.585935	0.003922 
		0.703677	0.563125	0.537655	0.003922 
		0.749837	0.507979	0.504216	0.003922 
		0.696486	0.498895	0.654570	0.003922 
		0.270401	0.500000	0.780143	0.003922 
		0.752229	0.500000	0.780143	0.003922 
		0.303956	0.487349	0.654618	0.003922 
		0.688117	0.429624	0.627858	0.003922 
		0.617399	0.500000	0.550028	0.003922 
		0.251326	0.479970	0.516120	0.003922 
		0.054454	0.495816	0.624615	0.003922 
		0.250485	0.485271	0.494988	0.003922 
		0.460402	0.500000	0.500000	0.003922 
		0.251793	0.508633	0.528615	0.003922 
		0.460402	0.531864	0.595725	0.003922 
		0.749740	0.509504	0.506305	0.003922 
		0.703677	0.563125	0.537655	0.003922 
		0.749837	0.507979	0.504216	0.003922 
		0.541199	0.472467	0.498893	0.003922 
		0.270401	0.500000	0.780143	0.003922 
		0.696486	0.498895	0.654570	0.003922 
		0.703677	0.563125	0.537655	0.003922 
		0.749740	0.509504	0.506305	0.003922 
		0.460402	0.531864	0.595725	0.003922 
		0.752229	0.500000	0.780143	0.003922 
		0.258343	0.513679	0.562568	0.003922 
		0.749740	0.509504	0.506305	0.003922 
		0.570719	0.465673	0.648996	0.003922 
		0.270401	0.500000	0.780143	0.003922 
		0.251793	0.508633	0.528615	0.003922 
		0.303956	0.487349	0.654618	0.003922 
		0.752229	0.500000	0.780143	0.003922 
		0.460402	0.531864	0.595725	0.003922 
		0.696486	0.498895	0.654570	0.003922 
		0.303956	0.487349	0.654618	0.003922 
		0.265202	0.495816	0.500000	0.003922 
		0.147804	0.433808	0.503242	0.003922 
		0.634855	0.469964	0.150772	0.003922 
		0.524127	0.536155	0.147530	0.003922 
		0.030405	0.465673	0.571904	0.003922 
		0.030405	0.563125	0.585178	0.003922 
		0.460402	0.500000	0.500000	0.003922 
		0.250485	0.485271	0.494988	0.003922 
		0.750000	0.500000	0.500000	0.003922 
		0.730688	0.491744	0.404006	0.003922 
		0.742622	0.523051	0.444292	0.003922 
		0.721840	0.521408	0.386737	0.003922 
		0.852196	0.500000	0.500000	0.003922 
		0.883874	0.469964	0.384450	0.003922 
		0.766476	0.469964	0.384450	0.003922 
		0.634855	0.469964	0.150772	0.003922 
		0.147804	0.433808	0.503242	0.003922 
		0.265202	0.495816	0.500000	0.003922 
		0.524127	0.536155	0.147530	0.003922 
		0.627304	0.536155	0.381208	0.003922 
		0.744703	0.536155	0.381208	0.003922 
		0.852196	0.500000	0.500000	0.003922 
		0.709633	0.551007	0.373697	0.003922 
		0.735837	0.551764	0.435181	0.003922 
		0.724820	0.511157	0.391228	0.003922 
		0.749034	0.521922	0.498854	0.003922 
		0.750000	0.500000	0.500000	0.003922 
		0.749192	0.508454	0.518218	0.003922 
		0.497781	0.530955	0.585935	0.003922 
		0.749034	0.521922	0.498854	0.003922 
		0.617399	0.500000	0.550028	0.003922 
		0.541199	0.472467	0.498893	0.003922 
		0.749192	0.508454	0.518218	0.003922 
		0.030405	0.465673	0.571904	0.003922 
		0.250485	0.485271	0.494988	0.003922 
		0.570719	0.465673	0.648996	0.003922 
		0.688117	0.429624	0.627858	0.003922 
		0.054454	0.495816	0.624615	0.003922 
		0.258343	0.513679	0.562568	0.003922 
		0.258343	0.513679	0.562568	0.003922 
		0.054454	0.495816	0.624615	0.003922 
		0.251326	0.479970	0.516120	0.003922 
		0.030405	0.465673	0.571904	0.003922 
		0.749192	0.508454	0.518218	0.003922 
		0.617399	0.500000	0.550028	0.003922 
		0.688117	0.429624	0.627858	0.003922 
		0.570719	0.465673	0.648996	0.003922 
		0.030405	0.563125	0.585178	0.003922 
		0.030405	0.465673	0.571904	0.003922 
		0.147804	0.433808	0.503242	0.003922 
		0.265202	0.495816	0.500000	0.003922 
		0.251326	0.479970	0.516120	0.003922 
		0.852196	0.500000	0.500000	0.003922 
		0.852196	0.500000	0.500000	0.003922 
		0.721840	0.521408	0.386737	0.003922 
		0.709633	0.551007	0.373697	0.003922 
		0.627304	0.536155	0.381208	0.003922 
		0.766476	0.469964	0.384450	0.003922 
		0.883874	0.469964	0.384450	0.003922 
		0.744703	0.536155	0.381208	0.003922 
		0.735837	0.551764	0.435181	0.003922 
		0.742622	0.523051	0.444292	0.003922 
		0.730688	0.491744	0.404006	0.003922 
		0.724820	0.511157	0.391228	0.003922 
		0.724820	0.511157	0.391228	0.003922 
		0.730688	0.491744	0.404006	0.003922 
		0.750000	0.500000	0.500000	0.003922 
		0.749034	0.521922	0.498854	0.003922 
		0.524127	0.536155	0.147530	0.003922 
		0.634855	0.469964	0.150772	0.003922 
		0.602436	0.374048	0.539335	0.003922 
		0.530525	0.472472	0.335132	0.003922 
		0.469475	0.472472	0.335132	0.003922 
		0.397564	0.374048	0.539335	0.003922 
		0.383250	0.412879	0.592285	0.003922 
		0.328959	0.412879	0.592285	0.003922 
		0.354082	0.598424	0.589773	0.003922 
		0.358126	0.598424	0.589773	0.003922 
		0.325579	0.527528	0.570693	0.003922 
		0.386629	0.527528	0.570693	0.003922 
		0.251646	0.527528	0.182542	0.003922 
		0.460562	0.527528	0.182542	0.003922 
		0.356104	0.500000	0.405825	0.003922 
		0.356104	0.500000	0.405825	0.003922 
		0.328959	0.587121	0.219365	0.003922 
		0.383250	0.587121	0.219365	0.003922 
		0.356104	0.500000	0.405825	0.003922 
		0.356104	0.500000	0.405825	0.003922 
		0.383250	0.587121	0.219365	0.003922 
		0.328959	0.587121	0.219365	0.003922 
		0.602436	0.374048	0.539335	0.003922 
		0.530525	0.472472	0.335132	0.003922 
		0.469475	0.472472	0.335132	0.003922 
		0.397564	0.374048	0.539335	0.003922 
		0.693047	0.368160	0.858037	0.003922 
		0.726109	0.379634	0.846659	0.003922 
		0.628305	0.466755	0.649348	0.003922 
		0.782499	0.466755	0.905255	0.003922 
		0.768344	0.451219	0.517724	0.003922 
		0.704576	0.450262	0.517724	0.003922 
		0.690339	0.461031	0.685969	0.003922 
		0.774175	0.461987	0.685969	0.003922 
		0.773301	0.454335	0.905255	0.003922 
		0.662574	0.454335	0.602565	0.003922 
		0.665901	0.455281	0.368887	0.003922 
		0.796721	0.466755	0.373483	0.003922 
		0.662574	0.454335	0.602565	0.003922 
		0.773301	0.454335	0.905255	0.003922 
		0.796721	0.466755	0.373483	0.003922 
		0.665901	0.455281	0.368887	0.003922 
		0.482451	0.499054	0.453081	0.003922 
		0.508352	0.488526	0.453081	0.003922 
		0.500000	0.500000	0.244094	0.003922 
		0.541412	0.467704	0.473524	0.003922 
		0.541412	0.467704	0.473524	0.003922 
		0.508352	0.488526	0.453081	0.003922 
		0.516501	0.455979	0.523635	0.003922 
		0.555765	0.466748	0.718052	0.003922 
		0.500000	0.500000	0.546783	0.003922 
		0.511346	0.469356	0.528231	0.003922 
		0.516501	0.455979	0.523635	0.003922 
		0.555765	0.466748	0.718052	0.003922 
		0.250359	0.491614	0.510437	0.003922 
		0.250806	0.488407	0.483631	0.003922 
		0.555765	0.466748	0.718052	0.003922 
		0.257729	0.486540	0.560197	0.003922 
		0.257713	0.496349	0.438488	0.003922 
		0.541412	0.467704	0.473524	0.003922 
		0.260556	0.499327	0.571874	0.003922 
		0.261195	0.503494	0.573892	0.003922 
		0.258576	0.504707	0.435252	0.003922 
		0.250007	0.499676	0.498195	0.003922 
		0.500000	0.500000	0.244094	0.003922 
		0.257713	0.496349	0.438488	0.003922 
		0.257924	0.503921	0.437681	0.003922 
		0.258576	0.504707	0.435252	0.003922 
		0.500000	0.500000	0.244094	0.003922 
		0.482451	0.499054	0.453081	0.003922 
		0.258147	0.501555	0.436716	0.003922 
		0.250007	0.499676	0.498195	0.003922 
		0.500000	0.500000	0.546783	0.003922 
		0.250308	0.496790	0.488009	0.003922 
		0.260556	0.499327	0.571874	0.003922 
		0.511346	0.469356	0.528231	0.003922 
		0.258551	0.494430	0.564586	0.003922 
		0.257729	0.486540	0.560197	0.003922 
		0.511346	0.469356	0.528231	0.003922 
		0.261195	0.503494	0.573892	0.003922 
		0.250359	0.491614	0.510437	0.003922 
		0.258147	0.501555	0.436716	0.003922 
		0.257924	0.503921	0.437681	0.003922 
		0.257713	0.496349	0.438488	0.003922 
		0.257713	0.496349	0.438488	0.003922 
		0.257729	0.486540	0.560197	0.003922 
		0.257729	0.486540	0.560197	0.003922 
		0.258551	0.494430	0.564586	0.003922 
		0.250308	0.496790	0.488009	0.003922 
		0.250806	0.488407	0.483631	0.003922 
		0.524664	0.468640	0.448980	0.003922 
		0.507114	0.482806	0.240411	0.003922 
		0.498776	0.456004	0.448906	0.003922 
		0.468136	0.436045	0.468102	0.003922 
		0.468136	0.436045	0.468102	0.003922 
		0.454001	0.433381	0.712461	0.003922 
		0.494586	0.437175	0.517810	0.003922 
		0.498776	0.456004	0.448906	0.003922 
		0.507127	0.480698	0.543027	0.003922 
		0.494586	0.437175	0.517810	0.003922 
		0.499522	0.452259	0.522575	0.003922 
		0.454001	0.433381	0.712461	0.003922 
		0.507127	0.467478	0.495825	0.003922 
		0.507127	0.480698	0.496244	0.003922 
		0.454001	0.433381	0.712461	0.003922 
		0.468136	0.436045	0.468102	0.003922 
		0.507114	0.469586	0.495899	0.003922 
		0.507114	0.482806	0.496317	0.003922 
		0.510869	0.485704	0.494433	0.003922 
		0.511087	0.483996	0.494264	0.003922 
		0.509766	0.463986	0.494325	0.003922 
		0.509548	0.465693	0.494494	0.003922 
		0.507114	0.482806	0.240411	0.003922 
		0.509548	0.465693	0.494494	0.003922 
		0.509548	0.468341	0.494578	0.003922 
		0.507114	0.469586	0.495899	0.003922 
		0.507114	0.482806	0.240411	0.003922 
		0.524664	0.468640	0.448980	0.003922 
		0.509548	0.465693	0.494494	0.003922 
		0.509766	0.463986	0.494325	0.003922 
		0.507127	0.480698	0.543027	0.003922 
		0.511087	0.483996	0.494264	0.003922 
		0.511087	0.481196	0.494175	0.003922 
		0.499522	0.452259	0.522575	0.003922 
		0.510869	0.482904	0.494344	0.003922 
		0.510869	0.485704	0.494433	0.003922 
		0.499522	0.452259	0.522575	0.003922 
		0.507114	0.482806	0.496317	0.003922 
		0.507127	0.467478	0.495825	0.003922 
		0.507114	0.469586	0.495899	0.003922 
		0.509548	0.468341	0.494578	0.003922 
		0.509548	0.465693	0.494494	0.003922 
		0.507114	0.469586	0.495899	0.003922 
		0.507114	0.482806	0.496317	0.003922 
		0.507114	0.482806	0.496317	0.003922 
		0.507127	0.480698	0.496244	0.003922 
		0.511087	0.481196	0.494175	0.003922 
		0.510869	0.482904	0.494344	0.003922 
		0.527146	0.412880	0.686460	0.003922 
		0.472854	0.412880	0.686460	0.003922 
		0.500000	0.500000	0.500000	0.003922 
		0.500000	0.500000	0.500000	0.003922 
		0.496620	0.385352	0.521592	0.003922 
		0.503380	0.385352	0.521592	0.003922 
		0.395542	0.472472	0.723284	0.003922 
		0.604458	0.472472	0.723284	0.003922 
		0.383250	0.412880	0.773391	0.003922 
		0.328959	0.412880	0.773391	0.003922 
		0.354082	0.598425	0.770879	0.003922 
		0.358126	0.598425	0.770879	0.003922 
	}

	Tex0 14 { 
		0.171875	0.208984 
		0.036133	0.963867 
		0.039063	0.325195 
		0.146484	0.239258 
		0.172852	0.206055 
		0.032227	0.953125 
		0.170898	0.625977 
		0.258789	0.200195 
		0.258789	0.238281 
		0.188477	0.238281 
		0.188477	0.200195 
		0.329102	0.238281 
		0.329102	0.200195 
		0.035156	0.945313 
	}

	Tex1 0 
	Adj 348 { 
		P 0 
		N 0 
		C0 0 
		T0 0 
		P 1 
		N 1 
		C0 1 
		T0 0 
		P 2 
		N 2 
		C0 2 
		T0 0 
		P 3 
		N 3 
		C0 3 
		T0 0 
		P 4 
		N 4 
		C0 4 
		T0 1 
		P 5 
		N 5 
		C0 5 
		T0 1 
		P 6 
		N 6 
		C0 6 
		T0 1 
		P 7 
		N 7 
		C0 7 
		T0 1 
		P 8 
		N 8 
		C0 8 
		T0 1 
		P 9 
		N 9 
		C0 9 
		T0 1 
		P 2 
		N 10 
		C0 10 
		T0 1 
		P 1 
		N 11 
		C0 11 
		T0 1 
		P 9 
		N 12 
		C0 12 
		T0 1 
		P 8 
		N 12 
		C0 13 
		T0 1 
		P 1 
		N 12 
		C0 14 
		T0 1 
		P 2 
		N 12 
		C0 15 
		T0 1 
		P 10 
		N 0 
		C0 16 
		T0 2 
		P 11 
		N 1 
		C0 17 
		T0 2 
		P 12 
		N 2 
		C0 18 
		T0 2 
		P 13 
		N 3 
		C0 19 
		T0 2 
		P 14 
		N 4 
		C0 20 
		T0 1 
		P 15 
		N 5 
		C0 21 
		T0 1 
		P 16 
		N 6 
		C0 22 
		T0 1 
		P 17 
		N 7 
		C0 23 
		T0 1 
		P 18 
		N 8 
		C0 24 
		T0 1 
		P 19 
		N 9 
		C0 25 
		T0 1 
		P 12 
		N 10 
		C0 26 
		T0 1 
		P 11 
		N 11 
		C0 27 
		T0 1 
		P 19 
		N 12 
		C0 28 
		T0 1 
		P 18 
		N 12 
		C0 29 
		T0 1 
		P 11 
		N 12 
		C0 30 
		T0 1 
		P 12 
		N 12 
		C0 31 
		T0 1 
		P 20 
		N 0 
		C0 32 
		T0 3 
		P 21 
		N 1 
		C0 33 
		T0 3 
		P 22 
		N 2 
		C0 34 
		T0 3 
		P 23 
		N 3 
		C0 35 
		T0 3 
		P 24 
		N 4 
		C0 36 
		T0 1 
		P 25 
		N 5 
		C0 37 
		T0 1 
		P 26 
		N 6 
		C0 38 
		T0 1 
		P 27 
		N 7 
		C0 39 
		T0 1 
		P 28 
		N 8 
		C0 40 
		T0 1 
		P 29 
		N 9 
		C0 41 
		T0 1 
		P 22 
		N 10 
		C0 42 
		T0 1 
		P 21 
		N 11 
		C0 43 
		T0 1 
		P 29 
		N 12 
		C0 44 
		T0 1 
		P 28 
		N 12 
		C0 45 
		T0 1 
		P 21 
		N 12 
		C0 46 
		T0 1 
		P 22 
		N 12 
		C0 47 
		T0 1 
		P 30 
		N 0 
		C0 48 
		T0 2 
		P 31 
		N 1 
		C0 49 
		T0 2 
		P 32 
		N 2 
		C0 50 
		T0 2 
		P 33 
		N 3 
		C0 51 
		T0 2 
		P 34 
		N 13 
		C0 52 
		T0 2 
		P 35 
		N 14 
		C0 53 
		T0 2 
		P 36 
		N 15 
		C0 54 
		T0 2 
		P 37 
		N 16 
		C0 55 
		T0 2 
		P 38 
		N 4 
		C0 56 
		T0 1 
		P 39 
		N 5 
		C0 57 
		T0 1 
		P 40 
		N 6 
		C0 58 
		T0 1 
		P 41 
		N 7 
		C0 59 
		T0 1 
		P 37 
		N 8 
		C0 60 
		T0 1 
		P 36 
		N 9 
		C0 61 
		T0 1 
		P 32 
		N 10 
		C0 62 
		T0 1 
		P 31 
		N 11 
		C0 63 
		T0 1 
		P 36 
		N 12 
		C0 64 
		T0 1 
		P 37 
		N 12 
		C0 65 
		T0 1 
		P 31 
		N 12 
		C0 66 
		T0 1 
		P 32 
		N 12 
		C0 67 
		T0 1 
		P 42 
		N 0 
		C0 68 
		T0 4 
		P 43 
		N 1 
		C0 69 
		T0 4 
		P 44 
		N 2 
		C0 70 
		T0 4 
		P 45 
		N 3 
		C0 71 
		T0 4 
		P 46 
		N 13 
		C0 72 
		T0 4 
		P 47 
		N 14 
		C0 73 
		T0 4 
		P 48 
		N 15 
		C0 74 
		T0 4 
		P 49 
		N 16 
		C0 75 
		T0 4 
		P 50 
		N 4 
		C0 76 
		T0 1 
		P 51 
		N 5 
		C0 77 
		T0 1 
		P 52 
		N 6 
		C0 78 
		T0 1 
		P 53 
		N 7 
		C0 79 
		T0 1 
		P 49 
		N 8 
		C0 80 
		T0 1 
		P 48 
		N 9 
		C0 81 
		T0 1 
		P 44 
		N 10 
		C0 82 
		T0 1 
		P 43 
		N 11 
		C0 83 
		T0 1 
		P 48 
		N 12 
		C0 84 
		T0 1 
		P 49 
		N 12 
		C0 85 
		T0 1 
		P 43 
		N 12 
		C0 86 
		T0 1 
		P 44 
		N 12 
		C0 87 
		T0 1 
		P 54 
		N 17 
		C0 88 
		T0 5 
		P 55 
		N 17 
		C0 89 
		T0 5 
		P 56 
		N 17 
		C0 90 
		T0 5 
		P 57 
		N 17 
		C0 91 
		T0 5 
		P 58 
		N 18 
		C0 92 
		T0 5 
		P 59 
		N 19 
		C0 93 
		T0 5 
		P 60 
		N 18 
		C0 94 
		T0 5 
		P 56 
		N 20 
		C0 95 
		T0 5 
		P 61 
		N 18 
		C0 96 
		T0 5 
		P 55 
		N 18 
		C0 97 
		T0 5 
		P 62 
		N 21 
		C0 98 
		T0 5 
		P 63 
		N 21 
		C0 99 
		T0 5 
		P 64 
		N 21 
		C0 100 
		T0 5 
		P 65 
		N 21 
		C0 101 
		T0 5 
		P 66 
		N 12 
		C0 102 
		T0 6 
		P 67 
		N 12 
		C0 103 
		T0 6 
		P 68 
		N 12 
		C0 104 
		T0 6 
		P 69 
		N 12 
		C0 105 
		T0 6 
		P 70 
		N 22 
		C0 106 
		T0 5 
		P 58 
		N 22 
		C0 107 
		T0 5 
		P 60 
		N 22 
		C0 108 
		T0 5 
		P 71 
		N 22 
		C0 109 
		T0 5 
		P 72 
		N 23 
		C0 110 
		T0 5 
		P 61 
		N 23 
		C0 111 
		T0 5 
		P 55 
		N 23 
		C0 112 
		T0 5 
		P 54 
		N 23 
		C0 113 
		T0 5 
		P 63 
		N 24 
		C0 114 
		T0 5 
		P 62 
		N 24 
		C0 115 
		T0 5 
		P 61 
		N 24 
		C0 116 
		T0 5 
		P 72 
		N 24 
		C0 117 
		T0 5 
		P 71 
		N 12 
		C0 118 
		T0 5 
		P 64 
		N 12 
		C0 119 
		T0 5 
		P 73 
		N 12 
		C0 120 
		T0 5 
		P 72 
		N 12 
		C0 121 
		T0 5 
		P 74 
		N 12 
		C0 122 
		T0 5 
		P 63 
		N 12 
		C0 123 
		T0 5 
		P 60 
		N 25 
		C0 124 
		T0 5 
		P 65 
		N 25 
		C0 125 
		T0 5 
		P 64 
		N 25 
		C0 126 
		T0 5 
		P 71 
		N 25 
		C0 127 
		T0 5 
		P 62 
		N 18 
		C0 128 
		T0 5 
		P 65 
		N 18 
		C0 129 
		T0 5 
		P 75 
		N 26 
		C0 130 
		T0 7 
		P 76 
		N 26 
		C0 131 
		T0 8 
		P 77 
		N 26 
		C0 132 
		T0 9 
		P 78 
		N 26 
		C0 133 
		T0 10 
		P 79 
		N 17 
		C0 134 
		T0 5 
		P 59 
		N 17 
		C0 135 
		T0 5 
		P 58 
		N 17 
		C0 136 
		T0 5 
		P 70 
		N 17 
		C0 137 
		T0 5 
		P 80 
		N 12 
		C0 138 
		T0 6 
		P 81 
		N 12 
		C0 139 
		T0 6 
		P 82 
		N 12 
		C0 140 
		T0 6 
		P 83 
		N 12 
		C0 141 
		T0 6 
		P 84 
		N 12 
		C0 142 
		T0 6 
		P 85 
		N 12 
		C0 143 
		T0 6 
		P 86 
		N 12 
		C0 144 
		T0 6 
		P 77 
		N 12 
		C0 145 
		T0 6 
		P 76 
		N 12 
		C0 146 
		T0 6 
		P 75 
		N 20 
		C0 147 
		T0 5 
		P 78 
		N 20 
		C0 148 
		T0 5 
		P 87 
		N 20 
		C0 149 
		T0 5 
		P 88 
		N 20 
		C0 150 
		T0 5 
		P 89 
		N 20 
		C0 151 
		T0 5 
		P 90 
		N 20 
		C0 152 
		T0 5 
		P 91 
		N 20 
		C0 153 
		T0 5 
		P 92 
		N 20 
		C0 154 
		T0 5 
		P 93 
		N 20 
		C0 155 
		T0 5 
		P 80 
		N 23 
		C0 156 
		T0 6 
		P 57 
		N 23 
		C0 157 
		T0 6 
		P 56 
		N 23 
		C0 158 
		T0 6 
		P 93 
		N 23 
		C0 159 
		T0 6 
		P 67 
		N 23 
		C0 160 
		T0 6 
		P 54 
		N 12 
		C0 161 
		T0 5 
		P 57 
		N 12 
		C0 162 
		T0 5 
		P 79 
		N 12 
		C0 163 
		T0 5 
		P 70 
		N 12 
		C0 164 
		T0 5 
		P 74 
		N 27 
		C0 165 
		T0 6 
		P 66 
		N 27 
		C0 166 
		T0 6 
		P 69 
		N 27 
		C0 167 
		T0 6 
		P 73 
		N 27 
		C0 168 
		T0 6 
		P 73 
		N 28 
		C0 169 
		T0 6 
		P 69 
		N 28 
		C0 170 
		T0 6 
		P 68 
		N 28 
		C0 171 
		T0 6 
		P 79 
		N 28 
		C0 172 
		T0 6 
		P 57 
		N 29 
		C0 173 
		T0 6 
		P 67 
		N 29 
		C0 174 
		T0 6 
		P 66 
		N 29 
		C0 175 
		T0 6 
		P 74 
		N 29 
		C0 176 
		T0 6 
		P 59 
		N 22 
		C0 177 
		T0 6 
		P 79 
		N 22 
		C0 178 
		T0 6 
		P 76 
		N 22 
		C0 179 
		T0 6 
		P 75 
		N 22 
		C0 180 
		T0 6 
		P 68 
		N 22 
		C0 181 
		T0 6 
		P 89 
		N 26 
		C0 182 
		T0 7 
		P 84 
		N 26 
		C0 183 
		T0 8 
		P 83 
		N 26 
		C0 184 
		T0 11 
		P 90 
		N 26 
		C0 185 
		T0 12 
		P 87 
		N 26 
		C0 186 
		T0 7 
		P 86 
		N 26 
		C0 187 
		T0 8 
		P 85 
		N 26 
		C0 188 
		T0 11 
		P 88 
		N 26 
		C0 189 
		T0 12 
		P 91 
		N 26 
		C0 190 
		T0 7 
		P 82 
		N 26 
		C0 191 
		T0 8 
		P 81 
		N 26 
		C0 192 
		T0 11 
		P 92 
		N 26 
		C0 193 
		T0 12 
		P 92 
		N 26 
		C0 194 
		T0 7 
		P 81 
		N 26 
		C0 195 
		T0 8 
		P 80 
		N 26 
		C0 196 
		T0 9 
		P 93 
		N 26 
		C0 197 
		T0 10 
		P 78 
		N 26 
		C0 198 
		T0 12 
		P 77 
		N 26 
		C0 199 
		T0 11 
		P 94 
		N 0 
		C0 200 
		T0 3 
		P 95 
		N 1 
		C0 201 
		T0 3 
		P 96 
		N 2 
		C0 202 
		T0 3 
		P 97 
		N 3 
		C0 203 
		T0 3 
		P 98 
		N 13 
		C0 204 
		T0 3 
		P 99 
		N 14 
		C0 205 
		T0 3 
		P 100 
		N 15 
		C0 206 
		T0 3 
		P 101 
		N 16 
		C0 207 
		T0 3 
		P 102 
		N 4 
		C0 208 
		T0 1 
		P 103 
		N 5 
		C0 209 
		T0 1 
		P 104 
		N 6 
		C0 210 
		T0 1 
		P 105 
		N 7 
		C0 211 
		T0 1 
		P 101 
		N 8 
		C0 212 
		T0 1 
		P 100 
		N 9 
		C0 213 
		T0 1 
		P 96 
		N 10 
		C0 214 
		T0 1 
		P 95 
		N 11 
		C0 215 
		T0 1 
		P 100 
		N 12 
		C0 216 
		T0 1 
		P 101 
		N 12 
		C0 217 
		T0 1 
		P 95 
		N 12 
		C0 218 
		T0 1 
		P 96 
		N 12 
		C0 219 
		T0 1 
		P 106 
		N 0 
		C0 220 
		T0 2 
		P 107 
		N 1 
		C0 221 
		T0 2 
		P 108 
		N 2 
		C0 222 
		T0 2 
		P 109 
		N 3 
		C0 223 
		T0 2 
		P 110 
		N 13 
		C0 224 
		T0 2 
		P 111 
		N 14 
		C0 225 
		T0 2 
		P 112 
		N 15 
		C0 226 
		T0 2 
		P 113 
		N 16 
		C0 227 
		T0 2 
		P 114 
		N 4 
		C0 228 
		T0 1 
		P 115 
		N 5 
		C0 229 
		T0 1 
		P 116 
		N 6 
		C0 230 
		T0 1 
		P 117 
		N 7 
		C0 231 
		T0 1 
		P 113 
		N 8 
		C0 232 
		T0 1 
		P 112 
		N 9 
		C0 233 
		T0 1 
		P 108 
		N 10 
		C0 234 
		T0 1 
		P 107 
		N 11 
		C0 235 
		T0 1 
		P 112 
		N 12 
		C0 236 
		T0 1 
		P 113 
		N 12 
		C0 237 
		T0 1 
		P 107 
		N 12 
		C0 238 
		T0 1 
		P 108 
		N 12 
		C0 239 
		T0 1 
		P 118 
		N 30 
		C0 240 
		T0 13 
		P 119 
		N 31 
		C0 241 
		T0 13 
		P 120 
		N 32 
		C0 242 
		T0 13 
		P 121 
		N 33 
		C0 243 
		T0 13 
		P 121 
		N 12 
		C0 244 
		T0 13 
		P 119 
		N 34 
		C0 245 
		T0 13 
		P 122 
		N 34 
		C0 246 
		T0 13 
		P 123 
		N 12 
		C0 247 
		T0 13 
		P 124 
		N 35 
		C0 248 
		T0 13 
		P 125 
		N 36 
		C0 249 
		T0 13 
		P 122 
		N 37 
		C0 250 
		T0 13 
		P 123 
		N 38 
		C0 251 
		T0 13 
		P 126 
		N 39 
		C0 252 
		T0 13 
		P 127 
		N 40 
		C0 253 
		T0 13 
		P 123 
		N 41 
		C0 254 
		T0 13 
		P 128 
		N 41 
		C0 255 
		T0 13 
		P 129 
		N 41 
		C0 256 
		T0 13 
		P 121 
		N 41 
		C0 257 
		T0 13 
		P 130 
		N 42 
		C0 258 
		T0 13 
		P 131 
		N 42 
		C0 259 
		T0 13 
		P 132 
		N 43 
		C0 260 
		T0 13 
		P 133 
		N 43 
		C0 261 
		T0 13 
		P 120 
		N 44 
		C0 262 
		T0 13 
		P 129 
		N 44 
		C0 263 
		T0 13 
		P 134 
		N 44 
		C0 264 
		T0 13 
		P 132 
		N 44 
		C0 265 
		T0 13 
		P 120 
		N 41 
		C0 266 
		T0 13 
		P 118 
		N 45 
		C0 267 
		T0 13 
		P 135 
		N 46 
		C0 268 
		T0 13 
		P 133 
		N 46 
		C0 269 
		T0 13 
		P 124 
		N 47 
		C0 270 
		T0 13 
		P 136 
		N 48 
		C0 271 
		T0 13 
		P 130 
		N 48 
		C0 272 
		T0 13 
		P 125 
		N 41 
		C0 273 
		T0 13 
		P 137 
		N 44 
		C0 274 
		T0 13 
		P 128 
		N 44 
		C0 275 
		T0 13 
		P 125 
		N 44 
		C0 276 
		T0 13 
		P 131 
		N 44 
		C0 277 
		T0 13 
		P 126 
		N 49 
		C0 278 
		T0 13 
		P 135 
		N 49 
		C0 279 
		T0 13 
		P 134 
		N 49 
		C0 280 
		T0 13 
		P 129 
		N 49 
		C0 281 
		T0 13 
		P 129 
		N 50 
		C0 282 
		T0 13 
		P 128 
		N 50 
		C0 283 
		T0 13 
		P 128 
		N 51 
		C0 284 
		T0 13 
		P 137 
		N 51 
		C0 285 
		T0 13 
		P 136 
		N 51 
		C0 286 
		T0 13 
		P 127 
		N 51 
		C0 287 
		T0 13 
		P 138 
		N 30 
		C0 288 
		T0 13 
		P 139 
		N 52 
		C0 289 
		T0 13 
		P 140 
		N 53 
		C0 290 
		T0 13 
		P 141 
		N 54 
		C0 291 
		T0 13 
		P 141 
		N 12 
		C0 292 
		T0 13 
		P 142 
		N 12 
		C0 293 
		T0 13 
		P 143 
		N 55 
		C0 294 
		T0 13 
		P 140 
		N 55 
		C0 295 
		T0 13 
		P 144 
		N 56 
		C0 296 
		T0 13 
		P 143 
		N 57 
		C0 297 
		T0 13 
		P 145 
		N 58 
		C0 298 
		T0 13 
		P 142 
		N 59 
		C0 299 
		T0 13 
		P 146 
		N 60 
		C0 300 
		T0 13 
		P 147 
		N 61 
		C0 301 
		T0 13 
		P 142 
		N 62 
		C0 302 
		T0 13 
		P 141 
		N 62 
		C0 303 
		T0 13 
		P 148 
		N 62 
		C0 304 
		T0 13 
		P 149 
		N 62 
		C0 305 
		T0 13 
		P 150 
		N 42 
		C0 306 
		T0 13 
		P 151 
		N 42 
		C0 307 
		T0 13 
		P 152 
		N 43 
		C0 308 
		T0 13 
		P 153 
		N 43 
		C0 309 
		T0 13 
		P 139 
		N 63 
		C0 310 
		T0 13 
		P 153 
		N 63 
		C0 311 
		T0 13 
		P 154 
		N 63 
		C0 312 
		T0 13 
		P 148 
		N 63 
		C0 313 
		T0 13 
		P 139 
		N 62 
		C0 314 
		T0 13 
		P 138 
		N 64 
		C0 315 
		T0 13 
		P 155 
		N 65 
		C0 316 
		T0 13 
		P 152 
		N 65 
		C0 317 
		T0 13 
		P 144 
		N 66 
		C0 318 
		T0 13 
		P 151 
		N 67 
		C0 319 
		T0 13 
		P 156 
		N 67 
		C0 320 
		T0 13 
		P 145 
		N 62 
		C0 321 
		T0 13 
		P 157 
		N 63 
		C0 322 
		T0 13 
		P 150 
		N 63 
		C0 323 
		T0 13 
		P 145 
		N 63 
		C0 324 
		T0 13 
		P 149 
		N 63 
		C0 325 
		T0 13 
		P 146 
		N 49 
		C0 326 
		T0 13 
		P 148 
		N 49 
		C0 327 
		T0 13 
		P 154 
		N 49 
		C0 328 
		T0 13 
		P 155 
		N 49 
		C0 329 
		T0 13 
		P 148 
		N 68 
		C0 330 
		T0 13 
		P 149 
		N 68 
		C0 331 
		T0 13 
		P 149 
		N 51 
		C0 332 
		T0 13 
		P 147 
		N 51 
		C0 333 
		T0 13 
		P 156 
		N 51 
		C0 334 
		T0 13 
		P 157 
		N 51 
		C0 335 
		T0 13 
		P 158 
		N 13 
		C0 336 
		T0 0 
		P 159 
		N 14 
		C0 337 
		T0 0 
		P 9 
		N 15 
		C0 338 
		T0 0 
		P 8 
		N 16 
		C0 339 
		T0 0 
		P 160 
		N 13 
		C0 340 
		T0 2 
		P 161 
		N 14 
		C0 341 
		T0 2 
		P 19 
		N 15 
		C0 342 
		T0 2 
		P 18 
		N 16 
		C0 343 
		T0 2 
		P 162 
		N 13 
		C0 344 
		T0 3 
		P 163 
		N 14 
		C0 345 
		T0 3 
		P 29 
		N 15 
		C0 346 
		T0 3 
		P 28 
		N 16 
		C0 347 
		T0 3 
	}

	Mtl 2 { 
		{
			Name "#3" 
			Priority 32 
			Prim 60 { 
				{
					Type TRISTRIP
					Priority 32 
					Idx 4 { 1 2 0 3 }
				}
				{
					Type TRISTRIP
					Priority 32 
					Idx 4 { 13 14 12 15 }
				}
				{
					Type TRISTRIP
					Priority 32 
					Idx 4 { 17 18 16 19 }
				}
				{
					Type TRISTRIP
					Priority 32 
					Idx 4 { 29 30 28 31 }
				}
				{
					Type TRISTRIP
					Priority 32 
					Idx 4 { 33 34 32 35 }
				}
				{
					Type TRISTRIP
					Priority 32 
					Idx 4 { 45 46 44 47 }
				}
				{
					Type TRISTRIP
					Priority 32 
					Idx 4 { 65 66 64 67 }
				}
				{
					Type TRISTRIP
					Priority 32 
					Idx 4 { 85 86 84 87 }
				}
				{
					Type TRISTRIP
					Priority 32 
					Idx 4 { 89 90 88 91 }
				}
				{
					Type TRISTRIP
					Priority 32 
					Idx 6 { 92 93 94 95 96 97 }
				}
				{
					Type TRISTRIP
					Priority 32 
					Idx 4 { 96 128 94 129 }
				}
				{
					Type TRISTRIP
					Priority 32 
					Idx 4 { 108 109 107 106 }
				}
				{
					Type TRISTRIP
					Priority 32 
					Idx 4 { 111 112 110 113 }
				}
				{
					Type TRISTRIP
					Priority 32 
					Idx 4 { 116 117 115 114 }
				}
				{
					Type TRISTRIP
					Priority 32 
					Idx 4 { 125 126 124 127 }
				}
				{
					Type TRISTRIP
					Priority 32 
					Idx 4 { 98 99 101 100 }
				}
				{
					Type TRISTRIP
					Priority 32 
					Idx 4 { 133 130 132 131 }
				}
				{
					Type TRISTRIP
					Priority 32 
					Idx 4 { 135 136 134 137 }
				}
				{
					Type TRISTRIP
					Priority 32 
					Idx 5 { 158 159 157 156 160 }
				}
				{
					Type TRISTRIP2
					Priority 32 
					Idx 4 { 165 168 166 167 }
				}
				{
					Type TRISTRIP2
					Priority 32 
					Idx 4 { 169 172 170 171 }
				}
				{
					Type TRISTRIP2
					Priority 32 
					Idx 4 { 176 175 173 174 }
				}
				{
					Type TRISTRIP2
					Priority 32 
					Idx 5 { 177 180 178 179 181 }
				}
				{
					Type TRISTRIP
					Priority 32 
					Idx 4 { 197 194 196 195 }
				}
				{
					Type TRISTRIP
					Priority 32 
					Idx 4 { 217 218 216 219 }
				}
				{
					Type TRISTRIP
					Priority 32 
					Idx 4 { 237 238 236 239 }
				}
				{
					Type TRISTRIP
					Priority 32 
					Idx 6 { 251 250 249 248 259 258 }
				}
				{
					Type TRISTRIP
					Priority 32 
					Idx 4 { 263 264 262 265 }
				}
				{
					Type TRISTRIP
					Priority 32 
					Idx 4 { 276 277 275 274 }
				}
				{
					Type TRISTRIP
					Priority 32 
					Idx 4 { 281 278 280 279 }
				}
				{
					Type TRISTRIP
					Priority 32 
					Idx 4 { 284 285 287 286 }
				}
				{
					Type TRISTRIP
					Priority 32 
					Idx 8 { 292 293 295 294 301 318 320 319 }
				}
				{
					Type TRISTRIP
					Priority 32 
					Idx 4 { 313 310 312 311 }
				}
				{
					Type TRISTRIP
					Priority 32 
					Idx 4 { 323 324 322 325 }
				}
				{
					Type TRISTRIP
					Priority 32 
					Idx 4 { 326 327 329 328 }
				}
				{
					Type TRISTRIP
					Priority 32 
					Idx 4 { 334 335 333 332 }
				}
				{
					Type TRISTRIP
					Priority 32 
					Idx 15 { 199 187 198 187 186 188 189 183 182 184 185 191 190 192 193 }
				}
				{
					Type TRISTRIP2
					Priority 32 
					Idx 6 { 243 241 242 240 260 261 }
				}
				{
					Type TRISTRIP2
					Priority 32 
					Idx 6 { 266 256 257 255 254 273 }
				}
				{
					Type TRISTRIP2
					Priority 32 
					Idx 6 { 299 297 298 296 306 307 }
				}
				{
					Type TRISTRIP2
					Priority 32 
					Idx 6 { 314 303 304 302 305 321 }
				}
				{
					Type TRISTRIP2
					Priority 32 
					Idx 9 { 283 282 253 252 245 252 267 268 269 }
				}
				{
					Type TRISTRIP
					Priority 32 
					Idx 7 { 291 290 289 288 289 308 309 }
				}
				{
					Type TRISTRIP2
					Priority 32 
					Idx 12 { 164 163 118 120 119 122 123 122 121 122 161 162 }
				}
				{
					Type TRISTRIP2
					Priority 32 
					Idx 10 { 330 331 300 301 300 295 300 315 316 317 }
				}
				{
					Type TRISTRIP2
					Priority 32 
					Idx 15 { 155 154 95 153 95 152 95 151 95 150 93 149 93 148 147 }
				}
				{
					Type TRISTRIP
					Priority 32 
					Idx 10 { 271 272 253 270 253 246 245 246 244 247 }
				}
				{
					Type TRISTRIP
					Priority 32 
					Idx 15 { 138 139 103 140 103 141 104 142 104 143 104 144 104 145 146 }
				}
				{
					Type TRISTRIP2
					Priority 32 
					Idx 4 { 102 105 103 104 }
				}
				{
					Type TRISTRIP2
					Priority 32 
					Idx 13 { 233 232 228 235 231 234 230 233 229 228 229 231 230 }
				}
				{
					Type TRISTRIP
					Priority 32 
					Idx 13 { 222 220 221 225 227 225 226 224 222 223 220 224 225 }
				}
				{
					Type TRISTRIP2
					Priority 32 
					Idx 13 { 214 211 215 208 212 208 213 209 214 210 211 209 208 }
				}
				{
					Type TRISTRIP
					Priority 32 
					Idx 13 { 202 200 201 205 207 205 206 204 202 203 200 204 205 }
				}
				{
					Type TRISTRIP2
					Priority 32 
					Idx 13 { 69 75 73 74 72 70 71 69 68 73 68 72 71 }
				}
				{
					Type TRISTRIP
					Priority 32 
					Idx 13 { 83 80 76 81 77 82 78 83 79 76 79 77 78 }
				}
				{
					Type TRISTRIP2
					Priority 32 
					Idx 13 { 49 55 53 54 52 50 51 49 48 53 48 52 51 }
				}
				{
					Type TRISTRIP
					Priority 32 
					Idx 13 { 63 60 56 61 57 62 58 63 59 56 59 57 58 }
				}
				{
					Type TRISTRIP2
					Priority 32 
					Idx 13 { 41 40 36 43 39 42 38 41 37 36 37 39 38 }
				}
				{
					Type TRISTRIP
					Priority 32 
					Idx 14 { 24 20 27 23 26 22 25 22 21 23 21 20 25 24 }
				}
				{
					Type TRISTRIP
					Priority 32 
					Idx 14 { 8 4 11 7 10 6 9 6 5 7 5 4 9 8 }
				}
			}

		}
		{
			Name "#3" 
			Priority 32 
			Prim 3 { 
				{
					Type TRISTRIP
					Priority 32 
					Idx 12 { 347 33 345 32 344 35 344 34 344 346 345 347 }
				}
				{
					Type TRISTRIP
					Priority 32 
					Idx 12 { 343 17 341 16 340 19 340 18 340 342 341 343 }
				}
				{
					Type TRISTRIP
					Priority 32 
					Idx 12 { 339 1 337 0 336 3 336 2 336 338 337 339 }
				}
			}

		}
	}

	Offset 0 
}
