{
	Skinned 0 
	PosSkin 0 
	Pos 16 { 
		-1.500191	0.818264	-0.985127 
		-1.500191	0.818263	-10.027879 
		-1.500190	3.475957	-9.861147 
		-1.500190	3.475957	-0.985127 
		1.512796	3.475957	-9.861149 
		1.017431	3.801665	-9.532162 
		-0.945990	3.801665	-9.532162 
		1.017431	3.475957	-0.058706 
		1.017431	3.801665	-0.370456 
		1.512796	3.475957	-0.985128 
		1.509382	0.824610	-0.985128 
		1.017431	0.823354	0.038235 
		1.509382	0.824610	-10.027881 
		-0.945990	3.801665	-0.370456 
		-0.945990	3.475957	-0.058706 
		-0.945990	0.819633	0.038235 
	}

	Nrm 21 { 
		1.000000	0.000000	0.000000 
		0.000000	-0.406250	0.906250 
		-0.203125	-0.937500	0.265625 
		0.187500	-0.953125	0.265625 
		-0.859375	-0.218750	-0.453125 
		-0.390625	-0.859375	-0.328125 
		-0.906250	-0.343750	-0.250000 
		-0.968750	0.000000	-0.234375 
		-0.890625	0.000000	-0.453125 
		-1.000000	0.000000	0.000000 
		0.000000	-0.062500	1.000000 
		0.375000	-0.859375	-0.343750 
		0.796875	-0.484375	-0.359375 
		0.500000	-0.859375	0.000000 
		-0.546875	-0.828125	0.000000 
		0.843750	-0.234375	-0.484375 
		0.875000	-0.015625	-0.500000 
		0.000000	-0.390625	-0.921875 
		0.000000	-0.031250	-1.000000 
		0.000000	0.000000	1.000000 
		0.000000	1.000000	0.000000 
	}

	Cpv 55 { 
		0.801400	0.774900	0.699600	1.000000 
		0.801400	0.774900	0.699600	1.000000 
		1.000000	0.966900	0.873000	1.000000 
		1.000000	0.966900	0.873000	1.000000 
		1.000000	0.966900	0.873000	1.000000 
		1.000000	0.966900	0.873000	1.000000 
		1.000000	0.966900	0.873000	1.000000 
		1.000000	0.966900	0.873000	1.000000 
		1.000000	0.966900	0.873000	1.000000 
		1.000000	0.966900	0.873000	1.000000 
		0.979000	0.870900	0.564900	1.000000 
		0.801400	0.774900	0.699600	1.000000 
		0.801400	0.774900	0.699600	1.000000 
		1.000000	0.966900	0.873000	1.000000 
		0.979000	0.870900	0.564900	1.000000 
		0.801400	0.774900	0.699600	1.000000 
		0.801400	0.774900	0.699600	1.000000 
		0.979000	0.870900	0.564900	1.000000 
		1.000000	0.966900	0.873000	1.000000 
		1.000000	0.966900	0.873000	1.000000 
		1.000000	0.966900	0.873000	1.000000 
		0.801400	0.774900	0.699600	1.000000 
		0.801400	0.774900	0.699600	1.000000 
		1.000000	0.966900	0.873000	1.000000 
		1.000000	0.966900	0.873000	1.000000 
		1.000000	0.966900	0.873000	1.000000 
		1.000000	0.966900	0.873000	1.000000 
		1.000000	0.966900	0.873000	1.000000 
		1.000000	0.966900	0.873000	1.000000 
		1.000000	0.966900	0.873000	1.000000 
		0.979000	0.870900	0.564900	1.000000 
		1.000000	0.966900	0.873000	1.000000 
		1.000000	0.966900	0.873000	1.000000 
		1.000000	0.966900	0.873000	1.000000 
		1.000000	0.966900	0.873000	1.000000 
		1.000000	0.966900	0.873000	1.000000 
		1.000000	0.966900	0.873000	1.000000 
		0.801400	0.774900	0.699600	1.000000 
		0.801400	0.774900	0.699600	1.000000 
		1.000000	0.966900	0.873000	1.000000 
		1.000000	0.966900	0.873000	1.000000 
		1.000000	0.966900	0.873000	1.000000 
		1.000000	0.966900	0.873000	1.000000 
		0.801400	0.774900	0.699600	1.000000 
		0.801400	0.774900	0.699600	1.000000 
		1.000000	0.966900	0.873000	1.000000 
		1.000000	0.966900	0.873000	1.000000 
		0.801400	0.774900	0.699600	1.000000 
		1.000000	1.000000	1.000000	1.000000 
		1.000000	1.000000	1.000000	1.000000 
		1.000000	0.966900	0.873000	1.000000 
		0.801400	0.774900	0.699600	1.000000 
		0.801400	0.774900	0.699600	1.000000 
		0.801400	0.774900	0.699600	1.000000 
		0.801400	0.774900	0.699600	1.000000 
	}

	Tex0 35 { 
		2.000000	0.596680 
		-0.021484	0.596680 
		0.000000	0.983398 
		2.000000	0.983398 
		0.109375	0.110352 
		0.109375	0.204102 
		0.400391	0.204102 
		0.400391	0.110352 
		0.265625	0.989258 
		0.267578	0.949219 
		0.205078	0.989258 
		0.077148	0.596680 
		0.416016	0.596680 
		0.403320	0.983398 
		0.077148	0.983398 
		0.000000	0.496094 
		0.504883	0.496094 
		0.504883	0.083008 
		0.000000	0.083008 
		0.850586	0.989258 
		0.769531	0.949219 
		0.768555	0.989258 
		0.425781	0.596680 
		0.500000	0.075195 
		0.002930	0.074219 
		0.002930	0.487305 
		0.500000	0.487305 
		0.686523	0.495117 
		0.377930	0.495117 
		0.377930	0.995117 
		0.686523	0.995117 
		1.743164	0.581055 
		0.000000	0.581055 
		0.000000	0.508789 
		1.743164	0.508789 
	}

	Tex1 0 
	Adj 55 { 
		P 0 
		N 0 
		C0 0 
		T0 0 
		P 1 
		N 0 
		C0 1 
		T0 1 
		P 2 
		N 0 
		C0 2 
		T0 2 
		P 3 
		N 0 
		C0 3 
		T0 3 
		P 4 
		N 1 
		C0 4 
		T0 4 
		P 5 
		N 2 
		C0 5 
		T0 5 
		P 6 
		N 3 
		C0 6 
		T0 6 
		P 2 
		N 1 
		C0 7 
		T0 7 
		P 7 
		N 4 
		C0 8 
		T0 8 
		P 8 
		N 5 
		C0 9 
		T0 9 
		P 9 
		N 6 
		C0 10 
		T0 10 
		P 10 
		N 7 
		C0 11 
		T0 11 
		P 11 
		N 8 
		C0 12 
		T0 12 
		P 7 
		N 4 
		C0 13 
		T0 13 
		P 9 
		N 6 
		C0 14 
		T0 14 
		P 12 
		N 9 
		C0 15 
		T0 1 
		P 10 
		N 7 
		C0 16 
		T0 0 
		P 9 
		N 6 
		C0 17 
		T0 3 
		P 4 
		N 9 
		C0 18 
		T0 2 
		P 4 
		N 1 
		C0 19 
		T0 15 
		P 2 
		N 1 
		C0 20 
		T0 16 
		P 1 
		N 10 
		C0 21 
		T0 17 
		P 12 
		N 10 
		C0 22 
		T0 18 
		P 5 
		N 2 
		C0 23 
		T0 7 
		P 8 
		N 5 
		C0 24 
		T0 4 
		P 13 
		N 11 
		C0 25 
		T0 5 
		P 13 
		N 11 
		C0 26 
		T0 6 
		P 3 
		N 12 
		C0 27 
		T0 7 
		P 2 
		N 13 
		C0 28 
		T0 4 
		P 6 
		N 3 
		C0 29 
		T0 5 
		P 9 
		N 6 
		C0 30 
		T0 4 
		P 8 
		N 5 
		C0 31 
		T0 5 
		P 5 
		N 2 
		C0 32 
		T0 6 
		P 4 
		N 14 
		C0 33 
		T0 7 
		P 3 
		N 12 
		C0 34 
		T0 19 
		P 13 
		N 11 
		C0 35 
		T0 20 
		P 14 
		N 15 
		C0 36 
		T0 21 
		P 15 
		N 16 
		C0 37 
		T0 22 
		P 0 
		N 16 
		C0 38 
		T0 11 
		P 3 
		N 12 
		C0 39 
		T0 14 
		P 14 
		N 15 
		C0 40 
		T0 13 
		P 14 
		N 17 
		C0 41 
		T0 21 
		P 7 
		N 17 
		C0 42 
		T0 8 
		P 11 
		N 18 
		C0 43 
		T0 23 
		P 15 
		N 18 
		C0 44 
		T0 24 
		P 14 
		N 17 
		C0 45 
		T0 25 
		P 7 
		N 17 
		C0 46 
		T0 26 
		P 0 
		N 19 
		C0 47 
		T0 27 
		P 10 
		N 19 
		C0 48 
		T0 28 
		P 9 
		N 19 
		C0 49 
		T0 29 
		P 3 
		N 19 
		C0 50 
		T0 30 
		P 1 
		N 20 
		C0 51 
		T0 31 
		P 0 
		N 20 
		C0 52 
		T0 32 
		P 10 
		N 20 
		C0 53 
		T0 33 
		P 12 
		N 20 
		C0 54 
		T0 34 
	}

	Mtl 1 { 
		{
			Name "#2" 
			Priority 32 
			Prim 15 { 
				{
					Type TRISTRIP
					Priority 32 
					Idx 4 { 1 2 0 3 }
				}
				{
					Type TRISTRIP
					Priority 32 
					Idx 4 { 7 4 6 5 }
				}
				{
					Type TRISTRIP
					Priority 32 
					Idx 4 { 6 23 25 24 }
				}
				{
					Type TRISTRIP
					Priority 32 
					Idx 4 { 15 16 18 17 }
				}
				{
					Type TRISTRIP
					Priority 32 
					Idx 4 { 21 22 20 19 }
				}
				{
					Type TRISTRIP
					Priority 32 
					Idx 4 { 11 12 14 13 }
				}
				{
					Type TRISTRIP
					Priority 32 
					Idx 4 { 28 29 27 26 }
				}
				{
					Type TRISTRIP
					Priority 32 
					Idx 4 { 32 33 31 30 }
				}
				{
					Type TRISTRIP
					Priority 32 
					Idx 4 { 38 39 37 40 }
				}
				{
					Type TRISTRIP
					Priority 32 
					Idx 4 { 35 9 41 42 }
				}
				{
					Type TRISTRIP
					Priority 32 
					Idx 4 { 44 45 43 46 }
				}
				{
					Type TRISTRIP
					Priority 32 
					Idx 4 { 47 48 50 49 }
				}
				{
					Type TRISTRIP
					Priority 32 
					Idx 4 { 51 52 54 53 }
				}
				{
					Type TRISTRIP
					Priority 32 
					Idx 3 { 10 8 9 }
				}
				{
					Type TRISTRIP2
					Priority 32 
					Idx 3 { 34 36 35 }
				}
			}

		}
	}

	Offset 0 
}
