{
	Skinned 0 
	PosSkin 0 
	Pos 313 { 
		-1.056965	1.734287	3.084756 
		-1.056965	0.874168	3.084756 
		-0.931084	0.948061	3.084756 
		-0.931084	1.650625	3.084756 
		-1.202975	1.734287	2.939162 
		-1.056965	1.734287	2.939162 
		-1.202975	1.734288	2.150404 
		-1.202975	1.734288	-0.215872 
		-1.056965	1.734288	-0.215872 
		-1.056965	0.874170	-0.215870 
		-1.202975	1.060460	-0.215870 
		-1.202975	1.060460	0.572886 
		-1.202975	1.060459	1.361646 
		-1.056965	0.874168	2.939162 
		-1.202975	1.060459	2.150404 
		-1.202975	1.060458	2.939162 
		-1.202975	1.734288	0.572886 
		-1.202975	1.734288	1.361645 
		-1.056965	2.122813	-0.008637 
		-1.056965	2.122811	2.939162 
		-1.056965	2.410446	-0.159796 
		-1.056965	2.304130	-0.288394 
		-1.056965	2.477539	-0.254646 
		-1.056965	2.474988	-0.559952 
		-1.056965	2.397908	-0.562168 
		0.000000	1.651989	3.084756 
		0.000000	1.734287	3.084756 
		-0.000000	1.734288	-0.215872 
		0.000000	0.874170	-0.215870 
		-0.000000	0.874168	2.939162 
		-1.027131	2.122813	-0.008637 
		0.000000	2.304130	-0.288394 
		0.000000	2.410446	-0.159796 
		-0.000000	2.477539	-0.254646 
		0.000000	2.397908	-0.562168 
		0.000000	2.474988	-0.559952 
		-1.026339	2.122811	2.939162 
		-1.024398	1.734287	2.939162 
		-0.000000	2.148388	-0.020174 
		0.000000	1.734287	2.939162 
		-1.025388	1.452734	2.939440 
		-1.025277	1.851816	1.278056 
		0.000000	1.468671	2.939441 
		-0.000000	2.022653	1.283680 
		-1.025164	2.048647	0.002038 
		0.000000	0.874168	3.084756 
		0.000000	0.944421	3.084755 
		-0.705781	1.052204	3.000643 
		-0.705937	1.556251	3.000643 
		0.000000	1.052204	3.000643 
		-0.000000	1.556251	3.000644 
		1.056965	1.734287	3.084756 
		0.931084	1.650624	3.084756 
		0.931084	0.948061	3.084756 
		1.056965	0.874168	3.084756 
		1.202975	1.734287	2.939162 
		1.202975	1.734288	2.150404 
		1.056965	1.734287	2.939162 
		1.202975	1.734288	-0.215872 
		1.202975	1.060460	-0.215870 
		1.056965	0.874170	-0.215870 
		1.056965	1.734288	-0.215872 
		1.202975	1.060460	0.572886 
		1.202975	1.060459	1.361646 
		1.202975	1.060459	2.150404 
		1.056965	0.874168	2.939162 
		1.202975	1.060458	2.939162 
		1.202975	1.734288	0.572886 
		1.202975	1.734288	1.361645 
		1.056965	2.122813	-0.008637 
		1.056965	2.122811	2.939162 
		1.056965	2.304130	-0.288394 
		1.056965	2.410446	-0.159796 
		1.056965	2.477539	-0.254646 
		1.056965	2.397908	-0.562168 
		1.056965	2.474988	-0.559952 
		1.027131	2.122813	-0.008637 
		1.026339	2.122811	2.939162 
		1.024398	1.734287	2.939162 
		1.025388	1.452734	2.939440 
		1.025277	1.851816	1.278056 
		1.025164	2.048647	0.002038 
		0.705937	1.556251	3.000643 
		0.705781	1.052204	3.000643 
		-1.110180	0.950579	-2.635044 
		-1.091357	0.949587	-2.865746 
		-1.093018	0.748871	-2.887511 
		-1.112051	0.749304	-2.657928 
		-1.162779	1.574773	-1.115784 
		-0.994295	1.574773	-1.226949 
		-0.994295	2.021813	-1.226949 
		-1.162779	2.021813	-1.115784 
		-1.008075	2.021813	-1.245442 
		-1.008075	1.591540	-1.245442 
		-1.008075	1.574773	-1.245442 
		-1.008075	2.004450	-1.245442 
		-0.884802	1.574773	-1.317900 
		-0.871023	1.574773	-1.299408 
		-0.884802	1.591540	-1.317900 
		-0.807200	2.004450	-1.368823 
		-0.793421	2.021813	-1.350331 
		-0.807200	2.021813	-1.368823 
		-0.685773	1.009111	-2.861022 
		-0.815817	1.154292	-2.437818 
		-0.821081	1.534228	-2.239675 
		-0.673428	1.428430	-2.815109 
		-0.891311	1.195206	-2.054463 
		-0.931970	1.119709	-1.693802 
		-0.904563	1.605875	-1.608605 
		-0.931970	0.923250	-1.502846 
		-0.931970	0.689554	-0.245083 
		-0.931970	1.597714	-0.262706 
		-0.795324	2.246042	-0.342429 
		-0.790117	2.243842	-1.334329 
		-1.080814	0.950579	-2.848905 
		-1.102546	1.100218	-2.432067 
		-1.114016	1.140244	-2.056334 
		-1.122912	1.067652	-1.717331 
		-1.124981	0.886952	-1.542422 
		-0.931971	0.689088	-1.405584 
		-1.125121	0.646416	-1.455088 
		-1.120384	0.948944	-2.456328 
		-1.133788	1.049422	-2.099664 
		-1.141711	0.976644	-1.793950 
		-1.141711	0.787650	-1.599391 
		-1.141711	0.574034	-1.512421 
		-1.102772	0.683573	-2.668805 
		-1.127949	0.297540	-1.449147 
		-0.931971	0.239488	-1.405947 
		-1.141711	0.300398	-1.493765 
		-0.931971	0.244059	-0.246086 
		-1.045636	0.540204	-0.253294 
		-1.043990	0.373534	-0.250943 
		-1.083467	0.689216	-2.881353 
		-1.083223	0.359523	-2.881353 
		-1.102772	0.353879	-2.710670 
		0.000001	2.303586	-0.355648 
		0.000001	2.283281	-1.329638 
		-0.694845	0.689216	-2.892932 
		-0.694845	0.359523	-2.892932 
		0.000000	0.689216	-2.892931 
		0.000001	0.359523	-2.892931 
		-0.567262	1.595712	-2.260920 
		-0.578186	1.686145	-1.657521 
		0.000001	1.686145	-1.657520 
		0.000000	1.595712	-2.260920 
		-0.558470	1.474926	-2.838377 
		-0.000000	1.474926	-2.838376 
		-0.000000	0.897660	-2.902543 
		-0.558763	0.900061	-2.902407 
		-0.570540	0.885627	-2.881791 
		-0.000000	0.883122	-2.881932 
		-0.579254	1.551807	-2.239675 
		-0.590371	1.623454	-1.624286 
		0.000001	1.623454	-1.624286 
		-0.570360	1.446009	-2.822167 
		-1.043990	0.368780	-1.352180 
		-1.045143	0.540076	-1.355960 
		-0.682478	0.943913	-2.562566 
		-0.704688	1.049422	-2.099663 
		-0.712610	0.909459	-1.595614 
		-0.694845	0.359523	-2.717487 
		-0.708531	0.239721	-1.470434 
		0.000001	2.236732	-0.328029 
		0.000001	1.632898	-0.262665 
		-0.765682	0.869513	2.831371 
		-0.766031	0.789259	2.831616 
		0.000001	0.787780	2.828559 
		0.000001	0.867603	2.827866 
		-0.765682	0.869513	-0.247993 
		0.000000	0.867604	-0.251498 
		-0.768400	0.244059	-0.246086 
		-0.766756	0.622329	2.832125 
		0.000001	0.787780	3.092576 
		-0.722502	0.788795	3.094673 
		-0.722855	0.621826	3.095478 
		0.000001	0.620729	3.094026 
		-0.768399	0.244058	2.679422 
		0.000001	0.620729	2.830009 
		0.000001	0.244058	2.679422 
		-1.051212	0.789259	2.935922 
		-1.053337	0.622329	2.938158 
		-1.053874	0.622329	3.096142 
		-1.053149	0.789259	3.095633 
		-0.890498	0.789031	3.095161 
		-0.892565	0.622084	3.095819 
		1.110181	0.950579	-2.635044 
		1.112052	0.749304	-2.657928 
		1.093019	0.748871	-2.887511 
		1.091359	0.949587	-2.865746 
		1.162780	1.574773	-1.115784 
		1.162780	2.021813	-1.115784 
		0.994297	2.021813	-1.226949 
		0.994297	1.574773	-1.226949 
		1.008077	2.021813	-1.245442 
		1.008077	1.574773	-1.245442 
		1.008077	1.591540	-1.245442 
		1.008076	2.004450	-1.245442 
		0.871024	1.574773	-1.299408 
		0.884804	1.574773	-1.317900 
		0.884804	1.591540	-1.317900 
		0.793422	2.021813	-1.350331 
		0.807202	2.004450	-1.368823 
		0.807202	2.021813	-1.368823 
		0.685774	1.009112	-2.861022 
		0.673430	1.428430	-2.815109 
		0.821082	1.534228	-2.239675 
		0.815818	1.154292	-2.437818 
		0.891312	1.195206	-2.054463 
		0.904565	1.605875	-1.608605 
		0.931972	1.119709	-1.693802 
		0.931972	0.923250	-1.502846 
		0.931972	1.597714	-0.262706 
		0.931972	0.689554	-0.245083 
		0.790118	2.243842	-1.334329 
		0.795325	2.246041	-0.342429 
		1.102548	1.100218	-2.432067 
		1.080815	0.950579	-2.848905 
		1.114017	1.140244	-2.056334 
		1.122913	1.067652	-1.717331 
		1.124982	0.886952	-1.542422 
		0.931972	0.689088	-1.405584 
		1.125122	0.646416	-1.455088 
		1.120386	0.948944	-2.456328 
		1.133790	1.049421	-2.099664 
		1.141712	0.976644	-1.793950 
		1.141712	0.787650	-1.599391 
		1.141712	0.574033	-1.512421 
		1.102773	0.683573	-2.668805 
		0.931972	0.239488	-1.405947 
		1.127950	0.297540	-1.449147 
		1.141712	0.300398	-1.493765 
		0.931972	0.244059	-0.246086 
		1.043992	0.373534	-0.250943 
		1.045638	0.540204	-0.253294 
		1.102773	0.353879	-2.710670 
		1.083225	0.359523	-2.881353 
		1.083469	0.689216	-2.881353 
		0.694846	0.359523	-2.892932 
		0.694846	0.689216	-2.892932 
		0.567264	1.595712	-2.260920 
		0.578188	1.686145	-1.657521 
		0.558472	1.474926	-2.838377 
		0.558764	0.900061	-2.902407 
		0.570541	0.885627	-2.881791 
		0.579255	1.551807	-2.239675 
		0.590373	1.623454	-1.624286 
		0.570361	1.446009	-2.822167 
		1.043992	0.368780	-1.352180 
		1.045145	0.540076	-1.355960 
		0.682479	0.943913	-2.562566 
		0.704689	1.049421	-2.099663 
		0.712611	0.909459	-1.595614 
		0.694846	0.359523	-2.717487 
		0.708532	0.239721	-1.470434 
		0.765683	0.869513	2.831371 
		0.766032	0.789259	2.831616 
		0.765684	0.869513	-0.247993 
		0.768401	0.244059	-0.246086 
		0.766757	0.622329	2.832125 
		0.722856	0.621826	3.095478 
		0.722504	0.788795	3.094673 
		0.768401	0.244058	2.679422 
		1.051214	0.789259	2.935922 
		1.053151	0.789259	3.095633 
		1.053876	0.622329	3.096142 
		1.053338	0.622329	2.938158 
		0.890500	0.789031	3.095161 
		0.892567	0.622084	3.095819 
		-1.538796	0.323773	-4.345162 
		-1.317368	0.113514	-4.840580 
		1.551311	0.113514	-3.558414 
		1.329883	0.323773	-3.062997 
		-1.575093	0.894308	-4.263955 
		-1.614040	0.635977	-4.176814 
		1.254639	0.635978	-2.894649 
		1.293586	0.894308	-2.981789 
		-1.479812	0.981361	-4.477132 
		1.388867	0.981360	-3.194967 
		-1.410633	0.785675	-4.631911 
		1.458046	0.785675	-3.349746 
		-1.489259	0.928272	-4.455997 
		1.379420	0.928272	-3.173831 
		-1.553716	0.861966	-4.311782 
		1.314963	0.861966	-3.029617 
		-1.519379	0.354232	-4.388608 
		-1.586174	0.638664	-4.239161 
		1.282505	0.638664	-2.956995 
		1.349301	0.354232	-3.106442 
		-0.479256	0.230430	-2.687326 
		0.479256	0.230430	-2.687326 
		0.523020	0.353690	-2.470918 
		-0.523020	0.353690	-2.470918 
		0.262393	0.353690	-3.542105 
		-0.262393	0.353690	-3.764064 
		-0.202610	0.230430	-4.021221 
		0.202610	0.230430	-3.807578 
		-0.214273	0.850157	-2.830946 
		0.214273	0.850157	-2.830946 
		0.134269	1.085581	-3.107113 
		-0.134269	1.085581	-3.107113 
		-0.134269	0.909548	-3.112577 
		0.134269	0.909391	-3.271130 
		0.214273	0.402565	-2.869609 
		-0.214273	0.402565	-2.869609 
		-0.053410	0.897042	-3.639157 
		-0.053410	0.793191	-3.576747 
		0.053410	0.897042	-3.582676 
		0.053410	0.793034	-3.525669 
		-0.668844	0.946485	-2.879660 
		-0.674006	0.747530	-2.897816 
		0.674007	0.747530	-2.897816 
		0.668846	0.946485	-2.879660 
	}

	Nrm 264 { 
		0.000000	0.000000	1.000000 
		0.000000	1.000000	0.000000 
		0.000000	0.000000	-1.000000 
		-0.781250	-0.609375	0.000000 
		-0.640625	-0.765625	0.000000 
		-0.578125	-0.812500	0.000000 
		-1.000000	0.000000	0.000000 
		0.000000	-0.062500	-1.000000 
		0.000000	-1.000000	0.000000 
		0.000000	0.468750	0.890625 
		0.000000	-0.125000	-0.984375 
		0.000000	0.953125	0.296875 
		0.000000	0.656250	0.750000 
		0.000000	-0.953125	-0.328125 
		0.000000	0.031250	-1.000000 
		0.000000	1.000000	-0.015625 
		1.000000	0.015625	0.000000 
		1.000000	0.000000	0.000000 
		-0.109375	0.968750	0.203125 
		0.000000	0.984375	0.203125 
		0.000000	0.718750	0.703125 
		-0.078125	0.703125	0.703125 
		0.343750	0.000000	0.937500 
		0.187500	-0.359375	0.906250 
		0.000000	0.625000	0.781250 
		0.000000	-0.656250	0.750000 
		-0.093750	0.953125	0.281250 
		0.000000	0.968750	0.281250 
		0.000000	0.140625	0.984375 
		0.781250	-0.609375	0.000000 
		0.640625	-0.765625	0.000000 
		0.578125	-0.812500	0.000000 
		-1.000000	0.015625	-0.015625 
		-1.000000	0.000000	-0.015625 
		1.000000	0.000000	-0.015625 
		0.109375	0.968750	0.203125 
		0.078125	0.703125	0.703125 
		-0.343750	0.000000	0.937500 
		-0.187500	-0.359375	0.906250 
		0.093750	0.953125	0.281250 
		-1.000000	0.015625	-0.078125 
		-0.687500	0.078125	-0.718750 
		0.390625	-0.703125	0.593750 
		0.765625	-0.546875	0.343750 
		0.765625	0.546875	0.343750 
		0.390625	0.703125	0.593750 
		-0.234375	0.890625	-0.375000 
		-0.640625	0.000000	-0.765625 
		-0.234375	-0.890625	-0.390625 
		0.437500	0.578125	-0.687500 
		0.437500	-0.578125	-0.687500 
		-0.359375	-0.703125	-0.609375 
		0.484375	-0.312500	0.812500 
		-0.234375	0.890625	-0.390625 
		-0.234375	-0.890625	-0.375000 
		0.500000	0.312500	0.812500 
		-0.375000	0.703125	-0.609375 
		-0.312500	0.328125	-0.890625 
		-0.968750	0.093750	-0.250000 
		-0.968750	0.093750	-0.203125 
		-0.515625	0.531250	-0.671875 
		-0.984375	0.093750	-0.156250 
		-1.000000	0.078125	-0.031250 
		-0.953125	0.187500	-0.234375 
		-1.000000	0.015625	0.015625 
		-1.000000	0.015625	0.000000 
		-1.000000	0.109375	-0.015625 
		-0.390625	0.609375	0.687500 
		-0.375000	0.687500	-0.625000 
		-0.187500	0.953125	-0.234375 
		-0.843750	0.312500	-0.437500 
		-0.718750	0.671875	-0.203125 
		-0.234375	0.968750	0.031250 
		-0.734375	0.687500	0.000000 
		-0.281250	0.843750	0.453125 
		-0.750000	0.578125	0.296875 
		-0.281250	0.515625	0.812500 
		-0.750000	0.359375	0.562500 
		-0.265625	0.187500	0.953125 
		-0.718750	0.125000	0.687500 
		-0.984375	0.109375	-0.093750 
		-0.984375	0.187500	-0.031250 
		-0.984375	0.156250	0.062500 
		-0.984375	0.093750	0.140625 
		-0.968750	0.046875	0.234375 
		-1.000000	0.015625	-0.093750 
		-0.687500	0.015625	0.718750 
		-0.234375	0.000000	0.968750 
		-0.968750	0.015625	0.281250 
		-0.359375	-0.296875	0.890625 
		-0.265625	0.203125	0.937500 
		-0.843750	0.281250	0.453125 
		-0.828125	-0.296875	0.453125 
		-0.687500	0.046875	-0.734375 
		-0.687500	0.000000	-0.734375 
		-1.000000	0.000000	-0.093750 
		0.000000	0.828125	0.546875 
		0.000000	0.843750	-0.546875 
		-0.031250	0.046875	-1.000000 
		-0.015625	0.000000	-1.000000 
		-0.609375	0.781250	-0.140625 
		-0.625000	0.765625	-0.125000 
		0.000000	0.984375	-0.140625 
		0.000000	0.984375	-0.171875 
		-0.625000	0.484375	-0.609375 
		0.000000	0.671875	-0.734375 
		0.000000	0.109375	-1.000000 
		-0.046875	0.093750	-1.000000 
		0.000000	0.062500	-1.000000 
		-0.640625	0.750000	-0.125000 
		-0.656250	0.750000	-0.109375 
		-0.671875	0.468750	-0.578125 
		0.000000	-0.812500	-0.578125 
		-0.875000	0.046875	-0.500000 
		-0.890625	-0.265625	-0.375000 
		-0.718750	-0.406250	-0.562500 
		-0.890625	0.234375	-0.375000 
		-0.750000	0.375000	-0.562500 
		0.109375	-0.828125	0.546875 
		0.062500	-0.421875	0.906250 
		0.062500	-0.671875	0.750000 
		0.093750	-0.875000	-0.484375 
		0.078125	-0.609375	-0.796875 
		0.156250	-0.546875	-0.812500 
		0.046875	-0.265625	-0.968750 
		-0.046875	-0.203125	0.968750 
		-0.015625	-0.156250	-0.984375 
		-1.000000	-0.031250	-0.031250 
		-1.000000	-0.062500	-0.031250 
		0.000000	0.250000	0.968750 
		0.000000	0.046875	1.000000 
		0.000000	0.062500	1.000000 
		0.000000	0.703125	0.703125 
		0.000000	0.015625	1.000000 
		0.015625	0.000000	1.000000 
		-0.031250	0.406250	-0.906250 
		0.000000	0.421875	-0.906250 
		-0.078125	0.984375	-0.156250 
		-0.062500	0.984375	-0.125000 
		0.000000	-0.375000	0.921875 
		-0.343750	0.000000	-0.937500 
		1.000000	0.015625	-0.078125 
		0.687500	0.078125	-0.718750 
		-0.390625	-0.703125	0.593750 
		-0.390625	0.703125	0.593750 
		-0.765625	0.546875	0.343750 
		-0.765625	-0.546875	0.343750 
		0.234375	0.890625	-0.375000 
		0.640625	0.000000	-0.765625 
		0.234375	-0.890625	-0.390625 
		-0.437500	-0.578125	-0.687500 
		-0.437500	0.578125	-0.687500 
		-0.484375	-0.312500	0.812500 
		0.359375	-0.703125	-0.609375 
		0.234375	0.890625	-0.390625 
		-0.500000	0.312500	0.812500 
		0.234375	-0.890625	-0.375000 
		0.375000	0.703125	-0.609375 
		0.312500	0.328125	-0.890625 
		0.515625	0.531250	-0.671875 
		0.968750	0.093750	-0.203125 
		0.968750	0.093750	-0.250000 
		0.984375	0.093750	-0.156250 
		0.953125	0.187500	-0.234375 
		1.000000	0.078125	-0.031250 
		1.000000	0.015625	0.015625 
		1.000000	0.109375	-0.015625 
		0.375000	0.687500	-0.625000 
		0.390625	0.609375	0.687500 
		0.187500	0.953125	-0.234375 
		0.718750	0.671875	-0.203125 
		0.843750	0.312500	-0.437500 
		0.234375	0.968750	0.031250 
		0.734375	0.687500	0.000000 
		0.281250	0.843750	0.453125 
		0.750000	0.578125	0.296875 
		0.281250	0.515625	0.812500 
		0.750000	0.359375	0.562500 
		0.265625	0.187500	0.953125 
		0.718750	0.125000	0.687500 
		0.984375	0.109375	-0.093750 
		0.984375	0.187500	-0.031250 
		0.984375	0.156250	0.062500 
		0.984375	0.093750	0.140625 
		0.968750	0.046875	0.234375 
		1.000000	0.015625	-0.093750 
		0.234375	0.000000	0.968750 
		0.687500	0.015625	0.718750 
		0.968750	0.015625	0.281250 
		0.359375	-0.296875	0.890625 
		0.828125	-0.296875	0.453125 
		0.843750	0.281250	0.453125 
		0.265625	0.203125	0.937500 
		1.000000	0.000000	-0.093750 
		0.687500	0.000000	-0.734375 
		0.687500	0.046875	-0.734375 
		0.015625	0.000000	-1.000000 
		0.031250	0.046875	-1.000000 
		0.609375	0.781250	-0.140625 
		0.625000	0.765625	-0.125000 
		0.625000	0.484375	-0.609375 
		0.046875	0.093750	-1.000000 
		0.640625	0.750000	-0.125000 
		0.656250	0.750000	-0.109375 
		0.671875	0.468750	-0.578125 
		0.875000	0.046875	-0.500000 
		0.718750	-0.406250	-0.562500 
		0.890625	-0.265625	-0.375000 
		0.890625	0.234375	-0.375000 
		0.750000	0.375000	-0.562500 
		-0.109375	-0.828125	0.546875 
		-0.062500	-0.671875	0.750000 
		-0.062500	-0.421875	0.906250 
		-0.093750	-0.875000	-0.484375 
		-0.078125	-0.609375	-0.796875 
		-0.156250	-0.546875	-0.812500 
		-0.046875	-0.265625	-0.968750 
		0.046875	-0.203125	0.968750 
		0.015625	-0.156250	-0.984375 
		1.000000	-0.031250	-0.031250 
		1.000000	-0.062500	-0.031250 
		-0.015625	0.000000	1.000000 
		0.031250	0.406250	-0.906250 
		0.078125	0.984375	-0.156250 
		0.062500	0.984375	-0.125000 
		0.343750	0.000000	-0.937500 
		-0.265625	-0.765625	0.593750 
		-0.140625	-0.937500	0.328125 
		-0.281250	0.703125	0.640625 
		-0.406250	-0.093750	0.906250 
		-0.140625	0.937500	0.312500 
		0.312500	0.656250	-0.687500 
		-0.250000	-0.796875	0.546875 
		0.296875	-0.687500	-0.656250 
		0.156250	-0.921875	-0.359375 
		0.281250	0.734375	-0.625000 
		0.406250	0.093750	-0.906250 
		0.171875	0.906250	-0.406250 
		-0.906250	0.000000	-0.406250 
		0.906250	0.000000	0.406250 
		0.000000	-0.875000	0.500000 
		0.968750	0.062500	-0.234375 
		-0.984375	-0.031250	-0.203125 
		0.000000	0.765625	0.656250 
		-0.187500	-0.531250	-0.828125 
		0.984375	0.062500	-0.171875 
		-0.968750	0.015625	-0.265625 
		-0.984375	-0.031250	-0.156250 
		0.046875	0.937500	-0.343750 
		0.093750	-0.953125	0.312500 
		-0.031250	0.093750	-1.000000 
		0.031250	0.093750	-1.000000 
		0.000000	-1.000000	-0.015625 
		0.031250	-1.000000	-0.015625 
		-0.015625	-1.000000	0.000000 
		-0.093750	-1.000000	-0.062500 
		0.000000	-0.984375	-0.140625 
		-0.296875	-0.953125	0.031250 
		-0.203125	-0.968750	-0.187500 
		-0.031250	-1.000000	-0.015625 
		0.015625	-1.000000	0.000000 
		0.093750	-1.000000	-0.062500 
		0.296875	-0.953125	0.031250 
		0.203125	-0.968750	-0.187500 
	}

	Cpv 731 { 
		0.500000	0.500000	0.500000	0.003922 
		0.500000	0.500000	0.500000	0.000000 
		0.500000	0.500000	0.500000	0.000000 
		0.500000	0.500000	0.500000	0.003922 
		0.500000	0.500000	0.500000	0.003922 
		0.500000	0.500000	0.500000	0.003922 
		0.500000	0.500000	0.500000	0.003922 
		0.500000	0.500000	0.500000	0.003922 
		0.500000	0.500000	0.500000	0.003922 
		0.500000	0.500000	0.500000	0.000000 
		0.500000	0.500000	0.500000	0.000000 
		0.500000	0.500000	0.500000	0.000000 
		0.500000	0.500000	0.500000	0.000000 
		0.500000	0.500000	0.500000	0.000000 
		0.500000	0.500000	0.500000	0.000000 
		0.500000	0.500000	0.500000	0.000000 
		0.500000	0.500000	0.500000	0.000000 
		0.500000	0.500000	0.500000	0.000000 
		0.500000	0.500000	0.500000	0.000000 
		0.500000	0.500000	0.500000	0.000000 
		0.500000	0.500000	0.500000	0.003922 
		0.500000	0.500000	0.500000	0.003922 
		0.500000	0.500000	0.500000	0.003922 
		0.500000	0.500000	0.500000	0.000000 
		0.500000	0.500000	0.500000	0.000000 
		0.500000	0.500000	0.500000	0.003922 
		0.500000	0.500000	0.500000	0.003922 
		0.500000	0.500000	0.500000	0.000000 
		0.500000	0.500000	0.500000	0.000000 
		0.500000	0.500000	0.500000	0.003922 
		0.500000	0.500000	0.500000	0.003922 
		0.500000	0.500000	0.500000	0.000000 
		0.500000	0.500000	0.500000	0.000000 
		0.500000	0.500000	0.500000	0.003922 
		0.500000	0.500000	0.500000	0.003922 
		0.500000	0.500000	0.500000	0.003922 
		0.500000	0.500000	0.500000	0.003922 
		0.500000	0.500000	0.500000	0.003922 
		0.500000	0.500000	0.500000	0.003922 
		0.500000	0.500000	0.500000	0.003922 
		0.500000	0.500000	0.500000	0.003922 
		0.500000	0.500000	0.500000	0.003922 
		0.500000	0.500000	0.500000	0.003922 
		0.443811	0.500000	0.500000	0.003922 
		0.500000	0.385448	0.500000	0.003922 
		0.500000	0.385448	0.500000	0.003922 
		0.500000	0.385448	0.500000	0.003922 
		0.500000	0.385448	0.500000	0.003922 
		0.500000	0.385448	0.500000	0.003922 
		0.500000	0.500000	0.500000	0.003922 
		0.500000	0.500000	0.500000	0.003922 
		0.500000	0.500000	0.500000	0.000000 
		0.500000	0.500000	0.500000	0.003922 
		0.500000	0.500000	0.500000	0.003922 
		0.500000	0.500000	0.500000	0.000000 
		0.500000	0.500000	0.500000	0.000000 
		0.500000	0.500000	0.500000	0.000000 
		0.500000	0.385448	0.500000	0.003922 
		0.500000	0.500000	0.500000	0.003922 
		0.500000	0.500000	0.500000	0.003922 
		0.500000	0.385448	0.500000	0.003922 
		0.500000	0.500000	0.500000	0.003922 
		0.500000	0.385448	0.500000	0.003922 
		0.500000	0.385448	0.500000	0.003922 
		0.500000	0.426288	0.500000	0.003922 
		0.500000	0.426288	0.500000	0.003922 
		0.500000	0.385448	0.500000	0.003922 
		0.500000	0.385448	0.500000	0.003922 
		0.500000	0.426288	0.500000	0.003922 
		0.500000	0.500000	0.500000	0.003922 
		0.500000	0.385448	0.500000	0.003922 
		0.500000	0.385448	0.500000	0.003922 
		0.500000	0.426288	0.500000	0.003922 
		0.500000	0.426288	0.500000	0.003922 
		0.500000	0.385448	0.500000	0.003922 
		0.500000	0.426288	0.500000	0.003922 
		0.443811	0.500000	0.500000	0.003922 
		0.500000	0.500000	0.500000	0.003922 
		0.500000	0.500000	0.500000	0.003922 
		0.443811	0.500000	0.500000	0.003922 
		0.443811	0.500000	0.500000	0.003922 
		0.500000	0.500000	0.500000	0.003922 
		0.500000	0.500000	0.500000	0.003922 
		0.443811	0.500000	0.500000	0.003922 
		0.500000	0.500000	0.500000	0.003922 
		0.500000	0.500000	0.500000	0.003922 
		0.500000	0.500000	0.500000	0.003922 
		0.500000	0.500000	0.500000	0.000000 
		0.500000	0.500000	0.500000	0.003922 
		0.500000	0.500000	0.500000	0.003922 
		0.500000	0.500000	0.500000	0.003922 
		0.500000	0.500000	0.500000	0.000000 
		0.500000	0.500000	0.500000	0.000000 
		0.500000	0.500000	0.500000	0.003922 
		0.500000	0.500000	0.500000	0.003922 
		0.500000	0.500000	0.500000	0.003922 
		0.500000	0.500000	0.500000	0.003922 
		0.500000	0.500000	0.500000	0.000000 
		0.500000	0.500000	0.500000	0.000000 
		0.500000	0.500000	0.500000	0.000000 
		0.500000	0.500000	0.500000	0.000000 
		0.500000	0.500000	0.500000	0.000000 
		0.500000	0.500000	0.500000	0.003922 
		0.500000	0.500000	0.500000	0.000000 
		0.500000	0.500000	0.500000	0.000000 
		0.500000	0.500000	0.500000	0.000000 
		0.500000	0.500000	0.500000	0.000000 
		0.500000	0.500000	0.500000	0.000000 
		0.500000	0.500000	0.500000	0.000000 
		0.500000	0.500000	0.500000	0.000000 
		0.500000	0.500000	0.500000	0.000000 
		0.500000	0.500000	0.500000	0.000000 
		0.500000	0.500000	0.500000	0.000000 
		0.500000	0.500000	0.500000	0.003922 
		0.500000	0.500000	0.500000	0.003922 
		0.500000	0.500000	0.500000	0.003922 
		0.500000	0.500000	0.500000	0.000000 
		0.500000	0.500000	0.500000	0.000000 
		0.500000	0.500000	0.500000	0.003922 
		0.500000	0.500000	0.500000	0.000000 
		0.500000	0.500000	0.500000	0.003922 
		0.500000	0.500000	0.500000	0.003922 
		0.500000	0.500000	0.500000	0.003922 
		0.500000	0.500000	0.500000	0.003922 
		0.500000	0.500000	0.500000	0.003922 
		0.500000	0.500000	0.500000	0.000000 
		0.500000	0.500000	0.500000	0.000000 
		0.500000	0.500000	0.500000	0.000000 
		0.500000	0.500000	0.500000	0.000000 
		0.500000	0.500000	0.500000	0.003922 
		0.500000	0.500000	0.500000	0.000000 
		0.500000	0.500000	0.500000	0.000000 
		0.500000	0.500000	0.500000	0.003922 
		0.500000	0.500000	0.500000	0.003922 
		0.443811	0.500000	0.500000	0.003922 
		0.500000	0.500000	0.500000	0.003922 
		0.500000	0.500000	0.500000	0.003922 
		0.500000	0.500000	0.500000	0.003922 
		0.500000	0.500000	0.500000	0.003922 
		0.500000	0.500000	0.500000	0.003922 
		0.500000	0.500000	0.500000	0.000000 
		0.500000	0.500000	0.500000	0.000000 
		0.500000	0.500000	0.500000	0.003922 
		0.500000	0.500000	0.500000	0.003922 
		0.500000	0.500000	0.500000	0.003922 
		0.500000	0.500000	0.500000	0.003922 
		0.500000	0.500000	0.500000	0.000000 
		0.500000	0.500000	0.500000	0.000000 
		0.500000	0.500000	0.500000	0.003922 
		0.500000	0.500000	0.500000	0.000000 
		0.500000	0.500000	0.500000	0.000000 
		0.500000	0.500000	0.500000	0.000000 
		0.500000	0.500000	0.500000	0.000000 
		0.500000	0.500000	0.500000	0.000000 
		0.500000	0.500000	0.500000	0.000000 
		0.500000	0.500000	0.500000	0.000000 
		0.500000	0.500000	0.500000	0.000000 
		0.500000	0.500000	0.500000	0.003922 
		0.500000	0.500000	0.500000	0.003922 
		0.500000	0.500000	0.500000	0.000000 
		0.500000	0.500000	0.500000	0.003922 
		0.500000	0.500000	0.500000	0.003922 
		0.500000	0.500000	0.500000	0.000000 
		0.500000	0.500000	0.500000	0.000000 
		0.500000	0.500000	0.500000	0.003922 
		0.500000	0.500000	0.500000	0.003922 
		0.500000	0.500000	0.500000	0.000000 
		0.500000	0.500000	0.500000	0.000000 
		0.500000	0.500000	0.500000	0.003922 
		0.500000	0.500000	0.500000	0.003922 
		0.500000	0.500000	0.500000	0.000000 
		0.500000	0.500000	0.500000	0.000000 
		0.500000	0.500000	0.500000	0.003922 
		0.500000	0.500000	0.500000	0.003922 
		0.500000	0.500000	0.500000	0.003922 
		0.500000	0.500000	0.500000	0.003922 
		0.500000	0.500000	0.500000	0.003922 
		0.500000	0.500000	0.500000	0.003922 
		0.500000	0.500000	0.500000	0.003922 
		0.399436	0.416712	0.500000	0.003922 
		0.500000	0.500000	0.500000	0.003922 
		0.500000	0.500000	0.500000	0.003922 
		0.500000	0.500000	0.500000	0.003922 
		0.500000	0.500000	0.500000	0.003922 
		0.500000	0.500000	0.500000	0.003922 
		0.500000	0.500000	0.500000	0.003922 
		0.500000	0.500000	0.500000	0.003922 
		0.500000	0.500000	0.500000	0.000000 
		0.500000	0.500000	0.500000	0.003922 
		0.500000	0.500000	0.500000	0.003922 
		0.500000	0.500000	0.500000	0.003922 
		0.500000	0.500000	0.500000	0.003922 
		0.500000	0.500000	0.500000	0.003922 
		0.500000	0.500000	0.500000	0.003922 
		0.500000	0.500000	0.500000	0.003922 
		0.500000	0.500000	0.500000	0.003922 
		0.500000	0.500000	0.500000	0.003922 
		0.500000	0.500000	0.500000	0.003922 
		0.500000	0.500000	0.500000	0.003922 
		0.500000	0.500000	0.500000	0.003922 
		0.399436	0.416712	0.500000	0.003922 
		0.399436	0.416712	0.500000	0.003922 
		0.500000	0.500000	0.500000	0.003922 
		0.500000	0.500000	0.500000	0.003922 
		0.399436	0.416712	0.500000	0.003922 
		0.399436	0.416712	0.500000	0.003922 
		0.500000	0.500000	0.500000	0.003922 
		0.500000	0.500000	0.500000	0.003922 
		0.500000	0.500000	0.500000	0.003922 
		0.500000	0.500000	0.500000	0.003922 
		0.500000	0.500000	0.500000	0.000000 
		0.500000	0.500000	0.500000	0.003922 
		0.500000	0.500000	0.500000	0.003922 
		0.500000	0.500000	0.500000	0.000000 
		0.500000	0.500000	0.500000	0.003922 
		0.500000	0.500000	0.500000	0.000000 
		0.500000	0.500000	0.500000	0.000000 
		0.500000	0.500000	0.500000	0.000000 
		0.500000	0.500000	0.500000	0.000000 
		0.500000	0.500000	0.500000	0.000000 
		0.500000	0.500000	0.500000	0.000000 
		0.500000	0.500000	0.500000	0.000000 
		0.500000	0.500000	0.500000	0.003922 
		0.500000	0.500000	0.500000	0.003922 
		0.500000	0.500000	0.500000	0.000000 
		0.500000	0.500000	0.500000	0.003922 
		0.500000	0.500000	0.500000	0.003922 
		0.500000	0.500000	0.500000	0.000000 
		0.500000	0.500000	0.500000	0.000000 
		0.500000	0.500000	0.500000	0.003922 
		0.500000	0.500000	0.500000	0.003922 
		0.500000	0.500000	0.500000	0.000000 
		0.500000	0.500000	0.500000	0.000000 
		0.500000	0.500000	0.500000	0.003922 
		0.500000	0.500000	0.500000	0.000000 
		0.500000	0.500000	0.500000	0.003922 
		0.500000	0.500000	0.500000	0.003922 
		0.399436	0.416712	0.500000	0.003922 
		0.500000	0.500000	0.500000	0.003922 
		0.500000	0.500000	0.500000	0.003922 
		0.500000	0.500000	0.500000	0.003922 
		0.500000	0.500000	0.500000	0.003922 
		0.500000	0.500000	0.500000	0.000000 
		0.500000	0.500000	0.500000	0.000000 
		0.500000	0.500000	0.500000	0.000000 
		0.500000	0.500000	0.500000	0.000000 
		0.500000	0.500000	0.500000	0.000000 
		0.603525	0.500000	0.531344	0.000000 
		0.534055	0.500000	0.466610	0.000000 
		0.534055	0.500000	0.466610	0.000000 
		0.603525	0.500000	0.531344	0.000000 
		0.603525	0.500000	0.531344	0.000000 
		0.534055	0.500000	0.466610	0.000000 
		0.527124	0.500000	0.474956	0.000000 
		0.603525	0.500000	0.531344	0.000000 
		0.527124	0.500000	0.474956	0.000000 
		0.527124	0.500000	0.474956	0.000000 
		0.603525	0.500000	0.531344	0.000000 
		0.527124	0.500000	0.474956	0.000000 
		0.534055	0.500000	0.466610	0.000000 
		0.603525	0.500000	0.531344	0.000000 
		0.527124	0.500000	0.474956	0.000000 
		0.527124	0.500000	0.474956	0.000000 
		0.527124	0.500000	0.474956	0.000000 
		0.527124	0.500000	0.474956	0.000000 
		0.534055	0.500000	0.466610	0.000000 
		0.527124	0.500000	0.474956	0.000000 
		0.500000	0.500000	0.500000	0.000000 
		0.500000	0.500000	0.500000	0.000000 
		0.527124	0.500000	0.474956	0.000000 
		0.500000	0.500000	0.500000	0.000000 
		0.534055	0.500000	0.466610	0.000000 
		0.527124	0.500000	0.474956	0.000000 
		0.500000	0.500000	0.500000	0.000000 
		0.500000	0.500000	0.500000	0.000000 
		0.527124	0.500000	0.474956	0.000000 
		0.500000	0.500000	0.500000	0.000000 
		0.500000	0.500000	0.500000	0.000000 
		0.500000	0.500000	0.500000	0.000000 
		0.500000	0.500000	0.500000	0.000000 
		0.500000	0.500000	0.500000	0.000000 
		0.500000	0.500000	0.500000	0.000000 
		0.500000	0.500000	0.500000	0.000000 
		0.500000	0.500000	0.500000	0.000000 
		0.500000	0.500000	0.500000	0.000000 
		0.500000	0.500000	0.500000	0.000000 
		0.500000	0.500000	0.500000	0.000000 
		0.500000	0.500000	0.500000	0.003922 
		0.500000	0.500000	0.500000	0.003922 
		0.500000	0.500000	0.500000	0.000000 
		0.500000	0.500000	0.500000	0.000000 
		0.500000	0.500000	0.500000	0.000000 
		0.500000	0.500000	0.500000	0.000000 
		0.500000	0.500000	0.500000	0.000000 
		0.500000	0.500000	0.500000	0.000000 
		0.500000	0.500000	0.500000	0.000000 
		0.500000	0.500000	0.500000	0.000000 
		0.500000	0.500000	0.500000	0.000000 
		0.500000	0.500000	0.500000	0.000000 
		0.500000	0.500000	0.500000	0.000000 
		0.500000	0.500000	0.500000	0.000000 
		0.500000	0.500000	0.500000	0.000000 
		0.500000	0.500000	0.500000	0.000000 
		0.500000	0.500000	0.500000	0.000000 
		0.500000	0.500000	0.500000	0.000000 
		0.500000	0.500000	0.500000	0.000000 
		0.500000	0.500000	0.500000	0.000000 
		0.500000	0.500000	0.500000	0.000000 
		0.500000	0.500000	0.500000	0.000000 
		0.500000	0.500000	0.500000	0.000000 
		0.500000	0.500000	0.500000	0.000000 
		0.500000	0.500000	0.500000	0.000000 
		0.500000	0.500000	0.500000	0.000000 
		0.500000	0.500000	0.500000	0.000000 
		0.500000	0.500000	0.500000	0.000000 
		0.500000	0.500000	0.500000	0.000000 
		0.500000	0.500000	0.500000	0.003922 
		0.500000	0.500000	0.500000	0.003922 
		0.500000	0.500000	0.500000	0.003922 
		0.500000	0.500000	0.500000	0.003922 
		0.500000	0.500000	0.500000	0.000000 
		0.500000	0.500000	0.500000	0.000000 
		0.500000	0.500000	0.500000	0.000000 
		0.500000	0.500000	0.500000	0.000000 
		0.500000	0.500000	0.500000	0.000000 
		0.500000	0.500000	0.500000	0.000000 
		0.500000	0.500000	0.500000	0.000000 
		0.500000	0.500000	0.500000	0.000000 
		0.500000	0.500000	0.500000	0.000000 
		0.500000	0.500000	0.500000	0.000000 
		0.500000	0.500000	0.500000	0.000000 
		0.500000	0.500000	0.500000	0.000000 
		0.500000	0.500000	0.500000	0.000000 
		0.500000	0.500000	0.500000	0.000000 
		0.500000	0.500000	0.500000	0.000000 
		0.500000	0.500000	0.500000	0.000000 
		0.500000	0.500000	0.500000	0.000000 
		0.500000	0.500000	0.500000	0.000000 
		0.500000	0.500000	0.500000	0.000000 
		0.500000	0.500000	0.500000	0.000000 
		0.500000	0.500000	0.500000	0.000000 
		0.500000	0.500000	0.500000	0.000000 
		0.500000	0.500000	0.500000	0.000000 
		0.500000	0.500000	0.500000	0.000000 
		0.500000	0.500000	0.500000	0.000000 
		0.500000	0.500000	0.500000	0.000000 
		0.500000	0.500000	0.500000	0.000000 
		0.500000	0.500000	0.500000	0.000000 
		0.500000	0.500000	0.500000	0.000000 
		0.500000	0.500000	0.500000	0.000000 
		0.500000	0.500000	0.500000	0.000000 
		0.500000	0.500000	0.500000	0.000000 
		0.500000	0.500000	0.500000	0.000000 
		0.500000	0.500000	0.500000	0.000000 
		0.500000	0.500000	0.500000	0.000000 
		0.500000	0.500000	0.500000	0.000000 
		0.500000	0.500000	0.500000	0.000000 
		0.500000	0.500000	0.500000	0.000000 
		0.500000	0.500000	0.500000	0.000000 
		0.500000	0.500000	0.500000	0.000000 
		0.500000	0.500000	0.500000	0.000000 
		0.500000	0.500000	0.500000	0.000000 
		0.500000	0.500000	0.500000	0.000000 
		0.500000	0.500000	0.500000	0.000000 
		0.500000	0.500000	0.500000	0.000000 
		0.500000	0.500000	0.500000	0.000000 
		0.500000	0.500000	0.500000	0.000000 
		0.500000	0.500000	0.500000	0.000000 
		0.500000	0.500000	0.500000	0.000000 
		0.500000	0.500000	0.500000	0.000000 
		0.500000	0.500000	0.500000	0.000000 
		0.500000	0.500000	0.500000	0.000000 
		0.500000	0.500000	0.500000	0.003922 
		0.500000	0.500000	0.500000	0.000000 
		0.500000	0.500000	0.500000	0.000000 
		0.500000	0.500000	0.500000	0.000000 
		0.500000	0.500000	0.500000	0.000000 
		0.500000	0.500000	0.500000	0.000000 
		0.500000	0.500000	0.500000	0.000000 
		0.500000	0.500000	0.500000	0.000000 
		0.500000	0.500000	0.500000	0.000000 
		0.500000	0.500000	0.500000	0.000000 
		0.500000	0.500000	0.500000	0.000000 
		0.500000	0.500000	0.500000	0.000000 
		0.500000	0.500000	0.500000	0.000000 
		0.500000	0.500000	0.500000	0.000000 
		0.500000	0.500000	0.500000	0.000000 
		0.500000	0.500000	0.500000	0.000000 
		0.500000	0.500000	0.500000	0.000000 
		0.500000	0.500000	0.500000	0.003922 
		0.500000	0.500000	0.500000	0.000000 
		0.500000	0.500000	0.500000	0.000000 
		0.500000	0.500000	0.500000	0.000000 
		0.500000	0.500000	0.500000	0.000000 
		0.500000	0.500000	0.500000	0.000000 
		0.500000	0.500000	0.500000	0.000000 
		0.500000	0.500000	0.500000	0.000000 
		0.500000	0.500000	0.500000	0.000000 
		0.500000	0.500000	0.500000	0.000000 
		0.499035	0.510182	0.444012	0.000000 
		0.499563	0.487609	0.459333	0.000000 
		0.504795	0.487680	0.459213	0.000000 
		0.504283	0.510264	0.443884	0.000000 
		0.500000	0.500000	0.500000	0.000000 
		0.500000	0.500000	0.500000	0.000000 
		0.500000	0.500000	0.500000	0.000000 
		0.500000	0.500000	0.500000	0.000000 
		0.500000	0.500000	0.500000	0.000000 
		0.500000	0.500000	0.500000	0.000000 
		0.499035	0.510182	0.444012	0.000000 
		0.496414	0.477356	0.466340	0.000000 
		0.499563	0.487609	0.459333	0.000000 
		0.496414	0.477356	0.466340	0.000000 
		0.501677	0.477371	0.466257	0.000000 
		0.505030	0.477338	0.466233	0.000000 
		0.499805	0.477279	0.466345	0.000000 
		0.501677	0.477371	0.466257	0.000000 
		0.504283	0.510264	0.443884	0.000000 
		0.504795	0.487680	0.459213	0.000000 
		0.499035	0.510182	0.444012	0.000000 
		0.500000	0.500000	0.500000	0.000000 
		0.500000	0.500000	0.500000	0.000000 
		0.501677	0.477371	0.466257	0.000000 
		0.496414	0.477356	0.466340	0.000000 
		0.500000	0.500000	0.500000	0.000000 
		0.500000	0.500000	0.500000	0.000000 
		0.499686	0.482361	0.462896	0.000000 
		0.504795	0.487680	0.459213	0.000000 
		0.499563	0.487609	0.459333	0.000000 
		0.499686	0.482361	0.462896	0.000000 
		0.504915	0.482378	0.462812	0.000000 
		0.504915	0.482378	0.462812	0.000000 
		0.499805	0.477279	0.466345	0.000000 
		0.505030	0.477338	0.466233	0.000000 
		0.500000	0.500000	0.500000	0.000000 
		0.500000	0.500000	0.500000	0.000000 
		0.500000	0.500000	0.500000	0.000000 
		0.500000	0.500000	0.500000	0.000000 
		0.500000	0.500000	0.500000	0.000000 
		0.433460	0.500000	0.500000	0.000000 
		0.433460	0.500000	0.500000	0.000000 
		0.500000	0.500000	0.500000	0.000000 
		0.433460	0.500000	0.500000	0.000000 
		0.433460	0.500000	0.500000	0.000000 
		0.433460	0.500000	0.500000	0.000000 
		0.500000	0.500000	0.500000	0.000000 
		0.500000	0.500000	0.500000	0.000000 
		0.500000	0.500000	0.500000	0.000000 
		0.500000	0.500000	0.500000	0.000000 
		0.500000	0.500000	0.500000	0.000000 
		0.500000	0.500000	0.500000	0.000000 
		0.433460	0.500000	0.500000	0.000000 
		0.433460	0.500000	0.500000	0.000000 
		0.433460	0.500000	0.500000	0.000000 
		0.433460	0.500000	0.500000	0.000000 
		0.500000	0.500000	0.500000	0.000000 
		0.500000	0.500000	0.500000	0.000000 
		0.500000	0.500000	0.500000	0.000000 
		0.500000	0.500000	0.500000	0.000000 
		0.500000	0.500000	0.500000	0.000000 
		0.500000	0.500000	0.500000	0.000000 
		0.500000	0.500000	0.500000	0.000000 
		0.433460	0.500000	0.500000	0.000000 
		0.500000	0.500000	0.500000	0.000000 
		0.500000	0.500000	0.500000	0.000000 
		0.433460	0.500000	0.500000	0.000000 
		0.500000	0.500000	0.500000	0.000000 
		0.433460	0.500000	0.500000	0.000000 
		0.500000	0.500000	0.500000	0.000000 
		0.500000	0.500000	0.500000	0.000000 
		0.500000	0.500000	0.500000	0.000000 
		0.500000	0.500000	0.500000	0.000000 
		0.500000	0.500000	0.500000	0.000000 
		0.500000	0.500000	0.500000	0.000000 
		0.500000	0.500000	0.500000	0.000000 
		0.500000	0.500000	0.500000	0.000000 
		0.500000	0.500000	0.500000	0.000000 
		0.500000	0.500000	0.500000	0.000000 
		0.500000	0.500000	0.500000	0.003922 
		0.500000	0.500000	0.500000	0.003922 
		0.500000	0.500000	0.500000	0.000000 
		0.500000	0.500000	0.500000	0.000000 
		0.500000	0.500000	0.500000	0.000000 
		0.500000	0.500000	0.500000	0.000000 
		0.416792	0.500000	0.500000	0.000000 
		0.500000	0.500000	0.500000	0.000000 
		0.416792	0.500000	0.500000	0.000000 
		0.500000	0.500000	0.500000	0.000000 
		0.415471	0.500000	0.500000	0.000000 
		0.500000	0.500000	0.500000	0.000000 
		0.415471	0.500000	0.500000	0.000000 
		0.500000	0.500000	0.500000	0.000000 
		0.416792	0.500000	0.500000	0.000000 
		0.416792	0.500000	0.500000	0.000000 
		0.415471	0.500000	0.500000	0.000000 
		0.415471	0.500000	0.500000	0.000000 
		0.500000	0.500000	0.500000	0.000000 
		0.500000	0.500000	0.500000	0.000000 
		0.415471	0.500000	0.500000	0.000000 
		0.415471	0.500000	0.500000	0.000000 
		0.500000	0.500000	0.500000	0.000000 
		0.500000	0.500000	0.500000	0.000000 
		0.500000	0.500000	0.500000	0.000000 
		0.500000	0.500000	0.500000	0.000000 
		0.500000	0.500000	0.500000	0.000000 
		0.500000	0.500000	0.500000	0.000000 
		0.500000	0.500000	0.500000	0.000000 
		0.500000	0.500000	0.500000	0.003922 
		0.500000	0.500000	0.500000	0.003922 
		0.500000	0.500000	0.500000	0.000000 
		0.500000	0.500000	0.500000	0.000000 
		0.500000	0.500000	0.500000	0.000000 
		0.500000	0.500000	0.500000	0.000000 
		0.500000	0.500000	0.500000	0.000000 
		0.500000	0.500000	0.500000	0.000000 
		0.500000	0.500000	0.500000	0.000000 
		0.500000	0.500000	0.500000	0.000000 
		0.500000	0.500000	0.500000	0.000000 
		0.500000	0.500000	0.500000	0.000000 
		0.500000	0.500000	0.500000	0.000000 
		0.500000	0.500000	0.500000	0.000000 
		0.500000	0.500000	0.500000	0.000000 
		0.500000	0.500000	0.500000	0.000000 
		0.500000	0.500000	0.500000	0.000000 
		0.500000	0.500000	0.500000	0.000000 
		0.500000	0.500000	0.500000	0.000000 
		0.500000	0.500000	0.500000	0.000000 
		0.500000	0.500000	0.500000	0.000000 
		0.500000	0.500000	0.500000	0.000000 
		0.500000	0.500000	0.500000	0.000000 
		0.500000	0.500000	0.500000	0.000000 
		0.500000	0.500000	0.500000	0.000000 
		0.500000	0.500000	0.500000	0.000000 
		0.500000	0.500000	0.500000	0.000000 
		0.500000	0.500000	0.500000	0.000000 
		0.416792	0.500000	0.500000	0.000000 
		0.500000	0.500000	0.500000	0.000000 
		0.416792	0.500000	0.500000	0.000000 
		0.500000	0.500000	0.500000	0.000000 
		0.415471	0.500000	0.500000	0.000000 
		0.415471	0.500000	0.500000	0.000000 
		0.500000	0.500000	0.500000	0.000000 
		0.500000	0.500000	0.500000	0.000000 
		0.415471	0.500000	0.500000	0.000000 
		0.500000	0.500000	0.500000	0.000000 
		0.500000	0.500000	0.500000	0.000000 
		0.500000	0.500000	0.500000	0.000000 
		0.500000	0.500000	0.500000	0.000000 
		0.500000	0.500000	0.500000	0.000000 
		0.500000	0.500000	0.500000	0.000000 
		0.500000	0.500000	0.500000	0.000000 
		0.500000	0.500000	0.500000	0.000000 
		0.500000	0.500000	0.500000	0.000000 
		0.500000	0.500000	0.500000	0.000000 
		0.500000	0.500000	0.500000	0.000000 
		0.500000	0.500000	0.500000	0.000000 
		0.500000	0.500000	0.500000	0.000000 
		0.500000	0.500000	0.500000	0.000000 
		0.500000	0.500000	0.500000	0.000000 
		0.500000	0.500000	0.500000	0.000000 
		0.500000	0.500000	0.500000	0.000000 
		0.500000	0.500000	0.500000	0.000000 
		0.500000	0.500000	0.500000	0.000000 
		0.500000	0.500000	0.500000	0.000000 
		0.500000	0.500000	0.500000	0.000000 
		0.500000	0.500000	0.500000	0.000000 
		0.500000	0.500000	0.500000	0.000000 
		0.500000	0.500000	0.500000	0.000000 
		0.503764	0.532846	0.428555	0.000000 
		0.498533	0.532754	0.428690	0.000000 
		0.500000	0.500000	0.500000	0.000000 
		0.500000	0.500000	0.500000	0.000000 
		0.500000	0.500000	0.500000	0.000000 
		0.500000	0.500000	0.500000	0.000000 
		0.498533	0.532754	0.428690	0.000000 
		0.494915	0.543039	0.421756	0.000000 
		0.494915	0.543039	0.421756	0.000000 
		0.498303	0.543083	0.421679	0.000000 
		0.503527	0.543187	0.421536	0.000000 
		0.500175	0.543186	0.421583	0.000000 
		0.500175	0.543186	0.421583	0.000000 
		0.503764	0.532846	0.428555	0.000000 
		0.500000	0.500000	0.500000	0.000000 
		0.494915	0.543039	0.421756	0.000000 
		0.500175	0.543186	0.421583	0.000000 
		0.500000	0.500000	0.500000	0.000000 
		0.500000	0.500000	0.500000	0.000000 
		0.498416	0.538002	0.425128	0.000000 
		0.503764	0.532846	0.428555	0.000000 
		0.503642	0.538148	0.424957	0.000000 
		0.498416	0.538002	0.425128	0.000000 
		0.498533	0.532754	0.428690	0.000000 
		0.503642	0.538148	0.424957	0.000000 
		0.498303	0.543083	0.421679	0.000000 
		0.503527	0.543187	0.421536	0.000000 
		0.500000	0.500000	0.922097	0.000000 
		0.500000	0.500000	0.922097	0.000000 
		0.500000	0.500000	0.500000	0.000000 
		0.500000	0.500000	0.500000	0.000000 
		0.500000	0.500000	0.922097	0.000000 
		0.500000	0.500000	0.922097	0.000000 
		0.500000	0.500000	0.500000	0.000000 
		0.500000	0.500000	0.500000	0.000000 
		0.500000	0.500000	0.922097	0.000000 
		0.500000	0.500000	0.500000	0.000000 
		0.500000	0.500000	0.922097	0.000000 
		0.500000	0.500000	0.922097	0.000000 
		0.500000	0.500000	0.500000	0.000000 
		0.500000	0.500000	0.500000	0.000000 
		0.500000	0.500000	0.922097	0.000000 
		0.500000	0.500000	0.922097	0.000000 
		0.500000	0.500000	0.500000	0.000000 
		0.500000	0.500000	0.500000	0.000000 
		0.500000	0.500000	0.922097	0.000000 
		0.500000	0.500000	0.922097	0.000000 
		0.500000	0.500000	0.500000	0.000000 
		0.500000	0.500000	0.500000	0.000000 
		0.500000	0.500000	0.922097	0.000000 
		0.500000	0.500000	0.922097	0.000000 
		0.500000	0.500000	0.500000	0.000000 
		0.500000	0.500000	0.500000	0.000000 
		0.500000	0.500000	0.922097	0.000000 
		0.500000	0.500000	0.500000	0.000000 
		0.500000	0.500000	0.922097	0.000000 
		0.500000	0.500000	0.922097	0.000000 
		0.500000	0.500000	0.922097	0.000000 
		0.500000	0.500000	0.922097	0.000000 
		0.500000	0.500000	0.922097	0.000000 
		0.500000	0.500000	0.922097	0.000000 
		0.500000	0.500000	0.922097	0.000000 
		0.500000	0.500000	0.922097	0.000000 
		0.500000	0.500000	0.922097	0.000000 
		0.500000	0.500000	0.922097	0.000000 
		0.500000	0.500000	0.922097	0.000000 
		0.500000	0.500000	0.922097	0.000000 
		0.500000	0.500000	0.500000	0.000000 
		0.500000	0.500000	0.500000	0.000000 
		0.500000	0.500000	0.500000	0.000000 
		0.500000	0.500000	0.500000	0.000000 
		0.500000	0.500000	0.500000	0.000000 
		0.500000	0.500000	0.500000	0.000000 
		0.500000	0.500000	0.500000	0.000000 
		0.500000	0.500000	0.500000	0.000000 
		0.500000	0.500000	0.500000	0.000000 
		0.500000	0.500000	0.500000	0.000000 
		0.500000	0.500000	0.500000	0.000000 
		0.500000	0.500000	0.500000	0.000000 
		0.500000	0.500000	0.500000	0.000000 
		0.500000	0.500000	0.500000	0.000000 
		0.500000	0.500000	0.500000	0.000000 
		0.500000	0.500000	0.500000	0.000000 
		0.500000	0.500000	0.500000	0.000000 
		0.500000	0.500000	0.500000	0.000000 
		0.500000	0.500000	0.712703	0.000000 
		0.500000	0.500000	0.712703	0.000000 
		0.500000	0.500000	0.712703	0.000000 
		0.500000	0.500000	0.712703	0.000000 
		0.500000	0.500000	0.500000	0.000000 
		0.500000	0.500000	0.500000	0.000000 
		0.500000	0.500000	0.500000	0.000000 
		0.500000	0.500000	0.712703	0.000000 
		0.500000	0.500000	0.712703	0.000000 
		0.500000	0.500000	0.500000	0.000000 
		0.500000	0.500000	0.712703	0.000000 
		0.500000	0.500000	0.500000	0.000000 
		0.500000	0.500000	0.500000	0.000000 
		0.500000	0.500000	0.712703	0.000000 
		0.500000	0.500000	0.500000	0.000000 
		0.500000	0.500000	0.500000	0.000000 
		0.573901	0.398306	0.500000	0.000000 
		0.573901	0.398306	0.500000	0.000000 
		0.573901	0.398306	0.500000	0.000000 
		0.573901	0.398306	0.659172	0.000000 
		0.500000	0.500000	0.500000	0.000000 
		0.500000	0.500000	0.500000	0.000000 
		0.500000	0.500000	0.500000	0.000000 
		0.573901	0.398306	0.659172	0.000000 
		0.573901	0.398306	0.500000	0.000000 
		0.500000	0.500000	0.500000	0.000000 
		0.573901	0.398306	0.500000	0.000000 
		0.500000	0.500000	0.500000	0.000000 
		0.500000	0.500000	0.500000	0.000000 
		0.573901	0.398306	0.500000	0.000000 
		0.573901	0.398306	0.500000	0.000000 
		0.573901	0.398306	0.500000	0.000000 
		0.500000	0.500000	0.682289	0.000000 
		0.500000	0.500000	0.682289	0.000000 
		0.573901	0.398306	0.500000	0.000000 
		0.500000	0.500000	0.682289	0.000000 
		0.500000	0.500000	0.682289	0.000000 
		0.573901	0.398306	0.500000	0.000000 
		0.573901	0.398306	0.659172	0.000000 
		0.500000	0.500000	0.682289	0.000000 
		0.500000	0.500000	0.682289	0.000000 
		0.573901	0.398306	0.500000	0.000000 
		0.573901	0.398306	0.659172	0.000000 
		0.573901	0.398306	0.500000	0.000000 
		0.500000	0.500000	0.682289	0.000000 
		0.500000	0.500000	0.682289	0.000000 
		0.500000	0.500000	0.500000	0.000000 
		0.500000	0.500000	0.500000	0.000000 
		0.500000	0.500000	0.500000	0.000000 
		0.500000	0.500000	0.500000	0.000000 
		0.500000	0.500000	0.500000	0.000000 
		0.500000	0.500000	0.500000	0.000000 
		0.500000	0.500000	0.500000	0.000000 
		0.500000	0.500000	0.500000	0.000000 
		0.500000	0.500000	0.500000	0.000000 
		0.500000	0.500000	0.500000	0.000000 
		0.500000	0.500000	0.500000	0.000000 
		0.500000	0.500000	0.500000	0.000000 
		0.500000	0.500000	0.500000	0.000000 
		0.500000	0.500000	0.500000	0.000000 
		0.500000	0.500000	0.500000	0.000000 
		0.500000	0.500000	0.500000	0.000000 
		0.500000	0.500000	0.500000	0.000000 
		0.500000	0.500000	0.500000	0.000000 
		0.500000	0.500000	0.500000	0.000000 
		0.500000	0.500000	0.500000	0.000000 
		0.500000	0.500000	0.500000	0.000000 
		0.500000	0.500000	0.500000	0.000000 
		0.500000	0.500000	0.500000	0.000000 
		0.500000	0.500000	0.500000	0.000000 
		0.415471	0.500000	0.500000	0.000000 
		0.415471	0.500000	0.500000	0.000000 
		0.500000	0.500000	0.500000	0.000000 
		0.500000	0.500000	0.500000	0.000000 
		0.499805	0.477279	0.466345	0.000000 
		0.505030	0.477338	0.466233	0.000000 
		0.503527	0.543187	0.421536	0.000000 
		0.498303	0.543083	0.421679	0.000000 
	}

	Tex0 287 { 
		0.063477	0.311523 
		0.063477	0.032227 
		0.063477	0.057617 
		0.063477	0.283203 
		0.051758	0.303711 
		0.038086	0.303711 
		0.273438	0.303711 
		0.631836	0.442383 
		0.631836	0.446289 
		0.658203	0.446289 
		0.642578	0.442383 
		0.642578	0.417969 
		0.642578	0.392578 
		0.658203	0.345703 
		0.642578	0.367188 
		0.642578	0.341797 
		0.273438	0.036133 
		0.051758	0.036133 
		0.279297	0.303711 
		0.583008	0.453125 
		0.622070	0.454102 
		0.622070	0.316406 
		0.583008	0.316406 
		0.554688	0.455078 
		0.564453	0.460938 
		0.547852	0.458984 
		0.547852	0.472656 
		0.555664	0.472656 
		0.217773	0.284180 
		0.217773	0.311523 
		0.690430	0.329102 
		0.634766	0.329102 
		0.634766	0.461914 
		0.690430	0.461914 
		0.658203	0.473633 
		0.658203	0.372070 
		0.596680	0.329102 
		0.596680	0.461914 
		0.560547	0.344727 
		0.565430	0.344727 
		0.565430	0.456055 
		0.560547	0.456055 
		0.589844	0.329102 
		0.589844	0.461914 
		0.584961	0.329102 
		0.584961	0.461914 
		0.485352	0.437500 
		0.485352	0.428711 
		0.583984	0.347656 
		0.583984	0.456055 
		0.637695	0.332031 
		0.653320	0.333008 
		0.630859	0.399414 
		0.593750	0.359375 
		0.593750	0.457031 
		0.664063	0.457031 
		0.664063	0.359375 
		0.274414	0.630859 
		0.272461	0.429688 
		0.012695	0.429688 
		0.013672	0.631836 
		0.217773	0.032227 
		0.217773	0.055664 
		0.103516	0.094727 
		0.103516	0.246094 
		0.217773	0.091797 
		0.217773	0.247070 
		0.600586	0.345703 
		0.600586	0.341797 
		0.582031	0.427734 
		0.639648	0.427734 
		0.639648	0.357422 
		0.582031	0.357422 
		0.073242	0.311523 
		0.620117	0.451172 
		0.616211	0.451172 
		0.616211	0.332031 
		0.659180	0.349609 
		0.796875	0.409180 
		0.796875	0.375000 
		0.853516	0.375977 
		0.853516	0.409180 
		0.398438	0.553711 
		0.419922	0.553711 
		0.419922	0.583008 
		0.398438	0.583008 
		0.588867	0.457031 
		0.626953	0.457031 
		0.623047	0.457031 
		0.588867	0.341797 
		0.623047	0.345703 
		0.623047	0.341797 
		0.626953	0.341797 
		0.623047	0.452148 
		0.403320	0.535156 
		0.408203	0.535156 
		0.403320	0.541016 
		0.412109	0.541016 
		0.965820	0.680664 
		0.869141	0.710938 
		0.826172	0.787109 
		0.954102	0.764648 
		0.785156	0.719727 
		0.706055	0.703125 
		0.683594	0.802734 
		0.664063	0.661133 
		0.398438	0.612305 
		0.402344	0.804688 
		0.417969	0.942383 
		0.627930	0.941406 
		0.965820	0.667969 
		0.868164	0.702148 
		0.786133	0.710938 
		0.709961	0.694336 
		0.674805	0.656250 
		0.652344	0.623047 
		0.653320	0.606445 
		0.874023	0.666992 
		0.794922	0.688477 
		0.725586	0.670898 
		0.685547	0.632813 
		0.666016	0.587891 
		0.919922	0.602539 
		0.654297	0.529297 
		0.652344	0.527344 
		0.662109	0.529297 
		0.388672	0.517578 
		0.389648	0.580078 
		0.389648	0.544922 
		0.969727	0.603516 
		0.969727	0.534180 
		0.929688	0.533203 
		0.373047	0.304688 
		0.371094	0.303711 
		0.361328	0.053711 
		0.988281	0.409180 
		0.877930	0.409180 
		0.877930	0.275391 
		0.988281	0.275391 
		0.877930	0.028320 
		0.988281	0.028320 
		0.596680	0.231445 
		0.573242	0.235352 
		0.573242	0.028320 
		0.596680	0.028320 
		0.638672	0.228516 
		0.638672	0.028320 
		0.811523	0.028320 
		0.810547	0.228516 
		0.815430	0.232422 
		0.816406	0.028320 
		0.617188	0.235352 
		0.593750	0.236328 
		0.593750	0.053711 
		0.658203	0.234375 
		0.602539	0.543945 
		0.630859	0.516602 
		0.603516	0.580078 
		0.630859	0.612305 
		0.538086	0.869141 
		0.540039	0.866211 
		0.535156	0.870117 
		0.533203	0.869141 
		0.531250	0.867188 
		0.530273	0.865234 
		0.541016	0.863281 
		0.530273	0.861328 
		0.406250	0.940430 
		0.391602	0.804688 
		0.426758	0.606445 
		0.426758	0.601563 
		0.537109	0.600586 
		0.537109	0.605469 
		0.388672	0.650391 
		0.551758	0.541016 
		0.390625	0.547852 
		0.390625	0.541016 
		0.544922	0.878906 
		0.508789	0.878906 
		0.508789	0.841797 
		0.544922	0.841797 
		0.408203	0.954102 
		0.617188	0.287109 
		0.593750	0.337891 
		0.658203	0.250977 
		0.778320	0.269531 
		0.390625	0.561523 
		0.714844	0.768555 
		0.428711	0.768555 
		0.428711	0.736328 
		0.714844	0.736328 
		0.550781	0.593750 
		0.390625	0.593750 
		0.537109	0.589844 
		0.426758	0.590820 
		0.426758	0.566406 
		0.537109	0.565430 
		0.461914	0.600586 
		0.461914	0.589844 
		0.444336	0.601563 
		0.366211	0.659180 
		0.252930	0.659180 
		0.252930	0.772461 
		0.366211	0.774414 
		0.443359	0.590820 
		0.619141	0.348633 
		0.630859	0.348633 
		0.619141	0.447266 
		0.585938	0.348633 
		0.600586	0.348633 
		0.600586	0.447266 
		0.585938	0.447266 
		0.581055	0.348633 
		0.581055	0.447266 
		0.451172	0.183594 
		0.452148	0.191406 
		0.468750	0.191406 
		0.467773	0.183594 
		0.452148	0.189453 
		0.468750	0.189453 
		0.057617	0.693359 
		0.043945	0.693359 
		0.043945	0.995117 
		0.057617	0.995117 
		0.155273	0.693359 
		0.099609	0.693359 
		0.099609	0.995117 
		0.155273	0.995117 
		0.217773	0.693359 
		0.217773	0.995117 
		0.507813	0.443359 
		0.492188	0.435547 
		0.486328	0.439453 
		0.509766	0.448242 
		0.484375	0.412109 
		0.477539	0.411133 
		0.500000	0.380859 
		0.549805	0.355469 
		0.496094	0.377930 
		0.637695	0.393555 
		0.687500	0.393555 
		0.688477	0.398438 
		0.638672	0.398438 
		0.689453	0.382813 
		0.665039	0.382813 
		0.669922	0.373047 
		0.688477	0.373047 
		0.683594	0.401367 
		0.695313	0.398438 
		0.675781	0.404297 
		0.664063	0.407227 
		0.664063	0.394531 
		0.675781	0.392578 
		0.692383	0.367188 
		0.680664	0.370117 
		0.645508	0.383789 
		0.648438	0.378906 
		0.657227	0.381836 
		0.660156	0.375977 
		0.797852	0.270508 
		0.854492	0.273438 
		0.000000	0.195313 
		0.000000	0.500000 
		0.031250	0.195313 
		0.032227	0.016602 
		0.001953	0.025391 
		0.474609	0.163086 
		0.266602	0.091797 
		1.000000	0.500000 
		0.254883	0.189453 
		0.258789	0.005859 
		0.250977	0.000000 
		0.474609	0.091797 
		1.000000	0.163086 
		0.000000	0.804688 
		0.031250	0.804688 
		0.032227	0.983398 
		0.001953	0.974609 
		0.474609	0.836914 
		0.266602	0.908203 
		0.254883	0.810547 
		0.258789	0.994141 
		0.250977	1.000000 
		0.474609	0.908203 
		1.000000	0.836914 
		0.252930	0.882813 
		0.365234	0.883789 
	}

	Tex1 0 
	Adj 731 { 
		P 0 
		N 0 
		C0 0 
		T0 0 
		P 1 
		N 0 
		C0 1 
		T0 1 
		P 2 
		N 0 
		C0 2 
		T0 2 
		P 3 
		N 0 
		C0 3 
		T0 3 
		P 4 
		N 1 
		C0 4 
		T0 4 
		P 5 
		N 1 
		C0 5 
		T0 5 
		P 6 
		N 1 
		C0 6 
		T0 6 
		P 7 
		N 2 
		C0 7 
		T0 7 
		P 8 
		N 2 
		C0 8 
		T0 8 
		P 9 
		N 2 
		C0 9 
		T0 9 
		P 10 
		N 2 
		C0 10 
		T0 10 
		P 10 
		N 3 
		C0 11 
		T0 10 
		P 9 
		N 4 
		C0 12 
		T0 9 
		P 11 
		N 3 
		C0 13 
		T0 11 
		P 12 
		N 3 
		C0 14 
		T0 12 
		P 13 
		N 5 
		C0 15 
		T0 13 
		P 14 
		N 3 
		C0 16 
		T0 14 
		P 15 
		N 3 
		C0 17 
		T0 15 
		P 10 
		N 6 
		C0 18 
		T0 16 
		P 11 
		N 6 
		C0 19 
		T0 17 
		P 16 
		N 6 
		C0 20 
		T0 4 
		P 7 
		N 6 
		C0 21 
		T0 6 
		P 17 
		N 6 
		C0 22 
		T0 6 
		P 12 
		N 6 
		C0 23 
		T0 16 
		P 14 
		N 6 
		C0 24 
		T0 17 
		P 6 
		N 6 
		C0 25 
		T0 4 
		P 16 
		N 6 
		C0 26 
		T0 6 
		P 11 
		N 6 
		C0 27 
		T0 16 
		P 12 
		N 6 
		C0 28 
		T0 17 
		P 17 
		N 6 
		C0 29 
		T0 4 
		P 6 
		N 6 
		C0 30 
		T0 6 
		P 14 
		N 6 
		C0 31 
		T0 16 
		P 15 
		N 6 
		C0 32 
		T0 17 
		P 4 
		N 6 
		C0 33 
		T0 4 
		P 5 
		N 1 
		C0 34 
		T0 4 
		P 8 
		N 1 
		C0 35 
		T0 18 
		P 6 
		N 1 
		C0 36 
		T0 4 
		P 17 
		N 1 
		C0 37 
		T0 6 
		P 16 
		N 1 
		C0 38 
		T0 6 
		P 7 
		N 1 
		C0 39 
		T0 6 
		P 18 
		N 6 
		C0 40 
		T0 19 
		P 8 
		N 6 
		C0 41 
		T0 20 
		P 5 
		N 6 
		C0 42 
		T0 21 
		P 19 
		N 6 
		C0 43 
		T0 22 
		P 20 
		N 6 
		C0 44 
		T0 23 
		P 21 
		N 6 
		C0 45 
		T0 24 
		P 22 
		N 6 
		C0 46 
		T0 25 
		P 23 
		N 6 
		C0 47 
		T0 26 
		P 24 
		N 6 
		C0 48 
		T0 27 
		P 25 
		N 0 
		C0 49 
		T0 28 
		P 26 
		N 0 
		C0 50 
		T0 29 
		P 9 
		N 2 
		C0 51 
		T0 30 
		P 8 
		N 7 
		C0 52 
		T0 31 
		P 27 
		N 7 
		C0 53 
		T0 32 
		P 28 
		N 2 
		C0 54 
		T0 33 
		P 28 
		N 8 
		C0 55 
		T0 34 
		P 29 
		N 8 
		C0 56 
		T0 35 
		P 20 
		N 9 
		C0 57 
		T0 23 
		P 18 
		N 9 
		C0 58 
		T0 19 
		P 30 
		N 9 
		C0 59 
		T0 19 
		P 21 
		N 10 
		C0 60 
		T0 36 
		P 31 
		N 10 
		C0 61 
		T0 37 
		P 22 
		N 11 
		C0 62 
		T0 38 
		P 20 
		N 12 
		C0 63 
		T0 39 
		P 32 
		N 12 
		C0 64 
		T0 40 
		P 33 
		N 11 
		C0 65 
		T0 41 
		P 21 
		N 13 
		C0 66 
		T0 36 
		P 24 
		N 13 
		C0 67 
		T0 42 
		P 34 
		N 13 
		C0 68 
		T0 43 
		P 31 
		N 13 
		C0 69 
		T0 37 
		P 24 
		N 14 
		C0 70 
		T0 42 
		P 23 
		N 14 
		C0 71 
		T0 44 
		P 35 
		N 14 
		C0 72 
		T0 45 
		P 34 
		N 14 
		C0 73 
		T0 43 
		P 23 
		N 15 
		C0 74 
		T0 38 
		P 35 
		N 15 
		C0 75 
		T0 41 
		P 36 
		N 1 
		C0 76 
		T0 22 
		P 30 
		N 1 
		C0 77 
		T0 19 
		P 18 
		N 1 
		C0 78 
		T0 19 
		P 19 
		N 1 
		C0 79 
		T0 22 
		P 19 
		N 0 
		C0 80 
		T0 46 
		P 5 
		N 0 
		C0 81 
		T0 47 
		P 37 
		N 0 
		C0 82 
		T0 47 
		P 36 
		N 0 
		C0 83 
		T0 46 
		P 30 
		N 9 
		C0 84 
		T0 48 
		P 38 
		N 9 
		C0 85 
		T0 49 
		P 37 
		N 17 
		C0 86 
		T0 50 
		P 40 
		N 17 
		C0 87 
		T0 51 
		P 41 
		N 17 
		C0 88 
		T0 52 
		P 37 
		N 2 
		C0 89 
		T0 53 
		P 39 
		N 2 
		C0 90 
		T0 54 
		P 42 
		N 2 
		C0 91 
		T0 55 
		P 40 
		N 2 
		C0 92 
		T0 56 
		P 41 
		N 18 
		C0 93 
		T0 57 
		P 43 
		N 19 
		C0 94 
		T0 58 
		P 38 
		N 20 
		C0 95 
		T0 59 
		P 44 
		N 21 
		C0 96 
		T0 60 
		P 45 
		N 0 
		C0 97 
		T0 61 
		P 46 
		N 0 
		C0 98 
		T0 62 
		P 2 
		N 22 
		C0 99 
		T0 2 
		P 47 
		N 22 
		C0 100 
		T0 63 
		P 48 
		N 23 
		C0 101 
		T0 64 
		P 3 
		N 23 
		C0 102 
		T0 3 
		P 46 
		N 24 
		C0 103 
		T0 62 
		P 49 
		N 24 
		C0 104 
		T0 65 
		P 47 
		N 24 
		C0 105 
		T0 63 
		P 2 
		N 24 
		C0 106 
		T0 2 
		P 47 
		N 0 
		C0 107 
		T0 63 
		P 49 
		N 0 
		C0 108 
		T0 65 
		P 50 
		N 0 
		C0 109 
		T0 66 
		P 48 
		N 0 
		C0 110 
		T0 64 
		P 15 
		N 0 
		C0 111 
		T0 15 
		P 13 
		N 0 
		C0 112 
		T0 13 
		P 5 
		N 0 
		C0 113 
		T0 67 
		P 4 
		N 0 
		C0 114 
		T0 68 
		P 5 
		N 6 
		C0 115 
		T0 69 
		P 13 
		N 6 
		C0 116 
		T0 70 
		P 1 
		N 6 
		C0 117 
		T0 71 
		P 0 
		N 6 
		C0 118 
		T0 72 
		P 50 
		N 25 
		C0 119 
		T0 66 
		P 25 
		N 25 
		C0 120 
		T0 28 
		P 26 
		N 1 
		C0 121 
		T0 29 
		P 39 
		N 1 
		C0 122 
		T0 29 
		P 37 
		N 1 
		C0 123 
		T0 73 
		P 0 
		N 1 
		C0 124 
		T0 0 
		P 13 
		N 8 
		C0 125 
		T0 1 
		P 29 
		N 8 
		C0 126 
		T0 61 
		P 45 
		N 8 
		C0 127 
		T0 61 
		P 1 
		N 8 
		C0 128 
		T0 1 
		P 5 
		N 1 
		C0 129 
		T0 0 
		P 40 
		N 26 
		C0 130 
		T0 60 
		P 42 
		N 27 
		C0 131 
		T0 59 
		P 44 
		N 17 
		C0 132 
		T0 74 
		P 30 
		N 17 
		C0 133 
		T0 75 
		P 36 
		N 16 
		C0 134 
		T0 76 
		P 38 
		N 20 
		C0 135 
		T0 49 
		P 30 
		N 28 
		C0 136 
		T0 48 
		P 44 
		N 21 
		C0 137 
		T0 77 
		P 51 
		N 0 
		C0 138 
		T0 0 
		P 52 
		N 0 
		C0 139 
		T0 3 
		P 53 
		N 0 
		C0 140 
		T0 2 
		P 54 
		N 0 
		C0 141 
		T0 1 
		P 55 
		N 1 
		C0 142 
		T0 4 
		P 56 
		N 1 
		C0 143 
		T0 6 
		P 57 
		N 1 
		C0 144 
		T0 5 
		P 58 
		N 2 
		C0 145 
		T0 7 
		P 59 
		N 2 
		C0 146 
		T0 10 
		P 60 
		N 2 
		C0 147 
		T0 9 
		P 61 
		N 2 
		C0 148 
		T0 8 
		P 59 
		N 29 
		C0 149 
		T0 10 
		P 62 
		N 29 
		C0 150 
		T0 11 
		P 60 
		N 30 
		C0 151 
		T0 9 
		P 63 
		N 29 
		C0 152 
		T0 12 
		P 64 
		N 29 
		C0 153 
		T0 14 
		P 65 
		N 31 
		C0 154 
		T0 13 
		P 66 
		N 29 
		C0 155 
		T0 15 
		P 59 
		N 17 
		C0 156 
		T0 16 
		P 58 
		N 17 
		C0 157 
		T0 6 
		P 67 
		N 17 
		C0 158 
		T0 4 
		P 62 
		N 17 
		C0 159 
		T0 17 
		P 68 
		N 17 
		C0 160 
		T0 6 
		P 56 
		N 17 
		C0 161 
		T0 4 
		P 64 
		N 17 
		C0 162 
		T0 17 
		P 63 
		N 17 
		C0 163 
		T0 16 
		P 67 
		N 17 
		C0 164 
		T0 6 
		P 68 
		N 17 
		C0 165 
		T0 4 
		P 63 
		N 17 
		C0 166 
		T0 17 
		P 62 
		N 17 
		C0 167 
		T0 16 
		P 56 
		N 17 
		C0 168 
		T0 6 
		P 55 
		N 17 
		C0 169 
		T0 4 
		P 66 
		N 17 
		C0 170 
		T0 17 
		P 64 
		N 17 
		C0 171 
		T0 16 
		P 57 
		N 1 
		C0 172 
		T0 4 
		P 56 
		N 1 
		C0 173 
		T0 4 
		P 61 
		N 1 
		C0 174 
		T0 18 
		P 68 
		N 1 
		C0 175 
		T0 6 
		P 67 
		N 1 
		C0 176 
		T0 6 
		P 58 
		N 1 
		C0 177 
		T0 6 
		P 69 
		N 17 
		C0 178 
		T0 19 
		P 70 
		N 17 
		C0 179 
		T0 22 
		P 57 
		N 17 
		C0 180 
		T0 21 
		P 61 
		N 17 
		C0 181 
		T0 20 
		P 71 
		N 17 
		C0 182 
		T0 24 
		P 72 
		N 17 
		C0 183 
		T0 23 
		P 73 
		N 17 
		C0 184 
		T0 25 
		P 74 
		N 17 
		C0 185 
		T0 27 
		P 75 
		N 17 
		C0 186 
		T0 26 
		P 60 
		N 2 
		C0 187 
		T0 30 
		P 61 
		N 7 
		C0 188 
		T0 31 
		P 72 
		N 9 
		C0 189 
		T0 23 
		P 76 
		N 9 
		C0 190 
		T0 19 
		P 69 
		N 9 
		C0 191 
		T0 19 
		P 71 
		N 10 
		C0 192 
		T0 36 
		P 73 
		N 11 
		C0 193 
		T0 38 
		P 72 
		N 12 
		C0 194 
		T0 39 
		P 71 
		N 13 
		C0 195 
		T0 36 
		P 74 
		N 13 
		C0 196 
		T0 42 
		P 74 
		N 14 
		C0 197 
		T0 42 
		P 75 
		N 14 
		C0 198 
		T0 44 
		P 75 
		N 15 
		C0 199 
		T0 38 
		P 77 
		N 1 
		C0 200 
		T0 22 
		P 70 
		N 1 
		C0 201 
		T0 22 
		P 69 
		N 1 
		C0 202 
		T0 19 
		P 76 
		N 1 
		C0 203 
		T0 19 
		P 70 
		N 0 
		C0 204 
		T0 46 
		P 77 
		N 0 
		C0 205 
		T0 46 
		P 78 
		N 0 
		C0 206 
		T0 47 
		P 57 
		N 0 
		C0 207 
		T0 47 
		P 76 
		N 9 
		C0 208 
		T0 48 
		P 78 
		N 2 
		C0 209 
		T0 53 
		P 79 
		N 2 
		C0 210 
		T0 56 
		P 80 
		N 35 
		C0 211 
		T0 57 
		P 81 
		N 36 
		C0 212 
		T0 60 
		P 53 
		N 37 
		C0 213 
		T0 2 
		P 52 
		N 38 
		C0 214 
		T0 3 
		P 82 
		N 38 
		C0 215 
		T0 64 
		P 83 
		N 37 
		C0 216 
		T0 63 
		P 53 
		N 24 
		C0 217 
		T0 2 
		P 83 
		N 24 
		C0 218 
		T0 63 
		P 83 
		N 0 
		C0 219 
		T0 63 
		P 82 
		N 0 
		C0 220 
		T0 64 
		P 66 
		N 0 
		C0 221 
		T0 15 
		P 55 
		N 0 
		C0 222 
		T0 68 
		P 57 
		N 0 
		C0 223 
		T0 67 
		P 65 
		N 0 
		C0 224 
		T0 13 
		P 57 
		N 17 
		C0 225 
		T0 69 
		P 51 
		N 17 
		C0 226 
		T0 72 
		P 54 
		N 17 
		C0 227 
		T0 71 
		P 65 
		N 17 
		C0 228 
		T0 70 
		P 51 
		N 1 
		C0 229 
		T0 0 
		P 78 
		N 1 
		C0 230 
		T0 73 
		P 65 
		N 8 
		C0 231 
		T0 1 
		P 54 
		N 8 
		C0 232 
		T0 1 
		P 57 
		N 1 
		C0 233 
		T0 0 
		P 79 
		N 39 
		C0 234 
		T0 60 
		P 81 
		N 6 
		C0 235 
		T0 74 
		P 80 
		N 6 
		C0 236 
		T0 52 
		P 77 
		N 32 
		C0 237 
		T0 76 
		P 76 
		N 6 
		C0 238 
		T0 75 
		P 78 
		N 33 
		C0 239 
		T0 50 
		P 81 
		N 36 
		C0 240 
		T0 77 
		P 76 
		N 28 
		C0 241 
		T0 48 
		P 79 
		N 6 
		C0 242 
		T0 51 
		P 84 
		N 40 
		C0 243 
		T0 78 
		P 85 
		N 41 
		C0 244 
		T0 79 
		P 86 
		N 41 
		C0 245 
		T0 80 
		P 87 
		N 40 
		C0 246 
		T0 81 
		P 88 
		N 42 
		C0 247 
		T0 82 
		P 89 
		N 43 
		C0 248 
		T0 83 
		P 90 
		N 44 
		C0 249 
		T0 84 
		P 91 
		N 45 
		C0 250 
		T0 85 
		P 91 
		N 45 
		C0 251 
		T0 86 
		P 90 
		N 44 
		C0 252 
		T0 87 
		P 92 
		N 46 
		C0 253 
		T0 88 
		P 88 
		N 47 
		C0 254 
		T0 89 
		P 93 
		N 47 
		C0 255 
		T0 90 
		P 94 
		N 47 
		C0 256 
		T0 91 
		P 88 
		N 42 
		C0 257 
		T0 89 
		P 94 
		N 48 
		C0 258 
		T0 91 
		P 89 
		N 43 
		C0 259 
		T0 92 
		P 91 
		N 47 
		C0 260 
		T0 86 
		P 92 
		N 47 
		C0 261 
		T0 88 
		P 95 
		N 47 
		C0 262 
		T0 93 
		P 93 
		N 49 
		C0 263 
		T0 90 
		P 95 
		N 50 
		C0 264 
		T0 93 
		P 89 
		N 43 
		C0 265 
		T0 94 
		P 94 
		N 48 
		C0 266 
		T0 94 
		P 96 
		N 51 
		C0 267 
		T0 95 
		P 97 
		N 52 
		C0 268 
		T0 95 
		P 93 
		N 49 
		C0 269 
		T0 94 
		P 98 
		N 53 
		C0 270 
		T0 95 
		P 90 
		N 44 
		C0 271 
		T0 96 
		P 95 
		N 50 
		C0 272 
		T0 96 
		P 99 
		N 54 
		C0 273 
		T0 97 
		P 100 
		N 55 
		C0 274 
		T0 97 
		P 92 
		N 46 
		C0 275 
		T0 96 
		P 101 
		N 56 
		C0 276 
		T0 97 
		P 102 
		N 57 
		C0 277 
		T0 98 
		P 103 
		N 58 
		C0 278 
		T0 99 
		P 104 
		N 59 
		C0 279 
		T0 100 
		P 105 
		N 60 
		C0 280 
		T0 101 
		P 106 
		N 61 
		C0 281 
		T0 102 
		P 107 
		N 62 
		C0 282 
		T0 103 
		P 108 
		N 63 
		C0 283 
		T0 104 
		P 109 
		N 64 
		C0 284 
		T0 105 
		P 110 
		N 65 
		C0 285 
		T0 106 
		P 111 
		N 66 
		C0 286 
		T0 107 
		P 112 
		N 67 
		C0 287 
		T0 108 
		P 113 
		N 68 
		C0 288 
		T0 109 
		P 103 
		N 69 
		C0 289 
		T0 99 
		P 114 
		N 70 
		C0 290 
		T0 110 
		P 115 
		N 71 
		C0 291 
		T0 111 
		P 106 
		N 72 
		C0 292 
		T0 102 
		P 116 
		N 73 
		C0 293 
		T0 112 
		P 107 
		N 74 
		C0 294 
		T0 103 
		P 117 
		N 75 
		C0 295 
		T0 113 
		P 109 
		N 76 
		C0 296 
		T0 105 
		P 118 
		N 77 
		C0 297 
		T0 114 
		P 119 
		N 78 
		C0 298 
		T0 115 
		P 120 
		N 79 
		C0 299 
		T0 116 
		P 121 
		N 80 
		C0 300 
		T0 117 
		P 122 
		N 81 
		C0 301 
		T0 118 
		P 123 
		N 82 
		C0 302 
		T0 119 
		P 124 
		N 83 
		C0 303 
		T0 120 
		P 125 
		N 84 
		C0 304 
		T0 121 
		P 126 
		N 85 
		C0 305 
		T0 122 
		P 127 
		N 86 
		C0 306 
		T0 123 
		P 128 
		N 87 
		C0 307 
		T0 124 
		P 129 
		N 88 
		C0 308 
		T0 125 
		P 130 
		N 89 
		C0 309 
		T0 126 
		P 110 
		N 90 
		C0 310 
		T0 106 
		P 131 
		N 91 
		C0 311 
		T0 127 
		P 132 
		N 92 
		C0 312 
		T0 128 
		P 133 
		N 93 
		C0 313 
		T0 129 
		P 134 
		N 94 
		C0 314 
		T0 130 
		P 135 
		N 95 
		C0 315 
		T0 131 
		P 113 
		N 68 
		C0 316 
		T0 132 
		P 112 
		N 67 
		C0 317 
		T0 133 
		P 136 
		N 96 
		C0 318 
		T0 134 
		P 137 
		N 97 
		C0 319 
		T0 134 
		P 134 
		N 94 
		C0 320 
		T0 135 
		P 133 
		N 93 
		C0 321 
		T0 136 
		P 138 
		N 98 
		C0 322 
		T0 137 
		P 139 
		N 99 
		C0 323 
		T0 138 
		P 140 
		N 14 
		C0 324 
		T0 139 
		P 141 
		N 2 
		C0 325 
		T0 140 
		P 142 
		N 100 
		C0 326 
		T0 141 
		P 143 
		N 101 
		C0 327 
		T0 142 
		P 144 
		N 102 
		C0 328 
		T0 143 
		P 145 
		N 103 
		C0 329 
		T0 144 
		P 146 
		N 104 
		C0 330 
		T0 145 
		P 147 
		N 105 
		C0 331 
		T0 146 
		P 148 
		N 106 
		C0 332 
		T0 147 
		P 149 
		N 106 
		C0 333 
		T0 148 
		P 150 
		N 107 
		C0 334 
		T0 149 
		P 151 
		N 108 
		C0 335 
		T0 150 
		P 152 
		N 109 
		C0 336 
		T0 151 
		P 153 
		N 110 
		C0 337 
		T0 152 
		P 153 
		N 9 
		C0 338 
		T0 152 
		P 154 
		N 9 
		C0 339 
		T0 153 
		P 144 
		N 9 
		C0 340 
		T0 143 
		P 143 
		N 9 
		C0 341 
		T0 142 
		P 155 
		N 111 
		C0 342 
		T0 154 
		P 151 
		N 112 
		C0 343 
		T0 150 
		P 150 
		N 112 
		C0 344 
		T0 149 
		P 149 
		N 112 
		C0 345 
		T0 148 
		P 148 
		N 112 
		C0 346 
		T0 147 
		P 149 
		N 113 
		C0 347 
		T0 148 
		P 150 
		N 113 
		C0 348 
		T0 149 
		P 156 
		N 114 
		C0 349 
		T0 155 
		P 128 
		N 115 
		C0 350 
		T0 156 
		P 157 
		N 116 
		C0 351 
		T0 157 
		P 119 
		N 117 
		C0 352 
		T0 158 
		P 119 
		N 6 
		C0 353 
		T0 158 
		P 121 
		N 118 
		C0 354 
		T0 159 
		P 126 
		N 119 
		C0 355 
		T0 160 
		P 158 
		N 120 
		C0 356 
		T0 159 
		P 122 
		N 8 
		C0 357 
		T0 161 
		P 159 
		N 8 
		C0 358 
		T0 161 
		P 123 
		N 121 
		C0 359 
		T0 162 
		P 160 
		N 122 
		C0 360 
		T0 163 
		P 124 
		N 123 
		C0 361 
		T0 163 
		P 125 
		N 124 
		C0 362 
		T0 164 
		P 135 
		N 125 
		C0 363 
		T0 165 
		P 161 
		N 125 
		C0 364 
		T0 165 
		P 162 
		N 126 
		C0 365 
		T0 166 
		P 129 
		N 126 
		C0 366 
		T0 166 
		P 158 
		N 127 
		C0 367 
		T0 159 
		P 161 
		N 33 
		C0 368 
		T0 165 
		P 162 
		N 33 
		C0 369 
		T0 166 
		P 160 
		N 127 
		C0 370 
		T0 163 
		P 159 
		N 128 
		C0 371 
		T0 161 
		P 163 
		N 129 
		C0 372 
		T0 167 
		P 111 
		N 130 
		C0 373 
		T0 107 
		P 164 
		N 131 
		C0 374 
		T0 168 
		P 165 
		N 132 
		C0 375 
		T0 169 
		P 166 
		N 132 
		C0 376 
		T0 170 
		P 167 
		N 132 
		C0 377 
		T0 171 
		P 168 
		N 132 
		C0 378 
		T0 172 
		P 169 
		N 133 
		C0 379 
		T0 173 
		P 170 
		N 133 
		C0 380 
		T0 173 
		P 171 
		N 134 
		C0 381 
		T0 126 
		P 169 
		N 6 
		C0 382 
		T0 174 
		P 166 
		N 6 
		C0 383 
		T0 175 
		P 165 
		N 6 
		C0 384 
		T0 176 
		P 170 
		N 1 
		C0 385 
		T0 177 
		P 169 
		N 1 
		C0 386 
		T0 178 
		P 165 
		N 132 
		C0 387 
		T0 179 
		P 168 
		N 132 
		C0 388 
		T0 180 
		P 136 
		N 96 
		C0 389 
		T0 181 
		P 153 
		N 135 
		C0 390 
		T0 152 
		P 154 
		N 136 
		C0 391 
		T0 153 
		P 104 
		N 137 
		C0 392 
		T0 182 
		P 108 
		N 138 
		C0 393 
		T0 183 
		P 105 
		N 60 
		C0 394 
		T0 184 
		P 102 
		N 57 
		C0 395 
		T0 185 
		P 108 
		N 63 
		C0 396 
		T0 183 
		P 114 
		N 70 
		C0 397 
		T0 78 
		P 172 
		N 6 
		C0 398 
		T0 186 
		P 173 
		N 132 
		C0 399 
		T0 187 
		P 174 
		N 132 
		C0 400 
		T0 188 
		P 175 
		N 0 
		C0 401 
		T0 189 
		P 176 
		N 0 
		C0 402 
		T0 190 
		P 171 
		N 6 
		C0 403 
		T0 191 
		P 177 
		N 6 
		C0 404 
		T0 192 
		P 178 
		N 139 
		C0 405 
		T0 193 
		P 172 
		N 139 
		C0 406 
		T0 194 
		P 177 
		N 139 
		C0 407 
		T0 195 
		P 179 
		N 139 
		C0 408 
		T0 196 
		P 173 
		N 132 
		C0 409 
		T0 171 
		P 180 
		N 1 
		C0 410 
		T0 170 
		P 174 
		N 132 
		C0 411 
		T0 197 
		P 180 
		N 65 
		C0 412 
		T0 170 
		P 181 
		N 65 
		C0 413 
		T0 194 
		P 182 
		N 65 
		C0 414 
		T0 194 
		P 183 
		N 65 
		C0 415 
		T0 170 
		P 181 
		N 8 
		C0 416 
		T0 194 
		P 176 
		N 8 
		C0 417 
		T0 193 
		P 175 
		N 8 
		C0 418 
		T0 198 
		P 173 
		N 1 
		C0 419 
		T0 171 
		P 166 
		N 140 
		C0 420 
		T0 170 
		P 172 
		N 140 
		C0 421 
		T0 194 
		P 181 
		N 140 
		C0 422 
		T0 194 
		P 180 
		N 140 
		C0 423 
		T0 170 
		P 172 
		N 8 
		C0 424 
		T0 194 
		P 178 
		N 8 
		C0 425 
		T0 193 
		P 184 
		N 132 
		C0 426 
		T0 199 
		P 175 
		N 0 
		C0 427 
		T0 200 
		P 174 
		N 132 
		C0 428 
		T0 201 
		P 184 
		N 132 
		C0 429 
		T0 202 
		P 185 
		N 0 
		C0 430 
		T0 203 
		P 185 
		N 8 
		C0 431 
		T0 204 
		P 183 
		N 132 
		C0 432 
		T0 170 
		P 182 
		N 8 
		C0 433 
		T0 194 
		P 186 
		N 141 
		C0 434 
		T0 78 
		P 187 
		N 141 
		C0 435 
		T0 81 
		P 188 
		N 142 
		C0 436 
		T0 80 
		P 189 
		N 142 
		C0 437 
		T0 79 
		P 190 
		N 143 
		C0 438 
		T0 82 
		P 191 
		N 144 
		C0 439 
		T0 85 
		P 192 
		N 145 
		C0 440 
		T0 84 
		P 193 
		N 146 
		C0 441 
		T0 83 
		P 191 
		N 144 
		C0 442 
		T0 86 
		P 194 
		N 147 
		C0 443 
		T0 88 
		P 192 
		N 145 
		C0 444 
		T0 87 
		P 190 
		N 148 
		C0 445 
		T0 89 
		P 195 
		N 148 
		C0 446 
		T0 91 
		P 196 
		N 148 
		C0 447 
		T0 90 
		P 190 
		N 143 
		C0 448 
		T0 89 
		P 193 
		N 146 
		C0 449 
		T0 92 
		P 195 
		N 149 
		C0 450 
		T0 91 
		P 191 
		N 148 
		C0 451 
		T0 86 
		P 197 
		N 148 
		C0 452 
		T0 93 
		P 194 
		N 148 
		C0 453 
		T0 88 
		P 197 
		N 150 
		C0 454 
		T0 93 
		P 196 
		N 151 
		C0 455 
		T0 90 
		P 193 
		N 146 
		C0 456 
		T0 94 
		P 198 
		N 152 
		C0 457 
		T0 95 
		P 199 
		N 153 
		C0 458 
		T0 95 
		P 195 
		N 149 
		C0 459 
		T0 94 
		P 200 
		N 154 
		C0 460 
		T0 95 
		P 196 
		N 151 
		C0 461 
		T0 94 
		P 192 
		N 145 
		C0 462 
		T0 96 
		P 201 
		N 155 
		C0 463 
		T0 97 
		P 202 
		N 156 
		C0 464 
		T0 97 
		P 197 
		N 150 
		C0 465 
		T0 96 
		P 203 
		N 157 
		C0 466 
		T0 97 
		P 194 
		N 147 
		C0 467 
		T0 96 
		P 204 
		N 158 
		C0 468 
		T0 98 
		P 205 
		N 159 
		C0 469 
		T0 101 
		P 206 
		N 160 
		C0 470 
		T0 100 
		P 207 
		N 161 
		C0 471 
		T0 99 
		P 208 
		N 162 
		C0 472 
		T0 102 
		P 209 
		N 163 
		C0 473 
		T0 104 
		P 210 
		N 164 
		C0 474 
		T0 103 
		P 211 
		N 165 
		C0 475 
		T0 105 
		P 212 
		N 166 
		C0 476 
		T0 107 
		P 213 
		N 16 
		C0 477 
		T0 106 
		P 214 
		N 167 
		C0 478 
		T0 109 
		P 215 
		N 168 
		C0 479 
		T0 108 
		P 207 
		N 169 
		C0 480 
		T0 99 
		P 216 
		N 170 
		C0 481 
		T0 111 
		P 217 
		N 171 
		C0 482 
		T0 110 
		P 208 
		N 172 
		C0 483 
		T0 102 
		P 218 
		N 173 
		C0 484 
		T0 112 
		P 210 
		N 174 
		C0 485 
		T0 103 
		P 219 
		N 175 
		C0 486 
		T0 113 
		P 211 
		N 176 
		C0 487 
		T0 105 
		P 220 
		N 177 
		C0 488 
		T0 114 
		P 221 
		N 178 
		C0 489 
		T0 115 
		P 222 
		N 179 
		C0 490 
		T0 116 
		P 223 
		N 180 
		C0 491 
		T0 117 
		P 224 
		N 181 
		C0 492 
		T0 118 
		P 225 
		N 182 
		C0 493 
		T0 119 
		P 226 
		N 183 
		C0 494 
		T0 120 
		P 227 
		N 184 
		C0 495 
		T0 121 
		P 228 
		N 185 
		C0 496 
		T0 122 
		P 229 
		N 186 
		C0 497 
		T0 124 
		P 230 
		N 187 
		C0 498 
		T0 123 
		P 231 
		N 188 
		C0 499 
		T0 125 
		P 232 
		N 189 
		C0 500 
		T0 126 
		P 233 
		N 190 
		C0 501 
		T0 128 
		P 234 
		N 191 
		C0 502 
		T0 127 
		P 213 
		N 192 
		C0 503 
		T0 106 
		P 235 
		N 193 
		C0 504 
		T0 131 
		P 236 
		N 194 
		C0 505 
		T0 130 
		P 237 
		N 195 
		C0 506 
		T0 129 
		P 214 
		N 167 
		C0 507 
		T0 132 
		P 215 
		N 168 
		C0 508 
		T0 133 
		P 236 
		N 194 
		C0 509 
		T0 135 
		P 238 
		N 196 
		C0 510 
		T0 138 
		P 239 
		N 197 
		C0 511 
		T0 137 
		P 237 
		N 195 
		C0 512 
		T0 136 
		P 240 
		N 198 
		C0 513 
		T0 141 
		P 241 
		N 199 
		C0 514 
		T0 142 
		P 242 
		N 200 
		C0 515 
		T0 145 
		P 243 
		N 106 
		C0 516 
		T0 148 
		P 244 
		N 201 
		C0 517 
		T0 149 
		P 245 
		N 202 
		C0 518 
		T0 151 
		P 246 
		N 203 
		C0 519 
		T0 152 
		P 246 
		N 9 
		C0 520 
		T0 152 
		P 241 
		N 9 
		C0 521 
		T0 142 
		P 247 
		N 204 
		C0 522 
		T0 154 
		P 243 
		N 112 
		C0 523 
		T0 148 
		P 244 
		N 112 
		C0 524 
		T0 149 
		P 244 
		N 205 
		C0 525 
		T0 149 
		P 243 
		N 205 
		C0 526 
		T0 148 
		P 229 
		N 206 
		C0 527 
		T0 156 
		P 248 
		N 207 
		C0 528 
		T0 155 
		P 249 
		N 208 
		C0 529 
		T0 157 
		P 221 
		N 209 
		C0 530 
		T0 158 
		P 221 
		N 17 
		C0 531 
		T0 158 
		P 223 
		N 210 
		C0 532 
		T0 159 
		P 250 
		N 211 
		C0 533 
		T0 159 
		P 228 
		N 212 
		C0 534 
		T0 160 
		P 224 
		N 8 
		C0 535 
		T0 161 
		P 251 
		N 8 
		C0 536 
		T0 161 
		P 225 
		N 213 
		C0 537 
		T0 162 
		P 252 
		N 214 
		C0 538 
		T0 163 
		P 226 
		N 215 
		C0 539 
		T0 163 
		P 227 
		N 216 
		C0 540 
		T0 164 
		P 253 
		N 217 
		C0 541 
		T0 165 
		P 235 
		N 217 
		C0 542 
		T0 165 
		P 231 
		N 218 
		C0 543 
		T0 166 
		P 254 
		N 218 
		C0 544 
		T0 166 
		P 250 
		N 219 
		C0 545 
		T0 159 
		P 252 
		N 219 
		C0 546 
		T0 163 
		P 254 
		N 34 
		C0 547 
		T0 166 
		P 253 
		N 34 
		C0 548 
		T0 165 
		P 251 
		N 220 
		C0 549 
		T0 161 
		P 212 
		N 130 
		C0 550 
		T0 107 
		P 255 
		N 132 
		C0 551 
		T0 169 
		P 256 
		N 132 
		C0 552 
		T0 170 
		P 257 
		N 133 
		C0 553 
		T0 173 
		P 258 
		N 221 
		C0 554 
		T0 126 
		P 257 
		N 17 
		C0 555 
		T0 174 
		P 255 
		N 17 
		C0 556 
		T0 176 
		P 256 
		N 17 
		C0 557 
		T0 175 
		P 255 
		N 132 
		C0 558 
		T0 179 
		P 257 
		N 1 
		C0 559 
		T0 178 
		P 246 
		N 222 
		C0 560 
		T0 152 
		P 206 
		N 223 
		C0 561 
		T0 182 
		P 209 
		N 224 
		C0 562 
		T0 183 
		P 205 
		N 159 
		C0 563 
		T0 184 
		P 204 
		N 158 
		C0 564 
		T0 185 
		P 209 
		N 163 
		C0 565 
		T0 183 
		P 217 
		N 171 
		C0 566 
		T0 78 
		P 259 
		N 17 
		C0 567 
		T0 186 
		P 260 
		N 0 
		C0 568 
		T0 189 
		P 261 
		N 132 
		C0 569 
		T0 188 
		P 262 
		N 17 
		C0 570 
		T0 192 
		P 258 
		N 17 
		C0 571 
		T0 191 
		P 262 
		N 139 
		C0 572 
		T0 195 
		P 259 
		N 139 
		C0 573 
		T0 194 
		P 261 
		N 132 
		C0 574 
		T0 197 
		P 263 
		N 1 
		C0 575 
		T0 170 
		P 263 
		N 16 
		C0 576 
		T0 170 
		P 264 
		N 16 
		C0 577 
		T0 170 
		P 265 
		N 16 
		C0 578 
		T0 194 
		P 266 
		N 16 
		C0 579 
		T0 194 
		P 266 
		N 8 
		C0 580 
		T0 194 
		P 260 
		N 8 
		C0 581 
		T0 198 
		P 256 
		N 225 
		C0 582 
		T0 170 
		P 263 
		N 225 
		C0 583 
		T0 170 
		P 266 
		N 225 
		C0 584 
		T0 194 
		P 259 
		N 225 
		C0 585 
		T0 194 
		P 259 
		N 8 
		C0 586 
		T0 194 
		P 267 
		N 132 
		C0 587 
		T0 199 
		P 260 
		N 0 
		C0 588 
		T0 200 
		P 268 
		N 0 
		C0 589 
		T0 203 
		P 267 
		N 132 
		C0 590 
		T0 202 
		P 261 
		N 132 
		C0 591 
		T0 201 
		P 268 
		N 8 
		C0 592 
		T0 204 
		P 264 
		N 132 
		C0 593 
		T0 170 
		P 265 
		N 8 
		C0 594 
		T0 194 
		P 269 
		N 226 
		C0 595 
		T0 205 
		P 270 
		N 227 
		C0 596 
		T0 206 
		P 271 
		N 227 
		C0 597 
		T0 8 
		P 272 
		N 226 
		C0 598 
		T0 207 
		P 273 
		N 228 
		C0 599 
		T0 208 
		P 274 
		N 229 
		C0 600 
		T0 209 
		P 275 
		N 229 
		C0 601 
		T0 210 
		P 276 
		N 228 
		C0 602 
		T0 211 
		P 277 
		N 230 
		C0 603 
		T0 212 
		P 278 
		N 230 
		C0 604 
		T0 213 
		P 279 
		N 231 
		C0 605 
		T0 214 
		P 277 
		N 231 
		C0 606 
		T0 215 
		P 278 
		N 231 
		C0 607 
		T0 216 
		P 280 
		N 231 
		C0 608 
		T0 217 
		P 281 
		N 232 
		C0 609 
		T0 218 
		P 279 
		N 232 
		C0 610 
		T0 214 
		P 280 
		N 232 
		C0 611 
		T0 217 
		P 282 
		N 232 
		C0 612 
		T0 219 
		P 283 
		N 233 
		C0 613 
		T0 220 
		P 281 
		N 234 
		C0 614 
		T0 221 
		P 282 
		N 234 
		C0 615 
		T0 222 
		P 284 
		N 233 
		C0 616 
		T0 223 
		P 285 
		N 235 
		C0 617 
		T0 224 
		P 286 
		N 236 
		C0 618 
		T0 225 
		P 287 
		N 236 
		C0 619 
		T0 226 
		P 288 
		N 235 
		C0 620 
		T0 227 
		P 270 
		N 237 
		C0 621 
		T0 228 
		P 271 
		N 237 
		C0 622 
		T0 229 
		P 277 
		N 238 
		C0 623 
		T0 215 
		P 279 
		N 238 
		C0 624 
		T0 214 
		P 281 
		N 238 
		C0 625 
		T0 218 
		P 281 
		N 238 
		C0 626 
		T0 230 
		P 283 
		N 238 
		C0 627 
		T0 231 
		P 273 
		N 238 
		C0 628 
		T0 232 
		P 277 
		N 238 
		C0 629 
		T0 233 
		P 286 
		N 238 
		C0 630 
		T0 234 
		P 274 
		N 238 
		C0 631 
		T0 235 
		P 285 
		N 238 
		C0 632 
		T0 236 
		P 270 
		N 238 
		C0 633 
		T0 237 
		P 269 
		N 238 
		C0 634 
		T0 238 
		P 278 
		N 239 
		C0 635 
		T0 216 
		P 282 
		N 239 
		C0 636 
		T0 219 
		P 280 
		N 239 
		C0 637 
		T0 217 
		P 282 
		N 239 
		C0 638 
		T0 230 
		P 278 
		N 239 
		C0 639 
		T0 233 
		P 276 
		N 239 
		C0 640 
		T0 232 
		P 284 
		N 239 
		C0 641 
		T0 231 
		P 275 
		N 239 
		C0 642 
		T0 235 
		P 287 
		N 239 
		C0 643 
		T0 234 
		P 288 
		N 239 
		C0 644 
		T0 236 
		P 272 
		N 239 
		C0 645 
		T0 238 
		P 271 
		N 239 
		C0 646 
		T0 237 
		P 289 
		N 240 
		C0 647 
		T0 239 
		P 290 
		N 240 
		C0 648 
		T0 240 
		P 291 
		N 240 
		C0 649 
		T0 241 
		P 292 
		N 240 
		C0 650 
		T0 242 
		P 292 
		N 1 
		C0 651 
		T0 242 
		P 291 
		N 1 
		C0 652 
		T0 241 
		P 293 
		N 1 
		C0 653 
		T0 243 
		P 294 
		N 1 
		C0 654 
		T0 244 
		P 295 
		N 8 
		C0 655 
		T0 245 
		P 296 
		N 8 
		C0 656 
		T0 246 
		P 290 
		N 8 
		C0 657 
		T0 240 
		P 289 
		N 8 
		C0 658 
		T0 239 
		P 290 
		N 241 
		C0 659 
		T0 240 
		P 296 
		N 241 
		C0 660 
		T0 246 
		P 293 
		N 241 
		C0 661 
		T0 243 
		P 291 
		N 241 
		C0 662 
		T0 241 
		P 295 
		N 242 
		C0 663 
		T0 245 
		P 289 
		N 242 
		C0 664 
		T0 239 
		P 292 
		N 242 
		C0 665 
		T0 242 
		P 294 
		N 242 
		C0 666 
		T0 244 
		P 297 
		N 243 
		C0 667 
		T0 247 
		P 298 
		N 243 
		C0 668 
		T0 248 
		P 299 
		N 243 
		C0 669 
		T0 249 
		P 300 
		N 243 
		C0 670 
		T0 250 
		P 301 
		N 244 
		C0 671 
		T0 251 
		P 302 
		N 244 
		C0 672 
		T0 252 
		P 303 
		N 244 
		C0 673 
		T0 253 
		P 304 
		N 244 
		C0 674 
		T0 254 
		P 303 
		N 245 
		C0 675 
		T0 253 
		P 302 
		N 245 
		C0 676 
		T0 252 
		P 299 
		N 245 
		C0 677 
		T0 249 
		P 298 
		N 245 
		C0 678 
		T0 248 
		P 301 
		N 246 
		C0 679 
		T0 251 
		P 304 
		N 246 
		C0 680 
		T0 254 
		P 297 
		N 246 
		C0 681 
		T0 247 
		P 300 
		N 246 
		C0 682 
		T0 250 
		P 301 
		N 247 
		C0 683 
		T0 251 
		P 300 
		N 247 
		C0 684 
		T0 250 
		P 305 
		N 247 
		C0 685 
		T0 255 
		P 306 
		N 247 
		C0 686 
		T0 256 
		P 299 
		N 248 
		C0 687 
		T0 249 
		P 307 
		N 248 
		C0 688 
		T0 257 
		P 305 
		N 248 
		C0 689 
		T0 255 
		P 300 
		N 248 
		C0 690 
		T0 250 
		P 302 
		N 161 
		C0 691 
		T0 252 
		P 308 
		N 161 
		C0 692 
		T0 258 
		P 307 
		N 161 
		C0 693 
		T0 257 
		P 299 
		N 161 
		C0 694 
		T0 249 
		P 302 
		N 249 
		C0 695 
		T0 252 
		P 301 
		N 249 
		C0 696 
		T0 251 
		P 306 
		N 249 
		C0 697 
		T0 256 
		P 308 
		N 249 
		C0 698 
		T0 258 
		P 309 
		N 250 
		C0 699 
		T0 259 
		P 310 
		N 250 
		C0 700 
		T0 260 
		P 311 
		N 251 
		C0 701 
		T0 260 
		P 312 
		N 251 
		C0 702 
		T0 259 
		P 139 
		N 252 
		C0 703 
		T0 261 
		P 141 
		N 252 
		C0 704 
		T0 262 
		P 161 
		N 253 
		C0 705 
		T0 263 
		P 135 
		N 252 
		C0 706 
		T0 264 
		P 134 
		N 252 
		C0 707 
		T0 265 
		P 171 
		N 254 
		C0 708 
		T0 266 
		P 128 
		N 255 
		C0 709 
		T0 267 
		P 179 
		N 8 
		C0 710 
		T0 268 
		P 162 
		N 256 
		C0 711 
		T0 269 
		P 127 
		N 257 
		C0 712 
		T0 270 
		P 129 
		N 258 
		C0 713 
		T0 271 
		P 130 
		N 8 
		C0 714 
		T0 272 
		P 177 
		N 8 
		C0 715 
		T0 273 
		P 238 
		N 252 
		C0 716 
		T0 274 
		P 253 
		N 259 
		C0 717 
		T0 275 
		P 235 
		N 252 
		C0 718 
		T0 276 
		P 236 
		N 252 
		C0 719 
		T0 277 
		P 258 
		N 260 
		C0 720 
		T0 278 
		P 229 
		N 261 
		C0 721 
		T0 279 
		P 254 
		N 256 
		C0 722 
		T0 280 
		P 230 
		N 262 
		C0 723 
		T0 281 
		P 231 
		N 263 
		C0 724 
		T0 282 
		P 232 
		N 8 
		C0 725 
		T0 283 
		P 262 
		N 8 
		C0 726 
		T0 284 
		P 183 
		N 132 
		C0 727 
		T0 285 
		P 182 
		N 0 
		C0 728 
		T0 286 
		P 265 
		N 0 
		C0 729 
		T0 286 
		P 264 
		N 132 
		C0 730 
		T0 285 
	}

	Mtl 4 { 
		{
			Name "#2" 
			Priority 32 
			Prim 126 { 
				{
					Type TRISTRIP
					Priority 32 
					Idx 4 { 9 10 8 7 }
				}
				{
					Type TRISTRIP
					Priority 32 
					Idx 7 { 17 16 15 14 12 13 11 }
				}
				{
					Type TRISTRIP2
					Priority 32 
					Idx 6 { 12 15 55 56 151 154 }
				}
				{
					Type TRISTRIP2
					Priority 32 
					Idx 4 { 23 22 24 25 }
				}
				{
					Type TRISTRIP2
					Priority 32 
					Idx 4 { 27 26 28 29 }
				}
				{
					Type TRISTRIP2
					Priority 32 
					Idx 4 { 31 30 32 33 }
				}
				{
					Type TRISTRIP2
					Priority 32 
					Idx 6 { 67 66 68 69 196 195 }
				}
				{
					Type TRISTRIP2
					Priority 32 
					Idx 4 { 78 77 79 76 }
				}
				{
					Type TRISTRIP2
					Priority 32 
					Idx 4 { 81 80 82 83 }
				}
				{
					Type TRISTRIP2
					Priority 32 
					Idx 6 { 107 110 108 109 219 220 }
				}
				{
					Type TRISTRIP2
					Priority 32 
					Idx 4 { 112 111 113 114 }
				}
				{
					Type TRISTRIP2
					Priority 32 
					Idx 4 { 116 115 117 118 }
				}
				{
					Type TRISTRIP2
					Priority 32 
					Idx 6 { 125 128 126 127 231 232 }
				}
				{
					Type TRISTRIP2
					Priority 32 
					Idx 8 { 129 123 124 122 121 230 229 233 }
				}
				{
					Type TRISTRIP2
					Priority 32 
					Idx 4 { 147 146 148 145 }
				}
				{
					Type TRISTRIP2
					Priority 32 
					Idx 7 { 155 153 154 152 151 150 149 }
				}
				{
					Type TRISTRIP
					Priority 32 
					Idx 6 { 70 71 73 72 197 198 }
				}
				{
					Type TRISTRIP
					Priority 32 
					Idx 6 { 92 89 91 90 210 209 }
				}
				{
					Type TRISTRIP
					Priority 32 
					Idx 6 { 105 106 104 103 218 217 }
				}
				{
					Type TRISTRIP
					Priority 32 
					Idx 4 { 156 157 159 158 }
				}
				{
					Type TRISTRIP
					Priority 32 
					Idx 4 { 163 160 162 161 }
				}
				{
					Type TRISTRIP
					Priority 32 
					Idx 4 { 167 164 166 165 }
				}
				{
					Type TRISTRIP
					Priority 32 
					Idx 4 { 171 168 170 169 }
				}
				{
					Type TRISTRIP
					Priority 32 
					Idx 4 { 203 200 202 201 }
				}
				{
					Type TRISTRIP
					Priority 32 
					Idx 4 { 206 207 205 204 }
				}
				{
					Type TRISTRIP
					Priority 32 
					Idx 4 { 224 221 223 222 }
				}
				{
					Type TRISTRIP
					Priority 32 
					Idx 4 { 228 225 227 226 }
				}
				{
					Type TRISTRIP
					Priority 32 
					Idx 4 { 245 246 244 243 }
				}
				{
					Type TRISTRIP
					Priority 32 
					Idx 4 { 248 249 247 250 }
				}
				{
					Type TRISTRIP
					Priority 32 
					Idx 4 { 263 264 259 252 }
				}
				{
					Type TRISTRIP
					Priority 32 
					Idx 3 { 253 251 252 }
				}
				{
					Type TRISTRIP2
					Priority 32 
					Idx 4 { 18 21 19 20 }
				}
				{
					Type TRISTRIP2
					Priority 32 
					Idx 6 { 256 255 254 262 260 261 }
				}
				{
					Type TRISTRIP2
					Priority 32 
					Idx 8 { 277 280 278 279 281 283 282 284 }
				}
				{
					Type TRISTRIP2
					Priority 32 
					Idx 6 { 345 344 346 343 523 524 }
				}
				{
					Type TRISTRIP2
					Priority 32 
					Idx 5 { 371 370 367 369 368 }
				}
				{
					Type TRISTRIP
					Priority 32 
					Idx 6 { 386 387 385 388 559 558 }
				}
				{
					Type TRISTRIP
					Priority 32 
					Idx 4 { 413 414 412 415 }
				}
				{
					Type TRISTRIP
					Priority 32 
					Idx 4 { 421 422 420 423 }
				}
				{
					Type TRISTRIP
					Priority 32 
					Idx 4 { 430 427 429 428 }
				}
				{
					Type TRISTRIP
					Priority 32 
					Idx 5 { 432 426 410 411 409 }
				}
				{
					Type TRISTRIP2
					Priority 32 
					Idx 6 { 401 400 402 399 568 569 }
				}
				{
					Type TRISTRIP2
					Priority 32 
					Idx 6 { 407 406 408 405 572 573 }
				}
				{
					Type TRISTRIP2
					Priority 32 
					Idx 4 { 436 435 437 434 }
				}
				{
					Type TRISTRIP2
					Priority 32 
					Idx 4 { 441 440 438 439 }
				}
				{
					Type TRISTRIP2
					Priority 32 
					Idx 4 { 455 454 449 444 }
				}
				{
					Type TRISTRIP2
					Priority 32 
					Idx 3 { 448 450 449 }
				}
				{
					Type TRISTRIP
					Priority 32 
					Idx 6 { 446 447 445 452 451 453 }
				}
				{
					Type TRISTRIP
					Priority 32 
					Idx 8 { 468 469 471 470 472 473 474 475 }
				}
				{
					Type TRISTRIP
					Priority 32 
					Idx 3 { 444 442 443 }
				}
				{
					Type TRISTRIP2
					Priority 32 
					Idx 8 { 565 507 560 319 391 316 390 396 }
				}
				{
					Type TRISTRIP2
					Priority 32 
					Idx 4 { 579 578 576 577 }
				}
				{
					Type TRISTRIP2
					Priority 32 
					Idx 4 { 585 584 582 583 }
				}
				{
					Type TRISTRIP2
					Priority 32 
					Idx 4 { 588 591 589 590 }
				}
				{
					Type TRISTRIP2
					Priority 32 
					Idx 5 { 593 587 575 574 409 }
				}
				{
					Type TRISTRIP
					Priority 32 
					Idx 6 { 316 317 319 318 507 508 }
				}
				{
					Type TRISTRIP
					Priority 32 
					Idx 4 { 605 606 608 607 }
				}
				{
					Type TRISTRIP
					Priority 32 
					Idx 4 { 610 611 609 612 }
				}
				{
					Type TRISTRIP
					Priority 32 
					Idx 4 { 647 648 650 649 }
				}
				{
					Type TRISTRIP
					Priority 32 
					Idx 4 { 654 651 653 652 }
				}
				{
					Type TRISTRIP
					Priority 32 
					Idx 4 { 655 656 658 657 }
				}
				{
					Type TRISTRIP
					Priority 32 
					Idx 4 { 660 661 659 662 }
				}
				{
					Type TRISTRIP
					Priority 32 
					Idx 4 { 663 664 666 665 }
				}
				{
					Type TRISTRIP
					Priority 32 
					Idx 4 { 670 667 669 668 }
				}
				{
					Type TRISTRIP
					Priority 32 
					Idx 4 { 671 672 674 673 }
				}
				{
					Type TRISTRIP
					Priority 32 
					Idx 4 { 676 677 675 678 }
				}
				{
					Type TRISTRIP
					Priority 32 
					Idx 4 { 679 680 682 681 }
				}
				{
					Type TRISTRIP
					Priority 32 
					Idx 4 { 685 686 684 683 }
				}
				{
					Type TRISTRIP
					Priority 32 
					Idx 4 { 689 690 688 687 }
				}
				{
					Type TRISTRIP
					Priority 32 
					Idx 4 { 692 693 691 694 }
				}
				{
					Type TRISTRIP
					Priority 32 
					Idx 4 { 697 698 696 695 }
				}
				{
					Type TRISTRIP
					Priority 32 
					Idx 15 { 497 498 489 490 489 488 487 486 485 484 483 481 480 482 468 }
				}
				{
					Type TRISTRIP2
					Priority 32 
					Idx 18 { 499 498 495 490 495 488 494 486 493 484 492 481 491 482 496 506 504 505 }
				}
				{
					Type TRISTRIP2
					Priority 32 
					Idx 13 { 566 564 512 511 509 511 510 324 325 322 323 321 320 }
				}
				{
					Type TRISTRIP
					Priority 32 
					Idx 17 { 321 397 322 395 322 334 324 335 511 517 564 522 563 518 561 519 562 }
				}
				{
					Type TRISTRIP2
					Priority 32 
					Idx 8 { 519 514 518 513 522 515 525 526 }
				}
				{
					Type TRISTRIP2
					Priority 32 
					Idx 11 { 514 328 513 329 515 331 516 331 332 330 333 }
				}
				{
					Type TRISTRIP
					Priority 32 
					Idx 11 { 596 597 595 598 600 601 599 602 599 604 603 }
				}
				{
					Type TRISTRIP2
					Priority 32 
					Idx 11 { 621 622 617 620 618 619 613 616 613 615 614 }
				}
				{
					Type TRISTRIP
					Priority 32 
					Idx 11 { 216 213 215 214 215 120 119 102 101 99 100 }
				}
				{
					Type TRISTRIP2
					Priority 32 
					Idx 10 { 633 632 634 630 631 627 628 627 629 626 }
				}
				{
					Type TRISTRIP2
					Priority 32 
					Idx 9 { 234 131 211 94 212 94 95 93 96 }
				}
				{
					Type TRISTRIP
					Priority 32 
					Idx 4 { 93 130 94 131 }
				}
				{
					Type TRISTRIP
					Priority 32 
					Idx 11 { 208 194 85 64 84 64 63 65 62 75 74 }
				}
				{
					Type TRISTRIP2
					Priority 32 
					Idx 6 { 194 64 193 65 199 75 }
				}
				{
					Type TRISTRIP2
					Priority 32 
					Idx 9 { 192 61 188 53 187 53 54 52 51 }
				}
				{
					Type TRISTRIP
					Priority 32 
					Idx 4 { 52 60 53 61 }
				}
				{
					Type TRISTRIP
					Priority 32 
					Idx 10 { 646 644 645 643 642 641 640 641 639 638 }
				}
				{
					Type TRISTRIP
					Priority 32 
					Idx 15 { 363 364 355 356 354 356 357 358 359 360 361 360 362 365 366 }
				}
				{
					Type TRISTRIP2
					Priority 32 
					Idx 7 { 571 570 555 567 555 557 556 }
				}
				{
					Type TRISTRIP
					Priority 32 
					Idx 7 { 520 521 339 340 339 341 338 }
				}
				{
					Type TRISTRIP2
					Priority 32 
					Idx 7 { 384 383 382 398 382 404 403 }
				}
				{
					Type TRISTRIP
					Priority 32 
					Idx 14 { 334 395 342 394 342 392 336 393 336 337 326 327 329 328 }
				}
				{
					Type TRISTRIP
					Priority 32 
					Idx 7 { 242 239 236 237 236 238 235 }
				}
				{
					Type TRISTRIP2
					Priority 32 
					Idx 7 { 177 176 174 175 174 173 172 }
				}
				{
					Type TRISTRIP
					Priority 32 
					Idx 7 { 132 133 88 134 88 86 87 }
				}
				{
					Type TRISTRIP2
					Priority 32 
					Idx 7 { 34 36 35 37 35 38 39 }
				}
				{
					Type TRISTRIP
					Priority 32 
					Idx 25 { 314 315 313 305 290 300 290 291 277 291 289 293 292 295 294 297 296 299 298 299 307 299 306 304 308 }
				}
				{
					Type TRISTRIP2
					Priority 32 
					Idx 10 { 300 291 301 293 302 295 303 297 304 299 }
				}
				{
					Type TRISTRIP2
					Priority 32 
					Idx 11 { 424 416 425 417 586 417 580 581 580 592 594 }
				}
				{
					Type TRISTRIP
					Priority 32 
					Idx 5 { 417 418 416 431 433 }
				}
				{
					Type TRISTRIP2
					Priority 32 
					Idx 13 { 551 552 378 377 375 377 376 377 410 377 419 552 575 }
				}
				{
					Type TRISTRIP
					Priority 32 
					Idx 16 { 541 542 533 534 533 532 536 535 538 537 538 539 538 540 544 543 }
				}
				{
					Type TRISTRIP
					Priority 32 
					Idx 10 { 347 348 330 342 330 336 330 326 331 329 }
				}
				{
					Type TRISTRIP
					Priority 32 
					Idx 29 { 554 500 553 503 553 550 553 374 380 373 379 310 381 310 309 311 312 311 351 310 351 352 349 350 349 309 349 312 351 }
				}
				{
					Type TRISTRIP2
					Priority 32 
					Idx 10 { 373 287 374 372 550 372 479 372 389 287 }
				}
				{
					Type TRISTRIP2
					Priority 32 
					Idx 12 { 43 42 40 41 40 45 44 45 46 45 47 48 }
				}
				{
					Type TRISTRIP2
					Priority 32 
					Idx 7 { 479 478 476 473 477 475 531 }
				}
				{
					Type TRISTRIP
					Priority 32 
					Idx 8 { 457 458 459 460 461 457 456 459 }
				}
				{
					Type TRISTRIP
					Priority 32 
					Idx 8 { 463 464 465 466 467 463 462 465 }
				}
				{
					Type TRISTRIP
					Priority 32 
					Idx 13 { 503 529 530 528 527 528 500 501 503 502 529 501 528 }
				}
				{
					Type TRISTRIP2
					Priority 32 
					Idx 8 { 268 267 266 270 269 268 265 266 }
				}
				{
					Type TRISTRIP2
					Priority 32 
					Idx 8 { 274 273 272 276 275 274 271 272 }
				}
				{
					Type TRISTRIP2
					Priority 32 
					Idx 17 { 98 140 141 139 138 139 50 49 0 3 0 2 1 2 97 98 141 }
				}
				{
					Type TRISTRIP
					Priority 32 
					Idx 3 { 6 4 5 }
				}
				{
					Type TRISTRIP2
					Priority 32 
					Idx 3 { 57 59 58 }
				}
				{
					Type TRISTRIP
					Priority 32 
					Idx 3 { 137 135 136 }
				}
				{
					Type TRISTRIP2
					Priority 32 
					Idx 3 { 135 241 240 }
				}
				{
					Type TRISTRIP
					Priority 32 
					Idx 3 { 191 189 190 }
				}
				{
					Type TRISTRIP2
					Priority 32 
					Idx 3 { 142 144 143 }
				}
				{
					Type TRISTRIP
					Priority 32 
					Idx 7 { 287 288 286 283 285 284 353 }
				}
				{
					Type TRISTRIP2
					Priority 32 
					Idx 3 { 257 259 258 }
				}
				{
					Type TRISTRIP
					Priority 32 
					Idx 5 { 549 546 545 547 548 }
				}
				{
					Type TRISTRIP2
					Priority 32 
					Idx 13 { 185 182 186 182 184 182 183 182 178 181 178 180 179 }
				}
				{
					Type TRISTRIP
					Priority 32 
					Idx 3 { 625 623 624 }
				}
				{
					Type TRISTRIP2
					Priority 32 
					Idx 3 { 635 637 636 }
				}
			}

		}
		{
			Name "#3" 
			Priority 32 
			Prim 2 { 
				{
					Type TRISTRIP
					Priority 32 
					Idx 4 { 245 244 700 699 }
				}
				{
					Type TRISTRIP
					Priority 32 
					Idx 4 { 701 702 436 437 }
				}
			}

		}
		{
			Name "#4" 
			Priority 32 
			Prim 4 { 
				{
					Type TRISTRIP
					Priority 32 
					Idx 5 { 714 709 708 710 715 }
				}
				{
					Type TRISTRIP2
					Priority 32 
					Idx 5 { 725 721 720 710 726 }
				}
				{
					Type TRISTRIP
					Priority 32 
					Idx 11 { 712 713 709 711 710 711 704 705 703 706 707 }
				}
				{
					Type TRISTRIP2
					Priority 32 
					Idx 12 { 723 724 721 722 710 717 704 717 716 717 719 718 }
				}
			}

		}
		{
			Name "#5" 
			Priority 32 
			Prim 2 { 
				{
					Type TRISTRIP
					Priority 32 
					Idx 4 { 728 430 727 429 }
				}
				{
					Type TRISTRIP
					Priority 32 
					Idx 4 { 589 729 590 730 }
				}
			}

		}
	}

	Offset 0 
}
