{
	Skinned 0 
	PosSkin 0 
	Pos 8 { 
		-0.759522	0.788524	-2.361476 
		-0.399314	0.788524	-2.371691 
		-0.399314	0.650327	-2.371691 
		-0.759522	0.650327	-2.361476 
		0.399314	0.650327	-2.371691 
		0.399314	0.788524	-2.371691 
		0.759522	0.788524	-2.361476 
		0.759522	0.650327	-2.361476 
	}

	Nrm 2 { 
		-0.031250	0.000000	-1.000000 
		0.031250	0.000000	-1.000000 
	}

	Cpv 8 { 
		0.500000	0.500000	0.510536	0.000000 
		0.500000	0.500000	0.500000	0.000000 
		0.500000	0.500000	0.500000	1.000000 
		0.500000	0.500000	0.510536	0.000000 
		0.500000	0.500000	0.500000	0.000000 
		0.500000	0.500000	0.500000	0.000000 
		0.500000	0.500000	0.536066	0.000000 
		0.500000	0.500000	0.536066	0.000000 
	}

	Tex0 8 { 
		0.032227	0.613281 
		0.135742	0.613281 
		0.135742	0.581055 
		0.032227	0.581055 
		0.365234	0.581055 
		0.365234	0.613281 
		0.468750	0.613281 
		0.468750	0.581055 
	}

	Tex1 0 
	Adj 8 { 
		P 0 
		N 0 
		C0 0 
		T0 0 
		P 1 
		N 0 
		C0 1 
		T0 1 
		P 2 
		N 0 
		C0 2 
		T0 2 
		P 3 
		N 0 
		C0 3 
		T0 3 
		P 4 
		N 1 
		C0 4 
		T0 4 
		P 5 
		N 1 
		C0 5 
		T0 5 
		P 6 
		N 1 
		C0 6 
		T0 6 
		P 7 
		N 1 
		C0 7 
		T0 7 
	}

	Mtl 1 { 
		{
			Name "#2" 
			Priority 32 
			Prim 2 { 
				{
					Type TRISTRIP
					Priority 32 
					Idx 4 { 3 0 2 1 }
				}
				{
					Type TRISTRIP
					Priority 32 
					Idx 4 { 4 5 7 6 }
				}
			}

		}
	}

	Offset 0 
}
