{
	Skinned 0 
	PosSkin 0 
	Pos 6 { 
		1.326740	-0.000049	-0.008848 
		-1.314740	-0.000049	-0.008848 
		-1.313704	-0.000049	3.331741 
		1.325704	-0.000049	3.331741 
		1.327709	-0.000049	-2.786253 
		-1.315709	-0.000049	-2.786253 
	}

	Nrm 1 { 
		0.000000	0.000000	1.000000 
	}

	Cpv 6 { 
		1.000000	1.000000	1.000000	1.000000 
		1.000000	1.000000	1.000000	1.000000 
		1.000000	1.000000	1.000000	1.000000 
		1.000000	1.000000	1.000000	1.000000 
		1.000000	1.000000	1.000000	1.000000 
		1.000000	1.000000	1.000000	1.000000 
	}

	Tex0 4 { 
		0.976563	0.000000 
		0.023438	0.000000 
		0.023438	0.950195 
		0.975586	0.950195 
	}

	Tex1 0 
	Adj 6 { 
		P 0 
		N 0 
		C0 0 
		T0 0 
		P 1 
		N 0 
		C0 1 
		T0 1 
		P 2 
		N 0 
		C0 2 
		T0 2 
		P 3 
		N 0 
		C0 3 
		T0 3 
		P 4 
		N 0 
		C0 4 
		T0 3 
		P 5 
		N 0 
		C0 5 
		T0 2 
	}

	Mtl 1 { 
		{
			Name "#0" 
			Priority 32 
			Prim 1 { 
				{
					Type TRISTRIP
					Priority 32 
					Idx 7 { 5 1 4 1 0 2 3 }
				}
			}

		}
	}

	Offset 0 
}
