{
	Skinned 0 
	PosSkin 0 
	Pos 181 { 
		1.023813	0.608216	3.055005 
		1.023814	0.756760	3.054242 
		0.743696	0.756760	3.054242 
		0.743696	0.608216	3.055005 
		-0.741927	0.760644	3.054242 
		-1.022044	0.760644	3.054242 
		-1.022044	0.612100	3.055005 
		-0.741927	0.612100	3.055005 
		-0.700677	2.131394	-1.891273 
		-0.758398	2.086007	-1.853189 
		-0.758300	2.111397	-1.065668 
		-0.700115	2.158971	-1.077739 
		0.005197	2.169680	-1.938762 
		0.005197	2.189254	-1.083393 
		-0.957241	1.286191	-1.054279 
		-0.969614	0.726807	-1.353974 
		-0.980395	0.492033	-1.235255 
		-0.983873	0.491662	-1.045453 
		-0.704465	2.074662	-1.975392 
		-0.758438	2.041839	-1.928184 
		-0.925889	1.276656	-2.442860 
		-0.914247	0.664060	-2.456411 
		-0.958594	0.592116	-2.007367 
		-0.954959	0.763701	-1.877514 
		-0.913732	0.626064	-2.454775 
		-0.910302	0.372750	-2.450644 
		-0.952214	0.367752	-2.057886 
		-0.885329	1.276123	-2.504869 
		-0.876527	0.788776	-2.503860 
		-0.874260	0.663249	-2.503601 
		0.005197	2.105984	-2.030970 
		0.005197	1.275593	-2.580917 
		0.005197	0.788777	-2.577324 
		-0.428749	0.788777	-2.541168 
		-0.959536	0.819346	-1.595830 
		-0.874306	0.625285	-2.559433 
		0.005197	0.661851	-2.576387 
		0.005197	0.613065	-2.632199 
		-0.428749	0.662541	-2.540473 
		-0.730933	2.092293	-1.014312 
		0.005197	2.117941	-1.017761 
		-0.927418	1.286584	-1.006606 
		-0.941776	0.491285	-1.000171 
		0.937813	1.286584	-1.006607 
		0.768695	2.111397	-1.065669 
		0.768793	2.086007	-1.853189 
		0.711072	2.131394	-1.891273 
		0.710510	2.158971	-1.077739 
		0.981221	0.491603	-1.235049 
		0.972993	0.727555	-1.354099 
		0.968401	1.286229	-1.054296 
		0.984914	0.491205	-1.045256 
		0.768832	2.041839	-1.928184 
		0.714860	2.074662	-1.975393 
		0.934922	1.276589	-2.442832 
		0.958852	0.624332	-2.007311 
		0.927621	0.670067	-2.456413 
		0.958929	0.767573	-1.883097 
		0.920697	0.372750	-2.450644 
		0.926718	0.631286	-2.454777 
		0.962609	0.367752	-2.057886 
		0.895724	1.276123	-2.504869 
		0.433423	0.788777	-2.541459 
		0.882472	0.788776	-2.503851 
		0.879227	0.669459	-2.503601 
		0.964926	0.785585	-1.595982 
		0.879982	0.630684	-2.559433 
		0.433423	0.665578	-2.540726 
		0.741328	2.092293	-1.014312 
		0.952171	0.491285	-1.000171 
		-1.107428	0.758580	3.056214 
		-1.107429	0.730958	-0.979826 
		-0.560665	0.730958	-0.979826 
		-0.561477	0.758580	3.056214 
		-1.107428	2.862196	3.041528 
		-1.107429	2.834575	-0.994512 
		0.000068	2.862196	3.041528 
		0.561612	0.758580	3.056214 
		0.000067	2.834574	-0.994512 
		0.560798	0.730958	-0.979826 
		0.559843	0.441090	-0.977802 
		-0.559709	0.441090	-0.977802 
		0.559767	0.468712	3.058237 
		-0.559633	0.468712	3.058238 
		-0.741927	0.760129	3.000065 
		-0.741927	0.611586	3.000828 
		-1.022044	0.611586	3.000828 
		-1.022044	0.760129	3.000065 
		-1.054270	2.885873	-0.966960 
		-1.054268	2.913105	3.013263 
		0.000067	2.969815	-0.917116 
		0.000068	2.996343	2.962251 
		1.107562	0.730958	-0.979826 
		1.107563	0.758580	3.056214 
		1.107563	2.862196	3.041528 
		1.107562	2.834574	-0.994513 
		1.054402	2.885873	-0.966961 
		1.054403	2.913105	3.013263 
		1.023814	0.607702	3.000828 
		0.743696	0.607702	3.000827 
		0.743696	0.756246	3.000065 
		1.023813	0.756246	3.000065 
		1.178670	1.725125	-2.205060 
		1.194669	1.383857	-2.211662 
		1.162673	1.415410	-2.193844 
		1.200323	1.384185	-2.164562 
		1.200323	1.725390	-2.167013 
		0.962208	1.383512	-2.261020 
		0.918273	1.415066	-2.243199 
		0.955924	1.383841	-2.213917 
		0.931499	1.259264	-2.260220 
		0.925416	1.259592	-2.213119 
		1.077290	1.504840	-2.136433 
		1.271942	1.504840	-2.121798 
		1.272464	1.868263	-2.128755 
		1.077813	1.868263	-2.143391 
		1.118039	1.603968	-2.175278 
		1.118274	1.766937	-2.178398 
		1.237692	1.766937	-2.169419 
		1.237458	1.603968	-2.166299 
		-1.148026	1.415410	-2.193843 
		-1.180022	1.383857	-2.211660 
		-1.164024	1.725124	-2.205057 
		-1.185676	1.384185	-2.164560 
		-1.185676	1.725390	-2.167011 
		-0.903627	1.415066	-2.243198 
		-0.947562	1.383512	-2.261018 
		-0.941277	1.383841	-2.213917 
		-0.916852	1.259264	-2.260219 
		-0.910769	1.259592	-2.213117 
		-1.258442	1.868262	-2.131446 
		-1.258114	1.504840	-2.124475 
		-1.063130	1.504840	-2.133671 
		-1.063458	1.868263	-2.140641 
		-1.222549	1.766936	-2.171123 
		-1.102926	1.766936	-2.176765 
		-1.102779	1.603968	-2.173638 
		-1.222402	1.603968	-2.167997 
		-0.874618	0.372187	-2.551208 
		0.885012	0.372187	-2.551209 
		0.005197	0.371905	-2.626005 
		-0.611231	0.367752	-2.057886 
		-0.652906	0.490891	-1.235202 
		-0.652906	0.777488	-1.393197 
		-0.652906	0.765796	-1.884469 
		0.621626	0.367752	-2.057886 
		0.663300	0.490891	-1.235202 
		0.663300	0.777488	-1.393198 
		0.663300	0.765795	-1.884469 
		-0.716781	0.744477	1.260288 
		-0.716781	0.456514	1.073039 
		-0.716781	0.456318	1.044950 
		-0.716781	0.743677	1.145748 
		-1.044068	0.744477	1.260288 
		-1.044068	0.743677	1.145748 
		-1.044068	0.456318	1.044950 
		-1.044068	0.456514	1.073039 
		-0.716781	0.454060	2.162603 
		-0.716781	0.453787	2.123466 
		-0.716781	0.749166	1.931931 
		-0.716781	0.749966	2.046471 
		-1.044068	0.749166	1.931931 
		-1.044068	0.453787	2.123466 
		-1.044068	0.454060	2.162603 
		-1.044068	0.749966	2.046471 
		0.716914	0.456318	1.044950 
		0.716914	0.456514	1.073039 
		0.716914	0.744477	1.260288 
		0.716914	0.743677	1.145747 
		1.044202	0.456318	1.044950 
		1.044202	0.743677	1.145747 
		1.044202	0.744477	1.260288 
		1.044202	0.456514	1.073039 
		0.716914	0.749166	1.931931 
		0.716914	0.453787	2.123466 
		0.716914	0.454060	2.162603 
		0.716914	0.749966	2.046471 
		1.044203	0.749166	1.931931 
		1.044203	0.749966	2.046471 
		1.044203	0.454060	2.162603 
		1.044203	0.453787	2.123466 
	}

	Nrm 147 { 
		0.000000	0.000000	1.000000 
		-0.406250	0.875000	-0.265625 
		-0.859375	0.500000	-0.140625 
		-0.875000	0.437500	0.218750 
		-0.328125	0.890625	0.328125 
		0.000000	0.953125	-0.312500 
		0.000000	0.921875	0.390625 
		-0.984375	0.093750	0.187500 
		-1.000000	0.031250	-0.031250 
		-1.000000	0.031250	-0.015625 
		-0.953125	0.031250	0.312500 
		-0.437500	0.671875	-0.609375 
		-0.906250	0.359375	-0.234375 
		-0.953125	0.156250	-0.250000 
		-0.921875	0.062500	-0.390625 
		-1.000000	-0.015625	-0.093750 
		-1.000000	0.015625	-0.046875 
		-0.968750	0.062500	-0.250000 
		-0.968750	-0.015625	-0.218750 
		-1.000000	-0.015625	-0.109375 
		-0.406250	0.234375	-0.890625 
		-0.468750	-0.015625	-0.875000 
		-0.453125	-0.015625	-0.890625 
		0.000000	0.703125	-0.703125 
		0.000000	0.281250	-0.953125 
		0.000000	0.000000	-1.000000 
		-0.078125	0.000000	-1.000000 
		-0.500000	0.625000	-0.593750 
		0.000000	0.750000	-0.656250 
		0.000000	0.781250	-0.625000 
		-0.046875	0.781250	-0.625000 
		-0.375000	0.468750	0.796875 
		0.000000	0.375000	0.921875 
		-0.453125	0.078125	0.890625 
		-0.437500	0.015625	0.890625 
		0.375000	0.062500	0.921875 
		0.875000	0.437500	0.218750 
		0.859375	0.500000	-0.140625 
		0.406250	0.875000	-0.265625 
		0.328125	0.890625	0.328125 
		1.000000	0.015625	-0.015625 
		1.000000	0.015625	-0.031250 
		0.984375	0.093750	0.171875 
		0.953125	0.015625	0.281250 
		0.906250	0.343750	-0.234375 
		0.437500	0.671875	-0.609375 
		0.953125	0.156250	-0.250000 
		1.000000	0.000000	-0.078125 
		0.906250	0.062500	-0.421875 
		1.000000	0.015625	-0.046875 
		0.968750	0.000000	-0.234375 
		0.953125	0.078125	-0.265625 
		1.000000	0.000000	-0.093750 
		0.406250	0.234375	-0.890625 
		0.078125	0.000000	-1.000000 
		0.437500	-0.015625	-0.890625 
		0.468750	0.328125	-0.812500 
		0.468750	0.640625	-0.609375 
		0.046875	0.781250	-0.625000 
		0.375000	0.468750	0.796875 
		0.468750	0.015625	0.890625 
		0.000000	-1.000000	0.000000 
		-1.000000	0.000000	0.000000 
		-0.921875	0.390625	0.000000 
		0.000000	0.265625	0.968750 
		0.000000	0.218750	0.984375 
		0.000000	0.250000	-0.968750 
		0.000000	0.203125	-0.984375 
		-0.703125	0.000000	0.703125 
		0.000000	-1.000000	0.015625 
		1.000000	0.000000	0.000000 
		-0.687500	0.718750	0.000000 
		0.000000	1.000000	0.000000 
		-0.078125	1.000000	0.000000 
		0.000000	0.500000	0.859375 
		0.000000	0.484375	-0.875000 
		0.921875	0.390625	0.000000 
		0.687500	0.718750	0.000000 
		0.078125	1.000000	0.000000 
		-0.484375	0.093750	-0.875000 
		0.296875	-0.171875	-0.937500 
		-0.718750	0.703125	-0.093750 
		0.031250	-0.312500	0.953125 
		0.500000	0.140625	0.859375 
		0.437500	-0.296875	-0.859375 
		-0.671875	0.687500	-0.265625 
		-0.078125	-0.437500	0.906250 
		-0.546875	-0.250000	-0.796875 
		0.078125	-0.359375	0.921875 
		-0.078125	0.015625	1.000000 
		-0.187500	-0.156250	-0.968750 
		-0.187500	0.109375	-0.968750 
		0.343750	0.109375	-0.937500 
		0.328125	-0.156250	-0.921875 
		-0.328125	-0.218750	-0.921875 
		0.468750	-0.218750	-0.859375 
		0.468750	0.187500	-0.859375 
		-0.328125	0.187500	-0.921875 
		0.718750	0.703125	-0.093750 
		-0.296875	-0.171875	-0.937500 
		0.484375	0.093750	-0.875000 
		-0.031250	-0.312500	0.953125 
		-0.500000	0.140625	0.859375 
		0.671875	0.687500	-0.265625 
		-0.437500	-0.296875	-0.859375 
		0.078125	-0.437500	0.906250 
		0.546875	-0.250000	-0.796875 
		-0.078125	-0.359375	0.921875 
		0.046875	0.015625	1.000000 
		-0.312500	0.109375	-0.937500 
		0.218750	0.109375	-0.968750 
		0.218750	-0.156250	-0.968750 
		-0.312500	-0.156250	-0.937500 
		0.359375	-0.218750	-0.906250 
		-0.437500	-0.218750	-0.875000 
		-0.437500	0.187500	-0.875000 
		0.359375	0.187500	-0.921875 
		-0.609375	-0.031250	-0.796875 
		0.593750	-0.015625	-0.796875 
		0.000000	-0.031250	-1.000000 
		-0.734375	-0.281250	0.625000 
		-0.687500	-0.359375	-0.625000 
		-0.343750	-0.843750	-0.406250 
		-0.390625	-0.687500	0.609375 
		-0.031250	-0.875000	0.484375 
		-0.031250	-0.484375	0.875000 
		-0.078125	-0.343750	0.937500 
		0.000000	-0.984375	-0.140625 
		-0.015625	-0.468750	-0.890625 
		0.046875	-0.750000	-0.656250 
		0.000000	-1.000000	0.031250 
		0.000000	-1.000000	0.046875 
		0.000000	-1.000000	-0.015625 
		0.312500	-0.859375	-0.375000 
		0.687500	-0.359375	-0.625000 
		0.750000	-0.265625	0.609375 
		0.390625	-0.703125	0.593750 
		0.062500	-0.500000	0.859375 
		0.015625	-0.906250	0.437500 
		0.109375	-0.328125	0.937500 
		-0.046875	-1.000000	-0.093750 
		-0.062500	-0.781250	-0.609375 
		0.015625	-0.468750	-0.890625 
		0.000000	-0.546875	0.843750 
		0.000000	0.328125	-0.937500 
		0.000000	-0.546875	-0.843750 
		0.000000	0.359375	0.937500 
	}

	Cpv 370 { 
		0.494543	0.490486	0.468985	1.000000 
		0.504821	0.490130	0.436580	0.000000 
		0.505493	0.509513	0.436580	0.000000 
		0.495214	0.509869	0.468985	0.000000 
		0.491133	0.514689	0.488394	0.000000 
		0.492771	0.484440	0.488394	0.000000 
		0.508812	0.485308	0.488394	0.000000 
		0.507174	0.515557	0.488394	0.000000 
		0.500000	0.500000	0.500000	0.000000 
		0.500000	0.500000	0.500000	0.000000 
		0.500000	0.500000	0.500000	0.000000 
		0.500000	0.500000	0.500000	0.000000 
		0.500000	0.500000	0.500000	0.000000 
		0.500000	0.500000	0.500000	0.000000 
		0.500000	0.500000	0.500000	0.000000 
		0.500000	0.500000	0.500000	0.000000 
		0.664204	0.500000	0.500000	0.000000 
		0.500000	0.583192	0.500000	0.000000 
		0.500000	0.564158	0.577834	0.000000 
		0.500000	0.564158	0.577834	0.000000 
		0.500000	0.500000	0.500000	0.000000 
		0.500000	0.500000	0.500000	0.000000 
		0.509335	0.500000	0.569271	0.000000 
		0.456091	0.500000	0.500000	0.000000 
		0.456091	0.500000	0.500000	0.000000 
		0.500000	0.500000	0.500000	0.000000 
		0.456091	0.500000	0.500000	0.000000 
		0.456091	0.500000	0.500000	0.000000 
		0.456091	0.500000	0.500000	0.000000 
		0.509335	0.500000	0.569271	0.000000 
		0.500000	0.500000	0.500000	0.000000 
		0.500000	0.500000	0.500000	0.000000 
		0.500000	0.500000	0.500000	0.000000 
		0.500000	0.500000	0.500000	0.000000 
		0.500000	0.500000	0.500000	0.000000 
		0.500000	0.500000	0.500000	0.000000 
		0.509335	0.500000	0.569271	0.000000 
		0.500000	0.500000	0.500000	0.000000 
		0.469844	0.491944	0.582439	0.000000 
		0.500000	0.500000	0.500000	0.000000 
		0.500000	0.583192	0.500000	0.000000 
		0.500000	0.500000	0.500000	0.000000 
		0.456091	0.500000	0.500000	0.000000 
		0.530156	0.508056	0.595428	0.000000 
		0.500000	0.473082	0.570036	0.000000 
		0.500000	0.500000	0.500000	0.000000 
		0.456091	0.500000	0.500000	0.000000 
		0.500000	0.500000	0.500000	0.000000 
		0.500000	0.500000	0.500000	0.000000 
		0.500000	0.500000	0.500000	0.000000 
		0.500000	0.500000	0.500000	0.000000 
		0.664204	0.500000	0.500000	0.000000 
		0.500000	0.564158	0.577834	0.000000 
		0.664204	0.500000	0.500000	0.000000 
		0.500000	0.500000	0.500000	0.000000 
		0.500000	0.500000	0.500000	0.000000 
		0.500000	0.500000	0.500000	0.000000 
		0.500000	0.500000	0.500000	0.000000 
		0.522551	0.430519	0.482749	0.000000 
		0.499657	0.403357	0.524169	0.000000 
		0.500000	0.500000	0.500000	0.000000 
		0.500000	0.500000	0.500000	0.000000 
		0.499657	0.403357	0.524169	0.000000 
		0.500000	0.500000	0.500000	0.000000 
		0.553284	0.604715	0.500000	0.000000 
		0.500000	0.500000	0.500000	0.000000 
		0.500000	0.500000	0.500000	0.000000 
		0.504465	0.456686	0.474525	0.000000 
		0.481258	0.435806	0.510791	0.000000 
		0.500000	0.500000	0.500000	0.000000 
		0.500000	0.500000	0.500000	0.000000 
		0.439263	0.500000	0.555514	0.000000 
		0.553284	0.604715	0.500000	0.000000 
		0.379672	0.500000	0.500000	0.000000 
		0.439263	0.500000	0.555514	0.000000 
		0.500000	0.500000	0.500000	0.000000 
		0.481258	0.435806	0.510791	0.000000 
		0.499657	0.403357	0.524169	0.000000 
		0.500000	0.500000	0.500000	0.000000 
		0.500000	0.500000	0.500000	0.000000 
		0.500000	0.500000	0.500000	0.000000 
		0.500000	0.500000	0.500000	0.000000 
		0.500000	0.500000	0.500000	0.000000 
		0.500000	0.500000	0.500000	0.000000 
		0.553284	0.604715	0.500000	0.000000 
		0.500000	0.500000	0.500000	0.000000 
		0.500000	0.500000	0.500000	0.000000 
		0.500000	0.500000	0.500000	0.000000 
		0.500000	0.500000	0.500000	0.000000 
		0.500000	0.500000	0.500000	0.000000 
		0.500000	0.500000	0.500000	0.000000 
		0.500000	0.500000	0.500000	0.000000 
		0.500000	0.500000	0.500000	0.000000 
		0.500000	0.500000	0.500000	0.000000 
		0.500000	0.564158	0.577834	0.000000 
		0.500000	0.500000	0.500000	0.000000 
		0.500000	0.431670	0.453733	0.000000 
		0.500000	0.500000	0.613758	0.000000 
		0.500000	0.500000	0.500000	0.000000 
		0.500000	0.476877	0.500000	0.000000 
		0.500000	0.500000	0.613758	0.000000 
		0.500000	0.431670	0.453733	0.000000 
		0.500000	0.500000	0.500000	0.000000 
		0.500000	0.340006	0.500000	0.000000 
		0.500000	0.500000	0.500000	0.000000 
		0.500000	0.431670	0.453733	0.000000 
		0.500000	0.476877	0.500000	0.000000 
		0.500000	0.371585	0.395677	0.000000 
		0.500000	0.500000	0.415377	0.000000 
		0.500000	0.500000	0.500000	0.000000 
		0.500000	0.500000	0.613758	0.000000 
		0.500000	0.340006	0.500000	0.000000 
		0.500000	0.500000	0.612217	0.000000 
		0.500000	0.500000	0.500000	0.000000 
		0.500000	0.500000	0.500000	0.000000 
		0.500000	0.569918	0.500000	0.000000 
		0.500000	0.569918	0.500000	0.000000 
		0.500000	0.588613	0.415377	0.000000 
		0.500000	0.500000	0.415377	0.000000 
		0.500000	0.476877	0.500000	0.000000 
		0.500000	0.500000	0.500000	0.000000 
		0.500000	0.500000	0.500000	0.000000 
		0.500000	0.476877	0.500000	0.000000 
		0.500000	0.500000	0.500000	0.000000 
		0.500000	0.569918	0.500000	0.000000 
		0.491133	0.514689	0.488394	0.000000 
		0.507174	0.515557	0.488394	0.000000 
		0.508812	0.485308	0.488394	0.000000 
		0.492771	0.484440	0.488394	0.000000 
		0.507174	0.515557	0.488394	0.000000 
		0.508812	0.485308	0.488394	0.000000 
		0.508812	0.485308	0.488394	0.000000 
		0.507174	0.515557	0.488394	0.000000 
		0.491133	0.514689	0.488394	0.000000 
		0.507174	0.515557	0.488394	0.000000 
		0.507174	0.515557	0.488394	0.000000 
		0.491133	0.514689	0.488394	0.000000 
		0.508812	0.485308	0.488394	0.000000 
		0.492771	0.484440	0.488394	0.000000 
		0.492771	0.484440	0.488394	0.000000 
		0.508812	0.485308	0.488394	0.000000 
		0.500000	0.340006	0.500000	0.000000 
		0.500000	0.500000	0.500000	0.000000 
		0.500000	0.500000	0.612217	0.000000 
		0.500000	0.340006	0.500000	0.000000 
		0.500000	0.500000	0.500000	0.000000 
		0.500000	0.371585	0.395677	0.000000 
		0.500000	0.371585	0.395677	0.000000 
		0.500000	0.500000	0.500000	0.000000 
		0.500000	0.340006	0.500000	0.000000 
		0.500000	0.500000	0.612217	0.000000 
		0.500000	0.500000	0.500000	0.000000 
		0.500000	0.500000	0.500000	0.000000 
		0.500000	0.500000	0.500000	0.000000 
		0.500000	0.500000	0.415377	0.000000 
		0.406885	0.391141	0.500000	0.000000 
		0.500000	0.500000	0.500000	0.000000 
		0.500000	0.500000	0.500000	0.000000 
		0.500000	0.431781	0.500000	0.000000 
		0.500000	0.500000	0.500000	0.000000 
		0.406885	0.391141	0.500000	0.000000 
		0.500000	0.431781	0.500000	0.000000 
		0.500000	0.500000	0.500000	0.000000 
		0.500000	0.500000	0.500000	0.000000 
		0.500000	0.500000	0.500000	0.000000 
		0.500000	0.500000	0.415377	0.000000 
		0.500000	0.588613	0.415377	0.000000 
		0.500000	0.569918	0.500000	0.000000 
		0.500000	0.431781	0.500000	0.000000 
		0.406885	0.391141	0.500000	0.000000 
		0.406885	0.391141	0.500000	0.000000 
		0.500000	0.431781	0.500000	0.000000 
		0.406885	0.391141	0.500000	0.000000 
		0.500000	0.431781	0.500000	0.000000 
		0.494507	0.490487	0.468985	0.000000 
		0.495179	0.509870	0.500000	0.000000 
		0.505493	0.509513	0.436580	0.000000 
		0.504821	0.490130	0.436580	0.000000 
		0.494507	0.490487	0.468985	0.000000 
		0.494543	0.490486	0.468985	1.000000 
		0.495214	0.509869	0.468985	0.000000 
		0.495179	0.509870	0.500000	0.000000 
		0.495179	0.509870	0.500000	0.000000 
		0.495214	0.509869	0.468985	0.000000 
		0.505493	0.509513	0.436580	0.000000 
		0.505493	0.509513	0.436580	0.000000 
		0.504821	0.490130	0.436580	0.000000 
		0.504821	0.490130	0.436580	0.000000 
		0.494543	0.490486	0.468985	1.000000 
		0.494507	0.490487	0.468985	0.000000 
		0.418777	0.458434	0.625648	0.000000 
		0.493586	0.480749	0.500000	0.000000 
		0.501388	0.480993	0.517433	0.000000 
		0.509309	0.470316	0.494027	0.000000 
		0.429840	0.455966	0.616607	0.000000 
		0.500000	0.500000	0.500000	0.000000 
		0.500000	0.500000	0.500000	0.000000 
		0.500000	0.500000	0.500000	0.000000 
		0.500000	0.500000	0.500000	0.000000 
		0.500000	0.500000	0.500000	0.000000 
		0.540596	0.435582	0.518898	0.000000 
		0.484903	0.514857	0.585854	0.000000 
		0.358233	0.442707	0.692210	0.000000 
		0.378146	0.363433	0.670990	0.000000 
		0.488509	0.449353	0.568742	0.000000 
		0.415662	0.417000	0.636945	0.000000 
		0.403445	0.465634	0.649964	0.000000 
		0.440514	0.497988	0.627496	0.000000 
		0.540596	0.435582	0.518898	0.000000 
		0.484903	0.514857	0.585854	0.000000 
		0.358233	0.442707	0.692210	0.000000 
		0.378146	0.363433	0.670990	0.000000 
		0.602758	0.526652	0.510917	0.000000 
		0.605444	0.520602	0.520753	0.000000 
		0.669160	0.458537	0.333998	0.000000 
		0.589527	0.548124	0.505425	0.000000 
		0.657739	0.479872	0.314820	0.000000 
		0.509335	0.500000	0.569271	0.000000 
		0.509335	0.500000	0.569271	0.000000 
		0.509335	0.500000	0.569271	0.000000 
		0.509335	0.500000	0.569271	0.000000 
		0.509335	0.500000	0.569271	0.000000 
		0.725562	0.469133	0.196039	0.000000 
		0.605428	0.544429	0.397993	0.000000 
		0.592250	0.549224	0.478089	0.000000 
		0.666455	0.473929	0.276134	0.000000 
		0.716406	0.467367	0.277984	0.000000 
		0.662392	0.470309	0.327123	0.000000 
		0.629116	0.504074	0.417685	0.000000 
		0.637201	0.501131	0.368546	0.000000 
		0.592250	0.549224	0.478089	0.000000 
		0.605428	0.544429	0.397993	0.000000 
		0.725562	0.469133	0.196039	0.000000 
		0.666455	0.473929	0.276134	0.000000 
		0.456091	0.500000	0.500000	0.000000 
		0.456091	0.500000	0.500000	0.000000 
		0.379672	0.500000	0.500000	0.000000 
		0.500000	0.500000	0.500000	0.000000 
		0.456091	0.500000	0.500000	0.000000 
		0.456091	0.500000	0.500000	0.000000 
		0.500000	0.473082	0.570036	0.000000 
		0.500000	0.500000	0.500000	0.000000 
		0.500000	0.500000	0.500000	0.000000 
		0.379672	0.500000	0.500000	0.000000 
		0.500000	0.500000	0.500000	0.000000 
		0.530156	0.508056	0.595428	0.000000 
		0.500000	0.500000	0.500000	0.000000 
		0.500000	0.500000	0.500000	0.000000 
		0.500000	0.500000	0.500000	0.000000 
		0.500000	0.500000	0.500000	0.000000 
		0.500000	0.500000	0.500000	0.000000 
		0.500000	0.500000	0.500000	0.000000 
		0.500000	0.500000	0.500000	0.000000 
		0.456091	0.500000	0.500000	0.000000 
		0.456091	0.500000	0.500000	0.000000 
		0.500000	0.583192	0.500000	0.000000 
		0.500000	0.564158	0.577834	0.000000 
		0.500000	0.583192	0.500000	0.000000 
		0.500000	0.500000	0.500000	0.000000 
		0.500000	0.500000	0.500000	0.000000 
		0.500000	0.500000	0.500000	0.000000 
		0.456091	0.500000	0.500000	0.000000 
		0.456091	0.500000	0.500000	0.000000 
		0.456091	0.500000	0.500000	0.000000 
		0.500000	0.500000	0.500000	0.000000 
		0.500000	0.500000	0.500000	0.000000 
		0.500000	0.564158	0.577834	0.000000 
		0.500000	0.500000	0.500000	0.000000 
		0.500000	0.564158	0.577834	0.000000 
		0.500000	0.564158	0.577834	0.000000 
		0.500000	0.500000	0.500000	0.000000 
		0.500000	0.500000	0.500000	0.000000 
		0.500000	0.500000	0.500000	0.000000 
		0.500000	0.500000	0.500000	0.000000 
		0.500000	0.500000	0.500000	0.000000 
		0.553284	0.604715	0.500000	0.000000 
		0.500000	0.500000	0.500000	0.000000 
		0.553284	0.604715	0.500000	0.000000 
		0.553284	0.604715	0.500000	0.000000 
		0.500000	0.500000	0.500000	0.000000 
		0.379672	0.500000	0.500000	0.000000 
		0.379672	0.500000	0.500000	0.000000 
		0.500000	0.500000	0.500000	0.000000 
		0.500000	0.500000	0.500000	0.000000 
		0.500000	0.500000	0.500000	0.000000 
		0.500000	0.588613	0.415377	0.000000 
		0.500000	0.500000	0.500000	0.000000 
		0.500000	0.569918	0.500000	0.000000 
		0.500000	0.569918	0.500000	0.000000 
		0.500000	0.500000	0.500000	0.000000 
		0.484023	0.666623	0.362289	0.000000 
		0.484023	0.666623	0.362289	0.000000 
		0.500000	0.500000	0.500000	0.000000 
		0.500000	0.500000	0.500000	0.000000 
		0.500000	0.500000	0.500000	0.000000 
		0.515977	0.525768	0.362289	0.000000 
		0.515977	0.525768	0.362289	0.000000 
		0.515977	0.525768	0.362289	0.000000 
		0.515977	0.525768	0.362289	0.000000 
		0.484023	0.666623	0.362289	0.000000 
		0.484023	0.666623	0.362289	0.000000 
		0.500000	0.500000	0.500000	0.000000 
		0.515977	0.525768	0.362289	0.000000 
		0.484023	0.666623	0.362289	0.000000 
		0.500000	0.500000	0.500000	0.000000 
		0.515977	0.525768	0.362289	0.000000 
		0.500000	0.500000	0.500000	0.000000 
		0.500000	0.500000	0.500000	0.000000 
		0.484023	0.666623	0.362289	0.000000 
		0.500000	0.500000	0.500000	0.000000 
		0.500000	0.500000	0.500000	0.000000 
		0.500000	0.500000	0.500000	0.000000 
		0.500000	0.500000	0.500000	0.000000 
		0.500000	0.500000	0.500000	0.000000 
		0.500000	0.500000	0.500000	0.000000 
		0.500000	0.500000	0.500000	0.000000 
		0.500000	0.500000	0.500000	0.000000 
		0.500000	0.500000	0.500000	0.000000 
		0.500000	0.500000	0.500000	0.000000 
		0.500000	0.500000	0.500000	0.000000 
		0.500000	0.500000	0.500000	0.000000 
		0.500000	0.500000	0.500000	0.000000 
		0.500000	0.500000	0.500000	0.000000 
		0.500000	0.500000	0.500000	0.000000 
		0.500000	0.500000	0.500000	0.000000 
		0.500000	0.500000	0.500000	0.000000 
		0.500000	0.500000	0.500000	0.000000 
		0.500000	0.500000	0.500000	0.000000 
		0.500000	0.500000	0.500000	0.000000 
		0.500000	0.500000	0.500000	0.000000 
		0.500000	0.500000	0.500000	0.000000 
		0.500000	0.500000	0.500000	0.000000 
		0.500000	0.500000	0.500000	0.000000 
		0.576296	0.588588	0.500000	0.000000 
		0.500000	0.500000	0.500000	0.000000 
		0.500000	0.500000	0.500000	0.000000 
		0.576296	0.588588	0.500000	0.000000 
		0.500000	0.500000	0.500000	0.000000 
		0.576296	0.588588	0.500000	0.000000 
		0.576296	0.588588	0.500000	0.000000 
		0.500000	0.500000	0.500000	0.000000 
		0.500000	0.500000	0.500000	0.000000 
		0.576296	0.588588	0.500000	0.000000 
		0.500000	0.500000	0.500000	0.000000 
		0.500000	0.500000	0.500000	0.000000 
		0.500000	0.500000	0.500000	0.000000 
		0.500000	0.500000	0.500000	0.000000 
		0.576296	0.588588	0.500000	0.000000 
		0.500000	0.500000	0.500000	0.000000 
		0.500000	0.525998	0.514094	0.000000 
		0.429737	0.625234	0.555651	0.000000 
		0.429737	0.632672	0.554885	0.000000 
		0.500000	0.547767	0.511852	0.000000 
		0.500000	0.525998	0.514094	0.000000 
		0.500000	0.547767	0.511852	0.000000 
		0.500000	0.575254	0.566008	0.000000 
		0.500000	0.567816	0.566774	0.000000 
		0.500000	0.567816	0.566774	0.000000 
		0.500000	0.575254	0.566008	0.000000 
		0.429737	0.632672	0.554885	0.000000 
		0.429737	0.625234	0.555651	0.000000 
		0.500000	0.525998	0.514094	0.000000 
		0.500000	0.567816	0.566774	0.000000 
		0.429737	0.625234	0.555651	0.000000 
		0.500000	0.525998	0.514094	0.000000 
		0.500000	0.575254	0.566008	0.000000 
		0.500000	0.547767	0.511852	0.000000 
		0.500000	0.547767	0.511852	0.000000 
		0.429737	0.632672	0.554885	0.000000 
		0.500000	0.500000	0.500000	0.000000 
	}

	Tex0 164 { 
		0.000000	0.421875 
		0.000000	0.494141 
		0.086914	0.494141 
		0.086914	0.421875 
		0.086914	0.496094 
		0.000000	0.496094 
		0.000000	0.423828 
		0.086914	0.423828 
		0.124023	0.396484 
		0.131836	0.386719 
		0.281250	0.391602 
		0.278320	0.402344 
		0.250000	0.991211 
		0.101563	0.989258 
		0.101563	0.964844 
		0.250000	0.964844 
		0.283203	0.207031 
		0.226563	0.082031 
		0.249023	0.029297 
		0.284180	0.029297 
		0.108398	0.383789 
		0.117188	0.375977 
		0.019531	0.205078 
		0.017578	0.067383 
		0.102539	0.051758 
		0.126953	0.089844 
		0.017578	0.058594 
		0.018555	0.001953 
		0.092773	0.000977 
		0.007813	0.205078 
		0.002930	0.095703 
		0.001953	0.067383 
		0.250000	0.979492 
		0.250000	0.962891 
		0.455078	0.954102 
		0.454102	0.969727 
		0.497070	0.741211 
		0.250000	0.741211 
		0.250000	0.611328 
		0.370117	0.611328 
		0.180664	0.102539 
		0.001953	0.058594 
		0.250000	0.578125 
		0.250000	0.565430 
		0.370117	0.578125 
		0.494141	0.568359 
		0.494141	0.578125 
		0.095703	0.962891 
		0.291016	0.387695 
		0.291992	0.207031 
		0.292969	0.029297 
		0.907227	0.069336 
		0.958008	0.069336 
		0.932617	0.091797 
		0.913086	0.090820 
		0.397461	0.964844 
		0.397461	0.989258 
		0.102539	0.058594 
		0.017578	0.069336 
		0.017578	0.060547 
		0.044922	0.954102 
		0.045898	0.969727 
		0.002930	0.741211 
		0.130859	0.611328 
		0.006836	0.611328 
		0.180664	0.094727 
		0.001953	0.061523 
		0.130859	0.579102 
		0.007813	0.569336 
		0.007813	0.580078 
		0.404297	0.962891 
		0.953125	0.090820 
		0.907227	0.047852 
		0.958008	0.047852 
		0.545898	0.093750 
		0.304688	0.089844 
		0.304688	0.035156 
		0.545898	0.039063 
		0.307617	0.071289 
		0.999023	0.076172 
		0.997070	0.489258 
		0.304688	0.483398 
		0.502930	0.976563 
		0.502930	0.614258 
		0.625000	0.614258 
		0.750000	0.976563 
		0.875000	0.614258 
		0.933594	0.320313 
		0.987305	0.320313 
		0.987305	0.103516 
		0.878906	0.103516 
		0.623047	0.034180 
		0.890625	0.518555 
		0.891602	0.591797 
		0.609375	0.591797 
		0.609375	0.518555 
		0.545898	0.005859 
		0.304688	0.001953 
		0.398438	0.145508 
		0.425781	0.145508 
		0.425781	0.095703 
		0.398438	0.095703 
		0.309570	0.493164 
		0.992188	0.499023 
		0.814453	0.977539 
		0.996094	0.977539 
		0.996094	0.612305 
		0.809570	0.617188 
		0.750000	0.992188 
		0.514648	0.985352 
		0.981445	0.097656 
		0.878906	0.088867 
		0.997070	0.614258 
		0.985352	0.985352 
		0.122070	0.254883 
		0.157227	0.416992 
		0.164063	0.449219 
		0.164063	0.478516 
		0.125977	0.478516 
		0.125977	0.449219 
		0.176758	0.431641 
		0.115234	0.431641 
		0.115234	0.497070 
		0.176758	0.497070 
		0.003906	0.001953 
		0.494141	0.503906 
		0.250000	0.503906 
		0.005859	0.503906 
		0.494141	0.611328 
		0.177734	0.024414 
		0.000000	0.501953 
		0.099609	0.815430 
		0.099609	0.189453 
		0.012695	0.055664 
		0.099609	0.015625 
		0.031250	0.037109 
		0.245117	0.836914 
		0.286133	0.983398 
		0.286133	0.021484 
		0.245117	0.167969 
		0.278320	0.000000 
		0.245117	0.001953 
		0.012695	0.949219 
		0.031250	0.967773 
		0.099609	0.988281 
		0.278320	1.000000 
		0.245117	0.998047 
		1.000000	0.784180 
		1.000000	0.215820 
		0.290039	0.215820 
		0.290039	0.784180 
		0.701172	0.372070 
		0.701172	0.252930 
		0.179688	0.026367 
		0.603516	0.252930 
		0.603516	0.372070 
		0.701172	0.374023 
		0.603516	0.374023 
		0.703125	0.252930 
		0.703125	0.372070 
		0.605469	0.252930 
		0.605469	0.372070 
		0.703125	0.374023 
		0.605469	0.374023 
	}

	Tex1 0 
	Adj 370 { 
		P 0 
		N 0 
		C0 0 
		T0 0 
		P 1 
		N 0 
		C0 1 
		T0 1 
		P 2 
		N 0 
		C0 2 
		T0 2 
		P 3 
		N 0 
		C0 3 
		T0 3 
		P 4 
		N 0 
		C0 4 
		T0 4 
		P 5 
		N 0 
		C0 5 
		T0 5 
		P 6 
		N 0 
		C0 6 
		T0 6 
		P 7 
		N 0 
		C0 7 
		T0 7 
		P 8 
		N 1 
		C0 8 
		T0 8 
		P 9 
		N 2 
		C0 9 
		T0 9 
		P 10 
		N 3 
		C0 10 
		T0 10 
		P 11 
		N 4 
		C0 11 
		T0 11 
		P 12 
		N 5 
		C0 12 
		T0 12 
		P 8 
		N 1 
		C0 13 
		T0 13 
		P 11 
		N 4 
		C0 14 
		T0 14 
		P 13 
		N 6 
		C0 15 
		T0 15 
		P 14 
		N 7 
		C0 16 
		T0 16 
		P 15 
		N 8 
		C0 17 
		T0 17 
		P 16 
		N 9 
		C0 18 
		T0 18 
		P 17 
		N 10 
		C0 19 
		T0 19 
		P 18 
		N 11 
		C0 20 
		T0 20 
		P 19 
		N 12 
		C0 21 
		T0 21 
		P 20 
		N 13 
		C0 22 
		T0 22 
		P 21 
		N 14 
		C0 23 
		T0 23 
		P 22 
		N 15 
		C0 24 
		T0 24 
		P 23 
		N 16 
		C0 25 
		T0 25 
		P 24 
		N 17 
		C0 26 
		T0 26 
		P 25 
		N 18 
		C0 27 
		T0 27 
		P 26 
		N 19 
		C0 28 
		T0 28 
		P 27 
		N 20 
		C0 29 
		T0 29 
		P 28 
		N 21 
		C0 30 
		T0 30 
		P 29 
		N 22 
		C0 31 
		T0 31 
		P 12 
		N 5 
		C0 32 
		T0 32 
		P 30 
		N 23 
		C0 33 
		T0 33 
		P 18 
		N 11 
		C0 34 
		T0 34 
		P 8 
		N 1 
		C0 35 
		T0 35 
		P 27 
		N 20 
		C0 36 
		T0 36 
		P 31 
		N 24 
		C0 37 
		T0 37 
		P 32 
		N 25 
		C0 38 
		T0 38 
		P 33 
		N 26 
		C0 39 
		T0 39 
		P 34 
		N 8 
		C0 40 
		T0 40 
		P 29 
		N 27 
		C0 41 
		T0 31 
		P 35 
		N 27 
		C0 42 
		T0 41 
		P 36 
		N 28 
		C0 43 
		T0 42 
		P 37 
		N 29 
		C0 44 
		T0 43 
		P 38 
		N 30 
		C0 45 
		T0 44 
		P 35 
		N 27 
		C0 46 
		T0 45 
		P 29 
		N 27 
		C0 47 
		T0 46 
		P 39 
		N 31 
		C0 48 
		T0 47 
		P 40 
		N 32 
		C0 49 
		T0 33 
		P 39 
		N 31 
		C0 50 
		T0 48 
		P 41 
		N 33 
		C0 51 
		T0 49 
		P 42 
		N 34 
		C0 52 
		T0 50 
		P 41 
		N 33 
		C0 53 
		T0 51 
		P 43 
		N 35 
		C0 54 
		T0 52 
		P 40 
		N 32 
		C0 55 
		T0 53 
		P 39 
		N 31 
		C0 56 
		T0 54 
		P 44 
		N 36 
		C0 57 
		T0 10 
		P 45 
		N 37 
		C0 58 
		T0 9 
		P 46 
		N 38 
		C0 59 
		T0 8 
		P 47 
		N 39 
		C0 60 
		T0 11 
		P 47 
		N 39 
		C0 61 
		T0 55 
		P 46 
		N 38 
		C0 62 
		T0 56 
		P 48 
		N 40 
		C0 63 
		T0 18 
		P 49 
		N 41 
		C0 64 
		T0 17 
		P 50 
		N 42 
		C0 65 
		T0 16 
		P 51 
		N 43 
		C0 66 
		T0 19 
		P 52 
		N 44 
		C0 67 
		T0 21 
		P 53 
		N 45 
		C0 68 
		T0 20 
		P 54 
		N 46 
		C0 69 
		T0 22 
		P 55 
		N 47 
		C0 70 
		T0 57 
		P 56 
		N 48 
		C0 71 
		T0 58 
		P 57 
		N 49 
		C0 72 
		T0 25 
		P 58 
		N 50 
		C0 73 
		T0 27 
		P 59 
		N 51 
		C0 74 
		T0 59 
		P 60 
		N 52 
		C0 75 
		T0 28 
		P 53 
		N 45 
		C0 76 
		T0 60 
		P 46 
		N 38 
		C0 77 
		T0 61 
		P 61 
		N 53 
		C0 78 
		T0 62 
		P 62 
		N 54 
		C0 79 
		T0 63 
		P 63 
		N 55 
		C0 80 
		T0 64 
		P 61 
		N 53 
		C0 81 
		T0 29 
		P 63 
		N 55 
		C0 82 
		T0 30 
		P 64 
		N 56 
		C0 83 
		T0 31 
		P 65 
		N 41 
		C0 84 
		T0 65 
		P 66 
		N 57 
		C0 85 
		T0 66 
		P 67 
		N 58 
		C0 86 
		T0 67 
		P 66 
		N 57 
		C0 87 
		T0 68 
		P 64 
		N 56 
		C0 88 
		T0 69 
		P 68 
		N 59 
		C0 89 
		T0 70 
		P 68 
		N 59 
		C0 90 
		T0 48 
		P 43 
		N 35 
		C0 91 
		T0 49 
		P 69 
		N 60 
		C0 92 
		T0 50 
		P 68 
		N 59 
		C0 93 
		T0 71 
		P 42 
		N 34 
		C0 94 
		T0 72 
		P 69 
		N 60 
		C0 95 
		T0 73 
		P 70 
		N 61 
		C0 96 
		T0 74 
		P 71 
		N 61 
		C0 97 
		T0 75 
		P 72 
		N 61 
		C0 98 
		T0 76 
		P 73 
		N 61 
		C0 99 
		T0 77 
		P 71 
		N 62 
		C0 100 
		T0 78 
		P 70 
		N 62 
		C0 101 
		T0 79 
		P 74 
		N 63 
		C0 102 
		T0 80 
		P 75 
		N 63 
		C0 103 
		T0 81 
		P 74 
		N 64 
		C0 104 
		T0 82 
		P 70 
		N 0 
		C0 105 
		T0 83 
		P 73 
		N 0 
		C0 106 
		T0 84 
		P 76 
		N 65 
		C0 107 
		T0 85 
		P 77 
		N 0 
		C0 108 
		T0 86 
		P 72 
		N 25 
		C0 109 
		T0 87 
		P 71 
		N 25 
		C0 110 
		T0 88 
		P 75 
		N 66 
		C0 111 
		T0 89 
		P 78 
		N 67 
		C0 112 
		T0 90 
		P 72 
		N 25 
		C0 113 
		T0 91 
		P 79 
		N 25 
		C0 114 
		T0 91 
		P 80 
		N 25 
		C0 115 
		T0 91 
		P 81 
		N 25 
		C0 116 
		T0 91 
		P 82 
		N 0 
		C0 117 
		T0 92 
		P 77 
		N 0 
		C0 118 
		T0 93 
		P 73 
		N 68 
		C0 119 
		T0 94 
		P 83 
		N 68 
		C0 120 
		T0 95 
		P 83 
		N 68 
		C0 121 
		T0 96 
		P 73 
		N 68 
		C0 122 
		T0 77 
		P 72 
		N 62 
		C0 123 
		T0 76 
		P 81 
		N 62 
		C0 124 
		T0 97 
		P 84 
		N 25 
		C0 125 
		T0 98 
		P 85 
		N 25 
		C0 126 
		T0 99 
		P 86 
		N 25 
		C0 127 
		T0 100 
		P 87 
		N 25 
		C0 128 
		T0 101 
		P 7 
		N 69 
		C0 129 
		T0 99 
		P 6 
		N 69 
		C0 130 
		T0 100 
		P 86 
		N 69 
		C0 131 
		T0 100 
		P 85 
		N 69 
		C0 132 
		T0 99 
		P 4 
		N 70 
		C0 133 
		T0 98 
		P 7 
		N 70 
		C0 134 
		T0 99 
		P 85 
		N 70 
		C0 135 
		T0 99 
		P 84 
		N 70 
		C0 136 
		T0 98 
		P 6 
		N 62 
		C0 137 
		T0 100 
		P 5 
		N 62 
		C0 138 
		T0 101 
		P 87 
		N 62 
		C0 139 
		T0 101 
		P 86 
		N 62 
		C0 140 
		T0 100 
		P 88 
		N 71 
		C0 141 
		T0 102 
		P 89 
		N 71 
		C0 142 
		T0 103 
		P 90 
		N 72 
		C0 143 
		T0 104 
		P 88 
		N 73 
		C0 144 
		T0 105 
		P 89 
		N 73 
		C0 145 
		T0 106 
		P 91 
		N 72 
		C0 146 
		T0 107 
		P 91 
		N 74 
		C0 147 
		T0 108 
		P 89 
		N 74 
		C0 148 
		T0 109 
		P 88 
		N 75 
		C0 149 
		T0 110 
		P 90 
		N 75 
		C0 150 
		T0 111 
		P 79 
		N 61 
		C0 151 
		T0 76 
		P 92 
		N 61 
		C0 152 
		T0 75 
		P 93 
		N 61 
		C0 153 
		T0 74 
		P 77 
		N 61 
		C0 154 
		T0 77 
		P 94 
		N 76 
		C0 155 
		T0 80 
		P 93 
		N 70 
		C0 156 
		T0 79 
		P 92 
		N 70 
		C0 157 
		T0 78 
		P 95 
		N 76 
		C0 158 
		T0 81 
		P 93 
		N 0 
		C0 159 
		T0 112 
		P 94 
		N 64 
		C0 160 
		T0 105 
		P 95 
		N 66 
		C0 161 
		T0 89 
		P 92 
		N 25 
		C0 162 
		T0 88 
		P 79 
		N 25 
		C0 163 
		T0 87 
		P 79 
		N 70 
		C0 164 
		T0 76 
		P 77 
		N 70 
		C0 165 
		T0 77 
		P 82 
		N 70 
		C0 166 
		T0 96 
		P 80 
		N 70 
		C0 167 
		T0 97 
		P 96 
		N 77 
		C0 168 
		T0 102 
		P 97 
		N 77 
		C0 169 
		T0 103 
		P 97 
		N 78 
		C0 170 
		T0 106 
		P 96 
		N 78 
		C0 171 
		T0 105 
		P 97 
		N 74 
		C0 172 
		T0 113 
		P 96 
		N 75 
		C0 173 
		T0 110 
		P 98 
		N 25 
		C0 174 
		T0 100 
		P 99 
		N 25 
		C0 175 
		T0 99 
		P 100 
		N 25 
		C0 176 
		T0 98 
		P 101 
		N 25 
		C0 177 
		T0 101 
		P 98 
		N 69 
		C0 178 
		T0 100 
		P 0 
		N 69 
		C0 179 
		T0 100 
		P 3 
		N 69 
		C0 180 
		T0 99 
		P 99 
		N 69 
		C0 181 
		T0 99 
		P 99 
		N 62 
		C0 182 
		T0 99 
		P 3 
		N 62 
		C0 183 
		T0 99 
		P 2 
		N 62 
		C0 184 
		T0 98 
		P 100 
		N 62 
		C0 185 
		T0 98 
		P 101 
		N 70 
		C0 186 
		T0 101 
		P 1 
		N 70 
		C0 187 
		T0 101 
		P 0 
		N 70 
		C0 188 
		T0 100 
		P 98 
		N 70 
		C0 189 
		T0 100 
		P 102 
		N 79 
		C0 190 
		T0 114 
		P 103 
		N 80 
		C0 191 
		T0 114 
		P 104 
		N 81 
		C0 192 
		T0 114 
		P 105 
		N 82 
		C0 193 
		T0 114 
		P 106 
		N 83 
		C0 194 
		T0 114 
		P 107 
		N 84 
		C0 195 
		T0 114 
		P 108 
		N 85 
		C0 196 
		T0 114 
		P 109 
		N 86 
		C0 197 
		T0 114 
		P 110 
		N 87 
		C0 198 
		T0 114 
		P 111 
		N 88 
		C0 199 
		T0 114 
		P 112 
		N 89 
		C0 200 
		T0 115 
		P 113 
		N 89 
		C0 201 
		T0 115 
		P 114 
		N 89 
		C0 202 
		T0 115 
		P 115 
		N 89 
		C0 203 
		T0 115 
		P 116 
		N 90 
		C0 204 
		T0 116 
		P 117 
		N 91 
		C0 205 
		T0 117 
		P 118 
		N 92 
		C0 206 
		T0 118 
		P 119 
		N 93 
		C0 207 
		T0 119 
		P 112 
		N 94 
		C0 208 
		T0 120 
		P 113 
		N 95 
		C0 209 
		T0 121 
		P 114 
		N 96 
		C0 210 
		T0 122 
		P 115 
		N 97 
		C0 211 
		T0 123 
		P 120 
		N 98 
		C0 212 
		T0 114 
		P 121 
		N 99 
		C0 213 
		T0 114 
		P 122 
		N 100 
		C0 214 
		T0 114 
		P 123 
		N 101 
		C0 215 
		T0 114 
		P 124 
		N 102 
		C0 216 
		T0 114 
		P 125 
		N 103 
		C0 217 
		T0 114 
		P 126 
		N 104 
		C0 218 
		T0 114 
		P 127 
		N 105 
		C0 219 
		T0 114 
		P 128 
		N 106 
		C0 220 
		T0 114 
		P 129 
		N 107 
		C0 221 
		T0 114 
		P 130 
		N 108 
		C0 222 
		T0 115 
		P 131 
		N 108 
		C0 223 
		T0 115 
		P 132 
		N 108 
		C0 224 
		T0 115 
		P 133 
		N 108 
		C0 225 
		T0 115 
		P 134 
		N 109 
		C0 226 
		T0 118 
		P 135 
		N 110 
		C0 227 
		T0 117 
		P 136 
		N 111 
		C0 228 
		T0 116 
		P 137 
		N 112 
		C0 229 
		T0 119 
		P 132 
		N 113 
		C0 230 
		T0 120 
		P 131 
		N 114 
		C0 231 
		T0 121 
		P 130 
		N 115 
		C0 232 
		T0 122 
		P 133 
		N 116 
		C0 233 
		T0 123 
		P 35 
		N 117 
		C0 234 
		T0 41 
		P 138 
		N 117 
		C0 235 
		T0 124 
		P 139 
		N 118 
		C0 236 
		T0 124 
		P 66 
		N 118 
		C0 237 
		T0 66 
		P 138 
		N 117 
		C0 238 
		T0 125 
		P 35 
		N 117 
		C0 239 
		T0 45 
		P 37 
		N 119 
		C0 240 
		T0 43 
		P 140 
		N 119 
		C0 241 
		T0 126 
		P 66 
		N 118 
		C0 242 
		T0 68 
		P 139 
		N 118 
		C0 243 
		T0 127 
		P 67 
		N 54 
		C0 244 
		T0 67 
		P 36 
		N 25 
		C0 245 
		T0 42 
		P 28 
		N 21 
		C0 246 
		T0 128 
		P 38 
		N 26 
		C0 247 
		T0 44 
		P 141 
		N 120 
		C0 248 
		T0 129 
		P 142 
		N 121 
		C0 249 
		T0 129 
		P 143 
		N 122 
		C0 250 
		T0 129 
		P 144 
		N 123 
		C0 251 
		T0 129 
		P 23 
		N 124 
		C0 252 
		T0 129 
		P 22 
		N 125 
		C0 253 
		T0 129 
		P 26 
		N 126 
		C0 254 
		T0 129 
		P 34 
		N 127 
		C0 255 
		T0 129 
		P 16 
		N 128 
		C0 256 
		T0 129 
		P 15 
		N 129 
		C0 257 
		T0 129 
		P 140 
		N 61 
		C0 258 
		T0 130 
		P 145 
		N 130 
		C0 259 
		T0 131 
		P 141 
		N 131 
		C0 260 
		T0 132 
		P 138 
		N 132 
		C0 261 
		T0 133 
		P 26 
		N 132 
		C0 262 
		T0 134 
		P 25 
		N 132 
		C0 263 
		T0 135 
		P 146 
		N 131 
		C0 264 
		T0 136 
		P 69 
		N 61 
		C0 265 
		T0 137 
		P 42 
		N 61 
		C0 266 
		T0 138 
		P 142 
		N 131 
		C0 267 
		T0 139 
		P 17 
		N 61 
		C0 268 
		T0 140 
		P 16 
		N 61 
		C0 269 
		T0 141 
		P 147 
		N 133 
		C0 270 
		T0 129 
		P 146 
		N 134 
		C0 271 
		T0 129 
		P 145 
		N 135 
		C0 272 
		T0 129 
		P 148 
		N 136 
		C0 273 
		T0 129 
		P 55 
		N 137 
		C0 274 
		T0 129 
		P 57 
		N 138 
		C0 275 
		T0 129 
		P 60 
		N 139 
		C0 276 
		T0 129 
		P 65 
		N 140 
		C0 277 
		T0 129 
		P 49 
		N 141 
		C0 278 
		T0 129 
		P 48 
		N 142 
		C0 279 
		T0 129 
		P 139 
		N 61 
		C0 280 
		T0 142 
		P 58 
		N 132 
		C0 281 
		T0 143 
		P 60 
		N 132 
		C0 282 
		T0 144 
		P 51 
		N 61 
		C0 283 
		T0 145 
		P 48 
		N 61 
		C0 284 
		T0 146 
		P 82 
		N 61 
		C0 285 
		T0 147 
		P 83 
		N 61 
		C0 286 
		T0 148 
		P 81 
		N 61 
		C0 287 
		T0 149 
		P 80 
		N 61 
		C0 288 
		T0 150 
		P 149 
		N 70 
		C0 289 
		T0 151 
		P 150 
		N 70 
		C0 290 
		T0 152 
		P 151 
		N 70 
		C0 291 
		T0 152 
		P 152 
		N 70 
		C0 292 
		T0 151 
		P 153 
		N 62 
		C0 293 
		T0 153 
		P 154 
		N 62 
		C0 294 
		T0 153 
		P 155 
		N 62 
		C0 295 
		T0 153 
		P 156 
		N 62 
		C0 296 
		T0 153 
		P 156 
		N 61 
		C0 297 
		T0 154 
		P 155 
		N 61 
		C0 298 
		T0 154 
		P 151 
		N 61 
		C0 299 
		T0 152 
		P 150 
		N 61 
		C0 300 
		T0 152 
		P 153 
		N 143 
		C0 301 
		T0 155 
		P 156 
		N 143 
		C0 302 
		T0 154 
		P 150 
		N 143 
		C0 303 
		T0 152 
		P 149 
		N 143 
		C0 304 
		T0 151 
		P 155 
		N 144 
		C0 305 
		T0 154 
		P 154 
		N 144 
		C0 306 
		T0 155 
		P 152 
		N 144 
		C0 307 
		T0 151 
		P 151 
		N 144 
		C0 308 
		T0 152 
		P 157 
		N 70 
		C0 309 
		T0 152 
		P 158 
		N 70 
		C0 310 
		T0 152 
		P 159 
		N 70 
		C0 311 
		T0 156 
		P 160 
		N 70 
		C0 312 
		T0 156 
		P 161 
		N 62 
		C0 313 
		T0 153 
		P 162 
		N 62 
		C0 314 
		T0 153 
		P 163 
		N 62 
		C0 315 
		T0 153 
		P 164 
		N 62 
		C0 316 
		T0 153 
		P 163 
		N 61 
		C0 317 
		T0 154 
		P 162 
		N 61 
		C0 318 
		T0 154 
		P 158 
		N 61 
		C0 319 
		T0 152 
		P 157 
		N 61 
		C0 320 
		T0 152 
		P 162 
		N 145 
		C0 321 
		T0 154 
		P 161 
		N 145 
		C0 322 
		T0 157 
		P 159 
		N 145 
		C0 323 
		T0 156 
		P 158 
		N 145 
		C0 324 
		T0 152 
		P 164 
		N 146 
		C0 325 
		T0 157 
		P 163 
		N 146 
		C0 326 
		T0 154 
		P 157 
		N 146 
		C0 327 
		T0 152 
		P 160 
		N 146 
		C0 328 
		T0 156 
		P 165 
		N 62 
		C0 329 
		T0 158 
		P 166 
		N 62 
		C0 330 
		T0 158 
		P 167 
		N 62 
		C0 331 
		T0 159 
		P 168 
		N 62 
		C0 332 
		T0 159 
		P 169 
		N 70 
		C0 333 
		T0 153 
		P 170 
		N 70 
		C0 334 
		T0 153 
		P 171 
		N 70 
		C0 335 
		T0 153 
		P 172 
		N 70 
		C0 336 
		T0 153 
		P 165 
		N 61 
		C0 337 
		T0 158 
		P 169 
		N 61 
		C0 338 
		T0 160 
		P 172 
		N 61 
		C0 339 
		T0 160 
		P 166 
		N 61 
		C0 340 
		T0 158 
		P 166 
		N 143 
		C0 341 
		T0 158 
		P 172 
		N 143 
		C0 342 
		T0 160 
		P 171 
		N 143 
		C0 343 
		T0 161 
		P 167 
		N 143 
		C0 344 
		T0 159 
		P 168 
		N 144 
		C0 345 
		T0 159 
		P 170 
		N 144 
		C0 346 
		T0 161 
		P 169 
		N 144 
		C0 347 
		T0 160 
		P 165 
		N 144 
		C0 348 
		T0 158 
		P 173 
		N 62 
		C0 349 
		T0 162 
		P 174 
		N 62 
		C0 350 
		T0 158 
		P 175 
		N 62 
		C0 351 
		T0 158 
		P 176 
		N 62 
		C0 352 
		T0 162 
		P 177 
		N 70 
		C0 353 
		T0 153 
		P 178 
		N 70 
		C0 354 
		T0 153 
		P 179 
		N 70 
		C0 355 
		T0 153 
		P 180 
		N 70 
		C0 356 
		T0 153 
		P 180 
		N 61 
		C0 357 
		T0 160 
		P 179 
		N 61 
		C0 358 
		T0 160 
		P 175 
		N 61 
		C0 359 
		T0 158 
		P 174 
		N 61 
		C0 360 
		T0 158 
		P 177 
		N 145 
		C0 361 
		T0 163 
		P 180 
		N 145 
		C0 362 
		T0 160 
		P 174 
		N 145 
		C0 363 
		T0 158 
		P 173 
		N 145 
		C0 364 
		T0 162 
		P 179 
		N 146 
		C0 365 
		T0 160 
		P 178 
		N 146 
		C0 366 
		T0 163 
		P 176 
		N 146 
		C0 367 
		T0 162 
		P 175 
		N 146 
		C0 368 
		T0 158 
		P 29 
		N 22 
		C0 369 
		T0 46 
	}

	Mtl 3 { 
		{
			Name "#2" 
			Priority 32 
			Prim 43 { 
				{
					Type TRISTRIP
					Priority 32 
					Idx 4 { 3 0 2 1 }
				}
				{
					Type TRISTRIP
					Priority 32 
					Idx 4 { 6 7 5 4 }
				}
				{
					Type TRISTRIP
					Priority 32 
					Idx 4 { 97 98 96 99 }
				}
				{
					Type TRISTRIP
					Priority 32 
					Idx 6 { 100 101 103 102 141 142 }
				}
				{
					Type TRISTRIP
					Priority 32 
					Idx 4 { 116 113 115 114 }
				}
				{
					Type TRISTRIP
					Priority 32 
					Idx 4 { 120 117 119 118 }
				}
				{
					Type TRISTRIP
					Priority 32 
					Idx 4 { 124 121 123 122 }
				}
				{
					Type TRISTRIP
					Priority 32 
					Idx 4 { 127 128 126 125 }
				}
				{
					Type TRISTRIP
					Priority 32 
					Idx 4 { 131 132 130 129 }
				}
				{
					Type TRISTRIP
					Priority 32 
					Idx 4 { 135 136 134 133 }
				}
				{
					Type TRISTRIP
					Priority 32 
					Idx 4 { 140 137 139 138 }
				}
				{
					Type TRISTRIP
					Priority 32 
					Idx 6 { 144 145 143 146 171 170 }
				}
				{
					Type TRISTRIP
					Priority 32 
					Idx 4 { 151 152 154 153 }
				}
				{
					Type TRISTRIP
					Priority 32 
					Idx 4 { 167 164 166 165 }
				}
				{
					Type TRISTRIP
					Priority 32 
					Idx 4 { 175 176 174 177 }
				}
				{
					Type TRISTRIP
					Priority 32 
					Idx 4 { 181 178 180 179 }
				}
				{
					Type TRISTRIP
					Priority 32 
					Idx 4 { 182 183 185 184 }
				}
				{
					Type TRISTRIP
					Priority 32 
					Idx 4 { 189 186 188 187 }
				}
				{
					Type TRISTRIP
					Priority 32 
					Idx 4 { 200 201 203 202 }
				}
				{
					Type TRISTRIP
					Priority 32 
					Idx 4 { 223 224 222 225 }
				}
				{
					Type TRISTRIP
					Priority 32 
					Idx 6 { 238 239 241 240 243 242 }
				}
				{
					Type TRISTRIP
					Priority 32 
					Idx 9 { 173 161 150 112 149 112 111 109 110 }
				}
				{
					Type TRISTRIP2
					Priority 32 
					Idx 6 { 157 156 158 155 168 169 }
				}
				{
					Type TRISTRIP2
					Priority 32 
					Idx 5 { 109 163 112 162 161 }
				}
				{
					Type TRISTRIP
					Priority 32 
					Idx 9 { 80 79 78 37 78 33 76 32 77 }
				}
				{
					Type TRISTRIP2
					Priority 32 
					Idx 10 { 246 39 36 38 36 37 34 33 35 32 }
				}
				{
					Type TRISTRIP2
					Priority 32 
					Idx 21 { 85 74 83 71 82 71 81 69 68 67 59 58 60 57 90 57 91 65 91 66 92 }
				}
				{
					Type TRISTRIP
					Priority 32 
					Idx 18 { 66 63 65 64 65 84 69 72 69 70 71 70 74 75 74 73 237 236 }
				}
				{
					Type TRISTRIP
					Priority 32 
					Idx 8 { 93 55 54 56 54 53 95 94 }
				}
				{
					Type TRISTRIP
					Priority 32 
					Idx 11 { 41 42 23 26 24 26 28 26 27 234 235 }
				}
				{
					Type TRISTRIP2
					Priority 32 
					Idx 13 { 48 14 49 15 89 15 61 15 62 15 12 14 13 }
				}
				{
					Type TRISTRIP
					Priority 32 
					Idx 38 { 31 23 30 23 22 24 22 25 22 40 16 17 16 18 16 19 16 52 16 51 10 50 10 11 10 8 9 20 9 21 10 21 16 21 22 21 29 20 }
				}
				{
					Type TRISTRIP
					Priority 32 
					Idx 8 { 37 79 38 244 38 245 39 247 }
				}
				{
					Type TRISTRIP
					Priority 32 
					Idx 5 { 58 57 67 65 69 }
				}
				{
					Type TRISTRIP2
					Priority 32 
					Idx 3 { 22 30 29 }
				}
				{
					Type TRISTRIP
					Priority 32 
					Idx 10 { 88 87 86 44 43 44 45 44 47 46 }
				}
				{
					Type TRISTRIP
					Priority 32 
					Idx 14 { 232 229 231 229 230 228 233 227 232 226 229 226 228 227 }
				}
				{
					Type TRISTRIP
					Priority 32 
					Idx 14 { 211 204 208 204 209 207 210 206 211 205 204 205 207 206 }
				}
				{
					Type TRISTRIP
					Priority 32 
					Idx 16 { 193 191 190 192 193 197 191 195 192 196 197 199 195 198 196 199 }
				}
				{
					Type TRISTRIP
					Priority 32 
					Idx 4 { 190 193 194 190 }
				}
				{
					Type TRISTRIP
					Priority 32 
					Idx 9 { 218 212 217 219 221 218 220 217 221 }
				}
				{
					Type TRISTRIP2
					Priority 32 
					Idx 12 { 212 219 215 218 213 212 213 214 215 216 212 214 }
				}
				{
					Type TRISTRIP2
					Priority 32 
					Idx 15 { 105 104 106 107 108 107 159 107 160 107 172 107 147 104 148 }
				}
			}

		}
		{
			Name "#3" 
			Priority 32 
			Prim 26 { 
				{
					Type TRISTRIP
					Priority 32 
					Idx 4 { 287 288 286 285 }
				}
				{
					Type TRISTRIP
					Priority 32 
					Idx 4 { 291 292 290 289 }
				}
				{
					Type TRISTRIP
					Priority 32 
					Idx 4 { 295 296 294 293 }
				}
				{
					Type TRISTRIP
					Priority 32 
					Idx 4 { 298 299 297 300 }
				}
				{
					Type TRISTRIP
					Priority 32 
					Idx 4 { 302 303 301 304 }
				}
				{
					Type TRISTRIP
					Priority 32 
					Idx 4 { 305 306 308 307 }
				}
				{
					Type TRISTRIP
					Priority 32 
					Idx 4 { 311 312 310 309 }
				}
				{
					Type TRISTRIP
					Priority 32 
					Idx 4 { 313 314 316 315 }
				}
				{
					Type TRISTRIP
					Priority 32 
					Idx 4 { 318 319 317 320 }
				}
				{
					Type TRISTRIP
					Priority 32 
					Idx 4 { 322 323 321 324 }
				}
				{
					Type TRISTRIP
					Priority 32 
					Idx 4 { 325 326 328 327 }
				}
				{
					Type TRISTRIP
					Priority 32 
					Idx 4 { 329 330 332 331 }
				}
				{
					Type TRISTRIP
					Priority 32 
					Idx 4 { 333 334 336 335 }
				}
				{
					Type TRISTRIP
					Priority 32 
					Idx 4 { 337 338 340 339 }
				}
				{
					Type TRISTRIP
					Priority 32 
					Idx 4 { 341 342 344 343 }
				}
				{
					Type TRISTRIP
					Priority 32 
					Idx 4 { 348 345 347 346 }
				}
				{
					Type TRISTRIP
					Priority 32 
					Idx 4 { 349 350 352 351 }
				}
				{
					Type TRISTRIP
					Priority 32 
					Idx 4 { 353 354 356 355 }
				}
				{
					Type TRISTRIP
					Priority 32 
					Idx 4 { 360 357 359 358 }
				}
				{
					Type TRISTRIP
					Priority 32 
					Idx 4 { 364 361 363 362 }
				}
				{
					Type TRISTRIP
					Priority 32 
					Idx 4 { 367 368 366 365 }
				}
				{
					Type TRISTRIP
					Priority 32 
					Idx 9 { 283 265 284 265 264 266 267 268 269 }
				}
				{
					Type TRISTRIP2
					Priority 32 
					Idx 14 { 254 253 248 251 249 250 256 250 257 250 255 251 252 253 }
				}
				{
					Type TRISTRIP2
					Priority 32 
					Idx 11 { 282 281 259 280 259 258 260 261 260 263 262 }
				}
				{
					Type TRISTRIP
					Priority 32 
					Idx 4 { 260 259 267 264 }
				}
				{
					Type TRISTRIP
					Priority 32 
					Idx 16 { 279 271 278 270 277 270 275 273 274 273 276 273 272 273 271 270 }
				}
			}

		}
		{
			Name "#4" 
			Priority 32 
			Prim 2 { 
				{
					Type TRISTRIP
					Priority 32 
					Idx 4 { 369 246 247 39 }
				}
				{
					Type TRISTRIP
					Priority 32 
					Idx 4 { 244 79 88 80 }
				}
			}

		}
	}

	Offset 0 
}
