{
	Skinned 0 
	PosSkin 0 
	Pos 216 { 
		-0.682084	0.922150	2.669648 
		-0.732722	0.922150	2.667532 
		-0.732722	0.752427	2.671232 
		-0.682084	0.752427	2.673337 
		-0.739138	0.369994	-1.038495 
		-0.739138	0.401570	1.068746 
		-0.768008	0.579534	1.073744 
		-0.767950	0.551103	-1.092579 
		0.000000	0.580790	2.809437 
		0.000000	0.708021	2.837215 
		-0.732722	0.707603	2.806667 
		-0.720849	0.580373	2.778879 
		-0.785035	0.708443	2.754116 
		-0.732722	0.707036	2.672213 
		-0.787594	0.706214	2.620674 
		0.000000	0.707453	2.702761 
		0.000000	1.124148	2.693706 
		0.000000	1.180618	2.671345 
		-0.732722	1.180198	2.640797 
		-0.732722	1.123728	2.663158 
		0.000000	1.140488	0.674699 
		-0.724367	1.140168	0.651573 
		0.000000	1.428218	0.650874 
		-0.643536	1.427908	0.627749 
		0.000000	1.671848	0.565018 
		-0.570452	1.653618	0.542147 
		0.000000	1.644058	-0.394290 
		-0.563692	1.626638	-0.358190 
		0.000000	1.584818	-0.606566 
		-0.577984	1.567638	-0.553341 
		0.000000	1.384638	-0.860099 
		-0.634987	1.374698	-0.783987 
		0.000000	1.129128	-1.133654 
		-0.695112	1.097468	-1.063043 
		0.000000	1.067118	-1.714875 
		-0.678046	1.029168	-1.690122 
		0.000000	0.985738	-2.131207 
		-0.651352	0.953656	-2.049795 
		0.000000	0.829420	-2.222114 
		-0.652400	0.830336	-2.155020 
		0.000000	0.650995	-2.250710 
		-0.652825	0.651912	-2.183615 
		0.000000	0.612917	-2.303557 
		-0.653118	0.613792	-2.239498 
		0.000000	0.352308	-2.254788 
		-0.651485	0.352799	-2.218813 
		-0.784183	0.679901	2.141366 
		-0.766286	0.483393	2.164800 
		-0.786880	0.752427	2.620020 
		-0.766286	0.573327	2.724253 
		-0.705206	0.612321	-2.187693 
		-0.704884	0.350092	-2.167723 
		-0.756373	0.340781	-2.038563 
		-0.785269	0.657169	-1.948995 
		-0.804180	0.546882	-1.201637 
		-0.765448	0.701894	-1.150956 
		-0.809027	0.712477	-1.292585 
		-0.778830	0.738319	1.132999 
		-0.683688	1.361938	-0.732818 
		-0.755953	1.073158	-1.002467 
		-0.766447	1.114968	0.609625 
		-0.680802	1.420988	0.585331 
		-0.609839	1.588288	-0.355119 
		-0.625752	1.531148	-0.533604 
		-0.609493	1.614838	0.510479 
		-0.724618	0.655343	-2.066474 
		-0.710806	0.653043	-2.128816 
		-0.808783	0.802186	-1.708580 
		-0.739062	0.884916	-1.738994 
		-0.733129	0.791343	-1.948371 
		-0.795702	0.737188	-1.870056 
		-0.705473	0.828764	-2.096602 
		-0.705429	0.925004	-2.014597 
		-0.757838	0.825624	-1.269487 
		-0.746195	0.894944	-1.476535 
		-0.814660	0.799334	-1.487981 
		-0.729752	0.991718	-1.677388 
		-0.775398	0.839056	1.218480 
		-0.784257	0.922150	2.617598 
		-0.781423	1.105478	2.614991 
		-0.780529	1.148768	2.586621 
		-0.775342	0.932597	1.425864 
		-0.777898	0.953715	1.787130 
		-0.780599	0.863391	2.012952 
		-0.779347	0.367271	-1.159633 
		-0.790413	0.403242	1.156935 
		-0.813125	0.575156	1.180880 
		-0.830081	0.745418	1.256201 
		-0.845022	0.843718	1.462288 
		-0.845022	0.854026	1.757646 
		-0.836426	0.784816	1.926766 
		-0.830081	0.657966	2.029263 
		-0.807668	0.473824	2.083368 
		-0.762610	1.246248	-0.764667 
		-0.726901	1.176048	-0.775268 
		-0.725477	1.181798	-0.864898 
		-0.943206	1.231338	-0.788890 
		-0.942443	1.249988	-0.728050 
		-0.953352	1.112678	-0.727301 
		-0.947968	1.115878	-0.787768 
		-0.751967	1.084028	-0.859963 
		-0.752557	1.089618	-0.761261 
		0.682085	0.922150	2.669648 
		0.682085	0.752427	2.673337 
		0.732722	0.752427	2.671232 
		0.732722	0.922150	2.667532 
		0.739138	0.369994	-1.038495 
		0.767950	0.551103	-1.092579 
		0.768008	0.579534	1.073744 
		0.739138	0.401570	1.068746 
		0.720849	0.580373	2.778879 
		0.732722	0.707603	2.806667 
		0.785036	0.708443	2.754116 
		0.787594	0.706214	2.620674 
		0.732722	0.707036	2.672213 
		0.732722	1.123728	2.663158 
		0.732722	1.180198	2.640797 
		0.724367	1.140168	0.651573 
		0.643536	1.427908	0.627749 
		0.570452	1.653618	0.542147 
		0.563692	1.626638	-0.358190 
		0.577984	1.567638	-0.553341 
		0.634987	1.374698	-0.783987 
		0.695112	1.097468	-1.063043 
		0.678046	1.029168	-1.690122 
		0.651353	0.953656	-2.049795 
		0.652400	0.830336	-2.155020 
		0.652825	0.651912	-2.183615 
		0.653118	0.613792	-2.239498 
		0.651486	0.352799	-2.218813 
		0.784184	0.679901	2.141366 
		0.786880	0.752427	2.620020 
		0.766287	0.483393	2.164800 
		0.766287	0.573327	2.724253 
		0.705206	0.612321	-2.187693 
		0.785269	0.657169	-1.948995 
		0.756373	0.340781	-2.038563 
		0.704884	0.350092	-2.167723 
		0.804181	0.546882	-1.201637 
		0.809027	0.712477	-1.292585 
		0.765448	0.701894	-1.150956 
		0.778831	0.738319	1.132999 
		0.683688	1.361938	-0.732818 
		0.680802	1.420988	0.585331 
		0.766448	1.114968	0.609625 
		0.755953	1.073158	-1.002467 
		0.609839	1.588288	-0.355119 
		0.625753	1.531148	-0.533604 
		0.609493	1.614838	0.510479 
		0.724618	0.655343	-2.066474 
		0.710807	0.653043	-2.128816 
		0.808783	0.802186	-1.708579 
		0.795702	0.737188	-1.870056 
		0.733130	0.791343	-1.948371 
		0.739062	0.884916	-1.738994 
		0.705473	0.828764	-2.096602 
		0.705429	0.925004	-2.014597 
		0.757839	0.825624	-1.269487 
		0.814661	0.799334	-1.487981 
		0.746195	0.894944	-1.476534 
		0.729753	0.991718	-1.677388 
		0.775398	0.839056	1.218480 
		0.784257	0.922150	2.617598 
		0.780529	1.148768	2.586621 
		0.781424	1.105478	2.614992 
		0.775342	0.932597	1.425864 
		0.777898	0.953715	1.787130 
		0.780599	0.863391	2.012952 
		0.779348	0.367271	-1.159633 
		0.790413	0.403242	1.156935 
		0.813125	0.575156	1.180880 
		0.830081	0.745418	1.256201 
		0.845022	0.843718	1.462288 
		0.845022	0.854026	1.757646 
		0.836426	0.784816	1.926766 
		0.830081	0.657966	2.029263 
		0.807668	0.473824	2.083368 
		0.762610	1.246248	-0.764667 
		0.725477	1.181798	-0.864898 
		0.726901	1.176048	-0.775268 
		0.942444	1.249988	-0.728050 
		0.943206	1.231338	-0.788890 
		0.953353	1.112678	-0.727301 
		0.947968	1.115878	-0.787768 
		0.751967	1.084028	-0.859963 
		0.752557	1.089618	-0.761261 
		-0.652042	0.830284	-2.167243 
		-0.652042	0.909901	-2.094209 
		-0.446906	0.909901	-2.124746 
		-0.404411	0.829987	-2.188950 
		-0.652042	0.752175	-2.183064 
		-0.383267	0.752175	-2.204710 
		0.652042	0.830284	-2.167243 
		0.404411	0.829987	-2.188950 
		0.446906	0.909901	-2.124746 
		0.652042	0.909901	-2.094209 
		0.652042	0.752175	-2.183063 
		0.383267	0.752175	-2.204709 
		-0.389403	0.367276	-1.159224 
		-0.389403	0.403248	1.157343 
		-0.361169	0.473830	2.083776 
		-0.389403	0.806970	-1.907563 
		-0.389403	0.808544	-1.299463 
		-0.389403	0.835303	1.219082 
		-0.361169	0.859849	1.965050 
		-0.389403	0.340787	-2.038154 
		-0.004677	0.385262	-0.000940 
		0.389403	0.367276	-1.159224 
		0.389403	0.403248	1.157343 
		0.361169	0.473830	2.083776 
		0.389403	0.806970	-1.907563 
		0.389403	0.808544	-1.299463 
		0.389403	0.835303	1.219082 
		0.361169	0.859849	1.965050 
		0.389403	0.340787	-2.038154 
		0.004678	0.385262	-0.000940 
	}

	Nrm 239 { 
		-0.046875	0.015625	1.000000 
		-0.390625	0.015625	0.921875 
		-0.984375	-0.156250	0.000000 
		-1.000000	-0.093750	0.000000 
		0.000000	-0.218750	0.984375 
		-0.406250	-0.234375	0.875000 
		0.015625	1.000000	-0.015625 
		0.000000	1.000000	0.000000 
		0.000000	0.140625	0.984375 
		0.000000	0.828125	0.546875 
		-0.406250	0.781250	0.453125 
		-0.421875	0.187500	0.890625 
		0.000000	1.000000	-0.015625 
		-0.437500	0.734375	0.515625 
		0.000000	0.093750	1.000000 
		0.000000	0.218750	0.968750 
		-0.437500	0.312500	0.843750 
		0.000000	0.828125	0.562500 
		-0.453125	0.781250	0.421875 
		0.000000	0.984375	-0.156250 
		-0.375000	0.921875	-0.140625 
		0.000000	0.890625	-0.453125 
		-0.375000	0.843750	-0.390625 
		0.000000	0.750000	-0.656250 
		-0.390625	0.734375	-0.562500 
		0.000000	0.906250	-0.421875 
		-0.375000	0.859375	-0.375000 
		-0.328125	0.937500	-0.156250 
		0.000000	0.843750	-0.546875 
		-0.390625	0.781250	-0.500000 
		0.000000	0.375000	-0.921875 
		-0.421875	0.359375	-0.828125 
		0.000000	0.156250	-0.984375 
		-0.421875	0.156250	-0.890625 
		0.000000	0.812500	-0.578125 
		-0.281250	0.781250	-0.562500 
		0.000000	-0.125000	-0.984375 
		-0.406250	-0.093750	-0.906250 
		-1.000000	-0.015625	0.000000 
		-1.000000	-0.109375	0.015625 
		-0.953125	-0.062500	0.265625 
		-0.968750	-0.015625	0.265625 
		-0.906250	-0.203125	0.359375 
		-0.843750	-0.031250	-0.546875 
		-0.937500	0.000000	-0.343750 
		-0.953125	0.046875	0.312500 
		-0.921875	0.250000	0.265625 
		-1.000000	0.015625	0.000000 
		-0.859375	0.468750	-0.187500 
		-0.921875	0.359375	-0.109375 
		-0.953125	0.265625	0.109375 
		-0.890625	0.343750	0.281250 
		-0.828125	0.562500	-0.062500 
		-0.765625	0.609375	-0.203125 
		-0.828125	0.531250	0.156250 
		-0.750000	0.578125	-0.328125 
		-0.625000	0.656250	-0.421875 
		-0.796875	0.578125	-0.156250 
		-0.828125	0.437500	-0.359375 
		-0.875000	0.203125	-0.437500 
		-0.875000	0.109375	-0.468750 
		-0.984375	0.078125	-0.187500 
		-0.984375	0.125000	-0.125000 
		-0.859375	0.421875	-0.281250 
		-0.984375	0.156250	0.062500 
		-0.953125	0.296875	-0.015625 
		-0.921875	0.390625	0.078125 
		-0.843750	0.515625	-0.125000 
		-0.984375	0.109375	-0.078125 
		-1.000000	0.031250	0.000000 
		-0.984375	0.015625	0.187500 
		-0.875000	0.125000	0.453125 
		-0.968750	0.218750	0.093750 
		-0.843750	0.328125	-0.437500 
		-0.953125	-0.062500	0.312500 
		-0.890625	-0.093750	-0.437500 
		-0.906250	0.000000	-0.421875 
		-0.890625	0.312500	-0.343750 
		-0.890625	0.218750	-0.390625 
		-0.859375	0.406250	-0.312500 
		-0.828125	0.531250	-0.140625 
		-0.843750	0.531250	0.078125 
		-0.890625	0.359375	0.265625 
		-0.921875	0.125000	0.375000 
		-0.906250	-0.015625	0.406250 
		0.000000	0.015625	1.000000 
		0.578125	0.562500	0.593750 
		0.750000	0.296875	0.578125 
		0.281250	0.671875	-0.687500 
		-0.609375	0.437500	-0.656250 
		-0.609375	0.703125	0.359375 
		-0.578125	-0.562500	0.578125 
		-0.734375	-0.453125	-0.500000 
		-0.328125	-0.687500	-0.656250 
		0.187500	-0.421875	0.890625 
		0.046875	0.015625	1.000000 
		0.390625	0.015625	0.921875 
		0.984375	-0.156250	0.000000 
		1.000000	-0.093750	0.000000 
		0.406250	-0.234375	0.875000 
		-0.015625	1.000000	-0.015625 
		0.421875	0.187500	0.890625 
		0.406250	0.781250	0.453125 
		0.437500	0.734375	0.515625 
		0.437500	0.312500	0.843750 
		0.453125	0.781250	0.421875 
		0.375000	0.921875	-0.140625 
		0.375000	0.843750	-0.390625 
		0.390625	0.734375	-0.562500 
		0.375000	0.859375	-0.375000 
		0.328125	0.937500	-0.156250 
		0.390625	0.781250	-0.500000 
		0.421875	0.359375	-0.828125 
		0.421875	0.156250	-0.890625 
		0.281250	0.781250	-0.562500 
		0.406250	-0.093750	-0.906250 
		1.000000	-0.015625	0.000000 
		0.968750	-0.015625	0.265625 
		0.953125	-0.062500	0.265625 
		1.000000	-0.109375	0.015625 
		0.906250	-0.203125	0.359375 
		0.843750	-0.031250	-0.546875 
		0.937500	0.000000	-0.343750 
		0.953125	0.046875	0.312500 
		0.921875	0.250000	0.265625 
		1.000000	0.015625	0.000000 
		0.859375	0.468750	-0.187500 
		0.890625	0.343750	0.281250 
		0.953125	0.265625	0.109375 
		0.921875	0.359375	-0.109375 
		0.828125	0.562500	-0.062500 
		0.765625	0.609375	-0.203125 
		0.828125	0.531250	0.156250 
		0.750000	0.578125	-0.328125 
		0.625000	0.656250	-0.421875 
		0.796875	0.578125	-0.156250 
		0.828125	0.437500	-0.359375 
		0.875000	0.203125	-0.437500 
		0.984375	0.078125	-0.187500 
		0.875000	0.109375	-0.468750 
		0.859375	0.421875	-0.281250 
		0.984375	0.125000	-0.125000 
		0.984375	0.156250	0.062500 
		0.921875	0.390625	0.078125 
		0.953125	0.296875	-0.015625 
		0.984375	0.109375	-0.078125 
		0.843750	0.515625	-0.125000 
		1.000000	0.031250	0.000000 
		0.984375	0.015625	0.187500 
		0.968750	0.218750	0.093750 
		0.875000	0.125000	0.453125 
		0.843750	0.328125	-0.437500 
		0.953125	-0.062500	0.312500 
		0.890625	-0.093750	-0.437500 
		0.906250	0.000000	-0.421875 
		0.890625	0.218750	-0.390625 
		0.890625	0.312500	-0.343750 
		0.859375	0.406250	-0.312500 
		0.828125	0.531250	-0.140625 
		0.843750	0.531250	0.078125 
		0.890625	0.359375	0.265625 
		0.921875	0.125000	0.375000 
		0.906250	-0.015625	0.406250 
		-0.578125	0.562500	0.593750 
		-0.281250	0.671875	-0.687500 
		-0.750000	0.296875	0.578125 
		0.609375	0.703125	0.359375 
		0.609375	0.437500	-0.656250 
		0.578125	-0.562500	0.578125 
		0.734375	-0.453125	-0.500000 
		0.328125	-0.687500	-0.656250 
		-0.187500	-0.421875	0.890625 
		-0.687500	0.015625	0.718750 
		0.687500	0.015625	0.718750 
		-0.093750	0.421875	-0.906250 
		-0.093750	0.640625	-0.765625 
		-0.078125	0.187500	-0.984375 
		0.093750	0.421875	-0.906250 
		0.093750	0.640625	-0.765625 
		0.078125	0.187500	-0.984375 
		0.000000	-1.000000	0.015625 
		-0.390625	-0.828125	0.406250 
		0.000000	-0.750000	0.656250 
		-0.031250	-0.984375	0.156250 
		-0.546875	-0.703125	-0.437500 
		0.000000	-1.000000	0.109375 
		0.000000	-0.843750	-0.546875 
		-0.296875	-0.781250	0.546875 
		0.109375	-0.953125	0.265625 
		0.187500	-0.828125	0.515625 
		0.109375	-0.593750	0.796875 
		-0.203125	-0.750000	-0.625000 
		0.156250	-0.718750	-0.671875 
		0.109375	-0.968750	-0.203125 
		0.031250	-0.375000	-0.921875 
		-0.718750	-0.203125	-0.671875 
		-0.031250	-0.281250	-0.953125 
		0.078125	-0.265625	0.953125 
		-0.187500	-0.687500	0.687500 
		0.203125	-0.671875	0.718750 
		0.109375	-0.968750	0.234375 
		-0.187500	-0.796875	-0.578125 
		0.171875	-0.781250	-0.593750 
		0.093750	-0.984375	-0.171875 
		0.078125	-0.468750	-0.890625 
		0.000000	-0.265625	0.968750 
		-0.703125	-0.187500	0.687500 
		0.000000	-0.984375	0.156250 
		0.078125	-0.984375	0.109375 
		0.000000	-1.000000	-0.062500 
		0.078125	-1.000000	0.046875 
		0.062500	-1.000000	0.031250 
		0.015625	-1.000000	0.015625 
		0.390625	-0.828125	0.406250 
		0.031250	-0.984375	0.156250 
		0.546875	-0.703125	-0.437500 
		0.296875	-0.781250	0.546875 
		-0.109375	-0.593750	0.796875 
		-0.187500	-0.828125	0.515625 
		-0.109375	-0.953125	0.265625 
		0.203125	-0.750000	-0.625000 
		-0.109375	-0.968750	-0.203125 
		-0.156250	-0.718750	-0.671875 
		-0.031250	-0.375000	-0.921875 
		0.718750	-0.203125	-0.671875 
		0.031250	-0.281250	-0.953125 
		-0.078125	-0.265625	0.953125 
		0.187500	-0.687500	0.687500 
		-0.203125	-0.671875	0.718750 
		-0.109375	-0.968750	0.234375 
		0.187500	-0.796875	-0.578125 
		-0.093750	-0.984375	-0.171875 
		-0.171875	-0.781250	-0.593750 
		-0.078125	-0.468750	-0.890625 
		0.703125	-0.187500	0.687500 
		-0.078125	-0.984375	0.109375 
		-0.078125	-1.000000	0.046875 
		-0.062500	-1.000000	0.031250 
		-0.015625	-1.000000	0.015625 
	}

	Cpv 425 { 
		0.526615	0.501683	0.491360	0.000000 
		0.526615	0.501683	0.491360	0.000000 
		0.526615	0.501683	0.491360	0.000000 
		0.526615	0.501683	0.491360	0.000000 
		0.535276	0.498445	0.493322	0.000000 
		0.577862	0.505251	0.497026	0.000000 
		0.577862	0.505251	0.497026	0.000000 
		0.535276	0.498445	0.493322	0.000000 
		0.458630	0.512947	0.361457	0.000000 
		0.458630	0.512947	0.361457	0.000000 
		0.526615	0.501683	0.491360	0.000000 
		0.526615	0.501683	0.491360	0.000000 
		0.526615	0.501683	0.491360	0.000000 
		0.526615	0.501683	0.491360	0.000000 
		0.526615	0.501683	0.491360	0.000000 
		0.526615	0.501683	0.491360	0.000000 
		0.458630	0.512947	0.361457	0.000000 
		0.458630	0.512947	0.361457	0.000000 
		0.452175	0.477558	0.409018	0.000000 
		0.452175	0.477558	0.409018	0.000000 
		0.526615	0.501683	0.491360	0.000000 
		0.526615	0.501683	0.491360	0.000000 
		0.452175	0.477558	0.409018	0.000000 
		0.471355	0.475379	0.462150	0.000000 
		0.517042	0.482352	0.489530	0.000000 
		0.526615	0.501683	0.491360	0.000000 
		0.471355	0.475379	0.462150	0.000000 
		0.508677	0.485507	0.477398	0.003922 
		0.516760	0.478330	0.461211	0.003922 
		0.517042	0.482352	0.489530	0.000000 
		0.479786	0.338034	0.519809	0.003922 
		0.512566	0.467024	0.481342	0.003922 
		0.479786	0.338034	0.519809	0.003922 
		0.495279	0.357663	0.523141	0.003922 
		0.500000	0.500000	0.500000	0.003922 
		0.512566	0.467024	0.481342	0.003922 
		0.471285	0.370787	0.550552	0.003922 
		0.511540	0.486630	0.512089	0.003922 
		0.471285	0.370787	0.550552	0.003922 
		0.457057	0.414763	0.577288	0.003922 
		0.600840	0.428854	0.550680	0.003922 
		0.511540	0.486630	0.512089	0.003922 
		0.469905	0.472494	0.544337	0.000000 
		0.522809	0.483646	0.519049	0.000000 
		0.469905	0.472494	0.544337	0.000000 
		0.504265	0.530065	0.512189	0.000000 
		0.500194	0.523069	0.508931	0.000000 
		0.522809	0.483646	0.519049	0.000000 
		0.495848	0.511427	0.595690	0.000000 
		0.603299	0.496435	0.486969	0.000000 
		0.495848	0.511427	0.595690	0.000000 
		0.495848	0.511427	0.595690	0.000000 
		0.603299	0.496435	0.486969	0.000000 
		0.603299	0.496435	0.486969	0.000000 
		0.514432	0.523134	0.623314	0.000000 
		0.603299	0.496435	0.486969	0.000000 
		0.514432	0.523134	0.623314	0.000000 
		0.514432	0.523134	0.623314	0.000000 
		0.603299	0.496435	0.486969	0.000000 
		0.603299	0.496435	0.486969	0.000000 
		0.514432	0.523134	0.623314	0.000000 
		0.514432	0.523134	0.623314	0.000000 
		0.603299	0.496435	0.486969	0.000000 
		0.603299	0.496435	0.486969	0.000000 
		0.528558	0.500496	0.502532	0.000000 
		0.528558	0.500496	0.502532	0.000000 
		0.526615	0.501683	0.491360	0.000000 
		0.526615	0.501683	0.491360	0.000000 
		0.526615	0.501683	0.491360	0.000000 
		0.526615	0.501683	0.491360	0.000000 
		0.603299	0.496435	0.486969	0.000000 
		0.603299	0.496435	0.486969	0.000000 
		0.603299	0.496435	0.486969	0.000000 
		0.603299	0.496435	0.486969	0.000000 
		0.535276	0.498445	0.493322	0.000000 
		0.535276	0.498445	0.493322	0.000000 
		0.535276	0.498445	0.493322	0.000000 
		0.535276	0.498445	0.493322	0.000000 
		0.577862	0.505251	0.497026	0.000000 
		0.535276	0.498445	0.493322	0.000000 
		0.600840	0.428854	0.550680	0.003922 
		0.522809	0.483646	0.519049	0.000000 
		0.517042	0.482352	0.489530	0.000000 
		0.516760	0.478330	0.461211	0.003922 
		0.500000	0.500000	0.500000	0.003922 
		0.511540	0.486630	0.512089	0.003922 
		0.512566	0.467024	0.481342	0.003922 
		0.603299	0.496435	0.486969	0.000000 
		0.603299	0.496435	0.486969	0.000000 
		0.603299	0.496435	0.486969	0.000000 
		0.603299	0.496435	0.486969	0.000000 
		0.505214	0.497037	0.480978	0.000000 
		0.505214	0.497037	0.480978	0.000000 
		0.603299	0.496435	0.486969	0.000000 
		0.554837	0.498472	0.495490	0.000000 
		0.603299	0.496435	0.486969	0.000000 
		0.603299	0.496435	0.486969	0.000000 
		0.603299	0.496435	0.486969	0.000000 
		0.603299	0.496435	0.486969	0.000000 
		0.603299	0.496435	0.486969	0.000000 
		0.535276	0.498445	0.493322	0.000000 
		0.547065	0.498021	0.491724	0.000000 
		0.547065	0.498021	0.491724	0.000000 
		0.505214	0.497037	0.480978	0.000000 
		0.505214	0.497037	0.480978	0.000000 
		0.577862	0.505251	0.497026	0.000000 
		0.526615	0.501683	0.491360	0.000000 
		0.526615	0.501683	0.491360	0.000000 
		0.526615	0.501683	0.491360	0.000000 
		0.604641	0.504641	0.487182	0.000000 
		0.526615	0.501683	0.491360	0.000000 
		0.512587	0.500000	0.498633	0.000000 
		0.528558	0.500496	0.502532	0.000000 
		0.526615	0.501683	0.491360	0.000000 
		0.526615	0.501683	0.491360	0.000000 
		0.526615	0.501683	0.491360	0.000000 
		0.526615	0.501683	0.491360	0.000000 
		0.526615	0.501683	0.491360	0.000000 
		0.526615	0.501683	0.491360	0.000000 
		0.526615	0.501683	0.491360	0.000000 
		0.517042	0.482352	0.489530	0.000000 
		0.526615	0.501683	0.491360	0.000000 
		0.516760	0.478330	0.461211	0.003922 
		0.517042	0.482352	0.489530	0.000000 
		0.512566	0.467024	0.481342	0.003922 
		0.512566	0.467024	0.481342	0.003922 
		0.500000	0.500000	0.500000	0.003922 
		0.511540	0.486630	0.512089	0.003922 
		0.600840	0.428854	0.550680	0.003922 
		0.522809	0.483646	0.519049	0.000000 
		0.500194	0.523069	0.508931	0.000000 
		0.603299	0.496435	0.486969	0.000000 
		0.603299	0.496435	0.486969	0.000000 
		0.603299	0.496435	0.486969	0.000000 
		0.603299	0.496435	0.486969	0.000000 
		0.603299	0.496435	0.486969	0.000000 
		0.603299	0.496435	0.486969	0.000000 
		0.603299	0.496435	0.486969	0.000000 
		0.603299	0.496435	0.486969	0.000000 
		0.603299	0.496435	0.486969	0.000000 
		0.535276	0.498445	0.493322	0.000000 
		0.535276	0.498445	0.493322	0.000000 
		0.577862	0.505251	0.497026	0.000000 
		0.577862	0.505251	0.497026	0.000000 
		0.577862	0.505251	0.497026	0.000000 
		0.577862	0.505251	0.497026	0.000000 
		0.577862	0.505251	0.497026	0.000000 
		0.577862	0.505251	0.497026	0.000000 
		0.577862	0.505251	0.497026	0.000000 
		0.604641	0.504641	0.487182	0.000000 
		0.604641	0.504641	0.487182	0.000000 
		0.512587	0.500000	0.498633	0.000000 
		0.512587	0.500000	0.498633	0.000000 
		0.528558	0.500496	0.502532	0.000000 
		0.541145	0.500496	0.501165	0.000000 
		0.541145	0.500496	0.501165	0.000000 
		0.528558	0.500496	0.502532	0.000000 
		0.541145	0.500496	0.501165	0.000000 
		0.528558	0.500496	0.502532	0.000000 
		0.458630	0.512947	0.361457	0.000000 
		0.560806	0.486242	0.447424	0.000000 
		0.549095	0.486242	0.429536	0.000000 
		0.499580	0.486242	0.443517	0.000000 
		0.577235	0.486242	0.550709	0.000000 
		0.610560	0.486242	0.540269	0.000000 
		0.612769	0.486242	0.546143	0.000000 
		0.578636	0.486242	0.553143	0.000000 
		0.506656	0.486242	0.457269	0.000000 
		0.561022	0.486242	0.441335	0.000000 
		0.560806	0.486242	0.447424	0.000000 
		0.610560	0.486242	0.540269	0.000000 
		0.612769	0.486242	0.546143	0.000000 
		0.561022	0.486242	0.441335	0.000000 
		0.549095	0.486242	0.429536	0.000000 
		0.471285	0.515760	0.419462	0.000000 
		0.471285	0.515760	0.419462	0.000000 
		0.471285	0.515760	0.419462	0.000000 
		0.471285	0.515760	0.419462	0.000000 
		0.465225	0.516835	0.522440	0.000000 
		0.466562	0.512651	0.514745	0.000000 
		0.500000	0.500000	0.500000	0.000000 
		0.500000	0.500000	0.500000	0.000000 
		0.471285	0.515760	0.419462	0.000000 
		0.471285	0.515760	0.419462	0.000000 
		0.471285	0.515760	0.419462	0.000000 
		0.471285	0.515760	0.419462	0.000000 
		0.471285	0.515760	0.419462	0.000000 
		0.471285	0.515760	0.419462	0.000000 
		0.454828	0.489998	0.387302	0.000000 
		0.454828	0.489998	0.387302	0.000000 
		0.454828	0.489998	0.387302	0.000000 
		0.485690	0.480883	0.485158	0.000000 
		0.485690	0.480883	0.485158	0.000000 
		0.460811	0.430411	0.441736	0.003922 
		0.457182	0.366593	0.496227	0.003922 
		0.457182	0.366593	0.496227	0.003922 
		0.479676	0.434171	0.510710	0.003922 
		0.479676	0.434171	0.510710	0.003922 
		0.479676	0.434171	0.510710	0.003922 
		0.446929	0.474358	0.521192	0.003922 
		0.500000	0.500000	0.500000	0.000000 
		0.500000	0.500000	0.500000	0.000000 
		0.488923	0.503588	0.507084	0.000000 
		0.509126	0.506516	0.515423	0.000000 
		0.509126	0.506516	0.515423	0.000000 
		0.509126	0.506516	0.515423	0.000000 
		0.509126	0.506516	0.515423	0.000000 
		0.509126	0.506516	0.515423	0.000000 
		0.509126	0.506516	0.515423	0.000000 
		0.509126	0.506516	0.515423	0.000000 
		0.509126	0.506516	0.515423	0.000000 
		0.500000	0.500000	0.500000	0.000000 
		0.471285	0.515760	0.419462	0.000000 
		0.471285	0.515760	0.419462	0.000000 
		0.500000	0.500000	0.500000	0.000000 
		0.471285	0.515760	0.419462	0.000000 
		0.471285	0.515760	0.419462	0.000000 
		0.509126	0.506516	0.515423	0.000000 
		0.509126	0.506516	0.515423	0.000000 
		0.509126	0.506516	0.515423	0.000000 
		0.509126	0.506516	0.515423	0.000000 
		0.466562	0.512651	0.514745	0.000000 
		0.488923	0.503588	0.507084	0.000000 
		0.466562	0.512651	0.514745	0.000000 
		0.466562	0.512651	0.514745	0.000000 
		0.466562	0.512651	0.514745	0.000000 
		0.500000	0.500000	0.500000	0.000000 
		0.446929	0.474358	0.521192	0.003922 
		0.460811	0.430411	0.441736	0.003922 
		0.485690	0.480883	0.485158	0.000000 
		0.500000	0.500000	0.500000	0.000000 
		0.479676	0.434171	0.510710	0.003922 
		0.503872	0.494007	0.500994	0.003922 
		0.457182	0.366593	0.496227	0.003922 
		0.509126	0.506516	0.515423	0.000000 
		0.509126	0.506516	0.515423	0.000000 
		0.509126	0.506516	0.515423	0.000000 
		0.509126	0.506516	0.515423	0.000000 
		0.488923	0.503588	0.507084	0.000000 
		0.500000	0.500000	0.500000	0.000000 
		0.509126	0.506516	0.515423	0.000000 
		0.488923	0.503588	0.507084	0.000000 
		0.509126	0.506516	0.515423	0.000000 
		0.509126	0.506516	0.515423	0.000000 
		0.509126	0.506516	0.515423	0.000000 
		0.509126	0.506516	0.515423	0.000000 
		0.509126	0.506516	0.515423	0.000000 
		0.488923	0.503588	0.507084	0.000000 
		0.488923	0.503588	0.507084	0.000000 
		0.488923	0.503588	0.507084	0.000000 
		0.488923	0.503588	0.507084	0.000000 
		0.488923	0.503588	0.507084	0.000000 
		0.500000	0.500000	0.500000	0.000000 
		0.471285	0.515760	0.419462	0.000000 
		0.454828	0.489998	0.387302	0.000000 
		0.454828	0.489998	0.387302	0.000000 
		0.500000	0.500000	0.500000	0.000000 
		0.454828	0.489998	0.387302	0.000000 
		0.500000	0.500000	0.500000	0.000000 
		0.500000	0.500000	0.500000	0.000000 
		0.471285	0.515760	0.419462	0.000000 
		0.471285	0.515760	0.419462	0.000000 
		0.471285	0.515760	0.419462	0.000000 
		0.471285	0.515760	0.419462	0.000000 
		0.471285	0.515760	0.419462	0.000000 
		0.471285	0.515760	0.419462	0.000000 
		0.471285	0.515760	0.419462	0.000000 
		0.485690	0.480883	0.485158	0.000000 
		0.454828	0.489998	0.387302	0.000000 
		0.460811	0.430411	0.441736	0.003922 
		0.485690	0.480883	0.485158	0.000000 
		0.457182	0.366593	0.496227	0.003922 
		0.479676	0.434171	0.510710	0.003922 
		0.457182	0.366593	0.496227	0.003922 
		0.479676	0.434171	0.510710	0.003922 
		0.446929	0.474358	0.521192	0.003922 
		0.500000	0.500000	0.500000	0.000000 
		0.488923	0.503588	0.507084	0.000000 
		0.509126	0.506516	0.515423	0.000000 
		0.509126	0.506516	0.515423	0.000000 
		0.509126	0.506516	0.515423	0.000000 
		0.509126	0.506516	0.515423	0.000000 
		0.509126	0.506516	0.515423	0.000000 
		0.509126	0.506516	0.515423	0.000000 
		0.509126	0.506516	0.515423	0.000000 
		0.509126	0.506516	0.515423	0.000000 
		0.509126	0.506516	0.515423	0.000000 
		0.465225	0.516835	0.522440	0.000000 
		0.466562	0.512651	0.514745	0.000000 
		0.500000	0.500000	0.500000	0.000000 
		0.500000	0.500000	0.500000	0.000000 
		0.500000	0.500000	0.500000	0.000000 
		0.500000	0.500000	0.500000	0.000000 
		0.500000	0.500000	0.500000	0.000000 
		0.500000	0.500000	0.500000	0.000000 
		0.500000	0.500000	0.500000	0.000000 
		0.500000	0.500000	0.500000	0.000000 
		0.500000	0.500000	0.500000	0.000000 
		0.500000	0.500000	0.500000	0.000000 
		0.500000	0.500000	0.500000	0.000000 
		0.500000	0.500000	0.500000	0.000000 
		0.500000	0.500000	0.500000	0.000000 
		0.500000	0.500000	0.500000	0.000000 
		0.500000	0.500000	0.500000	0.000000 
		0.500000	0.500000	0.500000	0.000000 
		0.500000	0.500000	0.500000	0.000000 
		0.538768	0.488158	0.462223	0.000000 
		0.560652	0.494939	0.452815	0.000000 
		0.520886	0.507154	0.444158	0.000000 
		0.491142	0.422024	0.536616	0.000000 
		0.508482	0.415104	0.542063	0.000000 
		0.431995	0.430324	0.534097	0.000000 
		0.459378	0.423887	0.537986	0.000000 
		0.513174	0.494080	0.458687	0.000000 
		0.474498	0.506831	0.449353	0.000000 
		0.538768	0.488158	0.462223	0.000000 
		0.474498	0.506831	0.449353	0.000000 
		0.431995	0.430324	0.534097	0.000000 
		0.491142	0.422024	0.536616	0.000000 
		0.520886	0.507154	0.444158	0.000000 
		0.526615	0.501683	0.491360	0.000000 
		0.526615	0.501683	0.491360	0.000000 
		0.471285	0.515760	0.419462	0.000000 
		0.471285	0.515760	0.419462	0.000000 
		0.603299	0.496435	0.486969	0.000000 
		0.603299	0.496435	0.486969	0.000000 
		0.554837	0.498472	0.495490	0.000000 
		0.554837	0.498472	0.495490	0.000000 
		0.603299	0.496435	0.486969	0.000000 
		0.554837	0.498472	0.495490	0.000000 
		0.509126	0.506516	0.515423	0.000000 
		0.509126	0.506516	0.515423	0.000000 
		0.509126	0.506516	0.515423	0.000000 
		0.509126	0.506516	0.515423	0.000000 
		0.509126	0.506516	0.515423	0.000000 
		0.509126	0.506516	0.515423	0.000000 
		0.535276	0.498445	0.493322	0.000000 
		0.535276	0.498445	0.493322	0.000000 
		0.500000	0.500000	0.500000	0.000000 
		0.577862	0.505251	0.497026	0.000000 
		0.577862	0.505251	0.497026	0.000000 
		0.577862	0.505251	0.497026	0.000000 
		0.526615	0.501683	0.491360	0.000000 
		0.526615	0.501683	0.491360	0.000000 
		0.528558	0.500496	0.502532	0.000000 
		0.500000	0.500000	0.500000	0.000000 
		0.528558	0.500496	0.502532	0.000000 
		0.541145	0.500496	0.501165	0.000000 
		0.554837	0.498472	0.495490	0.000000 
		0.505214	0.497037	0.480978	0.000000 
		0.554837	0.498472	0.495490	0.000000 
		0.603299	0.496435	0.486969	0.000000 
		0.500000	0.500000	0.500000	0.000000 
		0.535276	0.498445	0.493322	0.000000 
		0.547065	0.498021	0.491724	0.000000 
		0.535276	0.498445	0.493322	0.000000 
		0.500000	0.500000	0.500000	0.000000 
		0.535276	0.498445	0.493322	0.000000 
		0.577862	0.505251	0.497026	0.000000 
		0.577862	0.505251	0.497026	0.000000 
		0.577862	0.505251	0.497026	0.000000 
		0.604641	0.504641	0.487182	0.000000 
		0.500000	0.500000	0.500000	0.000000 
		0.541145	0.500496	0.501165	0.000000 
		0.512587	0.500000	0.498633	0.000000 
		0.541145	0.500496	0.501165	0.000000 
		0.603299	0.496435	0.486969	0.000000 
		0.554837	0.498472	0.495490	0.000000 
		0.526615	0.501683	0.491360	0.000000 
		0.528558	0.500496	0.502532	0.000000 
		0.500000	0.500000	0.500000	0.000000 
		0.458630	0.512947	0.361457	0.000000 
		0.603299	0.496435	0.486969	0.000000 
		0.603299	0.496435	0.486969	0.000000 
		0.514432	0.523134	0.623314	0.000000 
		0.554837	0.498472	0.495490	0.000000 
		0.603299	0.496435	0.486969	0.000000 
		0.577862	0.505251	0.497026	0.000000 
		0.500000	0.500000	0.500000	0.000000 
		0.554837	0.498472	0.495490	0.000000 
		0.514432	0.523134	0.623314	0.000000 
		0.465225	0.516835	0.522440	0.000000 
		0.500000	0.500000	0.500000	0.000000 
		0.466562	0.512651	0.514745	0.000000 
		0.500000	0.500000	0.500000	0.000000 
		0.500000	0.500000	0.500000	0.000000 
		0.500000	0.500000	0.500000	0.000000 
		0.471285	0.515760	0.419462	0.000000 
		0.500000	0.500000	0.500000	0.000000 
		0.471285	0.515760	0.419462	0.000000 
		0.500000	0.500000	0.500000	0.000000 
		0.500000	0.500000	0.500000	0.000000 
		0.500000	0.500000	0.500000	0.000000 
		0.500000	0.500000	0.500000	0.000000 
		0.509126	0.506516	0.515423	0.000000 
		0.500000	0.500000	0.500000	0.000000 
		0.488923	0.503588	0.507084	0.000000 
		0.500000	0.500000	0.500000	0.000000 
		0.488923	0.503588	0.507084	0.000000 
		0.488923	0.503588	0.507084	0.000000 
		0.466562	0.512651	0.514745	0.000000 
		0.500000	0.500000	0.500000	0.000000 
		0.466562	0.512651	0.514745	0.000000 
		0.500000	0.500000	0.500000	0.000000 
		0.500000	0.500000	0.500000	0.000000 
		0.500000	0.500000	0.500000	0.000000 
		0.500000	0.500000	0.500000	0.000000 
		0.500000	0.500000	0.500000	0.000000 
		0.500000	0.500000	0.500000	0.000000 
		0.500000	0.500000	0.500000	0.000000 
		0.500000	0.500000	0.500000	0.000000 
		0.509126	0.506516	0.515423	0.000000 
		0.509126	0.506516	0.515423	0.000000 
		0.471285	0.515760	0.419462	0.000000 
		0.458630	0.512947	0.361457	0.000000 
		0.500000	0.500000	0.500000	0.000000 
		0.500000	0.500000	0.500000	0.000000 
		0.509126	0.506516	0.515423	0.000000 
		0.509126	0.506516	0.515423	0.000000 
		0.509126	0.506516	0.515423	0.000000 
		0.509126	0.506516	0.515423	0.000000 
		0.500000	0.500000	0.500000	0.000000 
		0.500000	0.500000	0.500000	0.000000 
		0.514432	0.523134	0.623314	0.000000 
		0.509126	0.506516	0.515423	0.000000 
	}

	Tex0 209 { 
		0.209961	0.830078 
		0.215820	0.830078 
		0.215820	0.720703 
		0.209961	0.720703 
		0.239258	0.057617 
		0.659180	0.043945 
		0.660156	0.154297 
		0.228516	0.170898 
		0.012695	0.610352 
		0.012695	0.691406 
		0.221680	0.690430 
		0.210938	0.629883 
		0.237305	0.691406 
		0.194336	0.720703 
		0.012695	0.720703 
		0.012695	0.959961 
		0.012695	0.996094 
		0.215820	0.995117 
		0.215820	0.958984 
		0.774414	0.184570 
		0.774414	0.199219 
		0.769531	0.200195 
		0.769531	0.184570 
		0.739258	0.545898 
		0.671875	0.545898 
		0.671875	0.911133 
		0.739258	0.958008 
		0.615234	0.545898 
		0.620117	0.868164 
		0.524414	0.843750 
		0.354492	0.833008 
		0.360352	0.826172 
		0.520508	0.836914 
		0.316406	0.809570 
		0.326172	0.803711 
		0.754883	0.998047 
		0.754883	0.911133 
		0.907227	0.909180 
		0.893555	0.994141 
		0.754883	0.850586 
		0.920898	0.842773 
		0.765625	0.835938 
		0.765625	0.823242 
		1.001953	0.809570 
		1.006836	0.823242 
		0.765625	0.806641 
		0.993164	0.793945 
		0.763672	0.795898 
		0.763672	0.722656 
		0.996094	0.723633 
		0.996094	0.781250 
		0.763672	0.638672 
		0.996094	0.639648 
		0.763672	0.621094 
		0.996094	0.621094 
		0.763672	0.507813 
		0.996094	0.508789 
		0.873047	0.217773 
		0.877930	0.094727 
		0.968750	0.233398 
		0.968750	0.262695 
		0.989258	0.150391 
		0.995117	0.235352 
		0.010742	0.208984 
		0.014648	0.044922 
		0.040039	0.039063 
		0.057617	0.237305 
		0.207031	0.167969 
		0.216797	0.264648 
		0.188477	0.271484 
		0.671875	0.253906 
		0.299805	0.676758 
		0.246094	0.497070 
		0.567383	0.502930 
		0.562500	0.713867 
		0.375977	0.818359 
		0.339844	0.783203 
		0.547852	0.834961 
		0.034180	0.235352 
		0.022461	0.234375 
		0.105469	0.327148 
		0.099609	0.378906 
		0.057617	0.320313 
		0.073242	0.287109 
		0.028320	0.343750 
		0.044922	0.404297 
		0.193359	0.341797 
		0.152344	0.385742 
		0.149414	0.326172 
		0.112305	0.446289 
		0.689453	0.316406 
		0.246094	0.830078 
		0.245117	0.947266 
		0.245117	0.975586 
		0.730469	0.375000 
		0.961914	0.490234 
		0.802734	0.388672 
		0.847656	0.332031 
		0.967773	0.369141 
		0.224609	0.637695 
		0.673828	0.932617 
		0.740234	0.983398 
		0.628906	0.890625 
		0.554688	0.859375 
		0.375000	0.842773 
		0.335938	0.805664 
		0.290039	0.685547 
		0.234375	0.511719 
		0.109375	0.469727 
		0.038086	0.421875 
		0.016602	0.344727 
		0.010742	0.233398 
		0.000000	0.209961 
		0.003906	0.046875 
		0.214844	0.055664 
		0.676758	0.044922 
		0.681641	0.152344 
		0.696289	0.258789 
		0.737305	0.319336 
		0.796875	0.326172 
		0.830078	0.283203 
		0.850586	0.204102 
		0.861328	0.088867 
		0.145508	0.186523 
		0.141602	0.172852 
		0.170898	0.183594 
		0.170898	0.187500 
		0.171875	0.161133 
		0.144531	0.156250 
		0.536133	0.333984 
		0.495117	0.335938 
		0.493164	0.276367 
		0.538086	0.266602 
		0.542969	0.303711 
		0.780273	0.184570 
		0.780273	0.200195 
		0.247070	0.720703 
		0.998047	0.723633 
		0.998047	0.759766 
		0.921875	0.759766 
		0.906250	0.722656 
		0.998047	0.687500 
		0.898438	0.687500 
		0.226563	0.041016 
		0.203125	0.017578 
		0.203125	0.248047 
		0.660156	0.248047 
		0.660156	0.010742 
		0.642578	0.041016 
		0.979492	0.051758 
		0.968750	0.025391 
		0.858398	0.025391 
		0.842773	0.264648 
		0.842773	0.000977 
		0.054688	0.248047 
		0.094727	0.000000 
		0.062500	0.007813 
		0.046875	0.013672 
		0.174805	0.248047 
		0.176758	0.000000 
		0.137695	-0.002930 
		0.194336	0.002930 
		0.664063	-0.001953 
		0.671875	0.248047 
		0.679688	-0.012695 
		0.719727	-0.021484 
		0.819336	0.264648 
		0.811523	-0.016602 
		0.778320	-0.021484 
		0.832031	-0.012695 
		0.029297	0.031250 
		0.029297	0.248047 
		0.985352	0.478516 
		0.003906	0.061523 
		-0.013672	0.478516 
		-0.005859	0.092773 
		0.431641	0.475586 
		0.226563	0.916016 
		0.203125	0.708984 
		0.203125	0.939453 
		0.660156	0.708984 
		0.642578	0.916016 
		0.660156	0.946289 
		0.979492	0.905273 
		0.858398	0.932617 
		0.968750	0.932617 
		0.842773	0.692383 
		0.842773	0.957031 
		0.054688	0.708984 
		0.046875	0.943359 
		0.062500	0.949219 
		0.094727	0.957031 
		0.174805	0.708984 
		0.137695	0.960938 
		0.176758	0.957031 
		0.194336	0.954102 
		0.664063	0.959961 
		0.671875	0.708984 
		0.679688	0.969727 
		0.719727	0.978516 
		0.819336	0.692383 
		0.778320	0.978516 
		0.811523	0.973633 
		0.832031	0.969727 
		0.029297	0.708984 
		0.029297	0.926758 
		0.003906	0.895508 
		-0.005859	0.864258 
		0.431641	0.481445 
	}

	Tex1 0 
	Adj 425 { 
		P 0 
		N 0 
		C0 0 
		T0 0 
		P 1 
		N 1 
		C0 1 
		T0 1 
		P 2 
		N 1 
		C0 2 
		T0 2 
		P 3 
		N 0 
		C0 3 
		T0 3 
		P 4 
		N 2 
		C0 4 
		T0 4 
		P 5 
		N 2 
		C0 5 
		T0 5 
		P 6 
		N 3 
		C0 6 
		T0 6 
		P 7 
		N 3 
		C0 7 
		T0 7 
		P 8 
		N 4 
		C0 8 
		T0 8 
		P 9 
		N 4 
		C0 9 
		T0 9 
		P 10 
		N 5 
		C0 10 
		T0 10 
		P 11 
		N 5 
		C0 11 
		T0 11 
		P 12 
		N 6 
		C0 12 
		T0 12 
		P 10 
		N 7 
		C0 13 
		T0 10 
		P 13 
		N 7 
		C0 14 
		T0 13 
		P 14 
		N 6 
		C0 15 
		T0 3 
		P 9 
		N 7 
		C0 16 
		T0 9 
		P 15 
		N 7 
		C0 17 
		T0 14 
		P 16 
		N 8 
		C0 18 
		T0 15 
		P 17 
		N 9 
		C0 19 
		T0 16 
		P 18 
		N 10 
		C0 20 
		T0 17 
		P 19 
		N 11 
		C0 21 
		T0 18 
		P 17 
		N 9 
		C0 22 
		T0 19 
		P 20 
		N 12 
		C0 23 
		T0 20 
		P 21 
		N 13 
		C0 24 
		T0 21 
		P 18 
		N 10 
		C0 25 
		T0 22 
		P 20 
		N 14 
		C0 26 
		T0 23 
		P 22 
		N 15 
		C0 27 
		T0 24 
		P 23 
		N 16 
		C0 28 
		T0 25 
		P 21 
		N 13 
		C0 29 
		T0 26 
		P 24 
		N 17 
		C0 30 
		T0 27 
		P 25 
		N 18 
		C0 31 
		T0 28 
		P 24 
		N 17 
		C0 32 
		T0 29 
		P 26 
		N 19 
		C0 33 
		T0 30 
		P 27 
		N 20 
		C0 34 
		T0 31 
		P 25 
		N 18 
		C0 35 
		T0 32 
		P 28 
		N 21 
		C0 36 
		T0 33 
		P 29 
		N 22 
		C0 37 
		T0 34 
		P 28 
		N 21 
		C0 38 
		T0 35 
		P 30 
		N 23 
		C0 39 
		T0 36 
		P 31 
		N 24 
		C0 40 
		T0 37 
		P 29 
		N 22 
		C0 41 
		T0 38 
		P 32 
		N 25 
		C0 42 
		T0 39 
		P 33 
		N 26 
		C0 43 
		T0 40 
		P 32 
		N 25 
		C0 44 
		T0 41 
		P 34 
		N 19 
		C0 45 
		T0 42 
		P 35 
		N 27 
		C0 46 
		T0 43 
		P 33 
		N 26 
		C0 47 
		T0 44 
		P 36 
		N 28 
		C0 48 
		T0 45 
		P 37 
		N 29 
		C0 49 
		T0 46 
		P 36 
		N 28 
		C0 50 
		T0 47 
		P 38 
		N 30 
		C0 51 
		T0 48 
		P 39 
		N 31 
		C0 52 
		T0 49 
		P 37 
		N 29 
		C0 53 
		T0 50 
		P 40 
		N 32 
		C0 54 
		T0 51 
		P 41 
		N 33 
		C0 55 
		T0 52 
		P 40 
		N 34 
		C0 56 
		T0 51 
		P 42 
		N 34 
		C0 57 
		T0 53 
		P 43 
		N 35 
		C0 58 
		T0 54 
		P 41 
		N 35 
		C0 59 
		T0 52 
		P 42 
		N 36 
		C0 60 
		T0 53 
		P 44 
		N 36 
		C0 61 
		T0 55 
		P 45 
		N 37 
		C0 62 
		T0 56 
		P 43 
		N 37 
		C0 63 
		T0 54 
		P 46 
		N 38 
		C0 64 
		T0 57 
		P 47 
		N 39 
		C0 65 
		T0 58 
		P 14 
		N 40 
		C0 66 
		T0 59 
		P 48 
		N 41 
		C0 67 
		T0 60 
		P 49 
		N 42 
		C0 68 
		T0 61 
		P 12 
		N 42 
		C0 69 
		T0 62 
		P 50 
		N 43 
		C0 70 
		T0 63 
		P 51 
		N 43 
		C0 71 
		T0 64 
		P 52 
		N 44 
		C0 72 
		T0 65 
		P 53 
		N 44 
		C0 73 
		T0 66 
		P 54 
		N 45 
		C0 74 
		T0 67 
		P 7 
		N 45 
		C0 75 
		T0 7 
		P 55 
		N 46 
		C0 76 
		T0 68 
		P 56 
		N 46 
		C0 77 
		T0 69 
		P 57 
		N 47 
		C0 78 
		T0 70 
		P 55 
		N 47 
		C0 79 
		T0 68 
		P 58 
		N 48 
		C0 80 
		T0 71 
		P 59 
		N 49 
		C0 81 
		T0 72 
		P 60 
		N 50 
		C0 82 
		T0 73 
		P 61 
		N 51 
		C0 83 
		T0 74 
		P 62 
		N 52 
		C0 84 
		T0 75 
		P 63 
		N 53 
		C0 85 
		T0 76 
		P 64 
		N 54 
		C0 86 
		T0 77 
		P 65 
		N 55 
		C0 87 
		T0 78 
		P 66 
		N 56 
		C0 88 
		T0 79 
		P 50 
		N 56 
		C0 89 
		T0 63 
		P 53 
		N 55 
		C0 90 
		T0 66 
		P 67 
		N 57 
		C0 91 
		T0 80 
		P 68 
		N 57 
		C0 92 
		T0 81 
		P 69 
		N 58 
		C0 93 
		T0 82 
		P 70 
		N 58 
		C0 94 
		T0 83 
		P 71 
		N 59 
		C0 95 
		T0 84 
		P 66 
		N 60 
		C0 96 
		T0 79 
		P 65 
		N 61 
		C0 97 
		T0 78 
		P 69 
		N 62 
		C0 98 
		T0 82 
		P 72 
		N 63 
		C0 99 
		T0 85 
		P 73 
		N 64 
		C0 100 
		T0 86 
		P 74 
		N 65 
		C0 101 
		T0 87 
		P 75 
		N 66 
		C0 102 
		T0 88 
		P 76 
		N 67 
		C0 103 
		T0 89 
		P 68 
		N 68 
		C0 104 
		T0 81 
		P 77 
		N 69 
		C0 105 
		T0 90 
		P 78 
		N 70 
		C0 106 
		T0 91 
		P 79 
		N 71 
		C0 107 
		T0 92 
		P 80 
		N 72 
		C0 108 
		T0 93 
		P 81 
		N 47 
		C0 109 
		T0 94 
		P 80 
		N 72 
		C0 110 
		T0 95 
		P 82 
		N 47 
		C0 111 
		T0 96 
		P 83 
		N 47 
		C0 112 
		T0 97 
		P 78 
		N 70 
		C0 113 
		T0 98 
		P 12 
		N 42 
		C0 114 
		T0 12 
		P 49 
		N 42 
		C0 115 
		T0 99 
		P 2 
		N 1 
		C0 116 
		T0 13 
		P 48 
		N 41 
		C0 117 
		T0 3 
		P 14 
		N 40 
		C0 118 
		T0 3 
		P 13 
		N 1 
		C0 119 
		T0 13 
		P 60 
		N 50 
		C0 120 
		T0 21 
		P 80 
		N 72 
		C0 121 
		T0 22 
		P 61 
		N 51 
		C0 122 
		T0 100 
		P 60 
		N 50 
		C0 123 
		T0 101 
		P 64 
		N 54 
		C0 124 
		T0 102 
		P 25 
		N 18 
		C0 125 
		T0 103 
		P 27 
		N 20 
		C0 126 
		T0 104 
		P 29 
		N 22 
		C0 127 
		T0 105 
		P 31 
		N 24 
		C0 128 
		T0 106 
		P 33 
		N 26 
		C0 129 
		T0 107 
		P 35 
		N 27 
		C0 130 
		T0 108 
		P 37 
		N 29 
		C0 131 
		T0 109 
		P 39 
		N 31 
		C0 132 
		T0 110 
		P 41 
		N 33 
		C0 133 
		T0 111 
		P 41 
		N 35 
		C0 134 
		T0 111 
		P 43 
		N 35 
		C0 135 
		T0 112 
		P 43 
		N 37 
		C0 136 
		T0 112 
		P 45 
		N 37 
		C0 137 
		T0 113 
		P 65 
		N 73 
		C0 138 
		T0 78 
		P 53 
		N 73 
		C0 139 
		T0 66 
		P 84 
		N 74 
		C0 140 
		T0 114 
		P 4 
		N 74 
		C0 141 
		T0 4 
		P 85 
		N 75 
		C0 142 
		T0 115 
		P 86 
		N 76 
		C0 143 
		T0 116 
		P 6 
		N 76 
		C0 144 
		T0 6 
		P 5 
		N 75 
		C0 145 
		T0 5 
		P 87 
		N 77 
		C0 146 
		T0 117 
		P 57 
		N 78 
		C0 147 
		T0 70 
		P 77 
		N 79 
		C0 148 
		T0 90 
		P 88 
		N 80 
		C0 149 
		T0 118 
		P 81 
		N 80 
		C0 150 
		T0 94 
		P 82 
		N 81 
		C0 151 
		T0 96 
		P 89 
		N 81 
		C0 152 
		T0 119 
		P 83 
		N 82 
		C0 153 
		T0 97 
		P 90 
		N 82 
		C0 154 
		T0 120 
		P 91 
		N 83 
		C0 155 
		T0 121 
		P 46 
		N 83 
		C0 156 
		T0 57 
		P 92 
		N 84 
		C0 157 
		T0 122 
		P 47 
		N 84 
		C0 158 
		T0 58 
		P 15 
		N 85 
		C0 159 
		T0 14 
		P 93 
		N 86 
		C0 160 
		T0 123 
		P 94 
		N 87 
		C0 161 
		T0 124 
		P 95 
		N 88 
		C0 162 
		T0 124 
		P 96 
		N 89 
		C0 163 
		T0 125 
		P 97 
		N 90 
		C0 164 
		T0 126 
		P 98 
		N 91 
		C0 165 
		T0 127 
		P 99 
		N 92 
		C0 166 
		T0 127 
		P 100 
		N 93 
		C0 167 
		T0 128 
		P 101 
		N 94 
		C0 168 
		T0 128 
		P 93 
		N 86 
		C0 169 
		T0 129 
		P 97 
		N 90 
		C0 170 
		T0 130 
		P 98 
		N 91 
		C0 171 
		T0 131 
		P 101 
		N 94 
		C0 172 
		T0 132 
		P 94 
		N 87 
		C0 173 
		T0 133 
		P 102 
		N 95 
		C0 174 
		T0 0 
		P 103 
		N 95 
		C0 175 
		T0 3 
		P 104 
		N 96 
		C0 176 
		T0 2 
		P 105 
		N 96 
		C0 177 
		T0 1 
		P 106 
		N 97 
		C0 178 
		T0 4 
		P 107 
		N 98 
		C0 179 
		T0 7 
		P 108 
		N 98 
		C0 180 
		T0 6 
		P 109 
		N 97 
		C0 181 
		T0 5 
		P 110 
		N 99 
		C0 182 
		T0 11 
		P 111 
		N 99 
		C0 183 
		T0 10 
		P 112 
		N 100 
		C0 184 
		T0 12 
		P 113 
		N 100 
		C0 185 
		T0 3 
		P 114 
		N 7 
		C0 186 
		T0 13 
		P 111 
		N 7 
		C0 187 
		T0 10 
		P 115 
		N 101 
		C0 188 
		T0 18 
		P 116 
		N 102 
		C0 189 
		T0 17 
		P 116 
		N 102 
		C0 190 
		T0 134 
		P 117 
		N 103 
		C0 191 
		T0 135 
		P 117 
		N 103 
		C0 192 
		T0 26 
		P 118 
		N 104 
		C0 193 
		T0 25 
		P 119 
		N 105 
		C0 194 
		T0 28 
		P 119 
		N 105 
		C0 195 
		T0 32 
		P 120 
		N 106 
		C0 196 
		T0 31 
		P 121 
		N 107 
		C0 197 
		T0 34 
		P 121 
		N 107 
		C0 198 
		T0 38 
		P 122 
		N 108 
		C0 199 
		T0 37 
		P 123 
		N 109 
		C0 200 
		T0 40 
		P 123 
		N 109 
		C0 201 
		T0 44 
		P 124 
		N 110 
		C0 202 
		T0 43 
		P 125 
		N 111 
		C0 203 
		T0 46 
		P 125 
		N 111 
		C0 204 
		T0 50 
		P 126 
		N 112 
		C0 205 
		T0 49 
		P 127 
		N 113 
		C0 206 
		T0 52 
		P 127 
		N 114 
		C0 207 
		T0 52 
		P 128 
		N 114 
		C0 208 
		T0 54 
		P 128 
		N 115 
		C0 209 
		T0 54 
		P 129 
		N 115 
		C0 210 
		T0 56 
		P 130 
		N 116 
		C0 211 
		T0 57 
		P 131 
		N 117 
		C0 212 
		T0 60 
		P 113 
		N 118 
		C0 213 
		T0 59 
		P 132 
		N 119 
		C0 214 
		T0 58 
		P 112 
		N 120 
		C0 215 
		T0 62 
		P 133 
		N 120 
		C0 216 
		T0 61 
		P 134 
		N 121 
		C0 217 
		T0 63 
		P 135 
		N 122 
		C0 218 
		T0 66 
		P 136 
		N 122 
		C0 219 
		T0 65 
		P 137 
		N 121 
		C0 220 
		T0 64 
		P 138 
		N 123 
		C0 221 
		T0 67 
		P 139 
		N 124 
		C0 222 
		T0 69 
		P 140 
		N 124 
		C0 223 
		T0 68 
		P 107 
		N 123 
		C0 224 
		T0 7 
		P 140 
		N 125 
		C0 225 
		T0 68 
		P 141 
		N 125 
		C0 226 
		T0 70 
		P 142 
		N 126 
		C0 227 
		T0 71 
		P 143 
		N 127 
		C0 228 
		T0 74 
		P 144 
		N 128 
		C0 229 
		T0 73 
		P 145 
		N 129 
		C0 230 
		T0 72 
		P 146 
		N 130 
		C0 231 
		T0 75 
		P 147 
		N 131 
		C0 232 
		T0 76 
		P 148 
		N 132 
		C0 233 
		T0 77 
		P 149 
		N 133 
		C0 234 
		T0 78 
		P 135 
		N 133 
		C0 235 
		T0 66 
		P 134 
		N 134 
		C0 236 
		T0 63 
		P 150 
		N 134 
		C0 237 
		T0 79 
		P 151 
		N 135 
		C0 238 
		T0 80 
		P 152 
		N 136 
		C0 239 
		T0 83 
		P 153 
		N 136 
		C0 240 
		T0 82 
		P 154 
		N 135 
		C0 241 
		T0 81 
		P 155 
		N 137 
		C0 242 
		T0 84 
		P 149 
		N 138 
		C0 243 
		T0 78 
		P 150 
		N 139 
		C0 244 
		T0 79 
		P 156 
		N 140 
		C0 245 
		T0 85 
		P 153 
		N 141 
		C0 246 
		T0 82 
		P 157 
		N 142 
		C0 247 
		T0 86 
		P 158 
		N 143 
		C0 248 
		T0 88 
		P 159 
		N 144 
		C0 249 
		T0 87 
		P 154 
		N 145 
		C0 250 
		T0 81 
		P 160 
		N 146 
		C0 251 
		T0 89 
		P 161 
		N 147 
		C0 252 
		T0 90 
		P 162 
		N 148 
		C0 253 
		T0 91 
		P 163 
		N 149 
		C0 254 
		T0 93 
		P 164 
		N 150 
		C0 255 
		T0 92 
		P 165 
		N 125 
		C0 256 
		T0 94 
		P 163 
		N 149 
		C0 257 
		T0 95 
		P 166 
		N 125 
		C0 258 
		T0 96 
		P 167 
		N 125 
		C0 259 
		T0 97 
		P 162 
		N 148 
		C0 260 
		T0 98 
		P 112 
		N 120 
		C0 261 
		T0 12 
		P 133 
		N 120 
		C0 262 
		T0 99 
		P 104 
		N 96 
		C0 263 
		T0 13 
		P 114 
		N 96 
		C0 264 
		T0 13 
		P 113 
		N 118 
		C0 265 
		T0 3 
		P 131 
		N 117 
		C0 266 
		T0 3 
		P 144 
		N 128 
		C0 267 
		T0 135 
		P 163 
		N 149 
		C0 268 
		T0 134 
		P 143 
		N 127 
		C0 269 
		T0 100 
		P 144 
		N 128 
		C0 270 
		T0 101 
		P 148 
		N 132 
		C0 271 
		T0 102 
		P 120 
		N 106 
		C0 272 
		T0 104 
		P 119 
		N 105 
		C0 273 
		T0 103 
		P 121 
		N 107 
		C0 274 
		T0 105 
		P 122 
		N 108 
		C0 275 
		T0 106 
		P 123 
		N 109 
		C0 276 
		T0 107 
		P 124 
		N 110 
		C0 277 
		T0 108 
		P 125 
		N 111 
		C0 278 
		T0 109 
		P 126 
		N 112 
		C0 279 
		T0 110 
		P 127 
		N 113 
		C0 280 
		T0 111 
		P 128 
		N 114 
		C0 281 
		T0 112 
		P 127 
		N 114 
		C0 282 
		T0 111 
		P 129 
		N 115 
		C0 283 
		T0 113 
		P 128 
		N 115 
		C0 284 
		T0 112 
		P 135 
		N 151 
		C0 285 
		T0 66 
		P 149 
		N 151 
		C0 286 
		T0 78 
		P 106 
		N 152 
		C0 287 
		T0 4 
		P 168 
		N 152 
		C0 288 
		T0 114 
		P 169 
		N 153 
		C0 289 
		T0 115 
		P 109 
		N 153 
		C0 290 
		T0 5 
		P 108 
		N 154 
		C0 291 
		T0 6 
		P 170 
		N 154 
		C0 292 
		T0 116 
		P 141 
		N 155 
		C0 293 
		T0 70 
		P 171 
		N 156 
		C0 294 
		T0 117 
		P 161 
		N 157 
		C0 295 
		T0 90 
		P 165 
		N 158 
		C0 296 
		T0 94 
		P 172 
		N 158 
		C0 297 
		T0 118 
		P 166 
		N 159 
		C0 298 
		T0 96 
		P 173 
		N 159 
		C0 299 
		T0 119 
		P 167 
		N 160 
		C0 300 
		T0 97 
		P 174 
		N 160 
		C0 301 
		T0 120 
		P 130 
		N 161 
		C0 302 
		T0 57 
		P 175 
		N 161 
		C0 303 
		T0 121 
		P 176 
		N 162 
		C0 304 
		T0 122 
		P 132 
		N 162 
		C0 305 
		T0 58 
		P 177 
		N 163 
		C0 306 
		T0 123 
		P 178 
		N 164 
		C0 307 
		T0 124 
		P 179 
		N 165 
		C0 308 
		T0 124 
		P 180 
		N 166 
		C0 309 
		T0 126 
		P 181 
		N 167 
		C0 310 
		T0 125 
		P 182 
		N 168 
		C0 311 
		T0 127 
		P 183 
		N 169 
		C0 312 
		T0 127 
		P 184 
		N 170 
		C0 313 
		T0 128 
		P 185 
		N 171 
		C0 314 
		T0 128 
		P 177 
		N 163 
		C0 315 
		T0 129 
		P 185 
		N 171 
		C0 316 
		T0 132 
		P 182 
		N 168 
		C0 317 
		T0 131 
		P 180 
		N 166 
		C0 318 
		T0 130 
		P 179 
		N 165 
		C0 319 
		T0 133 
		P 78 
		N 172 
		C0 320 
		T0 91 
		P 48 
		N 172 
		C0 321 
		T0 136 
		P 131 
		N 173 
		C0 322 
		T0 136 
		P 162 
		N 173 
		C0 323 
		T0 91 
		P 186 
		N 174 
		C0 324 
		T0 137 
		P 187 
		N 175 
		C0 325 
		T0 138 
		P 188 
		N 175 
		C0 326 
		T0 139 
		P 189 
		N 174 
		C0 327 
		T0 140 
		P 190 
		N 176 
		C0 328 
		T0 141 
		P 191 
		N 176 
		C0 329 
		T0 142 
		P 192 
		N 177 
		C0 330 
		T0 137 
		P 193 
		N 177 
		C0 331 
		T0 140 
		P 194 
		N 178 
		C0 332 
		T0 139 
		P 195 
		N 178 
		C0 333 
		T0 138 
		P 196 
		N 179 
		C0 334 
		T0 141 
		P 197 
		N 179 
		C0 335 
		T0 142 
		P 4 
		N 180 
		C0 336 
		T0 143 
		P 84 
		N 180 
		C0 337 
		T0 144 
		P 198 
		N 180 
		C0 338 
		T0 145 
		P 199 
		N 181 
		C0 339 
		T0 146 
		P 85 
		N 182 
		C0 340 
		T0 147 
		P 5 
		N 180 
		C0 341 
		T0 148 
		P 11 
		N 183 
		C0 342 
		T0 149 
		P 49 
		N 183 
		C0 343 
		T0 150 
		P 47 
		N 183 
		C0 344 
		T0 151 
		P 200 
		N 184 
		C0 345 
		T0 152 
		P 47 
		N 185 
		C0 346 
		T0 151 
		P 92 
		N 186 
		C0 347 
		T0 153 
		P 201 
		N 187 
		C0 348 
		T0 154 
		P 67 
		N 188 
		C0 349 
		T0 155 
		P 70 
		N 189 
		C0 350 
		T0 156 
		P 53 
		N 190 
		C0 351 
		T0 157 
		P 202 
		N 191 
		C0 352 
		T0 158 
		P 56 
		N 192 
		C0 353 
		T0 159 
		P 75 
		N 193 
		C0 354 
		T0 160 
		P 54 
		N 194 
		C0 355 
		T0 161 
		P 198 
		N 195 
		C0 356 
		T0 145 
		P 84 
		N 196 
		C0 357 
		T0 144 
		P 86 
		N 197 
		C0 358 
		T0 162 
		P 203 
		N 198 
		C0 359 
		T0 163 
		P 87 
		N 199 
		C0 360 
		T0 164 
		P 88 
		N 200 
		C0 361 
		T0 165 
		P 204 
		N 201 
		C0 362 
		T0 166 
		P 90 
		N 202 
		C0 363 
		T0 167 
		P 89 
		N 203 
		C0 364 
		T0 168 
		P 91 
		N 204 
		C0 365 
		T0 169 
		P 52 
		N 205 
		C0 366 
		T0 170 
		P 205 
		N 206 
		C0 367 
		T0 171 
		P 11 
		N 207 
		C0 368 
		T0 149 
		P 47 
		N 207 
		C0 369 
		T0 151 
		P 200 
		N 208 
		C0 370 
		T0 152 
		P 8 
		N 208 
		C0 371 
		T0 172 
		P 52 
		N 209 
		C0 372 
		T0 170 
		P 51 
		N 209 
		C0 373 
		T0 173 
		P 44 
		N 209 
		C0 374 
		T0 174 
		P 205 
		N 209 
		C0 375 
		T0 171 
		P 45 
		N 209 
		C0 376 
		T0 175 
		P 199 
		N 210 
		C0 377 
		T0 146 
		P 206 
		N 211 
		C0 378 
		T0 176 
		P 205 
		N 212 
		C0 379 
		T0 171 
		P 44 
		N 212 
		C0 380 
		T0 174 
		P 106 
		N 180 
		C0 381 
		T0 177 
		P 207 
		N 180 
		C0 382 
		T0 178 
		P 168 
		N 180 
		C0 383 
		T0 179 
		P 208 
		N 213 
		C0 384 
		T0 180 
		P 109 
		N 180 
		C0 385 
		T0 181 
		P 169 
		N 182 
		C0 386 
		T0 182 
		P 110 
		N 214 
		C0 387 
		T0 183 
		P 132 
		N 214 
		C0 388 
		T0 184 
		P 133 
		N 214 
		C0 389 
		T0 185 
		P 209 
		N 215 
		C0 390 
		T0 186 
		P 176 
		N 186 
		C0 391 
		T0 187 
		P 132 
		N 185 
		C0 392 
		T0 184 
		P 210 
		N 216 
		C0 393 
		T0 188 
		P 135 
		N 217 
		C0 394 
		T0 189 
		P 152 
		N 218 
		C0 395 
		T0 190 
		P 151 
		N 219 
		C0 396 
		T0 191 
		P 211 
		N 220 
		C0 397 
		T0 192 
		P 158 
		N 221 
		C0 398 
		T0 193 
		P 139 
		N 222 
		C0 399 
		T0 194 
		P 138 
		N 223 
		C0 400 
		T0 195 
		P 207 
		N 224 
		C0 401 
		T0 178 
		P 168 
		N 225 
		C0 402 
		T0 179 
		P 170 
		N 226 
		C0 403 
		T0 196 
		P 212 
		N 227 
		C0 404 
		T0 197 
		P 171 
		N 228 
		C0 405 
		T0 198 
		P 172 
		N 229 
		C0 406 
		T0 199 
		P 213 
		N 230 
		C0 407 
		T0 200 
		P 173 
		N 231 
		C0 408 
		T0 201 
		P 174 
		N 232 
		C0 409 
		T0 202 
		P 175 
		N 233 
		C0 410 
		T0 203 
		P 214 
		N 234 
		C0 411 
		T0 204 
		P 136 
		N 205 
		C0 412 
		T0 205 
		P 110 
		N 207 
		C0 413 
		T0 183 
		P 8 
		N 235 
		C0 414 
		T0 172 
		P 209 
		N 235 
		C0 415 
		T0 186 
		P 132 
		N 207 
		C0 416 
		T0 184 
		P 136 
		N 209 
		C0 417 
		T0 205 
		P 214 
		N 209 
		C0 418 
		T0 204 
		P 137 
		N 209 
		C0 419 
		T0 206 
		P 129 
		N 209 
		C0 420 
		T0 207 
		P 208 
		N 236 
		C0 421 
		T0 180 
		P 215 
		N 237 
		C0 422 
		T0 208 
		P 44 
		N 238 
		C0 423 
		T0 174 
		P 214 
		N 238 
		C0 424 
		T0 204 
	}

	Mtl 4 { 
		{
			Name "#2" 
			Priority 32 
			Prim 38 { 
				{
					Type TRISTRIP
					Priority 32 
					Idx 6 { 58 59 57 56 208 207 }
				}
				{
					Type TRISTRIP
					Priority 32 
					Idx 6 { 62 63 61 60 210 209 }
				}
				{
					Type TRISTRIP
					Priority 32 
					Idx 5 { 170 171 169 172 173 }
				}
				{
					Type TRISTRIP2
					Priority 32 
					Idx 10 { 125 86 126 84 127 85 80 84 83 86 }
				}
				{
					Type TRISTRIP2
					Priority 32 
					Idx 5 { 318 317 315 316 319 }
				}
				{
					Type TRISTRIP
					Priority 32 
					Idx 6 { 218 219 217 220 284 283 }
				}
				{
					Type TRISTRIP
					Priority 32 
					Idx 6 { 234 235 237 236 282 281 }
				}
				{
					Type TRISTRIP
					Priority 32 
					Idx 21 { 83 80 82 81 82 105 82 109 110 111 110 112 110 64 113 64 67 65 66 68 69 }
				}
				{
					Type TRISTRIP2
					Priority 32 
					Idx 13 { 271 269 194 193 30 27 31 28 124 28 122 29 123 }
				}
				{
					Type TRISTRIP
					Priority 32 
					Idx 9 { 270 269 192 193 192 27 26 28 29 }
				}
				{
					Type TRISTRIP2
					Priority 32 
					Idx 11 { 267 268 191 190 191 22 23 25 24 121 120 }
				}
				{
					Type TRISTRIP
					Priority 32 
					Idx 11 { 15 12 14 13 17 16 186 187 186 184 185 }
				}
				{
					Type TRISTRIP2
					Priority 32 
					Idx 10 { 118 117 119 116 159 3 0 3 1 2 }
				}
				{
					Type TRISTRIP2
					Priority 32 
					Idx 11 { 1 21 0 18 159 175 264 263 264 266 265 }
				}
				{
					Type TRISTRIP
					Priority 32 
					Idx 13 { 253 254 255 189 188 189 18 19 21 20 107 108 106 }
				}
				{
					Type TRISTRIP2
					Priority 32 
					Idx 9 { 175 18 174 188 174 177 174 176 175 }
				}
				{
					Type TRISTRIP
					Priority 32 
					Idx 11 { 262 261 182 183 182 9 8 10 11 114 115 }
				}
				{
					Type TRISTRIP2
					Priority 32 
					Idx 18 { 288 287 221 224 221 223 222 247 248 230 248 249 238 241 239 240 285 286 }
				}
				{
					Type TRISTRIP2
					Priority 32 
					Idx 9 { 204 50 205 51 206 51 54 52 55 }
				}
				{
					Type TRISTRIP
					Priority 32 
					Idx 4 { 52 53 51 50 }
				}
				{
					Type TRISTRIP
					Priority 32 
					Idx 9 { 201 202 44 45 47 45 46 48 49 }
				}
				{
					Type TRISTRIP2
					Priority 32 
					Idx 4 { 48 203 45 202 }
				}
				{
					Type TRISTRIP2
					Priority 32 
					Idx 9 { 198 38 199 39 200 39 42 40 43 }
				}
				{
					Type TRISTRIP
					Priority 32 
					Idx 4 { 40 41 39 38 }
				}
				{
					Type TRISTRIP
					Priority 32 
					Idx 9 { 195 196 32 33 35 33 34 36 37 }
				}
				{
					Type TRISTRIP2
					Priority 32 
					Idx 4 { 36 197 33 196 }
				}
				{
					Type TRISTRIP2
					Priority 32 
					Idx 17 { 141 140 75 74 76 77 100 102 101 102 92 91 93 94 93 139 138 }
				}
				{
					Type TRISTRIP
					Priority 32 
					Idx 7 { 136 137 70 71 70 72 73 }
				}
				{
					Type TRISTRIP2
					Priority 32 
					Idx 32 { 5 4 6 7 78 79 105 100 81 101 103 104 99 98 95 97 95 96 95 133 95 132 99 131 103 130 81 129 81 128 80 127 }
				}
				{
					Type TRISTRIP2
					Priority 32 
					Idx 7 { 87 90 88 89 88 135 134 }
				}
				{
					Type TRISTRIP
					Priority 32 
					Idx 21 { 280 279 244 242 243 242 246 245 250 251 249 251 230 251 276 251 277 245 278 242 279 }
				}
				{
					Type TRISTRIP2
					Priority 32 
					Idx 16 { 276 230 275 227 274 232 272 231 273 231 233 231 228 231 227 232 }
				}
				{
					Type TRISTRIP2
					Priority 32 
					Idx 14 { 228 227 229 230 252 247 252 225 226 179 180 179 181 178 }
				}
				{
					Type TRISTRIP2
					Priority 32 
					Idx 14 { 308 307 306 310 309 310 311 312 314 312 313 312 307 310 }
				}
				{
					Type TRISTRIP2
					Priority 32 
					Idx 17 { 252 256 229 256 257 258 257 259 257 211 260 211 212 214 213 216 215 }
				}
				{
					Type TRISTRIP
					Priority 32 
					Idx 14 { 161 162 160 163 164 163 165 166 168 166 167 166 162 163 }
				}
				{
					Type TRISTRIP
					Priority 32 
					Idx 19 { 305 304 302 303 300 301 298 299 298 297 296 294 295 294 293 292 291 289 290 }
				}
				{
					Type TRISTRIP2
					Priority 32 
					Idx 19 { 158 157 156 155 153 154 151 152 151 149 150 146 148 146 147 143 144 142 145 }
				}
			}

		}
		{
			Name "#3" 
			Priority 32 
			Prim 4 { 
				{
					Type TRISTRIP
					Priority 32 
					Idx 4 { 321 2 320 1 }
				}
				{
					Type TRISTRIP
					Priority 32 
					Idx 4 { 106 1 107 21 }
				}
				{
					Type TRISTRIP
					Priority 32 
					Idx 4 { 322 323 176 177 }
				}
				{
					Type TRISTRIP
					Priority 32 
					Idx 4 { 253 255 177 188 }
				}
			}

		}
		{
			Name "#3" 
			Priority 32 
			Prim 2 { 
				{
					Type TRISTRIP
					Priority 32 
					Idx 7 { 335 331 334 331 330 332 333 }
				}
				{
					Type TRISTRIP2
					Priority 32 
					Idx 6 { 326 325 327 324 329 328 }
				}
			}

		}
		{
			Name "#4" 
			Priority 32 
			Prim 12 { 
				{
					Type TRISTRIP
					Priority 32 
					Idx 5 { 375 372 374 373 376 }
				}
				{
					Type TRISTRIP2
					Priority 32 
					Idx 5 { 420 374 419 418 417 }
				}
				{
					Type TRISTRIP
					Priority 32 
					Idx 10 { 379 380 338 378 377 371 370 371 369 368 }
				}
				{
					Type TRISTRIP
					Priority 32 
					Idx 11 { 423 424 422 382 422 421 414 415 414 416 413 }
				}
				{
					Type TRISTRIP2
					Priority 32 
					Idx 22 { 383 382 381 384 385 384 386 404 403 404 405 404 406 407 408 407 409 407 410 390 391 392 }
				}
				{
					Type TRISTRIP2
					Priority 32 
					Idx 4 { 384 390 404 407 }
				}
				{
					Type TRISTRIP2
					Priority 32 
					Idx 23 { 337 336 338 336 339 341 339 340 339 358 359 360 359 361 362 364 362 363 362 365 345 347 346 }
				}
				{
					Type TRISTRIP
					Priority 32 
					Idx 4 { 339 345 359 362 }
				}
				{
					Type TRISTRIP
					Priority 32 
					Idx 19 { 366 367 351 348 350 348 349 348 354 352 353 352 355 352 357 352 356 348 367 }
				}
				{
					Type TRISTRIP2
					Priority 32 
					Idx 21 { 402 400 401 400 397 399 397 398 397 396 397 393 401 393 411 393 412 393 394 396 395 }
				}
				{
					Type TRISTRIP
					Priority 32 
					Idx 3 { 344 342 343 }
				}
				{
					Type TRISTRIP2
					Priority 32 
					Idx 3 { 387 389 388 }
				}
			}

		}
	}

	Offset 0 
}
