{
	Skinned 0 
	PosSkin 0 
	Pos 174 { 
		0.955262	0.905413	5.560699 
		1.088290	0.905501	5.549037 
		1.088799	1.202131	5.564998 
		0.950340	1.202107	5.577139 
		1.074038	2.649382	-4.306202 
		0.989312	2.669423	-4.318146 
		0.989359	2.669254	-2.419221 
		1.074608	2.647299	-2.419221 
		1.142701	2.597124	-4.434897 
		1.056081	2.609091	-4.466722 
		1.164702	2.500880	-4.528069 
		1.081975	2.499433	-4.572880 
		1.169745	1.300732	-4.559800 
		1.088096	1.300506	-4.617122 
		1.168727	0.642897	-4.562256 
		1.088097	0.672993	-4.619459 
		1.088097	0.642424	-4.738078 
		1.168727	0.379082	-4.560256 
		1.088097	0.379058	-4.724202 
		0.006536	2.700702	-4.386753 
		-0.962124	2.669174	-4.318146 
		-0.962170	2.669006	-2.419221 
		0.006536	2.700530	-2.419221 
		0.006536	2.640371	-4.535329 
		-1.066639	2.499185	-4.572882 
		-1.028894	2.608843	-4.466723 
		0.006536	2.516064	-4.627027 
		0.006536	1.300506	-4.685729 
		-1.086139	0.672992	-4.619459 
		-1.086139	1.289582	-4.617122 
		0.006536	0.672993	-4.688066 
		0.006536	0.642423	-4.806684 
		-1.086139	0.642423	-4.738079 
		-1.086138	0.379058	-4.724203 
		0.006536	0.379058	-4.792809 
		-1.046850	2.649134	-4.306201 
		-1.047420	2.647051	-2.419221 
		-1.115513	2.596876	-4.434898 
		-1.149366	2.500633	-4.528070 
		-1.167786	1.300731	-4.559800 
		-1.168665	0.642896	-4.562258 
		-1.168665	0.379159	-4.557385 
		-1.168666	0.376479	-3.050810 
		-1.168666	0.724110	-3.027565 
		-1.168666	1.040690	-2.811626 
		-1.168666	0.713670	-1.842749 
		-1.168666	0.265087	-1.807678 
		-1.168667	0.265088	1.827635 
		-1.168667	0.696403	1.857029 
		1.168727	0.724110	-3.027565 
		1.168727	0.376479	-3.050809 
		1.168727	1.041605	-2.811474 
		1.168726	0.762368	5.485751 
		1.168725	0.458087	5.490151 
		1.168726	0.264545	3.022578 
		1.168726	0.743406	2.961719 
		1.142885	2.596490	-2.419221 
		1.168727	0.717883	-1.842748 
		1.168726	0.696825	1.857781 
		1.168726	0.265088	1.827445 
		1.168727	0.265087	-1.807678 
		1.168726	1.143200	2.403438 
		1.168726	0.992956	1.993186 
		1.168727	1.035296	-2.076417 
		1.168727	1.140766	-2.415917 
		-1.168667	0.992908	1.993316 
		-1.168666	1.034526	-2.077765 
		-1.168666	1.140766	-2.415919 
		-1.167854	0.458061	5.487177 
		-1.168667	0.762367	5.485752 
		-1.168667	0.741569	2.962535 
		-1.168667	0.264711	3.023487 
		0.006535	2.699836	5.505055 
		-0.962363	2.668308	5.454389 
		-1.030280	2.601640	5.520594 
		0.006535	2.633025	5.586550 
		-1.085843	1.402077	5.575756 
		0.006534	1.402077	5.641714 
		1.169487	1.398600	5.500756 
		1.143604	2.594011	5.466171 
		1.047448	2.601617	5.520593 
		1.089143	1.402077	5.575756 
		-1.116416	2.593764	5.466169 
		-1.169087	1.398419	5.500589 
		-1.049785	2.638407	5.411010 
		-1.115697	2.596242	-2.419221 
		-1.168667	1.010105	2.804466 
		-1.168667	1.143856	2.403969 
		1.076973	2.638655	5.410481 
		0.989550	2.668556	5.454388 
		1.168726	1.011036	2.802187 
		0.989476	2.668826	2.402243 
		0.006536	2.700108	2.402244 
		1.088096	0.792463	5.542955 
		1.168726	0.764118	5.573418 
		1.088096	0.761895	5.661574 
		-1.085940	1.202064	5.564993 
		-1.086086	0.902103	5.548852 
		-1.086139	0.792463	5.542953 
		-1.168667	0.764118	5.573417 
		-1.086139	0.761894	5.661573 
		0.957136	0.792463	5.554440 
		0.006534	0.761894	5.756432 
		0.006534	0.792463	5.637813 
		-0.945568	0.792463	5.555156 
		1.088096	0.471757	5.663632 
		1.168725	0.464430	5.579199 
		0.006534	0.479281	5.758118 
		-1.086139	0.471756	5.663632 
		0.006534	1.201975	5.640433 
		-0.952362	1.202051	5.576588 
		-0.947386	0.902017	5.560889 
		-1.168667	0.464430	5.579198 
		1.395720	2.042599	-4.573145 
		1.356977	2.042599	-4.557177 
		1.356977	2.393295	-4.557177 
		1.395720	2.429585	-4.573145 
		1.390178	2.042599	-4.531608 
		1.390178	2.429585	-4.531608 
		1.099428	2.393295	-4.600700 
		1.069529	2.429585	-4.616668 
		1.063987	2.429585	-4.575132 
		1.099428	2.260822	-4.600700 
		1.069529	2.260822	-4.616668 
		1.063987	2.260822	-4.575132 
		1.287321	2.333290	-4.499490 
		1.287321	1.871761	-4.503407 
		1.459452	1.871761	-4.503407 
		1.459452	2.333290	-4.499490 
		1.320586	2.207050	-4.535730 
		1.426187	2.207050	-4.535730 
		1.426187	2.000087	-4.537486 
		1.320586	2.000085	-4.537486 
		-1.345402	2.393295	-4.557177 
		-1.345402	2.042599	-4.557177 
		-1.384145	2.042599	-4.573145 
		-1.384145	2.429585	-4.573146 
		-1.378603	2.429585	-4.531610 
		-1.378603	2.042599	-4.531610 
		-1.087855	2.393295	-4.600700 
		-1.057954	2.429585	-4.616668 
		-1.052412	2.429585	-4.575132 
		-1.087855	2.260822	-4.600700 
		-1.057954	2.260822	-4.616668 
		-1.052412	2.260822	-4.575132 
		-1.447878	1.871761	-4.503407 
		-1.275747	1.871761	-4.503407 
		-1.275747	2.333290	-4.499490 
		-1.447878	2.333290	-4.499490 
		-1.414614	2.000085	-4.537488 
		-1.414614	2.207050	-4.535730 
		-1.309011	2.207050	-4.535730 
		-1.309011	2.000085	-4.537488 
		1.076064	2.641976	2.402243 
		-0.962288	2.668579	2.402243 
		-1.048876	2.641728	2.402243 
		1.143324	2.594975	2.402244 
		-1.116136	2.594727	2.402244 
		0.780973	0.376479	-3.050811 
		-0.802386	0.376479	-3.050810 
		-0.460559	0.264711	3.023488 
		-0.460559	1.191086	2.936219 
		-0.460559	1.166637	1.870603 
		-0.460559	0.265088	1.827635 
		0.445520	1.189932	2.937372 
		0.445520	0.264545	3.022578 
		0.445521	0.265088	1.827444 
		0.445521	1.167015	1.870156 
		0.780972	0.265087	-1.807677 
		0.780973	1.207933	-3.015201 
		0.780973	1.184978	-1.852170 
		-0.802386	0.265087	-1.807678 
		-0.802386	1.184452	-1.851813 
		-0.802386	1.207267	-3.013956 
	}

	Nrm 186 { 
		0.078125	-0.046875	1.000000 
		0.359375	-0.046875	0.937500 
		0.390625	-0.046875	0.921875 
		0.078125	-0.031250	1.000000 
		0.375000	0.921875	-0.093750 
		0.140625	0.984375	-0.156250 
		0.140625	0.984375	0.000000 
		0.421875	0.906250	0.000000 
		0.609375	0.750000	-0.250000 
		0.171875	0.828125	-0.531250 
		0.843750	0.281250	-0.437500 
		0.265625	0.390625	-0.890625 
		0.921875	0.015625	-0.375000 
		0.312500	0.015625	-0.953125 
		0.937500	0.000000	-0.343750 
		0.328125	0.000000	-0.937500 
		0.250000	0.937500	-0.234375 
		0.468750	0.859375	-0.218750 
		0.968750	0.000000	-0.218750 
		0.562500	-0.031250	-0.828125 
		0.000000	0.984375	-0.187500 
		-0.140625	0.968750	-0.156250 
		-0.140625	0.984375	0.000000 
		0.000000	1.000000	0.000000 
		0.000000	0.812500	-0.578125 
		-0.265625	0.390625	-0.875000 
		-0.171875	0.843750	-0.515625 
		0.000000	0.359375	-0.937500 
		0.000000	0.015625	-1.000000 
		-0.328125	0.000000	-0.937500 
		-0.312500	0.015625	-0.953125 
		0.000000	0.000000	-1.000000 
		0.000000	0.968750	-0.250000 
		-0.250000	0.937500	-0.234375 
		-0.562500	-0.046875	-0.828125 
		0.000000	-0.046875	-1.000000 
		-0.375000	0.921875	-0.093750 
		-0.421875	0.906250	0.000000 
		-0.593750	0.765625	-0.250000 
		-0.828125	0.328125	-0.437500 
		-0.921875	0.015625	-0.375000 
		-0.937500	0.000000	-0.343750 
		-0.468750	0.859375	-0.218750 
		-0.968750	-0.015625	-0.218750 
		-1.000000	0.000000	0.000000 
		1.000000	0.000000	0.000000 
		0.937500	-0.015625	0.359375 
		0.921875	0.375000	0.000000 
		1.000000	0.015625	0.000000 
		-1.000000	0.015625	0.000000 
		-0.937500	-0.015625	0.359375 
		0.000000	0.937500	0.343750 
		-0.203125	0.937500	0.265625 
		-0.328125	0.500000	0.812500 
		0.000000	0.437500	0.906250 
		-0.312500	0.000000	0.953125 
		0.000000	0.015625	1.000000 
		0.906250	0.000000	0.421875 
		0.765625	0.531250	0.359375 
		0.312500	0.484375	0.812500 
		0.312500	0.000000	0.953125 
		-0.765625	0.531250	0.343750 
		-0.906250	0.000000	0.421875 
		-0.421875	0.890625	0.125000 
		-0.906250	0.406250	0.000000 
		0.421875	0.890625	0.125000 
		0.203125	0.937500	0.281250 
		0.171875	0.984375	0.000000 
		0.343750	-0.046875	0.937500 
		0.281250	0.953125	0.125000 
		0.156250	0.968750	0.187500 
		0.109375	0.968750	0.218750 
		-0.375000	-0.046875	0.921875 
		-0.343750	-0.046875	0.937500 
		-0.328125	-0.046875	0.937500 
		-0.156250	0.968750	0.187500 
		-0.281250	0.953125	0.140625 
		-0.109375	0.968750	0.218750 
		0.015625	0.968750	0.250000 
		0.000000	0.968750	0.250000 
		-0.015625	0.968750	0.250000 
		0.437500	0.015625	0.906250 
		0.937500	0.000000	0.359375 
		0.000000	0.000000	1.000000 
		-0.437500	0.015625	0.906250 
		0.093750	-0.046875	1.000000 
		0.000000	-0.046875	1.000000 
		0.000000	-0.031250	1.000000 
		-0.078125	-0.031250	1.000000 
		-0.078125	-0.046875	1.000000 
		-0.921875	0.000000	0.375000 
		0.437500	-0.703125	-0.562500 
		-0.703125	-0.703125	-0.093750 
		-0.687500	-0.703125	-0.156250 
		0.390625	0.296875	-0.875000 
		0.265625	-0.703125	0.656250 
		0.140625	0.234375	0.968750 
		0.734375	-0.671875	-0.109375 
		-0.187500	0.281250	-0.937500 
		-0.328125	0.265625	0.906250 
		0.718750	-0.687500	-0.046875 
		-0.343750	-0.656250	-0.671875 
		-0.312500	-0.781250	0.531250 
		0.000000	-0.015625	1.000000 
		-0.265625	0.109375	-0.953125 
		0.265625	0.109375	-0.953125 
		0.265625	-0.093750	-0.953125 
		-0.265625	-0.093750	-0.953125 
		-0.406250	0.156250	-0.906250 
		0.406250	0.156250	-0.906250 
		0.390625	-0.140625	-0.906250 
		-0.390625	-0.140625	-0.906250 
		0.687500	-0.703125	-0.156250 
		0.703125	-0.703125	-0.093750 
		-0.437500	-0.703125	-0.562500 
		-0.390625	0.296875	-0.875000 
		-0.140625	0.234375	0.968750 
		-0.265625	-0.703125	0.656250 
		-0.734375	-0.671875	-0.109375 
		0.187500	0.281250	-0.937500 
		0.328125	0.265625	0.906250 
		-0.718750	-0.687500	-0.046875 
		0.343750	-0.656250	-0.671875 
		0.312500	-0.781250	0.531250 
		-0.093750	-0.046875	1.000000 
		0.437500	0.890625	0.000000 
		-0.171875	0.984375	0.000000 
		-0.437500	0.890625	0.000000 
		0.875000	0.468750	0.000000 
		-0.875000	0.484375	0.000000 
		0.156250	0.984375	0.000000 
		0.437500	0.906250	0.000000 
		-0.156250	0.984375	0.000000 
		-0.437500	0.906250	0.000000 
		0.890625	0.468750	0.000000 
		-0.875000	0.468750	0.000000 
		0.000000	-1.000000	0.000000 
		0.000000	-1.000000	-0.031250 
		0.000000	-1.000000	0.078125 
		-0.015625	-1.000000	0.078125 
		0.015625	-1.000000	0.078125 
		-0.703125	-0.078125	-0.703125 
		-0.250000	-0.750000	-0.609375 
		-0.265625	-0.718750	0.656250 
		-0.703125	-0.031250	0.703125 
		0.250000	-0.750000	-0.609375 
		0.703125	-0.078125	-0.703125 
		0.703125	-0.031250	0.703125 
		0.265625	-0.718750	0.640625 
		0.156250	-0.437500	0.890625 
		0.015625	-0.046875	1.000000 
		0.250000	-0.968750	0.031250 
		0.281250	-0.734375	0.609375 
		0.296875	-0.781250	-0.562500 
		0.171875	-0.484375	-0.859375 
		0.015625	-0.109375	-1.000000 
		-0.171875	-0.484375	-0.859375 
		-0.015625	-0.109375	-1.000000 
		-0.234375	-0.968750	0.031250 
		-0.296875	-0.781250	-0.562500 
		-0.281250	-0.750000	0.609375 
		-0.156250	-0.437500	0.890625 
		-0.015625	-0.062500	1.000000 
		0.703125	-0.046875	-0.718750 
		0.703125	-0.031250	0.718750 
		0.125000	-0.765625	0.640625 
		0.125000	-0.750000	-0.656250 
		-0.703125	-0.031250	0.718750 
		-0.703125	-0.046875	-0.718750 
		-0.109375	-0.750000	-0.656250 
		-0.125000	-0.765625	0.640625 
		-0.328125	-0.421875	-0.843750 
		-0.015625	-0.062500	-1.000000 
		-0.468750	-0.890625	-0.015625 
		-0.546875	-0.671875	-0.500000 
		-0.546875	-0.687500	0.468750 
		-0.328125	-0.421875	0.843750 
		-0.015625	-0.046875	1.000000 
		0.343750	-0.406250	-0.843750 
		0.031250	-0.062500	-1.000000 
		0.578125	-0.656250	-0.484375 
		0.484375	-0.875000	-0.015625 
		0.562500	-0.687500	0.468750 
		0.328125	-0.421875	0.843750 
		0.000000	-1.000000	0.046875 
		0.015625	-1.000000	0.062500 
	}

	Cpv 307 { 
		0.500000	0.500000	0.500000	1.000000 
		0.500000	0.500000	0.500000	0.000000 
		0.500000	0.500000	0.404370	0.000000 
		0.500000	0.500000	0.404370	0.000000 
		0.500000	0.463986	0.585359	0.000000 
		0.500000	0.454725	0.576612	0.000000 
		0.382241	0.596388	0.500000	0.000000 
		0.374467	0.576545	0.500000	0.000000 
		0.500000	0.404174	0.631996	0.000000 
		0.500000	0.385673	0.630454	0.000000 
		0.500000	0.454725	0.576612	0.000000 
		0.500000	0.463986	0.585359	0.000000 
		0.500000	0.424228	0.605786	0.000000 
		0.500000	0.424228	0.605786	0.000000 
		0.413614	0.500000	0.500000	0.000000 
		0.413614	0.500000	0.500000	0.000000 
		0.500000	0.500000	0.500000	0.000000 
		0.500000	0.500000	0.500000	0.000000 
		0.500000	0.500000	0.500000	0.000000 
		0.500000	0.500000	0.500000	0.000000 
		0.500000	0.500000	0.583351	0.000000 
		0.358214	0.500000	0.646615	0.000000 
		0.500000	0.500000	0.500000	0.000000 
		0.500000	0.500000	0.583351	0.000000 
		0.500000	0.500000	0.500000	0.000000 
		0.500000	0.500000	0.500000	0.000000 
		0.500000	0.439673	0.500000	0.000000 
		0.500000	0.342344	0.500000	0.000000 
		0.500000	0.500000	0.500000	0.000000 
		0.500000	0.500000	0.500000	0.000000 
		0.500000	0.500000	0.500000	0.000000 
		0.617881	0.500000	0.500000	0.000000 
		0.617881	0.500000	0.500000	0.000000 
		0.500000	0.500000	0.500000	0.000000 
		0.500000	0.500000	0.623652	0.000000 
		0.500000	0.500000	0.500000	0.000000 
		0.500000	0.500000	0.594281	0.000000 
		0.500000	0.500000	0.500000	0.000000 
		0.500000	0.439587	0.643168	0.000000 
		0.500000	0.500000	0.500000	0.000000 
		0.500000	0.500000	0.500000	0.000000 
		0.500000	0.500000	0.500000	0.000000 
		0.500000	0.598111	0.629163	0.000000 
		0.500000	0.500000	0.500000	0.000000 
		0.500000	0.439587	0.643168	0.000000 
		0.500000	0.504173	0.643168	0.000000 
		0.617881	0.439673	0.500000	0.000000 
		0.500000	0.342344	0.500000	0.000000 
		0.617881	0.439673	0.500000	0.000000 
		0.617881	0.439673	0.500000	0.000000 
		0.500000	0.439673	0.500000	0.000000 
		0.617881	0.500000	0.500000	0.000000 
		0.500000	0.500000	0.594281	0.000000 
		0.500000	0.500000	0.500000	0.000000 
		0.500000	0.500000	0.500000	0.000000 
		0.500000	0.598111	0.629163	0.000000 
		0.500000	0.500000	0.500000	0.000000 
		0.500000	0.500000	0.500000	0.000000 
		0.500000	0.500000	0.500000	0.000000 
		0.500000	0.500000	0.500000	0.000000 
		0.500000	0.598111	0.629163	0.000000 
		0.500000	0.500000	0.500000	0.000000 
		0.500000	0.500000	0.594281	0.000000 
		0.500000	0.500000	0.604311	0.000000 
		0.500000	0.500000	0.500000	0.000000 
		0.500000	0.500000	0.500000	0.000000 
		0.500000	0.500000	0.415637	0.000000 
		0.500000	0.500000	0.500000	0.000000 
		0.500000	0.500000	0.500000	0.000000 
		0.500000	0.500000	0.500000	0.000000 
		0.358214	0.500000	0.646615	0.000000 
		0.413614	0.500000	0.500000	0.000000 
		0.560452	0.630760	0.619053	0.000000 
		0.500000	0.500000	0.500000	0.000000 
		0.500000	0.500000	0.500000	0.000000 
		0.500000	0.500000	0.500000	0.000000 
		0.500000	0.500000	0.500000	0.000000 
		0.500000	0.404174	0.631996	0.000000 
		0.360256	0.561626	0.500000	0.000000 
		0.500000	0.424228	0.605786	0.000000 
		0.560452	0.630760	0.619053	0.000000 
		0.500000	0.500000	0.500000	0.000000 
		0.500000	0.500000	0.500000	0.000000 
		0.560452	0.630760	0.619053	0.000000 
		0.500000	0.500000	0.500000	0.000000 
		0.500000	0.500000	0.500000	0.000000 
		0.560452	0.630760	0.619053	0.000000 
		0.560452	0.630760	0.619053	0.000000 
		0.500000	0.497931	0.519506	0.000000 
		0.500000	0.500000	0.690922	0.000000 
		0.500000	0.570618	0.500000	0.000000 
		0.560452	0.630760	0.619053	0.000000 
		0.500000	0.500000	0.299720	0.000000 
		0.500000	0.500000	0.382329	0.000000 
		0.500000	0.672631	0.609697	0.000000 
		0.500000	0.500000	0.500000	0.000000 
		0.500000	0.372976	0.500000	0.000000 
		0.500000	0.500000	0.500000	0.000000 
		0.500000	0.500000	0.500000	0.000000 
		0.500000	0.372976	0.500000	0.000000 
		0.500000	0.500000	0.500000	0.000000 
		0.500000	0.500000	0.391480	0.000000 
		0.500000	0.500000	0.404370	0.000000 
		0.500000	0.422764	0.500000	0.000000 
		0.500000	0.422764	0.500000	0.000000 
		0.500000	0.500000	0.404370	0.000000 
		0.500000	0.500000	0.500000	0.000000 
		0.500000	0.500000	0.500000	0.000000 
		0.500000	0.500000	0.500000	0.000000 
		0.617881	0.439673	0.500000	0.000000 
		0.500000	0.342344	0.500000	0.000000 
		0.617881	0.500000	0.500000	0.000000 
		0.500000	0.500000	0.500000	0.000000 
		0.500000	0.640580	0.564856	0.000000 
		0.500000	0.567923	0.547556	0.000000 
		0.500000	0.422764	0.500000	0.000000 
		0.500000	0.422764	0.500000	0.000000 
		0.500000	0.500000	0.404370	0.000000 
		0.500000	0.500000	0.500000	0.000000 
		0.500000	0.422764	0.500000	0.000000 
		0.497590	0.374889	0.519672	0.000000 
		0.500000	0.573051	0.500000	0.000000 
		0.500000	0.372976	0.500000	0.000000 
		0.500000	0.500000	0.418160	0.000000 
		0.500000	0.500000	0.500000	0.000000 
		0.500000	0.500000	0.500000	0.000000 
		0.500000	0.500000	0.500000	0.000000 
		0.500000	0.500000	0.418160	0.000000 
		0.500000	0.500000	0.418160	0.000000 
		0.500000	0.500000	0.500000	0.000000 
		0.500000	0.500000	0.382329	0.000000 
		0.500000	0.500000	0.500000	0.000000 
		0.500000	0.500000	0.382329	0.000000 
		0.500000	0.500000	0.382329	0.000000 
		0.500000	0.500000	0.382329	0.000000 
		0.500000	0.500000	0.382329	0.000000 
		0.500000	0.500000	0.382329	0.000000 
		0.500000	0.500000	0.418160	0.000000 
		0.500000	0.500000	0.418160	0.000000 
		0.500000	0.500000	0.500000	0.000000 
		0.500000	0.500000	0.473137	0.000000 
		0.500000	0.500000	0.418160	0.000000 
		0.500000	0.500000	0.500000	0.000000 
		0.500000	0.500000	0.500000	0.000000 
		0.500000	0.500000	0.500000	0.000000 
		0.500000	0.500000	0.383554	0.000000 
		0.500000	0.500000	0.418160	0.000000 
		0.500000	0.500000	0.382329	0.000000 
		0.500000	0.500000	0.299720	0.000000 
		0.500000	0.500000	0.418160	0.000000 
		0.500000	0.500000	0.500000	0.000000 
		0.500000	0.571983	0.500000	0.000000 
		0.500000	0.500000	0.500000	0.000000 
		0.500000	0.500000	0.500000	0.000000 
		0.500000	0.500000	0.382329	0.000000 
		0.500000	0.500000	0.299720	0.000000 
		0.500000	0.500000	0.382329	0.000000 
		0.500000	0.500000	0.299720	0.000000 
		0.500000	0.500000	0.500000	0.000000 
		0.500000	0.500000	0.500000	0.000000 
		0.418183	0.501536	0.664478	0.000000 
		0.423469	0.516018	0.669171	0.000000 
		0.438540	0.463239	0.484765	0.000000 
		0.434814	0.443295	0.460988	0.000000 
		0.428793	0.523243	0.658425	0.000000 
		0.445423	0.465003	0.454935	0.000000 
		0.500000	0.424228	0.605786	0.000000 
		0.500000	0.424228	0.605786	0.000000 
		0.500000	0.424228	0.605786	0.000000 
		0.500000	0.424228	0.605786	0.000000 
		0.500000	0.424228	0.605786	0.000000 
		0.500000	0.424228	0.605786	0.000000 
		0.452740	0.468936	0.762907	0.000000 
		0.431923	0.486472	0.642482	0.000000 
		0.426246	0.490882	0.598865	0.000000 
		0.447063	0.394469	0.699117	0.000000 
		0.437120	0.483861	0.723953	0.000000 
		0.433638	0.486567	0.697194	0.000000 
		0.424303	0.494431	0.643192	0.000000 
		0.427785	0.491725	0.669950	0.000000 
		0.452740	0.468936	0.762907	0.000000 
		0.447063	0.394469	0.699117	0.000000 
		0.426246	0.490882	0.598865	0.000000 
		0.431923	0.486472	0.642482	0.000000 
		0.617881	0.500000	0.500000	0.000000 
		0.640428	0.546169	0.661799	0.000000 
		0.637327	0.544681	0.679463	0.000000 
		0.617881	0.500000	0.500000	0.000000 
		0.617881	0.500000	0.500000	0.000000 
		0.653407	0.562304	0.669198	0.000000 
		0.617881	0.500000	0.500000	0.000000 
		0.617881	0.500000	0.500000	0.000000 
		0.617881	0.500000	0.500000	0.000000 
		0.617881	0.500000	0.500000	0.000000 
		0.617881	0.500000	0.500000	0.000000 
		0.617881	0.500000	0.500000	0.000000 
		0.679057	0.604542	0.768819	0.000000 
		0.621312	0.579684	0.704326	0.000000 
		0.642940	0.528134	0.489522	0.000000 
		0.657426	0.552991	0.554014	0.000000 
		0.656232	0.569805	0.703565	0.000000 
		0.646533	0.546689	0.607239	0.000000 
		0.637646	0.531439	0.567673	0.000000 
		0.616452	0.554556	0.663999	0.000000 
		0.657426	0.552991	0.554014	0.000000 
		0.642940	0.528134	0.489522	0.000000 
		0.679057	0.604542	0.768819	0.000000 
		0.621312	0.579684	0.704326	0.000000 
		0.500000	0.500000	0.473137	0.000000 
		0.500000	0.422764	0.500000	0.000000 
		0.497339	0.388429	0.495440	0.000000 
		0.634345	0.506484	0.468983	0.000000 
		0.500000	0.500000	0.500000	0.000000 
		0.647557	0.498191	0.508974	0.000000 
		0.500000	0.500000	0.500000	0.000000 
		0.500000	0.422764	0.500000	0.000000 
		0.502410	0.399753	0.480328	0.000000 
		0.655011	0.493516	0.531017	0.000000 
		0.500000	0.500000	0.500000	0.000000 
		0.497590	0.374889	0.519672	0.000000 
		0.382241	0.596388	0.500000	0.000000 
		0.497339	0.388429	0.495440	0.000000 
		0.374467	0.576545	0.500000	0.000000 
		0.500000	0.342344	0.500000	0.000000 
		0.634345	0.506484	0.468983	0.000000 
		0.500000	0.342344	0.500000	0.000000 
		0.647557	0.498191	0.508974	0.000000 
		0.502410	0.399753	0.480328	0.000000 
		0.360256	0.561626	0.500000	0.000000 
		0.500000	0.342344	0.500000	0.000000 
		0.655011	0.493516	0.531017	0.000000 
		0.500000	0.500000	0.500000	0.000000 
		0.500000	0.500000	0.500000	0.000000 
		0.500000	0.500000	0.500000	0.000000 
		0.358214	0.500000	0.646615	0.000000 
		0.500000	0.500000	0.500000	0.000000 
		0.500000	0.500000	0.500000	0.000000 
		0.500000	0.500000	0.500000	0.000000 
		0.500000	0.504173	0.643168	0.000000 
		0.500000	0.598111	0.629163	0.000000 
		0.500000	0.500000	0.500000	0.000000 
		0.500000	0.500000	0.500000	0.000000 
		0.500000	0.598111	0.629163	0.000000 
		0.500000	0.500000	0.500000	0.000000 
		0.500000	0.500000	0.299720	0.000000 
		0.500000	0.500000	0.299720	0.000000 
		0.500000	0.500000	0.500000	0.000000 
		0.500000	0.660962	0.530908	0.000000 
		0.500000	0.473593	0.551886	0.000000 
		0.500000	0.500000	0.500000	0.000000 
		0.500000	0.500000	0.500000	0.000000 
		0.500000	0.500000	0.500000	0.000000 
		0.500000	0.500000	0.500000	0.000000 
		0.500000	0.500000	0.500000	0.000000 
		0.500000	0.500000	0.415637	0.000000 
		0.500000	0.500000	0.500000	0.000000 
		0.500000	0.567923	0.547556	0.000000 
		0.500000	0.497931	0.519506	0.000000 
		0.500000	0.640580	0.564856	0.000000 
		0.500000	0.672631	0.609697	0.000000 
		0.500000	0.500000	0.500000	0.000000 
		0.500000	0.500000	0.500000	0.000000 
		0.500000	0.500000	0.500000	0.000000 
		0.500000	0.500000	0.500000	0.000000 
		0.500000	0.500000	0.500000	0.000000 
		0.500000	0.500000	0.500000	0.000000 
		0.500000	0.500000	0.500000	0.000000 
		0.500000	0.500000	0.500000	0.000000 
		0.560452	0.630760	0.619053	0.000000 
		0.500000	0.500000	0.500000	0.000000 
		0.500000	0.500000	0.500000	0.000000 
		0.500000	0.500000	0.500000	0.000000 
		0.500000	0.500000	0.500000	0.000000 
		0.500000	0.500000	0.500000	0.000000 
		0.500000	0.500000	0.604311	0.000000 
		0.500000	0.500000	0.500000	0.000000 
		0.560452	0.630760	0.619053	0.000000 
		0.560452	0.630760	0.619053	0.000000 
		0.560452	0.630760	0.619053	0.000000 
		0.560452	0.630760	0.619053	0.000000 
		0.560452	0.630760	0.619053	0.000000 
		0.500000	0.500000	0.500000	0.000000 
		0.500000	0.500000	0.500000	0.000000 
		0.500000	0.500000	0.500000	0.000000 
		0.560452	0.630760	0.619053	0.000000 
		0.500000	0.500000	0.604311	0.000000 
		0.500000	0.500000	0.500000	0.000000 
		0.500000	0.500000	0.690922	0.000000 
		0.500000	0.570618	0.500000	0.000000 
		0.500000	0.500000	0.500000	0.000000 
		0.500000	0.500000	0.500000	0.000000 
		0.500000	0.500000	0.500000	0.000000 
		0.500000	0.500000	0.500000	0.000000 
		0.500000	0.500000	0.500000	0.000000 
		0.560452	0.630760	0.619053	0.000000 
		0.500000	0.500000	0.500000	0.000000 
		0.500000	0.500000	0.500000	0.000000 
		0.500000	0.500000	0.500000	0.000000 
		0.500000	0.500000	0.383554	0.000000 
		0.500000	0.500000	0.500000	0.000000 
		0.500000	0.500000	0.500000	0.000000 
		0.500000	0.500000	0.500000	0.000000 
		0.500000	0.500000	0.500000	0.000000 
		0.500000	0.500000	0.500000	0.000000 
		0.500000	0.500000	0.299720	0.000000 
		0.500000	0.500000	0.299720	0.000000 
		0.500000	0.500000	0.500000	0.000000 
	}

	Tex0 150 { 
		0.954102	0.589844 
		0.982422	0.589844 
		0.982422	0.662109 
		0.953125	0.662109 
		0.028320	0.472656 
		0.026367	0.475586 
		0.213867	0.475586 
		0.213867	0.472656 
		0.005859	0.975586 
		0.024414	0.978516 
		0.039063	0.991211 
		0.020508	0.987305 
		0.000977	0.955078 
		0.018555	0.954102 
		0.000000	0.699219 
		0.017578	0.698242 
		0.000000	0.549805 
		0.017578	0.555664 
		0.000000	0.539063 
		0.017578	0.539063 
		0.000000	0.503906 
		0.017578	0.503906 
		0.019531	0.484375 
		0.213867	0.484375 
		0.249023	0.998047 
		0.249023	0.985352 
		0.478516	0.954102 
		0.469727	0.978516 
		0.249023	0.958008 
		0.249023	0.698242 
		0.482422	0.555664 
		0.482422	0.696289 
		0.249023	0.555664 
		0.249023	0.539063 
		0.482422	0.539063 
		0.482422	0.503906 
		0.249023	0.503906 
		0.488281	0.975586 
		0.473633	0.987305 
		0.456055	0.991211 
		0.496094	0.954102 
		0.500000	0.699219 
		0.500000	0.549805 
		0.500000	0.539063 
		0.500000	0.503906 
		0.151367	0.025391 
		0.154297	0.096680 
		0.002930	0.080078 
		0.002930	0.026367 
		0.175781	0.161133 
		0.002930	0.214844 
		0.271484	0.094727 
		0.274414	0.002930 
		0.633789	0.002930 
		0.636719	0.090820 
		0.994141	0.104492 
		0.995117	0.041992 
		0.750977	0.002930 
		0.745117	0.100586 
		0.015625	0.465820 
		0.213867	0.465820 
		0.005859	0.458984 
		0.690430	0.182617 
		0.649414	0.151367 
		0.248047	0.160156 
		0.214844	0.181641 
		0.750977	0.997070 
		0.543945	0.989258 
		0.529297	0.974609 
		0.750977	0.981445 
		0.517578	0.709961 
		0.750977	0.709961 
		1.000000	0.708984 
		0.994141	0.973633 
		0.973633	0.974609 
		0.982422	0.709961 
		0.511719	0.973633 
		0.500000	0.708984 
		0.525391	0.983398 
		0.996094	0.234375 
		0.729492	0.155273 
		0.980469	0.983398 
		0.961914	0.990234 
		0.991211	0.475586 
		0.690430	0.475586 
		0.690430	0.484375 
		0.996094	0.484375 
		0.982422	0.562500 
		1.000000	0.555664 
		0.990234	0.551758 
		1.000000	0.551758 
		0.982422	0.557617 
		0.982422	0.551758 
		0.517578	0.661133 
		0.500000	0.555664 
		0.517578	0.588867 
		0.517578	0.562500 
		0.517578	0.557617 
		0.500000	0.551758 
		0.509766	0.551758 
		0.517578	0.551758 
		0.955078	0.557617 
		0.750977	0.551758 
		0.750977	0.557617 
		0.547852	0.557617 
		0.982422	0.501953 
		0.990234	0.500977 
		0.750977	0.502930 
		0.517578	0.501953 
		0.955078	0.562500 
		0.750977	0.562500 
		0.750977	0.661133 
		0.545898	0.661133 
		0.547852	0.588867 
		0.509766	0.500977 
		0.500000	0.500000 
		0.998047	0.500000 
		0.998047	0.551758 
		0.287109	0.252930 
		0.217773	0.096680 
		0.130859	0.140625 
		0.547852	0.562500 
		0.987305	0.471680 
		0.690430	0.471680 
		0.993164	0.464844 
		0.690430	0.465820 
		0.165039	1.000000 
		0.165039	0.833984 
		0.006836	0.965820 
		0.022461	1.000000 
		0.205078	0.020508 
		0.006836	0.035156 
		0.165039	0.156250 
		0.165039	0.000000 
		0.022461	0.000000 
		0.283203	0.156250 
		0.283203	0.833984 
		0.627930	1.000000 
		0.627930	0.690430 
		0.283203	1.000000 
		0.283203	0.000000 
		0.627930	0.302734 
		0.627930	0.000000 
		1.000000	0.502930 
		0.741211	0.690430 
		0.741211	1.000000 
		0.991211	0.965820 
		0.741211	0.000000 
		0.741211	0.302734 
		0.991211	0.035156 
	}

	Tex1 0 
	Adj 307 { 
		P 0 
		N 0 
		C0 0 
		T0 0 
		P 1 
		N 1 
		C0 1 
		T0 1 
		P 2 
		N 2 
		C0 2 
		T0 2 
		P 3 
		N 3 
		C0 3 
		T0 3 
		P 4 
		N 4 
		C0 4 
		T0 4 
		P 5 
		N 5 
		C0 5 
		T0 5 
		P 6 
		N 6 
		C0 6 
		T0 6 
		P 7 
		N 7 
		C0 7 
		T0 7 
		P 8 
		N 8 
		C0 8 
		T0 8 
		P 9 
		N 9 
		C0 9 
		T0 9 
		P 5 
		N 5 
		C0 10 
		T0 10 
		P 4 
		N 4 
		C0 11 
		T0 11 
		P 10 
		N 10 
		C0 12 
		T0 12 
		P 11 
		N 11 
		C0 13 
		T0 13 
		P 12 
		N 12 
		C0 14 
		T0 14 
		P 13 
		N 13 
		C0 15 
		T0 15 
		P 14 
		N 14 
		C0 16 
		T0 16 
		P 15 
		N 15 
		C0 17 
		T0 17 
		P 15 
		N 16 
		C0 18 
		T0 17 
		P 14 
		N 17 
		C0 19 
		T0 18 
		P 16 
		N 16 
		C0 20 
		T0 19 
		P 17 
		N 18 
		C0 21 
		T0 20 
		P 18 
		N 19 
		C0 22 
		T0 21 
		P 16 
		N 19 
		C0 23 
		T0 19 
		P 14 
		N 14 
		C0 24 
		T0 18 
		P 19 
		N 20 
		C0 25 
		T0 22 
		P 20 
		N 21 
		C0 26 
		T0 5 
		P 21 
		N 22 
		C0 27 
		T0 6 
		P 22 
		N 23 
		C0 28 
		T0 23 
		P 19 
		N 20 
		C0 29 
		T0 24 
		P 23 
		N 24 
		C0 30 
		T0 25 
		P 24 
		N 25 
		C0 31 
		T0 26 
		P 25 
		N 26 
		C0 32 
		T0 27 
		P 26 
		N 27 
		C0 33 
		T0 28 
		P 27 
		N 28 
		C0 34 
		T0 29 
		P 28 
		N 29 
		C0 35 
		T0 30 
		P 29 
		N 30 
		C0 36 
		T0 31 
		P 30 
		N 31 
		C0 37 
		T0 32 
		P 31 
		N 32 
		C0 38 
		T0 33 
		P 32 
		N 33 
		C0 39 
		T0 34 
		P 28 
		N 33 
		C0 40 
		T0 30 
		P 30 
		N 32 
		C0 41 
		T0 32 
		P 33 
		N 34 
		C0 42 
		T0 35 
		P 32 
		N 34 
		C0 43 
		T0 34 
		P 31 
		N 35 
		C0 44 
		T0 33 
		P 34 
		N 35 
		C0 45 
		T0 36 
		P 35 
		N 36 
		C0 46 
		T0 4 
		P 36 
		N 37 
		C0 47 
		T0 7 
		P 37 
		N 38 
		C0 48 
		T0 37 
		P 35 
		N 36 
		C0 49 
		T0 38 
		P 20 
		N 21 
		C0 50 
		T0 39 
		P 38 
		N 39 
		C0 51 
		T0 40 
		P 39 
		N 40 
		C0 52 
		T0 41 
		P 40 
		N 41 
		C0 53 
		T0 42 
		P 40 
		N 42 
		C0 54 
		T0 43 
		P 41 
		N 43 
		C0 55 
		T0 44 
		P 40 
		N 41 
		C0 56 
		T0 43 
		P 42 
		N 44 
		C0 57 
		T0 45 
		P 43 
		N 44 
		C0 58 
		T0 46 
		P 40 
		N 41 
		C0 59 
		T0 47 
		P 41 
		N 43 
		C0 60 
		T0 48 
		P 44 
		N 44 
		C0 61 
		T0 49 
		P 39 
		N 40 
		C0 62 
		T0 50 
		P 45 
		N 44 
		C0 63 
		T0 51 
		P 46 
		N 44 
		C0 64 
		T0 52 
		P 47 
		N 44 
		C0 65 
		T0 53 
		P 48 
		N 44 
		C0 66 
		T0 54 
		P 14 
		N 14 
		C0 67 
		T0 47 
		P 49 
		N 45 
		C0 68 
		T0 46 
		P 50 
		N 45 
		C0 69 
		T0 45 
		P 17 
		N 18 
		C0 70 
		T0 48 
		P 12 
		N 12 
		C0 71 
		T0 50 
		P 51 
		N 45 
		C0 72 
		T0 49 
		P 52 
		N 46 
		C0 73 
		T0 55 
		P 53 
		N 45 
		C0 74 
		T0 56 
		P 54 
		N 45 
		C0 75 
		T0 57 
		P 55 
		N 45 
		C0 76 
		T0 58 
		P 8 
		N 8 
		C0 77 
		T0 59 
		P 56 
		N 47 
		C0 78 
		T0 60 
		P 10 
		N 10 
		C0 79 
		T0 61 
		P 57 
		N 45 
		C0 80 
		T0 51 
		P 58 
		N 45 
		C0 81 
		T0 54 
		P 59 
		N 45 
		C0 82 
		T0 53 
		P 60 
		N 45 
		C0 83 
		T0 52 
		P 61 
		N 48 
		C0 84 
		T0 62 
		P 62 
		N 45 
		C0 85 
		T0 63 
		P 63 
		N 45 
		C0 86 
		T0 64 
		P 64 
		N 48 
		C0 87 
		T0 65 
		P 65 
		N 44 
		C0 88 
		T0 63 
		P 66 
		N 44 
		C0 89 
		T0 64 
		P 67 
		N 49 
		C0 90 
		T0 65 
		P 64 
		N 45 
		C0 91 
		T0 65 
		P 68 
		N 44 
		C0 92 
		T0 56 
		P 69 
		N 50 
		C0 93 
		T0 55 
		P 70 
		N 44 
		C0 94 
		T0 58 
		P 71 
		N 44 
		C0 95 
		T0 57 
		P 72 
		N 51 
		C0 96 
		T0 66 
		P 73 
		N 52 
		C0 97 
		T0 67 
		P 74 
		N 53 
		C0 98 
		T0 68 
		P 75 
		N 54 
		C0 99 
		T0 69 
		P 76 
		N 55 
		C0 100 
		T0 70 
		P 77 
		N 56 
		C0 101 
		T0 71 
		P 78 
		N 57 
		C0 102 
		T0 72 
		P 79 
		N 58 
		C0 103 
		T0 73 
		P 80 
		N 59 
		C0 104 
		T0 74 
		P 81 
		N 60 
		C0 105 
		T0 75 
		P 82 
		N 61 
		C0 106 
		T0 76 
		P 83 
		N 62 
		C0 107 
		T0 77 
		P 84 
		N 63 
		C0 108 
		T0 78 
		P 37 
		N 38 
		C0 109 
		T0 59 
		P 85 
		N 64 
		C0 110 
		T0 60 
		P 38 
		N 39 
		C0 111 
		T0 61 
		P 83 
		N 62 
		C0 112 
		T0 79 
		P 86 
		N 44 
		C0 113 
		T0 80 
		P 87 
		N 49 
		C0 114 
		T0 62 
		P 88 
		N 65 
		C0 115 
		T0 81 
		P 89 
		N 66 
		C0 116 
		T0 82 
		P 78 
		N 57 
		C0 117 
		T0 79 
		P 90 
		N 45 
		C0 118 
		T0 80 
		P 89 
		N 66 
		C0 119 
		T0 83 
		P 91 
		N 67 
		C0 120 
		T0 84 
		P 92 
		N 23 
		C0 121 
		T0 85 
		P 72 
		N 51 
		C0 122 
		T0 86 
		P 93 
		N 68 
		C0 123 
		T0 87 
		P 52 
		N 46 
		C0 124 
		T0 88 
		P 94 
		N 69 
		C0 125 
		T0 89 
		P 52 
		N 69 
		C0 126 
		T0 90 
		P 93 
		N 70 
		C0 127 
		T0 91 
		P 95 
		N 71 
		C0 128 
		T0 92 
		P 96 
		N 72 
		C0 129 
		T0 93 
		P 69 
		N 50 
		C0 130 
		T0 94 
		P 97 
		N 73 
		C0 131 
		T0 95 
		P 98 
		N 74 
		C0 132 
		T0 96 
		P 98 
		N 75 
		C0 133 
		T0 97 
		P 69 
		N 76 
		C0 134 
		T0 98 
		P 99 
		N 76 
		C0 135 
		T0 99 
		P 100 
		N 77 
		C0 136 
		T0 100 
		P 101 
		N 78 
		C0 137 
		T0 101 
		P 102 
		N 79 
		C0 138 
		T0 102 
		P 103 
		N 79 
		C0 139 
		T0 103 
		P 104 
		N 80 
		C0 140 
		T0 104 
		P 95 
		N 81 
		C0 141 
		T0 92 
		P 105 
		N 81 
		C0 142 
		T0 105 
		P 106 
		N 82 
		C0 143 
		T0 106 
		P 94 
		N 82 
		C0 144 
		T0 89 
		P 107 
		N 83 
		C0 145 
		T0 107 
		P 102 
		N 83 
		C0 146 
		T0 102 
		P 100 
		N 84 
		C0 147 
		T0 100 
		P 108 
		N 84 
		C0 148 
		T0 108 
		P 101 
		N 85 
		C0 149 
		T0 109 
		P 103 
		N 86 
		C0 150 
		T0 110 
		P 109 
		N 87 
		C0 151 
		T0 111 
		P 110 
		N 88 
		C0 152 
		T0 112 
		P 111 
		N 89 
		C0 153 
		T0 113 
		P 99 
		N 90 
		C0 154 
		T0 99 
		P 112 
		N 90 
		C0 155 
		T0 114 
		P 69 
		N 50 
		C0 156 
		T0 98 
		P 68 
		N 44 
		C0 157 
		T0 115 
		P 53 
		N 45 
		C0 158 
		T0 116 
		P 52 
		N 46 
		C0 159 
		T0 117 
		P 113 
		N 91 
		C0 160 
		T0 118 
		P 114 
		N 92 
		C0 161 
		T0 118 
		P 115 
		N 93 
		C0 162 
		T0 118 
		P 116 
		N 94 
		C0 163 
		T0 118 
		P 117 
		N 95 
		C0 164 
		T0 118 
		P 118 
		N 96 
		C0 165 
		T0 118 
		P 119 
		N 97 
		C0 166 
		T0 118 
		P 120 
		N 98 
		C0 167 
		T0 118 
		P 121 
		N 99 
		C0 168 
		T0 118 
		P 122 
		N 100 
		C0 169 
		T0 118 
		P 123 
		N 101 
		C0 170 
		T0 118 
		P 124 
		N 102 
		C0 171 
		T0 118 
		P 125 
		N 103 
		C0 172 
		T0 119 
		P 126 
		N 103 
		C0 173 
		T0 119 
		P 127 
		N 103 
		C0 174 
		T0 119 
		P 128 
		N 103 
		C0 175 
		T0 119 
		P 129 
		N 104 
		C0 176 
		T0 120 
		P 130 
		N 105 
		C0 177 
		T0 120 
		P 131 
		N 106 
		C0 178 
		T0 120 
		P 132 
		N 107 
		C0 179 
		T0 120 
		P 125 
		N 108 
		C0 180 
		T0 120 
		P 128 
		N 109 
		C0 181 
		T0 120 
		P 127 
		N 110 
		C0 182 
		T0 120 
		P 126 
		N 111 
		C0 183 
		T0 120 
		P 133 
		N 112 
		C0 184 
		T0 118 
		P 134 
		N 113 
		C0 185 
		T0 118 
		P 135 
		N 114 
		C0 186 
		T0 118 
		P 136 
		N 115 
		C0 187 
		T0 118 
		P 137 
		N 116 
		C0 188 
		T0 118 
		P 138 
		N 117 
		C0 189 
		T0 118 
		P 139 
		N 118 
		C0 190 
		T0 118 
		P 140 
		N 119 
		C0 191 
		T0 118 
		P 141 
		N 120 
		C0 192 
		T0 118 
		P 142 
		N 121 
		C0 193 
		T0 118 
		P 143 
		N 122 
		C0 194 
		T0 118 
		P 144 
		N 123 
		C0 195 
		T0 118 
		P 145 
		N 103 
		C0 196 
		T0 119 
		P 146 
		N 103 
		C0 197 
		T0 119 
		P 147 
		N 103 
		C0 198 
		T0 119 
		P 148 
		N 103 
		C0 199 
		T0 119 
		P 149 
		N 107 
		C0 200 
		T0 120 
		P 150 
		N 104 
		C0 201 
		T0 120 
		P 151 
		N 105 
		C0 202 
		T0 120 
		P 152 
		N 106 
		C0 203 
		T0 120 
		P 148 
		N 108 
		C0 204 
		T0 120 
		P 147 
		N 109 
		C0 205 
		T0 120 
		P 145 
		N 111 
		C0 206 
		T0 120 
		P 146 
		N 110 
		C0 207 
		T0 120 
		P 104 
		N 124 
		C0 208 
		T0 121 
		P 88 
		N 65 
		C0 209 
		T0 122 
		P 153 
		N 125 
		C0 210 
		T0 123 
		P 154 
		N 126 
		C0 211 
		T0 84 
		P 73 
		N 52 
		C0 212 
		T0 83 
		P 155 
		N 127 
		C0 213 
		T0 123 
		P 84 
		N 63 
		C0 214 
		T0 122 
		P 79 
		N 58 
		C0 215 
		T0 124 
		P 156 
		N 128 
		C0 216 
		T0 125 
		P 157 
		N 129 
		C0 217 
		T0 125 
		P 82 
		N 61 
		C0 218 
		T0 124 
		P 91 
		N 130 
		C0 219 
		T0 84 
		P 6 
		N 130 
		C0 220 
		T0 6 
		P 153 
		N 131 
		C0 221 
		T0 123 
		P 7 
		N 131 
		C0 222 
		T0 7 
		P 21 
		N 132 
		C0 223 
		T0 6 
		P 154 
		N 132 
		C0 224 
		T0 84 
		P 36 
		N 133 
		C0 225 
		T0 7 
		P 155 
		N 133 
		C0 226 
		T0 123 
		P 156 
		N 134 
		C0 227 
		T0 125 
		P 56 
		N 134 
		C0 228 
		T0 60 
		P 85 
		N 135 
		C0 229 
		T0 60 
		P 157 
		N 135 
		C0 230 
		T0 125 
		P 50 
		N 136 
		C0 231 
		T0 126 
		P 158 
		N 137 
		C0 232 
		T0 127 
		P 18 
		N 136 
		C0 233 
		T0 128 
		P 17 
		N 136 
		C0 234 
		T0 129 
		P 54 
		N 138 
		C0 235 
		T0 130 
		P 53 
		N 139 
		C0 236 
		T0 130 
		P 105 
		N 138 
		C0 237 
		T0 130 
		P 34 
		N 136 
		C0 238 
		T0 20 
		P 33 
		N 136 
		C0 239 
		T0 131 
		P 159 
		N 137 
		C0 240 
		T0 132 
		P 42 
		N 136 
		C0 241 
		T0 133 
		P 41 
		N 136 
		C0 242 
		T0 134 
		P 71 
		N 138 
		C0 243 
		T0 130 
		P 108 
		N 138 
		C0 244 
		T0 130 
		P 68 
		N 140 
		C0 245 
		T0 130 
		P 160 
		N 141 
		C0 246 
		T0 130 
		P 161 
		N 142 
		C0 247 
		T0 130 
		P 162 
		N 143 
		C0 248 
		T0 130 
		P 163 
		N 144 
		C0 249 
		T0 130 
		P 164 
		N 145 
		C0 250 
		T0 130 
		P 165 
		N 146 
		C0 251 
		T0 130 
		P 166 
		N 147 
		C0 252 
		T0 130 
		P 167 
		N 148 
		C0 253 
		T0 130 
		P 48 
		N 149 
		C0 254 
		T0 130 
		P 47 
		N 150 
		C0 255 
		T0 130 
		P 87 
		N 151 
		C0 256 
		T0 130 
		P 65 
		N 152 
		C0 257 
		T0 130 
		P 86 
		N 153 
		C0 258 
		T0 130 
		P 70 
		N 154 
		C0 259 
		T0 130 
		P 71 
		N 155 
		C0 260 
		T0 130 
		P 55 
		N 156 
		C0 261 
		T0 130 
		P 54 
		N 157 
		C0 262 
		T0 130 
		P 61 
		N 158 
		C0 263 
		T0 130 
		P 90 
		N 159 
		C0 264 
		T0 130 
		P 62 
		N 160 
		C0 265 
		T0 130 
		P 58 
		N 161 
		C0 266 
		T0 130 
		P 59 
		N 162 
		C0 267 
		T0 130 
		P 168 
		N 163 
		C0 268 
		T0 130 
		P 158 
		N 164 
		C0 269 
		T0 130 
		P 169 
		N 165 
		C0 270 
		T0 130 
		P 170 
		N 166 
		C0 271 
		T0 130 
		P 159 
		N 167 
		C0 272 
		T0 130 
		P 171 
		N 168 
		C0 273 
		T0 130 
		P 172 
		N 169 
		C0 274 
		T0 130 
		P 173 
		N 170 
		C0 275 
		T0 130 
		P 57 
		N 171 
		C0 276 
		T0 130 
		P 60 
		N 172 
		C0 277 
		T0 130 
		P 64 
		N 173 
		C0 278 
		T0 130 
		P 63 
		N 174 
		C0 279 
		T0 130 
		P 51 
		N 175 
		C0 280 
		T0 130 
		P 49 
		N 176 
		C0 281 
		T0 130 
		P 50 
		N 177 
		C0 282 
		T0 130 
		P 171 
		N 137 
		C0 283 
		T0 135 
		P 168 
		N 137 
		C0 284 
		T0 136 
		P 45 
		N 178 
		C0 285 
		T0 130 
		P 46 
		N 179 
		C0 286 
		T0 130 
		P 66 
		N 180 
		C0 287 
		T0 130 
		P 67 
		N 181 
		C0 288 
		T0 130 
		P 44 
		N 182 
		C0 289 
		T0 130 
		P 43 
		N 183 
		C0 290 
		T0 130 
		P 42 
		N 150 
		C0 291 
		T0 130 
		P 59 
		N 136 
		C0 292 
		T0 137 
		P 166 
		N 136 
		C0 293 
		T0 138 
		P 60 
		N 136 
		C0 294 
		T0 139 
		P 46 
		N 136 
		C0 295 
		T0 140 
		P 163 
		N 136 
		C0 296 
		T0 141 
		P 47 
		N 136 
		C0 297 
		T0 142 
		P 107 
		N 138 
		C0 298 
		T0 143 
		P 165 
		N 184 
		C0 299 
		T0 144 
		P 54 
		N 138 
		C0 300 
		T0 145 
		P 105 
		N 138 
		C0 301 
		T0 146 
		P 71 
		N 138 
		C0 302 
		T0 147 
		P 160 
		N 184 
		C0 303 
		T0 148 
		P 108 
		N 138 
		C0 304 
		T0 149 
		P 112 
		N 185 
		C0 305 
		T0 130 
		P 106 
		N 139 
		C0 306 
		T0 130 
	}

	Mtl 2 { 
		{
			Name "#3" 
			Priority 32 
			Prim 23 { 
				{
					Type TRISTRIP
					Priority 32 
					Idx 4 { 173 174 172 175 }
				}
				{
					Type TRISTRIP
					Priority 32 
					Idx 4 { 196 197 199 198 }
				}
				{
					Type TRISTRIP
					Priority 32 
					Idx 17 { 53 52 35 36 37 34 17 15 16 15 14 13 12 9 8 10 11 }
				}
				{
					Type TRISTRIP2
					Priority 32 
					Idx 8 { 19 18 20 41 38 40 39 54 }
				}
				{
					Type TRISTRIP2
					Priority 32 
					Idx 15 { 157 156 155 154 148 147 145 146 142 141 142 144 143 159 158 }
				}
				{
					Type TRISTRIP
					Priority 32 
					Idx 13 { 134 135 133 136 140 136 139 138 137 128 127 125 126 }
				}
				{
					Type TRISTRIP2
					Priority 32 
					Idx 13 { 52 36 51 31 48 32 49 32 50 30 29 9 10 }
				}
				{
					Type TRISTRIP
					Priority 32 
					Idx 11 { 108 106 97 98 96 99 116 104 116 103 115 }
				}
				{
					Type TRISTRIP2
					Priority 32 
					Idx 33 { 65 64 66 63 88 89 114 90 114 229 230 225 226 223 224 28 121 220 219 222 221 228 227 228 84 87 84 86 85 80 81 83 82 }
				}
				{
					Type TRISTRIP
					Priority 32 
					Idx 11 { 24 21 23 22 44 45 43 42 43 55 56 }
				}
				{
					Type TRISTRIP2
					Priority 32 
					Idx 9 { 36 34 31 33 32 33 30 13 9 }
				}
				{
					Type TRISTRIP
					Priority 32 
					Idx 4 { 34 33 15 13 }
				}
				{
					Type TRISTRIP
					Priority 32 
					Idx 35 { 60 57 59 58 62 61 62 90 111 110 109 110 46 47 26 27 25 28 5 6 4 7 4 78 77 78 79 91 71 72 71 68 67 69 70 }
				}
				{
					Type TRISTRIP2
					Priority 32 
					Idx 33 { 92 95 93 94 112 113 112 114 112 217 218 213 214 211 212 121 122 120 119 210 209 216 215 216 117 84 117 118 117 76 73 75 74 }
				}
				{
					Type TRISTRIP
					Priority 32 
					Idx 14 { 206 200 207 203 205 202 204 202 201 203 201 200 204 206 }
				}
				{
					Type TRISTRIP
					Priority 32 
					Idx 14 { 180 179 183 179 182 178 181 177 180 176 179 176 178 177 }
				}
				{
					Type TRISTRIP
					Priority 32 
					Idx 28 { 103 105 102 2 102 1 124 1 123 0 149 0 150 151 152 100 129 100 107 100 106 100 98 101 99 105 104 103 }
				}
				{
					Type TRISTRIP
					Priority 32 
					Idx 12 { 151 0 3 1 3 2 3 105 3 101 151 100 }
				}
				{
					Type TRISTRIP
					Priority 32 
					Idx 13 { 130 132 131 208 153 150 153 152 153 129 131 107 130 }
				}
				{
					Type TRISTRIP2
					Priority 32 
					Idx 18 { 165 160 164 161 162 160 163 165 167 168 170 171 169 168 166 165 162 164 }
				}
				{
					Type TRISTRIP2
					Priority 32 
					Idx 6 { 162 163 166 167 169 170 }
				}
				{
					Type TRISTRIP2
					Priority 32 
					Idx 9 { 187 188 189 184 185 187 186 189 185 }
				}
				{
					Type TRISTRIP
					Priority 32 
					Idx 16 { 188 184 190 187 191 188 192 190 192 195 191 194 190 193 195 194 }
				}
			}

		}
		{
			Name "#4" 
			Priority 32 
			Prim 10 { 
				{
					Type TRISTRIP
					Priority 32 
					Idx 4 { 235 236 237 306 }
				}
				{
					Type TRISTRIP
					Priority 32 
					Idx 4 { 243 244 245 305 }
				}
				{
					Type TRISTRIP
					Priority 32 
					Idx 11 { 241 242 240 239 240 238 232 233 232 234 231 }
				}
				{
					Type TRISTRIP2
					Priority 32 
					Idx 8 { 301 300 298 299 298 303 304 302 }
				}
				{
					Type TRISTRIP2
					Priority 32 
					Idx 9 { 295 297 283 296 283 284 283 232 240 }
				}
				{
					Type TRISTRIP
					Priority 32 
					Idx 9 { 299 303 293 296 293 284 293 294 292 }
				}
				{
					Type TRISTRIP2
					Priority 32 
					Idx 18 { 291 290 272 290 275 289 275 288 274 287 274 285 274 286 274 273 275 272 }
				}
				{
					Type TRISTRIP2
					Priority 32 
					Idx 18 { 255 254 249 254 248 257 248 256 247 258 247 259 247 260 247 246 248 249 }
				}
				{
					Type TRISTRIP2
					Priority 32 
					Idx 19 { 262 261 251 261 250 264 250 263 250 253 251 253 252 253 267 253 266 263 265 }
				}
				{
					Type TRISTRIP
					Priority 32 
					Idx 18 { 280 278 281 270 282 270 269 270 268 271 277 271 276 271 279 271 278 270 }
				}
			}

		}
	}

	Offset 0 
}
