{
	Skinned 0 
	PosSkin 0 
	Pos 6 { 
		1.327709	-0.000049	-3.240814 
		0.005999	-0.000049	-3.237994 
		1.325704	-0.000049	3.446660 
		0.006001	-0.000049	3.446660 
		-1.313704	-0.000049	3.446660 
		-1.315709	-0.000049	-3.240814 
	}

	Nrm 1 { 
		0.000000	0.000000	1.000000 
	}

	Cpv 6 { 
		1.000000	1.000000	1.000000	1.000000 
		1.000000	1.000000	1.000000	1.000000 
		1.000000	1.000000	1.000000	1.000000 
		1.000000	1.000000	1.000000	1.000000 
		1.000000	1.000000	1.000000	1.000000 
		1.000000	1.000000	1.000000	1.000000 
	}

	Tex0 4 { 
		1.000000	0.985352 
		0.999023	0.015625 
		0.000977	0.983398 
		0.000977	0.015625 
	}

	Tex1 0 
	Adj 6 { 
		P 0 
		N 0 
		C0 0 
		T0 0 
		P 1 
		N 0 
		C0 1 
		T0 1 
		P 2 
		N 0 
		C0 2 
		T0 2 
		P 3 
		N 0 
		C0 3 
		T0 3 
		P 4 
		N 0 
		C0 4 
		T0 2 
		P 5 
		N 0 
		C0 5 
		T0 0 
	}

	Mtl 1 { 
		{
			Name "#0" 
			Priority 32 
			Prim 1 { 
				{
					Type TRISTRIP
					Priority 32 
					Idx 7 { 5 4 1 3 1 2 0 }
				}
			}

		}
	}

	Offset 0 
}
