{
	Skinned 0 
	PosSkin 0 
	Pos 6 { 
		-1.121293	-0.000049	-2.336024 
		-1.120439	-0.000049	0.044084 
		1.136439	-0.000049	0.044084 
		1.137293	-0.000049	-2.336025 
		-1.119585	-0.000049	2.424193 
		1.135585	-0.000049	2.424192 
	}

	Nrm 1 { 
		0.000000	1.000000	0.000000 
	}

	Cpv 8 { 
		1.000000	1.000000	1.000000	1.000000 
		1.000000	1.000000	1.000000	1.000000 
		1.000000	1.000000	1.000000	1.000000 
		1.000000	1.000000	1.000000	1.000000 
		1.000000	1.000000	1.000000	1.000000 
		1.000000	1.000000	1.000000	1.000000 
		1.000000	1.000000	1.000000	1.000000 
		1.000000	1.000000	1.000000	1.000000 
	}

	Tex0 4 { 
		1.000000	0.900391 
		1.000000	0.030273 
		0.000000	0.030273 
		0.000000	0.900391 
	}

	Tex1 0 
	Adj 8 { 
		P 0 
		N 0 
		C0 0 
		T0 0 
		P 1 
		N 0 
		C0 1 
		T0 1 
		P 2 
		N 0 
		C0 2 
		T0 2 
		P 3 
		N 0 
		C0 3 
		T0 3 
		P 2 
		N 0 
		C0 4 
		T0 1 
		P 1 
		N 0 
		C0 5 
		T0 2 
		P 4 
		N 0 
		C0 6 
		T0 3 
		P 5 
		N 0 
		C0 7 
		T0 0 
	}

	Mtl 1 { 
		{
			Name "#0" 
			Priority 32 
			Prim 2 { 
				{
					Type TRISTRIP
					Priority 32 
					Idx 4 { 0 1 3 2 }
				}
				{
					Type TRISTRIP
					Priority 32 
					Idx 4 { 5 6 4 7 }
				}
			}

		}
	}

	Offset 0 
}
