{
	Skinned 0 
	PosSkin 0 
	Pos 287 { 
		1.392963	2.129766	-4.533495 
		1.392843	2.391836	-4.534635 
		1.222743	2.391836	-4.516756 
		1.222863	2.129766	-4.515615 
		1.356403	2.201956	-4.565105 
		1.252043	2.201956	-4.554135 
		1.251993	2.319486	-4.554645 
		1.356353	2.319486	-4.565615 
		1.292240	2.055017	-4.569955 
		1.310230	2.031756	-4.607445 
		0.892501	1.780125	-4.407997 
		0.907146	1.803385	-4.393356 
		1.333810	2.031747	-4.573125 
		0.921943	1.780116	-4.378557 
		1.287140	2.203439	-4.577365 
		1.310150	2.234969	-4.607565 
		1.333730	2.235039	-4.573246 
		0.797135	2.203439	-4.323072 
		0.788327	2.234969	-4.331002 
		0.819270	2.235039	-4.303143 
		1.393393	1.889276	-4.529335 
		1.393463	2.058386	-4.528696 
		1.223363	2.058386	-4.510826 
		1.223303	1.889276	-4.511466 
		1.356893	1.935626	-4.560455 
		1.252533	1.935626	-4.549486 
		1.252563	2.011456	-4.549195 
		1.356923	2.011456	-4.560165 
		-1.392963	2.129766	-4.533495 
		-1.222863	2.129766	-4.515615 
		-1.222743	2.391836	-4.516756 
		-1.392843	2.391836	-4.534635 
		-1.356403	2.201956	-4.565105 
		-1.356353	2.319486	-4.565615 
		-1.251993	2.319486	-4.554645 
		-1.252043	2.201956	-4.554135 
		-1.292240	2.055017	-4.569955 
		-0.907146	1.803385	-4.393356 
		-0.892501	1.780125	-4.407997 
		-1.310230	2.031756	-4.607445 
		-1.333810	2.031747	-4.573125 
		-0.921943	1.780116	-4.378557 
		-1.287140	2.203439	-4.577365 
		-1.310150	2.234969	-4.607565 
		-1.333730	2.235039	-4.573246 
		-0.797135	2.203439	-4.323072 
		-0.788327	2.234969	-4.331002 
		-0.819270	2.235039	-4.303143 
		-1.393393	1.889276	-4.529335 
		-1.223303	1.889276	-4.511466 
		-1.223363	2.058386	-4.510826 
		-1.393463	2.058386	-4.528696 
		-1.356893	1.935626	-4.560455 
		-1.356923	2.011456	-4.560165 
		-1.252563	2.011456	-4.549195 
		-1.252533	1.935626	-4.549486 
		-0.741257	1.420257	-2.939826 
		-0.714544	1.418137	-3.846355 
		-0.669353	0.622322	-4.087475 
		-0.756820	0.567371	-2.948586 
		-0.828832	2.707366	-3.001646 
		-0.765737	2.759027	-3.014465 
		-0.766347	2.752977	-4.180985 
		-0.828938	2.703547	-4.139946 
		0.000320	2.791897	-3.020425 
		0.000320	2.794767	-4.232265 
		-0.828981	2.656077	-4.221515 
		-1.007330	1.941237	-4.466526 
		-1.046490	1.943867	-2.994025 
		-1.016400	1.107756	-4.464285 
		-1.042890	1.065162	-4.031345 
		-1.056710	1.275987	-3.895795 
		-1.060890	1.418717	-3.589725 
		-1.050980	1.420167	-2.988415 
		-0.993659	0.945807	-4.480165 
		-1.039110	0.938158	-4.087475 
		-0.998308	1.071929	-4.483975 
		-0.907786	1.107731	-4.537045 
		-0.901604	1.071898	-4.573415 
		-0.770453	2.691936	-4.272525 
		0.000320	2.726217	-4.313535 
		0.000320	1.940977	-4.616305 
		-0.925102	1.941117	-4.533835 
		-0.556259	1.302437	-4.570500 
		0.000320	1.305207	-4.623976 
		-0.912110	1.315832	-4.536244 
		-0.909284	1.179815	-4.536768 
		-0.993659	0.635489	-4.480165 
		-0.907062	0.635318	-4.532995 
		0.000320	1.107176	-4.626365 
		0.000320	1.072381	-4.652325 
		-0.799156	2.686367	-2.946065 
		0.000320	2.714197	-2.949666 
		-1.012220	1.943957	-2.942286 
		-1.027790	1.420257	-2.939826 
		0.000320	1.420257	-2.939826 
		1.012860	1.943957	-2.942286 
		0.799795	2.686367	-2.946065 
		0.741897	1.420257	-2.939826 
		1.028430	1.420257	-2.939826 
		0.000320	0.614525	-4.601725 
		0.669993	0.622322	-4.087475 
		0.757460	0.567371	-2.948586 
		-0.741257	1.420257	-1.503805 
		-0.756820	0.693991	-1.512565 
		0.757460	0.693991	-1.512565 
		0.741897	1.420257	-1.503805 
		0.000320	0.614525	-4.530756 
		0.994299	0.945807	-4.480165 
		0.715184	1.418137	-3.846355 
		0.766987	2.752977	-4.180985 
		0.766377	2.759027	-3.014465 
		0.829471	2.707366	-3.001646 
		0.829578	2.703547	-4.139946 
		0.829620	2.656077	-4.221515 
		1.007970	1.941237	-4.466526 
		1.047130	1.943867	-2.994025 
		1.057350	1.275987	-3.895795 
		1.043530	1.065162	-4.031345 
		1.017040	1.107757	-4.464285 
		1.061530	1.418717	-3.589725 
		1.051620	1.420167	-2.988415 
		1.039750	0.938158	-4.054306 
		0.998948	1.071929	-4.483975 
		0.902244	1.071898	-4.573415 
		0.908426	1.107731	-4.537045 
		0.771093	2.691936	-4.272525 
		0.925742	1.941117	-4.533835 
		0.541119	1.169793	-4.572719 
		0.000320	1.170234	-4.625605 
		0.000320	1.207655	-4.625153 
		0.532906	1.207655	-4.573371 
		0.909961	1.181589	-4.536760 
		0.912729	1.314842	-4.536248 
		0.907702	0.635318	-4.532995 
		0.994299	0.635490	-4.480165 
		0.564854	1.306353	-4.569712 
		-0.550661	1.170635	-4.571718 
		-0.527496	1.207655	-4.573836 
		1.326734	1.422931	-2.943058 
		1.326734	1.474749	-2.975806 
		1.051040	1.474749	-2.975806 
		1.051040	1.422931	-2.943058 
		1.326734	1.474749	-3.857605 
		1.051040	1.474749	-3.857605 
		1.326734	0.990067	-4.101474 
		1.051040	0.990067	-4.101474 
		1.326734	0.938251	-4.091240 
		1.051040	0.938251	-4.091240 
		1.326734	1.422931	-3.828950 
		1.051040	1.422931	-3.828950 
		-1.326734	1.422931	-2.943058 
		-1.051040	1.422931	-2.943058 
		-1.051040	1.474749	-2.975806 
		-1.326734	1.474749	-2.975806 
		-1.051040	1.474749	-3.857605 
		-1.326734	1.474749	-3.857605 
		-1.051040	0.990067	-4.101474 
		-1.326734	0.990067	-4.101474 
		-1.051040	0.938251	-4.091240 
		-1.326734	0.938251	-4.091240 
		-1.051040	1.422931	-3.828950 
		-1.326734	1.422931	-3.828950 
		-1.226282	1.570875	4.438240 
		1.226282	1.570875	4.438240 
		1.226282	3.573390	4.438240 
		-1.226282	3.573390	4.438240 
		-1.107419	3.779438	4.438240 
		1.107419	3.779438	4.438240 
		1.107419	3.779438	1.794065 
		-1.107419	3.779438	1.794065 
		-1.226282	3.573390	-2.806074 
		1.226282	3.573390	-2.806074 
		1.226282	1.570875	-2.806074 
		-1.226282	1.570875	-2.806074 
		-1.226282	1.570875	1.794065 
		1.226282	1.570875	1.794065 
		1.226282	3.573390	1.794065 
		-1.226282	3.573390	1.794065 
		-1.107419	3.779438	-2.806074 
		1.107419	3.779438	-2.806074 
		-1.226282	1.570875	-0.874015 
		-1.226282	3.573390	-0.874016 
		1.226282	1.570875	-0.874015 
		1.226282	3.573390	-0.874016 
		1.107419	3.779438	-0.874016 
		-1.107419	3.779438	-0.874016 
		-1.229742	0.512747	-1.345008 
		-0.759270	0.512746	-1.344541 
		-0.759270	0.612766	-1.275877 
		-1.315559	0.612766	-1.275877 
		-0.759270	1.300261	-1.275877 
		-1.315559	1.300261	-1.275877 
		-0.759270	1.400280	-1.342206 
		-1.229742	1.400280	-1.345009 
		-0.759270	1.400280	-2.642524 
		-1.229742	1.400280	-2.642056 
		-0.759270	1.300261	-2.711187 
		-1.315559	1.300261	-2.711187 
		-0.759270	0.612766	-2.711187 
		-1.315559	0.612766	-2.711187 
		-0.759270	0.512746	-2.642524 
		-1.229742	0.512747	-2.642056 
		1.229742	0.512747	-1.345008 
		1.315559	0.612766	-1.275877 
		0.759270	0.612766	-1.275877 
		0.759270	0.512746	-1.344541 
		1.315559	1.300261	-1.275877 
		0.759270	1.300261	-1.275877 
		1.229742	1.400280	-1.345009 
		0.759270	1.400280	-1.342206 
		1.229742	1.400280	-2.642056 
		0.759270	1.400280	-2.642524 
		1.315559	1.300261	-2.711187 
		0.759270	1.300261	-2.711187 
		1.315559	0.612766	-2.711187 
		0.759270	0.612766	-2.711187 
		1.229742	0.512747	-2.642056 
		0.759270	0.512746	-2.642524 
		-0.655618	0.923645	4.193566 
		-0.486136	0.923645	4.193566 
		-0.486136	1.570875	4.193566 
		-0.655618	1.570875	4.193566 
		-0.655619	1.570875	-1.576905 
		-0.655619	0.923646	-1.576905 
		-0.655619	0.704526	-0.421565 
		0.655619	0.704526	-0.421565 
		0.655619	0.923646	-1.576905 
		-0.655618	0.704526	3.479603 
		-0.486136	0.704526	3.479603 
		0.486136	0.704526	3.479603 
		-0.486136	1.570875	3.479603 
		0.486136	1.570875	3.479603 
		0.655618	0.923645	4.193566 
		0.655618	1.570875	4.193566 
		0.486136	1.570875	4.193566 
		0.486136	0.923645	4.193566 
		0.655619	1.570875	-1.576905 
		0.655618	0.704526	3.479603 
		-1.322380	1.030997	3.519197 
		1.322380	1.030997	3.519197 
		1.322380	1.125445	3.519197 
		-1.322380	1.125445	3.519197 
		1.322380	1.493634	3.117007 
		-1.322380	1.493634	3.117007 
		1.322380	1.493634	1.017246 
		-1.322380	1.493634	1.017246 
		1.322380	1.125445	0.615056 
		-1.322380	1.125445	0.615056 
		1.322380	1.030997	0.615056 
		-1.322380	1.030997	0.615056 
		1.322380	1.399187	1.017246 
		-1.322380	1.399187	1.017246 
		1.322380	1.399187	3.117007 
		-1.322380	1.399187	3.117007 
		-1.100213	1.152372	4.275043 
		-0.978990	1.152372	4.275043 
		-0.978990	1.257770	4.275043 
		-1.100213	1.257770	4.275043 
		0.000000	1.106225	4.181986 
		-1.165939	1.106225	4.181986 
		-1.165939	1.588023	4.181986 
		0.000000	1.588023	4.181986 
		-1.165939	1.106225	4.238436 
		0.000000	1.106225	4.238436 
		-1.165939	1.588023	4.238436 
		-0.789140	1.133209	4.238436 
		-1.127913	1.133209	4.238436 
		0.000000	1.588023	4.238436 
		-0.789140	1.276933	4.238436 
		-1.127913	1.276933	4.238436 
		-0.815496	1.152372	4.275043 
		-0.815496	1.257770	4.275043 
		1.100213	1.152372	4.275043 
		1.100213	1.257770	4.275043 
		0.978990	1.257770	4.275043 
		0.978990	1.152372	4.275043 
		0.789140	1.133209	4.238436 
		1.165939	1.106225	4.238436 
		1.127913	1.133209	4.238436 
		1.165939	1.588023	4.181986 
		1.165939	1.106225	4.181986 
		1.165939	1.588023	4.238436 
		0.789140	1.276933	4.238435 
		1.127913	1.276933	4.238436 
		0.815496	1.152372	4.275043 
		0.815496	1.257770	4.275043 
	}

	Nrm 229 { 
		0.109375	0.000000	1.000000 
		0.171875	-0.156250	-0.968750 
		-0.359375	-0.156250	-0.921875 
		-0.359375	0.156250	-0.921875 
		0.171875	0.156250	-0.968750 
		-0.500000	0.234375	-0.843750 
		0.312500	0.234375	-0.921875 
		0.312500	-0.250000	-0.921875 
		-0.500000	-0.250000	-0.828125 
		-0.718750	0.531250	0.453125 
		-0.125000	-0.156250	-0.984375 
		-0.250000	-0.312500	-0.921875 
		-0.406250	0.859375	0.312500 
		0.765625	-0.250000	0.578125 
		0.593750	-0.500000	0.640625 
		-0.656250	-0.718750	0.234375 
		-0.218750	0.281250	-0.937500 
		0.703125	0.234375	0.671875 
		-0.062500	-0.984375	-0.125000 
		-0.390625	0.546875	-0.734375 
		0.421875	0.421875	0.796875 
		0.171875	-0.218750	-0.953125 
		-0.375000	-0.218750	-0.906250 
		-0.375000	0.234375	-0.906250 
		0.171875	0.234375	-0.953125 
		-0.500000	0.343750	-0.796875 
		0.328125	0.343750	-0.890625 
		0.328125	-0.343750	-0.890625 
		-0.500000	-0.343750	-0.796875 
		-0.109375	0.000000	1.000000 
		-0.218750	-0.093750	-0.968750 
		-0.093750	0.234375	-0.968750 
		0.421875	0.093750	-0.906250 
		0.296875	-0.234375	-0.921875 
		-0.437500	0.156250	-0.890625 
		0.359375	0.312500	-0.875000 
		-0.171875	-0.328125	-0.937500 
		0.609375	-0.156250	-0.765625 
		0.578125	0.734375	0.328125 
		-0.203125	0.953125	0.218750 
		0.671875	0.140625	-0.718750 
		0.468750	-0.484375	-0.734375 
		-0.937500	0.140625	0.312500 
		-0.328125	-0.875000	0.359375 
		0.718750	-0.703125	0.093750 
		0.203125	0.203125	-0.953125 
		-0.500000	0.484375	0.718750 
		0.828125	-0.546875	-0.015625 
		0.640625	0.765625	0.062500 
		-0.218750	-0.265625	0.937500 
		-0.218750	-0.125000	-0.968750 
		-0.109375	0.343750	-0.937500 
		0.421875	0.140625	-0.890625 
		0.296875	-0.328125	-0.890625 
		-0.453125	0.218750	-0.859375 
		0.359375	0.453125	-0.812500 
		-0.187500	-0.453125	-0.875000 
		0.625000	-0.218750	-0.750000 
		-1.000000	0.000000	-0.031250 
		-1.000000	-0.015625	-0.062500 
		-0.859375	0.437500	0.234375 
		-0.328125	0.875000	0.343750 
		-0.468750	0.828125	-0.296875 
		-0.859375	0.500000	-0.125000 
		0.000000	0.921875	0.390625 
		0.000000	0.953125	-0.312500 
		-0.859375	0.406250	-0.296875 
		-0.890625	0.125000	-0.437500 
		-0.968750	0.125000	0.203125 
		-0.718750	0.000000	-0.687500 
		-1.000000	0.000000	-0.078125 
		-1.000000	0.031250	-0.046875 
		-1.000000	0.031250	0.000000 
		-0.968750	0.015625	0.265625 
		-0.812500	-0.031250	-0.578125 
		-1.000000	-0.015625	-0.109375 
		-0.890625	-0.031250	-0.453125 
		-0.343750	0.531250	-0.765625 
		-0.875000	-0.015625	-0.484375 
		-0.406250	0.578125	-0.703125 
		0.000000	0.593750	-0.796875 
		0.000000	0.125000	-1.000000 
		-0.390625	0.187500	-0.906250 
		-0.093750	0.000000	-1.000000 
		0.000000	0.015625	-1.000000 
		-0.406250	0.000000	-0.921875 
		-0.281250	0.000000	-0.953125 
		-0.250000	0.000000	-0.968750 
		-0.062500	-0.437500	0.906250 
		0.046875	-0.781250	0.625000 
		0.203125	-0.734375	0.656250 
		0.156250	-0.968750	0.218750 
		0.000000	-1.000000	0.000000 
		-0.234375	-0.312500	0.921875 
		-0.359375	-0.843750	-0.406250 
		-0.640625	-0.750000	-0.093750 
		-0.484375	-0.062500	-0.875000 
		-0.609375	-0.031250	-0.781250 
		-0.359375	-0.078125	-0.921875 
		0.000000	0.656250	-0.750000 
		-0.296875	0.375000	0.875000 
		0.000000	0.375000	0.921875 
		-0.906250	-0.406250	-0.093750 
		-0.640625	0.093750	0.765625 
		-0.500000	0.015625	0.859375 
		0.000000	0.000000	1.000000 
		0.640625	0.093750	0.765625 
		0.296875	0.375000	0.875000 
		0.500000	0.015625	0.859375 
		0.000000	-0.093750	-1.000000 
		0.000000	-1.000000	0.015625 
		0.000000	-1.000000	-0.046875 
		0.000000	-0.015625	1.000000 
		-0.015625	-1.000000	-0.015625 
		0.046875	0.000000	1.000000 
		0.359375	-0.843750	-0.390625 
		1.000000	-0.015625	-0.062500 
		1.000000	0.000000	-0.031250 
		0.468750	0.828125	-0.296875 
		0.328125	0.875000	0.343750 
		0.859375	0.437500	0.234375 
		0.859375	0.500000	-0.125000 
		0.859375	0.406250	-0.296875 
		0.890625	0.125000	-0.437500 
		0.968750	0.125000	0.203125 
		1.000000	0.031250	-0.046875 
		1.000000	0.000000	-0.078125 
		0.718750	0.000000	-0.687500 
		1.000000	0.031250	0.000000 
		0.968750	0.015625	0.265625 
		1.000000	-0.031250	-0.109375 
		0.812500	-0.046875	-0.578125 
		0.890625	-0.031250	-0.453125 
		0.875000	-0.015625	-0.484375 
		0.343750	0.531250	-0.765625 
		0.406250	0.578125	-0.703125 
		0.390625	0.187500	-0.906250 
		0.093750	0.000000	-1.000000 
		0.296875	0.000000	-0.953125 
		0.406250	0.000000	-0.921875 
		0.343750	0.000000	-0.937500 
		0.046875	-0.421875	0.906250 
		-0.203125	-0.734375	0.656250 
		-0.062500	-0.765625	0.625000 
		-0.156250	-0.968750	0.218750 
		0.187500	-0.281250	0.937500 
		0.656250	-0.750000	-0.078125 
		0.484375	-0.062500	-0.875000 
		0.906250	-0.406250	-0.093750 
		0.359375	-0.078125	-0.921875 
		0.609375	-0.031250	-0.781250 
		0.015625	-1.000000	-0.015625 
		-0.046875	0.000000	1.000000 
		0.000000	-0.156250	0.984375 
		0.000000	1.000000	0.000000 
		1.000000	0.015625	0.000000 
		-1.000000	0.015625	0.000000 
		0.000000	-1.000000	0.093750 
		0.000000	0.531250	0.843750 
		0.000000	0.843750	-0.531250 
		0.000000	0.453125	-0.890625 
		0.000000	-0.187500	-0.984375 
		0.000000	-0.468750	0.875000 
		0.000000	-0.859375	0.515625 
		1.000000	0.000000	0.000000 
		-1.000000	0.000000	0.000000 
		-0.500000	0.859375	0.000000 
		0.500000	0.859375	0.000000 
		0.000000	0.000000	-1.000000 
		0.968750	0.265625	0.000000 
		-0.968750	0.265625	0.000000 
		0.000000	-0.562500	0.828125 
		0.484375	-0.765625	0.406250 
		0.718750	-0.203125	0.656250 
		0.000000	-0.296875	0.953125 
		0.718750	0.203125	0.656250 
		0.000000	0.296875	0.953125 
		0.484375	0.765625	0.406250 
		0.000000	0.562500	0.828125 
		0.484375	0.765625	-0.406250 
		0.000000	0.890625	-0.468750 
		0.718750	0.203125	-0.656250 
		0.000000	0.296875	-0.953125 
		0.718750	-0.203125	-0.656250 
		0.000000	-0.296875	-0.953125 
		0.484375	-0.765625	-0.406250 
		0.000000	-0.562500	-0.828125 
		-0.765625	-0.656250	0.000000 
		-0.937500	-0.343750	0.000000 
		-0.937500	0.343750	0.000000 
		-0.765625	0.656250	0.000000 
		-0.718750	-0.203125	0.656250 
		-0.484375	-0.765625	0.406250 
		-0.718750	0.203125	0.656250 
		-0.484375	0.765625	0.406250 
		-0.484375	0.765625	-0.406250 
		-0.718750	0.203125	-0.656250 
		-0.718750	-0.203125	-0.656250 
		-0.484375	-0.765625	-0.406250 
		0.765625	-0.656250	0.000000 
		0.937500	-0.343750	0.000000 
		0.937500	0.343750	0.000000 
		0.765625	0.656250	0.000000 
		0.000000	-1.000000	-0.062500 
		0.000000	-0.984375	-0.187500 
		0.000000	-0.984375	0.140625 
		0.000000	-0.953125	0.296875 
		0.000000	0.734375	0.671875 
		0.000000	0.937500	0.359375 
		0.000000	0.937500	-0.359375 
		0.000000	0.734375	-0.671875 
		0.000000	-0.734375	0.671875 
		0.000000	-0.937500	0.359375 
		0.000000	-0.937500	-0.359375 
		0.000000	-0.734375	-0.671875 
		-0.328125	-0.375000	0.859375 
		0.000000	-0.609375	0.781250 
		0.000000	0.609375	0.781250 
		-0.328125	0.375000	0.859375 
		0.203125	-0.437500	0.875000 
		-0.203125	-0.437500	0.875000 
		0.203125	0.437500	0.875000 
		-0.203125	0.437500	0.875000 
		0.343750	-0.375000	0.859375 
		0.343750	0.375000	0.859375 
		0.328125	-0.375000	0.859375 
		0.328125	0.375000	0.859375 
		-0.343750	-0.375000	0.859375 
		-0.343750	0.375000	0.859375 
	}

	Cpv 574 { 
		0.358193	0.493331	0.537194	0.000000 
		0.380770	0.492368	0.537273	0.000000 
		0.393220	0.505664	0.454407	0.000000 
		0.370642	0.506627	0.454328	0.000000 
		0.383700	0.494520	0.523630	0.000000 
		0.391338	0.502677	0.472789	0.000000 
		0.401462	0.502245	0.472827	0.000000 
		0.393825	0.494087	0.523667	0.000000 
		0.393220	0.505664	0.454407	0.000000 
		0.380770	0.492368	0.537273	0.000000 
		0.358193	0.493331	0.537194	0.000000 
		0.370642	0.506627	0.454328	0.000000 
		0.381531	0.499593	0.493761	0.000000 
		0.395094	0.496849	0.506789	0.000000 
		0.500000	0.500000	0.500000	0.000000 
		0.500000	0.500000	0.500000	0.000000 
		0.375965	0.496473	0.513869	0.000000 
		0.500000	0.500000	0.500000	0.000000 
		0.398135	0.499149	0.492229	0.000000 
		0.412238	0.496131	0.506766	0.000000 
		0.393116	0.495755	0.513845	0.000000 
		0.500000	0.500000	0.500000	0.000000 
		0.500000	0.500000	0.500000	0.000000 
		0.500000	0.500000	0.500000	0.000000 
		0.335962	0.494316	0.536900	0.000000 
		0.349863	0.493738	0.536856	0.000000 
		0.362317	0.507034	0.453991	0.000000 
		0.348415	0.507611	0.454040	0.000000 
		0.359059	0.495611	0.523305	0.000000 
		0.366697	0.503769	0.472465	0.000000 
		0.372929	0.503510	0.472445	0.000000 
		0.365291	0.495352	0.523284	0.000000 
		0.362317	0.507034	0.453991	0.000000 
		0.349863	0.493738	0.536856	0.000000 
		0.335962	0.494316	0.536900	0.000000 
		0.348415	0.507611	0.454040	0.000000 
		0.612843	0.486987	0.500000	0.000000 
		0.610791	0.513332	0.500000	0.000000 
		0.570200	0.510188	0.500000	0.000000 
		0.572253	0.483844	0.500000	0.000000 
		0.601221	0.491778	0.500000	0.000000 
		0.583018	0.490368	0.500000	0.000000 
		0.581759	0.506531	0.500000	0.000000 
		0.599962	0.507942	0.500000	0.000000 
		0.572253	0.483844	0.500000	0.000000 
		0.570200	0.510188	0.500000	0.000000 
		0.612843	0.486987	0.500000	0.000000 
		0.610791	0.513332	0.500000	0.000000 
		0.623205	0.503489	0.500000	0.000000 
		0.500000	0.500000	0.500000	0.000000 
		0.500000	0.500000	0.500000	0.000000 
		0.627025	0.500983	0.500000	0.000000 
		0.627311	0.497331	0.500000	0.000000 
		0.500000	0.500000	0.500000	0.000000 
		0.600156	0.502488	0.500000	0.000000 
		0.595550	0.498544	0.500000	0.000000 
		0.595824	0.494891	0.500000	0.000000 
		0.500000	0.500000	0.500000	0.000000 
		0.500000	0.500000	0.500000	0.000000 
		0.500000	0.500000	0.500000	0.000000 
		0.650095	0.489823	0.500000	0.000000 
		0.648043	0.516166	0.500000	0.000000 
		0.621852	0.514116	0.500000	0.000000 
		0.623905	0.487771	0.500000	0.000000 
		0.642476	0.494916	0.500000	0.000000 
		0.630732	0.493997	0.500000	0.000000 
		0.629473	0.510160	0.500000	0.000000 
		0.641217	0.511079	0.500000	0.000000 
		0.623905	0.487771	0.500000	0.000000 
		0.621852	0.514116	0.500000	0.000000 
		0.650095	0.489823	0.500000	0.000000 
		0.648043	0.516166	0.500000	0.000000 
		0.500000	0.500000	0.500000	0.000000 
		0.500000	0.500000	0.500000	0.000000 
		0.500000	0.500000	0.500000	0.000000 
		0.500000	0.500000	0.500000	0.000000 
		0.500000	0.500000	0.500000	0.003922 
		0.500000	0.500000	0.500000	0.003922 
		0.503717	0.455521	0.500000	0.003922 
		0.500462	0.459948	0.500000	0.003922 
		0.500000	0.500000	0.500000	0.003922 
		0.504775	0.402636	0.500000	0.003922 
		0.497194	0.460064	0.500000	0.003922 
		0.500000	0.500000	0.500000	0.003922 
		0.497194	0.460064	0.500000	0.003922 
		0.500000	0.500000	0.500000	0.000000 
		0.500000	0.500000	0.500000	0.000000 
		0.500462	0.459948	0.500000	0.003922 
		0.500000	0.500000	0.500000	0.000000 
		0.500000	0.500000	0.500000	0.000000 
		0.500000	0.500000	0.500000	0.000000 
		0.500000	0.500000	0.500000	0.000000 
		0.500000	0.500000	0.500000	0.000000 
		0.500000	0.500000	0.500000	0.000000 
		0.500000	0.500000	0.500000	0.000000 
		0.500000	0.500000	0.500000	0.000000 
		0.500000	0.500000	0.500000	0.000000 
		0.500000	0.500000	0.500000	0.000000 
		0.500000	0.500000	0.500000	0.000000 
		0.500000	0.500000	0.500000	0.000000 
		0.500000	0.500000	0.500000	0.000000 
		0.499524	0.455949	0.500000	0.003922 
		0.500055	0.402799	0.500000	0.003922 
		0.500000	0.500000	0.709507	0.000000 
		0.500000	0.500000	0.500000	0.000000 
		0.500000	0.500000	0.500000	0.000000 
		0.500000	0.500000	0.709507	0.000000 
		0.500000	0.500000	0.500000	0.000000 
		0.500000	0.500000	0.500000	0.000000 
		0.500000	0.500000	0.500000	0.000000 
		0.500000	0.500000	0.500000	0.000000 
		0.500000	0.500000	0.500000	0.000000 
		0.500000	0.500000	0.500000	0.000000 
		0.500000	0.500000	0.500000	0.000000 
		0.500000	0.500000	0.500000	0.000000 
		0.500000	0.500000	0.500000	0.000000 
		0.500000	0.500000	0.500000	0.000000 
		0.500000	0.500000	0.500000	0.000000 
		0.500000	0.500000	0.500000	0.000000 
		0.500000	0.500000	0.500000	0.000000 
		0.500000	0.500000	0.500000	0.000000 
		0.500000	0.500000	0.500000	0.000000 
		0.500000	0.500000	0.500000	0.000000 
		0.500000	0.500000	0.500000	0.000000 
		0.500000	0.500000	0.500000	0.000000 
		0.500000	0.500000	0.500000	0.000000 
		0.500000	0.677752	0.500000	0.000000 
		0.500000	0.677752	0.500000	0.000000 
		0.500000	0.500000	0.709507	0.000000 
		0.500000	0.500000	0.610200	0.000000 
		0.500000	0.500000	0.500000	0.003922 
		0.500000	0.500000	0.500000	0.003922 
		0.500000	0.500000	0.500000	0.003922 
		0.500000	0.500000	0.500000	0.003922 
		0.500000	0.500000	0.500000	0.003922 
		0.500000	0.500000	0.500000	0.000000 
		0.500000	0.500000	0.500000	0.000000 
		0.500000	0.500000	0.500000	0.000000 
		0.500000	0.500000	0.500000	0.000000 
		0.500000	0.500000	0.500000	0.003922 
		0.500000	0.500000	0.500000	0.000000 
		0.500000	0.500000	0.500000	0.000000 
		0.500000	0.500000	0.500000	0.003922 
		0.500000	0.500000	0.500000	0.000000 
		0.500000	0.500000	0.500000	0.000000 
		0.500000	0.500000	0.500000	0.000000 
		0.500000	0.500000	0.500000	0.003922 
		0.500000	0.500000	0.500000	0.000000 
		0.500000	0.500000	0.500000	0.003922 
		0.500000	0.500000	0.500000	0.000000 
		0.500000	0.500000	0.500000	0.000000 
		0.500000	0.500000	0.500000	0.000000 
		0.500000	0.668975	0.709507	0.000000 
		0.500000	0.500000	0.610200	0.000000 
		0.500000	0.500000	0.500000	0.000000 
		0.500000	0.500000	0.500000	0.000000 
		0.500000	0.500000	0.500000	0.000000 
		0.500000	0.500000	0.500000	0.000000 
		0.500000	0.500000	0.500000	0.000000 
		0.500000	0.500000	0.500000	0.000000 
		0.500000	0.500000	0.500000	0.000000 
		0.500000	0.500000	0.500000	0.000000 
		0.500000	0.677752	0.500000	0.000000 
		0.500000	0.668975	0.709507	0.000000 
		0.500000	0.668975	0.709507	0.000000 
		0.500000	0.677752	0.500000	0.000000 
		0.500000	0.500000	0.500000	0.000000 
		0.500000	0.677752	0.500000	0.000000 
		0.500000	0.668975	0.709507	0.000000 
		0.500000	0.500000	0.500000	0.000000 
		0.500000	0.500000	0.500000	0.000000 
		0.500000	0.500000	0.500000	0.000000 
		0.500000	0.500000	0.500000	0.000000 
		0.500000	0.500000	0.500000	0.000000 
		0.500000	0.500000	0.500000	0.000000 
		0.500078	0.349949	0.500000	0.003922 
		0.500000	0.500000	0.500000	0.003922 
		0.500000	0.500000	0.500000	0.003922 
		0.496526	0.345757	0.500000	0.003922 
		0.493258	0.345867	0.500000	0.003922 
		0.500000	0.500000	0.500000	0.000000 
		0.493258	0.345867	0.500000	0.003922 
		0.500000	0.500000	0.500000	0.003922 
		0.500000	0.500000	0.500000	0.000000 
		0.496526	0.345757	0.500000	0.003922 
		0.500000	0.500000	0.500000	0.000000 
		0.500000	0.500000	0.500000	0.000000 
		0.500000	0.500000	0.500000	0.000000 
		0.500000	0.500000	0.500000	0.000000 
		0.500000	0.500000	0.500000	0.000000 
		0.500000	0.500000	0.500000	0.000000 
		0.500000	0.500000	0.500000	0.000000 
		0.500000	0.500000	0.500000	0.000000 
		0.500000	0.500000	0.500000	0.000000 
		0.500000	0.500000	0.500000	0.000000 
		0.500000	0.500000	0.500000	0.000000 
		0.500000	0.500000	0.500000	0.000000 
		0.500000	0.500000	0.500000	0.000000 
		0.495865	0.349812	0.500000	0.003922 
		0.500000	0.500000	0.500000	0.000000 
		0.500000	0.500000	0.500000	0.000000 
		0.500000	0.500000	0.709507	0.000000 
		0.500000	0.500000	0.709507	0.000000 
		0.500000	0.500000	0.500000	0.000000 
		0.500000	0.500000	0.500000	0.000000 
		0.500000	0.500000	0.500000	0.000000 
		0.500000	0.500000	0.500000	0.000000 
		0.500000	0.500000	0.500000	0.000000 
		0.500000	0.500000	0.500000	0.000000 
		0.500000	0.500000	0.500000	0.000000 
		0.500000	0.500000	0.500000	0.000000 
		0.500000	0.500000	0.500000	0.000000 
		0.500000	0.500000	0.500000	0.000000 
		0.500000	0.500000	0.500000	0.000000 
		0.500000	0.500000	0.500000	0.000000 
		0.500000	0.500000	0.500000	0.000000 
		0.500000	0.500000	0.500000	0.000000 
		0.500000	0.500000	0.500000	0.000000 
		0.500000	0.500000	0.500000	0.000000 
		0.500000	0.500000	0.500000	0.000000 
		0.500000	0.500000	0.500000	0.000000 
		0.500000	0.500000	0.500000	0.003922 
		0.500000	0.500000	0.500000	0.003922 
		0.500000	0.500000	0.500000	0.003922 
		0.500000	0.500000	0.500000	0.000000 
		0.500000	0.500000	0.500000	0.000000 
		0.500000	0.500000	0.500000	0.000000 
		0.500000	0.500000	0.500000	0.000000 
		0.500000	0.500000	0.500000	0.003922 
		0.500000	0.500000	0.500000	0.000000 
		0.500000	0.500000	0.500000	0.000000 
		0.500000	0.500000	0.500000	0.000000 
		0.500000	0.500000	0.500000	0.000000 
		0.500000	0.668975	0.709507	0.000000 
		0.500000	0.668975	0.709507	0.000000 
		0.500000	0.500000	0.500000	0.000000 
		0.500000	0.500000	0.500000	0.000000 
		0.500000	0.500000	0.500000	0.000000 
		0.500000	0.668975	0.709507	0.000000 
		0.500000	0.500000	0.500000	0.000000 
		0.500000	0.668975	0.709507	0.000000 
		0.500000	0.500000	0.500000	0.000000 
		0.500000	0.500000	0.500000	0.000000 
		0.500000	0.500000	0.500000	0.000000 
		0.500000	0.500000	0.500000	0.000000 
		0.500000	0.500000	0.500000	0.000000 
		0.500000	0.500000	0.500000	0.000000 
		0.500000	0.500000	0.500000	0.000000 
		0.500000	0.500000	0.500000	0.000000 
		0.500000	0.500000	0.500000	0.000000 
		0.500000	0.500000	0.500000	0.000000 
		0.500000	0.500000	0.500000	0.000000 
		0.500000	0.500000	0.500000	0.000000 
		0.500000	0.500000	0.500000	0.000000 
		0.500000	0.500000	0.500000	0.000000 
		0.500000	0.500000	0.709507	0.000000 
		0.500000	0.500000	0.500000	0.000000 
		0.500000	0.500000	0.500000	0.000000 
		0.500000	0.500000	0.500000	0.000000 
		0.500000	0.500000	0.500000	0.000000 
		0.500000	0.500000	0.500000	0.000000 
		0.500000	0.500000	0.500000	0.000000 
		0.500000	0.500000	0.500000	0.000000 
		0.397607	0.500000	0.500000	0.000000 
		0.500000	0.500000	0.500000	0.000000 
		0.500000	0.500000	0.500000	0.000000 
		0.397607	0.500000	0.500000	0.000000 
		0.500000	0.500000	0.500000	0.000000 
		0.397607	0.500000	0.500000	0.000000 
		0.397607	0.500000	0.500000	0.000000 
		0.500000	0.500000	0.500000	0.000000 
		0.500000	0.500000	0.500000	0.000000 
		0.397607	0.500000	0.500000	0.000000 
		0.397607	0.500000	0.500000	0.000000 
		0.500000	0.500000	0.500000	0.000000 
		0.500000	0.500000	0.500000	0.000000 
		0.500000	0.500000	0.500000	0.000000 
		0.500000	0.500000	0.500000	0.000000 
		0.397607	0.500000	0.500000	0.000000 
		0.397607	0.500000	0.500000	0.000000 
		0.397607	0.500000	0.500000	0.000000 
		0.397607	0.500000	0.500000	0.000000 
		0.500000	0.500000	0.500000	0.000000 
		0.500000	0.500000	0.500000	0.000000 
		0.500000	0.404354	0.500000	0.000000 
		0.500000	0.500000	0.500000	0.000000 
		0.500000	0.500000	0.500000	0.000000 
		0.500000	0.404354	0.500000	0.000000 
		0.500000	0.404354	0.500000	0.000000 
		0.500000	0.500000	0.500000	0.000000 
		0.500000	0.500000	0.500000	0.000000 
		0.500000	0.354812	0.500000	0.000000 
		0.500000	0.500000	0.500000	0.000000 
		0.500000	0.500000	0.500000	0.000000 
		0.500000	0.500000	0.500000	0.000000 
		0.500000	0.500000	0.500000	0.000000 
		0.500000	0.500000	0.500000	0.000000 
		0.500000	0.500000	0.500000	0.000000 
		0.500000	0.500000	0.500000	0.000000 
		0.500000	0.500000	0.500000	0.000000 
		0.500000	0.500000	0.500000	0.000000 
		0.500000	0.354812	0.500000	0.000000 
		0.500000	0.500000	0.500000	0.000000 
		0.500000	0.404354	0.500000	0.000000 
		0.500000	0.500000	0.500000	0.000000 
		0.500000	0.354812	0.500000	0.000000 
		0.500000	0.354812	0.500000	0.000000 
		0.500000	0.500000	0.500000	0.000000 
		0.500000	0.404354	0.500000	0.000000 
		0.500000	0.404354	0.500000	0.000000 
		0.500000	0.341902	0.500000	0.000000 
		0.500000	0.500000	0.500000	0.000000 
		0.500000	0.267560	0.500000	0.003922 
		0.500000	0.500000	0.500000	0.003922 
		0.500000	0.500000	0.500000	0.003922 
		0.500000	0.267560	0.500000	0.003922 
		0.413219	0.265545	0.500000	0.003922 
		0.500000	0.500000	0.500000	0.003922 
		0.500000	0.244199	0.500000	0.003922 
		0.500000	0.267560	0.500000	0.003922 
		0.500000	0.500000	0.500000	0.000000 
		0.500000	0.500000	0.500000	0.000000 
		0.323944	0.500000	0.500000	0.000000 
		0.323944	0.500000	0.500000	0.000000 
		0.500000	0.500000	0.500000	0.000000 
		0.500000	0.341902	0.500000	0.000000 
		0.500000	0.500000	0.500000	0.000000 
		0.323944	0.500000	0.500000	0.000000 
		0.413219	0.265545	0.500000	0.003922 
		0.500000	0.267560	0.500000	0.003922 
		0.323944	0.500000	0.500000	0.000000 
		0.500000	0.341902	0.500000	0.000000 
		0.500000	0.500000	0.500000	0.003922 
		0.323944	0.500000	0.500000	0.003922 
		0.500000	0.267560	0.500000	0.003922 
		0.500000	0.500000	0.500000	0.003922 
		0.413219	0.265545	0.500000	0.003922 
		0.500000	0.267560	0.500000	0.003922 
		0.500000	0.244199	0.500000	0.003922 
		0.500000	0.267560	0.500000	0.003922 
		0.500000	0.500000	0.500000	0.003922 
		0.500000	0.500000	0.500000	0.003922 
		0.500000	0.500000	0.500000	0.000000 
		0.323944	0.500000	0.500000	0.000000 
		0.323944	0.500000	0.500000	0.003922 
		0.500000	0.244199	0.500000	0.003922 
		0.500000	0.500000	0.500000	0.000000 
		0.500000	0.500000	0.500000	0.000000 
		0.323944	0.500000	0.500000	0.000000 
		0.323944	0.500000	0.500000	0.000000 
		0.323944	0.267560	0.500000	0.003922 
		0.323944	0.500000	0.500000	0.000000 
		0.500000	0.500000	0.500000	0.000000 
		0.500000	0.267560	0.500000	0.003922 
		0.323944	0.267560	0.500000	0.003922 
		0.500000	0.267560	0.500000	0.003922 
		0.500000	0.500000	0.500000	0.003922 
		0.323944	0.267560	0.500000	0.003922 
		0.500000	0.267560	0.500000	0.003922 
		0.500000	0.244199	0.500000	0.003922 
		0.500000	0.500000	0.500000	0.003922 
		0.500000	0.244199	0.500000	0.003922 
		0.500000	0.667783	0.573984	0.000000 
		0.500000	0.667783	0.573984	0.000000 
		0.500000	0.679327	0.553189	0.000000 
		0.500000	0.679327	0.553189	0.000000 
		0.500000	0.666174	0.419349	0.000000 
		0.500000	0.666174	0.419349	0.000000 
		0.500000	0.651347	0.401147	0.000000 
		0.500000	0.651347	0.401147	0.000000 
		0.500000	0.651347	0.401147	0.000000 
		0.500000	0.398203	0.426025	0.000000 
		0.500000	0.398203	0.426025	0.000000 
		0.500000	0.386750	0.446811	0.000000 
		0.500000	0.386750	0.446811	0.000000 
		0.500000	0.399904	0.580651	0.000000 
		0.500000	0.399904	0.580651	0.000000 
		0.500000	0.415185	0.598809	0.000000 
		0.500000	0.415185	0.598809	0.000000 
		0.500000	0.415185	0.598809	0.000000 
		0.500000	0.667783	0.573984	0.000000 
		0.500000	0.415185	0.598809	0.000000 
		0.500000	0.667783	0.573984	0.000000 
		0.500000	0.679327	0.553189	0.000000 
		0.500000	0.399904	0.580651	0.000000 
		0.500000	0.666174	0.419349	0.000000 
		0.500000	0.386750	0.446811	0.000000 
		0.500000	0.651347	0.401147	0.000000 
		0.500000	0.398203	0.426025	0.000000 
		0.500000	0.500000	0.500000	0.000000 
		0.500000	0.500000	0.500000	0.000000 
		0.500000	0.500000	0.500000	0.000000 
		0.500000	0.500000	0.500000	0.000000 
		0.500000	0.500000	0.500000	0.000000 
		0.500000	0.500000	0.500000	0.000000 
		0.500000	0.500000	0.500000	0.000000 
		0.500000	0.500000	0.500000	0.000000 
		0.500000	0.500000	0.500000	0.000000 
		0.500000	0.500000	0.500000	0.000000 
		0.500000	0.500000	0.500000	0.000000 
		0.500000	0.500000	0.500000	0.000000 
		0.500000	0.500000	0.500000	0.000000 
		0.500000	0.500000	0.500000	0.000000 
		0.500000	0.500000	0.500000	0.000000 
		0.500000	0.500000	0.500000	0.000000 
		0.500000	0.500000	0.500000	0.000000 
		0.500000	0.500000	0.500000	0.000000 
		0.500000	0.500000	0.500000	0.000000 
		0.500000	0.500000	0.500000	0.000000 
		0.500000	0.500000	0.500000	0.000000 
		0.500000	0.500000	0.500000	0.000000 
		0.500000	0.500000	0.500000	0.000000 
		0.500000	0.500000	0.500000	0.000000 
		0.500000	0.500000	0.500000	0.000000 
		0.500000	0.500000	0.500000	0.000000 
		0.500000	0.500000	0.500000	0.000000 
		0.500000	0.595670	0.500000	0.000000 
		0.500000	0.595670	0.500000	0.000000 
		0.500000	0.500000	0.500000	0.000000 
		0.500000	0.500000	0.500000	0.000000 
		0.500000	0.500000	0.500000	0.000000 
		0.500000	0.500000	0.500000	0.000000 
		0.500000	0.500000	0.500000	0.000000 
		0.500000	0.500000	0.500000	0.000000 
		0.500000	0.500000	0.500000	0.000000 
		0.500000	0.500000	0.500000	0.000000 
		0.500000	0.500000	0.500000	0.000000 
		0.632291	0.500000	0.500000	0.000000 
		0.500000	0.500000	0.500000	0.000000 
		0.632291	0.500000	0.500000	0.000000 
		0.632291	0.500000	0.500000	0.000000 
		0.500000	0.500000	0.500000	0.000000 
		0.500000	0.595670	0.500000	0.000000 
		0.500000	0.595670	0.500000	0.000000 
		0.632291	0.500000	0.500000	0.000000 
		0.500000	0.500000	0.500000	0.000000 
		0.500000	0.500000	0.500000	0.000000 
		0.500000	0.595670	0.500000	0.000000 
		0.500000	0.595670	0.500000	0.000000 
		0.500000	0.500000	0.500000	0.000000 
		0.632291	0.500000	0.500000	0.000000 
		0.500000	0.500000	0.500000	0.000000 
		0.500000	0.500000	0.500000	0.000000 
		0.500000	0.500000	0.500000	0.000000 
		0.500000	0.500000	0.500000	0.000000 
		0.500000	0.500000	0.500000	0.000000 
		0.500000	0.500000	0.500000	0.000000 
		0.500000	0.500000	0.500000	0.000000 
		0.500000	0.500000	0.500000	0.000000 
		0.500000	0.500000	0.500000	0.000000 
		0.500000	0.500000	0.500000	0.000000 
		0.500000	0.500000	0.500000	0.000000 
		0.500000	0.500000	0.500000	0.000000 
		0.500000	0.500000	0.500000	0.000000 
		0.500000	0.500000	0.500000	0.000000 
		0.500000	0.500000	0.500000	0.000000 
		0.500000	0.500000	0.500000	0.000000 
		0.500000	0.500000	0.500000	0.000000 
		0.500000	0.500000	0.500000	0.000000 
		0.500000	0.500000	0.500000	0.000000 
		0.500000	0.500000	0.500000	0.000000 
		0.500000	0.500000	0.500000	0.000000 
		0.500000	0.500000	0.500000	0.000000 
		0.500000	0.500000	0.500000	0.000000 
		0.500000	0.814042	0.500000	0.000000 
		0.500000	0.500000	0.500000	0.000000 
		0.500000	0.500000	0.500000	0.000000 
		0.500000	0.814042	0.500000	0.000000 
		0.500000	0.814042	0.500000	0.000000 
		0.500000	0.500000	0.500000	0.000000 
		0.500000	0.500000	0.500000	0.000000 
		0.500000	0.480204	0.500000	0.000000 
		0.283057	0.500000	0.500000	0.000000 
		0.500000	0.500000	0.500000	0.000000 
		0.273826	0.500000	0.500000	0.000000 
		0.711475	0.500000	0.500000	0.000000 
		0.711475	0.500000	0.500000	0.000000 
		0.273826	0.500000	0.500000	0.000000 
		0.273826	0.500000	0.500000	0.000000 
		0.711475	0.500000	0.500000	0.000000 
		0.711475	0.500000	0.500000	0.000000 
		0.273826	0.500000	0.500000	0.000000 
		0.283057	0.500000	0.500000	0.000000 
		0.500000	0.500000	0.500000	0.000000 
		0.500000	0.500000	0.500000	0.000000 
		0.500000	0.480204	0.500000	0.000000 
		0.500000	0.500000	0.500000	0.000000 
		0.500000	0.814042	0.500000	0.000000 
		0.283057	0.500000	0.500000	0.000000 
		0.273826	0.500000	0.500000	0.000000 
		0.273826	0.500000	0.500000	0.000000 
		0.283057	0.500000	0.500000	0.000000 
		0.500000	0.500000	0.500000	0.000000 
		0.500000	0.500000	0.500000	0.000000 
		0.500000	0.500000	0.500000	0.000000 
		0.500000	0.500000	0.500000	0.000000 
		0.711475	0.500000	0.500000	0.000000 
		0.500000	0.500000	0.500000	0.000000 
		0.500000	0.500000	0.500000	0.000000 
		0.711475	0.500000	0.500000	0.000000 
		0.500000	0.480204	0.500000	0.000000 
		0.500000	0.480204	0.500000	0.000000 
		0.500000	0.814042	0.500000	0.000000 
		0.500000	0.814042	0.500000	0.000000 
		0.500000	0.500000	0.500000	0.000000 
		0.500000	0.500000	0.500000	0.000000 
		0.500000	0.500000	0.500000	0.000000 
		0.500000	0.500000	0.500000	0.000000 
		0.500000	0.665486	0.500000	0.000000 
		0.500000	0.500000	0.500000	0.000000 
		0.500000	0.500000	0.500000	0.000000 
		0.500000	0.500000	0.500000	0.000000 
		0.500000	0.500000	0.500000	0.000000 
		0.500000	0.500000	0.500000	0.000000 
		0.500000	0.665486	0.500000	0.000000 
		0.500000	0.665486	0.500000	0.000000 
		0.500000	0.500000	0.500000	0.000000 
		0.500000	0.500000	0.500000	0.000000 
		0.500000	0.500000	0.500000	0.000000 
		0.500000	0.500000	0.500000	0.000000 
		0.500000	0.500000	0.500000	0.000000 
		0.500000	0.500000	0.500000	0.000000 
		0.500000	0.500000	0.500000	0.000000 
		0.500000	0.665486	0.500000	0.000000 
		0.500000	0.500000	0.500000	0.000000 
		0.500000	0.500000	0.500000	0.000000 
		0.500000	0.500000	0.500000	0.000000 
		0.500000	0.500000	0.500000	0.000000 
		0.500000	0.500000	0.500000	0.000000 
		0.500000	0.500000	0.500000	0.000000 
		0.500000	0.500000	0.500000	0.000000 
		0.500000	0.500000	0.500000	0.000000 
		0.500000	0.500000	0.500000	0.000000 
		0.500000	0.500000	0.500000	0.000000 
		0.500000	0.500000	0.500000	0.000000 
		0.500000	0.500000	0.500000	0.000000 
		0.500000	0.500000	0.500000	0.000000 
		0.500000	0.500000	0.500000	0.000000 
		0.500000	0.500000	0.500000	0.000000 
		0.500000	0.500000	0.500000	0.000000 
		0.500000	0.500000	0.500000	0.000000 
		0.500000	0.500000	0.500000	0.000000 
		0.500000	0.500000	0.500000	0.000000 
		0.500000	0.500000	0.500000	0.000000 
		0.500000	0.500000	0.500000	0.000000 
		0.500000	0.500000	0.500000	0.000000 
		0.500000	0.500000	0.500000	0.000000 
		0.500000	0.500000	0.500000	0.000000 
		0.500000	0.500000	0.500000	0.000000 
		0.500000	0.500000	0.500000	0.000000 
		0.500000	0.500000	0.500000	0.000000 
		0.500000	0.500000	0.500000	0.000000 
		0.500000	0.500000	0.500000	0.000000 
		0.500000	0.500000	0.500000	0.000000 
		0.500000	0.500000	0.500000	0.000000 
		0.500000	0.500000	0.500000	0.000000 
		0.500000	0.500000	0.500000	0.000000 
		0.500000	0.500000	0.500000	0.000000 
		0.500000	0.500000	0.500000	0.000000 
		0.500000	0.500000	0.500000	0.000000 
		0.500000	0.500000	0.500000	0.000000 
		0.500000	0.500000	0.500000	0.000000 
		0.500000	0.500000	0.500000	0.000000 
		0.500000	0.500000	0.500000	0.000000 
		0.500000	0.500000	0.500000	0.000000 
		0.500000	0.500000	0.500000	0.000000 
		0.500000	0.500000	0.500000	0.000000 
		0.500000	0.500000	0.500000	0.000000 
		0.500000	0.500000	0.500000	0.000000 
		0.500000	0.500000	0.500000	0.000000 
		0.500000	0.500000	0.500000	0.000000 
		0.500000	0.500000	0.500000	0.000000 
		0.500000	0.500000	0.500000	0.000000 
		0.500000	0.500000	0.500000	0.000000 
	}

	Tex0 234 { 
		0.107422	0.621094 
		0.244141	0.685547 
		0.218750	0.685547 
		0.218750	0.705078 
		0.244141	0.705078 
		0.210938	0.716797 
		0.251953	0.716797 
		0.251953	0.673828 
		0.210938	0.673828 
		0.296875	0.154297 
		0.289063	0.157227 
		0.330078	0.157227 
		0.330078	0.154297 
		0.296875	0.103516 
		0.289063	0.099609 
		0.346680	0.103516 
		0.346680	0.099609 
		0.131836	0.686523 
		0.106445	0.686523 
		0.106445	0.705078 
		0.131836	0.705078 
		0.098633	0.716797 
		0.139648	0.716797 
		0.139648	0.673828 
		0.098633	0.673828 
		0.334961	0.685547 
		0.334961	0.705078 
		0.310547	0.705078 
		0.310547	0.685547 
		0.343750	0.716797 
		0.302734	0.716797 
		0.343750	0.673828 
		0.302734	0.673828 
		0.056641	0.305664 
		0.045898	0.907227 
		0.061523	0.916992 
		0.042969	0.916016 
		0.026367	0.906250 
		0.246094	0.923828 
		0.026367	0.897461 
		0.151367	0.362305 
		0.027344	0.353516 
		0.002930	0.232422 
		0.152344	0.232422 
		0.036133	0.361328 
		0.002930	0.091797 
		0.046875	0.083984 
		0.060547	0.120117 
		0.091797	0.143555 
		0.153320	0.144531 
		0.001953	0.064453 
		0.041016	0.062500 
		0.000977	0.084961 
		0.026367	0.597656 
		0.028320	0.590820 
		0.004883	0.590820 
		0.000977	0.597656 
		0.041992	0.904297 
		0.246094	0.911133 
		0.246094	0.758789 
		0.022461	0.758789 
		0.111328	0.634766 
		0.246094	0.635742 
		0.025391	0.637695 
		0.026367	0.611328 
		0.002930	0.758789 
		0.005859	0.566406 
		0.005859	0.505859 
		0.027344	0.505859 
		0.246094	0.597656 
		0.246094	0.590820 
		0.245117	0.935547 
		0.096680	0.936523 
		0.089844	0.949219 
		0.245117	0.949219 
		0.084961	0.939453 
		0.157227	0.232422 
		0.157227	0.358398 
		0.158203	0.144531 
		0.215820	0.140625 
		0.206055	0.419922 
		0.172852	0.255859 
		0.170898	0.140625 
		0.332031	0.140625 
		0.332031	0.426758 
		0.490234	0.255859 
		0.457031	0.419922 
		0.447266	0.140625 
		0.492188	0.140625 
		0.246094	0.501953 
		0.143555	0.752930 
		0.449219	0.916016 
		0.430664	0.916992 
		0.446289	0.907227 
		0.465820	0.906250 
		0.465820	0.897461 
		0.044922	0.062500 
		0.487305	0.590820 
		0.463867	0.590820 
		0.465820	0.597656 
		0.491211	0.597656 
		0.450195	0.904297 
		0.469727	0.758789 
		0.376953	0.609375 
		0.246094	0.609375 
		0.246094	0.617188 
		0.375000	0.617188 
		0.465820	0.611328 
		0.466797	0.637695 
		0.489258	0.758789 
		0.486328	0.566406 
		0.399414	0.949219 
		0.393555	0.936523 
		0.405273	0.939453 
		0.464844	0.505859 
		0.486328	0.505859 
		0.382813	0.635742 
		0.113281	0.609375 
		0.118164	0.617188 
		0.700195	0.482422 
		0.700195	0.495117 
		0.777344	0.495117 
		0.777344	0.482422 
		0.700195	0.846680 
		0.777344	0.846680 
		0.700195	0.943359 
		0.777344	0.943359 
		0.700195	0.939453 
		0.777344	0.939453 
		0.700195	0.834961 
		0.777344	0.834961 
		0.854492	0.000000 
		0.854492	0.364258 
		0.583008	0.364258 
		0.583008	0.000000 
		0.531250	0.369141 
		0.683594	0.369141 
		0.683594	0.598633 
		0.531250	0.598633 
		0.171875	0.400391 
		0.495117	0.400391 
		0.495117	0.133789 
		0.171875	0.133789 
		0.270508	0.801758 
		0.270508	0.849609 
		0.322266	0.849609 
		0.322266	0.801758 
		0.854492	0.368164 
		0.854492	0.598633 
		0.583008	0.598633 
		0.583008	0.368164 
		0.554688	0.346680 
		0.554688	0.017578 
		0.545898	0.598633 
		0.545898	0.368164 
		0.203125	0.436523 
		0.463867	0.436523 
		0.854492	1.000000 
		0.854492	0.832031 
		0.583008	0.832031 
		0.583008	1.000000 
		0.180664	0.801758 
		0.180664	0.849609 
		0.217773	0.849609 
		0.217773	0.801758 
		0.545898	0.832031 
		0.545898	1.000000 
		0.531250	0.832031 
		0.683594	0.832031 
		0.683594	1.000000 
		0.531250	1.000000 
		0.338867	0.015625 
		0.333984	0.021484 
		0.333984	0.068359 
		0.338867	0.074219 
		0.425781	0.074219 
		0.429688	0.068359 
		0.429688	0.021484 
		0.425781	0.015625 
		0.199219	0.015625 
		0.199219	0.046875 
		0.318359	0.046875 
		0.318359	0.015625 
		0.859375	0.999023 
		0.918945	0.999023 
		0.938477	0.873047 
		0.045898	0.281250 
		0.938477	0.445313 
		0.859375	0.367188 
		0.859375	0.445313 
		0.918945	0.367188 
		0.837891	-0.606445 
		0.837891	-0.032227 
		0.854492	-0.032227 
		0.854492	-0.606445 
		0.791016	-0.032227 
		0.791016	-0.606445 
		0.757813	-0.032227 
		0.757813	-0.606445 
		0.694336	-0.032227 
		0.694336	-0.606445 
		0.711914	-0.032227 
		0.711914	-0.606445 
		0.108398	0.436523 
		0.157227	0.436523 
		0.157227	0.475586 
		0.108398	0.475586 
		0.935547	0.181641 
		0.935547	0.009766 
		0.860352	0.009766 
		0.860352	0.181641 
		0.931641	0.065430 
		0.931641	0.015625 
		0.909180	0.065430 
		0.909180	0.015625 
		0.929688	0.506836 
		0.934570	0.513672 
		0.929688	0.477539 
		0.934570	0.432617 
		0.929688	0.438477 
		0.904297	0.438477 
		0.899414	0.432617 
		0.904297	0.477539 
		0.899414	0.513672 
		0.904297	0.506836 
		0.931641	0.297852 
		0.935547	0.353516 
		0.931641	0.348633 
		0.860352	0.353516 
		0.909180	0.297852 
		0.909180	0.348633 
		0.006836	0.433594 
		0.006836	0.474609 
		0.108398	0.433594 
	}

	Tex1 0 
	Adj 574 { 
		P 0 
		N 0 
		C0 0 
		T0 0 
		P 1 
		N 0 
		C0 1 
		T0 0 
		P 2 
		N 0 
		C0 2 
		T0 0 
		P 3 
		N 0 
		C0 3 
		T0 0 
		P 4 
		N 1 
		C0 4 
		T0 1 
		P 5 
		N 2 
		C0 5 
		T0 2 
		P 6 
		N 3 
		C0 6 
		T0 3 
		P 7 
		N 4 
		C0 7 
		T0 4 
		P 2 
		N 5 
		C0 8 
		T0 5 
		P 1 
		N 6 
		C0 9 
		T0 6 
		P 0 
		N 7 
		C0 10 
		T0 7 
		P 3 
		N 8 
		C0 11 
		T0 8 
		P 8 
		N 9 
		C0 12 
		T0 9 
		P 9 
		N 10 
		C0 13 
		T0 10 
		P 10 
		N 11 
		C0 14 
		T0 11 
		P 11 
		N 12 
		C0 15 
		T0 12 
		P 12 
		N 13 
		C0 16 
		T0 10 
		P 13 
		N 14 
		C0 17 
		T0 11 
		P 14 
		N 15 
		C0 18 
		T0 13 
		P 15 
		N 16 
		C0 19 
		T0 14 
		P 16 
		N 17 
		C0 20 
		T0 14 
		P 17 
		N 18 
		C0 21 
		T0 15 
		P 18 
		N 19 
		C0 22 
		T0 16 
		P 19 
		N 20 
		C0 23 
		T0 16 
		P 20 
		N 0 
		C0 24 
		T0 0 
		P 21 
		N 0 
		C0 25 
		T0 0 
		P 22 
		N 0 
		C0 26 
		T0 0 
		P 23 
		N 0 
		C0 27 
		T0 0 
		P 24 
		N 21 
		C0 28 
		T0 17 
		P 25 
		N 22 
		C0 29 
		T0 18 
		P 26 
		N 23 
		C0 30 
		T0 19 
		P 27 
		N 24 
		C0 31 
		T0 20 
		P 22 
		N 25 
		C0 32 
		T0 21 
		P 21 
		N 26 
		C0 33 
		T0 22 
		P 20 
		N 27 
		C0 34 
		T0 23 
		P 23 
		N 28 
		C0 35 
		T0 24 
		P 28 
		N 29 
		C0 36 
		T0 0 
		P 29 
		N 29 
		C0 37 
		T0 0 
		P 30 
		N 29 
		C0 38 
		T0 0 
		P 31 
		N 29 
		C0 39 
		T0 0 
		P 32 
		N 30 
		C0 40 
		T0 25 
		P 33 
		N 31 
		C0 41 
		T0 26 
		P 34 
		N 32 
		C0 42 
		T0 27 
		P 35 
		N 33 
		C0 43 
		T0 28 
		P 31 
		N 34 
		C0 44 
		T0 29 
		P 30 
		N 35 
		C0 45 
		T0 30 
		P 28 
		N 36 
		C0 46 
		T0 31 
		P 29 
		N 37 
		C0 47 
		T0 32 
		P 36 
		N 38 
		C0 48 
		T0 9 
		P 37 
		N 39 
		C0 49 
		T0 12 
		P 38 
		N 40 
		C0 50 
		T0 11 
		P 39 
		N 41 
		C0 51 
		T0 10 
		P 40 
		N 42 
		C0 52 
		T0 10 
		P 41 
		N 43 
		C0 53 
		T0 11 
		P 42 
		N 44 
		C0 54 
		T0 13 
		P 43 
		N 45 
		C0 55 
		T0 14 
		P 44 
		N 46 
		C0 56 
		T0 14 
		P 45 
		N 47 
		C0 57 
		T0 15 
		P 46 
		N 48 
		C0 58 
		T0 16 
		P 47 
		N 49 
		C0 59 
		T0 16 
		P 48 
		N 29 
		C0 60 
		T0 0 
		P 49 
		N 29 
		C0 61 
		T0 0 
		P 50 
		N 29 
		C0 62 
		T0 0 
		P 51 
		N 29 
		C0 63 
		T0 0 
		P 52 
		N 50 
		C0 64 
		T0 1 
		P 53 
		N 51 
		C0 65 
		T0 4 
		P 54 
		N 52 
		C0 66 
		T0 3 
		P 55 
		N 53 
		C0 67 
		T0 2 
		P 51 
		N 54 
		C0 68 
		T0 6 
		P 50 
		N 55 
		C0 69 
		T0 5 
		P 48 
		N 56 
		C0 70 
		T0 7 
		P 49 
		N 57 
		C0 71 
		T0 8 
		P 56 
		N 58 
		C0 72 
		T0 33 
		P 57 
		N 59 
		C0 73 
		T0 33 
		P 58 
		N 59 
		C0 74 
		T0 33 
		P 59 
		N 58 
		C0 75 
		T0 33 
		P 60 
		N 60 
		C0 76 
		T0 34 
		P 61 
		N 61 
		C0 77 
		T0 35 
		P 62 
		N 62 
		C0 78 
		T0 36 
		P 63 
		N 63 
		C0 79 
		T0 37 
		P 64 
		N 64 
		C0 80 
		T0 38 
		P 65 
		N 65 
		C0 81 
		T0 38 
		P 66 
		N 66 
		C0 82 
		T0 39 
		P 60 
		N 60 
		C0 83 
		T0 40 
		P 66 
		N 66 
		C0 84 
		T0 41 
		P 67 
		N 67 
		C0 85 
		T0 42 
		P 68 
		N 68 
		C0 86 
		T0 43 
		P 63 
		N 63 
		C0 87 
		T0 44 
		P 69 
		N 69 
		C0 88 
		T0 45 
		P 70 
		N 70 
		C0 89 
		T0 46 
		P 71 
		N 71 
		C0 90 
		T0 47 
		P 72 
		N 72 
		C0 91 
		T0 48 
		P 73 
		N 73 
		C0 92 
		T0 49 
		P 74 
		N 74 
		C0 93 
		T0 50 
		P 75 
		N 75 
		C0 94 
		T0 51 
		P 70 
		N 75 
		C0 95 
		T0 46 
		P 76 
		N 76 
		C0 96 
		T0 52 
		P 77 
		N 77 
		C0 97 
		T0 53 
		P 78 
		N 77 
		C0 98 
		T0 54 
		P 76 
		N 78 
		C0 99 
		T0 55 
		P 69 
		N 78 
		C0 100 
		T0 56 
		P 79 
		N 79 
		C0 101 
		T0 57 
		P 80 
		N 80 
		C0 102 
		T0 58 
		P 81 
		N 81 
		C0 103 
		T0 59 
		P 82 
		N 82 
		C0 104 
		T0 60 
		P 83 
		N 83 
		C0 105 
		T0 61 
		P 84 
		N 84 
		C0 106 
		T0 62 
		P 85 
		N 85 
		C0 107 
		T0 63 
		P 86 
		N 86 
		C0 108 
		T0 64 
		P 69 
		N 69 
		C0 109 
		T0 56 
		P 77 
		N 87 
		C0 110 
		T0 53 
		P 67 
		N 67 
		C0 111 
		T0 65 
		P 70 
		N 88 
		C0 112 
		T0 33 
		P 57 
		N 89 
		C0 113 
		T0 33 
		P 71 
		N 90 
		C0 114 
		T0 33 
		P 72 
		N 91 
		C0 115 
		T0 33 
		P 56 
		N 92 
		C0 116 
		T0 33 
		P 73 
		N 92 
		C0 117 
		T0 33 
		P 58 
		N 93 
		C0 118 
		T0 33 
		P 75 
		N 93 
		C0 119 
		T0 33 
		P 58 
		N 94 
		C0 120 
		T0 33 
		P 75 
		N 95 
		C0 121 
		T0 33 
		P 74 
		N 94 
		C0 122 
		T0 33 
		P 74 
		N 74 
		C0 123 
		T0 66 
		P 76 
		N 76 
		C0 124 
		T0 55 
		P 78 
		N 96 
		C0 125 
		T0 54 
		P 87 
		N 97 
		C0 126 
		T0 67 
		P 88 
		N 98 
		C0 127 
		T0 68 
		P 89 
		N 99 
		C0 128 
		T0 69 
		P 90 
		N 99 
		C0 129 
		T0 70 
		P 64 
		N 64 
		C0 130 
		T0 71 
		P 61 
		N 61 
		C0 131 
		T0 72 
		P 91 
		N 100 
		C0 132 
		T0 73 
		P 92 
		N 101 
		C0 133 
		T0 74 
		P 60 
		N 60 
		C0 134 
		T0 75 
		P 76 
		N 78 
		C0 135 
		T0 52 
		P 70 
		N 102 
		C0 136 
		T0 46 
		P 69 
		N 78 
		C0 137 
		T0 45 
		P 93 
		N 103 
		C0 138 
		T0 76 
		P 91 
		N 100 
		C0 139 
		T0 77 
		P 94 
		N 104 
		C0 140 
		T0 78 
		P 56 
		N 105 
		C0 141 
		T0 79 
		P 91 
		N 100 
		C0 142 
		T0 80 
		P 93 
		N 103 
		C0 143 
		T0 81 
		P 94 
		N 104 
		C0 144 
		T0 82 
		P 95 
		N 105 
		C0 145 
		T0 83 
		P 92 
		N 101 
		C0 146 
		T0 84 
		P 96 
		N 106 
		C0 147 
		T0 85 
		P 97 
		N 107 
		C0 148 
		T0 86 
		P 98 
		N 105 
		C0 149 
		T0 87 
		P 99 
		N 108 
		C0 150 
		T0 88 
		P 94 
		N 92 
		C0 151 
		T0 33 
		P 100 
		N 109 
		C0 152 
		T0 89 
		P 90 
		N 109 
		C0 153 
		T0 70 
		P 59 
		N 110 
		C0 154 
		T0 33 
		P 58 
		N 111 
		C0 155 
		T0 33 
		P 101 
		N 111 
		C0 156 
		T0 33 
		P 102 
		N 110 
		C0 157 
		T0 33 
		P 103 
		N 112 
		C0 158 
		T0 33 
		P 104 
		N 112 
		C0 159 
		T0 33 
		P 105 
		N 112 
		C0 160 
		T0 33 
		P 106 
		N 112 
		C0 161 
		T0 33 
		P 88 
		N 113 
		C0 162 
		T0 68 
		P 100 
		N 113 
		C0 163 
		T0 89 
		P 107 
		N 113 
		C0 164 
		T0 89 
		P 87 
		N 113 
		C0 165 
		T0 67 
		P 74 
		N 114 
		C0 166 
		T0 90 
		P 87 
		N 114 
		C0 167 
		T0 90 
		P 107 
		N 114 
		C0 168 
		T0 90 
		P 101 
		N 115 
		C0 169 
		T0 33 
		P 108 
		N 115 
		C0 170 
		T0 33 
		P 101 
		N 116 
		C0 171 
		T0 33 
		P 109 
		N 116 
		C0 172 
		T0 33 
		P 98 
		N 117 
		C0 173 
		T0 33 
		P 102 
		N 117 
		C0 174 
		T0 33 
		P 110 
		N 118 
		C0 175 
		T0 91 
		P 111 
		N 119 
		C0 176 
		T0 92 
		P 112 
		N 120 
		C0 177 
		T0 93 
		P 113 
		N 121 
		C0 178 
		T0 94 
		P 114 
		N 122 
		C0 179 
		T0 95 
		P 115 
		N 123 
		C0 180 
		T0 42 
		P 114 
		N 122 
		C0 181 
		T0 41 
		P 112 
		N 120 
		C0 182 
		T0 40 
		P 116 
		N 124 
		C0 183 
		T0 43 
		P 113 
		N 121 
		C0 184 
		T0 44 
		P 117 
		N 125 
		C0 185 
		T0 47 
		P 118 
		N 126 
		C0 186 
		T0 46 
		P 119 
		N 127 
		C0 187 
		T0 45 
		P 120 
		N 128 
		C0 188 
		T0 48 
		P 121 
		N 129 
		C0 189 
		T0 49 
		P 118 
		N 130 
		C0 190 
		T0 46 
		P 122 
		N 130 
		C0 191 
		T0 96 
		P 108 
		N 131 
		C0 192 
		T0 50 
		P 123 
		N 132 
		C0 193 
		T0 52 
		P 123 
		N 133 
		C0 194 
		T0 97 
		P 124 
		N 134 
		C0 195 
		T0 98 
		P 125 
		N 134 
		C0 196 
		T0 99 
		P 119 
		N 133 
		C0 197 
		T0 100 
		P 126 
		N 135 
		C0 198 
		T0 101 
		P 127 
		N 136 
		C0 199 
		T0 102 
		P 128 
		N 137 
		C0 200 
		T0 103 
		P 129 
		N 84 
		C0 201 
		T0 104 
		P 130 
		N 84 
		C0 202 
		T0 105 
		P 131 
		N 137 
		C0 203 
		T0 106 
		P 119 
		N 127 
		C0 204 
		T0 100 
		P 132 
		N 138 
		C0 205 
		T0 107 
		P 133 
		N 139 
		C0 206 
		T0 108 
		P 125 
		N 140 
		C0 207 
		T0 99 
		P 115 
		N 123 
		C0 208 
		T0 109 
		P 118 
		N 141 
		C0 209 
		T0 33 
		P 117 
		N 142 
		C0 210 
		T0 33 
		P 109 
		N 143 
		C0 211 
		T0 33 
		P 98 
		N 92 
		C0 212 
		T0 33 
		P 120 
		N 144 
		C0 213 
		T0 33 
		P 121 
		N 92 
		C0 214 
		T0 33 
		P 101 
		N 145 
		C0 215 
		T0 33 
		P 122 
		N 145 
		C0 216 
		T0 33 
		P 122 
		N 146 
		C0 217 
		T0 33 
		P 108 
		N 131 
		C0 218 
		T0 110 
		P 124 
		N 147 
		C0 219 
		T0 98 
		P 123 
		N 132 
		C0 220 
		T0 97 
		P 97 
		N 107 
		C0 221 
		T0 111 
		P 111 
		N 119 
		C0 222 
		T0 112 
		P 112 
		N 120 
		C0 223 
		T0 113 
		P 123 
		N 133 
		C0 224 
		T0 52 
		P 119 
		N 133 
		C0 225 
		T0 45 
		P 118 
		N 148 
		C0 226 
		T0 46 
		P 96 
		N 106 
		C0 227 
		T0 76 
		P 97 
		N 107 
		C0 228 
		T0 77 
		P 99 
		N 108 
		C0 229 
		T0 78 
		P 99 
		N 92 
		C0 230 
		T0 33 
		P 134 
		N 149 
		C0 231 
		T0 114 
		P 135 
		N 150 
		C0 232 
		T0 115 
		P 107 
		N 151 
		C0 233 
		T0 89 
		P 100 
		N 151 
		C0 234 
		T0 89 
		P 134 
		N 151 
		C0 235 
		T0 114 
		P 135 
		N 151 
		C0 236 
		T0 115 
		P 108 
		N 152 
		C0 237 
		T0 90 
		P 107 
		N 152 
		C0 238 
		T0 90 
		P 135 
		N 152 
		C0 239 
		T0 90 
		P 107 
		N 153 
		C0 240 
		T0 90 
		P 108 
		N 153 
		C0 241 
		T0 90 
		P 74 
		N 153 
		C0 242 
		T0 90 
		P 95 
		N 154 
		C0 243 
		T0 33 
		P 56 
		N 154 
		C0 244 
		T0 33 
		P 103 
		N 154 
		C0 245 
		T0 33 
		P 106 
		N 155 
		C0 246 
		T0 33 
		P 105 
		N 155 
		C0 247 
		T0 33 
		P 98 
		N 154 
		C0 248 
		T0 33 
		P 106 
		N 154 
		C0 249 
		T0 33 
		P 104 
		N 156 
		C0 250 
		T0 33 
		P 103 
		N 156 
		C0 251 
		T0 33 
		P 105 
		N 157 
		C0 252 
		T0 33 
		P 104 
		N 157 
		C0 253 
		T0 33 
		P 136 
		N 137 
		C0 254 
		T0 116 
		P 89 
		N 84 
		C0 255 
		T0 69 
		P 137 
		N 83 
		C0 256 
		T0 117 
		P 138 
		N 83 
		C0 257 
		T0 118 
		P 139 
		N 158 
		C0 258 
		T0 119 
		P 140 
		N 158 
		C0 259 
		T0 120 
		P 141 
		N 158 
		C0 260 
		T0 121 
		P 142 
		N 158 
		C0 261 
		T0 122 
		P 140 
		N 154 
		C0 262 
		T0 120 
		P 143 
		N 159 
		C0 263 
		T0 123 
		P 144 
		N 159 
		C0 264 
		T0 124 
		P 141 
		N 154 
		C0 265 
		T0 121 
		P 145 
		N 160 
		C0 266 
		T0 125 
		P 146 
		N 160 
		C0 267 
		T0 126 
		P 145 
		N 161 
		C0 268 
		T0 125 
		P 147 
		N 161 
		C0 269 
		T0 127 
		P 148 
		N 161 
		C0 270 
		T0 128 
		P 146 
		N 161 
		C0 271 
		T0 126 
		P 147 
		N 162 
		C0 272 
		T0 127 
		P 149 
		N 163 
		C0 273 
		T0 129 
		P 150 
		N 163 
		C0 274 
		T0 130 
		P 148 
		N 162 
		C0 275 
		T0 128 
		P 139 
		N 92 
		C0 276 
		T0 119 
		P 142 
		N 92 
		C0 277 
		T0 122 
		P 147 
		N 164 
		C0 278 
		T0 127 
		P 145 
		N 164 
		C0 279 
		T0 125 
		P 143 
		N 164 
		C0 280 
		T0 123 
		P 149 
		N 164 
		C0 281 
		T0 129 
		P 140 
		N 164 
		C0 282 
		T0 120 
		P 139 
		N 164 
		C0 283 
		T0 119 
		P 151 
		N 158 
		C0 284 
		T0 119 
		P 152 
		N 158 
		C0 285 
		T0 122 
		P 153 
		N 158 
		C0 286 
		T0 121 
		P 154 
		N 158 
		C0 287 
		T0 120 
		P 154 
		N 154 
		C0 288 
		T0 120 
		P 153 
		N 154 
		C0 289 
		T0 121 
		P 155 
		N 159 
		C0 290 
		T0 124 
		P 156 
		N 159 
		C0 291 
		T0 123 
		P 157 
		N 160 
		C0 292 
		T0 126 
		P 158 
		N 160 
		C0 293 
		T0 125 
		P 158 
		N 161 
		C0 294 
		T0 125 
		P 157 
		N 161 
		C0 295 
		T0 126 
		P 159 
		N 161 
		C0 296 
		T0 128 
		P 160 
		N 161 
		C0 297 
		T0 127 
		P 160 
		N 162 
		C0 298 
		T0 127 
		P 159 
		N 162 
		C0 299 
		T0 128 
		P 161 
		N 163 
		C0 300 
		T0 130 
		P 162 
		N 163 
		C0 301 
		T0 129 
		P 152 
		N 92 
		C0 302 
		T0 122 
		P 151 
		N 92 
		C0 303 
		T0 119 
		P 160 
		N 165 
		C0 304 
		T0 127 
		P 162 
		N 165 
		C0 305 
		T0 129 
		P 156 
		N 165 
		C0 306 
		T0 123 
		P 158 
		N 165 
		C0 307 
		T0 125 
		P 151 
		N 165 
		C0 308 
		T0 119 
		P 154 
		N 165 
		C0 309 
		T0 120 
		P 163 
		N 105 
		C0 310 
		T0 131 
		P 164 
		N 105 
		C0 311 
		T0 132 
		P 165 
		N 105 
		C0 312 
		T0 133 
		P 166 
		N 105 
		C0 313 
		T0 134 
		P 167 
		N 166 
		C0 314 
		T0 135 
		P 168 
		N 167 
		C0 315 
		T0 136 
		P 169 
		N 167 
		C0 316 
		T0 137 
		P 170 
		N 166 
		C0 317 
		T0 138 
		P 171 
		N 168 
		C0 318 
		T0 139 
		P 172 
		N 168 
		C0 319 
		T0 140 
		P 173 
		N 168 
		C0 320 
		T0 141 
		P 174 
		N 168 
		C0 321 
		T0 142 
		P 175 
		N 92 
		C0 322 
		T0 143 
		P 176 
		N 92 
		C0 323 
		T0 144 
		P 164 
		N 92 
		C0 324 
		T0 145 
		P 163 
		N 92 
		C0 325 
		T0 146 
		P 164 
		N 164 
		C0 326 
		T0 147 
		P 176 
		N 164 
		C0 327 
		T0 148 
		P 177 
		N 169 
		C0 328 
		T0 149 
		P 165 
		N 169 
		C0 329 
		T0 150 
		P 175 
		N 165 
		C0 330 
		T0 148 
		P 163 
		N 165 
		C0 331 
		T0 147 
		P 166 
		N 170 
		C0 332 
		T0 150 
		P 178 
		N 170 
		C0 333 
		T0 149 
		P 168 
		N 105 
		C0 334 
		T0 151 
		P 167 
		N 105 
		C0 335 
		T0 152 
		P 169 
		N 167 
		C0 336 
		T0 153 
		P 168 
		N 167 
		C0 337 
		T0 154 
		P 179 
		N 168 
		C0 338 
		T0 155 
		P 180 
		N 168 
		C0 339 
		T0 156 
		P 170 
		N 166 
		C0 340 
		T0 153 
		P 167 
		N 166 
		C0 341 
		T0 154 
		P 174 
		N 165 
		C0 342 
		T0 157 
		P 181 
		N 165 
		C0 343 
		T0 158 
		P 182 
		N 170 
		C0 344 
		T0 159 
		P 171 
		N 170 
		C0 345 
		T0 160 
		P 174 
		N 92 
		C0 346 
		T0 161 
		P 173 
		N 92 
		C0 347 
		T0 162 
		P 183 
		N 92 
		C0 348 
		T0 163 
		P 181 
		N 92 
		C0 349 
		T0 164 
		P 184 
		N 169 
		C0 350 
		T0 159 
		P 183 
		N 164 
		C0 351 
		T0 158 
		P 173 
		N 164 
		C0 352 
		T0 157 
		P 172 
		N 169 
		C0 353 
		T0 160 
		P 185 
		N 167 
		C0 354 
		T0 165 
		P 180 
		N 167 
		C0 355 
		T0 166 
		P 186 
		N 166 
		C0 356 
		T0 167 
		P 185 
		N 167 
		C0 357 
		T0 168 
		P 180 
		N 167 
		C0 358 
		T0 169 
		P 179 
		N 166 
		C0 359 
		T0 170 
		P 186 
		N 166 
		C0 360 
		T0 165 
		P 179 
		N 166 
		C0 361 
		T0 166 
		P 187 
		N 171 
		C0 362 
		T0 171 
		P 188 
		N 172 
		C0 363 
		T0 171 
		P 189 
		N 173 
		C0 364 
		T0 172 
		P 190 
		N 174 
		C0 365 
		T0 172 
		P 191 
		N 175 
		C0 366 
		T0 173 
		P 192 
		N 176 
		C0 367 
		T0 173 
		P 193 
		N 177 
		C0 368 
		T0 174 
		P 194 
		N 178 
		C0 369 
		T0 174 
		P 194 
		N 154 
		C0 370 
		T0 174 
		P 195 
		N 179 
		C0 371 
		T0 175 
		P 196 
		N 180 
		C0 372 
		T0 175 
		P 197 
		N 181 
		C0 373 
		T0 176 
		P 198 
		N 182 
		C0 374 
		T0 176 
		P 199 
		N 183 
		C0 375 
		T0 177 
		P 200 
		N 184 
		C0 376 
		T0 177 
		P 201 
		N 185 
		C0 377 
		T0 178 
		P 202 
		N 186 
		C0 378 
		T0 178 
		P 202 
		N 92 
		C0 379 
		T0 178 
		P 187 
		N 92 
		C0 380 
		T0 171 
		P 202 
		N 187 
		C0 381 
		T0 178 
		P 187 
		N 187 
		C0 382 
		T0 171 
		P 190 
		N 188 
		C0 383 
		T0 172 
		P 200 
		N 188 
		C0 384 
		T0 177 
		P 192 
		N 189 
		C0 385 
		T0 173 
		P 198 
		N 189 
		C0 386 
		T0 176 
		P 194 
		N 190 
		C0 387 
		T0 174 
		P 196 
		N 190 
		C0 388 
		T0 175 
		P 203 
		N 171 
		C0 389 
		T0 171 
		P 204 
		N 174 
		C0 390 
		T0 172 
		P 205 
		N 191 
		C0 391 
		T0 172 
		P 206 
		N 192 
		C0 392 
		T0 171 
		P 207 
		N 176 
		C0 393 
		T0 173 
		P 208 
		N 193 
		C0 394 
		T0 173 
		P 209 
		N 178 
		C0 395 
		T0 174 
		P 210 
		N 194 
		C0 396 
		T0 174 
		P 209 
		N 154 
		C0 397 
		T0 174 
		P 211 
		N 180 
		C0 398 
		T0 175 
		P 212 
		N 195 
		C0 399 
		T0 175 
		P 213 
		N 182 
		C0 400 
		T0 176 
		P 214 
		N 196 
		C0 401 
		T0 176 
		P 215 
		N 184 
		C0 402 
		T0 177 
		P 216 
		N 197 
		C0 403 
		T0 177 
		P 217 
		N 186 
		C0 404 
		T0 178 
		P 218 
		N 198 
		C0 405 
		T0 178 
		P 217 
		N 92 
		C0 406 
		T0 178 
		P 203 
		N 92 
		C0 407 
		T0 171 
		P 217 
		N 199 
		C0 408 
		T0 178 
		P 215 
		N 200 
		C0 409 
		T0 177 
		P 204 
		N 200 
		C0 410 
		T0 172 
		P 203 
		N 199 
		C0 411 
		T0 171 
		P 213 
		N 201 
		C0 412 
		T0 176 
		P 207 
		N 201 
		C0 413 
		T0 173 
		P 211 
		N 202 
		C0 414 
		T0 175 
		P 209 
		N 202 
		C0 415 
		T0 174 
		P 219 
		N 105 
		C0 416 
		T0 179 
		P 220 
		N 105 
		C0 417 
		T0 180 
		P 221 
		N 105 
		C0 418 
		T0 181 
		P 222 
		N 105 
		C0 419 
		T0 182 
		P 223 
		N 165 
		C0 420 
		T0 183 
		P 224 
		N 165 
		C0 421 
		T0 184 
		P 225 
		N 165 
		C0 422 
		T0 185 
		P 226 
		N 203 
		C0 423 
		T0 186 
		P 225 
		N 203 
		C0 424 
		T0 186 
		P 224 
		N 204 
		C0 425 
		T0 186 
		P 227 
		N 204 
		C0 426 
		T0 186 
		P 228 
		N 165 
		C0 427 
		T0 187 
		P 222 
		N 165 
		C0 428 
		T0 188 
		P 228 
		N 205 
		C0 429 
		T0 186 
		P 229 
		N 157 
		C0 430 
		T0 186 
		P 230 
		N 157 
		C0 431 
		T0 186 
		P 220 
		N 206 
		C0 432 
		T0 186 
		P 219 
		N 206 
		C0 433 
		T0 186 
		P 229 
		N 164 
		C0 434 
		T0 187 
		P 231 
		N 164 
		C0 435 
		T0 189 
		P 221 
		N 164 
		C0 436 
		T0 188 
		P 220 
		N 164 
		C0 437 
		T0 190 
		P 219 
		N 165 
		C0 438 
		T0 190 
		P 231 
		N 105 
		C0 439 
		T0 189 
		P 229 
		N 105 
		C0 440 
		T0 187 
		P 230 
		N 105 
		C0 441 
		T0 187 
		P 232 
		N 105 
		C0 442 
		T0 189 
		P 233 
		N 105 
		C0 443 
		T0 179 
		P 234 
		N 105 
		C0 444 
		T0 182 
		P 235 
		N 105 
		C0 445 
		T0 181 
		P 236 
		N 105 
		C0 446 
		T0 180 
		P 223 
		N 168 
		C0 447 
		T0 183 
		P 237 
		N 168 
		C0 448 
		T0 183 
		P 227 
		N 168 
		C0 449 
		T0 184 
		P 224 
		N 168 
		C0 450 
		T0 184 
		P 237 
		N 164 
		C0 451 
		T0 183 
		P 226 
		N 164 
		C0 452 
		T0 185 
		P 227 
		N 164 
		C0 453 
		T0 184 
		P 238 
		N 205 
		C0 454 
		T0 186 
		P 234 
		N 164 
		C0 455 
		T0 188 
		P 238 
		N 164 
		C0 456 
		T0 187 
		P 233 
		N 206 
		C0 457 
		T0 186 
		P 236 
		N 206 
		C0 458 
		T0 186 
		P 230 
		N 165 
		C0 459 
		T0 187 
		P 236 
		N 165 
		C0 460 
		T0 190 
		P 235 
		N 165 
		C0 461 
		T0 188 
		P 232 
		N 165 
		C0 462 
		T0 189 
		P 233 
		N 164 
		C0 463 
		T0 190 
		P 239 
		N 105 
		C0 464 
		T0 191 
		P 240 
		N 105 
		C0 465 
		T0 192 
		P 241 
		N 105 
		C0 466 
		T0 193 
		P 242 
		N 105 
		C0 467 
		T0 194 
		P 242 
		N 207 
		C0 468 
		T0 194 
		P 241 
		N 207 
		C0 469 
		T0 193 
		P 243 
		N 208 
		C0 470 
		T0 195 
		P 244 
		N 208 
		C0 471 
		T0 196 
		P 245 
		N 209 
		C0 472 
		T0 197 
		P 246 
		N 209 
		C0 473 
		T0 198 
		P 247 
		N 210 
		C0 474 
		T0 199 
		P 248 
		N 210 
		C0 475 
		T0 200 
		P 248 
		N 168 
		C0 476 
		T0 200 
		P 247 
		N 168 
		C0 477 
		T0 199 
		P 249 
		N 168 
		C0 478 
		T0 201 
		P 250 
		N 168 
		C0 479 
		T0 202 
		P 250 
		N 211 
		C0 480 
		T0 202 
		P 249 
		N 211 
		C0 481 
		T0 201 
		P 251 
		N 212 
		C0 482 
		T0 197 
		P 252 
		N 212 
		C0 483 
		T0 198 
		P 253 
		N 213 
		C0 484 
		T0 195 
		P 254 
		N 213 
		C0 485 
		T0 196 
		P 240 
		N 214 
		C0 486 
		T0 192 
		P 239 
		N 214 
		C0 487 
		T0 191 
		P 251 
		N 164 
		C0 488 
		T0 197 
		P 249 
		N 164 
		C0 489 
		T0 201 
		P 247 
		N 164 
		C0 490 
		T0 199 
		P 245 
		N 164 
		C0 491 
		T0 197 
		P 253 
		N 164 
		C0 492 
		T0 195 
		P 243 
		N 164 
		C0 493 
		T0 195 
		P 240 
		N 164 
		C0 494 
		T0 192 
		P 241 
		N 164 
		C0 495 
		T0 193 
		P 250 
		N 165 
		C0 496 
		T0 202 
		P 252 
		N 165 
		C0 497 
		T0 198 
		P 246 
		N 165 
		C0 498 
		T0 198 
		P 248 
		N 165 
		C0 499 
		T0 200 
		P 254 
		N 165 
		C0 500 
		T0 196 
		P 244 
		N 165 
		C0 501 
		T0 196 
		P 239 
		N 165 
		C0 502 
		T0 191 
		P 242 
		N 165 
		C0 503 
		T0 194 
		P 255 
		N 215 
		C0 504 
		T0 203 
		P 256 
		N 216 
		C0 505 
		T0 204 
		P 257 
		N 217 
		C0 506 
		T0 205 
		P 258 
		N 218 
		C0 507 
		T0 206 
		P 259 
		N 168 
		C0 508 
		T0 207 
		P 260 
		N 168 
		C0 509 
		T0 208 
		P 261 
		N 168 
		C0 510 
		T0 209 
		P 262 
		N 168 
		C0 511 
		T0 210 
		P 263 
		N 92 
		C0 512 
		T0 208 
		P 260 
		N 92 
		C0 513 
		T0 208 
		P 259 
		N 92 
		C0 514 
		T0 207 
		P 264 
		N 92 
		C0 515 
		T0 207 
		P 260 
		N 165 
		C0 516 
		T0 208 
		P 263 
		N 165 
		C0 517 
		T0 208 
		P 265 
		N 165 
		C0 518 
		T0 209 
		P 261 
		N 165 
		C0 519 
		T0 209 
		P 266 
		N 219 
		C0 520 
		T0 211 
		P 267 
		N 220 
		C0 521 
		T0 212 
		P 263 
		N 105 
		C0 522 
		T0 208 
		P 264 
		N 105 
		C0 523 
		T0 207 
		P 268 
		N 105 
		C0 524 
		T0 210 
		P 269 
		N 221 
		C0 525 
		T0 213 
		P 265 
		N 105 
		C0 526 
		T0 209 
		P 270 
		N 222 
		C0 527 
		T0 214 
		P 255 
		N 215 
		C0 528 
		T0 215 
		P 267 
		N 220 
		C0 529 
		T0 216 
		P 256 
		N 216 
		C0 530 
		T0 217 
		P 266 
		N 219 
		C0 531 
		T0 218 
		P 271 
		N 223 
		C0 532 
		T0 219 
		P 272 
		N 224 
		C0 533 
		T0 220 
		P 269 
		N 221 
		C0 534 
		T0 221 
		P 257 
		N 217 
		C0 535 
		T0 222 
		P 270 
		N 222 
		C0 536 
		T0 223 
		P 258 
		N 218 
		C0 537 
		T0 224 
		P 273 
		N 225 
		C0 538 
		T0 203 
		P 274 
		N 226 
		C0 539 
		T0 206 
		P 275 
		N 217 
		C0 540 
		T0 205 
		P 276 
		N 216 
		C0 541 
		T0 204 
		P 277 
		N 220 
		C0 542 
		T0 225 
		P 278 
		N 105 
		C0 543 
		T0 226 
		P 279 
		N 219 
		C0 544 
		T0 227 
		P 280 
		N 168 
		C0 545 
		T0 228 
		P 281 
		N 168 
		C0 546 
		T0 226 
		P 281 
		N 92 
		C0 547 
		T0 226 
		P 278 
		N 92 
		C0 548 
		T0 226 
		P 281 
		N 164 
		C0 549 
		T0 226 
		P 280 
		N 164 
		C0 550 
		T0 228 
		P 282 
		N 164 
		C0 551 
		T0 228 
		P 278 
		N 164 
		C0 552 
		T0 226 
		P 282 
		N 105 
		C0 553 
		T0 228 
		P 283 
		N 222 
		C0 554 
		T0 229 
		P 284 
		N 221 
		C0 555 
		T0 230 
		P 277 
		N 220 
		C0 556 
		T0 218 
		P 279 
		N 219 
		C0 557 
		T0 216 
		P 276 
		N 216 
		C0 558 
		T0 217 
		P 273 
		N 225 
		C0 559 
		T0 215 
		P 285 
		N 227 
		C0 560 
		T0 219 
		P 284 
		N 221 
		C0 561 
		T0 223 
		P 283 
		N 222 
		C0 562 
		T0 221 
		P 275 
		N 217 
		C0 563 
		T0 222 
		P 286 
		N 228 
		C0 564 
		T0 220 
		P 274 
		N 226 
		C0 565 
		T0 224 
		P 271 
		N 223 
		C0 566 
		T0 231 
		P 272 
		N 224 
		C0 567 
		T0 232 
		P 257 
		N 217 
		C0 568 
		T0 206 
		P 256 
		N 216 
		C0 569 
		T0 233 
		P 285 
		N 227 
		C0 570 
		T0 231 
		P 276 
		N 216 
		C0 571 
		T0 233 
		P 275 
		N 217 
		C0 572 
		T0 206 
		P 286 
		N 228 
		C0 573 
		T0 232 
	}

	Mtl 3 { 
		{
			Name "#2" 
			Priority 32 
			Prim 91 { 
				{
					Type TRISTRIP
					Priority 32 
					Idx 4 { 3 0 2 1 }
				}
				{
					Type TRISTRIP
					Priority 32 
					Idx 4 { 27 24 26 25 }
				}
				{
					Type TRISTRIP
					Priority 32 
					Idx 4 { 36 37 39 38 }
				}
				{
					Type TRISTRIP
					Priority 32 
					Idx 4 { 60 61 63 62 }
				}
				{
					Type TRISTRIP
					Priority 32 
					Idx 4 { 93 94 96 95 }
				}
				{
					Type TRISTRIP
					Priority 32 
					Idx 10 { 99 100 98 97 129 128 195 196 194 197 }
				}
				{
					Type TRISTRIP
					Priority 32 
					Idx 6 { 121 122 120 170 169 217 }
				}
				{
					Type TRISTRIP
					Priority 32 
					Idx 5 { 124 125 123 127 126 }
				}
				{
					Type TRISTRIP2
					Priority 32 
					Idx 6 { 74 73 75 72 250 251 }
				}
				{
					Type TRISTRIP2
					Priority 32 
					Idx 10 { 144 143 141 142 145 146 149 148 150 147 }
				}
				{
					Type TRISTRIP2
					Priority 32 
					Idx 4 { 159 158 160 161 }
				}
				{
					Type TRISTRIP2
					Priority 32 
					Idx 4 { 165 164 162 163 }
				}
				{
					Type TRISTRIP2
					Priority 32 
					Idx 4 { 192 191 193 190 }
				}
				{
					Type TRISTRIP2
					Priority 32 
					Idx 4 { 234 233 235 236 }
				}
				{
					Type TRISTRIP2
					Priority 32 
					Idx 5 { 244 243 245 248 249 }
				}
				{
					Type TRISTRIP
					Priority 32 
					Idx 8 { 134 132 131 133 130 221 222 223 }
				}
				{
					Type TRISTRIP
					Priority 32 
					Idx 6 { 155 156 154 157 253 252 }
				}
				{
					Type TRISTRIP
					Priority 32 
					Idx 6 { 171 172 174 173 247 246 }
				}
				{
					Type TRISTRIP
					Priority 32 
					Idx 4 { 260 261 259 258 }
				}
				{
					Type TRISTRIP
					Priority 32 
					Idx 4 { 270 271 269 268 }
				}
				{
					Type TRISTRIP
					Priority 32 
					Idx 6 { 275 272 274 273 277 276 }
				}
				{
					Type TRISTRIP
					Priority 32 
					Idx 6 { 278 279 281 280 283 282 }
				}
				{
					Type TRISTRIP
					Priority 32 
					Idx 4 { 287 284 286 285 }
				}
				{
					Type TRISTRIP
					Priority 32 
					Idx 4 { 297 294 296 295 }
				}
				{
					Type TRISTRIP
					Priority 32 
					Idx 6 { 298 299 301 300 303 302 }
				}
				{
					Type TRISTRIP
					Priority 32 
					Idx 6 { 310 311 313 312 335 334 }
				}
				{
					Type TRISTRIP
					Priority 32 
					Idx 8 { 324 325 323 322 348 349 347 346 }
				}
				{
					Type TRISTRIP
					Priority 32 
					Idx 4 { 416 417 419 418 }
				}
				{
					Type TRISTRIP
					Priority 32 
					Idx 4 { 434 435 437 436 }
				}
				{
					Type TRISTRIP
					Priority 32 
					Idx 4 { 440 441 439 442 }
				}
				{
					Type TRISTRIP
					Priority 32 
					Idx 4 { 446 443 445 444 }
				}
				{
					Type TRISTRIP
					Priority 32 
					Idx 4 { 450 447 449 448 }
				}
				{
					Type TRISTRIP
					Priority 32 
					Idx 6 { 453 451 452 455 456 463 }
				}
				{
					Type TRISTRIP
					Priority 32 
					Idx 4 { 459 460 462 461 }
				}
				{
					Type TRISTRIP
					Priority 32 
					Idx 4 { 464 465 467 466 }
				}
				{
					Type TRISTRIP
					Priority 32 
					Idx 4 { 479 476 478 477 }
				}
				{
					Type TRISTRIP
					Priority 32 
					Idx 8 { 480 481 483 482 485 484 487 486 }
				}
				{
					Type TRISTRIP
					Priority 32 
					Idx 8 { 489 490 488 491 492 493 494 495 }
				}
				{
					Type TRISTRIP
					Priority 32 
					Idx 4 { 504 505 507 506 }
				}
				{
					Type TRISTRIP
					Priority 32 
					Idx 6 { 509 510 508 511 546 545 }
				}
				{
					Type TRISTRIP
					Priority 32 
					Idx 4 { 517 518 516 519 }
				}
				{
					Type TRISTRIP
					Priority 32 
					Idx 4 { 541 538 540 539 }
				}
				{
					Type TRISTRIP
					Priority 32 
					Idx 4 { 549 550 552 551 }
				}
				{
					Type TRISTRIP
					Priority 32 
					Idx 11 { 404 405 402 403 402 401 400 399 398 396 397 }
				}
				{
					Type TRISTRIP2
					Priority 32 
					Idx 6 { 262 265 263 264 266 267 }
				}
				{
					Type TRISTRIP2
					Priority 32 
					Idx 6 { 289 288 290 291 292 293 }
				}
				{
					Type TRISTRIP2
					Priority 32 
					Idx 6 { 304 307 305 306 308 309 }
				}
				{
					Type TRISTRIP2
					Priority 32 
					Idx 8 { 315 314 316 317 357 356 358 359 }
				}
				{
					Type TRISTRIP2
					Priority 32 
					Idx 6 { 321 320 318 319 338 339 }
				}
				{
					Type TRISTRIP2
					Priority 32 
					Idx 6 { 421 420 422 428 427 438 }
				}
				{
					Type TRISTRIP2
					Priority 32 
					Idx 8 { 469 468 470 471 472 473 474 475 }
				}
				{
					Type TRISTRIP2
					Priority 32 
					Idx 8 { 496 499 497 498 500 501 502 503 }
				}
				{
					Type TRISTRIP2
					Priority 32 
					Idx 6 { 513 512 514 515 547 548 }
				}
				{
					Type TRISTRIP2
					Priority 32 
					Idx 11 { 352 351 353 350 355 350 354 328 336 329 337 }
				}
				{
					Type TRISTRIP
					Priority 32 
					Idx 6 { 329 326 328 327 350 351 }
				}
				{
					Type TRISTRIP
					Priority 32 
					Idx 11 { 342 343 345 344 361 344 360 333 340 332 341 }
				}
				{
					Type TRISTRIP2
					Priority 32 
					Idx 6 { 332 331 333 330 344 343 }
				}
				{
					Type TRISTRIP2
					Priority 32 
					Idx 9 { 408 411 409 410 412 413 412 415 414 }
				}
				{
					Type TRISTRIP
					Priority 32 
					Idx 10 { 457 458 454 431 423 430 423 424 426 425 }
				}
				{
					Type TRISTRIP
					Priority 32 
					Idx 5 { 432 433 430 429 424 }
				}
				{
					Type TRISTRIP2
					Priority 32 
					Idx 9 { 382 381 383 384 383 386 385 388 387 }
				}
				{
					Type TRISTRIP
					Priority 32 
					Idx 10 { 220 218 219 232 219 231 153 152 125 127 }
				}
				{
					Type TRISTRIP
					Priority 32 
					Idx 10 { 151 117 116 115 113 114 113 112 118 119 }
				}
				{
					Type TRISTRIP
					Priority 32 
					Idx 9 { 362 363 365 364 367 366 367 368 369 }
				}
				{
					Type TRISTRIP2
					Priority 32 
					Idx 37 { 177 176 178 175 179 198 208 199 208 206 204 205 207 200 255 201 255 256 110 108 109 107 111 104 82 101 82 78 79 78 76 78 77 81 80 175 176 }
				}
				{
					Type TRISTRIP
					Priority 32 
					Idx 11 { 175 198 81 102 78 102 101 103 104 105 107 }
				}
				{
					Type TRISTRIP2
					Priority 32 
					Idx 7 { 198 102 199 103 199 254 206 }
				}
				{
					Type TRISTRIP
					Priority 32 
					Idx 15 { 256 257 201 202 200 202 203 106 254 106 103 106 105 202 257 }
				}
				{
					Type TRISTRIP2
					Priority 32 
					Idx 14 { 228 182 227 183 229 183 189 183 188 180 185 180 186 187 }
				}
				{
					Type TRISTRIP2
					Priority 32 
					Idx 5 { 180 183 181 182 184 }
				}
				{
					Type TRISTRIP
					Priority 32 
					Idx 11 { 215 216 211 209 211 210 211 213 212 214 230 }
				}
				{
					Type TRISTRIP2
					Priority 32 
					Idx 21 { 407 406 392 405 391 403 391 401 394 399 394 396 394 395 394 393 394 390 391 389 392 }
				}
				{
					Type TRISTRIP
					Priority 32 
					Idx 14 { 139 83 138 86 140 86 92 86 91 85 90 85 89 88 }
				}
				{
					Type TRISTRIP
					Priority 32 
					Idx 5 { 85 86 84 83 87 }
				}
				{
					Type TRISTRIP2
					Priority 32 
					Idx 26 { 379 380 377 363 377 364 377 375 378 375 376 375 374 375 373 364 373 366 371 368 371 370 371 372 373 374 }
				}
				{
					Type TRISTRIP2
					Priority 32 
					Idx 10 { 543 523 542 524 554 553 555 543 544 542 }
				}
				{
					Type TRISTRIP2
					Priority 32 
					Idx 13 { 562 560 556 558 557 559 561 565 561 563 562 564 560 }
				}
				{
					Type TRISTRIP
					Priority 32 
					Idx 13 { 534 532 531 530 529 528 536 537 536 535 534 533 532 }
				}
				{
					Type TRISTRIP2
					Priority 32 
					Idx 13 { 68 70 64 71 67 69 66 68 65 64 65 67 66 }
				}
				{
					Type TRISTRIP
					Priority 32 
					Idx 13 { 34 35 29 32 30 33 31 34 28 29 28 30 31 }
				}
				{
					Type TRISTRIP2
					Priority 32 
					Idx 13 { 44 46 40 47 43 45 42 44 41 40 41 43 42 }
				}
				{
					Type TRISTRIP
					Priority 32 
					Idx 22 { 23 21 18 22 19 23 20 18 20 16 19 13 18 12 16 17 13 14 13 15 12 17 }
				}
				{
					Type TRISTRIP
					Priority 32 
					Idx 9 { 59 56 57 54 57 55 58 56 59 }
				}
				{
					Type TRISTRIP2
					Priority 32 
					Idx 15 { 49 51 50 52 53 52 49 48 51 55 52 56 48 54 55 }
				}
				{
					Type TRISTRIP
					Priority 32 
					Idx 14 { 8 5 11 5 10 4 9 7 8 6 5 6 4 7 }
				}
				{
					Type TRISTRIP
					Priority 32 
					Idx 12 { 521 527 526 525 524 525 523 520 523 521 522 526 }
				}
				{
					Type TRISTRIP
					Priority 32 
					Idx 3 { 137 135 136 }
				}
				{
					Type TRISTRIP2
					Priority 32 
					Idx 3 { 166 168 167 }
				}
				{
					Type TRISTRIP
					Priority 32 
					Idx 3 { 226 224 225 }
				}
				{
					Type TRISTRIP2
					Priority 32 
					Idx 3 { 237 239 238 }
				}
				{
					Type TRISTRIP
					Priority 32 
					Idx 3 { 242 240 241 }
				}
			}

		}
		{
			Name "#3" 
			Priority 32 
			Prim 2 { 
				{
					Type TRISTRIP
					Priority 32 
					Idx 5 { 256 108 257 107 105 }
				}
				{
					Type TRISTRIP2
					Priority 32 
					Idx 5 { 206 254 205 203 200 }
				}
			}

		}
		{
			Name "#4" 
			Priority 32 
			Prim 2 { 
				{
					Type TRISTRIP
					Priority 32 
					Idx 4 { 569 566 568 567 }
				}
				{
					Type TRISTRIP
					Priority 32 
					Idx 4 { 570 571 573 572 }
				}
			}

		}
	}

	Offset 0 
}
