{
	Skinned 0 
	PosSkin 0 
	Pos 163 { 
		0.842914	0.335227	-2.307810 
		0.434936	0.335227	-2.296590 
		0.560927	0.335227	-2.410160 
		1.121850	0.335227	-2.406560 
		-0.842915	0.335227	-2.317820 
		-1.121860	0.335227	-2.407190 
		-0.560928	0.335227	-2.407190 
		-0.435127	0.335227	-2.297480 
		-0.433118	0.509164	2.587400 
		-0.433119	0.509163	-2.319890 
		0.433118	0.509163	-2.294840 
		0.433119	0.509163	2.587400 
		-0.433119	0.841468	-1.355730 
		-0.433118	0.754284	3.511440 
		-0.433117	1.068580	5.437930 
		-0.433119	0.990004	-1.350230 
		-0.433117	0.754284	5.437930 
		-0.433118	0.318943	2.987930 
		-0.433119	0.841453	-2.329810 
		-0.842914	0.841467	-1.405730 
		-0.842915	0.841453	-2.329810 
		-0.792914	0.841468	-1.355730 
		-0.560928	0.505660	-3.520160 
		0.560927	0.505660	-3.520290 
		0.433119	0.318943	2.987930 
		0.433120	1.068580	5.437930 
		0.433120	0.754284	5.437930 
		0.433118	0.990004	-1.350230 
		0.433119	0.754284	3.511440 
		0.433118	0.841468	-1.355730 
		0.433118	0.841453	-2.329620 
		0.842914	0.841453	-2.344660 
		0.842914	0.841467	-1.405730 
		0.792914	0.841468	-1.355730 
		-1.038470	1.014350	5.458840 
		-1.038480	1.014350	-1.097650 
		1.038440	1.014350	-1.097650 
		1.038440	1.014350	5.458840 
		-0.581653	1.070280	-3.792330 
		-0.000001	0.855533	-3.920160 
		-0.581011	0.866434	-3.817420 
		-0.000001	0.627502	-3.893280 
		-0.579298	0.638403	-3.788170 
		-0.842915	0.523547	-3.520160 
		-0.724215	2.267610	-1.400420 
		-0.722780	2.275450	-2.125650 
		-0.780272	1.974510	-2.287630 
		-0.797136	1.972160	-1.390390 
		-0.842494	1.620830	-1.391770 
		-0.842915	1.604900	-2.439850 
		-1.115130	1.008820	-3.292110 
		-1.121860	1.111400	-2.875930 
		-1.056180	1.217750	-3.217430 
		-1.052970	1.163820	-3.442560 
		-1.121860	0.938322	-2.579750 
		-1.056180	1.085000	-2.525920 
		-1.056180	1.215220	-2.849260 
		-1.061380	0.335227	-2.359830 
		-1.056180	0.719029	-2.371230 
		-1.121860	0.665889	-2.435020 
		-1.045650	1.069930	-3.585580 
		-1.038320	0.887642	-3.668360 
		-1.094070	0.793225	-3.456980 
		-1.017500	0.659611	-3.659380 
		-1.010640	0.571248	-3.520160 
		-0.802063	1.316160	-2.822210 
		-0.764713	1.494380	-3.099310 
		-0.755058	1.310270	-3.238370 
		-0.839290	1.194250	-2.499170 
		-0.682729	1.366310	-3.613190 
		-0.702717	1.237790	-3.500330 
		-0.626307	1.177360	-3.724310 
		-0.000000	2.352820	-1.350230 
		-0.665180	2.317020	-1.350230 
		-0.792914	1.619700	-1.341780 
		-0.000000	2.361550	-2.224800 
		-0.663583	2.325750	-2.155530 
		-0.000000	2.032970	-2.375871 
		-0.733643	1.999020	-2.342930 
		-0.000001	1.696210	-2.562261 
		-0.787640	1.631150	-2.497790 
		-0.000001	1.594400	-3.238200 
		-0.720026	1.542970	-3.117610 
		-0.000001	1.461240	-3.761110 
		-0.638935	1.409810	-3.656210 
		-0.000001	1.197180	-3.857480 
		-0.590459	1.197180	-3.761190 
		-0.560928	1.008820	-3.292110 
		-0.560928	0.938322	-2.579750 
		-1.038470	3.511230	5.458840 
		-1.038480	3.511230	-1.097650 
		0.792914	1.619700	-1.341780 
		0.581651	1.070280	-3.790940 
		0.581009	0.866434	-3.816030 
		0.579297	0.638403	-3.786780 
		0.842913	0.523547	-3.520060 
		0.780272	1.976390	-2.287000 
		0.722780	2.275290	-2.191760 
		0.724215	2.267610	-1.400420 
		0.797136	1.972340	-1.390390 
		0.842493	1.620830	-1.391770 
		0.842914	1.605000	-2.440370 
		1.061950	1.217800	-3.217490 
		1.121850	1.112360	-2.877030 
		1.115150	1.008650	-3.291580 
		1.058720	1.163870	-3.442620 
		1.061950	1.217770	-2.847860 
		1.061950	1.085030	-2.527050 
		1.121850	0.937622	-2.579970 
		1.061950	0.719029	-2.371040 
		1.061380	0.335227	-2.360030 
		1.121850	0.665889	-2.431660 
		1.051390	1.069850	-3.585080 
		1.094110	0.793225	-3.457190 
		1.044060	0.887566	-3.667860 
		1.010680	0.571247	-3.520050 
		1.023240	0.659536	-3.658880 
		0.764712	1.491690	-3.098590 
		0.802062	1.318710	-2.820810 
		0.755056	1.310320	-3.238430 
		0.839289	1.194280	-2.500300 
		0.682727	1.366310	-3.612190 
		0.702716	1.237840	-3.500390 
		0.626305	1.177360	-3.723300 
		0.560927	1.008650	-3.291580 
		0.665179	2.317020	-1.350230 
		0.663582	2.325580	-2.221640 
		0.733642	2.000900	-2.342290 
		0.787639	1.631250	-2.498310 
		0.720025	1.540280	-3.116900 
		0.638934	1.409810	-3.655200 
		0.590457	1.197180	-3.760190 
		0.560927	0.938322	-2.580520 
		1.038480	3.511230	5.458840 
		1.038480	3.511230	-1.097650 
		0.946359	0.954999	5.333290 
		0.946359	0.795949	5.333290 
		0.517829	0.795949	5.333290 
		0.517829	0.954999	5.333290 
		0.946359	0.795949	5.436220 
		0.792642	0.795949	5.436220 
		0.517829	0.795949	5.436220 
		0.946359	0.954999	5.436220 
		0.792642	0.954999	5.436220 
		0.517829	0.954999	5.436220 
		-0.517828	0.795949	5.333280 
		-0.946358	0.795949	5.333280 
		-0.946358	0.954998	5.333280 
		-0.517828	0.954998	5.333280 
		-0.792641	0.795949	5.436220 
		-0.946358	0.795949	5.436220 
		-0.517828	0.795949	5.436220 
		-0.946358	0.954998	5.436220 
		-0.792641	0.954998	5.436220 
		-0.517828	0.954998	5.436220 
		-0.853725	0.952916	5.384750 
		-0.609300	0.952916	5.384750 
		-0.609300	1.016690	5.384749 
		-0.853725	1.016690	5.384749 
		0.854483	1.016650	5.384749 
		0.610057	0.952916	5.384750 
		0.854483	0.952916	5.384750 
		0.610057	1.016650	5.384749 
	}

	Nrm 163 { 
		0.000000	-1.000000	0.000000 
		0.031250	-0.937500	-0.328125 
		0.031250	-0.906250	-0.406250 
		0.000000	-1.000000	-0.046875 
		-0.718750	-0.687500	-0.156250 
		-0.890625	-0.453125	0.000000 
		0.890625	-0.453125	0.000000 
		0.843750	-0.531250	-0.125000 
		-1.000000	0.000000	0.000000 
		-0.906250	-0.406250	0.140625 
		-0.812500	0.406250	0.406250 
		-0.703125	0.703125	-0.015625 
		-0.578125	-0.578125	0.578125 
		-0.515625	-0.859375	0.109375 
		-0.031250	-0.953125	-0.296875 
		0.031250	-0.953125	-0.296875 
		0.515625	-0.859375	0.109375 
		0.906250	0.296875	0.296875 
		0.578125	-0.578125	0.578125 
		0.703125	0.703125	-0.015625 
		0.906250	-0.406250	0.140625 
		1.000000	0.000000	0.000000 
		0.000000	0.031250	1.000000 
		0.015625	0.046875	1.000000 
		-0.015625	0.078125	1.000000 
		-0.031250	0.093750	1.000000 
		0.093750	0.046875	1.000000 
		-0.500000	0.234375	-0.828125 
		0.000000	0.062500	-1.000000 
		-0.250000	0.031250	-0.968750 
		0.000000	-0.687500	-0.718750 
		-0.218750	-0.546875	-0.812500 
		-0.140625	-0.859375	-0.484375 
		-0.859375	0.437500	0.234375 
		-0.843750	0.500000	-0.187500 
		-0.906250	0.296875	-0.281250 
		-0.906250	0.187500	0.390625 
		-0.937500	0.046875	0.328125 
		-0.953125	0.265625	-0.187500 
		-0.968750	0.187500	-0.171875 
		-0.906250	0.421875	0.031250 
		-0.656250	0.750000	-0.109375 
		-0.703125	0.640625	-0.312500 
		-0.875000	0.328125	0.359375 
		-0.687500	0.515625	0.515625 
		-0.671875	0.734375	0.125000 
		-0.671875	0.046875	0.734375 
		-0.453125	0.031250	0.890625 
		-0.546875	0.187500	0.812500 
		-0.765625	0.140625	0.640625 
		-0.750000	0.390625	-0.546875 
		-0.750000	0.000000	-0.671875 
		-0.968750	-0.062500	-0.234375 
		-0.578125	-0.437500	-0.687500 
		-0.671875	-0.593750	-0.453125 
		-1.000000	0.015625	-0.078125 
		-0.906250	0.359375	-0.203125 
		-0.984375	0.031250	-0.156250 
		-1.000000	0.000000	-0.015625 
		-0.921875	0.171875	-0.359375 
		-0.968750	-0.093750	-0.250000 
		-0.875000	-0.015625	-0.484375 
		-0.921875	0.000000	0.375000 
		-0.078125	0.062500	1.000000 
		-0.187500	0.156250	0.968750 
		-0.062500	-0.437500	0.906250 
		-0.093750	-0.296875	0.953125 
		-0.093750	-0.343750	0.937500 
		-0.406250	0.671875	0.625000 
		-0.375000	0.906250	0.140625 
		-0.296875	0.937500	-0.140625 
		-0.265625	0.875000	-0.421875 
		0.000000	0.546875	0.828125 
		-0.531250	0.546875	0.656250 
		-0.343750	0.015625	0.937500 
		0.000000	0.000000	1.000000 
		-0.390625	-0.015625	0.921875 
		0.000000	-0.015625	1.000000 
		-0.015625	0.843750	-0.531250 
		-0.453125	0.796875	-0.406250 
		-0.015625	0.437500	-0.906250 
		-0.453125	0.453125	-0.765625 
		0.000000	0.437500	-0.890625 
		-0.468750	0.718750	-0.515625 
		0.000000	0.984375	-0.156250 
		0.000000	0.984375	-0.203125 
		-0.453125	0.859375	-0.234375 
		0.000000	0.750000	-0.656250 
		-0.531250	0.593750	-0.609375 
		0.000000	0.281250	-0.953125 
		-0.484375	0.218750	-0.843750 
		-0.093750	-0.750000	0.656250 
		-0.093750	-0.890625	0.453125 
		-0.062500	-0.734375	-0.671875 
		-0.078125	-0.968750	-0.250000 
		-0.031250	-0.343750	-0.937500 
		-0.078125	-0.203125	-0.968750 
		-0.093750	-0.375000	0.921875 
		0.343750	0.031250	0.937500 
		0.500000	0.234375	-0.828125 
		0.250000	0.031250	-0.968750 
		0.218750	-0.546875	-0.812500 
		0.140625	-0.859375	-0.484375 
		0.937500	0.265625	-0.250000 
		0.812500	0.562500	-0.156250 
		0.906250	0.375000	0.171875 
		0.859375	0.171875	0.468750 
		0.953125	0.046875	0.296875 
		0.953125	0.265625	-0.187500 
		0.671875	0.734375	-0.109375 
		0.921875	0.390625	0.031250 
		0.968750	0.171875	-0.156250 
		0.703125	0.625000	-0.312500 
		0.687500	0.718750	0.125000 
		0.687500	0.515625	0.515625 
		0.890625	0.312500	0.343750 
		0.531250	0.187500	0.828125 
		0.453125	0.046875	0.890625 
		0.671875	0.031250	0.734375 
		0.765625	0.140625	0.625000 
		0.750000	0.375000	-0.546875 
		0.968750	-0.078125	-0.203125 
		0.750000	0.000000	-0.656250 
		0.671875	-0.593750	-0.437500 
		0.578125	-0.437500	-0.671875 
		0.906250	0.359375	-0.203125 
		1.000000	0.015625	-0.078125 
		0.984375	0.031250	-0.156250 
		1.000000	0.000000	-0.015625 
		0.921875	0.171875	-0.359375 
		0.968750	-0.093750	-0.250000 
		0.875000	-0.015625	-0.484375 
		0.921875	0.000000	0.375000 
		0.187500	0.171875	0.968750 
		0.078125	-0.375000	0.921875 
		0.140625	-0.343750	0.921875 
		0.062500	-0.484375	0.875000 
		0.093750	-0.656250	0.750000 
		0.375000	0.921875	0.140625 
		0.390625	0.671875	0.640625 
		0.265625	0.875000	-0.421875 
		0.296875	0.937500	-0.156250 
		0.046875	0.078125	1.000000 
		0.562500	0.625000	0.546875 
		0.390625	-0.015625	0.921875 
		0.453125	0.765625	-0.453125 
		0.437500	0.406250	-0.796875 
		0.468750	0.718750	-0.515625 
		0.453125	0.859375	-0.234375 
		0.531250	0.593750	-0.593750 
		0.484375	0.218750	-0.843750 
		0.093750	-0.890625	0.453125 
		0.078125	-0.968750	-0.250000 
		0.078125	-0.734375	-0.671875 
		0.000000	-0.703125	-0.718750 
		0.046875	-0.343750	-0.937500 
		0.031250	-0.406250	0.906250 
		0.000000	1.000000	0.000000 
		0.000000	0.000000	-1.000000 
		-0.703125	-0.703125	0.000000 
		-0.703125	0.703125	0.000000 
		0.703125	-0.703125	0.000000 
		0.703125	0.703125	0.000000 
	}

	Cpv 351 { 
		0.500000	0.500000	0.500000	0.000000 
		0.500000	0.500000	0.500000	0.000000 
		0.500000	0.500000	0.500000	0.000000 
		0.500000	0.500000	0.500000	0.000000 
		0.500000	0.500000	0.500000	0.000000 
		0.608795	0.500000	0.500000	0.000000 
		0.500000	0.500000	0.500000	0.000000 
		0.500000	0.500000	0.500000	0.000000 
		0.500000	0.500000	0.500000	0.000000 
		0.500000	0.500000	0.500000	0.000000 
		0.500000	0.500000	0.500000	0.000000 
		0.500000	0.500000	0.500000	0.000000 
		0.500000	0.500000	0.500000	0.000000 
		0.500000	0.500000	0.500000	0.000000 
		0.500000	0.500000	0.500000	0.000000 
		0.500000	0.500000	0.500000	0.000000 
		0.500000	0.500000	0.500000	0.000000 
		0.500000	0.500000	0.500000	0.000000 
		0.500000	0.500000	0.500000	0.000000 
		0.500000	0.500000	0.500000	0.000000 
		0.500000	0.500000	0.500000	0.000000 
		0.500000	0.500000	0.500000	0.000000 
		0.500000	0.500000	0.500000	0.000000 
		0.500000	0.500000	0.500000	0.000000 
		0.500000	0.500000	0.500000	0.000000 
		0.500000	0.500000	0.500000	0.000000 
		0.500000	0.500000	0.500000	0.000000 
		0.500000	0.500000	0.500000	0.000000 
		0.500000	0.543221	0.500000	0.000000 
		0.500000	0.500000	0.500000	0.000000 
		0.500000	0.500000	0.500000	0.000000 
		0.500000	0.500000	0.500000	0.000000 
		0.500000	0.500000	0.500000	0.000000 
		0.500000	0.500000	0.500000	0.000000 
		0.500000	0.500000	0.500000	0.000000 
		0.500000	0.500000	0.500000	0.000000 
		0.500000	0.500000	0.500000	0.000000 
		0.500000	0.500000	0.500000	0.000000 
		0.500000	0.500000	0.500000	0.000000 
		0.500000	0.500000	0.500000	0.000000 
		0.500000	0.500000	0.500000	0.000000 
		0.500000	0.500000	0.500000	0.000000 
		0.500000	0.500000	0.500000	0.000000 
		0.500000	0.500000	0.500000	0.000000 
		0.500000	0.500000	0.500000	0.000000 
		0.500000	0.500000	0.500000	0.000000 
		0.500000	0.500000	0.500000	0.000000 
		0.500000	0.500000	0.500000	0.000000 
		0.500000	0.500000	0.500000	0.000000 
		0.500000	0.500000	0.500000	0.000000 
		0.500000	0.500000	0.500000	0.000000 
		0.500000	0.500000	0.500000	0.000000 
		0.500000	0.500000	0.500000	0.000000 
		0.500000	0.500000	0.500000	0.000000 
		0.500000	0.500000	0.500000	0.000000 
		0.500000	0.500000	0.500000	0.000000 
		0.500000	0.575517	0.500000	0.000000 
		0.500000	0.500000	0.500000	0.000000 
		0.500000	0.500000	0.500000	0.000000 
		0.500000	0.500000	0.500000	0.000000 
		0.500000	0.500000	0.500000	0.000000 
		0.500000	0.500000	0.500000	0.000000 
		0.500000	0.500000	0.500000	0.000000 
		0.500000	0.500000	0.500000	0.000000 
		0.500000	0.500000	0.500000	0.000000 
		0.500000	0.500000	0.500000	0.000000 
		0.500000	0.500000	0.500000	0.000000 
		0.500000	0.500000	0.500000	0.000000 
		0.500000	0.500000	0.500000	0.000000 
		0.500000	0.500000	0.500000	0.000000 
		0.500000	0.500000	0.500000	0.000000 
		0.500000	0.500000	0.500000	0.000000 
		0.500000	0.562326	0.682553	0.000000 
		0.500000	0.500000	0.500000	0.000000 
		0.500000	0.562326	0.682553	0.000000 
		0.500000	0.559315	0.500000	0.000000 
		0.500000	0.562326	0.682553	0.000000 
		0.500000	0.500000	0.500000	0.000000 
		0.500000	0.543221	0.500000	0.000000 
		0.500000	0.559315	0.500000	0.000000 
		0.500000	0.559315	0.500000	0.000000 
		0.500000	0.370128	0.500000	0.003922 
		0.500000	0.370128	0.500000	0.003922 
		0.500000	0.500000	0.500000	0.003922 
		0.500000	0.500000	0.500000	0.003922 
		0.500000	0.500000	0.500000	0.003922 
		0.500000	0.500000	0.500000	0.003922 
		0.589228	0.500000	0.500000	0.000000 
		0.609974	0.500000	0.500000	0.000000 
		0.609974	0.500000	0.500000	0.000000 
		0.589228	0.500000	0.500000	0.000000 
		0.608795	0.500000	0.500000	0.000000 
		0.608795	0.500000	0.500000	0.000000 
		0.609974	0.500000	0.500000	0.000000 
		0.608795	0.500000	0.500000	0.000000 
		0.608795	0.500000	0.500000	0.000000 
		0.667740	0.500000	0.500000	0.000000 
		0.667740	0.500000	0.500000	0.000000 
		0.500000	0.500000	0.500000	0.000000 
		0.500000	0.500000	0.500000	0.000000 
		0.550619	0.500000	0.500000	0.000000 
		0.500000	0.559315	0.500000	0.000000 
		0.500000	0.559315	0.500000	0.000000 
		0.550619	0.500000	0.500000	0.000000 
		0.609974	0.500000	0.500000	0.000000 
		0.609974	0.500000	0.500000	0.000000 
		0.500000	0.500000	0.500000	0.000000 
		0.500000	0.500000	0.500000	0.000000 
		0.500000	0.500000	0.500000	0.000000 
		0.500000	0.500000	0.500000	0.000000 
		0.500000	0.500000	0.500000	0.000000 
		0.500000	0.500000	0.500000	0.000000 
		0.500000	0.500000	0.500000	0.000000 
		0.608795	0.500000	0.500000	0.000000 
		0.500000	0.500000	0.500000	0.000000 
		0.608795	0.500000	0.500000	0.000000 
		0.500000	0.500000	0.500000	0.000000 
		0.500000	0.500000	0.500000	0.000000 
		0.500000	0.500000	0.500000	0.000000 
		0.500000	0.500000	0.500000	0.000000 
		0.500000	0.559315	0.500000	0.000000 
		0.500000	0.559315	0.500000	0.000000 
		0.500000	0.559315	0.500000	0.000000 
		0.550619	0.500000	0.500000	0.000000 
		0.500000	0.559315	0.500000	0.000000 
		0.500000	0.559315	0.500000	0.000000 
		0.500000	0.500000	0.500000	0.000000 
		0.550619	0.500000	0.500000	0.000000 
		0.609974	0.500000	0.500000	0.000000 
		0.500000	0.500000	0.500000	0.000000 
		0.500000	0.500000	0.500000	0.000000 
		0.500000	0.500000	0.500000	0.000000 
		0.500000	0.500000	0.500000	0.000000 
		0.500000	0.375530	0.500000	0.003922 
		0.500000	0.370128	0.500000	0.003922 
		0.500000	0.500000	0.500000	0.003922 
		0.500000	0.500000	0.500000	0.000000 
		0.500000	0.500000	0.500000	0.000000 
		0.500000	0.500000	0.500000	0.000000 
		0.500000	0.375530	0.500000	0.003922 
		0.500000	0.375530	0.500000	0.003922 
		0.500000	0.370128	0.500000	0.003922 
		0.500000	0.370128	0.500000	0.003922 
		0.500000	0.375530	0.500000	0.003922 
		0.500000	0.500000	0.500000	0.003922 
		0.500000	0.500000	0.500000	0.003922 
		0.500000	0.370128	0.500000	0.003922 
		0.500000	0.500000	0.500000	0.003922 
		0.500000	0.500000	0.500000	0.003922 
		0.500000	0.500000	0.500000	0.003922 
		0.500000	0.500000	0.500000	0.000000 
		0.609974	0.500000	0.500000	0.000000 
		0.500000	0.500000	0.500000	0.003922 
		0.500000	0.500000	0.571761	0.000000 
		0.500000	0.500000	0.500000	0.000000 
		0.500000	0.500000	0.571761	0.000000 
		0.500000	0.500000	0.571761	0.000000 
		0.500000	0.500000	0.500000	0.000000 
		0.500000	0.500000	0.500000	0.000000 
		0.500000	0.370128	0.500000	0.003922 
		0.500000	0.370128	0.500000	0.003922 
		0.500000	0.500000	0.500000	0.003922 
		0.500000	0.500000	0.500000	0.003922 
		0.500000	0.500000	0.500000	0.003922 
		0.609974	0.500000	0.500000	0.000000 
		0.500000	0.500000	0.500000	0.000000 
		0.500000	0.500000	0.500000	0.000000 
		0.500000	0.500000	0.500000	0.000000 
		0.500000	0.500000	0.500000	0.000000 
		0.589228	0.500000	0.500000	0.000000 
		0.500000	0.500000	0.500000	0.000000 
		0.609974	0.500000	0.500000	0.000000 
		0.608795	0.500000	0.500000	0.000000 
		0.667740	0.500000	0.500000	0.000000 
		0.500000	0.500000	0.500000	0.000000 
		0.608795	0.500000	0.500000	0.000000 
		0.500000	0.543221	0.500000	0.000000 
		0.500000	0.500000	0.500000	0.000000 
		0.500000	0.500000	0.500000	0.000000 
		0.500000	0.500000	0.500000	0.000000 
		0.500000	0.543221	0.500000	0.000000 
		0.500000	0.500000	0.500000	0.000000 
		0.500000	0.575517	0.500000	0.000000 
		0.495350	0.039694	0.500000	0.003922 
		0.495350	0.039694	0.500000	0.003922 
		0.500000	0.500000	0.500000	0.000000 
		0.500000	0.500000	0.500000	0.003922 
		0.500000	0.500000	0.500000	0.000000 
		0.500000	0.500000	0.500000	0.000000 
		0.500000	0.500000	0.500000	0.000000 
		0.500000	0.500000	0.500000	0.000000 
		0.500000	0.500000	0.500000	0.000000 
		0.500000	0.500000	0.500000	0.003922 
		0.500000	0.500000	0.500000	0.003922 
		0.500000	0.500000	0.500000	0.003922 
		0.500000	0.500000	0.500000	0.003922 
		0.500000	0.500000	0.500000	0.003922 
		0.500000	0.500000	0.500000	0.003922 
		0.500000	0.500000	0.500000	0.000000 
		0.500000	0.500000	0.500000	0.000000 
		0.500000	0.500000	0.500000	0.000000 
		0.500000	0.500000	0.500000	0.000000 
		0.500000	0.500000	0.500000	0.000000 
		0.500000	0.500000	0.500000	0.000000 
		0.500000	0.500000	0.500000	0.000000 
		0.500000	0.500000	0.500000	0.000000 
		0.500000	0.500000	0.500000	0.000000 
		0.500000	0.500000	0.500000	0.000000 
		0.500000	0.500000	0.500000	0.000000 
		0.500000	0.500000	0.500000	0.000000 
		0.500000	0.500000	0.500000	0.000000 
		0.500000	0.500000	0.500000	0.000000 
		0.500000	0.500000	0.500000	0.000000 
		0.500000	0.500000	0.500000	0.000000 
		0.500000	0.500000	0.500000	0.000000 
		0.500000	0.500000	0.500000	0.000000 
		0.500000	0.500000	0.500000	0.000000 
		0.500000	0.500000	0.500000	0.000000 
		0.500000	0.500000	0.500000	0.000000 
		0.500000	0.500000	0.500000	0.000000 
		0.500000	0.500000	0.500000	0.000000 
		0.500000	0.500000	0.500000	0.000000 
		0.500000	0.500000	0.500000	0.000000 
		0.500000	0.500000	0.500000	0.000000 
		0.500000	0.500000	0.500000	0.000000 
		0.500000	0.500000	0.500000	0.000000 
		0.500000	0.500000	0.500000	0.000000 
		0.500000	0.500000	0.500000	0.000000 
		0.500000	0.500000	0.500000	0.000000 
		0.500000	0.500000	0.500000	0.000000 
		0.500000	0.500000	0.500000	0.000000 
		0.500000	0.500000	0.500000	0.000000 
		0.500000	0.500000	0.500000	0.000000 
		0.500000	0.500000	0.500000	0.000000 
		0.500000	0.500000	0.500000	0.000000 
		0.500000	0.500000	0.500000	0.000000 
		0.500000	0.500000	0.500000	0.000000 
		0.500000	0.500000	0.500000	0.000000 
		0.500000	0.500000	0.500000	0.000000 
		0.500000	0.500000	0.500000	0.000000 
		0.500000	0.500000	0.500000	0.000000 
		0.500000	0.500000	0.500000	0.000000 
		0.500000	0.500000	0.500000	0.000000 
		0.500000	0.500000	0.500000	0.003922 
		0.500000	0.500000	0.500000	0.000000 
		0.500000	0.500000	0.500000	0.000000 
		0.500000	0.500000	0.500000	0.003922 
		0.500000	0.500000	0.500000	0.003922 
		0.500000	0.500000	0.500000	0.003922 
		0.500000	0.500000	0.500000	0.003922 
		0.500000	0.500000	0.500000	0.003922 
		0.500000	0.500000	0.500000	0.000000 
		0.500000	0.500000	0.500000	0.003922 
		0.500000	0.500000	0.500000	0.000000 
		0.500000	0.500000	0.500000	0.000000 
		0.500000	0.500000	0.500000	0.000000 
		0.500000	0.500000	0.500000	0.003922 
		0.500000	0.500000	0.500000	0.003922 
		0.500000	0.500000	0.500000	0.003922 
		0.500000	0.500000	0.500000	0.003922 
		0.500000	0.500000	0.500000	0.003922 
		0.500000	0.500000	0.500000	0.000000 
		0.500000	0.500000	0.500000	0.000000 
		0.500000	0.500000	0.500000	0.000000 
		0.500000	0.500000	0.500000	0.000000 
		0.500000	0.500000	0.500000	0.000000 
		0.500000	0.500000	0.500000	0.000000 
		0.500000	0.500000	0.500000	0.000000 
		0.500000	0.500000	0.500000	0.000000 
		0.500000	0.500000	0.500000	0.000000 
		0.500000	0.500000	0.500000	0.000000 
		0.500000	0.500000	0.500000	0.000000 
		0.500000	0.500000	0.500000	0.000000 
		0.500000	0.500000	0.500000	0.000000 
		0.500000	0.500000	0.500000	0.000000 
		0.500000	0.500000	0.500000	0.000000 
		0.500000	0.500000	0.500000	0.000000 
		0.500000	0.186191	0.500000	0.003922 
		0.500000	0.500000	0.500000	0.000000 
		0.500000	0.500000	0.500000	0.000000 
		0.500000	0.186191	0.500000	0.003922 
		0.500000	0.186191	0.500000	0.003922 
		0.495350	0.039694	0.500000	0.003922 
		0.500000	0.575517	0.500000	0.000000 
		0.500000	0.500000	0.500000	0.000000 
		0.500000	0.186191	0.500000	0.003922 
		0.495350	0.039694	0.500000	0.003922 
		0.495350	0.039694	0.500000	0.003922 
		0.500000	0.186191	0.500000	0.003922 
		0.500000	0.500000	0.500000	0.000000 
		0.500000	0.500000	0.500000	0.000000 
		0.495350	0.039694	0.500000	0.003922 
		0.500000	0.186191	0.500000	0.003922 
		0.500000	0.500000	0.500000	0.000000 
		0.500000	0.500000	0.500000	0.000000 
		0.500000	0.500000	0.500000	0.000000 
		0.500000	0.500000	0.500000	0.000000 
		0.500000	0.500000	0.500000	0.000000 
		0.500000	0.500000	0.500000	0.000000 
		0.500000	0.500000	0.500000	0.000000 
		0.500000	0.500000	0.500000	0.000000 
		0.500000	0.500000	0.500000	0.000000 
		0.500000	0.500000	0.500000	0.000000 
		0.500000	0.500000	0.500000	0.000000 
		0.500000	0.500000	0.500000	0.000000 
		0.500000	0.500000	0.500000	0.000000 
		0.500000	0.500000	0.500000	0.000000 
		0.500000	0.500000	0.500000	0.000000 
		0.500000	0.500000	0.500000	0.000000 
		0.500000	0.500000	0.500000	0.000000 
		0.500000	0.500000	0.500000	0.000000 
		0.500000	0.500000	0.500000	0.000000 
		0.500000	0.500000	0.500000	0.000000 
		0.500000	0.500000	0.500000	0.000000 
		0.500000	0.500000	0.500000	0.000000 
		0.500000	0.500000	0.500000	0.000000 
		0.500000	0.500000	0.500000	0.000000 
		0.508095	0.526706	0.500000	0.000000 
		0.511289	0.474480	0.500000	0.000000 
		0.491905	0.473294	0.500000	0.000000 
		0.488711	0.525520	0.500000	0.000000 
		0.510143	0.493214	0.500000	0.000000 
		0.511289	0.474480	0.500000	0.000000 
		0.511289	0.474480	0.500000	0.000000 
		0.508095	0.526706	0.500000	0.000000 
		0.508095	0.526706	0.500000	0.000000 
		0.511289	0.474480	0.500000	0.000000 
		0.511289	0.474480	0.500000	0.000000 
		0.491905	0.473294	0.500000	0.000000 
		0.491905	0.473294	0.500000	0.000000 
		0.490760	0.492028	0.500000	0.000000 
		0.488711	0.525520	0.500000	0.000000 
		0.488711	0.525520	0.500000	0.000000 
		0.491905	0.473294	0.500000	0.000000 
		0.491905	0.473294	0.500000	0.000000 
		0.490760	0.492028	0.500000	0.000000 
		0.491905	0.473294	0.500000	0.000000 
		0.511289	0.474480	0.500000	0.000000 
		0.510143	0.493214	0.500000	0.000000 
		0.500000	0.500000	0.500000	0.000000 
		0.500000	0.500000	0.500000	0.000000 
		0.500000	0.500000	0.500000	0.000000 
		0.500000	0.500000	0.500000	0.000000 
		0.500000	0.500000	0.500000	0.000000 
		0.500000	0.500000	0.500000	0.000000 
		0.500000	0.500000	0.500000	0.000000 
		0.500000	0.500000	0.500000	0.000000 
		0.500000	0.500000	0.500000	0.000000 
		0.500000	0.500000	0.500000	0.000000 
		0.488711	0.525520	0.500000	0.000000 
		0.508095	0.526706	0.500000	0.000000 
	}

	Tex0 152 { 
		0.134766	0.875977 
		0.136719	0.694336 
		0.124023	0.750000 
		0.124023	1.000000 
		0.133789	0.124023 
		0.124023	0.000000 
		0.124023	0.250000 
		0.135742	0.305664 
		0.680664	0.306641 
		0.133789	0.306641 
		0.680664	0.693359 
		0.739258	0.908203 
		0.338867	0.916992 
		0.179688	0.886719 
		0.739258	0.894531 
		0.819336	0.940430 
		0.415039	0.940430 
		0.179688	0.916992 
		0.381836	0.958984 
		0.820313	0.908203 
		0.235352	0.124023 
		0.241211	0.306641 
		0.125000	0.043945 
		0.134766	0.082031 
		0.134766	0.048828 
		0.000000	0.250000 
		0.000000	0.750000 
		0.724609	0.693359 
		0.724609	0.306641 
		0.708984	0.387695 
		0.603516	0.387695 
		0.603516	0.349609 
		0.708984	0.349609 
		0.775391	0.106445 
		0.775391	0.000977 
		0.291992	0.000977 
		0.291992	0.106445 
		0.817383	0.940430 
		0.132813	0.693359 
		0.130859	0.875977 
		0.235352	0.875977 
		0.241211	0.693359 
		1.000000	0.037109 
		0.269531	0.037109 
		0.269531	0.962891 
		1.000000	0.962891 
		0.783203	0.693359 
		0.783203	0.306641 
		0.998047	0.693359 
		0.998047	0.306641 
		0.435547	0.518555 
		0.296875	0.506836 
		0.298828	0.546875 
		0.298828	0.506836 
		0.715820	0.653320 
		0.984375	0.579102 
		0.715820	0.578125 
		0.984375	0.506836 
		0.716797	0.510742 
		0.166992	0.672852 
		0.478516	0.975586 
		0.336914	0.977539 
		0.308594	0.900391 
		0.480469	0.901367 
		0.480469	0.814453 
		0.275391	0.809570 
		0.116211	0.667969 
		0.187500	0.687500 
		0.127930	0.714844 
		0.095703	0.697266 
		0.245117	0.647461 
		0.254883	0.681641 
		0.192383	0.711914 
		0.284180	0.506836 
		0.292969	0.506836 
		0.285156	0.596680 
		0.272461	0.583984 
		0.072266	0.676758 
		0.040039	0.644531 
		0.079102	0.622070 
		0.038086	0.582031 
		0.056641	0.561523 
		0.200195	0.738281 
		0.146484	0.782227 
		0.119141	0.736328 
		0.263672	0.707031 
		0.045898	0.750000 
		0.068359	0.718750 
		0.024414	0.703125 
		0.010742	0.676758 
		0.477539	0.619141 
		0.296875	0.619141 
		0.365234	0.561523 
		0.294922	0.506836 
		0.289063	0.625000 
		0.505859	0.585938 
		0.501953	0.653320 
		0.514648	0.518555 
		0.111328	0.639648 
		0.264648	0.682617 
		0.198242	0.735352 
		0.117188	0.734375 
		0.066406	0.716797 
		0.292969	0.625000 
		0.293945	0.546875 
		0.601563	0.758789 
		0.577148	0.764648 
		1.000000	0.993164 
		1.000000	0.914063 
		0.633789	0.906250 
		0.662109	0.984375 
		1.000000	0.833984 
		0.609375	0.818359 
		0.821289	0.804688 
		0.984375	0.797852 
		0.984375	0.708984 
		0.711914	0.700195 
		0.689453	0.779297 
		0.488281	0.988281 
		0.331055	0.990234 
		0.297852	0.907227 
		0.490234	0.813477 
		0.263672	0.816406 
		0.142578	0.794922 
		0.037109	0.761719 
		0.016602	0.708008 
		0.487305	0.619141 
		0.000977	-0.001953 
		0.999023	-0.001953 
		0.999023	0.488281 
		0.000977	0.488281 
		0.332031	0.970703 
		0.121094	0.712891 
		0.078125	0.700195 
		0.293945	0.619141 
		0.286133	0.625000 
		0.259766	0.696289 
		0.326172	0.983398 
		0.030273	0.494141 
		0.028320	0.996094 
		0.028320	0.915039 
		0.001953	0.915039 
		0.001953	0.996094 
		0.607422	0.756836 
		0.007813	0.996094 
		0.007813	0.915039 
		0.022461	0.915039 
		0.022461	0.996094 
		0.079102	0.997070 
		0.080078	0.916016 
		0.217773	0.999023 
		0.218750	0.917969 
	}

	Tex1 0 
	Adj 351 { 
		P 0 
		N 0 
		C0 0 
		T0 0 
		P 1 
		N 0 
		C0 1 
		T0 1 
		P 2 
		N 1 
		C0 2 
		T0 2 
		P 3 
		N 2 
		C0 3 
		T0 3 
		P 4 
		N 0 
		C0 4 
		T0 4 
		P 5 
		N 0 
		C0 5 
		T0 5 
		P 6 
		N 3 
		C0 6 
		T0 6 
		P 7 
		N 0 
		C0 7 
		T0 7 
		P 8 
		N 4 
		C0 8 
		T0 8 
		P 9 
		N 5 
		C0 9 
		T0 9 
		P 10 
		N 6 
		C0 10 
		T0 1 
		P 11 
		N 7 
		C0 11 
		T0 10 
		P 12 
		N 8 
		C0 12 
		T0 11 
		P 13 
		N 9 
		C0 13 
		T0 12 
		P 14 
		N 10 
		C0 14 
		T0 13 
		P 15 
		N 11 
		C0 15 
		T0 14 
		P 9 
		N 5 
		C0 16 
		T0 15 
		P 8 
		N 4 
		C0 17 
		T0 16 
		P 16 
		N 12 
		C0 18 
		T0 17 
		P 17 
		N 13 
		C0 19 
		T0 18 
		P 18 
		N 8 
		C0 20 
		T0 19 
		P 19 
		N 0 
		C0 21 
		T0 20 
		P 20 
		N 0 
		C0 22 
		T0 4 
		P 18 
		N 0 
		C0 23 
		T0 9 
		P 12 
		N 0 
		C0 24 
		T0 21 
		P 19 
		N 0 
		C0 25 
		T0 22 
		P 12 
		N 0 
		C0 26 
		T0 23 
		P 21 
		N 0 
		C0 27 
		T0 24 
		P 22 
		N 14 
		C0 28 
		T0 25 
		P 23 
		N 15 
		C0 29 
		T0 26 
		P 24 
		N 16 
		C0 30 
		T0 27 
		P 17 
		N 13 
		C0 31 
		T0 28 
		P 25 
		N 17 
		C0 32 
		T0 29 
		P 14 
		N 10 
		C0 33 
		T0 30 
		P 16 
		N 12 
		C0 34 
		T0 31 
		P 26 
		N 18 
		C0 35 
		T0 32 
		P 27 
		N 19 
		C0 36 
		T0 33 
		P 15 
		N 11 
		C0 37 
		T0 34 
		P 14 
		N 10 
		C0 38 
		T0 35 
		P 25 
		N 17 
		C0 39 
		T0 36 
		P 26 
		N 18 
		C0 40 
		T0 17 
		P 28 
		N 20 
		C0 41 
		T0 12 
		P 25 
		N 17 
		C0 42 
		T0 13 
		P 29 
		N 21 
		C0 43 
		T0 11 
		P 27 
		N 19 
		C0 44 
		T0 14 
		P 11 
		N 7 
		C0 45 
		T0 16 
		P 24 
		N 16 
		C0 46 
		T0 18 
		P 10 
		N 6 
		C0 47 
		T0 37 
		P 30 
		N 21 
		C0 48 
		T0 19 
		P 30 
		N 0 
		C0 49 
		T0 38 
		P 31 
		N 0 
		C0 50 
		T0 39 
		P 32 
		N 0 
		C0 51 
		T0 40 
		P 29 
		N 0 
		C0 52 
		T0 41 
		P 32 
		N 0 
		C0 53 
		T0 22 
		P 33 
		N 0 
		C0 54 
		T0 24 
		P 29 
		N 0 
		C0 55 
		T0 23 
		P 34 
		N 0 
		C0 56 
		T0 42 
		P 35 
		N 0 
		C0 57 
		T0 43 
		P 36 
		N 0 
		C0 58 
		T0 44 
		P 37 
		N 0 
		C0 59 
		T0 45 
		P 28 
		N 20 
		C0 60 
		T0 46 
		P 13 
		N 9 
		C0 61 
		T0 47 
		P 26 
		N 18 
		C0 62 
		T0 48 
		P 16 
		N 12 
		C0 63 
		T0 49 
		P 1 
		N 22 
		C0 64 
		T0 50 
		P 10 
		N 23 
		C0 65 
		T0 50 
		P 9 
		N 24 
		C0 66 
		T0 50 
		P 7 
		N 25 
		C0 67 
		T0 50 
		P 0 
		N 26 
		C0 68 
		T0 51 
		P 10 
		N 23 
		C0 69 
		T0 52 
		P 1 
		N 22 
		C0 70 
		T0 53 
		P 38 
		N 27 
		C0 71 
		T0 54 
		P 39 
		N 28 
		C0 72 
		T0 55 
		P 40 
		N 29 
		C0 73 
		T0 56 
		P 41 
		N 30 
		C0 74 
		T0 57 
		P 42 
		N 31 
		C0 75 
		T0 58 
		P 41 
		N 30 
		C0 76 
		T0 59 
		P 23 
		N 15 
		C0 77 
		T0 59 
		P 22 
		N 14 
		C0 78 
		T0 59 
		P 43 
		N 32 
		C0 79 
		T0 59 
		P 42 
		N 31 
		C0 80 
		T0 59 
		P 44 
		N 33 
		C0 81 
		T0 60 
		P 45 
		N 34 
		C0 82 
		T0 61 
		P 46 
		N 35 
		C0 83 
		T0 62 
		P 47 
		N 36 
		C0 84 
		T0 63 
		P 48 
		N 37 
		C0 85 
		T0 64 
		P 49 
		N 38 
		C0 86 
		T0 65 
		P 50 
		N 39 
		C0 87 
		T0 66 
		P 51 
		N 40 
		C0 88 
		T0 67 
		P 52 
		N 41 
		C0 89 
		T0 68 
		P 53 
		N 42 
		C0 90 
		T0 69 
		P 54 
		N 43 
		C0 91 
		T0 70 
		P 55 
		N 44 
		C0 92 
		T0 71 
		P 56 
		N 45 
		C0 93 
		T0 72 
		P 5 
		N 46 
		C0 94 
		T0 73 
		P 57 
		N 47 
		C0 95 
		T0 74 
		P 58 
		N 48 
		C0 96 
		T0 75 
		P 59 
		N 49 
		C0 97 
		T0 76 
		P 60 
		N 50 
		C0 98 
		T0 77 
		P 61 
		N 51 
		C0 99 
		T0 78 
		P 62 
		N 52 
		C0 100 
		T0 79 
		P 63 
		N 53 
		C0 101 
		T0 80 
		P 64 
		N 54 
		C0 102 
		T0 81 
		P 65 
		N 55 
		C0 103 
		T0 82 
		P 66 
		N 56 
		C0 104 
		T0 83 
		P 67 
		N 57 
		C0 105 
		T0 84 
		P 68 
		N 58 
		C0 106 
		T0 85 
		P 69 
		N 59 
		C0 107 
		T0 86 
		P 70 
		N 60 
		C0 108 
		T0 87 
		P 71 
		N 61 
		C0 109 
		T0 88 
		P 38 
		N 27 
		C0 110 
		T0 89 
		P 19 
		N 62 
		C0 111 
		T0 90 
		P 20 
		N 8 
		C0 112 
		T0 91 
		P 5 
		N 0 
		C0 113 
		T0 92 
		P 4 
		N 0 
		C0 114 
		T0 92 
		P 57 
		N 0 
		C0 115 
		T0 92 
		P 4 
		N 63 
		C0 116 
		T0 93 
		P 20 
		N 64 
		C0 117 
		T0 94 
		P 61 
		N 51 
		C0 118 
		T0 95 
		P 60 
		N 50 
		C0 119 
		T0 96 
		P 63 
		N 53 
		C0 120 
		T0 97 
		P 64 
		N 54 
		C0 121 
		T0 59 
		P 63 
		N 53 
		C0 122 
		T0 59 
		P 62 
		N 65 
		C0 123 
		T0 98 
		P 64 
		N 66 
		C0 124 
		T0 98 
		P 43 
		N 67 
		C0 125 
		T0 98 
		P 68 
		N 68 
		C0 126 
		T0 99 
		P 65 
		N 69 
		C0 127 
		T0 100 
		P 67 
		N 70 
		C0 128 
		T0 101 
		P 70 
		N 71 
		C0 129 
		T0 102 
		P 20 
		N 64 
		C0 130 
		T0 103 
		P 9 
		N 24 
		C0 131 
		T0 104 
		P 18 
		N 22 
		C0 132 
		T0 94 
		P 72 
		N 72 
		C0 133 
		T0 105 
		P 73 
		N 73 
		C0 134 
		T0 105 
		P 74 
		N 74 
		C0 135 
		T0 105 
		P 15 
		N 75 
		C0 136 
		T0 105 
		P 21 
		N 76 
		C0 137 
		T0 105 
		P 12 
		N 77 
		C0 138 
		T0 105 
		P 72 
		N 72 
		C0 139 
		T0 106 
		P 75 
		N 78 
		C0 140 
		T0 106 
		P 76 
		N 79 
		C0 141 
		T0 106 
		P 73 
		N 73 
		C0 142 
		T0 106 
		P 75 
		N 78 
		C0 143 
		T0 107 
		P 77 
		N 80 
		C0 144 
		T0 108 
		P 78 
		N 81 
		C0 145 
		T0 109 
		P 76 
		N 79 
		C0 146 
		T0 110 
		P 79 
		N 82 
		C0 147 
		T0 111 
		P 80 
		N 83 
		C0 148 
		T0 112 
		P 79 
		N 84 
		C0 149 
		T0 113 
		P 81 
		N 85 
		C0 150 
		T0 113 
		P 82 
		N 86 
		C0 151 
		T0 113 
		P 80 
		N 83 
		C0 152 
		T0 113 
		P 83 
		N 87 
		C0 153 
		T0 113 
		P 84 
		N 88 
		C0 154 
		T0 113 
		P 83 
		N 87 
		C0 155 
		T0 114 
		P 85 
		N 89 
		C0 156 
		T0 115 
		P 86 
		N 90 
		C0 157 
		T0 116 
		P 84 
		N 88 
		C0 158 
		T0 117 
		P 73 
		N 73 
		C0 159 
		T0 118 
		P 76 
		N 79 
		C0 160 
		T0 119 
		P 78 
		N 81 
		C0 161 
		T0 120 
		P 74 
		N 74 
		C0 162 
		T0 121 
		P 80 
		N 83 
		C0 163 
		T0 122 
		P 82 
		N 86 
		C0 164 
		T0 123 
		P 84 
		N 88 
		C0 165 
		T0 124 
		P 86 
		N 90 
		C0 166 
		T0 125 
		P 21 
		N 76 
		C0 167 
		T0 126 
		P 87 
		N 91 
		C0 168 
		T0 98 
		P 50 
		N 92 
		C0 169 
		T0 98 
		P 88 
		N 93 
		C0 170 
		T0 98 
		P 51 
		N 94 
		C0 171 
		T0 98 
		P 54 
		N 30 
		C0 172 
		T0 98 
		P 59 
		N 95 
		C0 173 
		T0 98 
		P 6 
		N 96 
		C0 174 
		T0 98 
		P 5 
		N 96 
		C0 175 
		T0 98 
		P 22 
		N 97 
		C0 176 
		T0 98 
		P 6 
		N 8 
		C0 177 
		T0 98 
		P 88 
		N 8 
		C0 178 
		T0 98 
		P 87 
		N 8 
		C0 179 
		T0 98 
		P 22 
		N 8 
		C0 180 
		T0 98 
		P 35 
		N 8 
		C0 181 
		T0 127 
		P 34 
		N 8 
		C0 182 
		T0 128 
		P 89 
		N 8 
		C0 183 
		T0 129 
		P 90 
		N 8 
		C0 184 
		T0 130 
		P 27 
		N 77 
		C0 185 
		T0 105 
		P 91 
		N 98 
		C0 186 
		T0 105 
		P 92 
		N 99 
		C0 187 
		T0 54 
		P 93 
		N 100 
		C0 188 
		T0 56 
		P 94 
		N 101 
		C0 189 
		T0 58 
		P 94 
		N 101 
		C0 190 
		T0 59 
		P 95 
		N 102 
		C0 191 
		T0 59 
		P 96 
		N 103 
		C0 192 
		T0 62 
		P 97 
		N 104 
		C0 193 
		T0 131 
		P 98 
		N 105 
		C0 194 
		T0 60 
		P 99 
		N 106 
		C0 195 
		T0 63 
		P 100 
		N 107 
		C0 196 
		T0 64 
		P 101 
		N 108 
		C0 197 
		T0 65 
		P 102 
		N 109 
		C0 198 
		T0 132 
		P 103 
		N 110 
		C0 199 
		T0 67 
		P 104 
		N 111 
		C0 200 
		T0 66 
		P 105 
		N 112 
		C0 201 
		T0 133 
		P 106 
		N 113 
		C0 202 
		T0 72 
		P 107 
		N 114 
		C0 203 
		T0 71 
		P 108 
		N 115 
		C0 204 
		T0 70 
		P 109 
		N 116 
		C0 205 
		T0 75 
		P 110 
		N 117 
		C0 206 
		T0 74 
		P 3 
		N 118 
		C0 207 
		T0 73 
		P 111 
		N 119 
		C0 208 
		T0 76 
		P 112 
		N 120 
		C0 209 
		T0 77 
		P 113 
		N 121 
		C0 210 
		T0 79 
		P 114 
		N 122 
		C0 211 
		T0 78 
		P 115 
		N 123 
		C0 212 
		T0 81 
		P 116 
		N 124 
		C0 213 
		T0 80 
		P 117 
		N 125 
		C0 214 
		T0 83 
		P 118 
		N 126 
		C0 215 
		T0 82 
		P 119 
		N 127 
		C0 216 
		T0 84 
		P 120 
		N 128 
		C0 217 
		T0 85 
		P 121 
		N 129 
		C0 218 
		T0 86 
		P 122 
		N 130 
		C0 219 
		T0 87 
		P 123 
		N 131 
		C0 220 
		T0 88 
		P 92 
		N 99 
		C0 221 
		T0 89 
		P 32 
		N 132 
		C0 222 
		T0 90 
		P 31 
		N 21 
		C0 223 
		T0 134 
		P 3 
		N 2 
		C0 224 
		T0 92 
		P 110 
		N 0 
		C0 225 
		T0 92 
		P 0 
		N 0 
		C0 226 
		T0 92 
		P 31 
		N 133 
		C0 227 
		T0 135 
		P 114 
		N 122 
		C0 228 
		T0 95 
		P 112 
		N 120 
		C0 229 
		T0 96 
		P 116 
		N 124 
		C0 230 
		T0 97 
		P 116 
		N 124 
		C0 231 
		T0 59 
		P 115 
		N 123 
		C0 232 
		T0 59 
		P 95 
		N 134 
		C0 233 
		T0 98 
		P 115 
		N 135 
		C0 234 
		T0 98 
		P 113 
		N 136 
		C0 235 
		T0 98 
		P 124 
		N 137 
		C0 236 
		T0 98 
		P 118 
		N 138 
		C0 237 
		T0 100 
		P 120 
		N 139 
		C0 238 
		T0 136 
		P 122 
		N 140 
		C0 239 
		T0 102 
		P 119 
		N 141 
		C0 240 
		T0 101 
		P 31 
		N 133 
		C0 241 
		T0 94 
		P 30 
		N 142 
		C0 242 
		T0 94 
		P 125 
		N 143 
		C0 243 
		T0 105 
		P 33 
		N 144 
		C0 244 
		T0 105 
		P 29 
		N 77 
		C0 245 
		T0 105 
		P 126 
		N 145 
		C0 246 
		T0 106 
		P 125 
		N 143 
		C0 247 
		T0 106 
		P 127 
		N 146 
		C0 248 
		T0 109 
		P 126 
		N 145 
		C0 249 
		T0 110 
		P 128 
		N 147 
		C0 250 
		T0 112 
		P 129 
		N 148 
		C0 251 
		T0 113 
		P 128 
		N 147 
		C0 252 
		T0 113 
		P 130 
		N 149 
		C0 253 
		T0 113 
		P 131 
		N 150 
		C0 254 
		T0 116 
		P 130 
		N 149 
		C0 255 
		T0 117 
		P 125 
		N 143 
		C0 256 
		T0 118 
		P 126 
		N 145 
		C0 257 
		T0 137 
		P 127 
		N 146 
		C0 258 
		T0 120 
		P 91 
		N 98 
		C0 259 
		T0 121 
		P 128 
		N 147 
		C0 260 
		T0 122 
		P 129 
		N 148 
		C0 261 
		T0 123 
		P 130 
		N 149 
		C0 262 
		T0 124 
		P 131 
		N 150 
		C0 263 
		T0 125 
		P 33 
		N 144 
		C0 264 
		T0 126 
		P 104 
		N 151 
		C0 265 
		T0 98 
		P 103 
		N 152 
		C0 266 
		T0 98 
		P 132 
		N 153 
		C0 267 
		T0 98 
		P 108 
		N 154 
		C0 268 
		T0 98 
		P 111 
		N 155 
		C0 269 
		T0 98 
		P 3 
		N 2 
		C0 270 
		T0 98 
		P 2 
		N 1 
		C0 271 
		T0 98 
		P 23 
		N 156 
		C0 272 
		T0 98 
		P 124 
		N 21 
		C0 273 
		T0 98 
		P 132 
		N 21 
		C0 274 
		T0 98 
		P 2 
		N 21 
		C0 275 
		T0 98 
		P 23 
		N 21 
		C0 276 
		T0 98 
		P 133 
		N 21 
		C0 277 
		T0 130 
		P 37 
		N 21 
		C0 278 
		T0 127 
		P 36 
		N 21 
		C0 279 
		T0 128 
		P 134 
		N 21 
		C0 280 
		T0 129 
		P 133 
		N 75 
		C0 281 
		T0 129 
		P 89 
		N 75 
		C0 282 
		T0 130 
		P 34 
		N 75 
		C0 283 
		T0 127 
		P 37 
		N 75 
		C0 284 
		T0 128 
		P 134 
		N 157 
		C0 285 
		T0 138 
		P 90 
		N 157 
		C0 286 
		T0 138 
		P 89 
		N 157 
		C0 287 
		T0 138 
		P 133 
		N 157 
		C0 288 
		T0 138 
		P 36 
		N 158 
		C0 289 
		T0 127 
		P 35 
		N 158 
		C0 290 
		T0 128 
		P 90 
		N 158 
		C0 291 
		T0 129 
		P 134 
		N 158 
		C0 292 
		T0 130 
		P 7 
		N 25 
		C0 293 
		T0 53 
		P 135 
		N 158 
		C0 294 
		T0 139 
		P 136 
		N 158 
		C0 295 
		T0 140 
		P 137 
		N 158 
		C0 296 
		T0 141 
		P 138 
		N 158 
		C0 297 
		T0 142 
		P 136 
		N 0 
		C0 298 
		T0 143 
		P 139 
		N 0 
		C0 299 
		T0 143 
		P 140 
		N 0 
		C0 300 
		T0 143 
		P 137 
		N 0 
		C0 301 
		T0 143 
		P 137 
		N 159 
		C0 302 
		T0 143 
		P 141 
		N 5 
		C0 303 
		T0 143 
		P 142 
		N 21 
		C0 304 
		T0 144 
		P 139 
		N 21 
		C0 305 
		T0 145 
		P 136 
		N 21 
		C0 306 
		T0 146 
		P 135 
		N 21 
		C0 307 
		T0 147 
		P 143 
		N 157 
		C0 308 
		T0 143 
		P 138 
		N 160 
		C0 309 
		T0 143 
		P 144 
		N 160 
		C0 310 
		T0 143 
		P 135 
		N 157 
		C0 311 
		T0 143 
		P 142 
		N 157 
		C0 312 
		T0 143 
		P 139 
		N 75 
		C0 313 
		T0 141 
		P 142 
		N 75 
		C0 314 
		T0 142 
		P 143 
		N 75 
		C0 315 
		T0 148 
		P 140 
		N 75 
		C0 316 
		T0 149 
		P 145 
		N 158 
		C0 317 
		T0 140 
		P 146 
		N 158 
		C0 318 
		T0 141 
		P 147 
		N 158 
		C0 319 
		T0 142 
		P 148 
		N 158 
		C0 320 
		T0 139 
		P 149 
		N 0 
		C0 321 
		T0 143 
		P 150 
		N 0 
		C0 322 
		T0 143 
		P 146 
		N 0 
		C0 323 
		T0 143 
		P 145 
		N 161 
		C0 324 
		T0 143 
		P 151 
		N 161 
		C0 325 
		T0 143 
		P 146 
		N 8 
		C0 326 
		T0 146 
		P 150 
		N 8 
		C0 327 
		T0 145 
		P 152 
		N 8 
		C0 328 
		T0 144 
		P 147 
		N 8 
		C0 329 
		T0 147 
		P 153 
		N 157 
		C0 330 
		T0 143 
		P 154 
		N 162 
		C0 331 
		T0 143 
		P 148 
		N 162 
		C0 332 
		T0 143 
		P 147 
		N 157 
		C0 333 
		T0 143 
		P 152 
		N 157 
		C0 334 
		T0 143 
		P 153 
		N 75 
		C0 335 
		T0 148 
		P 152 
		N 75 
		C0 336 
		T0 142 
		P 150 
		N 75 
		C0 337 
		T0 141 
		P 149 
		N 75 
		C0 338 
		T0 149 
		P 155 
		N 75 
		C0 339 
		T0 143 
		P 156 
		N 75 
		C0 340 
		T0 143 
		P 157 
		N 75 
		C0 341 
		T0 143 
		P 158 
		N 75 
		C0 342 
		T0 143 
		P 159 
		N 75 
		C0 343 
		T0 143 
		P 160 
		N 75 
		C0 344 
		T0 143 
		P 161 
		N 75 
		C0 345 
		T0 143 
		P 162 
		N 75 
		C0 346 
		T0 143 
		P 144 
		N 75 
		C0 347 
		T0 150 
		P 141 
		N 75 
		C0 348 
		T0 151 
		P 154 
		N 75 
		C0 349 
		T0 150 
		P 151 
		N 75 
		C0 350 
		T0 151 
	}

	Mtl 2 { 
		{
			Name "#2" 
			Priority 32 
			Prim 14 { 
				{
					Type TRISTRIP
					Priority 32 
					Idx 10 { 9 10 8 11 31 30 61 60 63 62 }
				}
				{
					Type TRISTRIP
					Priority 32 
					Idx 6 { 19 13 17 12 16 20 }
				}
				{
					Type TRISTRIP
					Priority 32 
					Idx 5 { 18 14 13 15 12 }
				}
				{
					Type TRISTRIP2
					Priority 32 
					Idx 4 { 22 21 23 24 }
				}
				{
					Type TRISTRIP2
					Priority 32 
					Idx 4 { 34 33 35 32 }
				}
				{
					Type TRISTRIP2
					Priority 32 
					Idx 4 { 37 36 38 39 }
				}
				{
					Type TRISTRIP2
					Priority 32 
					Idx 5 { 44 43 42 41 40 }
				}
				{
					Type TRISTRIP
					Priority 32 
					Idx 4 { 49 50 52 51 }
				}
				{
					Type TRISTRIP
					Priority 32 
					Idx 4 { 57 58 56 59 }
				}
				{
					Type TRISTRIP
					Priority 32 
					Idx 9 { 3 0 2 1 2 7 6 4 5 }
				}
				{
					Type TRISTRIP2
					Priority 32 
					Idx 4 { 28 6 29 2 }
				}
				{
					Type TRISTRIP2
					Priority 32 
					Idx 6 { 46 41 45 43 47 48 }
				}
				{
					Type TRISTRIP2
					Priority 32 
					Idx 3 { 25 27 26 }
				}
				{
					Type TRISTRIP
					Priority 32 
					Idx 3 { 55 53 54 }
				}
			}

		}
		{
			Name "#3" 
			Priority 32 
			Prim 46 { 
				{
					Type TRISTRIP
					Priority 32 
					Idx 4 { 66 67 65 64 }
				}
				{
					Type TRISTRIP
					Priority 32 
					Idx 5 { 132 117 131 116 293 }
				}
				{
					Type TRISTRIP2
					Priority 32 
					Idx 6 { 94 97 95 96 116 117 }
				}
				{
					Type TRISTRIP2
					Priority 32 
					Idx 10 { 96 97 92 91 93 88 89 88 90 87 }
				}
				{
					Type TRISTRIP2
					Priority 32 
					Idx 4 { 181 184 182 183 }
				}
				{
					Type TRISTRIP2
					Priority 32 
					Idx 5 { 272 236 233 235 234 }
				}
				{
					Type TRISTRIP
					Priority 32 
					Idx 6 { 141 142 140 139 246 247 }
				}
				{
					Type TRISTRIP
					Priority 32 
					Idx 6 { 243 133 186 185 244 245 }
				}
				{
					Type TRISTRIP
					Priority 32 
					Idx 5 { 134 135 133 136 185 }
				}
				{
					Type TRISTRIP2
					Priority 32 
					Idx 4 { 137 135 138 136 }
				}
				{
					Type TRISTRIP2
					Priority 32 
					Idx 4 { 276 275 273 274 }
				}
				{
					Type TRISTRIP2
					Priority 32 
					Idx 4 { 279 278 280 277 }
				}
				{
					Type TRISTRIP2
					Priority 32 
					Idx 4 { 283 282 284 281 }
				}
				{
					Type TRISTRIP2
					Priority 32 
					Idx 4 { 286 285 287 288 }
				}
				{
					Type TRISTRIP2
					Priority 32 
					Idx 4 { 290 289 291 292 }
				}
				{
					Type TRISTRIP2
					Priority 32 
					Idx 4 { 295 294 296 297 }
				}
				{
					Type TRISTRIP2
					Priority 32 
					Idx 4 { 301 300 298 299 }
				}
				{
					Type TRISTRIP2
					Priority 32 
					Idx 4 { 306 305 307 304 }
				}
				{
					Type TRISTRIP2
					Priority 32 
					Idx 6 { 314 313 315 316 347 348 }
				}
				{
					Type TRISTRIP2
					Priority 32 
					Idx 4 { 318 317 319 320 }
				}
				{
					Type TRISTRIP2
					Priority 32 
					Idx 4 { 326 329 327 328 }
				}
				{
					Type TRISTRIP2
					Priority 32 
					Idx 4 { 339 342 340 341 }
				}
				{
					Type TRISTRIP2
					Priority 32 
					Idx 4 { 345 344 343 346 }
				}
				{
					Type TRISTRIP2
					Priority 32 
					Idx 13 { 229 187 228 188 230 188 189 72 74 73 75 118 120 }
				}
				{
					Type TRISTRIP
					Priority 32 
					Idx 7 { 188 72 187 156 254 155 255 }
				}
				{
					Type TRISTRIP2
					Priority 32 
					Idx 9 { 155 158 156 157 72 71 73 119 118 }
				}
				{
					Type TRISTRIP
					Priority 32 
					Idx 11 { 322 323 321 324 325 332 331 332 330 333 334 }
				}
				{
					Type TRISTRIP2
					Priority 32 
					Idx 12 { 232 231 191 190 77 76 78 80 79 80 121 122 }
				}
				{
					Type TRISTRIP2
					Priority 32 
					Idx 9 { 300 302 303 309 310 309 308 311 312 }
				}
				{
					Type TRISTRIP
					Priority 32 
					Idx 19 { 101 102 99 100 98 87 98 90 110 90 129 89 128 93 127 92 126 96 130 }
				}
				{
					Type TRISTRIP2
					Priority 32 
					Idx 4 { 180 179 177 178 }
				}
				{
					Type TRISTRIP2
					Priority 32 
					Idx 9 { 252 149 251 150 253 150 153 151 154 }
				}
				{
					Type TRISTRIP
					Priority 32 
					Idx 4 { 151 152 150 149 }
				}
				{
					Type TRISTRIP
					Priority 32 
					Idx 9 { 249 248 143 144 146 144 145 147 148 }
				}
				{
					Type TRISTRIP2
					Priority 32 
					Idx 4 { 147 250 144 248 }
				}
				{
					Type TRISTRIP2
					Priority 32 
					Idx 7 { 337 336 338 335 338 349 350 }
				}
				{
					Type TRISTRIP
					Priority 32 
					Idx 11 { 270 271 269 267 268 267 266 267 265 236 235 }
				}
				{
					Type TRISTRIP2
					Priority 32 
					Idx 23 { 221 209 239 201 240 198 237 202 238 202 203 202 199 198 200 201 200 209 210 211 210 213 212 }
				}
				{
					Type TRISTRIP
					Priority 32 
					Idx 42 { 223 217 222 196 264 196 259 195 256 194 256 193 257 193 192 194 192 195 192 196 197 217 197 215 214 216 218 219 220 221 220 263 220 262 218 261 214 260 197 258 192 257 }
				}
				{
					Type TRISTRIP
					Priority 32 
					Idx 15 { 124 125 123 176 123 168 169 168 171 170 172 170 173 174 175 }
				}
				{
					Type TRISTRIP2
					Priority 32 
					Idx 8 { 199 204 203 208 203 205 238 241 }
				}
				{
					Type TRISTRIP2
					Priority 32 
					Idx 10 { 208 207 205 206 227 68 242 68 69 70 }
				}
				{
					Type TRISTRIP2
					Priority 32 
					Idx 35 { 111 112 85 106 86 103 104 105 107 108 109 110 109 166 107 165 104 164 86 163 86 161 83 160 82 160 81 159 81 84 82 84 83 85 86 }
				}
				{
					Type TRISTRIP
					Priority 32 
					Idx 6 { 159 84 162 85 167 111 }
				}
				{
					Type TRISTRIP
					Priority 32 
					Idx 3 { 115 113 114 }
				}
				{
					Type TRISTRIP2
					Priority 32 
					Idx 3 { 224 226 225 }
				}
			}

		}
	}

	Offset 0 
}
