{
	Skinned 0 
	PosSkin 0 
	Pos 225 { 
		-1.433950	2.532188	2.537617 
		-1.205238	2.532188	2.537617 
		-1.218038	2.532205	0.990977 
		-1.433950	2.532188	0.990977 
		-1.188745	2.532187	4.429506 
		-1.433950	2.532188	4.425975 
		-1.188629	2.532188	4.864406 
		-1.433950	2.532187	4.864406 
		-1.188745	2.728945	4.864406 
		-1.188745	2.728945	4.426724 
		-1.218726	2.728945	0.990977 
		-1.205238	2.728945	2.537926 
		-1.361227	2.843147	-2.548719 
		0.000000	2.843147	-2.548719 
		0.000000	2.815807	-4.069430 
		-1.363715	2.815807	-4.069430 
		-1.317994	2.660008	-4.168598 
		-1.256585	1.860482	-4.310297 
		-1.433950	1.846494	-4.213857 
		-1.436758	2.747856	-4.089112 
		-1.215575	2.729409	-4.181720 
		0.000000	2.729409	-4.181720 
		0.000000	1.860482	-4.310297 
		0.000000	0.777870	-4.302092 
		-0.864531	0.935498	-4.303286 
		-0.864531	1.081001	-4.304389 
		-1.256585	0.777870	-4.302092 
		-1.075637	0.935498	-4.303286 
		-1.075637	1.081001	-4.304389 
		-1.433950	2.777848	-0.744855 
		-1.433950	1.846494	-0.744855 
		-1.150789	2.135486	-0.744855 
		-1.361227	2.843147	-0.744855 
		0.000000	2.135486	-0.744855 
		0.000000	2.843147	-0.744855 
		-1.433950	0.774588	-4.122031 
		-1.433950	0.869489	-3.163136 
		-1.433950	0.508184	-3.246088 
		-1.433950	0.507217	-4.123401 
		-1.433950	1.155280	-2.927775 
		-1.433950	1.273459	-2.549841 
		-1.433950	1.846494	-2.548719 
		-1.433950	2.777848	-2.548719 
		-0.716977	1.218724	-2.966256 
		-0.716978	0.507216	-3.276805 
		-0.716977	0.518344	-1.731866 
		-0.716977	1.212045	-2.159009 
		-1.433950	0.775072	-4.205735 
		-1.736862	1.945192	-4.206565 
		-1.677030	1.945192	-4.181895 
		-1.542727	1.873587	-4.256742 
		-1.542727	1.791180	-4.281412 
		-1.728304	1.945192	-4.142419 
		-1.534169	1.791180	-4.217267 
		-1.357629	1.856889	-4.258460 
		-1.421324	1.765546	-4.310109 
		-1.406731	1.765546	-4.200722 
		-1.358474	1.765545	-4.262832 
		-1.563093	1.933264	-4.214061 
		-1.588651	2.240296	-4.208435 
		-1.782149	2.240296	-4.114946 
		-1.802441	1.933264	-4.098420 
		-1.633695	1.983394	-4.242103 
		-1.780531	1.983394	-4.171159 
		-1.781711	2.102683	-4.173602 
		-1.634875	2.102683	-4.244546 
		0.000000	2.843147	-1.672646 
		-1.361227	2.843147	-1.672646 
		-1.433950	1.162825	-2.184633 
		-1.433950	1.846494	-1.672646 
		-1.433950	2.777848	-1.672646 
		-1.433950	0.518344	-1.672646 
		-1.433950	0.518344	-0.744855 
		-1.433950	0.577510	-0.744855 
		-1.150789	0.577510	-0.744855 
		-1.150789	2.135486	-0.148910 
		0.000000	2.135486	-0.148910 
		-1.150789	0.577510	0.990977 
		0.000000	2.660677	-0.148910 
		-1.150789	2.660677	-0.148910 
		-1.150789	2.660677	0.990977 
		0.000000	2.660677	0.990977 
		-1.150789	2.504889	-0.148910 
		-1.150789	2.495842	0.990977 
		-1.003765	2.728945	4.429605 
		-1.032701	2.728945	2.537926 
		-1.003765	2.728945	4.864406 
		-1.433950	0.577510	0.990977 
		-1.433950	0.518344	0.990977 
		-1.433950	0.518344	1.849430 
		-1.433950	0.912754	1.949354 
		-1.003765	0.518344	4.864406 
		-1.003765	0.592176	4.864406 
		-1.433950	0.518344	4.864406 
		-1.350607	0.924404	4.864406 
		-1.350607	1.041787	4.864406 
		-1.105708	0.924404	4.864406 
		-1.105708	1.041787	4.864406 
		0.000000	2.790223	0.990977 
		-1.056365	2.728945	0.990977 
		0.000000	2.790223	2.537926 
		0.000000	0.777870	-4.592859 
		0.000000	0.507217	-4.590807 
		-1.525002	0.507217	-4.590807 
		-1.525002	0.777870	-4.592859 
		-1.525002	0.507217	-4.122031 
		-1.525002	0.774588	-4.122031 
		-1.433950	0.942935	-1.954022 
		-1.433950	0.518344	-1.830864 
		-1.003765	0.592176	4.429605 
		0.000000	0.592176	4.429605 
		0.000000	2.790223	4.429605 
		0.000000	0.518344	4.864406 
		0.000000	0.592176	4.864406 
		-1.433950	1.122567	2.148703 
		-1.433950	1.254569	2.533300 
		-0.716977	0.518344	3.193084 
		-0.716977	1.254569	2.956255 
		-0.716977	1.254569	2.049028 
		-0.716977	0.518344	1.849430 
		-1.433950	1.131568	2.854459 
		-1.433950	0.518344	3.193084 
		-1.433950	0.952857	3.058052 
		1.433950	2.532188	2.537617 
		1.433950	2.532188	0.990977 
		1.218038	2.532205	0.990977 
		1.205238	2.532188	2.537617 
		1.188745	2.532187	4.429506 
		1.433950	2.532188	4.425975 
		1.188629	2.532188	4.864406 
		1.433950	2.532187	4.864406 
		1.188745	2.728945	4.864406 
		1.188745	2.728945	4.426724 
		1.218726	2.728945	0.990977 
		1.205238	2.728945	2.537926 
		1.361227	2.843147	-2.548719 
		1.363715	2.815807	-4.069430 
		1.317994	2.660008	-4.168598 
		1.436758	2.747856	-4.089112 
		1.433950	1.846494	-4.213857 
		1.256585	1.860482	-4.310297 
		1.215575	2.729409	-4.181720 
		0.864531	1.081001	-4.304389 
		0.864531	0.935498	-4.303286 
		1.256585	0.777870	-4.302092 
		1.075637	0.935498	-4.303286 
		1.075637	1.081001	-4.304389 
		1.433950	2.777848	-0.744855 
		1.361227	2.843147	-0.744855 
		1.150789	2.135486	-0.744855 
		1.433950	1.846494	-0.744855 
		1.433950	0.774588	-4.122031 
		1.433950	0.869489	-3.163136 
		1.433950	0.508184	-3.246088 
		1.433950	0.507217	-4.123401 
		1.433950	1.155280	-2.927775 
		1.433950	1.846494	-2.548719 
		1.433950	1.273459	-2.549841 
		1.433950	2.777848	-2.548719 
		0.716977	1.218724	-2.966256 
		0.716977	1.212045	-2.159009 
		0.716977	0.518344	-1.731866 
		0.716978	0.507216	-3.276805 
		1.433950	0.775072	-4.205735 
		1.736862	1.945192	-4.206565 
		1.542727	1.791180	-4.281412 
		1.542727	1.873587	-4.256742 
		1.677030	1.945192	-4.181895 
		1.534169	1.791180	-4.217267 
		1.728304	1.945192	-4.142419 
		1.421324	1.765546	-4.310109 
		1.357629	1.856889	-4.258460 
		1.406731	1.765546	-4.200722 
		1.358474	1.765545	-4.262832 
		1.563093	1.933264	-4.214061 
		1.802441	1.933264	-4.098420 
		1.782149	2.240296	-4.114946 
		1.588651	2.240296	-4.208435 
		1.633695	1.983394	-4.242103 
		1.634875	2.102683	-4.244546 
		1.781711	2.102683	-4.173602 
		1.780531	1.983394	-4.171159 
		1.361227	2.843147	-1.672646 
		1.433950	1.162825	-2.184633 
		1.433950	1.846494	-1.672646 
		1.433950	2.777848	-1.672646 
		1.433950	0.518344	-1.672646 
		1.433950	0.577510	-0.744855 
		1.433950	0.518344	-0.744855 
		1.150789	0.577510	-0.744855 
		1.150789	2.135486	-0.148910 
		1.150789	0.577510	0.990977 
		1.150789	2.660677	0.990977 
		1.150789	2.660677	-0.148910 
		1.003765	2.728945	4.429605 
		1.032701	2.728945	2.537926 
		1.003765	2.728945	4.864406 
		1.433950	0.577510	0.990977 
		1.433950	0.912754	1.949354 
		1.433950	0.518344	1.849430 
		1.433950	0.518344	0.990977 
		1.003765	0.518344	4.864406 
		1.433950	0.518344	4.864406 
		1.003765	0.592176	4.864406 
		1.351429	0.924404	4.864406 
		1.106021	0.924404	4.864406 
		1.351429	1.041787	4.864405 
		1.106021	1.041787	4.864406 
		1.056365	2.728945	0.990977 
		1.525002	0.777870	-4.592859 
		1.525002	0.507217	-4.590807 
		1.525002	0.774588	-4.122031 
		1.525002	0.507217	-4.122031 
		1.433950	0.942935	-1.954022 
		1.433950	0.518344	-1.830864 
		1.003765	0.592176	4.429605 
		1.433950	1.122567	2.148703 
		1.433950	1.254569	2.533300 
		0.716977	0.518344	3.193084 
		0.716977	0.518344	1.849430 
		0.716977	1.254569	2.049028 
		0.716977	1.254569	2.956255 
		1.433950	1.131568	2.854459 
		1.433950	0.518344	3.193084 
		1.433950	0.952857	3.058052 
	}

	Nrm 123 { 
		0.000000	1.000000	0.000000 
		-1.000000	0.000000	0.000000 
		-1.000000	0.000000	0.015625 
		-0.359375	0.937500	-0.015625 
		0.000000	1.000000	-0.015625 
		0.000000	0.937500	-0.328125 
		-0.281250	0.859375	-0.421875 
		-0.343750	0.234375	-0.906250 
		-0.250000	0.062500	-0.968750 
		-0.953125	0.015625	-0.281250 
		-0.750000	0.390625	-0.531250 
		-0.140625	0.406250	-0.906250 
		0.000000	0.500000	-0.859375 
		0.000000	0.046875	-1.000000 
		0.000000	0.000000	-1.000000 
		-0.156250	0.000000	-0.984375 
		0.000000	0.000000	1.000000 
		-0.906250	0.296875	0.296875 
		-0.703125	0.000000	0.703125 
		-0.921875	0.406250	0.000000 
		-0.593750	0.609375	-0.531250 
		-0.500000	0.593750	-0.625000 
		0.281250	0.953125	-0.062500 
		0.296875	0.953125	-0.093750 
		-0.421875	-0.406250	-0.812500 
		-0.015625	0.593750	0.812500 
		-0.093750	-0.468750	0.875000 
		0.828125	0.531250	-0.140625 
		0.156250	-0.671875	-0.734375 
		0.281250	-0.687500	0.671875 
		0.812500	-0.578125	-0.109375 
		0.437500	0.015625	0.906250 
		-0.109375	-0.296875	-0.953125 
		-0.671875	-0.296875	-0.671875 
		-0.671875	0.140625	-0.718750 
		-0.140625	0.140625	-0.984375 
		0.109375	-0.421875	-0.890625 
		-0.765625	-0.421875	-0.484375 
		-0.781250	0.218750	-0.578125 
		0.031250	0.218750	-0.968750 
		-0.671875	0.750000	0.000000 
		-0.703125	0.703125	0.000000 
		-0.890625	0.453125	0.000000 
		-0.062500	1.000000	0.000000 
		-0.312500	0.953125	0.000000 
		-0.578125	0.578125	0.578125 
		0.031250	-0.500000	0.875000 
		-0.031250	-0.343750	0.937500 
		0.093750	-0.625000	0.765625 
		-0.015625	-1.000000	0.093750 
		0.031250	-0.812500	-0.578125 
		0.078125	-0.953125	-0.296875 
		0.062500	-0.437500	-0.890625 
		0.125000	-0.281250	-0.953125 
		1.000000	0.000000	0.000000 
		0.000000	0.703125	0.703125 
		0.218750	-0.921875	0.312500 
		0.109375	-0.984375	0.156250 
		0.140625	-0.984375	-0.015625 
		0.109375	-0.984375	-0.171875 
		0.203125	-0.906250	-0.343750 
		0.000000	-0.296875	-0.953125 
		0.218750	-0.734375	-0.640625 
		0.218750	-0.671875	0.703125 
		0.109375	-0.484375	0.875000 
		0.000000	-0.250000	0.968750 
		1.000000	0.000000	0.015625 
		0.359375	0.937500	-0.015625 
		0.281250	0.859375	-0.421875 
		0.343750	0.234375	-0.906250 
		0.750000	0.390625	-0.531250 
		0.953125	0.015625	-0.281250 
		0.250000	0.062500	-0.968750 
		0.140625	0.406250	-0.906250 
		0.156250	0.000000	-0.984375 
		0.906250	0.296875	0.296875 
		0.703125	0.000000	0.703125 
		0.921875	0.406250	0.000000 
		0.593750	0.609375	-0.531250 
		0.500000	0.593750	-0.625000 
		0.421875	-0.406250	-0.812500 
		-0.296875	0.953125	-0.093750 
		-0.281250	0.953125	-0.062500 
		0.093750	-0.468750	0.875000 
		0.015625	0.593750	0.812500 
		-0.156250	-0.671875	-0.734375 
		-0.828125	0.531250	-0.140625 
		-0.281250	-0.687500	0.671875 
		-0.812500	-0.578125	-0.109375 
		-0.437500	0.015625	0.906250 
		0.109375	-0.296875	-0.953125 
		0.140625	0.140625	-0.984375 
		0.671875	0.140625	-0.718750 
		0.671875	-0.296875	-0.671875 
		-0.109375	-0.421875	-0.890625 
		0.765625	-0.421875	-0.484375 
		0.781250	0.218750	-0.578125 
		-0.031250	0.218750	-0.968750 
		0.671875	0.750000	0.000000 
		0.890625	0.453125	0.000000 
		0.703125	0.703125	0.000000 
		0.062500	1.000000	0.000000 
		0.312500	0.953125	0.000000 
		0.578125	0.578125	0.578125 
		-0.031250	-0.500000	0.875000 
		0.031250	-0.343750	0.937500 
		-0.093750	-0.625000	0.765625 
		0.015625	-1.000000	0.093750 
		-0.031250	-0.812500	-0.578125 
		-0.078125	-0.953125	-0.296875 
		-0.062500	-0.437500	-0.890625 
		-0.125000	-0.281250	-0.953125 
		-0.218750	-0.921875	0.312500 
		-0.140625	-0.984375	-0.015625 
		-0.109375	-0.984375	0.156250 
		-0.109375	-0.984375	-0.171875 
		-0.203125	-0.906250	-0.343750 
		-0.218750	-0.734375	-0.640625 
		-0.218750	-0.671875	0.703125 
		-0.109375	-0.484375	0.875000 
		0.015625	-1.000000	0.000000 
		0.000000	-1.000000	0.000000 
		-0.015625	-1.000000	0.000000 
	}

	Cpv 521 { 
		0.500000	0.320858	0.500000	0.003922 
		0.500000	0.320858	0.500000	0.003922 
		0.500000	0.500000	0.500000	0.003922 
		0.500000	0.500000	0.500000	0.003922 
		0.500000	0.500000	0.500000	0.003922 
		0.500000	0.500000	0.500000	0.003922 
		0.500000	0.500000	0.500000	0.003922 
		0.500000	0.500000	0.500000	0.003922 
		0.500000	0.500000	0.500000	0.003922 
		0.500000	0.500000	0.500000	0.003922 
		0.500000	0.500000	0.500000	0.003922 
		0.500000	0.500000	0.500000	0.003922 
		0.500000	0.500000	0.500000	0.003922 
		0.500000	0.500000	0.500000	0.003922 
		0.500000	0.320858	0.500000	0.003922 
		0.500000	0.320858	0.500000	0.003922 
		0.500000	0.500000	0.500000	0.003922 
		0.500000	0.500000	0.500000	0.003922 
		0.611275	0.418068	0.500000	0.003922 
		0.500000	0.500000	0.500000	0.003922 
		0.500000	0.500000	0.500000	0.003922 
		0.500000	0.500000	0.500000	0.003922 
		0.500000	0.500000	0.500000	0.003922 
		0.500000	0.500000	0.500000	0.000000 
		0.500000	0.500000	0.500000	0.000000 
		0.500000	0.500000	0.500000	0.003922 
		0.500000	0.500000	0.500000	0.003922 
		0.500000	0.500000	0.500000	0.003922 
		0.500000	0.500000	0.500000	0.000000 
		0.500000	0.588198	0.598818	0.000000 
		0.500000	0.500000	0.572023	0.000000 
		0.500000	0.500000	0.572023	0.000000 
		0.500000	0.500000	0.500000	0.000000 
		0.500000	0.500000	0.572023	0.000000 
		0.500000	0.500000	0.572023	0.000000 
		0.500000	0.500000	0.500000	0.003922 
		0.500000	0.500000	0.500000	0.000000 
		0.500000	0.500000	0.500000	0.000000 
		0.500000	0.500000	0.500000	0.003922 
		0.500000	0.500000	0.500000	0.000000 
		0.500000	0.500000	0.500000	0.003922 
		0.500000	0.500000	0.500000	0.000000 
		0.605672	0.500000	0.500000	0.000000 
		0.500000	0.500000	0.500000	0.000000 
		0.605672	0.500000	0.500000	0.000000 
		0.500000	0.500000	0.500000	0.000000 
		0.605672	0.500000	0.500000	0.000000 
		0.605672	0.500000	0.500000	0.000000 
		0.605672	0.500000	0.500000	0.000000 
		0.500000	0.500000	0.500000	0.003922 
		0.611275	0.418068	0.500000	0.003922 
		0.611275	0.418068	0.500000	0.003922 
		0.500000	0.500000	0.500000	0.003922 
		0.500000	0.500000	0.500000	0.003922 
		0.500000	0.500000	0.500000	0.003922 
		0.500000	0.500000	0.500000	0.000000 
		0.500000	0.500000	0.500000	0.000000 
		0.500000	0.500000	0.500000	0.000000 
		0.500000	0.500000	0.500000	0.000000 
		0.500000	0.500000	0.500000	0.000000 
		0.596094	0.500000	0.561862	0.000000 
		0.589212	0.500000	0.499980	0.000000 
		0.500000	0.500000	0.500000	0.000000 
		0.500000	0.500000	0.500000	0.000000 
		0.646238	0.500000	0.524958	0.000000 
		0.500000	0.500000	0.500000	0.000000 
		0.500000	0.500000	0.500000	0.000000 
		0.500000	0.500000	0.500000	0.000000 
		0.500000	0.500000	0.500000	0.000000 
		0.500000	0.500000	0.500000	0.000000 
		0.509351	0.500000	0.418765	0.000000 
		0.525925	0.500000	0.437719	0.000000 
		0.694329	0.500000	0.557659	0.000000 
		0.717659	0.500000	0.567126	0.000000 
		0.518374	0.500000	0.491292	0.000000 
		0.646168	0.500000	0.582310	0.000000 
		0.644653	0.500000	0.584436	0.000000 
		0.516859	0.500000	0.493419	0.000000 
		0.509351	0.500000	0.418765	0.000000 
		0.717659	0.500000	0.567126	0.000000 
		0.694329	0.500000	0.557659	0.000000 
		0.525925	0.500000	0.437719	0.000000 
		0.500000	0.500000	0.500000	0.003922 
		0.500000	0.500000	0.500000	0.003922 
		0.500000	0.500000	0.500000	0.000000 
		0.500000	0.500000	0.500000	0.000000 
		0.500000	0.500000	0.500000	0.003922 
		0.500000	0.500000	0.500000	0.003922 
		0.500000	0.500000	0.500000	0.003922 
		0.583414	0.500000	0.500000	0.000000 
		0.629467	0.500000	0.500000	0.000000 
		0.629467	0.500000	0.500000	0.000000 
		0.500000	0.500000	0.500000	0.000000 
		0.500000	0.500000	0.500000	0.003922 
		0.500000	0.500000	0.500000	0.003922 
		0.500000	0.500000	0.500000	0.003922 
		0.500000	0.500000	0.500000	0.003922 
		0.500000	0.500000	0.500000	0.003922 
		0.629467	0.500000	0.500000	0.000000 
		0.500000	0.500000	0.500000	0.000000 
		0.500000	0.500000	0.500000	0.000000 
		0.500000	0.500000	0.500000	0.000000 
		0.500000	0.500000	0.500000	0.000000 
		0.500000	0.500000	0.500000	0.000000 
		0.500000	0.500000	0.500000	0.000000 
		0.500000	0.500000	0.500000	0.000000 
		0.500000	0.455611	0.500000	0.003922 
		0.500000	0.455611	0.500000	0.003922 
		0.500000	0.500000	0.500000	0.003922 
		0.500000	0.500000	0.500000	0.003922 
		0.500000	0.455611	0.500000	0.003922 
		0.500000	0.455611	0.500000	0.003922 
		0.500000	0.455611	0.500000	0.003922 
		0.500000	0.455611	0.500000	0.003922 
		0.500000	0.500000	0.500000	0.003922 
		0.500000	0.500000	0.500000	0.003922 
		0.500000	0.320858	0.500000	0.003922 
		0.500000	0.320858	0.500000	0.003922 
		0.500000	0.500000	0.500000	0.003922 
		0.500000	0.500000	0.500000	0.003922 
		0.500000	0.500000	0.500000	0.003922 
		0.500000	0.500000	0.500000	0.000000 
		0.500000	0.500000	0.500000	0.000000 
		0.500000	0.500000	0.500000	0.000000 
		0.500000	0.500000	0.500000	0.000000 
		0.500000	0.603500	0.414361	0.000000 
		0.500000	0.603500	0.414361	0.000000 
		0.500000	0.603500	0.414361	0.000000 
		0.500000	0.500000	0.500000	0.003922 
		0.500000	0.500000	0.500000	0.000000 
		0.500000	0.500000	0.500000	0.000000 
		0.500000	0.500000	0.500000	0.000000 
		0.500000	0.500000	0.500000	0.003922 
		0.500000	0.500000	0.500000	0.000000 
		0.500000	0.500000	0.500000	0.003922 
		0.500000	0.500000	0.500000	0.003922 
		0.500000	0.357793	0.500000	0.003922 
		0.500000	0.500000	0.500000	0.003922 
		0.500000	0.320858	0.500000	0.003922 
		0.500000	0.178651	0.500000	0.003922 
		0.500000	0.357793	0.500000	0.003922 
		0.500000	0.500000	0.500000	0.003922 
		0.500000	0.500000	0.500000	0.003922 
		0.500000	0.500000	0.500000	0.003922 
		0.500000	0.588198	0.771797	0.000000 
		0.500000	0.588198	0.771797	0.000000 
		0.603982	0.545848	0.631325	0.000000 
		0.603982	0.545848	0.631325	0.000000 
		0.603982	0.545848	0.631325	0.000000 
		0.603982	0.545848	0.631325	0.000000 
		0.500000	0.500000	0.500000	0.000000 
		0.500000	0.500000	0.500000	0.000000 
		0.500000	0.500000	0.500000	0.000000 
		0.500000	0.500000	0.500000	0.000000 
		0.605672	0.500000	0.500000	0.000000 
		0.605672	0.500000	0.500000	0.000000 
		0.500000	0.500000	0.500000	0.000000 
		0.605672	0.500000	0.500000	0.000000 
		0.605672	0.500000	0.500000	0.000000 
		0.605672	0.500000	0.500000	0.000000 
		0.500000	0.500000	0.500000	0.000000 
		0.500000	0.500000	0.500000	0.000000 
		0.500000	0.500000	0.500000	0.000000 
		0.500000	0.500000	0.500000	0.000000 
		0.605672	0.500000	0.500000	0.000000 
		0.500000	0.500000	0.500000	0.000000 
		0.500000	0.500000	0.500000	0.000000 
		0.500000	0.500000	0.500000	0.000000 
		0.500000	0.500000	0.500000	0.000000 
		0.500000	0.588198	0.598818	0.000000 
		0.500000	0.588198	0.771797	0.000000 
		0.603982	0.545848	0.631325	0.000000 
		0.500000	0.500000	0.500000	0.000000 
		0.500000	0.500000	0.500000	0.000000 
		0.500000	0.500000	0.500000	0.000000 
		0.500000	0.500000	0.500000	0.000000 
		0.500000	0.500000	0.500000	0.000000 
		0.500000	0.500000	0.500000	0.000000 
		0.500000	0.500000	0.500000	0.000000 
		0.500000	0.500000	0.500000	0.000000 
		0.500000	0.500000	0.500000	0.000000 
		0.500000	0.500000	0.500000	0.000000 
		0.500000	0.500000	0.500000	0.000000 
		0.500000	0.500000	0.500000	0.000000 
		0.629467	0.500000	0.500000	0.000000 
		0.500000	0.500000	0.500000	0.000000 
		0.629467	0.500000	0.500000	0.000000 
		0.629467	0.500000	0.500000	0.000000 
		0.500000	0.500000	0.500000	0.000000 
		0.500000	0.500000	0.500000	0.000000 
		0.500000	0.500000	0.500000	0.000000 
		0.500000	0.319270	0.500000	0.003922 
		0.500000	0.500000	0.500000	0.003922 
		0.500000	0.603500	0.414361	0.000000 
		0.500000	0.500000	0.500000	0.000000 
		0.500000	0.500000	0.500000	0.003922 
		0.500000	0.500000	0.500000	0.003922 
		0.500000	0.603500	0.414361	0.000000 
		0.500000	0.576608	0.392294	0.000000 
		0.500000	0.576608	0.392294	0.000000 
		0.500000	0.500000	0.500000	0.000000 
		0.500000	0.603500	0.414361	0.000000 
		0.500000	0.576608	0.392294	0.000000 
		0.500000	0.500000	0.500000	0.000000 
		0.500000	0.500000	0.500000	0.003922 
		0.500000	0.500000	0.500000	0.000000 
		0.500000	0.320858	0.500000	0.003922 
		0.500000	0.500000	0.500000	0.000000 
		0.500000	0.500000	0.500000	0.000000 
		0.500000	0.500000	0.500000	0.000000 
		0.500000	0.500000	0.500000	0.000000 
		0.500000	0.500000	0.500000	0.000000 
		0.500000	0.500000	0.500000	0.000000 
		0.500000	0.500000	0.500000	0.000000 
		0.500000	0.500000	0.500000	0.000000 
		0.500000	0.500000	0.500000	0.000000 
		0.500000	0.500000	0.500000	0.000000 
		0.500000	0.500000	0.500000	0.000000 
		0.585161	0.500000	0.500000	0.000000 
		0.500000	0.500000	0.500000	0.000000 
		0.500000	0.500000	0.500000	0.000000 
		0.585161	0.500000	0.500000	0.000000 
		0.500000	0.500000	0.500000	0.000000 
		0.500000	0.500000	0.500000	0.000000 
		0.500000	0.500000	0.500000	0.000000 
		0.500000	0.500000	0.500000	0.000000 
		0.500000	0.500000	0.500000	0.000000 
		0.500000	0.500000	0.500000	0.000000 
		0.500000	0.500000	0.500000	0.000000 
		0.500000	0.500000	0.500000	0.003922 
		0.500000	0.500000	0.500000	0.003922 
		0.500000	0.178651	0.500000	0.003922 
		0.500000	0.320858	0.500000	0.003922 
		0.500000	0.500000	0.500000	0.003922 
		0.500000	0.319270	0.500000	0.003922 
		0.500000	0.603500	0.414361	0.000000 
		0.500000	0.500000	0.500000	0.003922 
		0.500000	0.500000	0.500000	0.003922 
		0.500000	0.500000	0.500000	0.000000 
		0.500000	0.500000	0.500000	0.003922 
		0.500000	0.500000	0.500000	0.003922 
		0.500000	0.500000	0.500000	0.003922 
		0.500000	0.500000	0.500000	0.000000 
		0.500000	0.500000	0.500000	0.000000 
		0.500000	0.500000	0.500000	0.003922 
		0.500000	0.500000	0.500000	0.000000 
		0.585161	0.500000	0.500000	0.000000 
		0.500000	0.500000	0.500000	0.000000 
		0.500000	0.500000	0.500000	0.000000 
		0.500000	0.500000	0.500000	0.003922 
		0.500000	0.455611	0.500000	0.003922 
		0.500000	0.320858	0.500000	0.003922 
		0.500000	0.354230	0.500000	0.003922 
		0.500000	0.354230	0.500000	0.003922 
		0.500000	0.320858	0.500000	0.003922 
		0.500000	0.500000	0.500000	0.003922 
		0.500000	0.500000	0.500000	0.003922 
		0.500000	0.500000	0.500000	0.003922 
		0.500000	0.500000	0.500000	0.003922 
		0.500000	0.500000	0.500000	0.003922 
		0.500000	0.500000	0.500000	0.003922 
		0.500000	0.500000	0.500000	0.003922 
		0.500000	0.500000	0.500000	0.003922 
		0.500000	0.354230	0.500000	0.003922 
		0.355065	0.320858	0.500000	0.003922 
		0.500000	0.320858	0.500000	0.003922 
		0.500000	0.354230	0.500000	0.003922 
		0.500000	0.500000	0.500000	0.003922 
		0.500000	0.500000	0.500000	0.003922 
		0.500000	0.500000	0.500000	0.003922 
		0.500000	0.500000	0.500000	0.003922 
		0.500000	0.500000	0.500000	0.003922 
		0.500000	0.500000	0.500000	0.003922 
		0.500000	0.500000	0.500000	0.000000 
		0.500000	0.500000	0.500000	0.000000 
		0.500000	0.500000	0.500000	0.003922 
		0.500000	0.500000	0.500000	0.000000 
		0.500000	0.500000	0.500000	0.000000 
		0.500000	0.500000	0.500000	0.000000 
		0.500000	0.500000	0.500000	0.000000 
		0.500000	0.500000	0.500000	0.000000 
		0.500000	0.500000	0.500000	0.003922 
		0.500000	0.500000	0.500000	0.003922 
		0.500000	0.500000	0.500000	0.000000 
		0.500000	0.500000	0.500000	0.000000 
		0.500000	0.500000	0.500000	0.000000 
		0.500000	0.500000	0.500000	0.000000 
		0.500000	0.500000	0.500000	0.000000 
		0.500000	0.500000	0.500000	0.000000 
		0.500000	0.500000	0.500000	0.000000 
		0.500000	0.500000	0.500000	0.000000 
		0.500000	0.500000	0.500000	0.000000 
		0.500000	0.500000	0.500000	0.000000 
		0.500000	0.500000	0.500000	0.003922 
		0.500000	0.500000	0.500000	0.003922 
		0.500000	0.500000	0.500000	0.003922 
		0.500000	0.500000	0.500000	0.003922 
		0.500000	0.500000	0.500000	0.003922 
		0.500000	0.500000	0.500000	0.000000 
		0.500000	0.500000	0.500000	0.000000 
		0.500000	0.500000	0.500000	0.000000 
		0.500000	0.500000	0.500000	0.000000 
		0.500000	0.500000	0.500000	0.000000 
		0.468950	0.517432	0.500000	0.000000 
		0.500000	0.500000	0.500000	0.000000 
		0.500000	0.500000	0.500000	0.000000 
		0.470751	0.502864	0.500000	0.000000 
		0.500000	0.500000	0.500000	0.000000 
		0.469208	0.515349	0.500000	0.000000 
		0.500000	0.500000	0.500000	0.000000 
		0.500000	0.500000	0.500000	0.000000 
		0.500000	0.500000	0.500000	0.000000 
		0.500000	0.500000	0.500000	0.000000 
		0.477084	0.475482	0.500000	0.000000 
		0.469880	0.533759	0.500000	0.000000 
		0.395734	0.519578	0.500000	0.000000 
		0.401558	0.472465	0.500000	0.000000 
		0.462753	0.491163	0.500000	0.000000 
		0.433673	0.487861	0.500000	0.000000 
		0.429254	0.523613	0.500000	0.000000 
		0.458334	0.526915	0.500000	0.000000 
		0.477084	0.475482	0.500000	0.000000 
		0.469880	0.533759	0.500000	0.000000 
		0.395734	0.519578	0.500000	0.000000 
		0.401558	0.472465	0.500000	0.000000 
		0.335708	0.500000	0.500000	0.003922 
		0.500000	0.500000	0.500000	0.000000 
		0.335708	0.500000	0.500000	0.000000 
		0.335708	0.500000	0.500000	0.003922 
		0.500000	0.500000	0.500000	0.003922 
		0.335708	0.500000	0.500000	0.000000 
		0.500000	0.500000	0.500000	0.000000 
		0.500000	0.500000	0.500000	0.000000 
		0.335708	0.500000	0.500000	0.000000 
		0.500000	0.500000	0.500000	0.000000 
		0.335708	0.500000	0.500000	0.003922 
		0.500000	0.500000	0.500000	0.003922 
		0.500000	0.500000	0.500000	0.003922 
		0.335708	0.500000	0.500000	0.003922 
		0.335708	0.500000	0.500000	0.003922 
		0.500000	0.500000	0.500000	0.003922 
		0.500000	0.500000	0.500000	0.000000 
		0.500000	0.500000	0.500000	0.000000 
		0.500000	0.500000	0.500000	0.000000 
		0.500000	0.500000	0.500000	0.000000 
		0.500000	0.500000	0.500000	0.000000 
		0.500000	0.500000	0.500000	0.000000 
		0.500000	0.500000	0.500000	0.000000 
		0.500000	0.500000	0.500000	0.000000 
		0.500000	0.455611	0.500000	0.003922 
		0.500000	0.500000	0.500000	0.003922 
		0.500000	0.354230	0.500000	0.003922 
		0.500000	0.455611	0.500000	0.003922 
		0.500000	0.500000	0.500000	0.000000 
		0.500000	0.455611	0.500000	0.003922 
		0.500000	0.455611	0.500000	0.003922 
		0.500000	0.500000	0.500000	0.000000 
		0.500000	0.354230	0.500000	0.003922 
		0.500000	0.455611	0.500000	0.003922 
		0.500000	0.500000	0.500000	0.003922 
		0.500000	0.500000	0.500000	0.003922 
		0.355065	0.320858	0.500000	0.003922 
		0.355065	0.320858	0.500000	0.003922 
		0.500000	0.500000	0.500000	0.003922 
		0.500000	0.500000	0.500000	0.003922 
		0.500000	0.500000	0.500000	0.000000 
		0.500000	0.500000	0.500000	0.000000 
		0.500000	0.500000	0.500000	0.000000 
		0.500000	0.500000	0.500000	0.000000 
		0.500000	0.500000	0.500000	0.000000 
		0.500000	0.500000	0.500000	0.000000 
		0.500000	0.500000	0.500000	0.000000 
		0.500000	0.500000	0.500000	0.000000 
		0.500000	0.500000	0.500000	0.000000 
		0.500000	0.500000	0.500000	0.003922 
		0.500000	0.500000	0.500000	0.000000 
		0.500000	0.500000	0.500000	0.000000 
		0.500000	0.500000	0.500000	0.003922 
		0.500000	0.500000	0.500000	0.003922 
		0.500000	0.500000	0.500000	0.003922 
		0.500000	0.357793	0.500000	0.003922 
		0.500000	0.178651	0.500000	0.003922 
		0.355065	0.320858	0.500000	0.003922 
		0.500000	0.354230	0.500000	0.003922 
		0.500000	0.354230	0.500000	0.003922 
		0.500000	0.354230	0.500000	0.003922 
		0.500000	0.500000	0.704960	0.000000 
		0.500000	0.500000	0.704960	0.000000 
		0.500000	0.500000	0.704960	0.000000 
		0.500000	0.500000	0.500000	0.000000 
		0.500000	0.500000	0.500000	0.000000 
		0.500000	0.500000	0.704960	0.000000 
		0.500000	0.500000	0.500000	0.000000 
		0.500000	0.500000	0.500000	0.000000 
		0.500000	0.500000	0.500000	0.000000 
		0.500000	0.500000	0.500000	0.000000 
		0.500000	0.500000	0.500000	0.000000 
		0.500000	0.500000	0.500000	0.000000 
		0.500000	0.500000	0.500000	0.000000 
		0.500000	0.500000	0.500000	0.000000 
		0.500000	0.500000	0.500000	0.000000 
		0.500000	0.500000	0.500000	0.000000 
		0.500000	0.500000	0.500000	0.000000 
		0.500000	0.500000	0.500000	0.000000 
		0.500000	0.500000	0.500000	0.000000 
		0.500000	0.500000	0.500000	0.000000 
		0.500000	0.500000	0.500000	0.000000 
		0.500000	0.500000	0.500000	0.000000 
		0.500000	0.500000	0.500000	0.000000 
		0.500000	0.500000	0.704960	0.000000 
		0.500000	0.500000	0.500000	0.000000 
		0.500000	0.500000	0.500000	0.000000 
		0.500000	0.500000	0.500000	0.000000 
		0.500000	0.500000	0.500000	0.000000 
		0.500000	0.500000	0.500000	0.000000 
		0.500000	0.500000	0.500000	0.000000 
		0.500000	0.500000	0.500000	0.000000 
		0.335708	0.500000	0.500000	0.003922 
		0.335708	0.500000	0.500000	0.003922 
		0.335708	0.500000	0.500000	0.000000 
		0.500000	0.500000	0.500000	0.000000 
		0.500000	0.500000	0.500000	0.000000 
		0.500000	0.500000	0.500000	0.000000 
		0.500000	0.500000	0.500000	0.000000 
		0.500000	0.500000	0.500000	0.000000 
		0.500000	0.500000	0.500000	0.000000 
		0.500000	0.500000	0.500000	0.000000 
		0.500000	0.500000	0.500000	0.000000 
		0.500000	0.500000	0.500000	0.000000 
		0.500000	0.500000	0.500000	0.000000 
		0.500000	0.500000	0.500000	0.000000 
		0.500000	0.500000	0.500000	0.003922 
		0.500000	0.500000	0.500000	0.000000 
		0.500000	0.500000	0.500000	0.003922 
		0.500000	0.500000	0.500000	0.003922 
		0.500000	0.500000	0.500000	0.000000 
		0.500000	0.500000	0.500000	0.000000 
		0.500000	0.500000	0.500000	0.000000 
		0.500000	0.500000	0.500000	0.000000 
		0.500000	0.354230	0.500000	0.003922 
		0.500000	0.500000	0.500000	0.000000 
		0.500000	0.320858	0.500000	0.003922 
		0.500000	0.500000	0.500000	0.000000 
		0.500000	0.500000	0.500000	0.000000 
		0.500000	0.500000	0.500000	0.000000 
		0.500000	0.500000	0.500000	0.000000 
		0.500000	0.500000	0.500000	0.000000 
		0.500000	0.500000	0.500000	0.000000 
		0.500000	0.500000	0.500000	0.000000 
		0.500000	0.500000	0.500000	0.000000 
		0.500000	0.500000	0.500000	0.000000 
		0.500000	0.500000	0.500000	0.000000 
		0.500000	0.500000	0.500000	0.000000 
		0.500000	0.500000	0.500000	0.000000 
		0.500000	0.500000	0.500000	0.000000 
		0.500000	0.500000	0.500000	0.000000 
		0.500000	0.500000	0.500000	0.000000 
		0.500000	0.500000	0.500000	0.000000 
		0.500000	0.500000	0.500000	0.000000 
		0.500000	0.500000	0.500000	0.000000 
		0.500000	0.500000	0.500000	0.000000 
		0.500000	0.500000	0.500000	0.000000 
		0.500000	0.500000	0.500000	0.000000 
		0.500000	0.500000	0.500000	0.000000 
		0.500000	0.354230	0.500000	0.003922 
		0.500000	0.354230	0.500000	0.003922 
		0.500000	0.178651	0.500000	0.003922 
		0.500000	0.319270	0.500000	0.003922 
		0.500000	0.500000	0.500000	0.003922 
		0.355065	0.320858	0.500000	0.003922 
		0.500000	0.500000	0.500000	0.000000 
		0.500000	0.500000	0.500000	0.003922 
		0.500000	0.500000	0.500000	0.003922 
		0.500000	0.500000	0.500000	0.000000 
		0.500000	0.354230	0.500000	0.003922 
		0.500000	0.354230	0.500000	0.003922 
		0.500000	0.500000	0.500000	0.000000 
		0.500000	0.354230	0.500000	0.003922 
		0.500000	0.500000	0.500000	0.000000 
		0.500000	0.500000	0.500000	0.000000 
		0.500000	0.500000	0.500000	0.000000 
		0.500000	0.588198	0.771797	0.000000 
		0.500000	0.500000	0.500000	0.000000 
		0.500000	0.500000	0.500000	0.000000 
		0.500000	0.576608	0.392294	0.000000 
		0.500000	0.500000	0.500000	0.000000 
		0.500000	0.500000	0.500000	0.000000 
		0.500000	0.588198	0.771797	0.000000 
		0.500000	0.500000	0.500000	0.000000 
		0.629467	0.500000	0.500000	0.000000 
		0.583414	0.500000	0.500000	0.000000 
		0.500000	0.500000	0.500000	0.000000 
		0.500000	0.500000	0.500000	0.000000 
		0.500000	0.603500	0.414361	0.000000 
		0.500000	0.603500	0.414361	0.000000 
		0.500000	0.500000	0.500000	0.000000 
		0.603982	0.545848	0.631325	0.000000 
		0.500000	0.500000	0.500000	0.000000 
		0.500000	0.500000	0.500000	0.000000 
		0.500000	0.500000	0.500000	0.000000 
		0.605672	0.500000	0.500000	0.000000 
		0.500000	0.500000	0.500000	0.000000 
		0.500000	0.588198	0.771797	0.000000 
		0.500000	0.500000	0.500000	0.000000 
		0.500000	0.500000	0.500000	0.000000 
		0.500000	0.500000	0.500000	0.000000 
		0.500000	0.500000	0.500000	0.000000 
		0.500000	0.500000	0.500000	0.000000 
		0.500000	0.500000	0.500000	0.000000 
		0.335708	0.500000	0.500000	0.000000 
		0.500000	0.500000	0.500000	0.000000 
		0.500000	0.500000	0.500000	0.000000 
		0.500000	0.500000	0.500000	0.000000 
		0.500000	0.500000	0.500000	0.000000 
		0.500000	0.500000	0.500000	0.000000 
		0.500000	0.500000	0.704960	0.000000 
		0.500000	0.500000	0.500000	0.000000 
		0.500000	0.500000	0.500000	0.000000 
		0.500000	0.500000	0.500000	0.000000 
		0.500000	0.500000	0.500000	0.000000 
		0.500000	0.500000	0.500000	0.000000 
	}

	Tex0 242 { 
		0.375000	0.823242 
		0.358398	0.823242 
		0.359375	0.714844 
		0.375000	0.714844 
		0.357422	0.955078 
		0.375000	0.955078 
		0.357422	0.985352 
		0.375000	0.985352 
		0.725586	0.253906 
		0.684570	0.253906 
		0.684570	0.234375 
		0.725586	0.234375 
		0.362305	0.253906 
		0.362305	0.234375 
		0.506836	0.234375 
		0.506836	0.253906 
		0.201172	0.751953 
		0.201172	0.576172 
		0.357422	0.576172 
		0.357422	0.752930 
		0.925781	0.944336 
		0.906250	0.800781 
		0.962891	0.798828 
		0.963867	0.959961 
		0.892578	0.956055 
		0.502930	0.956055 
		0.502930	0.800781 
		0.502930	0.607422 
		0.780273	0.635742 
		0.780273	0.662109 
		0.906250	0.607422 
		0.847656	0.635742 
		0.847656	0.662109 
		0.354492	0.791992 
		0.208008	0.791992 
		0.253906	0.753906 
		0.364258	0.782227 
		0.253906	0.596680 
		0.364258	0.596680 
		0.035156	0.060547 
		0.125977	0.069336 
		0.026367	0.166992 
		0.118164	0.034180 
		0.035156	0.034180 
		0.147461	0.098633 
		0.183594	0.110352 
		0.183594	0.166992 
		0.038086	0.256836 
		0.183594	0.259766 
		0.183594	0.266602 
		0.040039	0.263672 
		0.940430	0.971680 
		0.502930	0.971680 
		0.645508	0.857422 
		0.962891	0.607422 
		0.015625	0.335938 
		0.023438	0.335938 
		0.041016	0.326172 
		0.041016	0.315430 
		0.042969	0.315430 
		0.065430	0.324219 
		0.057617	0.312500 
		0.059570	0.312500 
		0.065430	0.312500 
		0.816406	0.633789 
		0.050781	0.443359 
		0.020508	0.443359 
		0.020508	0.468750 
		0.050781	0.468750 
		0.061523	0.433594 
		0.010742	0.433594 
		0.015625	0.498047 
		0.055664	0.498047 
		0.042969	0.576172 
		0.042969	0.751953 
		0.217773	0.098633 
		0.266602	0.166992 
		0.266602	0.259766 
		0.251953	0.751953 
		0.251953	0.576172 
		0.266602	0.035156 
		0.354492	0.035156 
		0.354492	0.041016 
		0.354492	0.166992 
		0.266602	0.266602 
		0.354492	0.259766 
		0.354492	0.266602 
		0.008789	0.791992 
		0.008789	0.753906 
		0.792969	0.420898 
		0.792969	0.440430 
		0.720703	0.440430 
		0.720703	0.420898 
		0.792969	0.294922 
		0.581055	0.294922 
		0.233398	0.402344 
		0.236328	0.316406 
		0.573242	0.322266 
		0.570313	0.408203 
		0.587891	0.486328 
		0.647461	0.473633 
		0.647461	0.486328 
		0.236328	0.303711 
		0.573242	0.301758 
		0.344727	0.955078 
		0.346680	0.823242 
		0.344727	0.985352 
		0.362305	0.039063 
		0.362305	0.032227 
		0.442383	0.032227 
		0.452148	0.072266 
		0.377930	0.550781 
		0.377930	0.565430 
		0.495117	0.550781 
		0.495117	0.950195 
		0.472656	0.630859 
		0.472656	0.654297 
		0.405273	0.630859 
		0.377930	0.989258 
		0.405273	0.654297 
		0.427734	0.989258 
		0.427734	0.950195 
		0.248047	0.611328 
		0.338867	0.611328 
		0.336914	0.745117 
		0.248047	0.745117 
		0.250000	0.785156 
		0.250000	0.797852 
		0.360352	0.797852 
		0.351563	0.791016 
		0.994141	0.601563 
		0.994141	0.551758 
		0.505859	0.551758 
		0.505859	0.601563 
		0.708984	0.770508 
		0.709961	0.743164 
		0.780273	0.743164 
		0.780273	0.770508 
		0.027344	0.060547 
		0.074219	0.500977 
		0.355469	0.500977 
		0.355469	0.540039 
		0.034180	0.540039 
		0.034180	0.488281 
		0.478516	0.503906 
		0.478516	0.540039 
		0.465820	0.540039 
		0.465820	0.503906 
		0.013672	0.477539 
		0.034180	0.477539 
		0.240234	0.077148 
		0.251953	0.035156 
		0.998047	0.501953 
		0.998047	0.538086 
		0.778320	0.538086 
		0.778320	0.501953 
		0.998047	0.520508 
		0.777344	0.520508 
		0.777344	0.503906 
		0.998047	0.503906 
		0.343750	0.565430 
		0.004883	0.565430 
		0.004883	1.000000 
		0.343750	0.988281 
		0.351563	0.768555 
		0.425781	0.768555 
		0.425781	1.000000 
		0.351563	1.000000 
		0.004883	0.550781 
		0.470703	0.092773 
		0.506836	0.106445 
		0.348633	0.714844 
		0.248047	0.792969 
		0.336914	0.792969 
		0.334961	0.956055 
		0.248047	0.956055 
		0.725586	0.032227 
		0.537109	0.093750 
		0.367188	0.791016 
		0.367188	0.809570 
		0.360352	0.813477 
		0.360352	0.998047 
		0.387695	0.998047 
		0.387695	0.809570 
		0.568359	0.032227 
		0.555664	0.076172 
		0.587891	0.444336 
		0.647461	0.444336 
		0.581055	0.473633 
		0.720703	0.474609 
		0.959961	0.062500 
		0.968750	0.168945 
		0.869141	0.072266 
		0.876953	0.036133 
		0.959961	0.036133 
		0.846680	0.100586 
		0.811523	0.168945 
		0.811523	0.112305 
		0.957031	0.258789 
		0.955078	0.265625 
		0.811523	0.268555 
		0.811523	0.261719 
		0.776367	0.101563 
		0.728516	0.168945 
		0.728516	0.261719 
		0.077148	0.444336 
		0.215820	0.299805 
		0.003906	0.299805 
		0.003906	0.444336 
		0.221680	-0.256836 
		0.001953	-0.256836 
		0.001953	-0.200195 
		0.221680	-0.200195 
		0.072266	0.452148 
		0.072266	0.507813 
		0.005859	0.507813 
		0.005859	0.452148 
		0.215820	0.493164 
		0.077148	0.493164 
		0.967773	0.062500 
		0.728516	0.268555 
		0.728516	0.037109 
		0.743164	0.037109 
		0.754883	0.079102 
		0.000000	0.505859 
		0.302734	0.291016 
		0.138672	0.291016 
		1.000000	0.505859 
		0.680664	0.291016 
		0.590820	0.075195 
		0.407227	0.075195 
		0.308594	0.075195 
		0.823242	0.075195 
		0.823242	0.291016 
		1.000000	0.205078 
		1.000000	0.075195 
		0.291992	0.075195 
		0.000000	0.047852 
		0.049805	0.075195 
		0.049805	0.047852 
		0.142578	0.075195 
		0.680664	0.075195 
	}

	Tex1 0 
	Adj 521 { 
		P 0 
		N 0 
		C0 0 
		T0 0 
		P 1 
		N 0 
		C0 1 
		T0 1 
		P 2 
		N 0 
		C0 2 
		T0 2 
		P 3 
		N 0 
		C0 3 
		T0 3 
		P 4 
		N 0 
		C0 4 
		T0 4 
		P 5 
		N 0 
		C0 5 
		T0 5 
		P 6 
		N 0 
		C0 6 
		T0 6 
		P 7 
		N 0 
		C0 7 
		T0 7 
		P 8 
		N 1 
		C0 8 
		T0 8 
		P 9 
		N 1 
		C0 9 
		T0 9 
		P 4 
		N 1 
		C0 10 
		T0 10 
		P 6 
		N 1 
		C0 11 
		T0 11 
		P 10 
		N 2 
		C0 12 
		T0 12 
		P 2 
		N 2 
		C0 13 
		T0 13 
		P 1 
		N 2 
		C0 14 
		T0 14 
		P 11 
		N 2 
		C0 15 
		T0 15 
		P 4 
		N 2 
		C0 16 
		T0 10 
		P 9 
		N 2 
		C0 17 
		T0 9 
		P 12 
		N 3 
		C0 18 
		T0 16 
		P 13 
		N 4 
		C0 19 
		T0 17 
		P 14 
		N 5 
		C0 20 
		T0 18 
		P 15 
		N 6 
		C0 21 
		T0 19 
		P 16 
		N 7 
		C0 22 
		T0 20 
		P 17 
		N 8 
		C0 23 
		T0 21 
		P 18 
		N 9 
		C0 24 
		T0 22 
		P 19 
		N 10 
		C0 25 
		T0 23 
		P 20 
		N 11 
		C0 26 
		T0 24 
		P 21 
		N 12 
		C0 27 
		T0 25 
		P 22 
		N 13 
		C0 28 
		T0 26 
		P 23 
		N 14 
		C0 29 
		T0 27 
		P 24 
		N 14 
		C0 30 
		T0 28 
		P 25 
		N 14 
		C0 31 
		T0 29 
		P 26 
		N 15 
		C0 32 
		T0 30 
		P 27 
		N 14 
		C0 33 
		T0 31 
		P 28 
		N 14 
		C0 34 
		T0 32 
		P 29 
		N 16 
		C0 35 
		T0 33 
		P 30 
		N 16 
		C0 36 
		T0 34 
		P 31 
		N 16 
		C0 37 
		T0 35 
		P 32 
		N 16 
		C0 38 
		T0 36 
		P 33 
		N 16 
		C0 39 
		T0 37 
		P 34 
		N 16 
		C0 40 
		T0 38 
		P 35 
		N 17 
		C0 41 
		T0 39 
		P 36 
		N 1 
		C0 42 
		T0 40 
		P 18 
		N 9 
		C0 43 
		T0 41 
		P 37 
		N 1 
		C0 44 
		T0 42 
		P 38 
		N 18 
		C0 45 
		T0 43 
		P 39 
		N 1 
		C0 46 
		T0 44 
		P 40 
		N 1 
		C0 47 
		T0 45 
		P 41 
		N 1 
		C0 48 
		T0 46 
		P 19 
		N 10 
		C0 49 
		T0 47 
		P 42 
		N 19 
		C0 50 
		T0 48 
		P 12 
		N 3 
		C0 51 
		T0 49 
		P 15 
		N 6 
		C0 52 
		T0 50 
		P 15 
		N 6 
		C0 53 
		T0 51 
		P 14 
		N 5 
		C0 54 
		T0 52 
		P 43 
		N 1 
		C0 55 
		T0 53 
		P 44 
		N 1 
		C0 56 
		T0 53 
		P 45 
		N 1 
		C0 57 
		T0 53 
		P 46 
		N 1 
		C0 58 
		T0 53 
		P 47 
		N 20 
		C0 59 
		T0 54 
		P 48 
		N 21 
		C0 60 
		T0 55 
		P 49 
		N 22 
		C0 61 
		T0 56 
		P 50 
		N 23 
		C0 62 
		T0 57 
		P 51 
		N 24 
		C0 63 
		T0 58 
		P 52 
		N 25 
		C0 64 
		T0 55 
		P 53 
		N 26 
		C0 65 
		T0 59 
		P 54 
		N 27 
		C0 66 
		T0 60 
		P 55 
		N 28 
		C0 67 
		T0 61 
		P 56 
		N 29 
		C0 68 
		T0 62 
		P 57 
		N 30 
		C0 69 
		T0 63 
		P 58 
		N 31 
		C0 70 
		T0 64 
		P 59 
		N 31 
		C0 71 
		T0 64 
		P 60 
		N 31 
		C0 72 
		T0 64 
		P 61 
		N 31 
		C0 73 
		T0 64 
		P 62 
		N 32 
		C0 74 
		T0 65 
		P 63 
		N 33 
		C0 75 
		T0 66 
		P 64 
		N 34 
		C0 76 
		T0 67 
		P 65 
		N 35 
		C0 77 
		T0 68 
		P 58 
		N 36 
		C0 78 
		T0 69 
		P 61 
		N 37 
		C0 79 
		T0 70 
		P 60 
		N 38 
		C0 80 
		T0 71 
		P 59 
		N 39 
		C0 81 
		T0 72 
		P 66 
		N 0 
		C0 82 
		T0 73 
		P 67 
		N 0 
		C0 83 
		T0 74 
		P 68 
		N 1 
		C0 84 
		T0 75 
		P 69 
		N 1 
		C0 85 
		T0 76 
		P 70 
		N 1 
		C0 86 
		T0 77 
		P 32 
		N 0 
		C0 87 
		T0 78 
		P 34 
		N 0 
		C0 88 
		T0 79 
		P 71 
		N 1 
		C0 89 
		T0 80 
		P 72 
		N 1 
		C0 90 
		T0 81 
		P 73 
		N 1 
		C0 91 
		T0 82 
		P 30 
		N 1 
		C0 92 
		T0 83 
		P 67 
		N 40 
		C0 93 
		T0 84 
		P 70 
		N 40 
		C0 94 
		T0 77 
		P 29 
		N 40 
		C0 95 
		T0 85 
		P 32 
		N 40 
		C0 96 
		T0 86 
		P 29 
		N 1 
		C0 97 
		T0 85 
		P 73 
		N 16 
		C0 98 
		T0 87 
		P 74 
		N 16 
		C0 99 
		T0 88 
		P 33 
		N 0 
		C0 100 
		T0 89 
		P 31 
		N 41 
		C0 101 
		T0 90 
		P 75 
		N 42 
		C0 102 
		T0 91 
		P 76 
		N 0 
		C0 103 
		T0 92 
		P 74 
		N 1 
		C0 104 
		T0 93 
		P 77 
		N 1 
		C0 105 
		T0 94 
		P 78 
		N 0 
		C0 106 
		T0 95 
		P 79 
		N 41 
		C0 107 
		T0 96 
		P 80 
		N 41 
		C0 108 
		T0 97 
		P 81 
		N 0 
		C0 109 
		T0 98 
		P 78 
		N 14 
		C0 110 
		T0 99 
		P 82 
		N 14 
		C0 111 
		T0 100 
		P 79 
		N 14 
		C0 112 
		T0 101 
		P 82 
		N 1 
		C0 113 
		T0 102 
		P 83 
		N 1 
		C0 114 
		T0 103 
		P 84 
		N 0 
		C0 115 
		T0 104 
		P 85 
		N 0 
		C0 116 
		T0 105 
		P 11 
		N 0 
		C0 117 
		T0 1 
		P 9 
		N 0 
		C0 118 
		T0 4 
		P 8 
		N 0 
		C0 119 
		T0 6 
		P 86 
		N 0 
		C0 120 
		T0 106 
		P 87 
		N 1 
		C0 121 
		T0 107 
		P 88 
		N 1 
		C0 122 
		T0 108 
		P 89 
		N 1 
		C0 123 
		T0 109 
		P 90 
		N 1 
		C0 124 
		T0 110 
		P 91 
		N 16 
		C0 125 
		T0 111 
		P 92 
		N 16 
		C0 126 
		T0 112 
		P 93 
		N 16 
		C0 127 
		T0 113 
		P 7 
		N 16 
		C0 128 
		T0 114 
		P 94 
		N 16 
		C0 129 
		T0 115 
		P 95 
		N 16 
		C0 130 
		T0 116 
		P 96 
		N 16 
		C0 131 
		T0 117 
		P 86 
		N 16 
		C0 132 
		T0 118 
		P 97 
		N 16 
		C0 133 
		T0 119 
		P 8 
		N 16 
		C0 134 
		T0 120 
		P 6 
		N 16 
		C0 135 
		T0 121 
		P 98 
		N 43 
		C0 136 
		T0 122 
		P 99 
		N 43 
		C0 137 
		T0 123 
		P 85 
		N 43 
		C0 138 
		T0 124 
		P 100 
		N 43 
		C0 139 
		T0 125 
		P 98 
		N 14 
		C0 140 
		T0 126 
		P 81 
		N 14 
		C0 141 
		T0 127 
		P 80 
		N 14 
		C0 142 
		T0 128 
		P 99 
		N 14 
		C0 143 
		T0 129 
		P 101 
		N 14 
		C0 144 
		T0 130 
		P 102 
		N 14 
		C0 145 
		T0 131 
		P 103 
		N 14 
		C0 146 
		T0 132 
		P 104 
		N 14 
		C0 147 
		T0 133 
		P 104 
		N 44 
		C0 148 
		T0 134 
		P 103 
		N 1 
		C0 149 
		T0 135 
		P 105 
		N 18 
		C0 150 
		T0 136 
		P 106 
		N 45 
		C0 151 
		T0 137 
		P 47 
		N 20 
		C0 152 
		T0 138 
		P 43 
		N 46 
		C0 153 
		T0 53 
		P 36 
		N 46 
		C0 154 
		T0 53 
		P 37 
		N 47 
		C0 155 
		T0 53 
		P 44 
		N 47 
		C0 156 
		T0 53 
		P 39 
		N 48 
		C0 157 
		T0 53 
		P 40 
		N 49 
		C0 158 
		T0 53 
		P 39 
		N 49 
		C0 159 
		T0 53 
		P 43 
		N 49 
		C0 160 
		T0 53 
		P 46 
		N 49 
		C0 161 
		T0 53 
		P 46 
		N 50 
		C0 162 
		T0 53 
		P 68 
		N 50 
		C0 163 
		T0 53 
		P 40 
		N 51 
		C0 164 
		T0 53 
		P 45 
		N 52 
		C0 165 
		T0 53 
		P 107 
		N 52 
		C0 166 
		T0 53 
		P 108 
		N 53 
		C0 167 
		T0 53 
		P 26 
		N 0 
		C0 168 
		T0 139 
		P 23 
		N 0 
		C0 169 
		T0 140 
		P 101 
		N 0 
		C0 170 
		T0 141 
		P 104 
		N 44 
		C0 171 
		T0 142 
		P 47 
		N 20 
		C0 172 
		T0 143 
		P 38 
		N 18 
		C0 173 
		T0 144 
		P 35 
		N 17 
		C0 174 
		T0 145 
		P 106 
		N 45 
		C0 175 
		T0 146 
		P 105 
		N 18 
		C0 176 
		T0 147 
		P 106 
		N 45 
		C0 177 
		T0 148 
		P 35 
		N 17 
		C0 178 
		T0 149 
		P 107 
		N 1 
		C0 179 
		T0 150 
		P 108 
		N 1 
		C0 180 
		T0 151 
		P 87 
		N 0 
		C0 181 
		T0 152 
		P 77 
		N 0 
		C0 182 
		T0 153 
		P 74 
		N 0 
		C0 183 
		T0 154 
		P 73 
		N 0 
		C0 184 
		T0 155 
		P 87 
		N 1 
		C0 185 
		T0 156 
		P 73 
		N 1 
		C0 186 
		T0 157 
		P 72 
		N 1 
		C0 187 
		T0 158 
		P 88 
		N 1 
		C0 188 
		T0 159 
		P 109 
		N 16 
		C0 189 
		T0 160 
		P 110 
		N 16 
		C0 190 
		T0 161 
		P 111 
		N 16 
		C0 191 
		T0 162 
		P 84 
		N 16 
		C0 192 
		T0 163 
		P 92 
		N 54 
		C0 193 
		T0 164 
		P 109 
		N 54 
		C0 194 
		T0 165 
		P 84 
		N 54 
		C0 195 
		T0 166 
		P 86 
		N 54 
		C0 196 
		T0 167 
		P 92 
		N 55 
		C0 197 
		T0 112 
		P 112 
		N 16 
		C0 198 
		T0 168 
		P 113 
		N 55 
		C0 199 
		T0 161 
		P 109 
		N 0 
		C0 200 
		T0 164 
		P 92 
		N 55 
		C0 201 
		T0 165 
		P 113 
		N 55 
		C0 202 
		T0 166 
		P 110 
		N 0 
		C0 203 
		T0 167 
		P 3 
		N 1 
		C0 204 
		T0 13 
		P 114 
		N 1 
		C0 205 
		T0 169 
		P 0 
		N 1 
		C0 206 
		T0 14 
		P 115 
		N 1 
		C0 207 
		T0 170 
		P 116 
		N 1 
		C0 208 
		T0 53 
		P 117 
		N 1 
		C0 209 
		T0 53 
		P 118 
		N 1 
		C0 210 
		T0 53 
		P 119 
		N 1 
		C0 211 
		T0 53 
		P 114 
		N 56 
		C0 212 
		T0 53 
		P 118 
		N 57 
		C0 213 
		T0 53 
		P 115 
		N 58 
		C0 214 
		T0 53 
		P 117 
		N 59 
		C0 215 
		T0 53 
		P 120 
		N 60 
		C0 216 
		T0 53 
		P 121 
		N 61 
		C0 217 
		T0 53 
		P 122 
		N 61 
		C0 218 
		T0 53 
		P 117 
		N 61 
		C0 219 
		T0 53 
		P 116 
		N 61 
		C0 220 
		T0 53 
		P 122 
		N 62 
		C0 221 
		T0 53 
		P 120 
		N 62 
		C0 222 
		T0 53 
		P 117 
		N 62 
		C0 223 
		T0 53 
		P 114 
		N 63 
		C0 224 
		T0 53 
		P 90 
		N 64 
		C0 225 
		T0 53 
		P 118 
		N 64 
		C0 226 
		T0 53 
		P 89 
		N 65 
		C0 227 
		T0 53 
		P 119 
		N 65 
		C0 228 
		T0 53 
		P 99 
		N 0 
		C0 229 
		T0 171 
		P 10 
		N 0 
		C0 230 
		T0 2 
		P 100 
		N 43 
		C0 231 
		T0 172 
		P 85 
		N 43 
		C0 232 
		T0 173 
		P 84 
		N 43 
		C0 233 
		T0 174 
		P 111 
		N 43 
		C0 234 
		T0 175 
		P 93 
		N 1 
		C0 235 
		T0 176 
		P 7 
		N 1 
		C0 236 
		T0 11 
		P 5 
		N 1 
		C0 237 
		T0 10 
		P 120 
		N 1 
		C0 238 
		T0 177 
		P 10 
		N 14 
		C0 239 
		T0 178 
		P 2 
		N 14 
		C0 240 
		T0 179 
		P 83 
		N 14 
		C0 241 
		T0 180 
		P 77 
		N 14 
		C0 242 
		T0 181 
		P 87 
		N 14 
		C0 243 
		T0 182 
		P 3 
		N 14 
		C0 244 
		T0 183 
		P 121 
		N 1 
		C0 245 
		T0 184 
		P 122 
		N 1 
		C0 246 
		T0 185 
		P 76 
		N 14 
		C0 247 
		T0 186 
		P 75 
		N 14 
		C0 248 
		T0 187 
		P 83 
		N 1 
		C0 249 
		T0 188 
		P 82 
		N 1 
		C0 250 
		T0 189 
		P 123 
		N 0 
		C0 251 
		T0 0 
		P 124 
		N 0 
		C0 252 
		T0 3 
		P 125 
		N 0 
		C0 253 
		T0 2 
		P 126 
		N 0 
		C0 254 
		T0 1 
		P 127 
		N 0 
		C0 255 
		T0 4 
		P 128 
		N 0 
		C0 256 
		T0 5 
		P 129 
		N 0 
		C0 257 
		T0 6 
		P 130 
		N 0 
		C0 258 
		T0 7 
		P 131 
		N 54 
		C0 259 
		T0 8 
		P 129 
		N 54 
		C0 260 
		T0 11 
		P 127 
		N 54 
		C0 261 
		T0 10 
		P 132 
		N 54 
		C0 262 
		T0 9 
		P 133 
		N 66 
		C0 263 
		T0 12 
		P 134 
		N 66 
		C0 264 
		T0 15 
		P 126 
		N 66 
		C0 265 
		T0 14 
		P 125 
		N 66 
		C0 266 
		T0 13 
		P 132 
		N 66 
		C0 267 
		T0 9 
		P 127 
		N 66 
		C0 268 
		T0 10 
		P 135 
		N 67 
		C0 269 
		T0 16 
		P 136 
		N 68 
		C0 270 
		T0 19 
		P 137 
		N 69 
		C0 271 
		T0 20 
		P 138 
		N 70 
		C0 272 
		T0 23 
		P 139 
		N 71 
		C0 273 
		T0 22 
		P 140 
		N 72 
		C0 274 
		T0 21 
		P 141 
		N 73 
		C0 275 
		T0 24 
		P 142 
		N 14 
		C0 276 
		T0 29 
		P 143 
		N 14 
		C0 277 
		T0 28 
		P 144 
		N 74 
		C0 278 
		T0 30 
		P 145 
		N 14 
		C0 279 
		T0 31 
		P 146 
		N 14 
		C0 280 
		T0 32 
		P 147 
		N 16 
		C0 281 
		T0 33 
		P 148 
		N 16 
		C0 282 
		T0 36 
		P 149 
		N 16 
		C0 283 
		T0 35 
		P 150 
		N 16 
		C0 284 
		T0 34 
		P 151 
		N 75 
		C0 285 
		T0 190 
		P 139 
		N 71 
		C0 286 
		T0 191 
		P 152 
		N 54 
		C0 287 
		T0 192 
		P 153 
		N 54 
		C0 288 
		T0 193 
		P 154 
		N 76 
		C0 289 
		T0 194 
		P 155 
		N 54 
		C0 290 
		T0 195 
		P 156 
		N 54 
		C0 291 
		T0 196 
		P 157 
		N 54 
		C0 292 
		T0 197 
		P 138 
		N 70 
		C0 293 
		T0 198 
		P 136 
		N 68 
		C0 294 
		T0 199 
		P 135 
		N 67 
		C0 295 
		T0 200 
		P 158 
		N 77 
		C0 296 
		T0 201 
		P 136 
		N 68 
		C0 297 
		T0 51 
		P 159 
		N 54 
		C0 298 
		T0 53 
		P 160 
		N 54 
		C0 299 
		T0 53 
		P 161 
		N 54 
		C0 300 
		T0 53 
		P 162 
		N 54 
		C0 301 
		T0 53 
		P 163 
		N 78 
		C0 302 
		T0 54 
		P 164 
		N 79 
		C0 303 
		T0 55 
		P 165 
		N 80 
		C0 304 
		T0 58 
		P 166 
		N 81 
		C0 305 
		T0 57 
		P 167 
		N 82 
		C0 306 
		T0 56 
		P 168 
		N 83 
		C0 307 
		T0 59 
		P 169 
		N 84 
		C0 308 
		T0 55 
		P 170 
		N 85 
		C0 309 
		T0 61 
		P 171 
		N 86 
		C0 310 
		T0 60 
		P 172 
		N 87 
		C0 311 
		T0 62 
		P 173 
		N 88 
		C0 312 
		T0 63 
		P 174 
		N 89 
		C0 313 
		T0 64 
		P 175 
		N 89 
		C0 314 
		T0 64 
		P 176 
		N 89 
		C0 315 
		T0 64 
		P 177 
		N 89 
		C0 316 
		T0 64 
		P 178 
		N 90 
		C0 317 
		T0 65 
		P 179 
		N 91 
		C0 318 
		T0 68 
		P 180 
		N 92 
		C0 319 
		T0 67 
		P 181 
		N 93 
		C0 320 
		T0 66 
		P 174 
		N 94 
		C0 321 
		T0 69 
		P 175 
		N 95 
		C0 322 
		T0 70 
		P 176 
		N 96 
		C0 323 
		T0 71 
		P 177 
		N 97 
		C0 324 
		T0 72 
		P 182 
		N 0 
		C0 325 
		T0 74 
		P 183 
		N 54 
		C0 326 
		T0 202 
		P 184 
		N 54 
		C0 327 
		T0 203 
		P 185 
		N 54 
		C0 328 
		T0 204 
		P 148 
		N 0 
		C0 329 
		T0 78 
		P 186 
		N 54 
		C0 330 
		T0 80 
		P 187 
		N 54 
		C0 331 
		T0 82 
		P 188 
		N 54 
		C0 332 
		T0 81 
		P 184 
		N 54 
		C0 333 
		T0 76 
		P 150 
		N 54 
		C0 334 
		T0 83 
		P 182 
		N 98 
		C0 335 
		T0 84 
		P 148 
		N 98 
		C0 336 
		T0 86 
		P 147 
		N 98 
		C0 337 
		T0 85 
		P 185 
		N 98 
		C0 338 
		T0 77 
		P 185 
		N 54 
		C0 339 
		T0 77 
		P 147 
		N 54 
		C0 340 
		T0 85 
		P 189 
		N 16 
		C0 341 
		T0 88 
		P 187 
		N 16 
		C0 342 
		T0 87 
		P 190 
		N 99 
		C0 343 
		T0 91 
		P 149 
		N 100 
		C0 344 
		T0 90 
		P 190 
		N 99 
		C0 345 
		T0 205 
		P 191 
		N 54 
		C0 346 
		T0 206 
		P 189 
		N 54 
		C0 347 
		T0 207 
		P 149 
		N 100 
		C0 348 
		T0 208 
		P 78 
		N 0 
		C0 349 
		T0 209 
		P 81 
		N 0 
		C0 350 
		T0 210 
		P 192 
		N 0 
		C0 351 
		T0 211 
		P 193 
		N 0 
		C0 352 
		T0 212 
		P 76 
		N 14 
		C0 353 
		T0 213 
		P 78 
		N 14 
		C0 354 
		T0 214 
		P 193 
		N 14 
		C0 355 
		T0 215 
		P 190 
		N 14 
		C0 356 
		T0 216 
		P 192 
		N 54 
		C0 357 
		T0 217 
		P 193 
		N 54 
		C0 358 
		T0 218 
		P 194 
		N 0 
		C0 359 
		T0 104 
		P 132 
		N 0 
		C0 360 
		T0 4 
		P 134 
		N 0 
		C0 361 
		T0 1 
		P 195 
		N 0 
		C0 362 
		T0 105 
		P 196 
		N 0 
		C0 363 
		T0 106 
		P 131 
		N 0 
		C0 364 
		T0 6 
		P 197 
		N 54 
		C0 365 
		T0 107 
		P 198 
		N 54 
		C0 366 
		T0 110 
		P 199 
		N 54 
		C0 367 
		T0 109 
		P 200 
		N 54 
		C0 368 
		T0 108 
		P 201 
		N 16 
		C0 369 
		T0 111 
		P 202 
		N 16 
		C0 370 
		T0 113 
		P 203 
		N 16 
		C0 371 
		T0 112 
		P 204 
		N 16 
		C0 372 
		T0 115 
		P 205 
		N 16 
		C0 373 
		T0 117 
		P 130 
		N 16 
		C0 374 
		T0 114 
		P 206 
		N 16 
		C0 375 
		T0 116 
		P 207 
		N 16 
		C0 376 
		T0 119 
		P 196 
		N 16 
		C0 377 
		T0 118 
		P 129 
		N 16 
		C0 378 
		T0 121 
		P 131 
		N 16 
		C0 379 
		T0 120 
		P 98 
		N 101 
		C0 380 
		T0 122 
		P 100 
		N 101 
		C0 381 
		T0 125 
		P 195 
		N 101 
		C0 382 
		T0 124 
		P 208 
		N 101 
		C0 383 
		T0 123 
		P 208 
		N 14 
		C0 384 
		T0 129 
		P 192 
		N 14 
		C0 385 
		T0 128 
		P 209 
		N 14 
		C0 386 
		T0 133 
		P 210 
		N 14 
		C0 387 
		T0 132 
		P 209 
		N 102 
		C0 388 
		T0 134 
		P 211 
		N 103 
		C0 389 
		T0 137 
		P 212 
		N 76 
		C0 390 
		T0 136 
		P 210 
		N 54 
		C0 391 
		T0 135 
		P 163 
		N 78 
		C0 392 
		T0 219 
		P 159 
		N 104 
		C0 393 
		T0 53 
		P 162 
		N 105 
		C0 394 
		T0 53 
		P 153 
		N 105 
		C0 395 
		T0 53 
		P 152 
		N 104 
		C0 396 
		T0 53 
		P 155 
		N 106 
		C0 397 
		T0 53 
		P 157 
		N 107 
		C0 398 
		T0 53 
		P 160 
		N 107 
		C0 399 
		T0 53 
		P 159 
		N 107 
		C0 400 
		T0 53 
		P 155 
		N 107 
		C0 401 
		T0 53 
		P 160 
		N 108 
		C0 402 
		T0 53 
		P 157 
		N 109 
		C0 403 
		T0 53 
		P 183 
		N 108 
		C0 404 
		T0 53 
		P 161 
		N 110 
		C0 405 
		T0 53 
		P 213 
		N 110 
		C0 406 
		T0 53 
		P 214 
		N 111 
		C0 407 
		T0 53 
		P 144 
		N 0 
		C0 408 
		T0 139 
		P 209 
		N 102 
		C0 409 
		T0 142 
		P 163 
		N 78 
		C0 410 
		T0 143 
		P 154 
		N 76 
		C0 411 
		T0 144 
		P 212 
		N 76 
		C0 412 
		T0 147 
		P 211 
		N 103 
		C0 413 
		T0 146 
		P 151 
		N 75 
		C0 414 
		T0 145 
		P 151 
		N 75 
		C0 415 
		T0 149 
		P 211 
		N 103 
		C0 416 
		T0 148 
		P 182 
		N 98 
		C0 417 
		T0 220 
		P 185 
		N 98 
		C0 418 
		T0 204 
		P 186 
		N 54 
		C0 419 
		T0 221 
		P 214 
		N 54 
		C0 420 
		T0 222 
		P 213 
		N 54 
		C0 421 
		T0 223 
		P 197 
		N 0 
		C0 422 
		T0 152 
		P 187 
		N 0 
		C0 423 
		T0 155 
		P 189 
		N 0 
		C0 424 
		T0 154 
		P 191 
		N 0 
		C0 425 
		T0 153 
		P 197 
		N 54 
		C0 426 
		T0 156 
		P 200 
		N 54 
		C0 427 
		T0 159 
		P 188 
		N 54 
		C0 428 
		T0 158 
		P 187 
		N 54 
		C0 429 
		T0 157 
		P 215 
		N 16 
		C0 430 
		T0 160 
		P 194 
		N 16 
		C0 431 
		T0 163 
		P 203 
		N 1 
		C0 432 
		T0 164 
		P 196 
		N 1 
		C0 433 
		T0 167 
		P 194 
		N 1 
		C0 434 
		T0 166 
		P 215 
		N 1 
		C0 435 
		T0 165 
		P 203 
		N 55 
		C0 436 
		T0 112 
		P 215 
		N 0 
		C0 437 
		T0 164 
		P 203 
		N 55 
		C0 438 
		T0 165 
		P 124 
		N 54 
		C0 439 
		T0 13 
		P 216 
		N 54 
		C0 440 
		T0 169 
		P 123 
		N 54 
		C0 441 
		T0 14 
		P 217 
		N 54 
		C0 442 
		T0 170 
		P 218 
		N 54 
		C0 443 
		T0 53 
		P 219 
		N 54 
		C0 444 
		T0 53 
		P 220 
		N 54 
		C0 445 
		T0 53 
		P 221 
		N 54 
		C0 446 
		T0 53 
		P 216 
		N 112 
		C0 447 
		T0 53 
		P 217 
		N 113 
		C0 448 
		T0 53 
		P 220 
		N 114 
		C0 449 
		T0 53 
		P 221 
		N 115 
		C0 450 
		T0 53 
		P 222 
		N 116 
		C0 451 
		T0 53 
		P 223 
		N 61 
		C0 452 
		T0 53 
		P 218 
		N 61 
		C0 453 
		T0 53 
		P 221 
		N 61 
		C0 454 
		T0 53 
		P 224 
		N 61 
		C0 455 
		T0 53 
		P 224 
		N 117 
		C0 456 
		T0 53 
		P 221 
		N 117 
		C0 457 
		T0 53 
		P 222 
		N 117 
		C0 458 
		T0 53 
		P 216 
		N 118 
		C0 459 
		T0 53 
		P 220 
		N 119 
		C0 460 
		T0 53 
		P 198 
		N 119 
		C0 461 
		T0 53 
		P 219 
		N 65 
		C0 462 
		T0 53 
		P 199 
		N 65 
		C0 463 
		T0 53 
		P 133 
		N 0 
		C0 464 
		T0 2 
		P 208 
		N 0 
		C0 465 
		T0 171 
		P 100 
		N 101 
		C0 466 
		T0 172 
		P 111 
		N 101 
		C0 467 
		T0 175 
		P 194 
		N 101 
		C0 468 
		T0 174 
		P 195 
		N 101 
		C0 469 
		T0 173 
		P 202 
		N 54 
		C0 470 
		T0 176 
		P 128 
		N 54 
		C0 471 
		T0 10 
		P 130 
		N 54 
		C0 472 
		T0 11 
		P 222 
		N 54 
		C0 473 
		T0 177 
		P 133 
		N 14 
		C0 474 
		T0 178 
		P 125 
		N 14 
		C0 475 
		T0 179 
		P 191 
		N 14 
		C0 476 
		T0 181 
		P 124 
		N 14 
		C0 477 
		T0 183 
		P 197 
		N 14 
		C0 478 
		T0 182 
		P 223 
		N 54 
		C0 479 
		T0 184 
		P 224 
		N 54 
		C0 480 
		T0 185 
		P 102 
		N 120 
		C0 481 
		T0 224 
		P 45 
		N 120 
		C0 482 
		T0 225 
		P 44 
		N 120 
		C0 483 
		T0 226 
		P 112 
		N 121 
		C0 484 
		T0 227 
		P 119 
		N 121 
		C0 485 
		T0 228 
		P 45 
		N 121 
		C0 486 
		T0 225 
		P 102 
		N 121 
		C0 487 
		T0 224 
		P 88 
		N 121 
		C0 488 
		T0 229 
		P 72 
		N 121 
		C0 489 
		T0 230 
		P 71 
		N 121 
		C0 490 
		T0 231 
		P 121 
		N 121 
		C0 491 
		T0 232 
		P 116 
		N 121 
		C0 492 
		T0 233 
		P 91 
		N 121 
		C0 493 
		T0 234 
		P 93 
		N 121 
		C0 494 
		T0 235 
		P 108 
		N 121 
		C0 495 
		T0 236 
		P 103 
		N 121 
		C0 496 
		T0 237 
		P 38 
		N 121 
		C0 497 
		T0 238 
		P 105 
		N 121 
		C0 498 
		T0 239 
		P 44 
		N 121 
		C0 499 
		T0 226 
		P 37 
		N 121 
		C0 500 
		T0 240 
		P 89 
		N 121 
		C0 501 
		T0 241 
		P 102 
		N 122 
		C0 502 
		T0 224 
		P 162 
		N 122 
		C0 503 
		T0 226 
		P 161 
		N 122 
		C0 504 
		T0 225 
		P 161 
		N 121 
		C0 505 
		T0 225 
		P 219 
		N 121 
		C0 506 
		T0 228 
		P 188 
		N 121 
		C0 507 
		T0 230 
		P 200 
		N 121 
		C0 508 
		T0 229 
		P 186 
		N 121 
		C0 509 
		T0 231 
		P 223 
		N 121 
		C0 510 
		T0 232 
		P 202 
		N 121 
		C0 511 
		T0 235 
		P 201 
		N 121 
		C0 512 
		T0 234 
		P 218 
		N 121 
		C0 513 
		T0 233 
		P 214 
		N 121 
		C0 514 
		T0 236 
		P 210 
		N 121 
		C0 515 
		T0 237 
		P 212 
		N 121 
		C0 516 
		T0 239 
		P 154 
		N 121 
		C0 517 
		T0 238 
		P 153 
		N 121 
		C0 518 
		T0 240 
		P 162 
		N 121 
		C0 519 
		T0 226 
		P 199 
		N 121 
		C0 520 
		T0 241 
	}

	Mtl 4 { 
		{
			Name "#2" 
			Priority 32 
			Prim 87 { 
				{
					Type TRISTRIP
					Priority 32 
					Idx 4 { 10 11 9 8 }
				}
				{
					Type TRISTRIP
					Priority 32 
					Idx 4 { 56 57 55 58 }
				}
				{
					Type TRISTRIP
					Priority 32 
					Idx 4 { 70 71 73 72 }
				}
				{
					Type TRISTRIP
					Priority 32 
					Idx 7 { 97 86 92 85 91 89 90 }
				}
				{
					Type TRISTRIP2
					Priority 32 
					Idx 8 { 3 2 0 1 5 4 7 6 }
				}
				{
					Type TRISTRIP2
					Priority 32 
					Idx 6 { 13 12 14 15 16 17 }
				}
				{
					Type TRISTRIP2
					Priority 32 
					Idx 8 { 120 119 115 118 116 117 229 230 }
				}
				{
					Type TRISTRIP2
					Priority 32 
					Idx 4 { 137 136 138 139 }
				}
				{
					Type TRISTRIP2
					Priority 32 
					Idx 4 { 149 148 150 151 }
				}
				{
					Type TRISTRIP2
					Priority 32 
					Idx 5 { 157 153 154 156 155 }
				}
				{
					Type TRISTRIP
					Priority 32 
					Idx 8 { 104 105 101 102 100 103 344 343 }
				}
				{
					Type TRISTRIP
					Priority 32 
					Idx 4 { 102 105 250 249 }
				}
				{
					Type TRISTRIP
					Priority 32 
					Idx 5 { 112 110 111 247 248 }
				}
				{
					Type TRISTRIP2
					Priority 32 
					Idx 4 { 159 158 160 161 }
				}
				{
					Type TRISTRIP2
					Priority 32 
					Idx 6 { 164 163 162 166 165 167 }
				}
				{
					Type TRISTRIP2
					Priority 32 
					Idx 4 { 176 175 173 174 }
				}
				{
					Type TRISTRIP2
					Priority 32 
					Idx 4 { 184 183 181 182 }
				}
				{
					Type TRISTRIP2
					Priority 32 
					Idx 4 { 187 186 188 185 }
				}
				{
					Type TRISTRIP2
					Priority 32 
					Idx 6 { 189 192 190 191 430 431 }
				}
				{
					Type TRISTRIP2
					Priority 32 
					Idx 4 { 194 193 195 196 }
				}
				{
					Type TRISTRIP2
					Priority 32 
					Idx 6 { 125 197 198 199 369 436 }
				}
				{
					Type TRISTRIP2
					Priority 32 
					Idx 4 { 211 210 208 209 }
				}
				{
					Type TRISTRIP2
					Priority 32 
					Idx 5 { 216 215 214 213 212 }
				}
				{
					Type TRISTRIP
					Priority 32 
					Idx 6 { 146 147 145 144 387 386 }
				}
				{
					Type TRISTRIP
					Priority 32 
					Idx 6 { 200 201 203 202 437 438 }
				}
				{
					Type TRISTRIP
					Priority 32 
					Idx 4 { 219 220 218 217 }
				}
				{
					Type TRISTRIP
					Priority 32 
					Idx 5 { 227 228 225 226 224 }
				}
				{
					Type TRISTRIP2
					Priority 32 
					Idx 4 { 232 231 233 234 }
				}
				{
					Type TRISTRIP2
					Priority 32 
					Idx 5 { 245 246 235 237 236 }
				}
				{
					Type TRISTRIP
					Priority 32 
					Idx 12 { 246 237 238 206 207 206 205 204 124 121 123 122 }
				}
				{
					Type TRISTRIP
					Priority 32 
					Idx 4 { 261 262 260 259 }
				}
				{
					Type TRISTRIP
					Priority 32 
					Idx 6 { 266 263 265 264 268 267 }
				}
				{
					Type TRISTRIP
					Priority 32 
					Idx 6 { 281 282 284 283 342 341 }
				}
				{
					Type TRISTRIP
					Priority 32 
					Idx 4 { 301 298 300 299 }
				}
				{
					Type TRISTRIP
					Priority 32 
					Idx 4 { 313 314 316 315 }
				}
				{
					Type TRISTRIP
					Priority 32 
					Idx 7 { 332 330 331 333 334 339 340 }
				}
				{
					Type TRISTRIP2
					Priority 32 
					Idx 8 { 253 252 254 251 255 256 257 258 }
				}
				{
					Type TRISTRIP2
					Priority 32 
					Idx 6 { 294 293 295 296 417 418 }
				}
				{
					Type TRISTRIP2
					Priority 32 
					Idx 4 { 335 338 336 337 }
				}
				{
					Type TRISTRIP2
					Priority 32 
					Idx 4 { 349 352 350 351 }
				}
				{
					Type TRISTRIP2
					Priority 32 
					Idx 4 { 353 356 354 355 }
				}
				{
					Type TRISTRIP2
					Priority 32 
					Idx 8 { 364 363 360 359 361 362 464 465 }
				}
				{
					Type TRISTRIP2
					Priority 32 
					Idx 4 { 380 383 381 382 }
				}
				{
					Type TRISTRIP2
					Priority 32 
					Idx 4 { 391 390 388 389 }
				}
				{
					Type TRISTRIP2
					Priority 32 
					Idx 5 { 397 396 393 395 394 }
				}
				{
					Type TRISTRIP
					Priority 32 
					Idx 4 { 400 401 399 398 }
				}
				{
					Type TRISTRIP
					Priority 32 
					Idx 4 { 411 412 414 413 }
				}
				{
					Type TRISTRIP
					Priority 32 
					Idx 4 { 424 425 423 422 }
				}
				{
					Type TRISTRIP
					Priority 32 
					Idx 4 { 428 429 427 426 }
				}
				{
					Type TRISTRIP
					Priority 32 
					Idx 4 { 435 432 434 433 }
				}
				{
					Type TRISTRIP
					Priority 32 
					Idx 4 { 444 445 443 446 }
				}
				{
					Type TRISTRIP
					Priority 32 
					Idx 5 { 451 450 448 449 447 }
				}
				{
					Type TRISTRIP2
					Priority 32 
					Idx 6 { 403 402 404 405 406 407 }
				}
				{
					Type TRISTRIP2
					Priority 32 
					Idx 4 { 454 453 455 452 }
				}
				{
					Type TRISTRIP2
					Priority 32 
					Idx 5 { 459 461 460 463 462 }
				}
				{
					Type TRISTRIP
					Priority 32 
					Idx 4 { 466 467 469 468 }
				}
				{
					Type TRISTRIP
					Priority 32 
					Idx 5 { 479 480 470 471 472 }
				}
				{
					Type TRISTRIP2
					Priority 32 
					Idx 12 { 480 471 473 441 442 441 440 439 366 365 367 368 }
				}
				{
					Type TRISTRIP2
					Priority 32 
					Idx 11 { 282 283 40 39 38 37 35 37 36 99 98 }
				}
				{
					Type TRISTRIP
					Priority 32 
					Idx 6 { 109 106 108 107 114 113 }
				}
				{
					Type TRISTRIP
					Priority 32 
					Idx 11 { 329 325 88 82 87 82 83 19 18 20 21 }
				}
				{
					Type TRISTRIP2
					Priority 32 
					Idx 6 { 20 270 19 269 82 325 }
				}
				{
					Type TRISTRIP2
					Priority 32 
					Idx 11 { 134 132 135 133 128 130 128 129 127 126 125 }
				}
				{
					Type TRISTRIP
					Priority 32 
					Idx 5 { 129 126 131 132 133 }
				}
				{
					Type TRISTRIP2
					Priority 32 
					Idx 14 { 416 415 409 410 409 408 409 169 170 168 171 172 177 178 }
				}
				{
					Type TRISTRIP2
					Priority 32 
					Idx 7 { 357 358 346 345 346 348 347 }
				}
				{
					Type TRISTRIP
					Priority 32 
					Idx 9 { 369 370 371 373 377 376 377 378 379 }
				}
				{
					Type TRISTRIP2
					Priority 32 
					Idx 8 { 373 372 370 375 374 375 378 376 }
				}
				{
					Type TRISTRIP2
					Priority 32 
					Idx 7 { 289 288 285 287 285 286 392 }
				}
				{
					Type TRISTRIP
					Priority 32 
					Idx 9 { 328 327 296 291 293 291 286 290 287 }
				}
				{
					Type TRISTRIP2
					Priority 32 
					Idx 9 { 290 292 291 326 327 421 327 420 419 }
				}
				{
					Type TRISTRIP
					Priority 32 
					Idx 7 { 45 44 41 42 41 43 152 }
				}
				{
					Type TRISTRIP2
					Priority 32 
					Idx 13 { 96 95 93 94 51 50 52 50 49 48 43 46 42 }
				}
				{
					Type TRISTRIP
					Priority 32 
					Idx 8 { 46 47 48 84 48 85 50 86 }
				}
				{
					Type TRISTRIP
					Priority 32 
					Idx 5 { 84 179 85 180 89 }
				}
				{
					Type TRISTRIP2
					Priority 32 
					Idx 23 { 243 242 244 242 240 241 240 142 239 142 143 141 140 385 384 385 474 385 475 476 475 478 477 }
				}
				{
					Type TRISTRIP
					Priority 32 
					Idx 10 { 278 29 277 28 276 274 280 278 279 277 }
				}
				{
					Type TRISTRIP
					Priority 32 
					Idx 33 { 278 274 302 274 273 271 272 271 297 275 54 27 53 26 25 22 25 23 24 23 59 23 32 33 29 30 29 31 28 31 23 34 33 }
				}
				{
					Type TRISTRIP2
					Priority 32 
					Idx 8 { 22 23 26 28 27 274 275 271 }
				}
				{
					Type TRISTRIP2
					Priority 32 
					Idx 14 { 81 74 78 74 79 75 80 76 81 77 74 77 75 76 }
				}
				{
					Type TRISTRIP2
					Priority 32 
					Idx 15 { 324 321 317 322 320 322 319 323 319 324 318 317 318 320 319 }
				}
				{
					Type TRISTRIP
					Priority 32 
					Idx 9 { 62 63 60 65 64 62 61 60 64 }
				}
				{
					Type TRISTRIP2
					Priority 32 
					Idx 11 { 63 65 68 62 66 63 67 68 69 66 67 }
				}
				{
					Type TRISTRIP
					Priority 32 
					Idx 13 { 306 303 305 304 309 307 311 305 310 309 312 311 310 }
				}
				{
					Type TRISTRIP2
					Priority 32 
					Idx 9 { 306 303 308 304 308 307 308 305 306 }
				}
				{
					Type TRISTRIP
					Priority 32 
					Idx 3 { 223 221 222 }
				}
				{
					Type TRISTRIP2
					Priority 32 
					Idx 3 { 456 458 457 }
				}
			}

		}
		{
			Name "#3" 
			Priority 32 
			Prim 7 { 
				{
					Type TRISTRIP
					Priority 32 
					Idx 7 { 501 488 485 489 486 490 495 }
				}
				{
					Type TRISTRIP2
					Priority 32 
					Idx 7 { 520 508 506 507 505 509 514 }
				}
				{
					Type TRISTRIP
					Priority 32 
					Idx 21 { 511 512 510 512 513 484 506 484 505 484 487 484 486 484 485 484 492 493 492 494 491 }
				}
				{
					Type TRISTRIP2
					Priority 32 
					Idx 7 { 496 498 487 497 487 500 499 }
				}
				{
					Type TRISTRIP
					Priority 32 
					Idx 7 { 518 519 517 487 517 515 516 }
				}
				{
					Type TRISTRIP2
					Priority 32 
					Idx 3 { 481 483 482 }
				}
				{
					Type TRISTRIP
					Priority 32 
					Idx 3 { 504 502 503 }
				}
			}

		}
		{
			Name "#4" 
			Priority 32 
			Prim 2 { 
				{
					Type TRISTRIP
					Priority 32 
					Idx 4 { 277 276 279 280 }
				}
				{
					Type TRISTRIP
					Priority 32 
					Idx 4 { 33 34 30 31 }
				}
			}

		}
		{
			Name "#5" 
			Priority 32 
			Prim 2 { 
				{
					Type TRISTRIP
					Priority 32 
					Idx 4 { 129 131 130 133 }
				}
				{
					Type TRISTRIP
					Priority 32 
					Idx 4 { 373 372 376 375 }
				}
			}

		}
	}

	Offset 0 
}
