{
	Skinned 0 
	PosSkin 0 
	Pos 66 { 
		1.746178	1.186805	-4.272734 
		1.745757	0.050000	-4.272746 
		1.702127	0.050000	-0.449104 
		1.702207	1.186781	-0.449102 
		1.702127	0.050000	-12.550894 
		1.745757	0.050000	-8.756974 
		1.746186	1.186816	-8.756971 
		1.702208	1.186788	-12.550897 
		1.503595	3.326597	-4.272733 
		1.503595	3.326596	-0.500924 
		1.503595	3.326597	-8.756969 
		1.503594	3.326597	-12.499072 
		-0.027909	0.050000	-12.976671 
		-0.027904	1.186754	-12.976671 
		0.004561	3.326597	-12.976671 
		-1.499007	3.326598	-12.499072 
		-1.711450	1.186747	-12.550895 
		-1.711267	0.050000	-12.550895 
		-0.347247	3.728004	-12.340981 
		0.332414	3.727022	-12.349422 
		1.124854	3.760506	-12.061546 
		-1.118139	3.760507	-12.061546 
		-1.746179	1.186806	-4.272735 
		-1.711450	1.186749	-0.449105 
		-1.711267	0.050000	-0.449105 
		-1.745757	0.050000	-4.272735 
		-1.141727	3.762237	-4.272733 
		1.150900	3.762236	-4.272733 
		1.124853	3.760506	-0.938452 
		-1.118140	3.760507	-0.938451 
		0.539355	1.186766	-0.076765 
		0.539355	0.050000	-0.076765 
		-0.475966	3.326598	-0.076763 
		-1.499009	3.326598	-0.500925 
		-0.362756	3.728658	-0.664640 
		-1.746186	1.186817	-8.756973 
		-1.745757	0.050000	-8.756973 
		-1.499009	3.326598	-4.272733 
		-1.499009	3.326598	-8.756969 
		0.004560	3.326596	-0.049664 
		-0.027905	1.186754	-0.049664 
		-0.595165	1.186742	-0.076766 
		-0.595175	0.050000	-0.076766 
		0.354747	3.727966	-0.658692 
		0.485089	3.326596	-0.076765 
		0.004580	3.581300	-0.209889 
		-0.027910	0.050000	-0.049664 
		1.150900	3.762236	-8.756969 
		-1.141727	3.762237	-8.756969 
		0.004580	3.581300	-12.763010 
		-0.091346	0.247155	-12.666570 
		-0.065301	0.249061	-8.825500 
		-0.065301	2.920182	-8.825500 
		-0.091346	2.918277	-12.666570 
		-0.065301	0.249061	-4.306898 
		-0.065301	2.920182	-4.306898 
		-0.091348	0.247155	-0.333428 
		-0.091348	2.918275	-0.333428 
		-1.527339	0.249112	-0.589944 
		1.477446	0.247151	-0.608007 
		1.477473	2.918272	-0.608043 
		-1.527312	2.920233	-0.589981 
		-1.597746	0.248953	-12.302114 
		-1.597719	2.920075	-12.302151 
		1.407066	2.918113	-12.320214 
		1.407039	0.246993	-12.320178 
	}

	Nrm 51 { 
		-1.000000	-0.046875	0.000000 
		-1.000000	0.000000	0.000000 
		-0.796875	0.000000	-0.593750 
		-0.812500	-0.046875	-0.578125 
		-0.781250	0.000000	0.625000 
		-0.781250	-0.046875	0.609375 
		-1.000000	-0.109375	0.000000 
		-0.812500	-0.078125	-0.578125 
		-0.796875	-0.078125	0.609375 
		0.000000	0.000000	1.000000 
		0.000000	-0.015625	1.000000 
		0.000000	-0.031250	1.000000 
		0.796875	-0.078125	0.609375 
		0.796875	-0.046875	0.609375 
		0.781250	0.000000	0.625000 
		0.078125	-0.921875	0.359375 
		-0.078125	-0.921875	0.359375 
		-0.265625	-0.937500	0.203125 
		0.265625	-0.937500	0.203125 
		1.000000	-0.062500	0.000000 
		0.812500	-0.046875	-0.578125 
		0.812500	0.000000	-0.593750 
		1.000000	0.000000	0.000000 
		0.421875	-0.906250	0.000000 
		-0.421875	-0.906250	0.000000 
		-0.265625	-0.953125	-0.187500 
		0.265625	-0.953125	-0.187500 
		-0.187500	-0.015625	-0.984375 
		-0.171875	0.000000	-0.984375 
		0.218750	-0.781250	-0.593750 
		0.531250	-0.796875	-0.312500 
		0.109375	-0.906250	-0.421875 
		1.000000	-0.109375	0.000000 
		0.812500	-0.093750	-0.578125 
		0.203125	-0.015625	-0.984375 
		0.000000	0.000000	-1.000000 
		0.187500	-0.015625	-0.984375 
		0.187500	0.000000	-0.984375 
		-0.109375	-0.906250	-0.421875 
		-0.218750	-0.781250	-0.593750 
		0.000000	-0.765625	-0.640625 
		0.000000	-0.843750	-0.531250 
		-0.203125	-0.015625	-0.984375 
		-0.531250	-0.796875	-0.312500 
		0.531250	-0.781250	0.328125 
		0.000000	-0.781250	0.625000 
		0.000000	-0.843750	0.531250 
		-0.546875	-0.765625	0.328125 
		0.000000	1.000000	0.000000 
		0.765625	-0.640625	0.000000 
		-0.765625	-0.640625	0.000000 
	}

	Cpv 121 { 
		0.432600	0.404800	0.269900	1.000000 
		0.219900	0.205800	0.137200	1.000000 
		0.219900	0.205800	0.137200	1.000000 
		0.432600	0.404800	0.269900	1.000000 
		0.219900	0.205800	0.137200	1.000000 
		0.219900	0.205800	0.137200	1.000000 
		0.432600	0.404800	0.269900	1.000000 
		0.432600	0.404800	0.269900	1.000000 
		0.219900	0.205800	0.137200	1.000000 
		0.432600	0.404800	0.269900	1.000000 
		0.432600	0.404800	0.269900	1.000000 
		1.000000	1.000000	1.000000	1.000000 
		1.000000	0.935800	0.623900	1.000000 
		1.000000	1.000000	1.000000	1.000000 
		1.000000	1.000000	1.000000	1.000000 
		1.000000	0.935800	0.623900	1.000000 
		0.219900	0.205800	0.137200	1.000000 
		0.432600	0.404800	0.269900	1.000000 
		1.000000	0.935800	0.623900	1.000000 
		1.000000	0.935800	0.623900	1.000000 
		0.432600	0.404800	0.269900	1.000000 
		0.219900	0.205800	0.137200	1.000000 
		1.000000	0.935800	0.623900	1.000000 
		1.000000	0.935800	0.623900	1.000000 
		1.000000	1.000000	1.000000	1.000000 
		1.000000	1.000000	1.000000	1.000000 
		0.432600	0.404800	0.269900	1.000000 
		0.432600	0.404800	0.269900	1.000000 
		0.219900	0.205800	0.137200	1.000000 
		0.219900	0.205800	0.137200	1.000000 
		1.000000	1.000000	1.000000	1.000000 
		1.000000	1.000000	1.000000	1.000000 
		1.000000	1.000000	1.000000	1.000000 
		1.000000	1.000000	1.000000	1.000000 
		0.432600	0.404800	0.269900	1.000000 
		0.219900	0.205800	0.137200	1.000000 
		1.000000	0.935800	0.623900	1.000000 
		1.000000	0.935800	0.623900	1.000000 
		1.000000	1.000000	1.000000	1.000000 
		0.219900	0.205800	0.137200	1.000000 
		0.432600	0.404800	0.269900	1.000000 
		0.432600	0.404800	0.269900	1.000000 
		0.219900	0.205800	0.137200	1.000000 
		0.219900	0.205800	0.137200	1.000000 
		0.432600	0.404800	0.269900	1.000000 
		0.432600	0.404800	0.269900	1.000000 
		1.000000	1.000000	1.000000	1.000000 
		1.000000	0.935800	0.623900	1.000000 
		1.000000	1.000000	1.000000	1.000000 
		1.000000	0.935800	0.623900	1.000000 
		1.000000	1.000000	1.000000	1.000000 
		1.000000	0.935800	0.623900	1.000000 
		1.000000	0.935800	0.623900	1.000000 
		0.432600	0.404800	0.269900	1.000000 
		0.432600	0.404800	0.269900	1.000000 
		0.219900	0.205800	0.137200	1.000000 
		1.000000	1.000000	1.000000	1.000000 
		1.000000	0.935800	0.623900	1.000000 
		1.000000	0.935800	0.623900	1.000000 
		1.000000	0.935800	0.623900	1.000000 
		0.219900	0.205800	0.137200	1.000000 
		1.000000	0.935800	0.623900	1.000000 
		1.000000	0.935800	0.623900	1.000000 
		1.000000	1.000000	1.000000	1.000000 
		1.000000	1.000000	1.000000	1.000000 
		1.000000	0.935800	0.623900	1.000000 
		1.000000	0.935800	0.623900	1.000000 
		1.000000	0.935800	0.623900	1.000000 
		1.000000	0.935800	0.623900	1.000000 
		1.000000	1.000000	1.000000	1.000000 
		1.000000	1.000000	1.000000	1.000000 
		1.000000	1.000000	1.000000	1.000000 
		1.000000	1.000000	1.000000	1.000000 
		1.000000	1.000000	1.000000	1.000000 
		1.000000	1.000000	1.000000	1.000000 
		1.000000	1.000000	1.000000	1.000000 
		1.000000	1.000000	1.000000	1.000000 
		1.000000	1.000000	1.000000	1.000000 
		1.000000	0.935800	0.623900	1.000000 
		1.000000	1.000000	1.000000	1.000000 
		1.000000	1.000000	1.000000	1.000000 
		1.000000	1.000000	1.000000	1.000000 
		1.000000	1.000000	1.000000	1.000000 
		1.000000	1.000000	1.000000	1.000000 
		1.000000	0.935800	0.623900	1.000000 
		1.000000	1.000000	1.000000	1.000000 
		1.000000	1.000000	1.000000	1.000000 
		1.000000	1.000000	1.000000	1.000000 
		1.000000	1.000000	1.000000	1.000000 
		1.000000	1.000000	1.000000	1.000000 
		1.000000	1.000000	1.000000	1.000000 
		1.000000	1.000000	1.000000	1.000000 
		1.000000	1.000000	1.000000	1.000000 
		1.000000	1.000000	1.000000	1.000000 
		1.000000	1.000000	1.000000	1.000000 
		1.000000	1.000000	1.000000	1.000000 
		1.000000	0.935800	0.623900	1.000000 
		1.000000	1.000000	1.000000	1.000000 
		1.000000	1.000000	1.000000	1.000000 
		1.000000	0.935800	0.623900	1.000000 
		1.000000	1.000000	1.000000	1.000000 
		0.219900	0.205800	0.137200	1.000000 
		0.553200	0.517700	0.345100	1.000000 
		0.553200	0.517700	0.345100	1.000000 
		0.553200	0.517700	0.345100	1.000000 
		0.553200	0.517700	0.345100	1.000000 
		0.219900	0.205800	0.137200	1.000000 
		0.453000	0.424000	0.282700	1.000000 
		0.553200	0.517700	0.345100	1.000000 
		0.219900	0.205800	0.137200	1.000000 
		0.219900	0.205800	0.137200	1.000000 
		1.000000	0.935800	0.623900	1.000000 
		0.453000	0.424000	0.282700	1.000000 
		0.219900	0.205800	0.137200	1.000000 
		0.219900	0.205800	0.137200	1.000000 
		1.000000	0.935800	0.623900	1.000000 
		0.453000	0.424000	0.282700	1.000000 
		0.219900	0.205800	0.137200	1.000000 
		0.453000	0.424000	0.282700	1.000000 
		1.000000	0.935800	0.623900	1.000000 
		0.219900	0.205800	0.137200	1.000000 
	}

	Tex0 89 { 
		0.000977	0.701172 
		0.000977	0.514648 
		0.996094	0.514648 
		0.996094	0.701172 
		0.946289	0.514648 
		0.946289	0.701172 
		1.195313	0.514648 
		0.000000	0.698242 
		1.195313	0.698242 
		0.000977	1.000000 
		0.996094	1.000000 
		1.195313	1.000000 
		0.946289	1.000000 
		-0.034180	0.514648 
		-0.034180	0.701172 
		-0.034180	1.000000 
		0.279297	0.653320 
		0.278320	0.678711 
		0.291992	0.708008 
		0.291992	0.625000 
		0.639648	0.624023 
		0.639648	0.708984 
		0.789063	0.708008 
		0.789063	0.625000 
		0.235352	0.701172 
		0.235352	0.514648 
		0.828125	0.648438 
		0.810547	0.611328 
		0.801758	0.653320 
		1.170898	0.514648 
		1.170898	0.698242 
		1.170898	1.000000 
		0.205078	1.000000 
		0.053711	1.000000 
		0.053711	0.701172 
		0.801758	0.678711 
		0.828125	0.684570 
		0.828125	0.666992 
		0.820313	0.666992 
		0.054688	0.514648 
		0.810547	0.721680 
		0.439453	0.708984 
		0.439453	0.624023 
		0.269531	0.611328 
		0.252930	0.666992 
		0.259766	0.666992 
		0.269531	0.721680 
		0.183594	0.542969 
		0.577148	0.542969 
		0.578125	0.592773 
		0.184570	0.592773 
		0.545898	0.542969 
		0.546875	0.592773 
		0.000000	0.500000 
		0.000000	0.362305 
		0.293945	0.362305 
		0.293945	0.500000 
		-0.000977	0.364258 
		0.293945	0.364258 
		0.000000	0.218750 
		0.000000	0.003906 
		0.478516	0.003906 
		0.478516	0.218750 
		0.003906	0.000000 
		0.469727	0.000000 
		0.469727	0.208984 
		0.003906	0.208984 
		0.473633	0.499023 
		0.299805	0.499023 
		0.299805	0.249023 
		0.473633	0.219727 
		0.039063	0.362305 
		0.003906	0.223633 
		0.291992	0.223633 
		0.291992	0.362305 
		0.520508	0.000000 
		0.941406	0.000000 
		0.941406	0.410156 
		0.520508	0.410156 
		0.980469	0.000000 
		0.510742	0.000000 
		0.510742	0.410156 
		0.995117	0.410156 
		0.590820	0.000000 
		1.000000	0.000000 
		1.000000	0.410156 
		0.590820	0.410156 
		0.687500	0.000000 
		0.687500	0.410156 
	}

	Tex1 0 
	Adj 121 { 
		P 0 
		N 0 
		C0 0 
		T0 0 
		P 1 
		N 1 
		C0 1 
		T0 1 
		P 2 
		N 2 
		C0 2 
		T0 2 
		P 3 
		N 3 
		C0 3 
		T0 3 
		P 4 
		N 4 
		C0 4 
		T0 4 
		P 5 
		N 1 
		C0 5 
		T0 1 
		P 6 
		N 0 
		C0 6 
		T0 0 
		P 7 
		N 5 
		C0 7 
		T0 5 
		P 5 
		N 1 
		C0 8 
		T0 6 
		P 0 
		N 0 
		C0 9 
		T0 7 
		P 6 
		N 0 
		C0 10 
		T0 8 
		P 8 
		N 6 
		C0 11 
		T0 9 
		P 9 
		N 7 
		C0 12 
		T0 10 
		P 10 
		N 6 
		C0 13 
		T0 11 
		P 10 
		N 6 
		C0 14 
		T0 9 
		P 11 
		N 8 
		C0 15 
		T0 12 
		P 12 
		N 9 
		C0 16 
		T0 13 
		P 13 
		N 10 
		C0 17 
		T0 14 
		P 14 
		N 11 
		C0 18 
		T0 15 
		P 15 
		N 12 
		C0 19 
		T0 12 
		P 16 
		N 13 
		C0 20 
		T0 5 
		P 17 
		N 14 
		C0 21 
		T0 4 
		P 18 
		N 15 
		C0 22 
		T0 16 
		P 19 
		N 16 
		C0 23 
		T0 17 
		P 20 
		N 17 
		C0 24 
		T0 18 
		P 21 
		N 18 
		C0 25 
		T0 19 
		P 22 
		N 19 
		C0 26 
		T0 0 
		P 23 
		N 20 
		C0 27 
		T0 3 
		P 24 
		N 21 
		C0 28 
		T0 2 
		P 25 
		N 22 
		C0 29 
		T0 1 
		P 26 
		N 23 
		C0 30 
		T0 20 
		P 27 
		N 24 
		C0 31 
		T0 21 
		P 28 
		N 25 
		C0 32 
		T0 22 
		P 29 
		N 26 
		C0 33 
		T0 23 
		P 30 
		N 27 
		C0 34 
		T0 24 
		P 31 
		N 28 
		C0 35 
		T0 25 
		P 32 
		N 29 
		C0 36 
		T0 26 
		P 33 
		N 30 
		C0 37 
		T0 27 
		P 34 
		N 31 
		C0 38 
		T0 28 
		P 17 
		N 14 
		C0 39 
		T0 2 
		P 16 
		N 13 
		C0 40 
		T0 3 
		P 35 
		N 19 
		C0 41 
		T0 0 
		P 36 
		N 22 
		C0 42 
		T0 1 
		P 36 
		N 22 
		C0 43 
		T0 29 
		P 35 
		N 19 
		C0 44 
		T0 30 
		P 22 
		N 19 
		C0 45 
		T0 7 
		P 37 
		N 32 
		C0 46 
		T0 9 
		P 33 
		N 33 
		C0 47 
		T0 10 
		P 38 
		N 32 
		C0 48 
		T0 31 
		P 15 
		N 12 
		C0 49 
		T0 10 
		P 38 
		N 32 
		C0 50 
		T0 9 
		P 32 
		N 34 
		C0 51 
		T0 32 
		P 39 
		N 35 
		C0 52 
		T0 33 
		P 40 
		N 35 
		C0 53 
		T0 34 
		P 41 
		N 36 
		C0 54 
		T0 24 
		P 42 
		N 37 
		C0 55 
		T0 25 
		P 43 
		N 38 
		C0 56 
		T0 35 
		P 44 
		N 39 
		C0 57 
		T0 36 
		P 39 
		N 40 
		C0 58 
		T0 37 
		P 45 
		N 41 
		C0 59 
		T0 38 
		P 46 
		N 35 
		C0 60 
		T0 39 
		P 44 
		N 42 
		C0 61 
		T0 32 
		P 9 
		N 43 
		C0 62 
		T0 40 
		P 47 
		N 24 
		C0 63 
		T0 41 
		P 48 
		N 23 
		C0 64 
		T0 42 
		P 15 
		N 44 
		C0 65 
		T0 43 
		P 14 
		N 45 
		C0 66 
		T0 44 
		P 49 
		N 46 
		C0 67 
		T0 45 
		P 11 
		N 47 
		C0 68 
		T0 46 
		P 2 
		N 48 
		C0 69 
		T0 47 
		P 1 
		N 48 
		C0 70 
		T0 48 
		P 25 
		N 48 
		C0 71 
		T0 49 
		P 24 
		N 48 
		C0 72 
		T0 50 
		P 5 
		N 48 
		C0 73 
		T0 47 
		P 4 
		N 48 
		C0 74 
		T0 51 
		P 17 
		N 48 
		C0 75 
		T0 52 
		P 36 
		N 48 
		C0 76 
		T0 50 
		P 29 
		N 26 
		C0 77 
		T0 53 
		P 33 
		N 30 
		C0 78 
		T0 54 
		P 37 
		N 49 
		C0 79 
		T0 55 
		P 26 
		N 23 
		C0 80 
		T0 56 
		P 28 
		N 25 
		C0 81 
		T0 56 
		P 27 
		N 24 
		C0 82 
		T0 53 
		P 8 
		N 50 
		C0 83 
		T0 57 
		P 9 
		N 43 
		C0 84 
		T0 58 
		P 26 
		N 23 
		C0 85 
		T0 59 
		P 37 
		N 49 
		C0 86 
		T0 60 
		P 38 
		N 49 
		C0 87 
		T0 61 
		P 48 
		N 23 
		C0 88 
		T0 62 
		P 10 
		N 50 
		C0 89 
		T0 63 
		P 8 
		N 50 
		C0 90 
		T0 64 
		P 27 
		N 24 
		C0 91 
		T0 65 
		P 47 
		N 24 
		C0 92 
		T0 66 
		P 10 
		N 50 
		C0 93 
		T0 67 
		P 47 
		N 24 
		C0 94 
		T0 68 
		P 20 
		N 17 
		C0 95 
		T0 69 
		P 11 
		N 47 
		C0 96 
		T0 70 
		P 48 
		N 23 
		C0 97 
		T0 71 
		P 38 
		N 49 
		C0 98 
		T0 72 
		P 15 
		N 44 
		C0 99 
		T0 73 
		P 21 
		N 18 
		C0 100 
		T0 74 
		P 50 
		N 1 
		C0 101 
		T0 75 
		P 51 
		N 1 
		C0 102 
		T0 76 
		P 52 
		N 1 
		C0 103 
		T0 77 
		P 53 
		N 1 
		C0 104 
		T0 78 
		P 51 
		N 1 
		C0 105 
		T0 79 
		P 54 
		N 1 
		C0 106 
		T0 80 
		P 55 
		N 1 
		C0 107 
		T0 81 
		P 52 
		N 1 
		C0 108 
		T0 82 
		P 54 
		N 1 
		C0 109 
		T0 83 
		P 56 
		N 1 
		C0 110 
		T0 84 
		P 57 
		N 1 
		C0 111 
		T0 85 
		P 55 
		N 1 
		C0 112 
		T0 86 
		P 58 
		N 9 
		C0 113 
		T0 87 
		P 59 
		N 9 
		C0 114 
		T0 84 
		P 60 
		N 9 
		C0 115 
		T0 85 
		P 61 
		N 9 
		C0 116 
		T0 88 
		P 62 
		N 35 
		C0 117 
		T0 87 
		P 63 
		N 35 
		C0 118 
		T0 88 
		P 64 
		N 35 
		C0 119 
		T0 85 
		P 65 
		N 35 
		C0 120 
		T0 84 
	}

	Mtl 3 { 
		{
			Name "#0" 
			Priority 32 
			Prim 10 { 
				{
					Type TRISTRIP
					Priority 32 
					Idx 6 { 8 1 10 9 13 11 }
				}
				{
					Type TRISTRIP
					Priority 32 
					Idx 11 { 21 16 20 17 19 17 18 7 15 6 14 }
				}
				{
					Type TRISTRIP2
					Priority 32 
					Idx 6 { 6 5 7 4 17 16 }
				}
				{
					Type TRISTRIP2
					Priority 32 
					Idx 6 { 39 42 40 41 49 50 }
				}
				{
					Type TRISTRIP2
					Priority 32 
					Idx 6 { 43 29 44 45 48 46 }
				}
				{
					Type TRISTRIP2
					Priority 32 
					Idx 8 { 69 72 70 71 73 76 74 75 }
				}
				{
					Type TRISTRIP2
					Priority 32 
					Idx 21 { 29 28 26 27 46 27 47 54 51 53 52 34 61 34 12 3 11 3 0 2 1 }
				}
				{
					Type TRISTRIP
					Priority 32 
					Idx 11 { 28 27 55 54 60 53 35 34 35 3 2 }
				}
				{
					Type TRISTRIP2
					Priority 32 
					Idx 19 { 33 31 30 63 64 24 25 22 65 22 66 67 23 22 23 24 23 68 66 }
				}
				{
					Type TRISTRIP
					Priority 32 
					Idx 18 { 31 32 33 38 37 38 36 59 58 59 57 56 62 56 32 56 38 59 }
				}
			}

		}
		{
			Name "#1" 
			Priority 32 
			Prim 6 { 
				{
					Type TRISTRIP
					Priority 32 
					Idx 4 { 79 80 78 77 }
				}
				{
					Type TRISTRIP
					Priority 32 
					Idx 4 { 83 84 82 81 }
				}
				{
					Type TRISTRIP
					Priority 32 
					Idx 4 { 87 88 86 85 }
				}
				{
					Type TRISTRIP
					Priority 32 
					Idx 4 { 89 90 92 91 }
				}
				{
					Type TRISTRIP
					Priority 32 
					Idx 4 { 96 93 95 94 }
				}
				{
					Type TRISTRIP
					Priority 32 
					Idx 4 { 99 100 98 97 }
				}
			}

		}
		{
			Name "#2" 
			Priority 32 
			Prim 5 { 
				{
					Type TRISTRIP
					Priority 32 
					Idx 4 { 101 102 104 103 }
				}
				{
					Type TRISTRIP
					Priority 32 
					Idx 4 { 105 106 108 107 }
				}
				{
					Type TRISTRIP
					Priority 32 
					Idx 4 { 109 110 112 111 }
				}
				{
					Type TRISTRIP
					Priority 32 
					Idx 4 { 113 114 116 115 }
				}
				{
					Type TRISTRIP
					Priority 32 
					Idx 4 { 117 118 120 119 }
				}
			}

		}
	}

	Offset 0 
}
