{
	Skinned 0 
	PosSkin 0 
	Pos 24 { 
		-0.149591	0.472479	0.472600 
		-0.149590	0.472480	-0.472599 
		-0.149590	-0.472709	-0.472599 
		-0.149590	-0.472709	0.472599 
		0.149591	0.472480	-0.472599 
		0.149590	0.472480	0.472599 
		0.149590	-0.472709	0.472599 
		0.149591	-0.472709	-0.472600 
		0.149321	0.000697	-0.471730 
		-0.148246	-0.333064	-0.333485 
		-0.148246	0.000697	-0.471730 
		0.149321	-0.333063	-0.333485 
		-0.148246	-0.471313	0.000281 
		0.149321	-0.471313	0.000281 
		-0.148246	-0.333063	0.334041 
		0.149321	-0.333063	0.334040 
		-0.148246	0.000701	0.472284 
		0.149321	0.000701	0.472284 
		-0.148246	0.334460	0.334039 
		0.149320	0.334460	0.334039 
		-0.148246	0.472709	0.000283 
		0.149321	0.472709	0.000283 
		-0.148246	0.334464	-0.333497 
		0.149321	0.334464	-0.333498 
	}

	Nrm 18 { 
		-1.000000	0.000000	0.000000 
		1.000000	0.000000	0.000000 
		0.000000	-0.140625	-0.984375 
		0.000000	-0.609375	-0.796875 
		0.000000	0.140625	-0.984375 
		0.000000	-0.796875	-0.609375 
		0.000000	-0.984375	-0.140625 
		0.000000	-0.984375	0.140625 
		0.000000	-0.796875	0.609375 
		0.000000	-0.609375	0.796875 
		0.000000	-0.140625	0.984375 
		0.000000	0.140625	0.984375 
		0.000000	0.609375	0.796875 
		0.000000	0.796875	0.609375 
		0.000000	0.984375	0.140625 
		0.000000	0.984375	-0.140625 
		0.000000	0.796875	-0.609375 
		0.000000	0.609375	-0.796875 
	}

	Cpv 40 { 
		1.000000	1.000000	1.000000	1.000000 
		1.000000	1.000000	1.000000	1.000000 
		1.000000	1.000000	1.000000	1.000000 
		1.000000	1.000000	1.000000	1.000000 
		1.000000	1.000000	1.000000	1.000000 
		1.000000	1.000000	1.000000	1.000000 
		1.000000	1.000000	1.000000	1.000000 
		1.000000	1.000000	1.000000	1.000000 
		1.000000	1.000000	1.000000	1.000000 
		1.000000	1.000000	1.000000	1.000000 
		1.000000	1.000000	1.000000	1.000000 
		1.000000	1.000000	1.000000	1.000000 
		1.000000	1.000000	1.000000	1.000000 
		1.000000	1.000000	1.000000	1.000000 
		1.000000	1.000000	1.000000	1.000000 
		1.000000	1.000000	1.000000	1.000000 
		1.000000	1.000000	1.000000	1.000000 
		1.000000	1.000000	1.000000	1.000000 
		1.000000	1.000000	1.000000	1.000000 
		1.000000	1.000000	1.000000	1.000000 
		1.000000	1.000000	1.000000	1.000000 
		1.000000	1.000000	1.000000	1.000000 
		1.000000	1.000000	1.000000	1.000000 
		1.000000	1.000000	1.000000	1.000000 
		1.000000	1.000000	1.000000	1.000000 
		1.000000	1.000000	1.000000	1.000000 
		1.000000	1.000000	1.000000	1.000000 
		1.000000	1.000000	1.000000	1.000000 
		1.000000	1.000000	1.000000	1.000000 
		1.000000	1.000000	1.000000	1.000000 
		1.000000	1.000000	1.000000	1.000000 
		1.000000	1.000000	1.000000	1.000000 
		1.000000	1.000000	1.000000	1.000000 
		1.000000	1.000000	1.000000	1.000000 
		1.000000	1.000000	1.000000	1.000000 
		1.000000	1.000000	1.000000	1.000000 
		1.000000	1.000000	1.000000	1.000000 
		1.000000	1.000000	1.000000	1.000000 
		1.000000	1.000000	1.000000	1.000000 
		1.000000	1.000000	1.000000	1.000000 
	}

	Tex0 8 { 
		0.497070	0.990234 
		0.004883	0.990234 
		0.004883	0.009766 
		0.497070	0.009766 
		0.530273	0.000000 
		0.990234	1.000000 
		0.530273	1.000000 
		0.990234	0.000000 
	}

	Tex1 0 
	Adj 40 { 
		P 0 
		N 0 
		C0 0 
		T0 0 
		P 1 
		N 0 
		C0 1 
		T0 1 
		P 2 
		N 0 
		C0 2 
		T0 2 
		P 3 
		N 0 
		C0 3 
		T0 3 
		P 4 
		N 1 
		C0 4 
		T0 1 
		P 5 
		N 1 
		C0 5 
		T0 0 
		P 6 
		N 1 
		C0 6 
		T0 3 
		P 7 
		N 1 
		C0 7 
		T0 2 
		P 8 
		N 2 
		C0 8 
		T0 4 
		P 9 
		N 3 
		C0 9 
		T0 5 
		P 10 
		N 4 
		C0 10 
		T0 6 
		P 11 
		N 5 
		C0 11 
		T0 7 
		P 11 
		N 5 
		C0 12 
		T0 6 
		P 12 
		N 6 
		C0 13 
		T0 7 
		P 9 
		N 3 
		C0 14 
		T0 4 
		P 13 
		N 7 
		C0 15 
		T0 5 
		P 13 
		N 7 
		C0 16 
		T0 4 
		P 14 
		N 8 
		C0 17 
		T0 5 
		P 12 
		N 6 
		C0 18 
		T0 6 
		P 15 
		N 9 
		C0 19 
		T0 7 
		P 15 
		N 9 
		C0 20 
		T0 4 
		P 16 
		N 10 
		C0 21 
		T0 5 
		P 14 
		N 8 
		C0 22 
		T0 6 
		P 17 
		N 11 
		C0 23 
		T0 7 
		P 17 
		N 11 
		C0 24 
		T0 4 
		P 18 
		N 12 
		C0 25 
		T0 5 
		P 16 
		N 10 
		C0 26 
		T0 6 
		P 19 
		N 13 
		C0 27 
		T0 7 
		P 19 
		N 13 
		C0 28 
		T0 4 
		P 20 
		N 14 
		C0 29 
		T0 5 
		P 18 
		N 12 
		C0 30 
		T0 6 
		P 21 
		N 15 
		C0 31 
		T0 7 
		P 21 
		N 15 
		C0 32 
		T0 4 
		P 22 
		N 16 
		C0 33 
		T0 5 
		P 20 
		N 14 
		C0 34 
		T0 6 
		P 23 
		N 17 
		C0 35 
		T0 7 
		P 23 
		N 17 
		C0 36 
		T0 4 
		P 10 
		N 4 
		C0 37 
		T0 5 
		P 22 
		N 16 
		C0 38 
		T0 6 
		P 8 
		N 2 
		C0 39 
		T0 7 
	}

	Mtl 1 { 
		{
			Name "#0" 
			Priority 32 
			Prim 10 { 
				{
					Type TRISTRIP
					Priority 32 
					Idx 4 { 1 2 0 3 }
				}
				{
					Type TRISTRIP
					Priority 32 
					Idx 4 { 5 6 4 7 }
				}
				{
					Type TRISTRIP
					Priority 32 
					Idx 4 { 10 8 9 11 }
				}
				{
					Type TRISTRIP
					Priority 32 
					Idx 4 { 14 12 13 15 }
				}
				{
					Type TRISTRIP
					Priority 32 
					Idx 4 { 18 16 17 19 }
				}
				{
					Type TRISTRIP
					Priority 32 
					Idx 4 { 22 20 21 23 }
				}
				{
					Type TRISTRIP
					Priority 32 
					Idx 4 { 26 24 25 27 }
				}
				{
					Type TRISTRIP
					Priority 32 
					Idx 4 { 30 28 29 31 }
				}
				{
					Type TRISTRIP
					Priority 32 
					Idx 4 { 34 32 33 35 }
				}
				{
					Type TRISTRIP
					Priority 32 
					Idx 4 { 38 36 37 39 }
				}
			}

		}
	}

	Offset 0 
}
