{
	Skinned 0 
	PosSkin 0 
	Pos 24 { 
		-1.222172	2.959306	-1.652142 
		-0.885525	2.959306	-1.652142 
		-0.980177	3.050138	-1.688978 
		-1.127520	3.050138	-1.688978 
		-1.127520	3.050138	-2.167667 
		-1.222172	2.959306	-2.167667 
		-0.980177	3.050138	-2.167667 
		-0.885525	2.959306	-2.167667 
		-1.222172	2.959306	-2.683193 
		-1.127520	3.050138	-2.646356 
		-0.980177	3.050138	-2.646356 
		-0.885525	2.959306	-2.683193 
		-1.154089	2.868474	-1.688979 
		-0.953609	2.868474	-1.688979 
		-1.154089	2.815807	-1.688979 
		-0.953609	2.815807	-1.688979 
		-0.953609	2.815807	-2.167667 
		-0.953609	2.868474	-2.167667 
		-1.154089	2.868474	-2.167667 
		-1.154089	2.815807	-2.167667 
		-1.154089	2.868474	-2.646356 
		-0.953609	2.868474	-2.646356 
		-0.953609	2.815807	-2.646356 
		-1.154089	2.815807	-2.646356 
	}

	Nrm 21 { 
		-0.437500	0.687500	0.578125 
		0.437500	0.687500	0.578125 
		0.296875	0.875000	0.390625 
		-0.296875	0.875000	0.390625 
		-0.375000	0.921875	0.000000 
		-0.687500	0.718750	0.000000 
		0.375000	0.921875	0.000000 
		0.687500	0.718750	0.000000 
		-0.437500	0.687500	-0.578125 
		-0.296875	0.875000	-0.390625 
		0.296875	0.875000	-0.390625 
		0.437500	0.687500	-0.578125 
		0.000000	-0.375000	0.921875 
		0.000000	0.000000	1.000000 
		1.000000	0.000000	0.000000 
		0.796875	-0.593750	0.000000 
		0.000000	1.000000	0.000000 
		-1.000000	0.000000	0.000000 
		-0.796875	-0.593750	0.000000 
		0.000000	-0.375000	-0.921875 
		0.000000	0.000000	-1.000000 
	}

	Cpv 58 { 
		0.500000	0.500000	0.500000	0.003922 
		0.500000	0.500000	0.500000	0.003922 
		0.500000	0.500000	0.500000	0.003922 
		0.500000	0.500000	0.500000	0.003922 
		0.500000	0.500000	0.500000	0.003922 
		0.500000	0.500000	0.500000	0.003922 
		0.500000	0.500000	0.500000	0.003922 
		0.500000	0.500000	0.500000	0.003922 
		0.500000	0.458985	0.500000	0.003922 
		0.500000	0.458985	0.500000	0.003922 
		0.500000	0.458985	0.500000	0.003922 
		0.500000	0.458985	0.500000	0.003922 
		0.500000	0.500000	0.500000	0.003922 
		0.500000	0.500000	0.500000	0.003922 
		0.500000	0.500000	0.500000	0.003922 
		0.500000	0.500000	0.500000	0.003922 
		0.500000	0.500000	0.500000	0.003922 
		0.500000	0.500000	0.500000	0.003922 
		0.500000	0.500000	0.500000	0.003922 
		0.500000	0.500000	0.500000	0.003922 
		0.500000	0.500000	0.500000	0.003922 
		0.500000	0.500000	0.500000	0.003922 
		0.500000	0.500000	0.500000	0.003922 
		0.500000	0.500000	0.500000	0.003922 
		0.500000	0.500000	0.500000	0.003922 
		0.500000	0.500000	0.500000	0.003922 
		0.500000	0.500000	0.500000	0.003922 
		0.500000	0.500000	0.500000	0.003922 
		0.500000	0.500000	0.500000	0.003922 
		0.500000	0.500000	0.500000	0.003922 
		0.500000	0.500000	0.500000	0.003922 
		0.500000	0.500000	0.500000	0.003922 
		0.500000	0.500000	0.500000	0.003922 
		0.500000	0.500000	0.500000	0.003922 
		0.500000	0.500000	0.500000	0.003922 
		0.500000	0.500000	0.500000	0.003922 
		0.500000	0.500000	0.500000	0.003922 
		0.500000	0.500000	0.500000	0.003922 
		0.500000	0.500000	0.500000	0.003922 
		0.500000	0.500000	0.500000	0.003922 
		0.500000	0.458985	0.500000	0.003922 
		0.500000	0.458985	0.500000	0.003922 
		0.500000	0.458985	0.500000	0.003922 
		0.500000	0.458985	0.500000	0.003922 
		0.500000	0.458985	0.500000	0.003922 
		0.500000	0.458985	0.500000	0.003922 
		0.500000	0.458985	0.500000	0.003922 
		0.500000	0.458985	0.500000	0.003922 
		0.500000	0.458985	0.500000	0.003922 
		0.500000	0.458985	0.500000	0.003922 
		0.500000	0.458985	0.500000	0.003922 
		0.500000	0.458985	0.500000	0.003922 
		0.500000	0.458985	0.500000	0.003922 
		0.500000	0.458985	0.500000	0.003922 
		0.500000	0.458985	0.500000	0.003922 
		0.500000	0.458985	0.500000	0.003922 
		0.500000	0.458985	0.500000	0.003922 
		0.500000	0.458985	0.500000	0.003922 
	}

	Tex0 25 { 
		0.909180	0.469727 
		0.909180	0.454102 
		0.910156	0.458008 
		0.910156	0.464844 
		0.931641	0.464844 
		0.931641	0.469727 
		0.931641	0.458008 
		0.931641	0.454102 
		0.230469	0.283203 
		0.219727	0.283203 
		0.215820	0.275391 
		0.233398	0.275391 
		0.391602	0.769531 
		0.391602	0.820313 
		0.348633	0.820313 
		0.348633	0.769531 
		0.348633	0.881836 
		0.391602	0.881836 
		0.182617	0.283203 
		0.184570	0.275391 
		0.215820	0.283203 
		0.066406	0.438477 
		0.066406	0.467773 
		0.005859	0.467773 
		0.005859	0.438477 
	}

	Tex1 0 
	Adj 58 { 
		P 0 
		N 0 
		C0 0 
		T0 0 
		P 1 
		N 1 
		C0 1 
		T0 1 
		P 2 
		N 2 
		C0 2 
		T0 2 
		P 3 
		N 3 
		C0 3 
		T0 3 
		P 4 
		N 4 
		C0 4 
		T0 4 
		P 5 
		N 5 
		C0 5 
		T0 5 
		P 6 
		N 6 
		C0 6 
		T0 6 
		P 7 
		N 7 
		C0 7 
		T0 7 
		P 8 
		N 8 
		C0 8 
		T0 0 
		P 9 
		N 9 
		C0 9 
		T0 3 
		P 10 
		N 10 
		C0 10 
		T0 2 
		P 11 
		N 11 
		C0 11 
		T0 1 
		P 12 
		N 12 
		C0 12 
		T0 8 
		P 13 
		N 12 
		C0 13 
		T0 9 
		P 1 
		N 12 
		C0 14 
		T0 10 
		P 0 
		N 12 
		C0 15 
		T0 11 
		P 13 
		N 13 
		C0 16 
		T0 12 
		P 12 
		N 13 
		C0 17 
		T0 13 
		P 14 
		N 13 
		C0 18 
		T0 14 
		P 15 
		N 13 
		C0 19 
		T0 15 
		P 15 
		N 14 
		C0 20 
		T0 15 
		P 16 
		N 14 
		C0 21 
		T0 16 
		P 17 
		N 14 
		C0 22 
		T0 17 
		P 13 
		N 14 
		C0 23 
		T0 12 
		P 1 
		N 15 
		C0 24 
		T0 18 
		P 13 
		N 15 
		C0 25 
		T0 19 
		P 17 
		N 15 
		C0 26 
		T0 10 
		P 7 
		N 15 
		C0 27 
		T0 20 
		P 1 
		N 16 
		C0 28 
		T0 21 
		P 7 
		N 16 
		C0 29 
		T0 22 
		P 5 
		N 16 
		C0 30 
		T0 23 
		P 0 
		N 16 
		C0 31 
		T0 24 
		P 18 
		N 17 
		C0 32 
		T0 17 
		P 19 
		N 17 
		C0 33 
		T0 16 
		P 14 
		N 17 
		C0 34 
		T0 15 
		P 12 
		N 17 
		C0 35 
		T0 12 
		P 5 
		N 18 
		C0 36 
		T0 20 
		P 18 
		N 18 
		C0 37 
		T0 10 
		P 12 
		N 18 
		C0 38 
		T0 19 
		P 0 
		N 18 
		C0 39 
		T0 18 
		P 20 
		N 19 
		C0 40 
		T0 8 
		P 8 
		N 19 
		C0 41 
		T0 11 
		P 11 
		N 19 
		C0 42 
		T0 10 
		P 21 
		N 19 
		C0 43 
		T0 9 
		P 21 
		N 20 
		C0 44 
		T0 12 
		P 22 
		N 20 
		C0 45 
		T0 15 
		P 23 
		N 20 
		C0 46 
		T0 14 
		P 20 
		N 20 
		C0 47 
		T0 13 
		P 22 
		N 14 
		C0 48 
		T0 15 
		P 21 
		N 14 
		C0 49 
		T0 12 
		P 11 
		N 15 
		C0 50 
		T0 18 
		P 21 
		N 15 
		C0 51 
		T0 19 
		P 11 
		N 16 
		C0 52 
		T0 21 
		P 8 
		N 16 
		C0 53 
		T0 24 
		P 20 
		N 17 
		C0 54 
		T0 12 
		P 23 
		N 17 
		C0 55 
		T0 15 
		P 8 
		N 18 
		C0 56 
		T0 18 
		P 20 
		N 18 
		C0 57 
		T0 19 
	}

	Mtl 1 { 
		{
			Name "#2" 
			Priority 32 
			Prim 11 { 
				{
					Type TRISTRIP
					Priority 32 
					Idx 4 { 12 13 15 14 }
				}
				{
					Type TRISTRIP
					Priority 32 
					Idx 4 { 18 19 17 16 }
				}
				{
					Type TRISTRIP
					Priority 32 
					Idx 6 { 23 20 22 21 49 48 }
				}
				{
					Type TRISTRIP
					Priority 32 
					Idx 6 { 24 25 27 26 50 51 }
				}
				{
					Type TRISTRIP
					Priority 32 
					Idx 4 { 40 41 43 42 }
				}
				{
					Type TRISTRIP
					Priority 32 
					Idx 4 { 46 47 45 44 }
				}
				{
					Type TRISTRIP
					Priority 32 
					Idx 7 { 57 37 56 37 36 38 39 }
				}
				{
					Type TRISTRIP2
					Priority 32 
					Idx 6 { 28 31 29 30 52 53 }
				}
				{
					Type TRISTRIP2
					Priority 32 
					Idx 6 { 35 34 32 33 54 55 }
				}
				{
					Type TRISTRIP2
					Priority 32 
					Idx 20 { 8 9 5 4 0 3 0 2 1 2 7 2 6 3 6 4 10 9 11 8 }
				}
				{
					Type TRISTRIP2
					Priority 32 
					Idx 4 { 10 11 6 7 }
				}
			}

		}
	}

	Offset 0 
}
