{
	Skinned 0 
	PosSkin 0 
	Pos 192 { 
		-0.870931	0.375668	-1.669155 
		-0.817269	0.256767	-1.923212 
		-0.838057	0.223513	-1.675418 
		-0.844291	0.497774	-1.946412 
		-0.890359	0.513445	-1.612043 
		-0.904668	0.622966	-1.386144 
		-0.848312	0.717040	-1.852712 
		-0.856666	0.524615	-1.907984 
		-0.907079	0.817247	-0.787162 
		-0.904668	0.574503	-1.160635 
		-0.906000	0.566282	-1.017726 
		-0.893786	0.424357	-1.020465 
		-0.838769	0.187709	-0.971809 
		-0.839856	0.209836	0.952689 
		-0.896658	0.462464	1.006722 
		-0.928787	0.503338	2.297451 
		-0.915765	0.498235	1.654720 
		-0.838900	0.282884	1.698357 
		-0.819297	0.357614	2.277715 
		-0.931729	0.589630	2.301198 
		-0.918073	0.613477	2.263074 
		-0.917372	0.579426	1.578226 
		-0.893007	0.910584	1.122494 
		-0.907622	0.852717	2.254198 
		-0.868829	0.970761	2.207849 
		-0.849185	1.006322	1.531851 
		-0.922271	0.749470	2.258029 
		-0.916693	0.653105	1.375212 
		-0.907327	0.609949	1.144597 
		-0.858192	0.995311	1.079604 
		-0.875593	0.926967	2.251444 
		-0.762414	1.081765	-0.495302 
		-0.857335	0.888275	-0.709036 
		-0.758149	1.159609	1.037290 
		-0.634524	1.332294	-0.124864 
		-0.657481	1.286651	-0.251763 
		-0.633299	1.330690	0.976027 
		-0.792734	0.497575	-1.969591 
		-0.776775	0.249355	-1.944678 
		-0.794352	0.524491	-1.937231 
		-0.845685	0.503368	2.329846 
		-0.801741	0.716339	-1.885849 
		-0.802288	0.768571	-1.855703 
		-0.785648	0.907772	-0.734954 
		-0.844158	0.613302	2.303884 
		-0.845238	0.589270	2.341646 
		-0.744871	1.187048	1.369695 
		-0.794575	1.009970	1.577731 
		-0.700772	1.193220	1.409841 
		-0.600333	1.329746	1.195519 
		-0.625842	1.315819	1.174726 
		-0.595894	1.354578	0.977134 
		-0.587753	1.355264	-0.127857 
		-0.606621	1.305705	-0.267651 
		-0.707103	1.098440	-0.536642 
		0.000000	0.497746	-2.002285 
		0.000000	0.249526	-1.977372 
		-0.482520	0.524558	-1.950065 
		0.000000	0.524662	-1.969923 
		0.000000	0.360995	2.305634 
		0.000000	0.504682	2.350394 
		0.000000	0.591189	2.364992 
		-0.526832	0.716557	-1.898302 
		0.000000	0.774018	-1.891546 
		0.000000	0.716975	-1.922167 
		0.000000	0.927429	-0.794756 
		-0.661154	0.610652	2.306257 
		0.000000	0.601177	2.314741 
		-0.816776	0.926865	2.296343 
		0.000000	0.926907	2.328054 
		0.000000	0.984753	2.287927 
		-0.829569	0.973090	2.237886 
		0.000000	0.741878	2.320493 
		-0.701399	0.753666	2.303621 
		0.000000	1.020198	1.611476 
		0.000000	1.196600	1.445681 
		0.000000	1.349061	1.220253 
		0.000000	1.364216	0.977242 
		0.000000	1.365130	-0.143897 
		0.000000	1.329535	-0.285662 
		0.000000	1.126766	-0.575203 
		-0.831708	0.755877	2.300456 
		-1.005888	0.970020	-1.300103 
		-0.876529	0.979639	-1.337112 
		-0.881907	0.888936	-1.336503 
		-1.004332	0.901489	-1.300103 
		-0.997616	0.970020	-1.269230 
		-0.996059	0.901489	-1.269229 
		-0.873635	0.888936	-1.305631 
		-0.868256	0.979639	-1.306239 
		-0.803719	0.807894	-1.344533 
		-0.836178	0.798553	-1.338539 
		-0.827906	0.798553	-1.307667 
		-0.795447	0.807894	-1.313661 
		0.870931	0.375668	-1.669155 
		0.838057	0.223513	-1.675418 
		0.817269	0.256767	-1.923212 
		0.844291	0.497774	-1.946413 
		0.890359	0.513445	-1.612043 
		0.904669	0.622965	-1.386144 
		0.856666	0.524615	-1.907984 
		0.848312	0.717040	-1.852711 
		0.907079	0.817247	-0.787162 
		0.906000	0.566282	-1.017726 
		0.904669	0.574503	-1.160635 
		0.893786	0.424357	-1.020465 
		0.896658	0.462464	1.006722 
		0.839856	0.209836	0.952689 
		0.838769	0.187709	-0.971810 
		0.928787	0.503338	2.297451 
		0.819297	0.357614	2.277715 
		0.838900	0.282884	1.698357 
		0.915766	0.498235	1.654720 
		0.931729	0.589630	2.301198 
		0.917372	0.579426	1.578226 
		0.918073	0.613477	2.263074 
		0.893007	0.910584	1.122494 
		0.849185	1.006322	1.531851 
		0.868829	0.970761	2.207849 
		0.907622	0.852717	2.254198 
		0.916693	0.653105	1.375212 
		0.922271	0.749470	2.258029 
		0.907327	0.609949	1.144597 
		0.858192	0.995311	1.079604 
		0.875593	0.926967	2.251444 
		0.762414	1.081765	-0.495302 
		0.758149	1.159609	1.037290 
		0.857335	0.888275	-0.709036 
		0.634524	1.332294	-0.124864 
		0.633299	1.330690	0.976027 
		0.657481	1.286651	-0.251763 
		0.792734	0.497575	-1.969591 
		0.776774	0.249355	-1.944678 
		0.794352	0.524491	-1.937231 
		0.845685	0.503368	2.329846 
		0.801741	0.716339	-1.885849 
		0.802288	0.768571	-1.855703 
		0.785648	0.907772	-0.734954 
		0.844158	0.613302	2.303884 
		0.845238	0.589270	2.341646 
		0.744871	1.187048	1.369695 
		0.700772	1.193220	1.409841 
		0.794575	1.009970	1.577731 
		0.600333	1.329746	1.195519 
		0.625842	1.315819	1.174726 
		0.595894	1.354578	0.977134 
		0.587752	1.355264	-0.127857 
		0.707103	1.098440	-0.536642 
		0.606621	1.305705	-0.267651 
		0.482520	0.524558	-1.950065 
		0.526832	0.716557	-1.898302 
		0.661154	0.610652	2.306257 
		0.816776	0.926865	2.296343 
		0.829569	0.973090	2.237886 
		0.701399	0.753666	2.303621 
		0.831708	0.755877	2.300456 
		1.005888	0.970020	-1.300102 
		1.004332	0.901489	-1.300103 
		0.881907	0.888936	-1.336503 
		0.876529	0.979639	-1.337111 
		0.997616	0.970020	-1.269230 
		0.868256	0.979639	-1.306239 
		0.873635	0.888936	-1.305631 
		0.996059	0.901489	-1.269229 
		0.836178	0.798553	-1.338539 
		0.803719	0.807894	-1.344533 
		0.795447	0.807894	-1.313661 
		0.827906	0.798553	-1.307667 
		-0.539404	0.223057	-1.675738 
		-0.539404	0.627182	-1.639674 
		-0.597363	0.635791	1.627622 
		-0.597363	0.281889	1.698624 
		-0.539403	0.665817	-1.076177 
		-0.539403	0.187714	-0.970316 
		-0.597364	0.211116	0.951362 
		-0.597363	0.605887	1.045905 
		0.539403	0.187714	-0.970316 
		0.597364	0.211116	0.951362 
		0.539404	0.223057	-1.675738 
		0.539404	0.627182	-1.639674 
		0.597363	0.281889	1.698624 
		0.597363	0.635790	1.627622 
		0.539403	0.665817	-1.076177 
		0.597363	0.605887	1.045905 
		-0.203183	1.353801	-0.027672 
		-0.167318	1.477669	0.004485 
		0.144544	1.477669	0.004485 
		0.180407	1.353801	-0.027672 
		-0.203183	1.353801	0.084209 
		0.180407	1.353801	0.084209 
		0.144544	1.477669	0.052053 
		-0.167318	1.477669	0.052052 
	}

	Nrm 228 { 
		-0.984375	-0.156250	-0.125000 
		-0.890625	-0.156250	-0.421875 
		-0.968750	-0.203125	-0.109375 
		-0.828125	0.078125	-0.546875 
		-0.984375	-0.093750	-0.125000 
		-1.000000	0.093750	-0.062500 
		-0.828125	0.359375	-0.421875 
		-0.828125	0.234375	-0.515625 
		-0.953125	0.281250	-0.046875 
		-1.000000	-0.046875	-0.015625 
		-1.000000	-0.031250	0.000000 
		-0.984375	-0.125000	0.000000 
		-0.968750	-0.218750	0.000000 
		-0.984375	-0.156250	0.000000 
		-0.796875	-0.281250	0.546875 
		-0.968750	-0.250000	0.000000 
		-0.890625	-0.453125	0.031250 
		-0.500000	-0.453125	0.734375 
		-0.812500	0.375000	0.437500 
		-0.812500	0.421875	0.421875 
		-0.984375	0.140625	-0.015625 
		-0.968750	0.234375	-0.015625 
		-0.859375	0.265625	0.421875 
		-0.687500	0.687500	0.265625 
		-0.734375	0.656250	0.125000 
		-0.859375	0.062500	0.515625 
		-1.000000	0.046875	-0.015625 
		-1.000000	0.000000	-0.015625 
		-0.890625	0.468750	-0.015625 
		-0.687500	0.468750	0.562500 
		-0.750000	0.625000	-0.203125 
		-0.687500	0.703125	-0.156250 
		-0.843750	0.546875	0.000000 
		-0.687500	0.718750	-0.062500 
		-0.625000	0.734375	-0.234375 
		-0.671875	0.734375	0.015625 
		-0.187500	0.468750	-0.859375 
		-0.171875	-0.109375	-0.984375 
		-0.218750	0.531250	-0.812500 
		-0.203125	-0.234375	0.953125 
		-0.281250	0.359375	-0.890625 
		-0.328125	0.765625	-0.546875 
		-0.234375	0.906250	-0.375000 
		-0.203125	0.515625	0.828125 
		-0.203125	0.453125	0.875000 
		-0.687500	0.703125	0.203125 
		-0.171875	0.921875	0.359375 
		-0.281250	0.796875	0.531250 
		-0.281250	0.921875	0.265625 
		-0.609375	0.781250	0.125000 
		-0.281250	0.953125	0.046875 
		-0.250000	0.953125	-0.140625 
		-0.265625	0.875000	-0.390625 
		-0.281250	0.781250	-0.562500 
		0.000000	0.203125	-0.984375 
		0.000000	-0.093750	-1.000000 
		-0.031250	0.531250	-0.843750 
		0.000000	0.531250	-0.843750 
		0.000000	-0.312500	0.953125 
		0.000000	-0.234375	0.968750 
		0.000000	0.718750	0.703125 
		-0.046875	0.375000	-0.921875 
		0.000000	0.828125	-0.562500 
		0.000000	0.375000	-0.937500 
		0.000000	0.906250	-0.421875 
		-0.015625	0.578125	0.812500 
		0.000000	0.625000	0.781250 
		-0.296875	0.312500	0.906250 
		0.000000	0.359375	0.937500 
		0.000000	0.906250	0.421875 
		-0.031250	0.906250	0.421875 
		0.000000	-0.015625	1.000000 
		-0.015625	0.000000	1.000000 
		0.000000	0.765625	0.640625 
		0.000000	0.953125	0.328125 
		0.000000	1.000000	0.046875 
		0.000000	0.984375	-0.140625 
		0.000000	0.890625	-0.437500 
		0.000000	0.781250	-0.625000 
		-0.234375	0.046875	0.968750 
		-0.734375	0.546875	-0.390625 
		0.156250	0.531250	-0.828125 
		-0.515625	-0.562500	-0.640625 
		-0.734375	-0.562500	-0.375000 
		0.281250	0.000000	0.953125 
		-0.703125	-0.687500	0.187500 
		-0.406250	-0.687500	0.609375 
		-0.718750	0.671875	0.187500 
		0.500000	0.750000	0.421875 
		0.515625	0.250000	-0.828125 
		-0.750000	-0.343750	-0.578125 
		-0.500000	-0.281250	0.812500 
		0.765625	0.312500	0.562500 
		-0.312500	0.890625	0.343750 
		0.984375	-0.156250	-0.125000 
		0.968750	-0.203125	-0.109375 
		0.890625	-0.156250	-0.421875 
		0.828125	0.078125	-0.546875 
		0.984375	-0.093750	-0.125000 
		1.000000	0.093750	-0.062500 
		0.828125	0.234375	-0.515625 
		0.828125	0.359375	-0.421875 
		0.953125	0.281250	-0.046875 
		1.000000	-0.031250	0.000000 
		1.000000	-0.046875	-0.015625 
		0.984375	-0.125000	0.000000 
		0.984375	-0.156250	0.000000 
		0.968750	-0.218750	0.000000 
		0.796875	-0.281250	0.546875 
		0.500000	-0.453125	0.734375 
		0.890625	-0.453125	0.031250 
		0.968750	-0.250000	0.000000 
		0.812500	0.375000	0.437500 
		0.984375	0.140625	-0.015625 
		0.812500	0.421875	0.421875 
		0.968750	0.234375	-0.015625 
		0.734375	0.656250	0.125000 
		0.687500	0.687500	0.265625 
		0.859375	0.265625	0.421875 
		1.000000	0.046875	-0.015625 
		0.859375	0.062500	0.515625 
		1.000000	0.000000	-0.015625 
		0.890625	0.468750	-0.015625 
		0.687500	0.468750	0.562500 
		0.750000	0.625000	-0.203125 
		0.843750	0.546875	0.000000 
		0.687500	0.703125	-0.156250 
		0.687500	0.718750	-0.062500 
		0.671875	0.734375	0.015625 
		0.625000	0.734375	-0.234375 
		0.187500	0.468750	-0.859375 
		0.171875	-0.109375	-0.984375 
		0.218750	0.531250	-0.812500 
		0.203125	-0.234375	0.953125 
		0.281250	0.359375	-0.890625 
		0.328125	0.765625	-0.546875 
		0.234375	0.906250	-0.375000 
		0.203125	0.515625	0.828125 
		0.203125	0.453125	0.875000 
		0.687500	0.703125	0.203125 
		0.281250	0.796875	0.531250 
		0.171875	0.921875	0.359375 
		0.281250	0.921875	0.265625 
		0.609375	0.781250	0.125000 
		0.281250	0.953125	0.046875 
		0.250000	0.953125	-0.140625 
		0.281250	0.781250	-0.562500 
		0.265625	0.875000	-0.390625 
		0.031250	0.531250	-0.843750 
		0.046875	0.375000	-0.921875 
		0.015625	0.578125	0.812500 
		0.296875	0.312500	0.906250 
		0.031250	0.906250	0.421875 
		0.015625	0.000000	1.000000 
		0.234375	0.046875	0.968750 
		0.734375	0.546875	-0.390625 
		0.734375	-0.562500	-0.375000 
		0.515625	-0.562500	-0.640625 
		-0.156250	0.531250	-0.828125 
		-0.281250	0.000000	0.953125 
		0.703125	-0.687500	0.187500 
		0.406250	-0.687500	0.609375 
		0.718750	0.671875	0.187500 
		-0.500000	0.750000	0.421875 
		0.750000	-0.343750	-0.578125 
		-0.515625	0.250000	-0.828125 
		-0.765625	0.312500	0.562500 
		0.500000	-0.281250	0.812500 
		0.312500	0.890625	0.343750 
		-0.031250	-1.000000	-0.109375 
		-0.015625	-1.000000	-0.093750 
		-0.015625	-1.000000	-0.078125 
		-0.718750	-0.046875	0.703125 
		-0.265625	-0.531250	0.796875 
		0.093750	-0.218750	0.968750 
		-0.015625	-0.078125	1.000000 
		0.187500	-0.750000	0.625000 
		0.000000	-0.203125	-0.984375 
		0.125000	-0.453125	-0.890625 
		-0.171875	-0.812500	-0.562500 
		-0.703125	-0.140625	-0.687500 
		0.000000	-1.000000	0.125000 
		0.000000	-0.984375	0.125000 
		-0.078125	-0.843750	-0.515625 
		0.218750	-0.968750	-0.015625 
		0.312500	-0.828125	-0.468750 
		-0.703125	-0.156250	-0.687500 
		0.000000	-0.218750	-0.984375 
		0.171875	-0.437500	-0.875000 
		0.000000	-1.000000	0.015625 
		0.000000	-1.000000	-0.015625 
		0.000000	-1.000000	0.046875 
		-0.312500	-0.687500	0.656250 
		0.109375	-0.453125	0.875000 
		-0.015625	-0.218750	0.968750 
		-0.703125	-0.156250	0.687500 
		0.218750	-0.812500	-0.531250 
		0.078125	-0.984375	-0.125000 
		0.093750	-0.890625	0.437500 
		0.000000	-1.000000	-0.093750 
		0.031250	-1.000000	-0.109375 
		0.015625	-1.000000	-0.078125 
		0.015625	-1.000000	-0.093750 
		0.718750	-0.046875	0.703125 
		0.015625	-0.078125	1.000000 
		-0.093750	-0.218750	0.968750 
		0.265625	-0.531250	0.796875 
		-0.187500	-0.750000	0.625000 
		0.703125	-0.140625	-0.687500 
		0.171875	-0.812500	-0.562500 
		-0.125000	-0.453125	-0.890625 
		0.078125	-0.843750	-0.515625 
		-0.218750	-0.968750	-0.015625 
		-0.312500	-0.828125	-0.468750 
		-0.171875	-0.437500	-0.875000 
		0.703125	-0.156250	-0.687500 
		0.312500	-0.687500	0.656250 
		0.703125	-0.156250	0.687500 
		0.015625	-0.218750	0.968750 
		-0.109375	-0.453125	0.875000 
		-0.078125	-0.984375	-0.125000 
		-0.218750	-0.812500	-0.531250 
		-0.093750	-0.890625	0.437500 
		0.000000	0.250000	-0.968750 
		0.000000	0.250000	0.968750 
		0.953125	0.281250	0.000000 
		0.000000	1.000000	0.000000 
		-0.953125	0.281250	0.000000 
	}

	Cpv 331 { 
		0.500000	0.500000	0.500000	0.000000 
		0.500000	0.500000	0.605436	0.000000 
		0.500000	0.500000	0.500000	0.000000 
		0.500000	0.495919	0.568819	0.000000 
		0.500000	0.500000	0.500000	0.000000 
		0.500000	0.500000	0.500000	0.000000 
		0.500000	0.514523	0.491717	0.000000 
		0.500000	0.507039	0.557889	0.000000 
		0.536055	0.484779	0.511727	0.000000 
		0.500000	0.544992	0.500000	0.000000 
		0.621767	0.500000	0.500000	0.000000 
		0.500000	0.500000	0.500000	0.000000 
		0.500000	0.500000	0.500000	0.000000 
		0.500000	0.559163	0.428259	0.000000 
		0.515160	0.578637	0.484056	0.000000 
		0.500000	0.501352	0.490211	0.000000 
		0.500000	0.500000	0.500000	0.000000 
		0.500000	0.500000	0.500000	0.000000 
		0.500000	0.507474	0.463727	0.000000 
		0.500000	0.499188	0.506029	0.000000 
		0.500000	0.505797	0.511070	0.000000 
		0.500000	0.500000	0.500000	0.000000 
		0.429822	0.500000	0.500000	0.000000 
		0.531831	0.506121	0.495080	0.000000 
		0.532333	0.443252	0.459764	0.000000 
		0.500000	0.500000	0.500000	0.000000 
		0.500000	0.504403	0.536186	0.000000 
		0.500000	0.500000	0.500000	0.000000 
		0.484840	0.533012	0.515944	0.000000 
		0.500000	0.500000	0.500000	0.000000 
		0.535976	0.503750	0.506288	0.000000 
		0.557683	0.500000	0.500000	0.000000 
		0.504696	0.515221	0.488273	0.000000 
		0.429822	0.500000	0.500000	0.000000 
		0.496955	0.434319	0.500000	0.000000 
		0.513087	0.429329	0.500000	0.000000 
		0.500000	0.500000	0.500000	0.000000 
		0.500000	0.488328	0.570167	0.000000 
		0.500000	0.500000	0.605436	0.000000 
		0.500000	0.500000	0.605436	0.000000 
		0.500000	0.495919	0.568819	0.000000 
		0.500000	0.497453	0.559548	0.000000 
		0.500000	0.507039	0.557889	0.000000 
		0.500000	0.507474	0.463727	0.000000 
		0.500000	0.495389	0.489663	0.000000 
		0.500000	0.501352	0.490211	0.000000 
		0.500000	0.503693	0.493780	0.000000 
		0.500000	0.510691	0.474980	0.000000 
		0.500000	0.500000	0.500000	0.000000 
		0.500000	0.510691	0.474980	0.000000 
		0.504696	0.515221	0.488273	0.000000 
		0.500000	0.498289	0.435064	0.000000 
		0.500000	0.505797	0.511070	0.000000 
		0.500000	0.499188	0.506029	0.000000 
		0.500000	0.491749	0.429996	0.000000 
		0.500000	0.500000	0.500000	0.000000 
		0.500000	0.500000	0.500000	0.000000 
		0.500000	0.500000	0.500000	0.000000 
		0.500000	0.500000	0.500000	0.000000 
		0.500000	0.500000	0.500000	0.000000 
		0.500000	0.500000	0.500000	0.000000 
		0.500000	0.500000	0.500000	0.000000 
		0.500000	0.500000	0.500000	0.000000 
		0.500000	0.500000	0.500000	0.000000 
		0.500000	0.500000	0.500000	0.000000 
		0.486913	0.448311	0.500000	0.000000 
		0.496955	0.434319	0.500000	0.000000 
		0.513087	0.429329	0.500000	0.000000 
		0.504098	0.444868	0.500000	0.000000 
		0.557683	0.500000	0.500000	0.000000 
		0.557683	0.500000	0.500000	0.000000 
		0.513087	0.429329	0.500000	0.000000 
		0.504098	0.444868	0.500000	0.000000 
		0.500000	0.500000	0.578233	1.000000 
		0.500000	0.535474	0.500000	0.000000 
		0.500000	0.500000	0.500000	0.000000 
		0.500000	0.500000	0.578233	0.000000 
		0.500000	0.500000	0.390067	0.000000 
		0.500000	0.500000	0.390067	0.000000 
		0.616897	0.500000	0.356894	0.000000 
		0.500000	0.500000	0.500000	0.000000 
		0.500000	0.453783	0.500000	0.000000 
		0.500000	0.453783	0.500000	0.000000 
		0.500000	0.503693	0.493780	0.000000 
		0.500000	0.422222	0.500000	0.000000 
		0.500000	0.497898	0.509812	0.000000 
		0.616897	0.500000	0.356894	0.000000 
		0.536121	0.493447	0.504870	0.000000 
		0.500000	0.500000	0.390067	0.000000 
		0.500000	0.500000	0.390067	0.000000 
		0.532333	0.443252	0.459764	0.000000 
		0.500000	0.552666	0.390067	0.000000 
		0.500000	0.495939	0.536179	0.000000 
		0.500000	0.500000	0.500000	0.000000 
		0.500000	0.458520	0.500000	0.000000 
		0.500000	0.458520	0.500000	0.000000 
		0.500000	0.500000	0.500000	0.000000 
		0.500000	0.458520	0.500000	0.000000 
		0.500000	0.500000	0.500000	0.000000 
		0.500000	0.432522	0.500000	0.000000 
		0.500000	0.432522	0.500000	0.000000 
		0.500000	0.432522	0.500000	0.000000 
		0.500000	0.500000	0.500000	0.000000 
		0.500000	0.500000	0.500000	0.000000 
		0.500000	0.500000	0.500000	0.000000 
		0.504696	0.515221	0.488273	0.000000 
		0.500000	0.422222	0.500000	0.000000 
		0.500000	0.514523	0.491717	0.000000 
		0.500000	0.495939	0.536179	0.000000 
		0.531831	0.506121	0.495080	0.000000 
		0.500000	0.504403	0.536186	0.000000 
		0.535976	0.503750	0.506288	0.000000 
		0.470881	0.366735	0.500000	0.000000 
		0.419433	0.434430	0.500000	0.000000 
		0.468779	0.445617	0.518958	0.000000 
		0.493983	0.366836	0.500000	0.000000 
		0.469599	0.371159	0.500000	0.000000 
		0.492700	0.371260	0.500000	0.000000 
		0.467496	0.450041	0.500000	0.000000 
		0.418150	0.438855	0.500000	0.000000 
		0.492700	0.371260	0.500000	0.000000 
		0.467496	0.450041	0.500000	0.000000 
		0.469599	0.371159	0.500000	0.000000 
		0.418150	0.438855	0.500000	0.000000 
		0.500000	0.500000	0.500000	0.000000 
		0.510028	0.484088	0.500000	0.000000 
		0.508746	0.488512	0.500000	0.000000 
		0.498717	0.504424	0.500000	0.000000 
		0.532333	0.443252	0.459764	0.000000 
		0.532333	0.443252	0.459764	0.000000 
		0.532333	0.443252	0.459764	0.000000 
		0.535976	0.503750	0.506288	0.000000 
		0.500000	0.500000	0.500000	0.000000 
		0.500000	0.500000	0.500000	0.000000 
		0.500000	0.561464	0.500000	0.000000 
		0.500000	0.477559	0.530599	0.000000 
		0.448762	0.551465	0.500000	0.000000 
		0.448762	0.551465	0.500000	0.000000 
		0.500000	0.477559	0.530599	0.000000 
		0.500000	0.500000	0.521493	0.000000 
		0.500000	0.500000	0.500000	0.000000 
		0.541333	0.557982	0.500000	0.000000 
		0.541333	0.557982	0.500000	0.000000 
		0.588412	0.557982	0.500000	0.000000 
		0.509597	0.509689	0.500000	0.000000 
		0.567511	0.500000	0.500000	0.000000 
		0.541333	0.557982	0.500000	0.000000 
		0.500000	0.500000	0.531348	0.000000 
		0.500000	0.541941	0.500000	0.000000 
		0.500000	0.500000	0.500000	0.000000 
		0.500000	0.500000	0.500000	0.000000 
		0.500000	0.500000	0.500000	0.000000 
		0.500000	0.500000	0.500000	0.000000 
		0.500000	0.500000	0.500000	0.000000 
		0.395789	0.500000	0.500000	0.000000 
		0.500000	0.500000	0.500000	0.000000 
		0.500000	0.500000	0.500000	0.000000 
		0.500000	0.500000	0.473937	0.000000 
		0.500000	0.554014	0.500000	0.000000 
		0.500000	0.500000	0.473937	0.000000 
		0.572782	0.544325	0.500000	0.000000 
		0.395789	0.500000	0.500000	0.000000 
		0.500000	0.500000	0.500000	0.000000 
		0.444380	0.500000	0.500000	0.000000 
		0.395789	0.500000	0.500000	0.000000 
		0.500000	0.500000	0.500000	0.000000 
		0.500000	0.500000	0.500000	0.000000 
		0.500000	0.417572	0.500000	0.000000 
		0.500000	0.500000	0.500000	0.000000 
		0.500000	0.477559	0.530599	0.000000 
		0.500000	0.477559	0.530599	0.000000 
		0.500000	0.561464	0.500000	0.000000 
		0.500000	0.588550	0.500000	0.000000 
		0.500000	0.477559	0.530599	0.000000 
		0.500000	0.477559	0.530599	0.000000 
		0.500000	0.541941	0.500000	0.000000 
		0.500000	0.500000	0.531348	0.000000 
		0.500000	0.500000	0.531348	0.000000 
		0.500000	0.500000	0.521493	0.000000 
		0.500000	0.500000	0.521493	0.000000 
		0.500000	0.500000	0.500000	0.000000 
		0.500000	0.500000	0.500000	0.000000 
		0.500000	0.500000	0.521493	0.000000 
		0.500000	0.500000	0.500000	0.000000 
		0.500000	0.500000	0.500000	0.000000 
		0.500000	0.500000	0.500000	0.000000 
		0.500000	0.500000	0.500000	0.000000 
		0.412150	0.500000	0.500000	0.000000 
		0.412150	0.500000	0.500000	0.000000 
		0.500000	0.500000	0.500000	0.000000 
		0.500000	0.500000	0.500000	0.000000 
		0.500000	0.455012	0.500000	0.000000 
		0.500000	0.455012	0.500000	0.000000 
		0.500000	0.455012	0.500000	0.000000 
		0.500000	0.455012	0.500000	0.000000 
		0.500000	0.455012	0.500000	0.000000 
		0.500000	0.417572	0.500000	0.000000 
		0.500000	0.500000	0.500000	0.000000 
		0.500000	0.500000	0.500000	0.000000 
		0.500000	0.500000	0.500000	0.000000 
		0.444380	0.500000	0.500000	0.000000 
		0.444380	0.500000	0.500000	0.000000 
		0.500000	0.500000	0.500000	0.000000 
		0.500000	0.500000	0.500000	0.000000 
		0.500000	0.500000	0.500000	0.000000 
		0.500000	0.500000	0.500000	0.000000 
		0.500000	0.500000	0.500000	0.000000 
		0.500000	0.500000	0.521493	0.000000 
		0.481959	0.509061	0.441209	0.000000 
		0.500000	0.500000	0.500000	0.000000 
		0.500000	0.500000	0.500000	0.000000 
		0.518041	0.490939	0.469450	0.000000 
		0.412150	0.500000	0.500000	0.000000 
		0.500000	0.455012	0.500000	0.000000 
		0.500000	0.500000	0.500000	0.000000 
		0.500000	0.500000	0.500000	0.000000 
		0.500000	0.500000	0.521493	0.000000 
		0.500000	0.500000	0.469031	0.000000 
		0.500000	0.500000	0.473937	0.000000 
		0.500000	0.500000	0.473937	0.000000 
		0.500000	0.500000	0.500000	0.000000 
		0.467697	0.481138	0.500000	0.000000 
		0.500000	0.500000	0.500000	0.000000 
		0.500000	0.500000	0.500000	0.000000 
		0.500000	0.458520	0.500000	0.000000 
		0.467697	0.481138	0.500000	0.000000 
		0.500000	0.458520	0.500000	0.000000 
		0.500000	0.500000	0.500000	0.000000 
		0.500000	0.500000	0.500000	0.000000 
		0.500000	0.500000	0.500000	0.000000 
		0.500000	0.500000	0.500000	0.000000 
		0.467697	0.481138	0.500000	0.000000 
		0.500000	0.458520	0.500000	0.000000 
		0.473382	0.482561	0.500000	0.000000 
		0.473382	0.482561	0.500000	0.000000 
		0.473382	0.482561	0.500000	0.000000 
		0.500000	0.500000	0.500000	0.000000 
		0.500000	0.500000	0.500000	0.000000 
		0.500000	0.500000	0.500000	0.000000 
		0.500000	0.500000	0.500000	0.000000 
		0.500000	0.500000	0.500000	0.000000 
		0.500000	0.500000	0.500000	0.000000 
		0.500000	0.500000	0.605436	0.000000 
		0.500000	0.500000	0.605436	0.000000 
		0.500000	0.500000	0.500000	0.000000 
		0.500000	0.500000	0.500000	0.000000 
		0.500000	0.500000	0.500000	0.000000 
		0.500000	0.500000	0.500000	0.000000 
		0.500000	0.500000	0.500000	0.000000 
		0.500000	0.500000	0.500000	0.000000 
		0.500000	0.500000	0.500000	0.000000 
		0.500000	0.500000	0.500000	0.000000 
		0.500000	0.500000	0.500000	0.000000 
		0.500000	0.500000	0.500000	0.000000 
		0.500000	0.500000	0.500000	0.000000 
		0.500000	0.500000	0.390067	0.000000 
		0.500000	0.507474	0.463727	0.000000 
		0.500000	0.500000	0.500000	0.000000 
		0.500000	0.500000	0.500000	0.000000 
		0.500000	0.500000	0.500000	0.000000 
		0.500000	0.544992	0.500000	0.000000 
		0.500000	0.500000	0.500000	0.000000 
		0.500000	0.500000	0.500000	0.000000 
		0.500000	0.500000	0.500000	0.000000 
		0.500000	0.559163	0.428259	0.000000 
		0.500000	0.500000	0.500000	0.000000 
		0.500000	0.500000	0.500000	0.000000 
		0.500000	0.559163	0.428259	0.000000 
		0.500000	0.500000	0.500000	0.000000 
		0.515160	0.578637	0.484056	0.000000 
		0.500000	0.559163	0.428259	0.000000 
		0.500000	0.559163	0.428259	0.000000 
		0.500000	0.500000	0.500000	0.000000 
		0.500000	0.500000	0.500000	0.000000 
		0.484840	0.533012	0.515944	0.000000 
		0.500000	0.535474	0.500000	0.000000 
		0.500000	0.500000	0.500000	0.000000 
		0.500000	0.500000	0.500000	0.000000 
		0.500000	0.500000	0.500000	0.000000 
		0.500000	0.500000	0.500000	0.000000 
		0.500000	0.588550	0.500000	0.000000 
		0.500000	0.561464	0.500000	0.000000 
		0.500000	0.500000	0.500000	0.000000 
		0.500000	0.500000	0.500000	0.000000 
		0.500000	0.500000	0.500000	0.000000 
		0.500000	0.500000	0.500000	0.000000 
		0.448762	0.551465	0.500000	0.000000 
		0.500000	0.500000	0.500000	0.000000 
		0.500000	0.500000	0.500000	0.000000 
		0.500000	0.500000	0.500000	0.000000 
		0.500000	0.500000	0.500000	0.000000 
		0.500000	0.500000	0.500000	0.000000 
		0.500000	0.500000	0.500000	0.000000 
		0.500000	0.541941	0.500000	0.000000 
		0.500000	0.500000	0.500000	0.000000 
		0.448762	0.551465	0.500000	0.000000 
		0.541333	0.557982	0.500000	0.000000 
		0.588412	0.557982	0.500000	0.000000 
		0.541333	0.557982	0.500000	0.000000 
		0.500000	0.500000	0.500000	0.000000 
		0.567511	0.500000	0.500000	0.000000 
		0.541333	0.557982	0.500000	0.000000 
		0.500000	0.500000	0.500000	0.000000 
		0.500000	0.500000	0.500000	0.000000 
		0.567511	0.500000	0.500000	0.000000 
		0.509597	0.509689	0.500000	0.000000 
		0.500000	0.554014	0.500000	0.000000 
		0.500000	0.500000	0.500000	0.000000 
		0.572782	0.544325	0.500000	0.000000 
		0.501160	0.476774	0.568451	0.000000 
		0.494932	0.481198	0.554362	0.000000 
		0.474329	0.516010	0.448464	0.000000 
		0.475818	0.519592	0.438196	0.000000 
		0.538882	0.481283	0.561804	0.000000 
		0.513540	0.524101	0.431549	0.000000 
		0.490368	0.517926	0.445637	0.000000 
		0.510971	0.483115	0.551536	0.000000 
		0.475818	0.519592	0.438196	0.000000 
		0.474329	0.516010	0.448464	0.000000 
		0.490368	0.517926	0.445637	0.000000 
		0.513540	0.524101	0.431549	0.000000 
		0.474329	0.516010	0.448464	0.000000 
		0.494932	0.481198	0.554362	0.000000 
		0.510971	0.483115	0.551536	0.000000 
		0.490368	0.517926	0.445637	0.000000 
		0.494932	0.481198	0.554362	0.000000 
		0.501160	0.476774	0.568451	0.000000 
		0.538882	0.481283	0.561804	0.000000 
		0.510971	0.483115	0.551536	0.000000 
		0.500000	0.505797	0.511070	0.000000 
		0.500000	0.500000	0.500000	0.000000 
	}

	Tex0 199 { 
		0.063477	0.053711 
		0.003906	0.029297 
		0.062500	0.022461 
		0.003906	0.080078 
		0.077148	0.081055 
		0.130859	0.102539 
		0.027344	0.123047 
		0.007813	0.084961 
		0.271484	0.141602 
		0.183594	0.093750 
		0.216797	0.091797 
		0.216797	0.063477 
		0.227539	0.015625 
		0.680664	0.020508 
		0.693359	0.070313 
		0.983398	0.068359 
		0.839844	0.067383 
		0.849609	0.024414 
		0.979492	0.039063 
		0.984375	0.085938 
		0.975586	0.088867 
		0.823242	0.083984 
		0.720703	0.161133 
		0.973633	0.147461 
		0.963867	0.172852 
		0.812500	0.179688 
		0.974609	0.125000 
		0.777344	0.109375 
		0.726563	0.100586 
		0.710938	0.177734 
		0.973633	0.164063 
		0.339844	0.195313 
		0.290039	0.156250 
		0.701172	0.210938 
		0.427734	0.245117 
		0.397461	0.236328 
		0.686523	0.251953 
		0.890625	0.620117 
		0.883789	0.510742 
		0.901367	0.513672 
		0.914063	0.620117 
		0.891602	0.631836 
		0.919922	0.631836 
		0.078125	0.520508 
		0.064453	0.583984 
		0.030273	0.583984 
		0.022461	0.125000 
		0.026367	0.133789 
		0.875000	0.822266 
		0.923828	0.740234 
		0.907227	0.813477 
		0.064453	0.621094 
		0.036133	0.622070 
		0.032227	0.611328 
		0.064453	0.611328 
		0.135742	0.902344 
		0.076172	0.814453 
		0.099609	0.816406 
		0.158203	0.905273 
		0.209961	0.987305 
		0.197266	0.980469 
		0.716797	0.469727 
		0.716797	0.464844 
		0.698242	0.461914 
		0.696289	0.464844 
		0.820313	0.462891 
		0.819336	0.458984 
		0.809570	0.982422 
		0.781250	0.991211 
		0.829102	0.909180 
		0.859375	0.902344 
		0.831055	0.450195 
		0.833008	0.454102 
		0.503906	0.620117 
		0.503906	0.510742 
		0.739258	0.631836 
		0.503906	0.631836 
		0.496094	0.521484 
		0.496094	0.584961 
		0.496094	0.612305 
		0.760742	0.716797 
		0.503906	0.742188 
		0.503906	0.717773 
		0.894531	0.716797 
		0.503906	0.827148 
		0.120117	0.620117 
		0.496094	0.616211 
		0.079102	0.767578 
		0.496094	0.772461 
		0.496094	0.794922 
		0.074219	0.789063 
		0.496094	0.686523 
		0.098633	0.691406 
		0.493164	0.817383 
		0.493164	0.907227 
		0.493164	0.997070 
		0.716797	0.473633 
		0.694336	0.468750 
		0.821289	0.467773 
		0.502930	0.996094 
		0.502930	0.921875 
		0.835938	0.458008 
		0.776367	0.216797 
		0.733398	0.249023 
		0.878906	0.823242 
		0.918945	0.814453 
		0.502930	0.832031 
		0.916016	0.717773 
		0.071289	0.692383 
		0.017578	0.736328 
		0.005859	0.692383 
		0.032227	0.767578 
		0.522461	0.348633 
		0.539063	0.349609 
		0.539063	0.337891 
		0.523438	0.339844 
		0.547852	-0.268555 
		0.547852	-0.277344 
		0.562500	-0.278320 
		0.563477	-0.267578 
		0.524414	0.348633 
		0.541016	0.349609 
		0.548828	0.327148 
		0.544922	0.326172 
		0.062500	0.797852 
		0.051758	0.787109 
		0.047852	0.769531 
		0.938477	0.297852 
		0.940430	0.266602 
		0.998047	0.273438 
		0.998047	0.324219 
		0.924805	0.325195 
		0.872070	0.346680 
		0.995117	0.329102 
		0.975586	0.367188 
		0.731445	0.385742 
		0.785156	0.335938 
		0.819336	0.336914 
		0.786133	0.307617 
		0.308594	0.314453 
		0.321289	0.263672 
		0.774414	0.259766 
		0.018555	0.312500 
		0.023438	0.283203 
		0.152344	0.268555 
		0.162109	0.311523 
		0.018555	0.330078 
		0.179688	0.328125 
		0.026367	0.333008 
		0.281250	0.405273 
		0.189453	0.423828 
		0.039063	0.416992 
		0.028320	0.391602 
		0.224609	0.353516 
		0.027344	0.369141 
		0.276367	0.344727 
		0.291992	0.421875 
		0.029297	0.408203 
		0.662109	0.439453 
		0.301758	0.455078 
		0.712891	0.400391 
		0.575195	0.489258 
		0.316406	0.496094 
		0.605469	0.480469 
		0.979492	0.368164 
		0.975586	0.377930 
		0.225586	0.459961 
		0.269531	0.493164 
		0.070313	0.008789 
		0.012695	0.021484 
		0.007813	0.044922 
		0.070313	0.184570 
		0.158203	0.029297 
		0.858398	0.150391 
		1.000000	0.500000 
		0.993164	0.020508 
		0.858398	0.008789 
		0.684570	0.007813 
		0.234375	0.008789 
		0.235352	0.184570 
		0.683594	0.150391 
		0.000000	0.500000 
		0.235352	0.815430 
		0.683594	0.849609 
		0.070313	0.991211 
		0.070313	0.815430 
		0.007813	0.955078 
		0.012695	0.978516 
		0.858398	0.849609 
		0.858398	0.991211 
		0.993164	0.979492 
		0.684570	0.992188 
		0.234375	0.991211 
		0.246094	0.194336 
		0.234375	0.236328 
		0.128906	0.236328 
		0.117188	0.194336 
		0.083008	0.212891 
		0.007813	0.622070 
	}

	Tex1 0 
	Adj 331 { 
		P 0 
		N 0 
		C0 0 
		T0 0 
		P 1 
		N 1 
		C0 1 
		T0 1 
		P 2 
		N 2 
		C0 2 
		T0 2 
		P 3 
		N 3 
		C0 3 
		T0 3 
		P 4 
		N 4 
		C0 4 
		T0 4 
		P 5 
		N 5 
		C0 5 
		T0 5 
		P 6 
		N 6 
		C0 6 
		T0 6 
		P 7 
		N 7 
		C0 7 
		T0 7 
		P 8 
		N 8 
		C0 8 
		T0 8 
		P 9 
		N 9 
		C0 9 
		T0 9 
		P 10 
		N 10 
		C0 10 
		T0 10 
		P 11 
		N 11 
		C0 11 
		T0 11 
		P 12 
		N 12 
		C0 12 
		T0 12 
		P 13 
		N 12 
		C0 13 
		T0 13 
		P 14 
		N 13 
		C0 14 
		T0 14 
		P 15 
		N 14 
		C0 15 
		T0 15 
		P 16 
		N 15 
		C0 16 
		T0 16 
		P 17 
		N 16 
		C0 17 
		T0 17 
		P 18 
		N 17 
		C0 18 
		T0 18 
		P 19 
		N 18 
		C0 19 
		T0 19 
		P 20 
		N 19 
		C0 20 
		T0 20 
		P 21 
		N 20 
		C0 21 
		T0 21 
		P 22 
		N 21 
		C0 22 
		T0 22 
		P 23 
		N 22 
		C0 23 
		T0 23 
		P 24 
		N 23 
		C0 24 
		T0 24 
		P 25 
		N 24 
		C0 25 
		T0 25 
		P 26 
		N 25 
		C0 26 
		T0 26 
		P 27 
		N 26 
		C0 27 
		T0 27 
		P 28 
		N 27 
		C0 28 
		T0 28 
		P 29 
		N 28 
		C0 29 
		T0 29 
		P 30 
		N 29 
		C0 30 
		T0 30 
		P 31 
		N 30 
		C0 31 
		T0 31 
		P 32 
		N 31 
		C0 32 
		T0 32 
		P 33 
		N 32 
		C0 33 
		T0 33 
		P 34 
		N 33 
		C0 34 
		T0 34 
		P 35 
		N 34 
		C0 35 
		T0 35 
		P 36 
		N 35 
		C0 36 
		T0 36 
		P 37 
		N 36 
		C0 37 
		T0 37 
		P 38 
		N 37 
		C0 38 
		T0 38 
		P 1 
		N 1 
		C0 39 
		T0 39 
		P 3 
		N 3 
		C0 40 
		T0 40 
		P 39 
		N 38 
		C0 41 
		T0 41 
		P 7 
		N 7 
		C0 42 
		T0 42 
		P 18 
		N 17 
		C0 43 
		T0 43 
		P 40 
		N 39 
		C0 44 
		T0 44 
		P 15 
		N 14 
		C0 45 
		T0 45 
		P 41 
		N 40 
		C0 46 
		T0 46 
		P 42 
		N 41 
		C0 47 
		T0 47 
		P 43 
		N 42 
		C0 48 
		T0 48 
		P 42 
		N 41 
		C0 49 
		T0 49 
		P 32 
		N 31 
		C0 50 
		T0 50 
		P 44 
		N 43 
		C0 51 
		T0 51 
		P 20 
		N 19 
		C0 52 
		T0 52 
		P 19 
		N 18 
		C0 53 
		T0 53 
		P 45 
		N 44 
		C0 54 
		T0 54 
		P 46 
		N 45 
		C0 55 
		T0 55 
		P 25 
		N 24 
		C0 56 
		T0 56 
		P 47 
		N 46 
		C0 57 
		T0 57 
		P 48 
		N 47 
		C0 58 
		T0 58 
		P 49 
		N 48 
		C0 59 
		T0 59 
		P 50 
		N 49 
		C0 60 
		T0 60 
		P 51 
		N 50 
		C0 61 
		T0 61 
		P 36 
		N 35 
		C0 62 
		T0 62 
		P 50 
		N 49 
		C0 63 
		T0 63 
		P 49 
		N 48 
		C0 64 
		T0 64 
		P 52 
		N 51 
		C0 65 
		T0 65 
		P 34 
		N 33 
		C0 66 
		T0 66 
		P 35 
		N 34 
		C0 67 
		T0 67 
		P 53 
		N 52 
		C0 68 
		T0 68 
		P 54 
		N 53 
		C0 69 
		T0 69 
		P 31 
		N 30 
		C0 70 
		T0 70 
		P 35 
		N 34 
		C0 71 
		T0 71 
		P 53 
		N 52 
		C0 72 
		T0 72 
		P 55 
		N 54 
		C0 73 
		T0 73 
		P 56 
		N 55 
		C0 74 
		T0 74 
		P 57 
		N 56 
		C0 75 
		T0 75 
		P 58 
		N 57 
		C0 76 
		T0 76 
		P 59 
		N 58 
		C0 77 
		T0 77 
		P 60 
		N 59 
		C0 78 
		T0 78 
		P 61 
		N 60 
		C0 79 
		T0 79 
		P 62 
		N 61 
		C0 80 
		T0 80 
		P 63 
		N 62 
		C0 81 
		T0 81 
		P 64 
		N 63 
		C0 82 
		T0 82 
		P 41 
		N 40 
		C0 83 
		T0 83 
		P 65 
		N 64 
		C0 84 
		T0 84 
		P 66 
		N 65 
		C0 85 
		T0 85 
		P 67 
		N 66 
		C0 86 
		T0 86 
		P 68 
		N 67 
		C0 87 
		T0 87 
		P 69 
		N 68 
		C0 88 
		T0 88 
		P 70 
		N 69 
		C0 89 
		T0 89 
		P 71 
		N 70 
		C0 90 
		T0 90 
		P 72 
		N 71 
		C0 91 
		T0 91 
		P 73 
		N 72 
		C0 92 
		T0 92 
		P 74 
		N 69 
		C0 93 
		T0 93 
		P 75 
		N 73 
		C0 94 
		T0 94 
		P 76 
		N 74 
		C0 95 
		T0 95 
		P 77 
		N 75 
		C0 96 
		T0 96 
		P 76 
		N 74 
		C0 97 
		T0 97 
		P 78 
		N 76 
		C0 98 
		T0 98 
		P 79 
		N 77 
		C0 99 
		T0 99 
		P 80 
		N 78 
		C0 100 
		T0 100 
		P 79 
		N 77 
		C0 101 
		T0 101 
		P 46 
		N 45 
		C0 102 
		T0 102 
		P 50 
		N 49 
		C0 103 
		T0 103 
		P 43 
		N 42 
		C0 104 
		T0 104 
		P 32 
		N 31 
		C0 105 
		T0 105 
		P 65 
		N 64 
		C0 106 
		T0 106 
		P 6 
		N 6 
		C0 107 
		T0 107 
		P 81 
		N 79 
		C0 108 
		T0 108 
		P 23 
		N 22 
		C0 109 
		T0 109 
		P 26 
		N 25 
		C0 110 
		T0 110 
		P 30 
		N 29 
		C0 111 
		T0 111 
		P 82 
		N 80 
		C0 112 
		T0 112 
		P 83 
		N 81 
		C0 113 
		T0 113 
		P 84 
		N 82 
		C0 114 
		T0 114 
		P 85 
		N 83 
		C0 115 
		T0 115 
		P 86 
		N 84 
		C0 116 
		T0 116 
		P 87 
		N 84 
		C0 117 
		T0 117 
		P 88 
		N 84 
		C0 118 
		T0 118 
		P 89 
		N 84 
		C0 119 
		T0 119 
		P 87 
		N 85 
		C0 120 
		T0 115 
		P 88 
		N 86 
		C0 121 
		T0 114 
		P 86 
		N 87 
		C0 122 
		T0 120 
		P 89 
		N 88 
		C0 123 
		T0 121 
		P 90 
		N 89 
		C0 124 
		T0 122 
		P 91 
		N 90 
		C0 125 
		T0 123 
		P 92 
		N 91 
		C0 126 
		T0 123 
		P 93 
		N 92 
		C0 127 
		T0 122 
		P 24 
		N 23 
		C0 128 
		T0 124 
		P 71 
		N 93 
		C0 129 
		T0 90 
		P 24 
		N 23 
		C0 130 
		T0 125 
		P 30 
		N 29 
		C0 131 
		T0 126 
		P 94 
		N 94 
		C0 132 
		T0 127 
		P 95 
		N 95 
		C0 133 
		T0 128 
		P 96 
		N 96 
		C0 134 
		T0 129 
		P 97 
		N 97 
		C0 135 
		T0 130 
		P 98 
		N 98 
		C0 136 
		T0 131 
		P 99 
		N 99 
		C0 137 
		T0 132 
		P 100 
		N 100 
		C0 138 
		T0 133 
		P 101 
		N 101 
		C0 139 
		T0 134 
		P 102 
		N 102 
		C0 140 
		T0 135 
		P 103 
		N 103 
		C0 141 
		T0 136 
		P 104 
		N 104 
		C0 142 
		T0 137 
		P 105 
		N 105 
		C0 143 
		T0 138 
		P 106 
		N 106 
		C0 144 
		T0 139 
		P 107 
		N 107 
		C0 145 
		T0 140 
		P 108 
		N 107 
		C0 146 
		T0 141 
		P 109 
		N 108 
		C0 147 
		T0 142 
		P 110 
		N 109 
		C0 148 
		T0 143 
		P 111 
		N 110 
		C0 149 
		T0 144 
		P 112 
		N 111 
		C0 150 
		T0 145 
		P 113 
		N 112 
		C0 151 
		T0 146 
		P 114 
		N 113 
		C0 152 
		T0 147 
		P 115 
		N 114 
		C0 153 
		T0 148 
		P 116 
		N 115 
		C0 154 
		T0 149 
		P 117 
		N 116 
		C0 155 
		T0 150 
		P 118 
		N 117 
		C0 156 
		T0 151 
		P 119 
		N 118 
		C0 157 
		T0 152 
		P 120 
		N 119 
		C0 158 
		T0 153 
		P 121 
		N 120 
		C0 159 
		T0 154 
		P 122 
		N 121 
		C0 160 
		T0 155 
		P 123 
		N 122 
		C0 161 
		T0 156 
		P 124 
		N 123 
		C0 162 
		T0 157 
		P 125 
		N 124 
		C0 163 
		T0 158 
		P 126 
		N 125 
		C0 164 
		T0 159 
		P 127 
		N 126 
		C0 165 
		T0 160 
		P 128 
		N 127 
		C0 166 
		T0 161 
		P 129 
		N 128 
		C0 167 
		T0 162 
		P 130 
		N 129 
		C0 168 
		T0 163 
		P 131 
		N 130 
		C0 169 
		T0 37 
		P 97 
		N 97 
		C0 170 
		T0 40 
		P 96 
		N 96 
		C0 171 
		T0 39 
		P 132 
		N 131 
		C0 172 
		T0 38 
		P 133 
		N 132 
		C0 173 
		T0 41 
		P 100 
		N 100 
		C0 174 
		T0 42 
		P 110 
		N 109 
		C0 175 
		T0 43 
		P 109 
		N 108 
		C0 176 
		T0 45 
		P 134 
		N 133 
		C0 177 
		T0 44 
		P 135 
		N 134 
		C0 178 
		T0 164 
		P 136 
		N 135 
		C0 179 
		T0 165 
		P 137 
		N 136 
		C0 180 
		T0 48 
		P 127 
		N 126 
		C0 181 
		T0 50 
		P 136 
		N 135 
		C0 182 
		T0 49 
		P 138 
		N 137 
		C0 183 
		T0 51 
		P 139 
		N 138 
		C0 184 
		T0 54 
		P 113 
		N 112 
		C0 185 
		T0 53 
		P 115 
		N 114 
		C0 186 
		T0 52 
		P 140 
		N 139 
		C0 187 
		T0 55 
		P 141 
		N 140 
		C0 188 
		T0 58 
		P 142 
		N 141 
		C0 189 
		T0 57 
		P 117 
		N 116 
		C0 190 
		T0 56 
		P 143 
		N 142 
		C0 191 
		T0 59 
		P 144 
		N 143 
		C0 192 
		T0 60 
		P 145 
		N 144 
		C0 193 
		T0 61 
		P 143 
		N 142 
		C0 194 
		T0 64 
		P 144 
		N 143 
		C0 195 
		T0 63 
		P 129 
		N 128 
		C0 196 
		T0 62 
		P 128 
		N 127 
		C0 197 
		T0 66 
		P 146 
		N 145 
		C0 198 
		T0 65 
		P 130 
		N 129 
		C0 199 
		T0 67 
		P 125 
		N 124 
		C0 200 
		T0 70 
		P 147 
		N 146 
		C0 201 
		T0 69 
		P 148 
		N 147 
		C0 202 
		T0 68 
		P 130 
		N 129 
		C0 203 
		T0 71 
		P 148 
		N 147 
		C0 204 
		T0 72 
		P 149 
		N 148 
		C0 205 
		T0 75 
		P 150 
		N 149 
		C0 206 
		T0 80 
		P 135 
		N 134 
		C0 207 
		T0 83 
		P 151 
		N 150 
		C0 208 
		T0 85 
		P 152 
		N 151 
		C0 209 
		T0 87 
		P 153 
		N 152 
		C0 210 
		T0 90 
		P 154 
		N 153 
		C0 211 
		T0 92 
		P 140 
		N 139 
		C0 212 
		T0 166 
		P 144 
		N 143 
		C0 213 
		T0 167 
		P 127 
		N 126 
		C0 214 
		T0 105 
		P 137 
		N 136 
		C0 215 
		T0 104 
		P 101 
		N 101 
		C0 216 
		T0 107 
		P 155 
		N 154 
		C0 217 
		T0 108 
		P 121 
		N 120 
		C0 218 
		T0 110 
		P 119 
		N 118 
		C0 219 
		T0 109 
		P 124 
		N 123 
		C0 220 
		T0 111 
		P 156 
		N 155 
		C0 221 
		T0 112 
		P 157 
		N 156 
		C0 222 
		T0 115 
		P 158 
		N 157 
		C0 223 
		T0 114 
		P 159 
		N 158 
		C0 224 
		T0 113 
		P 160 
		N 159 
		C0 225 
		T0 116 
		P 161 
		N 159 
		C0 226 
		T0 119 
		P 162 
		N 159 
		C0 227 
		T0 118 
		P 163 
		N 159 
		C0 228 
		T0 117 
		P 163 
		N 160 
		C0 229 
		T0 115 
		P 162 
		N 161 
		C0 230 
		T0 114 
		P 160 
		N 162 
		C0 231 
		T0 120 
		P 161 
		N 163 
		C0 232 
		T0 121 
		P 164 
		N 164 
		C0 233 
		T0 123 
		P 165 
		N 165 
		C0 234 
		T0 122 
		P 166 
		N 166 
		C0 235 
		T0 122 
		P 167 
		N 167 
		C0 236 
		T0 123 
		P 153 
		N 168 
		C0 237 
		T0 90 
		P 118 
		N 117 
		C0 238 
		T0 124 
		P 124 
		N 123 
		C0 239 
		T0 126 
		P 118 
		N 117 
		C0 240 
		T0 125 
		P 2 
		N 169 
		C0 241 
		T0 168 
		P 1 
		N 169 
		C0 242 
		T0 169 
		P 38 
		N 170 
		C0 243 
		T0 170 
		P 168 
		N 171 
		C0 244 
		T0 171 
		P 168 
		N 172 
		C0 245 
		T0 172 
		P 169 
		N 173 
		C0 246 
		T0 172 
		P 0 
		N 174 
		C0 247 
		T0 172 
		P 2 
		N 175 
		C0 248 
		T0 172 
		P 4 
		N 176 
		C0 249 
		T0 172 
		P 17 
		N 177 
		C0 250 
		T0 172 
		P 16 
		N 178 
		C0 251 
		T0 172 
		P 170 
		N 179 
		C0 252 
		T0 172 
		P 171 
		N 180 
		C0 253 
		T0 172 
		P 171 
		N 181 
		C0 254 
		T0 173 
		P 59 
		N 182 
		C0 255 
		T0 174 
		P 18 
		N 182 
		C0 256 
		T0 175 
		P 17 
		N 182 
		C0 257 
		T0 176 
		P 172 
		N 183 
		C0 258 
		T0 172 
		P 5 
		N 184 
		C0 259 
		T0 172 
		P 9 
		N 185 
		C0 260 
		T0 172 
		P 173 
		N 186 
		C0 261 
		T0 172 
		P 12 
		N 187 
		C0 262 
		T0 172 
		P 11 
		N 188 
		C0 263 
		T0 172 
		P 13 
		N 189 
		C0 264 
		T0 177 
		P 12 
		N 189 
		C0 265 
		T0 178 
		P 173 
		N 190 
		C0 266 
		T0 179 
		P 174 
		N 191 
		C0 267 
		T0 180 
		P 175 
		N 192 
		C0 268 
		T0 172 
		P 14 
		N 193 
		C0 269 
		T0 172 
		P 13 
		N 194 
		C0 270 
		T0 172 
		P 174 
		N 195 
		C0 271 
		T0 172 
		P 21 
		N 196 
		C0 272 
		T0 172 
		P 27 
		N 197 
		C0 273 
		T0 172 
		P 28 
		N 198 
		C0 274 
		T0 172 
		P 56 
		N 199 
		C0 275 
		T0 181 
		P 176 
		N 190 
		C0 276 
		T0 182 
		P 177 
		N 191 
		C0 277 
		T0 183 
		P 95 
		N 200 
		C0 278 
		T0 184 
		P 178 
		N 201 
		C0 279 
		T0 185 
		P 132 
		N 202 
		C0 280 
		T0 186 
		P 96 
		N 200 
		C0 281 
		T0 187 
		P 178 
		N 203 
		C0 282 
		T0 172 
		P 95 
		N 204 
		C0 283 
		T0 172 
		P 94 
		N 205 
		C0 284 
		T0 172 
		P 179 
		N 206 
		C0 285 
		T0 172 
		P 98 
		N 207 
		C0 286 
		T0 172 
		P 111 
		N 177 
		C0 287 
		T0 172 
		P 180 
		N 208 
		C0 288 
		T0 172 
		P 181 
		N 209 
		C0 289 
		T0 172 
		P 112 
		N 210 
		C0 290 
		T0 172 
		P 180 
		N 181 
		C0 291 
		T0 188 
		P 111 
		N 182 
		C0 292 
		T0 189 
		P 110 
		N 182 
		C0 293 
		T0 190 
		P 182 
		N 211 
		C0 294 
		T0 172 
		P 99 
		N 212 
		C0 295 
		T0 172 
		P 104 
		N 213 
		C0 296 
		T0 172 
		P 105 
		N 214 
		C0 297 
		T0 172 
		P 108 
		N 187 
		C0 298 
		T0 172 
		P 176 
		N 215 
		C0 299 
		T0 172 
		P 107 
		N 189 
		C0 300 
		T0 191 
		P 108 
		N 189 
		C0 301 
		T0 192 
		P 183 
		N 216 
		C0 302 
		T0 172 
		P 177 
		N 217 
		C0 303 
		T0 172 
		P 107 
		N 218 
		C0 304 
		T0 172 
		P 106 
		N 219 
		C0 305 
		T0 172 
		P 120 
		N 220 
		C0 306 
		T0 172 
		P 114 
		N 221 
		C0 307 
		T0 172 
		P 122 
		N 222 
		C0 308 
		T0 172 
		P 184 
		N 223 
		C0 309 
		T0 193 
		P 185 
		N 223 
		C0 310 
		T0 194 
		P 186 
		N 223 
		C0 311 
		T0 195 
		P 187 
		N 223 
		C0 312 
		T0 196 
		P 188 
		N 224 
		C0 313 
		T0 196 
		P 189 
		N 224 
		C0 314 
		T0 193 
		P 190 
		N 224 
		C0 315 
		T0 194 
		P 191 
		N 224 
		C0 316 
		T0 195 
		P 187 
		N 225 
		C0 317 
		T0 197 
		P 186 
		N 225 
		C0 318 
		T0 197 
		P 190 
		N 225 
		C0 319 
		T0 197 
		P 189 
		N 225 
		C0 320 
		T0 197 
		P 186 
		N 226 
		C0 321 
		T0 197 
		P 185 
		N 226 
		C0 322 
		T0 197 
		P 191 
		N 226 
		C0 323 
		T0 197 
		P 190 
		N 226 
		C0 324 
		T0 197 
		P 185 
		N 227 
		C0 325 
		T0 197 
		P 184 
		N 227 
		C0 326 
		T0 197 
		P 188 
		N 227 
		C0 327 
		T0 197 
		P 191 
		N 227 
		C0 328 
		T0 197 
		P 20 
		N 19 
		C0 329 
		T0 198 
		P 115 
		N 114 
		C0 330 
		T0 198 
	}

	Mtl 4 { 
		{
			Name "#2" 
			Priority 32 
			Prim 36 { 
				{
					Type TRISTRIP
					Priority 32 
					Idx 7 { 35 31 34 33 36 102 103 }
				}
				{
					Type TRISTRIP2
					Priority 32 
					Idx 8 { 39 38 40 37 42 41 107 83 }
				}
				{
					Type TRISTRIP2
					Priority 32 
					Idx 8 { 50 49 48 81 84 182 180 181 }
				}
				{
					Type TRISTRIP2
					Priority 32 
					Idx 8 { 60 59 55 58 56 57 128 129 }
				}
				{
					Type TRISTRIP2
					Priority 32 
					Idx 15 { 217 211 209 88 210 89 189 93 188 94 191 94 95 58 59 }
				}
				{
					Type TRISTRIP
					Priority 32 
					Idx 8 { 192 191 187 188 190 189 238 237 }
				}
				{
					Type TRISTRIP
					Priority 32 
					Idx 4 { 208 211 91 88 }
				}
				{
					Type TRISTRIP
					Priority 32 
					Idx 14 { 52 53 51 54 85 79 85 86 92 86 91 86 208 79 }
				}
				{
					Type TRISTRIP
					Priority 32 
					Idx 13 { 108 92 87 91 87 88 87 89 90 93 57 94 58 }
				}
				{
					Type TRISTRIP2
					Priority 32 
					Idx 4 { 227 226 228 225 }
				}
				{
					Type TRISTRIP2
					Priority 32 
					Idx 4 { 240 239 237 209 }
				}
				{
					Type TRISTRIP2
					Priority 32 
					Idx 16 { 2 1 0 3 4 7 4 6 5 8 9 10 11 14 12 13 }
				}
				{
					Type TRISTRIP2
					Priority 32 
					Idx 7 { 22 8 32 8 47 6 46 }
				}
				{
					Type TRISTRIP
					Priority 32 
					Idx 15 { 195 196 194 193 97 96 64 61 63 61 62 65 66 72 71 }
				}
				{
					Type TRISTRIP2
					Priority 32 
					Idx 11 { 196 193 197 198 203 198 204 98 101 65 72 }
				}
				{
					Type TRISTRIP
					Priority 32 
					Idx 6 { 65 61 98 96 198 193 }
				}
				{
					Type TRISTRIP
					Priority 32 
					Idx 9 { 83 49 80 81 82 81 206 182 207 }
				}
				{
					Type TRISTRIP2
					Priority 32 
					Idx 13 { 102 25 33 29 31 29 32 29 22 25 23 24 30 }
				}
				{
					Type TRISTRIP
					Priority 32 
					Idx 13 { 206 205 82 76 80 76 75 76 73 76 169 205 173 }
				}
				{
					Type TRISTRIP2
					Priority 32 
					Idx 18 { 14 10 28 8 28 22 27 23 27 26 21 20 21 19 16 15 17 18 }
				}
				{
					Type TRISTRIP2
					Priority 32 
					Idx 5 { 111 87 109 108 110 }
				}
				{
					Type TRISTRIP
					Priority 32 
					Idx 4 { 130 131 129 87 }
				}
				{
					Type TRISTRIP
					Priority 32 
					Idx 17 { 41 75 37 73 38 73 74 73 172 169 171 169 170 173 174 207 216 }
				}
				{
					Type TRISTRIP2
					Priority 32 
					Idx 17 { 199 202 200 201 214 201 215 100 106 69 104 69 105 69 70 68 67 }
				}
				{
					Type TRISTRIP
					Priority 32 
					Idx 6 { 69 68 100 99 201 202 }
				}
				{
					Type TRISTRIP
					Priority 32 
					Idx 33 { 133 134 132 135 136 138 136 139 137 140 142 141 143 141 144 141 160 140 160 154 158 157 158 159 152 153 152 151 150 147 150 148 149 }
				}
				{
					Type TRISTRIP2
					Priority 32 
					Idx 4 { 146 145 143 144 }
				}
				{
					Type TRISTRIP2
					Priority 32 
					Idx 16 { 162 156 157 155 154 155 161 212 164 213 164 167 164 166 163 168 }
				}
				{
					Type TRISTRIP2
					Priority 32 
					Idx 11 { 164 163 161 165 154 165 140 165 139 179 178 }
				}
				{
					Type TRISTRIP
					Priority 32 
					Idx 4 { 118 119 117 116 }
				}
				{
					Type TRISTRIP
					Priority 32 
					Idx 24 { 186 183 185 184 176 177 175 78 77 44 43 44 45 44 53 44 54 78 79 177 79 184 208 183 }
				}
				{
					Type TRISTRIP
					Priority 32 
					Idx 5 { 220 209 219 217 218 }
				}
				{
					Type TRISTRIP2
					Priority 32 
					Idx 11 { 234 224 235 232 236 230 236 223 233 224 234 }
				}
				{
					Type TRISTRIP
					Priority 32 
					Idx 11 { 127 121 126 114 125 114 124 113 127 123 121 }
				}
				{
					Type TRISTRIP2
					Priority 32 
					Idx 12 { 231 232 221 224 222 223 222 230 222 229 221 231 }
				}
				{
					Type TRISTRIP2
					Priority 32 
					Idx 12 { 123 122 112 120 115 121 115 114 115 113 112 123 }
				}
			}

		}
		{
			Name "#3" 
			Priority 32 
			Prim 10 { 
				{
					Type TRISTRIP
					Priority 32 
					Idx 9 { 281 278 280 279 275 244 243 241 242 }
				}
				{
					Type TRISTRIP2
					Priority 32 
					Idx 8 { 265 264 266 267 276 277 301 300 }
				}
				{
					Type TRISTRIP2
					Priority 32 
					Idx 7 { 293 292 255 291 254 277 267 }
				}
				{
					Type TRISTRIP
					Priority 32 
					Idx 4 { 244 279 266 276 }
				}
				{
					Type TRISTRIP
					Priority 32 
					Idx 4 { 257 254 256 255 }
				}
				{
					Type TRISTRIP
					Priority 32 
					Idx 17 { 270 271 269 268 274 252 273 252 272 252 251 252 250 252 253 268 271 }
				}
				{
					Type TRISTRIP2
					Priority 32 
					Idx 16 { 248 247 245 246 261 258 262 258 263 258 260 258 259 246 249 247 }
				}
				{
					Type TRISTRIP2
					Priority 32 
					Idx 13 { 287 290 288 289 302 308 302 305 302 304 302 303 288 }
				}
				{
					Type TRISTRIP
					Priority 32 
					Idx 5 { 308 306 289 307 290 }
				}
				{
					Type TRISTRIP2
					Priority 32 
					Idx 17 { 297 296 294 295 294 286 285 284 285 283 285 282 285 299 294 298 297 }
				}
			}

		}
		{
			Name "#4" 
			Priority 32 
			Prim 7 { 
				{
					Type TRISTRIP
					Priority 32 
					Idx 4 { 41 83 75 80 }
				}
				{
					Type TRISTRIP
					Priority 32 
					Idx 4 { 205 206 173 207 }
				}
				{
					Type TRISTRIP
					Priority 32 
					Idx 4 { 309 310 312 311 }
				}
				{
					Type TRISTRIP
					Priority 32 
					Idx 4 { 313 314 316 315 }
				}
				{
					Type TRISTRIP
					Priority 32 
					Idx 4 { 317 318 320 319 }
				}
				{
					Type TRISTRIP
					Priority 32 
					Idx 4 { 322 323 321 324 }
				}
				{
					Type TRISTRIP
					Priority 32 
					Idx 4 { 326 327 325 328 }
				}
			}

		}
		{
			Name "#5" 
			Priority 32 
			Prim 2 { 
				{
					Type TRISTRIP
					Priority 32 
					Idx 7 { 330 218 183 217 183 211 208 }
				}
				{
					Type TRISTRIP2
					Priority 32 
					Idx 6 { 329 110 51 108 85 92 }
				}
			}

		}
	}

	Offset 0 
}
