{
	Skinned 0 
	PosSkin 0 
	Pos 48 { 
		0.375103	0.554774	0.554911 
		0.375103	-0.555047	0.554913 
		0.375103	-0.555047	-0.554913 
		0.375103	0.554773	-0.554914 
		0.026256	0.554773	-0.554914 
		0.026257	-0.555046	-0.554913 
		0.026257	-0.555047	0.554911 
		0.026257	0.554774	0.554911 
		0.373530	-0.391079	-0.391575 
		0.026579	-0.391079	-0.391575 
		0.026579	0.000818	-0.553906 
		0.373530	0.000818	-0.553906 
		0.373530	-0.553408	0.000319 
		0.026579	-0.553408	0.000319 
		0.373530	-0.391079	0.392213 
		0.026579	-0.391079	0.392213 
		0.373530	0.000819	0.554545 
		0.026579	0.000819	0.554545 
		0.373530	0.392715	0.392213 
		0.026579	0.392715	0.392213 
		0.373530	0.555047	0.000319 
		0.026579	0.555047	0.000319 
		0.373530	0.392715	-0.391575 
		0.026579	0.392715	-0.391575 
		-0.026260	0.554774	0.554911 
		-0.026260	-0.555047	0.554913 
		-0.026260	-0.555047	-0.554913 
		-0.026260	0.554773	-0.554914 
		-0.375103	0.554773	-0.554914 
		-0.375103	-0.555046	-0.554913 
		-0.375103	-0.555047	0.554911 
		-0.375103	0.554774	0.554911 
		-0.027831	-0.391079	-0.391575 
		-0.374780	-0.391079	-0.391575 
		-0.374780	0.000818	-0.553906 
		-0.027831	0.000818	-0.553906 
		-0.027831	-0.553408	0.000319 
		-0.374780	-0.553408	0.000319 
		-0.027831	-0.391079	0.392213 
		-0.374780	-0.391079	0.392213 
		-0.027831	0.000819	0.554545 
		-0.374780	0.000819	0.554545 
		-0.027831	0.392715	0.392213 
		-0.374780	0.392715	0.392213 
		-0.027831	0.555047	0.000319 
		-0.374780	0.555047	0.000319 
		-0.027831	0.392715	-0.391575 
		-0.374780	0.392715	-0.391575 
	}

	Nrm 18 { 
		1.000000	0.000000	0.000000 
		-1.000000	0.000000	0.000000 
		0.000000	0.796875	-0.609375 
		0.000000	0.609375	-0.796875 
		0.000000	0.984375	-0.140625 
		0.000000	0.984375	0.140625 
		0.000000	0.140625	-0.984375 
		0.000000	-0.140625	-0.984375 
		0.000000	-0.609375	-0.796875 
		0.000000	-0.796875	-0.609375 
		0.000000	-0.984375	-0.140625 
		0.000000	-0.984375	0.140625 
		0.000000	-0.796875	0.609375 
		0.000000	-0.609375	0.796875 
		0.000000	-0.140625	0.984375 
		0.000000	0.140625	0.984375 
		0.000000	0.609375	0.796875 
		0.000000	0.796875	0.609375 
	}

	Cpv 80 { 
		0.500000	0.500000	0.500000	1.000000 
		0.500000	0.500000	0.500000	1.000000 
		0.500000	0.500000	0.500000	1.000000 
		0.500000	0.500000	0.500000	1.000000 
		0.500000	0.500000	0.500000	1.000000 
		0.500000	0.500000	0.500000	1.000000 
		0.500000	0.500000	0.500000	1.000000 
		0.500000	0.500000	0.500000	1.000000 
		0.500000	0.500000	0.500000	1.000000 
		0.500000	0.500000	0.500000	1.000000 
		0.500000	0.500000	0.500000	1.000000 
		0.500000	0.500000	0.500000	1.000000 
		0.500000	0.500000	0.500000	1.000000 
		0.500000	0.500000	0.500000	1.000000 
		0.500000	0.500000	0.500000	1.000000 
		0.500000	0.500000	0.500000	1.000000 
		0.500000	0.500000	0.500000	1.000000 
		0.500000	0.500000	0.500000	1.000000 
		0.500000	0.500000	0.500000	1.000000 
		0.500000	0.500000	0.500000	1.000000 
		0.500000	0.500000	0.500000	1.000000 
		0.500000	0.500000	0.500000	1.000000 
		0.500000	0.500000	0.500000	1.000000 
		0.500000	0.500000	0.500000	1.000000 
		0.500000	0.500000	0.500000	1.000000 
		0.500000	0.500000	0.500000	1.000000 
		0.500000	0.500000	0.500000	1.000000 
		0.500000	0.500000	0.500000	1.000000 
		0.500000	0.500000	0.500000	1.000000 
		0.500000	0.500000	0.500000	1.000000 
		0.500000	0.500000	0.500000	1.000000 
		0.500000	0.500000	0.500000	1.000000 
		0.500000	0.500000	0.500000	1.000000 
		0.500000	0.500000	0.500000	1.000000 
		0.500000	0.500000	0.500000	1.000000 
		0.500000	0.500000	0.500000	1.000000 
		0.500000	0.500000	0.500000	1.000000 
		0.500000	0.500000	0.500000	1.000000 
		0.500000	0.500000	0.500000	1.000000 
		0.500000	0.500000	0.500000	1.000000 
		0.500000	0.500000	0.500000	1.000000 
		0.500000	0.500000	0.500000	1.000000 
		0.500000	0.500000	0.500000	1.000000 
		0.500000	0.500000	0.500000	1.000000 
		0.500000	0.500000	0.500000	1.000000 
		0.500000	0.500000	0.500000	1.000000 
		0.500000	0.500000	0.500000	1.000000 
		0.500000	0.500000	0.500000	1.000000 
		0.500000	0.500000	0.500000	1.000000 
		0.500000	0.500000	0.500000	1.000000 
		0.500000	0.500000	0.500000	1.000000 
		0.500000	0.500000	0.500000	1.000000 
		0.500000	0.500000	0.500000	1.000000 
		0.500000	0.500000	0.500000	1.000000 
		0.500000	0.500000	0.500000	1.000000 
		0.500000	0.500000	0.500000	1.000000 
		0.500000	0.500000	0.500000	1.000000 
		0.500000	0.500000	0.500000	1.000000 
		0.500000	0.500000	0.500000	1.000000 
		0.500000	0.500000	0.500000	1.000000 
		0.500000	0.500000	0.500000	1.000000 
		0.500000	0.500000	0.500000	1.000000 
		0.500000	0.500000	0.500000	1.000000 
		0.500000	0.500000	0.500000	1.000000 
		0.500000	0.500000	0.500000	1.000000 
		0.500000	0.500000	0.500000	1.000000 
		0.500000	0.500000	0.500000	1.000000 
		0.500000	0.500000	0.500000	1.000000 
		0.500000	0.500000	0.500000	1.000000 
		0.500000	0.500000	0.500000	1.000000 
		0.500000	0.500000	0.500000	1.000000 
		0.500000	0.500000	0.500000	1.000000 
		0.500000	0.500000	0.500000	1.000000 
		0.500000	0.500000	0.500000	1.000000 
		0.500000	0.500000	0.500000	1.000000 
		0.500000	0.500000	0.500000	1.000000 
		0.500000	0.500000	0.500000	1.000000 
		0.500000	0.500000	0.500000	1.000000 
		0.500000	0.500000	0.500000	1.000000 
		0.500000	0.500000	0.500000	1.000000 
	}

	Tex0 8 { 
		0.488281	0.965820 
		0.488281	0.034180 
		0.017578	0.034180 
		0.017578	0.965820 
		0.528320	0.000000 
		0.528320	1.000000 
		0.991211	1.000000 
		0.991211	0.000000 
	}

	Tex1 0 
	Adj 80 { 
		P 0 
		N 0 
		C0 0 
		T0 0 
		P 1 
		N 0 
		C0 1 
		T0 1 
		P 2 
		N 0 
		C0 2 
		T0 2 
		P 3 
		N 0 
		C0 3 
		T0 3 
		P 4 
		N 1 
		C0 4 
		T0 3 
		P 5 
		N 1 
		C0 5 
		T0 2 
		P 6 
		N 1 
		C0 6 
		T0 1 
		P 7 
		N 1 
		C0 7 
		T0 0 
		P 8 
		N 2 
		C0 8 
		T0 4 
		P 9 
		N 3 
		C0 9 
		T0 5 
		P 10 
		N 4 
		C0 10 
		T0 6 
		P 11 
		N 5 
		C0 11 
		T0 7 
		P 12 
		N 6 
		C0 12 
		T0 4 
		P 13 
		N 7 
		C0 13 
		T0 5 
		P 9 
		N 3 
		C0 14 
		T0 6 
		P 8 
		N 2 
		C0 15 
		T0 7 
		P 14 
		N 8 
		C0 16 
		T0 4 
		P 15 
		N 9 
		C0 17 
		T0 5 
		P 13 
		N 7 
		C0 18 
		T0 6 
		P 12 
		N 6 
		C0 19 
		T0 7 
		P 16 
		N 10 
		C0 20 
		T0 4 
		P 17 
		N 11 
		C0 21 
		T0 5 
		P 15 
		N 9 
		C0 22 
		T0 6 
		P 14 
		N 8 
		C0 23 
		T0 7 
		P 18 
		N 12 
		C0 24 
		T0 4 
		P 19 
		N 13 
		C0 25 
		T0 5 
		P 17 
		N 11 
		C0 26 
		T0 6 
		P 16 
		N 10 
		C0 27 
		T0 7 
		P 20 
		N 14 
		C0 28 
		T0 4 
		P 21 
		N 15 
		C0 29 
		T0 5 
		P 19 
		N 13 
		C0 30 
		T0 6 
		P 18 
		N 12 
		C0 31 
		T0 7 
		P 22 
		N 16 
		C0 32 
		T0 4 
		P 23 
		N 17 
		C0 33 
		T0 5 
		P 21 
		N 15 
		C0 34 
		T0 6 
		P 20 
		N 14 
		C0 35 
		T0 7 
		P 11 
		N 5 
		C0 36 
		T0 4 
		P 10 
		N 4 
		C0 37 
		T0 5 
		P 23 
		N 17 
		C0 38 
		T0 6 
		P 22 
		N 16 
		C0 39 
		T0 7 
		P 24 
		N 0 
		C0 40 
		T0 0 
		P 25 
		N 0 
		C0 41 
		T0 1 
		P 26 
		N 0 
		C0 42 
		T0 2 
		P 27 
		N 0 
		C0 43 
		T0 3 
		P 28 
		N 1 
		C0 44 
		T0 3 
		P 29 
		N 1 
		C0 45 
		T0 2 
		P 30 
		N 1 
		C0 46 
		T0 1 
		P 31 
		N 1 
		C0 47 
		T0 0 
		P 32 
		N 2 
		C0 48 
		T0 4 
		P 33 
		N 3 
		C0 49 
		T0 5 
		P 34 
		N 4 
		C0 50 
		T0 6 
		P 35 
		N 5 
		C0 51 
		T0 7 
		P 36 
		N 6 
		C0 52 
		T0 4 
		P 37 
		N 7 
		C0 53 
		T0 5 
		P 33 
		N 3 
		C0 54 
		T0 6 
		P 32 
		N 2 
		C0 55 
		T0 7 
		P 38 
		N 8 
		C0 56 
		T0 4 
		P 39 
		N 9 
		C0 57 
		T0 5 
		P 37 
		N 7 
		C0 58 
		T0 6 
		P 36 
		N 6 
		C0 59 
		T0 7 
		P 40 
		N 10 
		C0 60 
		T0 4 
		P 41 
		N 11 
		C0 61 
		T0 5 
		P 39 
		N 9 
		C0 62 
		T0 6 
		P 38 
		N 8 
		C0 63 
		T0 7 
		P 42 
		N 12 
		C0 64 
		T0 4 
		P 43 
		N 13 
		C0 65 
		T0 5 
		P 41 
		N 11 
		C0 66 
		T0 6 
		P 40 
		N 10 
		C0 67 
		T0 7 
		P 44 
		N 14 
		C0 68 
		T0 4 
		P 45 
		N 15 
		C0 69 
		T0 5 
		P 43 
		N 13 
		C0 70 
		T0 6 
		P 42 
		N 12 
		C0 71 
		T0 7 
		P 46 
		N 16 
		C0 72 
		T0 4 
		P 47 
		N 17 
		C0 73 
		T0 5 
		P 45 
		N 15 
		C0 74 
		T0 6 
		P 44 
		N 14 
		C0 75 
		T0 7 
		P 35 
		N 5 
		C0 76 
		T0 4 
		P 34 
		N 4 
		C0 77 
		T0 5 
		P 47 
		N 17 
		C0 78 
		T0 6 
		P 46 
		N 16 
		C0 79 
		T0 7 
	}

	Mtl 1 { 
		{
			Name "#6" 
			Priority 32 
			Prim 20 { 
				{
					Type TRISTRIP
					Priority 32 
					Idx 4 { 2 3 1 0 }
				}
				{
					Type TRISTRIP
					Priority 32 
					Idx 4 { 5 6 4 7 }
				}
				{
					Type TRISTRIP
					Priority 32 
					Idx 4 { 9 10 8 11 }
				}
				{
					Type TRISTRIP
					Priority 32 
					Idx 4 { 14 15 13 12 }
				}
				{
					Type TRISTRIP
					Priority 32 
					Idx 4 { 18 19 17 16 }
				}
				{
					Type TRISTRIP
					Priority 32 
					Idx 4 { 22 23 21 20 }
				}
				{
					Type TRISTRIP
					Priority 32 
					Idx 4 { 26 27 25 24 }
				}
				{
					Type TRISTRIP
					Priority 32 
					Idx 4 { 29 30 28 31 }
				}
				{
					Type TRISTRIP
					Priority 32 
					Idx 4 { 33 34 32 35 }
				}
				{
					Type TRISTRIP
					Priority 32 
					Idx 4 { 37 38 36 39 }
				}
				{
					Type TRISTRIP
					Priority 32 
					Idx 4 { 42 43 41 40 }
				}
				{
					Type TRISTRIP
					Priority 32 
					Idx 4 { 45 46 44 47 }
				}
				{
					Type TRISTRIP
					Priority 32 
					Idx 4 { 49 50 48 51 }
				}
				{
					Type TRISTRIP
					Priority 32 
					Idx 4 { 54 55 53 52 }
				}
				{
					Type TRISTRIP
					Priority 32 
					Idx 4 { 58 59 57 56 }
				}
				{
					Type TRISTRIP
					Priority 32 
					Idx 4 { 62 63 61 60 }
				}
				{
					Type TRISTRIP
					Priority 32 
					Idx 4 { 66 67 65 64 }
				}
				{
					Type TRISTRIP
					Priority 32 
					Idx 4 { 69 70 68 71 }
				}
				{
					Type TRISTRIP
					Priority 32 
					Idx 4 { 73 74 72 75 }
				}
				{
					Type TRISTRIP
					Priority 32 
					Idx 4 { 77 78 76 79 }
				}
			}

		}
	}

	Offset 0 
}
