{
	Skinned 0 
	PosSkin 0 
	Pos 257 { 
		-0.848446	0.510183	-5.204865 
		-0.832088	0.386252	-5.148537 
		-0.912289	0.359057	-4.895689 
		-0.947126	0.511078	-4.868760 
		-0.964022	0.696380	-4.835935 
		-0.857402	0.689626	-5.201627 
		-0.335063	1.140075	-0.113170 
		-0.335063	0.875113	-0.113170 
		-0.238195	0.875113	0.309265 
		-0.238195	1.140075	0.309265 
		-0.596116	0.959352	-5.161494 
		-0.705470	1.120887	-4.779952 
		-0.605311	1.317622	-5.113259 
		-0.774487	1.188460	-4.396923 
		-0.976367	0.967544	-4.549646 
		-0.913239	1.081517	-4.774216 
		-0.974143	0.917199	-4.660993 
		-0.938937	0.390347	-3.775010 
		-0.938173	0.337524	-3.840653 
		-0.938173	0.337637	-3.775274 
		-0.987516	0.930536	-2.894214 
		-0.981513	0.934250	-1.400578 
		-0.982731	2.106504	-1.401456 
		-0.972895	2.389242	-2.898323 
		-0.969695	0.912200	-4.058281 
		-0.960241	0.939825	-3.882246 
		-0.946025	1.067078	-4.054802 
		-0.690668	2.142874	-3.802491 
		-0.690668	2.227001	-3.720444 
		0.000000	2.229585	-3.787460 
		-0.000000	2.142289	-3.869395 
		-0.787256	2.100401	-3.579824 
		-0.787256	2.227111	-3.497466 
		-0.690668	2.126206	-3.753271 
		0.000000	2.129493	-3.805293 
		-0.000000	0.382917	-5.148025 
		0.000000	0.510027	-5.199465 
		-0.603110	2.256203	-3.581981 
		0.000000	2.264193	-3.628892 
		-0.513504	0.925876	-5.192899 
		-0.870871	0.959504	-5.166894 
		-0.515925	1.356872	-5.153143 
		-0.200725	1.383456	-5.153143 
		-0.621293	1.516753	-4.441740 
		-0.532601	1.576942	-4.430090 
		-0.698700	1.482096	-4.434881 
		-0.365851	0.340881	-0.984539 
		-0.365852	0.895584	-0.837528 
		-0.876536	0.895584	-0.837528 
		-0.969695	0.774007	-0.905752 
		-0.690668	1.630553	-3.947731 
		0.000000	1.674057	-3.980947 
		-0.787256	1.589300	-3.778315 
		-0.603110	2.627384	-3.222155 
		0.000000	2.643209	-3.232643 
		-0.819488	2.308075	-3.361839 
		-0.823404	2.552440	-3.156947 
		-0.603110	2.805248	-2.899588 
		0.000000	2.818563	-2.911326 
		-0.823404	2.716427	-2.853543 
		-0.787256	0.929688	-3.078750 
		-0.787256	2.254389	-3.057352 
		-0.787256	0.930112	-3.820426 
		-0.801151	1.116740	-4.023336 
		-0.933976	1.132944	-4.406547 
		-0.969695	0.772988	-1.728594 
		-0.781190	0.929391	-1.723997 
		-0.864473	0.811824	-1.734612 
		-0.779742	0.929320	-1.400552 
		-0.969695	0.773931	-0.967438 
		-0.367775	0.640746	1.156968 
		0.000000	0.640746	1.156968 
		-0.000000	0.897352	1.156968 
		-0.367774	0.897352	1.156968 
		-0.938755	0.381227	-0.986678 
		-0.967885	0.649091	-0.955947 
		-0.439171	0.839698	-4.794395 
		-0.439171	0.357447	-4.896114 
		-0.969695	0.976324	-4.218091 
		-0.974143	0.994045	-4.391369 
		-0.439171	1.001945	-4.392684 
		-0.969695	0.648952	-3.867733 
		-0.439171	0.905086	-4.007341 
		-0.459582	0.337369	-3.835253 
		-0.969695	0.804197	-3.942687 
		-0.000000	0.875113	-0.345744 
		-0.000000	1.140075	-0.345744 
		0.000000	2.958131	-2.511296 
		-0.603110	2.942315	-2.510848 
		-0.603110	3.076714	-1.400317 
		-0.000000	3.076714	-1.400317 
		-0.823404	2.839955	-2.481831 
		-0.823404	2.974354	-1.396897 
		-0.787256	2.257506	-3.393941 
		0.000000	0.875113	0.309265 
		0.000000	1.140075	0.309265 
		-0.000000	0.895584	-0.837528 
		-0.000000	0.934250	-1.400578 
		0.000000	2.106504	-1.401456 
		-0.000000	2.974354	-1.396897 
		-0.938860	0.387540	-1.699260 
		-0.969695	0.770498	-3.773106 
		-0.938970	0.393696	-2.848284 
		-0.969695	0.843572	-4.759914 
		-0.996288	0.340780	-1.191911 
		-0.938173	0.341037	-0.989939 
		-0.996901	0.383092	-1.196450 
		-0.996288	0.340313	-1.558205 
		-0.996954	0.386272	-1.555936 
		-0.938173	0.340131	-1.701545 
		-0.938173	0.338709	-2.848239 
		-1.009462	0.390999	-3.594492 
		-1.008692	0.337849	-3.592208 
		-1.008692	0.338530	-3.002941 
		-1.009483	0.393137	-3.002959 
		-0.731659	1.571821	-3.946648 
		0.000000	1.611894	-4.439207 
		-0.000000	1.400384	-5.153143 
		-0.855978	0.814958	-3.742672 
		0.848446	0.510183	-5.204864 
		0.947126	0.511078	-4.868760 
		0.912289	0.359057	-4.895689 
		0.832088	0.386252	-5.148537 
		0.964022	0.696380	-4.835934 
		0.857402	0.689626	-5.201627 
		0.335063	1.140075	-0.113170 
		0.238195	1.140075	0.309265 
		0.238195	0.875113	0.309265 
		0.335063	0.875113	-0.113170 
		0.596116	0.959352	-5.161494 
		0.605311	1.317622	-5.113259 
		0.705470	1.120887	-4.779952 
		0.774487	1.188460	-4.396923 
		0.976367	0.967544	-4.549646 
		0.974143	0.917199	-4.660993 
		0.913239	1.081517	-4.774216 
		0.938937	0.390347	-3.775010 
		0.938173	0.337637	-3.775274 
		0.938173	0.337524	-3.840653 
		0.987516	0.930536	-2.894214 
		0.972895	2.389242	-2.898323 
		0.982732	2.106504	-1.401456 
		0.981513	0.934250	-1.400578 
		0.969695	0.912200	-4.058281 
		0.946025	1.067078	-4.054802 
		0.960241	0.939825	-3.882246 
		0.690668	2.142874	-3.802491 
		0.690668	2.227001	-3.720444 
		0.787256	2.227111	-3.497466 
		0.787256	2.100401	-3.579824 
		0.690668	2.126206	-3.753271 
		0.603110	2.256203	-3.581981 
		0.870871	0.959504	-5.166894 
		0.513504	0.925876	-5.192899 
		0.515925	1.356872	-5.153143 
		0.200725	1.383456	-5.153143 
		0.532601	1.576942	-4.430090 
		0.621293	1.516753	-4.441740 
		0.698700	1.482096	-4.434881 
		0.365851	0.340881	-0.984539 
		0.969695	0.774007	-0.905752 
		0.876536	0.895584	-0.837528 
		0.365852	0.895584	-0.837528 
		0.690668	1.630553	-3.947731 
		0.787256	1.589300	-3.778315 
		0.603110	2.627384	-3.222155 
		0.823404	2.552440	-3.156947 
		0.819488	2.308075	-3.361839 
		0.603110	2.805248	-2.899588 
		0.823404	2.716427	-2.853543 
		0.787256	0.929688	-3.078750 
		0.787256	0.930112	-3.820426 
		0.787256	2.254389	-3.057352 
		0.801151	1.116739	-4.023336 
		0.933976	1.132944	-4.406547 
		0.969695	0.772988	-1.728594 
		0.864473	0.811824	-1.734612 
		0.781190	0.929391	-1.723997 
		0.779742	0.929320	-1.400552 
		0.969695	0.773931	-0.967438 
		0.367775	0.640746	1.156968 
		0.367774	0.897352	1.156968 
		0.938755	0.381227	-0.986678 
		0.967885	0.649091	-0.955948 
		0.439171	0.839698	-4.794395 
		0.439171	0.357447	-4.896114 
		0.969695	0.976324	-4.218091 
		0.439171	1.001945	-4.392684 
		0.974143	0.994045	-4.391369 
		0.969695	0.648952	-3.867733 
		0.459582	0.337369	-3.835253 
		0.439171	0.905085	-4.007341 
		0.969695	0.804196	-3.942687 
		0.603110	3.076714	-1.400317 
		0.603110	2.942315	-2.510848 
		0.823404	2.974354	-1.396897 
		0.823404	2.839955	-2.481831 
		0.787256	2.257506	-3.393941 
		0.938860	0.387540	-1.699260 
		0.938970	0.393696	-2.848284 
		0.969695	0.770498	-3.773106 
		0.969695	0.843572	-4.759914 
		0.996288	0.340780	-1.191911 
		0.996901	0.383092	-1.196450 
		0.938173	0.341037	-0.989939 
		0.996288	0.340313	-1.558205 
		0.996954	0.386272	-1.555936 
		0.938173	0.340131	-1.701545 
		0.938173	0.338709	-2.848239 
		1.009462	0.390999	-3.594492 
		1.009483	0.393137	-3.002959 
		1.008692	0.338530	-3.002941 
		1.008692	0.337849	-3.592208 
		0.731659	1.571821	-3.946648 
		0.855978	0.814958	-3.742672 
		-1.079763	1.622219	-3.588743 
		-0.891589	1.622219	-3.607679 
		-0.891589	2.039919	-3.607679 
		-1.079763	2.039919	-3.588743 
		-0.891589	2.039919	-3.649134 
		-0.891589	1.639560	-3.649134 
		-0.891589	1.622219	-3.649134 
		-0.891589	2.022991	-3.649134 
		-0.751365	1.627999	-3.639172 
		-0.751365	2.034276	-3.639172 
		1.079763	1.622219	-3.588743 
		1.079763	2.039919	-3.588743 
		0.891589	2.039919	-3.607679 
		0.891589	1.622219	-3.607679 
		0.891589	2.039919	-3.649134 
		0.891589	1.622219	-3.649134 
		0.891589	1.639560	-3.649134 
		0.891589	2.022991	-3.649134 
		0.751365	1.627999	-3.639172 
		0.751365	2.034276	-3.639172 
		-0.459583	0.339081	-2.526362 
		0.000000	0.340881	-0.984539 
		-0.000000	0.357447	-4.896114 
		-0.000000	0.337369	-3.835253 
		-0.000000	0.339081	-2.526362 
		0.459583	0.339081	-2.526362 
		-0.719415	0.901138	-5.192610 
		-0.632093	0.838526	-5.197820 
		-0.864462	0.740733	-5.205522 
		-0.600738	0.782243	-5.202447 
		-0.625549	0.740151	-5.205851 
		-0.872079	0.893355	-5.185878 
		0.719415	0.901138	-5.192610 
		0.864462	0.740733	-5.205522 
		0.632093	0.838526	-5.197820 
		0.600738	0.782243	-5.202447 
		0.625549	0.740151	-5.205851 
		0.872079	0.893355	-5.185878 
		-0.905317	0.740733	-5.089312 
		-0.913294	0.893355	-5.069668 
		0.913294	0.893355	-5.069668 
		0.905317	0.740733	-5.089312 
	}

	Nrm 288 { 
		-0.593750	-0.187500	-0.781250 
		-0.562500	-0.359375	-0.734375 
		-0.937500	-0.203125	-0.296875 
		-0.953125	-0.125000	-0.281250 
		-0.968750	0.000000	-0.265625 
		-0.593750	0.000000	-0.796875 
		-0.937500	0.000000	-0.359375 
		-0.625000	0.000000	0.781250 
		-0.437500	0.546875	-0.718750 
		-0.968750	0.078125	-0.234375 
		-0.859375	0.312500	-0.421875 
		-0.968750	0.171875	-0.156250 
		-0.953125	0.281250	-0.093750 
		-0.953125	0.265625	-0.140625 
		-0.953125	0.234375	-0.156250 
		-1.000000	-0.046875	-0.062500 
		-1.000000	-0.046875	0.046875 
		-0.984375	-0.015625	-0.187500 
		-0.906250	0.000000	-0.406250 
		-1.000000	0.000000	0.000000 
		-1.000000	0.093750	0.015625 
		-0.968750	0.125000	-0.218750 
		-0.984375	0.125000	0.046875 
		-1.000000	0.109375	0.031250 
		-0.984375	0.187500	0.031250 
		-0.546875	0.562500	-0.625000 
		-0.343750	0.843750	-0.421875 
		0.000000	0.875000	-0.484375 
		0.000000	0.687500	-0.718750 
		-0.968750	0.140625	-0.187500 
		-0.921875	0.359375	-0.156250 
		-0.015625	-0.968750	-0.250000 
		-0.312500	-0.906250	-0.312500 
		0.000000	-0.390625	-0.921875 
		0.000000	-0.046875	-1.000000 
		-0.343750	0.750000	-0.562500 
		0.000000	0.984375	-0.203125 
		-0.093750	0.250000	-0.968750 
		-0.656250	0.437500	-0.609375 
		-0.281250	0.609375	-0.734375 
		-0.468750	0.781250	-0.421875 
		-0.609375	0.734375	-0.312500 
		-0.500000	0.796875	-0.343750 
		-0.328125	0.921875	-0.234375 
		-0.687500	0.703125	-0.218750 
		-0.046875	-0.296875	0.953125 
		-0.531250	0.312500	-0.781250 
		0.000000	0.359375	-0.937500 
		-0.968750	0.218750	-0.125000 
		-0.968750	0.093750	-0.234375 
		-0.250000	0.765625	-0.593750 
		0.000000	0.796875	-0.593750 
		0.000000	0.703125	-0.703125 
		-0.843750	0.046875	-0.531250 
		-0.703125	0.562500	-0.437500 
		-0.234375	0.890625	-0.390625 
		0.000000	0.906250	-0.406250 
		-0.687500	0.671875	-0.296875 
		-1.000000	0.000000	0.031250 
		-1.000000	0.031250	0.000000 
		-0.156250	0.953125	-0.265625 
		-0.296875	0.953125	-0.015625 
		-0.125000	0.171875	-0.984375 
		-0.437500	0.906250	0.000000 
		-0.640625	0.765625	0.000000 
		-0.703125	0.703125	-0.046875 
		-0.328125	0.656250	0.687500 
		-0.312500	0.859375	0.406250 
		-0.265625	0.640625	0.718750 
		0.000000	0.000000	1.000000 
		-0.015625	-0.109375	1.000000 
		-0.906250	-0.046875	-0.421875 
		-0.421875	0.906250	-0.015625 
		-0.015625	-0.203125	0.984375 
		0.015625	-1.000000	-0.109375 
		-0.078125	-0.218750	-0.968750 
		0.062500	-0.734375	-0.687500 
		-1.000000	0.031250	-0.015625 
		-1.000000	0.015625	-0.015625 
		0.000000	0.000000	-1.000000 
		0.000000	0.968750	-0.218750 
		-0.234375	0.953125	-0.218750 
		-0.218750	0.968750	-0.109375 
		0.000000	1.000000	-0.109375 
		-0.718750	0.671875	-0.156250 
		-0.859375	0.515625	-0.046875 
		-0.046875	0.625000	-0.781250 
		-0.937500	0.078125	-0.328125 
		-0.906250	-0.281250	-0.312500 
		-0.656250	0.015625	-0.750000 
		-0.015625	-1.000000	0.000000 
		0.000000	1.000000	0.000000 
		0.000000	0.031250	1.000000 
		0.000000	1.000000	0.062500 
		-0.984375	-0.031250	-0.125000 
		-1.000000	-0.078125	0.000000 
		-1.000000	-0.031250	0.031250 
		-1.000000	-0.046875	0.109375 
		-0.140625	-0.375000	0.921875 
		-1.000000	-0.015625	0.000000 
		-0.984375	0.203125	0.046875 
		-0.953125	0.281250	-0.031250 
		-0.968750	0.265625	0.000000 
		-0.031250	-0.906250	0.406250 
		-1.000000	0.031250	0.015625 
		-0.343750	0.609375	0.718750 
		0.031250	-0.796875	0.593750 
		-0.968750	0.140625	-0.203125 
		-0.015625	-0.953125	-0.281250 
		0.015625	-0.984375	0.171875 
		-0.046875	-0.921875	0.375000 
		-0.031250	-0.437500	-0.906250 
		-0.984375	-0.015625	0.140625 
		-0.968750	-0.015625	0.265625 
		-0.984375	0.000000	-0.187500 
		-0.984375	-0.015625	0.218750 
		0.000000	1.000000	0.015625 
		0.000000	-1.000000	0.000000 
		-0.015625	-0.078125	1.000000 
		-0.718750	0.640625	-0.281250 
		-0.796875	0.546875	-0.281250 
		0.046875	-0.453125	0.890625 
		0.000000	-0.171875	0.984375 
		-0.062500	0.968750	-0.203125 
		-0.062500	0.984375	-0.140625 
		0.000000	0.984375	-0.140625 
		0.000000	0.625000	-0.781250 
		-0.421875	0.890625	-0.187500 
		-0.281250	0.937500	-0.187500 
		-0.781250	0.546875	-0.312500 
		-0.031250	-1.000000	0.000000 
		-0.421875	0.671875	0.609375 
		-0.843750	0.531250	0.000000 
		-0.859375	0.515625	0.000000 
		-0.843750	0.546875	0.000000 
		-0.359375	0.937500	0.000000 
		0.593750	-0.187500	-0.781250 
		0.953125	-0.125000	-0.281250 
		0.937500	-0.203125	-0.296875 
		0.562500	-0.359375	-0.734375 
		0.968750	0.000000	-0.265625 
		0.593750	0.000000	-0.796875 
		0.937500	0.000000	-0.359375 
		0.625000	0.000000	0.781250 
		0.437500	0.546875	-0.718750 
		0.859375	0.312500	-0.421875 
		0.968750	0.078125	-0.234375 
		0.968750	0.171875	-0.156250 
		0.953125	0.281250	-0.093750 
		0.953125	0.234375	-0.156250 
		0.953125	0.265625	-0.140625 
		1.000000	-0.046875	-0.062500 
		0.984375	-0.015625	-0.187500 
		1.000000	-0.046875	0.046875 
		0.906250	0.000000	-0.406250 
		0.968750	0.125000	-0.218750 
		1.000000	0.093750	0.015625 
		1.000000	0.000000	0.000000 
		0.984375	0.125000	0.046875 
		0.984375	0.187500	0.031250 
		1.000000	0.109375	0.031250 
		0.546875	0.562500	-0.625000 
		0.343750	0.843750	-0.421875 
		0.921875	0.359375	-0.156250 
		0.968750	0.140625	-0.187500 
		0.015625	-0.968750	-0.250000 
		0.312500	-0.906250	-0.312500 
		0.343750	0.750000	-0.562500 
		0.656250	0.437500	-0.609375 
		0.093750	0.250000	-0.968750 
		0.281250	0.609375	-0.734375 
		0.468750	0.781250	-0.421875 
		0.500000	0.796875	-0.343750 
		0.609375	0.734375	-0.312500 
		0.328125	0.921875	-0.234375 
		0.687500	0.703125	-0.218750 
		0.046875	-0.296875	0.953125 
		0.531250	0.312500	-0.781250 
		0.968750	0.093750	-0.234375 
		0.968750	0.218750	-0.125000 
		0.250000	0.765625	-0.593750 
		0.703125	0.562500	-0.437500 
		0.843750	0.046875	-0.531250 
		0.234375	0.890625	-0.390625 
		0.687500	0.671875	-0.296875 
		1.000000	0.000000	0.031250 
		1.000000	0.031250	0.000000 
		0.156250	0.953125	-0.265625 
		0.296875	0.953125	-0.015625 
		0.125000	0.171875	-0.984375 
		0.437500	0.906250	0.000000 
		0.703125	0.703125	-0.046875 
		0.640625	0.765625	0.000000 
		0.328125	0.656250	0.687500 
		0.265625	0.640625	0.718750 
		0.312500	0.859375	0.406250 
		0.015625	-0.109375	1.000000 
		0.906250	-0.046875	-0.421875 
		0.421875	0.906250	-0.015625 
		0.015625	-0.203125	0.984375 
		-0.015625	-1.000000	-0.109375 
		0.078125	-0.218750	-0.968750 
		-0.062500	-0.734375	-0.687500 
		1.000000	0.031250	-0.015625 
		1.000000	0.015625	-0.015625 
		0.218750	0.968750	-0.109375 
		0.234375	0.953125	-0.218750 
		0.859375	0.515625	-0.046875 
		0.718750	0.671875	-0.156250 
		0.046875	0.625000	-0.781250 
		0.937500	0.078125	-0.328125 
		0.906250	-0.281250	-0.312500 
		0.656250	0.015625	-0.750000 
		0.015625	-1.000000	0.000000 
		0.984375	-0.031250	-0.125000 
		1.000000	-0.046875	0.109375 
		1.000000	-0.031250	0.031250 
		1.000000	-0.078125	0.000000 
		0.140625	-0.375000	0.921875 
		1.000000	-0.015625	0.000000 
		0.984375	0.203125	0.046875 
		0.968750	0.265625	0.000000 
		0.953125	0.281250	-0.031250 
		0.031250	-0.906250	0.406250 
		1.000000	0.031250	0.015625 
		0.343750	0.609375	0.718750 
		-0.031250	-0.796875	0.593750 
		0.968750	0.140625	-0.203125 
		0.015625	-0.953125	-0.281250 
		-0.015625	-0.984375	0.171875 
		0.046875	-0.921875	0.375000 
		0.031250	-0.437500	-0.906250 
		0.984375	-0.015625	0.140625 
		0.968750	-0.015625	0.265625 
		0.984375	0.000000	-0.187500 
		0.984375	-0.015625	0.218750 
		0.015625	-0.078125	1.000000 
		0.718750	0.640625	-0.281250 
		0.796875	0.546875	-0.281250 
		-0.046875	-0.453125	0.890625 
		0.062500	0.984375	-0.140625 
		0.062500	0.968750	-0.203125 
		0.421875	0.890625	-0.187500 
		0.281250	0.937500	-0.187500 
		0.781250	0.546875	-0.312500 
		0.031250	-1.000000	0.000000 
		0.421875	0.671875	0.609375 
		0.843750	0.531250	0.000000 
		0.859375	0.515625	0.000000 
		0.843750	0.546875	0.000000 
		0.359375	0.937500	0.000000 
		0.093750	0.000000	1.000000 
		0.015625	1.000000	0.000000 
		-0.312500	0.000000	-0.953125 
		0.718750	0.640625	0.265625 
		0.718750	0.578125	-0.390625 
		0.703125	-0.593750	-0.390625 
		0.718750	-0.640625	0.265625 
		0.046875	-1.000000	0.000000 
		0.078125	0.000000	-1.000000 
		0.109375	0.828125	-0.546875 
		0.109375	-0.828125	-0.546875 
		0.046875	1.000000	0.000000 
		-0.093750	0.000000	1.000000 
		-0.015625	1.000000	0.000000 
		0.312500	0.000000	-0.953125 
		-0.718750	0.640625	0.265625 
		-0.718750	-0.640625	0.265625 
		-0.703125	-0.593750	-0.390625 
		-0.718750	0.578125	-0.390625 
		-0.046875	-1.000000	0.000000 
		-0.078125	0.000000	-1.000000 
		-0.109375	0.828125	-0.546875 
		-0.109375	-0.828125	-0.546875 
		-0.046875	1.000000	0.000000 
		0.000000	-0.984375	0.140625 
		0.000000	-1.000000	-0.015625 
		0.000000	-1.000000	-0.109375 
		0.000000	-1.000000	-0.093750 
		-0.031250	0.109375	-1.000000 
		0.000000	0.078125	-1.000000 
		-0.015625	0.093750	-1.000000 
		-0.046875	0.125000	-0.984375 
		0.031250	0.109375	-1.000000 
		0.015625	0.093750	-1.000000 
		0.046875	0.125000	-0.984375 
		-0.937500	0.000000	-0.328125 
		0.937500	0.000000	-0.328125 
	}

	Cpv 641 { 
		0.500000	0.591552	0.500000	0.000000 
		0.500000	0.591552	0.500000	0.000000 
		0.500000	0.591552	0.500000	0.000000 
		0.500000	0.591552	0.500000	0.000000 
		0.500000	0.500000	0.500000	0.000000 
		0.500000	0.500000	0.500000	0.000000 
		0.500000	0.500000	0.500000	0.000000 
		0.500000	0.500000	0.500000	0.000000 
		0.500000	0.500000	0.500000	0.000000 
		0.500000	0.500000	0.500000	0.000000 
		0.500000	0.500000	0.500000	0.000000 
		0.500000	0.500000	0.500000	0.000000 
		0.500000	0.500000	0.500000	0.000000 
		0.500000	0.500000	0.500000	0.000000 
		0.500000	0.500000	0.500000	0.000000 
		0.500000	0.500000	0.500000	0.000000 
		0.500000	0.500000	0.500000	0.000000 
		0.500000	0.500000	0.500000	0.000000 
		0.500000	0.500000	0.500000	0.000000 
		0.500000	0.500000	0.500000	0.000000 
		0.500000	0.500000	0.500000	0.000000 
		0.500000	0.500000	0.500000	0.000000 
		0.624050	0.500000	0.500000	0.003922 
		0.602826	0.500000	0.500000	0.003922 
		0.500000	0.500000	0.500000	0.000000 
		0.500000	0.500000	0.500000	0.000000 
		0.500000	0.500000	0.500000	0.000000 
		0.500000	0.500000	0.500000	0.003922 
		0.500000	0.500000	0.500000	0.003922 
		0.500000	0.500000	0.500000	0.003922 
		0.500000	0.500000	0.500000	0.003922 
		0.500000	0.500000	0.500000	0.003922 
		0.500000	0.500000	0.500000	0.003922 
		0.500000	0.500000	0.500000	0.003922 
		0.500000	0.500000	0.500000	0.003922 
		0.500000	0.500000	0.500000	0.003922 
		0.500000	0.500000	0.500000	0.003922 
		0.500000	0.500000	0.500000	0.003922 
		0.500000	0.500000	0.500000	0.003922 
		0.500000	0.500000	0.500000	0.003922 
		0.500000	0.500000	0.500000	0.003922 
		0.500000	0.500000	0.500000	0.003922 
		0.500000	0.562988	0.621977	0.000000 
		0.500000	0.591552	0.500000	0.000000 
		0.500000	0.591552	0.500000	0.000000 
		0.500000	0.562988	0.621977	0.000000 
		0.500000	0.500000	0.500000	0.003922 
		0.500000	0.500000	0.500000	0.003922 
		0.500000	0.500000	0.500000	0.000000 
		0.500000	0.500000	0.500000	0.000000 
		0.500000	0.500000	0.500000	0.000000 
		0.500000	0.500000	0.500000	0.000000 
		0.500000	0.500000	0.500000	0.000000 
		0.500000	0.500000	0.500000	0.000000 
		0.500000	0.500000	0.500000	0.000000 
		0.500000	0.500000	0.500000	0.000000 
		0.500000	0.500000	0.500000	0.000000 
		0.500000	0.500000	0.500000	0.000000 
		0.500000	0.500000	0.500000	0.000000 
		0.500000	0.500000	0.500000	0.000000 
		0.500000	0.500000	0.500000	0.000000 
		0.500000	0.500000	0.500000	0.000000 
		0.500000	0.500000	0.500000	0.000000 
		0.500000	0.500000	0.500000	0.003922 
		0.500000	0.500000	0.500000	0.003922 
		0.500000	0.500000	0.500000	0.000000 
		0.500000	0.500000	0.500000	0.000000 
		0.500000	0.500000	0.500000	0.003922 
		0.500000	0.500000	0.500000	0.003922 
		0.500000	0.500000	0.500000	0.003922 
		0.500000	0.500000	0.500000	0.003922 
		0.500000	0.500000	0.500000	0.003922 
		0.500000	0.500000	0.500000	0.003922 
		0.500000	0.500000	0.500000	0.003922 
		0.500000	0.424406	0.500000	0.003922 
		0.500000	0.500000	0.500000	0.003922 
		0.500000	0.424406	0.500000	0.003922 
		0.500000	0.500000	0.500000	0.000000 
		0.500000	0.500000	0.500000	0.003922 
		0.500000	0.500000	0.500000	0.000000 
		0.500000	0.500000	0.500000	0.000000 
		0.500000	0.500000	0.500000	0.000000 
		0.500000	0.500000	0.500000	0.000000 
		0.500000	0.500000	0.500000	0.000000 
		0.500000	0.500000	0.500000	0.000000 
		0.500000	0.500000	0.500000	0.000000 
		0.500000	0.500000	0.500000	0.000000 
		0.500000	0.500000	0.500000	0.000000 
		0.500000	0.500000	0.500000	0.000000 
		0.500000	0.500000	0.500000	0.000000 
		0.500000	0.500000	0.500000	0.000000 
		0.500000	0.500000	0.500000	0.000000 
		0.500000	0.500000	0.500000	0.000000 
		0.500000	0.500000	0.500000	0.000000 
		0.500000	0.500000	0.500000	0.000000 
		0.500000	0.500000	0.500000	0.000000 
		0.500000	0.500000	0.500000	0.000000 
		0.500000	0.500000	0.500000	0.000000 
		0.500000	0.500000	0.500000	0.000000 
		0.500000	0.500000	0.500000	0.000000 
		0.500000	0.500000	0.500000	0.000000 
		0.500000	0.500000	0.500000	0.000000 
		0.500000	0.500000	0.500000	0.000000 
		0.500000	0.500000	0.500000	0.000000 
		0.500000	0.500000	0.500000	0.000000 
		0.500000	0.500000	0.500000	0.000000 
		0.500000	0.500000	0.500000	0.000000 
		0.500000	0.500000	0.500000	0.000000 
		0.500000	0.500000	0.500000	0.000000 
		0.500000	0.500000	0.500000	0.000000 
		0.500000	0.591552	0.500000	0.000000 
		0.500000	0.575801	0.500001	0.000000 
		0.500000	0.500000	0.500000	0.000000 
		0.500000	0.500000	0.500000	0.000000 
		0.500000	0.500000	0.500000	0.000000 
		0.500000	0.500000	0.500000	0.000000 
		0.500000	0.500000	0.500000	0.000000 
		0.500000	0.500000	0.500000	0.000000 
		0.500000	0.500000	0.500000	0.000000 
		0.500000	0.500000	0.500000	0.000000 
		0.500000	0.500000	0.500000	0.000000 
		0.500000	0.500000	0.500000	0.000000 
		0.500000	0.500000	0.500000	0.000000 
		0.500000	0.500000	0.500000	0.000000 
		0.500000	0.575801	0.500001	0.000000 
		0.500000	0.500000	0.500000	0.000000 
		0.500000	0.500000	0.500000	0.000000 
		0.500000	0.500000	0.500000	0.000000 
		0.500000	0.500000	0.500000	0.000000 
		0.500000	0.500000	0.500000	0.003922 
		0.500000	0.450379	0.500000	0.003922 
		0.500000	0.424406	0.500000	0.003922 
		0.500000	0.361149	0.384543	0.003922 
		0.500000	0.430110	0.384543	0.003922 
		0.500000	0.424406	0.500000	0.003922 
		0.500000	0.361149	0.384543	0.003922 
		0.500000	0.500000	0.500000	0.000000 
		0.500000	0.500000	0.500000	0.000000 
		0.500000	0.500000	0.500000	0.003922 
		0.500000	0.500000	0.500000	0.003922 
		0.500000	0.500000	0.500000	0.003922 
		0.500000	0.500000	0.500000	0.000000 
		0.500000	0.500000	0.500000	0.000000 
		0.500000	0.500000	0.500000	0.000000 
		0.500000	0.500000	0.500000	0.000000 
		0.500000	0.500000	0.500000	0.000000 
		0.500000	0.500000	0.500000	0.000000 
		0.500000	0.500000	0.500000	0.000000 
		0.500000	0.500000	0.500000	0.000000 
		0.500000	0.500000	0.500000	0.000000 
		0.500000	0.500000	0.500000	0.000000 
		0.500000	0.500000	0.500000	0.000000 
		0.624050	0.500000	0.500000	0.003922 
		0.500000	0.500000	0.500000	0.000000 
		0.500000	0.500000	0.500000	0.000000 
		0.500000	0.500000	0.500000	0.003922 
		0.500000	0.361149	0.384543	0.003922 
		0.500000	0.361149	0.384543	0.003922 
		0.500000	0.361149	0.384543	0.003922 
		0.500000	0.430110	0.384543	0.003922 
		0.500000	0.361149	0.384543	0.003922 
		0.500000	0.361149	0.384543	0.003922 
		0.500000	0.500000	0.500000	0.000000 
		0.500000	0.500000	0.500000	0.000000 
		0.500000	0.500000	0.500000	0.000000 
		0.500000	0.500000	0.500000	0.000000 
		0.500000	0.613521	0.500000	0.000000 
		0.500000	0.500000	0.500000	0.000000 
		0.500000	0.500000	0.500000	0.000000 
		0.500000	0.613521	0.500000	0.000000 
		0.500000	0.500000	0.500000	0.000000 
		0.500000	0.500000	0.500000	0.000000 
		0.500000	0.500000	0.500000	0.000000 
		0.500000	0.500000	0.500000	0.000000 
		0.500000	0.500000	0.500000	0.000000 
		0.500000	0.500000	0.500000	0.000000 
		0.500000	0.500000	0.500000	0.000000 
		0.500000	0.500000	0.500000	0.000000 
		0.500000	0.500000	0.500000	0.000000 
		0.500000	0.500000	0.500000	0.000000 
		0.500000	0.500000	0.500000	0.000000 
		0.500000	0.500000	0.500000	0.000000 
		0.500000	0.500000	0.500000	0.000000 
		0.500000	0.500000	0.500000	0.000000 
		0.500000	0.500000	0.500000	0.000000 
		0.500000	0.500000	0.500000	0.000000 
		0.500000	0.500000	0.500000	0.000000 
		0.500000	0.500000	0.500000	0.000000 
		0.500000	0.500000	0.500000	0.000000 
		0.500000	0.500000	0.500000	0.000000 
		0.500000	0.500000	0.500000	0.000000 
		0.500000	0.500000	0.500000	0.000000 
		0.500000	0.500000	0.500000	0.000000 
		0.500000	0.500000	0.500000	0.000000 
		0.500000	0.500000	0.500000	0.000000 
		0.500000	0.500000	0.500000	0.000000 
		0.500000	0.500000	0.500000	0.000000 
		0.500000	0.500000	0.500000	0.000000 
		0.500000	0.500000	0.500000	0.000000 
		0.500000	0.500000	0.500000	0.000000 
		0.500000	0.500000	0.500000	0.000000 
		0.500000	0.500000	0.500000	0.000000 
		0.500000	0.500000	0.500000	0.000000 
		0.500000	0.500000	0.500000	0.000000 
		0.500000	0.500000	0.500000	0.000000 
		0.500000	0.500000	0.500000	0.000000 
		0.500000	0.500000	0.500000	0.000000 
		0.500000	0.549671	0.500000	0.000000 
		0.500000	0.549671	0.500000	0.000000 
		0.500000	0.613521	0.500000	0.000000 
		0.500000	0.613521	0.500000	0.000000 
		0.500000	0.500000	0.500000	0.000000 
		0.500000	0.500000	0.500000	0.000000 
		0.500000	0.549671	0.500000	0.000000 
		0.500000	0.549671	0.500000	0.000000 
		0.500000	0.613521	0.500000	0.000000 
		0.500000	0.500000	0.500000	0.000000 
		0.500000	0.500000	0.500000	0.000000 
		0.500000	0.549671	0.500000	0.000000 
		0.500000	0.500000	0.500000	0.000000 
		0.500000	0.613521	0.500000	0.000000 
		0.500000	0.549671	0.500000	0.000000 
		0.500000	0.500000	0.500000	0.000000 
		0.500000	0.500000	0.500000	0.000000 
		0.500000	0.613521	0.500000	0.000000 
		0.500000	0.549671	0.500000	0.000000 
		0.500000	0.500000	0.500000	0.000000 
		0.500000	0.500000	0.500000	0.000000 
		0.500000	0.500000	0.500000	0.000000 
		0.500000	0.500000	0.500000	0.000000 
		0.500000	0.500000	0.500000	0.000000 
		0.500000	0.500000	0.500000	0.000000 
		0.500000	0.500000	0.500000	0.000000 
		0.500000	0.500000	0.500000	0.000000 
		0.500000	0.500000	0.500000	0.000000 
		0.500000	0.500000	0.500000	0.000000 
		0.500000	0.500000	0.500000	0.000000 
		0.500000	0.575801	0.500001	0.000000 
		0.500000	0.591552	0.500000	0.000000 
		0.500000	0.591552	0.500000	0.000000 
		0.500000	0.500000	0.500000	0.000000 
		0.500000	0.500000	0.500000	0.000000 
		0.500000	0.500000	0.500000	0.000000 
		0.500000	0.500000	0.500000	0.000000 
		0.500000	0.500000	0.500000	0.000000 
		0.500000	0.500000	0.500000	0.000000 
		0.500000	0.500000	0.500000	0.000000 
		0.500000	0.500000	0.500000	0.000000 
		0.500000	0.613521	0.500000	0.000000 
		0.500000	0.500000	0.500000	0.000000 
		0.500000	0.500000	0.500000	0.000000 
		0.500000	0.500000	0.500000	0.000000 
		0.500000	0.500000	0.500000	0.000000 
		0.500000	0.500000	0.500000	0.000000 
		0.500000	0.500000	0.500000	0.000000 
		0.500000	0.500000	0.500000	0.000000 
		0.500000	0.500000	0.500000	0.000000 
		0.500000	0.500000	0.500000	0.000000 
		0.500000	0.500000	0.500000	0.000000 
		0.500000	0.500000	0.500000	0.000000 
		0.500000	0.500000	0.500000	0.000000 
		0.500000	0.500000	0.500000	0.000000 
		0.500000	0.500000	0.500000	0.000000 
		0.500000	0.500000	0.500000	0.000000 
		0.500000	0.500000	0.500000	0.000000 
		0.500000	0.500000	0.500000	0.000000 
		0.253923	0.535644	0.525995	0.000000 
		0.258827	0.550679	0.457959	0.000000 
		0.259330	0.567370	0.493725	0.000000 
		0.258897	0.560332	0.527004	0.000000 
		0.252000	0.525680	0.481655	0.000000 
		0.491044	0.320557	0.496763	0.000000 
		0.524289	0.463161	0.253925	0.000000 
		0.534795	0.478730	0.253349	0.000000 
		0.533830	0.482629	0.252909	0.000000 
		0.529786	0.473371	0.253213	0.000000 
		0.761286	0.230275	0.459866	0.000000 
		0.486560	0.477993	0.748667	0.000000 
		0.480220	0.501025	0.749214	0.000000 
		0.471756	0.483498	0.747851	0.000000 
		0.462474	0.508771	0.747012	0.000000 
		0.231327	0.703687	0.381041	0.000000 
		0.346130	0.440724	0.312090	0.000000 
		0.449814	0.639487	0.298692	0.000000 
		0.509559	0.657643	0.306203	0.000000 
		0.460260	0.706594	0.364946	0.000000 
		0.490162	0.519997	0.250995	0.000000 
		0.496156	0.272843	0.395669	0.003922 
		0.496262	0.353536	0.297431	0.003922 
		0.499435	0.498693	0.250004	0.000000 
		0.487711	0.276001	0.610333	0.000000 
		0.503338	0.487506	0.749665	0.000000 
		0.456485	0.497686	0.746173	0.000000 
		0.530184	0.496241	0.748143	0.003922 
		0.548399	0.547487	0.740629	0.003922 
		0.548399	0.547487	0.740629	0.003922 
		0.531924	0.262433	0.428989	0.003922 
		0.535251	0.270412	0.407551	0.003922 
		0.530184	0.496241	0.748143	0.003922 
		0.556473	0.265770	0.433315	0.003922 
		0.500000	0.500000	0.500000	0.003922 
		0.500000	0.500000	0.500000	0.003922 
		0.530184	0.496241	0.748143	0.003922 
		0.535251	0.270412	0.407551	0.003922 
		0.556473	0.265770	0.433315	0.003922 
		0.530184	0.496241	0.748143	0.003922 
		0.253923	0.535644	0.525995	0.000000 
		0.258897	0.560332	0.527004	0.000000 
		0.587558	0.386671	0.279490	0.003922 
		0.761286	0.230275	0.459866	0.000000 
		0.489315	0.645792	0.702807	0.000000 
		0.522449	0.664872	0.686583	0.000000 
		0.535890	0.615109	0.719002	0.000000 
		0.486560	0.477993	0.748667	0.000000 
		0.573843	0.611946	0.710986	0.000000 
		0.495240	0.337730	0.309879	0.000000 
		0.495992	0.662996	0.689516	0.000000 
		0.495992	0.662996	0.689516	0.000000 
		0.547003	0.357331	0.300159	0.000000 
		0.508739	0.559162	0.257258	0.000000 
		0.469988	0.555132	0.258009	0.000000 
		0.482595	0.542357	0.254230	0.000000 
		0.490502	0.528063	0.251762	0.000000 
		0.503943	0.427132	0.260888	0.000000 
		0.556473	0.265770	0.433315	0.003922 
		0.535251	0.270412	0.407551	0.003922 
		0.465894	0.398959	0.726114	0.000000 
		0.587558	0.386671	0.279490	0.003922 
		0.479939	0.353568	0.701631	0.003922 
		0.512731	0.345227	0.695916	0.003922 
		0.504930	0.377947	0.718125	0.003922 
		0.513882	0.313749	0.333814	0.003922 
		0.493804	0.306787	0.341475	0.003922 
		0.473136	0.747670	0.479079	0.000000 
		0.505155	0.731348	0.594614	0.000000 
		0.465894	0.398959	0.726114	0.000000 
		0.532231	0.553686	0.195513	0.003922 
		0.475705	0.707137	0.637855	0.000000 
		0.480220	0.501025	0.749214	0.000000 
		0.346130	0.440724	0.312090	0.000000 
		0.489315	0.645792	0.702807	0.000000 
		0.471756	0.483498	0.747851	0.000000 
		0.487552	0.678265	0.674833	0.000000 
		0.466742	0.528565	0.253874	0.000000 
		0.490766	0.514145	0.250571	0.000000 
		0.500807	0.676219	0.322669	0.000000 
		0.502035	0.517819	0.250644	0.000000 
		0.469988	0.555132	0.258009	0.000000 
		0.497418	0.525955	0.251364	0.000000 
		0.505155	0.731348	0.594614	0.000000 
		0.456485	0.497686	0.746173	0.000000 
		0.503338	0.487506	0.749665	0.000000 
		0.475705	0.707137	0.637855	0.000000 
		0.550999	0.511205	0.255514	0.000000 
		0.508739	0.559162	0.257258	0.000000 
		0.490502	0.528063	0.251762	0.000000 
		0.535509	0.502752	0.252550	0.000000 
		0.478561	0.624275	0.284138	0.000000 
		0.415738	0.625503	0.300880	0.000000 
		0.508739	0.559162	0.257258	0.000000 
		0.497418	0.525955	0.251364	0.000000 
		0.415738	0.625503	0.300880	0.000000 
		0.478561	0.624275	0.284138	0.000000 
		0.482595	0.542357	0.254230	0.000000 
		0.534324	0.495745	0.747596	0.000000 
		0.497055	0.511687	0.749709	0.000000 
		0.258827	0.550679	0.457959	0.000000 
		0.252000	0.525680	0.481655	0.000000 
		0.472181	0.496350	0.748421	0.000000 
		0.537819	0.474760	0.745831	0.000000 
		0.497443	0.455716	0.746033	0.000000 
		0.377724	0.543964	0.286422	0.000000 
		0.460260	0.706594	0.364946	0.000000 
		0.641259	0.676938	0.393986	0.000000 
		0.500000	0.368854	0.287160	0.000000 
		0.504448	0.689848	0.051318	0.000000 
		0.500000	0.368854	0.287160	0.000000 
		0.487711	0.276001	0.610333	0.000000 
		0.641259	0.676938	0.393986	0.000000 
		0.497055	0.511687	0.749709	0.000000 
		0.500000	0.368854	0.287160	0.000000 
		0.537819	0.474760	0.745831	0.000000 
		0.534324	0.495745	0.747596	0.000000 
		0.535251	0.270412	0.407551	0.003922 
		0.526722	0.334347	0.314676	0.003922 
		0.487736	0.277417	0.386834	0.003922 
		0.510810	0.251888	0.471306	0.003922 
		0.464015	0.252643	0.495596	0.003922 
		0.573843	0.611946	0.710986	0.000000 
		0.491044	0.320557	0.496763	0.000000 
		0.587558	0.386671	0.279490	0.003922 
		0.518859	0.260221	0.568193	0.003922 
		0.532231	0.553686	0.195513	0.003922 
		0.473136	0.747670	0.479079	0.000000 
		0.473136	0.747670	0.479079	0.000000 
		0.490162	0.519997	0.250995	0.000000 
		0.499435	0.498693	0.250004	0.000000 
		0.500807	0.676219	0.322669	0.000000 
		0.490502	0.528063	0.251762	0.000000 
		0.535509	0.502752	0.252550	0.000000 
		0.496262	0.353536	0.297431	0.003922 
		0.502035	0.517819	0.250644	0.000000 
		0.526722	0.334347	0.314676	0.003922 
		0.510810	0.251888	0.471306	0.003922 
		0.510810	0.251888	0.471306	0.003922 
		0.499435	0.498693	0.250004	0.000000 
		0.490502	0.528063	0.251762	0.000000 
		0.468930	0.736419	0.424896	0.000000 
		0.488333	0.746972	0.536997	0.000000 
		0.471783	0.677518	0.673756	0.000000 
		0.466742	0.528565	0.253874	0.000000 
		0.415738	0.625503	0.300880	0.000000 
		0.469988	0.555132	0.258009	0.000000 
		0.508739	0.559162	0.257258	0.000000 
		0.497418	0.525955	0.251364	0.000000 
		0.469988	0.555132	0.258009	0.000000 
		0.415738	0.625503	0.300880	0.000000 
		0.472181	0.496350	0.748421	0.000000 
		0.497443	0.455716	0.746033	0.000000 
		0.487552	0.678265	0.674833	0.000000 
		0.547003	0.357331	0.300159	0.000000 
		0.534324	0.495745	0.747596	0.000000 
		0.231327	0.703687	0.381041	0.000000 
		0.462474	0.508771	0.747012	0.000000 
		0.504448	0.689848	0.051318	0.000000 
		0.471783	0.677518	0.673756	0.000000 
		0.231327	0.703687	0.381041	0.000000 
		0.534324	0.495745	0.747596	0.000000 
		0.490591	0.637048	0.708877	0.000000 
		0.490591	0.637048	0.708877	0.000000 
		0.487711	0.276001	0.610333	0.000000 
		0.500000	0.368854	0.287160	0.000000 
		0.537819	0.474760	0.745831	0.000000 
		0.472181	0.496350	0.748421	0.000000 
		0.537819	0.474760	0.745831	0.000000 
		0.462474	0.508771	0.747012	0.000000 
		0.497443	0.455716	0.746033	0.000000 
		0.537819	0.474760	0.745831	0.000000 
		0.534324	0.495745	0.747596	0.000000 
		0.462474	0.508771	0.747012	0.000000 
		0.377724	0.543964	0.286422	0.000000 
		0.500000	0.368854	0.287160	0.000000 
		0.504448	0.689848	0.051318	0.000000 
		0.377724	0.543964	0.286422	0.000000 
		0.482145	0.663719	0.311911	0.000000 
		0.497390	0.537168	0.252792	0.000000 
		0.478561	0.624275	0.284138	0.000000 
		0.500242	0.516355	0.250536	0.000000 
		0.488913	0.510326	0.250460	0.000000 
		0.497894	0.535323	0.252517	0.000000 
		0.503601	0.535281	0.252528	0.000000 
		0.409812	0.602365	0.290507	0.000000 
		0.498630	0.494776	0.749942	0.000000 
		0.497718	0.490866	0.749823	0.000000 
		0.498369	0.506165	0.749919	0.000000 
		0.493228	0.500306	0.749908	0.000000 
		0.488333	0.746972	0.536997	0.000000 
		0.497718	0.490866	0.749823	0.000000 
		0.498630	0.494776	0.749942	0.000000 
		0.449814	0.639487	0.298692	0.000000 
		0.478561	0.624275	0.284138	0.000000 
		0.497390	0.537168	0.252792	0.000000 
		0.497894	0.535323	0.252517	0.000000 
		0.468930	0.736419	0.424896	0.000000 
		0.500242	0.516355	0.250536	0.000000 
		0.478561	0.624275	0.284138	0.000000 
		0.508739	0.559162	0.257258	0.000000 
		0.503943	0.427132	0.260888	0.000000 
		0.524732	0.389477	0.722874	0.000000 
		0.252000	0.525680	0.481655	0.000000 
		0.491044	0.320557	0.496763	0.000000 
		0.252000	0.525680	0.481655	0.000000 
		0.490591	0.637048	0.708877	0.000000 
		0.534324	0.495745	0.747596	0.000000 
		0.497055	0.511687	0.749709	0.000000 
		0.259330	0.567370	0.493725	0.000000 
		0.258827	0.550679	0.457959	0.000000 
		0.503943	0.427132	0.260888	0.000000 
		0.495240	0.337730	0.309879	0.000000 
		0.524732	0.389477	0.722874	0.000000 
		0.524732	0.389477	0.722874	0.000000 
		0.465894	0.398959	0.726114	0.000000 
		0.497418	0.525955	0.251364	0.000000 
		0.478561	0.624275	0.284138	0.000000 
		0.468930	0.736419	0.424896	0.000000 
		0.466742	0.528565	0.253874	0.000000 
		0.500807	0.676219	0.322669	0.000000 
		0.499435	0.498693	0.250004	0.000000 
		0.502035	0.517819	0.250644	0.000000 
		0.500807	0.676219	0.322669	0.000000 
		0.653484	0.076041	0.648180	0.000000 
		0.473136	0.747670	0.479079	0.000000 
		0.653484	0.076041	0.648180	0.000000 
		0.505155	0.731348	0.594614	0.000000 
		0.500807	0.676219	0.322669	0.000000 
		0.490766	0.514145	0.250571	0.000000 
		0.466742	0.528565	0.253874	0.000000 
		0.471783	0.677518	0.673756	0.000000 
		0.653484	0.076041	0.648180	0.000000 
		0.490766	0.514145	0.250571	0.000000 
		0.500000	0.500000	0.500000	0.000000 
		0.500000	0.500000	0.500000	0.000000 
		0.500000	0.500000	0.500000	0.000000 
		0.500000	0.500000	0.500000	0.000000 
		0.550999	0.511205	0.255514	0.000000 
		0.535509	0.502752	0.252550	0.000000 
		0.672800	0.420892	0.337575	0.003922 
		0.673348	0.412985	0.342270	0.003922 
		0.648252	0.372989	0.343829	0.003922 
		0.658681	0.381244	0.347627	0.003922 
		0.658681	0.381244	0.347627	0.003922 
		0.648252	0.372989	0.343829	0.003922 
		0.669249	0.389971	0.352527	0.003922 
		0.672800	0.420892	0.337575	0.003922 
		0.691286	0.414818	0.363421	0.003922 
		0.693277	0.420723	0.362670	0.003922 
		0.672800	0.420892	0.337575	0.003922 
		0.693277	0.420723	0.362670	0.003922 
		0.673348	0.412985	0.342270	0.003922 
		0.673348	0.412985	0.342270	0.003922 
		0.691286	0.414818	0.363421	0.003922 
		0.680276	0.387602	0.368214	0.003922 
		0.648252	0.372989	0.343829	0.003922 
		0.658681	0.381244	0.347627	0.003922 
		0.669249	0.389971	0.352527	0.003922 
		0.680276	0.387602	0.368214	0.003922 
		0.673348	0.412985	0.342270	0.003922 
		0.693277	0.420723	0.362670	0.003922 
		0.679179	0.407608	0.352153	0.003922 
		0.693277	0.420723	0.362670	0.003922 
		0.691286	0.414818	0.363421	0.003922 
		0.679179	0.407608	0.352153	0.003922 
		0.673348	0.412985	0.342270	0.003922 
		0.648252	0.372989	0.343829	0.003922 
		0.680276	0.387602	0.368214	0.003922 
		0.661598	0.373162	0.357528	0.003922 
		0.669249	0.389971	0.352527	0.003922 
		0.669249	0.389971	0.352527	0.003922 
		0.648252	0.372989	0.343829	0.003922 
		0.661598	0.373162	0.357528	0.003922 
		0.250100	0.501656	0.506865	0.003922 
		0.250030	0.501267	0.503632	0.003922 
		0.250180	0.497973	0.490735	0.003922 
		0.250056	0.498523	0.494924	0.003922 
		0.250030	0.501267	0.503632	0.003922 
		0.250180	0.497973	0.490735	0.003922 
		0.250180	0.497973	0.490735	0.003922 
		0.250100	0.501656	0.506865	0.003922 
		0.250056	0.498523	0.494924	0.003922 
		0.250056	0.498523	0.494924	0.003922 
		0.250100	0.501656	0.506865	0.003922 
		0.250056	0.498523	0.494924	0.003922 
		0.250056	0.498523	0.494924	0.003922 
		0.250056	0.498523	0.494924	0.003922 
		0.250180	0.497973	0.490735	0.003922 
		0.250140	0.498020	0.491872	0.003922 
		0.250056	0.498523	0.494924	0.003922 
		0.250030	0.501267	0.503632	0.003922 
		0.250140	0.498020	0.491872	0.003922 
		0.250180	0.497973	0.490735	0.003922 
		0.250056	0.498523	0.494924	0.003922 
		0.250000	0.500000	0.500000	0.003922 
		0.250056	0.498523	0.494924	0.003922 
		0.250056	0.498523	0.494924	0.003922 
		0.250000	0.500000	0.500000	0.003922 
		0.250056	0.498523	0.494924	0.003922 
		0.250056	0.498523	0.494924	0.003922 
		0.250180	0.497973	0.490735	0.003922 
		0.250000	0.500000	0.500000	0.003922 
		0.250140	0.498020	0.491872	0.003922 
		0.250180	0.497973	0.490735	0.003922 
		0.250180	0.497973	0.490735	0.003922 
		0.250000	0.500000	0.500000	0.003922 
		0.250180	0.497973	0.490735	0.003922 
		0.500000	0.500000	0.500000	0.000000 
		0.500000	0.500000	0.500000	0.000000 
		0.500000	0.500000	0.500000	0.000000 
		0.500000	0.500000	0.500000	0.000000 
		0.500000	0.613521	0.500000	0.000000 
		0.500000	0.613521	0.500000	0.000000 
		0.500000	0.500000	0.500000	0.000000 
		0.500000	0.500000	0.500000	0.000000 
		0.500000	0.500000	0.500000	0.000000 
		0.500000	0.500000	0.500000	0.000000 
		0.500000	0.500000	0.500000	0.000000 
		0.500000	0.575801	0.500001	0.000000 
		0.500000	0.553390	0.500000	0.000000 
		0.500000	0.500000	0.500000	0.000000 
		0.500000	0.500000	0.500000	0.000000 
		0.500000	0.500000	0.500000	0.000000 
		0.500000	0.500000	0.500000	0.000000 
		0.500000	0.575801	0.500001	0.000000 
		0.500000	0.591552	0.500000	0.000000 
		0.500000	0.591552	0.500000	0.000000 
		0.500000	0.562988	0.621977	0.000000 
		0.500000	0.575801	0.500001	0.000000 
		0.500000	0.562988	0.621977	0.000000 
		0.500000	0.553390	0.500000	0.000000 
		0.500000	0.549671	0.500000	0.000000 
		0.500000	0.500000	0.500000	0.000000 
		0.500000	0.500000	0.500000	0.000000 
		0.509559	0.657643	0.306203	0.000000 
		0.641259	0.676938	0.393986	0.000000 
		0.460260	0.706594	0.364946	0.000000 
		0.497424	0.583668	0.264430	0.000000 
		0.409812	0.602365	0.290507	0.000000 
		0.503601	0.535281	0.252528	0.000000 
		0.550999	0.511205	0.255514	0.000000 
		0.508739	0.559162	0.257258	0.000000 
		0.641259	0.676938	0.393986	0.000000 
		0.497055	0.511687	0.749709	0.000000 
		0.508739	0.559162	0.257258	0.000000 
		0.497055	0.511687	0.749709	0.000000 
		0.258897	0.560332	0.527004	0.000000 
		0.259330	0.567370	0.493725	0.000000 
		0.497055	0.511687	0.749709	0.000000 
		0.488913	0.510326	0.250460	0.000000 
		0.482145	0.663719	0.311911	0.000000 
		0.500242	0.516355	0.250536	0.000000 
		0.498369	0.506165	0.749919	0.000000 
		0.493228	0.500306	0.749908	0.000000 
		0.500000	0.500000	0.500000	0.000000 
		0.500000	0.500000	0.500000	0.000000 
		0.500000	0.500000	0.500000	0.000000 
		0.500000	0.500000	0.500000	0.000000 
		0.500000	0.500000	0.500000	0.000000 
		0.474763	0.346871	0.593153	0.000000 
		0.542019	0.418180	0.732465	0.000000 
		0.516225	0.461111	0.746423	0.000000 
		0.541250	0.445233	0.740414	0.000000 
		0.521979	0.632554	0.710823	0.000000 
		0.538842	0.512610	0.746642	0.000000 
		0.347336	0.507783	0.493268	0.000000 
		0.474763	0.346871	0.593153	0.000000 
		0.500000	0.500000	0.500000	0.000000 
		0.683724	0.585876	0.646188	0.000000 
		0.685353	0.574851	0.650139	0.000000 
		0.516225	0.461111	0.746423	0.000000 
		0.347336	0.507783	0.493268	0.000000 
		0.477962	0.655277	0.694688	0.000000 
		0.521888	0.663010	0.688278	0.000000 
	}

	Tex0 185 { 
		0.798828	0.382813 
		0.816406	0.343750 
		0.896484	0.336914 
		0.904297	0.382813 
		0.915039	0.429688 
		0.799805	0.427734 
		0.472656	0.913086 
		0.477539	0.913086 
		0.477539	0.905273 
		0.472656	0.905273 
		0.033203	0.679688 
		0.073242	0.689453 
		0.018555	0.727539 
		0.130859	0.700195 
		0.108398	0.672852 
		0.075195	0.686523 
		0.089844	0.667969 
		0.213867	0.593750 
		0.204102	0.585938 
		0.213867	0.585938 
		0.358398	0.668945 
		0.584961	0.669922 
		0.584961	0.844727 
		0.354492	0.887695 
		0.177734	0.664063 
		0.198242	0.669922 
		0.170898	0.688477 
		0.836914	0.786133 
		0.831055	0.801758 
		0.683594	0.808594 
		0.683594	0.794922 
		0.230469	0.857422 
		0.218750	0.846680 
		0.251953	0.838867 
		0.264648	0.857422 
		0.225586	0.842773 
		0.208008	0.846680 
		0.217773	0.843750 
		0.671875	0.343750 
		0.872070	0.343750 
		0.874023	0.382813 
		0.671875	0.382813 
		0.815430	0.807617 
		0.683594	0.812500 
		0.811523	0.493164 
		0.791016	0.484375 
		0.879883	0.493164 
		0.792969	0.604492 
		0.805664	0.591797 
		0.719727	0.601563 
		0.811523	0.628906 
		0.780273	0.631836 
		0.834961	0.613281 
		0.286133	0.792969 
		0.286133	0.796875 
		0.829102	0.657227 
		0.829102	0.778320 
		0.672852	0.779297 
		0.672852	0.663086 
		0.852539	0.659180 
		0.852539	0.772461 
		0.277344	0.872070 
		0.314453	0.903320 
		0.310547	0.910156 
		0.273438	0.875000 
		0.300781	0.877930 
		0.318359	0.895508 
		0.360352	0.925781 
		0.357422	0.934570 
		0.364258	0.918945 
		0.330078	0.668945 
		0.333984	0.854492 
		0.221680	0.760742 
		0.208984	0.668945 
		0.178711	0.690430 
		0.043945	0.678711 
		0.128906	0.694336 
		0.538086	0.647461 
		0.536133	0.668945 
		0.536133	0.652344 
		0.655273	0.647461 
		0.661133	0.647461 
		0.285156	0.794922 
		0.652344	0.592773 
		0.657227	0.629883 
		0.659180	0.666016 
		0.273438	0.807617 
		0.271484	0.807617 
		0.477539	0.917969 
		0.472656	0.917969 
		0.417969	0.950195 
		0.418945	0.946289 
		0.584961	0.967773 
		0.420898	0.940430 
		0.585938	0.958984 
		0.876953	0.426758 
		0.276367	0.861328 
		0.247070	0.857422 
		0.611328	0.683594 
		0.608398	0.685547 
		0.584961	0.833008 
		0.541992	0.592773 
		0.214844	0.646484 
		0.362305	0.593750 
		0.151367	0.671875 
		0.131836	0.677734 
		0.122070	0.746094 
		0.188477	0.648438 
		0.078125	0.659180 
		0.200195	0.629883 
		0.621094	0.586914 
		0.652344	0.586914 
		0.620117	0.592773 
		0.564453	0.586914 
		0.564453	0.592773 
		0.541992	0.586914 
		0.362305	0.585938 
		0.243164	0.593750 
		0.243164	0.585938 
		0.337891	0.585938 
		0.337891	0.593750 
		0.841797	0.650391 
		0.060547	0.638672 
		0.022461	0.638672 
		0.672852	0.640625 
		0.672852	0.603516 
		0.221680	0.653320 
		0.829102	0.399414 
		0.845703	0.399414 
		0.845703	0.406250 
		0.829102	0.406250 
		0.353516	0.797852 
		0.369141	0.797852 
		0.353516	0.735352 
		0.369141	0.738281 
		0.369141	0.735352 
		0.369141	0.795898 
		0.854492	0.399414 
		0.854492	0.406250 
		0.217773	0.029297 
		0.207031	0.029297 
		0.208008	0.267578 
		0.416016	0.267578 
		0.546875	0.029297 
		0.365234	0.029297 
		1.000000	0.313477 
		0.660156	0.314453 
		0.660156	0.497070 
		1.000000	0.497070 
		0.040039	0.278320 
		0.040039	0.497070 
		0.208008	0.497070 
		0.416016	0.497070 
		0.040039	0.041992 
		0.000000	0.082031 
		0.000000	0.497070 
		0.569336	0.000000 
		0.627930	0.000000 
		0.659180	0.029297 
		0.217773	0.964844 
		0.208008	0.726563 
		0.207031	0.964844 
		0.416016	0.726563 
		0.365234	0.964844 
		0.546875	0.964844 
		1.000000	0.680664 
		0.660156	0.679688 
		0.040039	0.715820 
		0.000000	0.912109 
		0.040039	0.952148 
		0.569336	0.994141 
		0.627930	0.994141 
		0.659180	0.964844 
		0.339844	1.000000 
		0.247070	1.000000 
		0.083008	0.980469 
		0.045898	0.956055 
		0.186523	0.890625 
		0.026367	0.922852 
		0.040039	0.895508 
		0.184570	0.981445 
		0.220703	0.967773 
		0.223633	0.909180 
		0.206055	0.909180 
		0.203125	0.967773 
	}

	Tex1 0 
	Adj 641 { 
		P 0 
		N 0 
		C0 0 
		T0 0 
		P 1 
		N 1 
		C0 1 
		T0 1 
		P 2 
		N 2 
		C0 2 
		T0 2 
		P 3 
		N 3 
		C0 3 
		T0 3 
		P 4 
		N 4 
		C0 4 
		T0 4 
		P 5 
		N 5 
		C0 5 
		T0 5 
		P 6 
		N 6 
		C0 6 
		T0 6 
		P 7 
		N 6 
		C0 7 
		T0 7 
		P 8 
		N 7 
		C0 8 
		T0 8 
		P 9 
		N 7 
		C0 9 
		T0 9 
		P 10 
		N 8 
		C0 10 
		T0 10 
		P 11 
		N 9 
		C0 11 
		T0 11 
		P 12 
		N 10 
		C0 12 
		T0 12 
		P 13 
		N 11 
		C0 13 
		T0 13 
		P 14 
		N 12 
		C0 14 
		T0 14 
		P 15 
		N 13 
		C0 15 
		T0 15 
		P 16 
		N 14 
		C0 16 
		T0 16 
		P 17 
		N 15 
		C0 17 
		T0 17 
		P 18 
		N 16 
		C0 18 
		T0 18 
		P 19 
		N 17 
		C0 19 
		T0 19 
		P 20 
		N 18 
		C0 20 
		T0 20 
		P 21 
		N 19 
		C0 21 
		T0 21 
		P 22 
		N 20 
		C0 22 
		T0 22 
		P 23 
		N 21 
		C0 23 
		T0 23 
		P 24 
		N 22 
		C0 24 
		T0 24 
		P 25 
		N 23 
		C0 25 
		T0 25 
		P 26 
		N 24 
		C0 26 
		T0 26 
		P 27 
		N 25 
		C0 27 
		T0 27 
		P 28 
		N 26 
		C0 28 
		T0 28 
		P 29 
		N 27 
		C0 29 
		T0 29 
		P 30 
		N 28 
		C0 30 
		T0 30 
		P 28 
		N 26 
		C0 31 
		T0 31 
		P 27 
		N 25 
		C0 32 
		T0 32 
		P 31 
		N 29 
		C0 33 
		T0 33 
		P 32 
		N 30 
		C0 34 
		T0 34 
		P 33 
		N 31 
		C0 35 
		T0 35 
		P 27 
		N 31 
		C0 36 
		T0 32 
		P 30 
		N 31 
		C0 37 
		T0 36 
		P 34 
		N 31 
		C0 38 
		T0 37 
		P 31 
		N 32 
		C0 39 
		T0 33 
		P 27 
		N 32 
		C0 40 
		T0 32 
		P 33 
		N 32 
		C0 41 
		T0 35 
		P 35 
		N 33 
		C0 42 
		T0 38 
		P 1 
		N 1 
		C0 43 
		T0 39 
		P 0 
		N 0 
		C0 44 
		T0 40 
		P 36 
		N 34 
		C0 45 
		T0 41 
		P 37 
		N 35 
		C0 46 
		T0 42 
		P 38 
		N 36 
		C0 47 
		T0 43 
		P 10 
		N 8 
		C0 48 
		T0 44 
		P 39 
		N 37 
		C0 49 
		T0 45 
		P 40 
		N 38 
		C0 50 
		T0 46 
		P 41 
		N 39 
		C0 51 
		T0 47 
		P 12 
		N 10 
		C0 52 
		T0 48 
		P 42 
		N 40 
		C0 53 
		T0 49 
		P 43 
		N 41 
		C0 54 
		T0 50 
		P 44 
		N 42 
		C0 55 
		T0 51 
		P 43 
		N 43 
		C0 56 
		T0 50 
		P 45 
		N 44 
		C0 57 
		T0 52 
		P 46 
		N 45 
		C0 58 
		T0 53 
		P 47 
		N 45 
		C0 59 
		T0 54 
		P 48 
		N 45 
		C0 60 
		T0 54 
		P 49 
		N 45 
		C0 61 
		T0 54 
		P 50 
		N 46 
		C0 62 
		T0 55 
		P 33 
		N 46 
		C0 63 
		T0 56 
		P 34 
		N 47 
		C0 64 
		T0 57 
		P 51 
		N 47 
		C0 65 
		T0 58 
		P 52 
		N 48 
		C0 66 
		T0 59 
		P 31 
		N 49 
		C0 67 
		T0 60 
		P 37 
		N 35 
		C0 68 
		T0 61 
		P 53 
		N 50 
		C0 69 
		T0 62 
		P 54 
		N 51 
		C0 70 
		T0 63 
		P 38 
		N 52 
		C0 71 
		T0 64 
		P 55 
		N 53 
		C0 72 
		T0 65 
		P 56 
		N 54 
		C0 73 
		T0 66 
		P 57 
		N 55 
		C0 74 
		T0 67 
		P 58 
		N 56 
		C0 75 
		T0 68 
		P 59 
		N 57 
		C0 76 
		T0 69 
		P 60 
		N 19 
		C0 77 
		T0 70 
		P 61 
		N 19 
		C0 78 
		T0 71 
		P 52 
		N 48 
		C0 79 
		T0 72 
		P 62 
		N 58 
		C0 80 
		T0 73 
		P 63 
		N 59 
		C0 81 
		T0 74 
		P 11 
		N 60 
		C0 82 
		T0 11 
		P 40 
		N 38 
		C0 83 
		T0 75 
		P 15 
		N 60 
		C0 84 
		T0 15 
		P 13 
		N 61 
		C0 85 
		T0 13 
		P 64 
		N 61 
		C0 86 
		T0 76 
		P 65 
		N 62 
		C0 87 
		T0 77 
		P 66 
		N 62 
		C0 88 
		T0 78 
		P 67 
		N 62 
		C0 89 
		T0 79 
		P 68 
		N 63 
		C0 90 
		T0 21 
		P 69 
		N 64 
		C0 91 
		T0 80 
		P 49 
		N 65 
		C0 92 
		T0 81 
		P 62 
		N 66 
		C0 93 
		T0 73 
		P 63 
		N 67 
		C0 94 
		T0 74 
		P 26 
		N 67 
		C0 95 
		T0 26 
		P 25 
		N 68 
		C0 96 
		T0 25 
		P 70 
		N 69 
		C0 97 
		T0 82 
		P 71 
		N 69 
		C0 98 
		T0 82 
		P 72 
		N 69 
		C0 99 
		T0 82 
		P 73 
		N 69 
		C0 100 
		T0 54 
		P 74 
		N 70 
		C0 101 
		T0 53 
		P 46 
		N 70 
		C0 102 
		T0 53 
		P 75 
		N 70 
		C0 103 
		T0 82 
		P 69 
		N 71 
		C0 104 
		T0 80 
		P 74 
		N 71 
		C0 105 
		T0 83 
		P 75 
		N 71 
		C0 106 
		T0 84 
		P 48 
		N 72 
		C0 107 
		T0 85 
		P 76 
		N 73 
		C0 108 
		T0 86 
		P 4 
		N 73 
		C0 109 
		T0 86 
		P 3 
		N 73 
		C0 110 
		T0 86 
		P 77 
		N 73 
		C0 111 
		T0 86 
		P 78 
		N 74 
		C0 112 
		T0 87 
		P 79 
		N 74 
		C0 113 
		T0 87 
		P 80 
		N 74 
		C0 114 
		T0 87 
		P 81 
		N 75 
		C0 115 
		T0 87 
		P 82 
		N 75 
		C0 116 
		T0 87 
		P 83 
		N 75 
		C0 117 
		T0 87 
		P 18 
		N 75 
		C0 118 
		T0 87 
		P 84 
		N 76 
		C0 119 
		T0 87 
		P 24 
		N 76 
		C0 120 
		T0 87 
		P 82 
		N 76 
		C0 121 
		T0 87 
		P 83 
		N 77 
		C0 122 
		T0 87 
		P 82 
		N 78 
		C0 123 
		T0 87 
		P 77 
		N 78 
		C0 124 
		T0 86 
		P 80 
		N 19 
		C0 125 
		T0 87 
		P 76 
		N 19 
		C0 126 
		T0 86 
		P 85 
		N 79 
		C0 127 
		T0 88 
		P 86 
		N 79 
		C0 128 
		T0 89 
		P 31 
		N 49 
		C0 129 
		T0 33 
		P 87 
		N 80 
		C0 130 
		T0 90 
		P 88 
		N 81 
		C0 131 
		T0 91 
		P 89 
		N 82 
		C0 132 
		T0 92 
		P 90 
		N 83 
		C0 133 
		T0 92 
		P 91 
		N 84 
		C0 134 
		T0 93 
		P 92 
		N 85 
		C0 135 
		T0 94 
		P 42 
		N 86 
		C0 136 
		T0 49 
		P 5 
		N 5 
		C0 137 
		T0 95 
		P 93 
		N 87 
		C0 138 
		T0 96 
		P 37 
		N 35 
		C0 139 
		T0 97 
		P 61 
		N 88 
		C0 140 
		T0 71 
		P 60 
		N 89 
		C0 141 
		T0 70 
		P 60 
		N 90 
		C0 142 
		T0 70 
		P 66 
		N 90 
		C0 143 
		T0 78 
		P 21 
		N 90 
		C0 144 
		T0 21 
		P 20 
		N 90 
		C0 145 
		T0 20 
		P 94 
		N 69 
		C0 146 
		T0 8 
		P 95 
		N 69 
		C0 147 
		T0 9 
		P 47 
		N 91 
		C0 148 
		T0 98 
		P 73 
		N 91 
		C0 149 
		T0 99 
		P 72 
		N 91 
		C0 150 
		T0 99 
		P 96 
		N 91 
		C0 151 
		T0 98 
		P 22 
		N 69 
		C0 152 
		T0 22 
		P 68 
		N 69 
		C0 153 
		T0 21 
		P 97 
		N 69 
		C0 154 
		T0 21 
		P 98 
		N 69 
		C0 155 
		T0 100 
		P 89 
		N 92 
		C0 156 
		T0 92 
		P 92 
		N 92 
		C0 157 
		T0 94 
		P 99 
		N 92 
		C0 158 
		T0 94 
		P 90 
		N 92 
		C0 159 
		T0 92 
		P 92 
		N 69 
		C0 160 
		T0 94 
		P 99 
		N 69 
		C0 161 
		T0 94 
		P 21 
		N 69 
		C0 162 
		T0 21 
		P 97 
		N 93 
		C0 163 
		T0 21 
		P 47 
		N 93 
		C0 164 
		T0 85 
		P 96 
		N 93 
		C0 165 
		T0 85 
		P 100 
		N 94 
		C0 166 
		T0 101 
		P 65 
		N 95 
		C0 167 
		T0 77 
		P 101 
		N 96 
		C0 168 
		T0 102 
		P 102 
		N 97 
		C0 169 
		T0 103 
		P 75 
		N 98 
		C0 170 
		T0 82 
		P 46 
		N 98 
		C0 171 
		T0 53 
		P 49 
		N 98 
		C0 172 
		T0 54 
		P 69 
		N 99 
		C0 173 
		T0 80 
		P 75 
		N 99 
		C0 174 
		T0 84 
		P 49 
		N 99 
		C0 175 
		T0 81 
		P 78 
		N 100 
		C0 176 
		T0 104 
		P 64 
		N 101 
		C0 177 
		T0 76 
		P 79 
		N 102 
		C0 178 
		T0 105 
		P 45 
		N 44 
		C0 179 
		T0 106 
		P 76 
		N 103 
		C0 180 
		T0 86 
		P 14 
		N 103 
		C0 181 
		T0 86 
		P 16 
		N 103 
		C0 182 
		T0 86 
		P 84 
		N 104 
		C0 183 
		T0 107 
		P 101 
		N 105 
		C0 184 
		T0 102 
		P 16 
		N 106 
		C0 185 
		T0 86 
		P 103 
		N 106 
		C0 186 
		T0 86 
		P 76 
		N 106 
		C0 187 
		T0 86 
		P 103 
		N 107 
		C0 188 
		T0 108 
		P 24 
		N 108 
		C0 189 
		T0 87 
		P 78 
		N 108 
		C0 190 
		T0 87 
		P 80 
		N 108 
		C0 191 
		T0 87 
		P 82 
		N 108 
		C0 192 
		T0 87 
		P 80 
		N 109 
		C0 193 
		T0 87 
		P 79 
		N 109 
		C0 194 
		T0 87 
		P 14 
		N 109 
		C0 195 
		T0 86 
		P 80 
		N 110 
		C0 196 
		T0 87 
		P 14 
		N 110 
		C0 197 
		T0 86 
		P 76 
		N 110 
		C0 198 
		T0 86 
		P 81 
		N 111 
		C0 199 
		T0 87 
		P 84 
		N 111 
		C0 200 
		T0 87 
		P 82 
		N 111 
		C0 201 
		T0 87 
		P 81 
		N 16 
		C0 202 
		T0 109 
		P 104 
		N 112 
		C0 203 
		T0 110 
		P 105 
		N 113 
		C0 204 
		T0 111 
		P 74 
		N 113 
		C0 205 
		T0 83 
		P 106 
		N 112 
		C0 206 
		T0 112 
		P 107 
		N 114 
		C0 207 
		T0 113 
		P 108 
		N 114 
		C0 208 
		T0 114 
		P 109 
		N 114 
		C0 209 
		T0 115 
		P 110 
		N 115 
		C0 210 
		T0 116 
		P 111 
		N 17 
		C0 211 
		T0 117 
		P 112 
		N 17 
		C0 212 
		T0 118 
		P 113 
		N 115 
		C0 213 
		T0 119 
		P 114 
		N 115 
		C0 214 
		T0 120 
		P 102 
		N 91 
		C0 215 
		T0 103 
		P 17 
		N 91 
		C0 216 
		T0 17 
		P 111 
		N 91 
		C0 217 
		T0 117 
		P 114 
		N 91 
		C0 218 
		T0 120 
		P 74 
		N 116 
		C0 219 
		T0 83 
		P 100 
		N 116 
		C0 220 
		T0 101 
		P 108 
		N 116 
		C0 221 
		T0 114 
		P 106 
		N 116 
		C0 222 
		T0 112 
		P 19 
		N 117 
		C0 223 
		T0 19 
		P 110 
		N 117 
		C0 224 
		T0 116 
		P 113 
		N 117 
		C0 225 
		T0 119 
		P 112 
		N 117 
		C0 226 
		T0 118 
		P 105 
		N 118 
		C0 227 
		T0 53 
		P 46 
		N 118 
		C0 228 
		T0 53 
		P 74 
		N 118 
		C0 229 
		T0 53 
		P 50 
		N 119 
		C0 230 
		T0 55 
		P 115 
		N 120 
		C0 231 
		T0 121 
		P 4 
		N 4 
		C0 232 
		T0 122 
		P 5 
		N 5 
		C0 233 
		T0 123 
		P 4 
		N 121 
		C0 234 
		T0 86 
		P 76 
		N 121 
		C0 235 
		T0 86 
		P 103 
		N 121 
		C0 236 
		T0 86 
		P 77 
		N 122 
		C0 237 
		T0 86 
		P 3 
		N 122 
		C0 238 
		T0 86 
		P 2 
		N 122 
		C0 239 
		T0 86 
		P 116 
		N 36 
		C0 240 
		T0 124 
		P 44 
		N 123 
		C0 241 
		T0 51 
		P 50 
		N 124 
		C0 242 
		T0 55 
		P 51 
		N 125 
		C0 243 
		T0 58 
		P 117 
		N 126 
		C0 244 
		T0 125 
		P 115 
		N 127 
		C0 245 
		T0 121 
		P 115 
		N 128 
		C0 246 
		T0 121 
		P 52 
		N 129 
		C0 247 
		T0 59 
		P 100 
		N 95 
		C0 248 
		T0 101 
		P 74 
		N 95 
		C0 249 
		T0 83 
		P 69 
		N 95 
		C0 250 
		T0 80 
		P 66 
		N 64 
		C0 251 
		T0 78 
		P 65 
		N 64 
		C0 252 
		T0 77 
		P 21 
		N 130 
		C0 253 
		T0 21 
		P 66 
		N 130 
		C0 254 
		T0 78 
		P 68 
		N 130 
		C0 255 
		T0 21 
		P 118 
		N 131 
		C0 256 
		T0 126 
		P 60 
		N 132 
		C0 257 
		T0 70 
		P 62 
		N 133 
		C0 258 
		T0 73 
		P 118 
		N 132 
		C0 259 
		T0 126 
		P 67 
		N 134 
		C0 260 
		T0 79 
		P 66 
		N 134 
		C0 261 
		T0 78 
		P 65 
		N 135 
		C0 262 
		T0 77 
		P 67 
		N 135 
		C0 263 
		T0 79 
		P 118 
		N 135 
		C0 264 
		T0 126 
		P 101 
		N 135 
		C0 265 
		T0 102 
		P 119 
		N 136 
		C0 266 
		T0 0 
		P 120 
		N 137 
		C0 267 
		T0 3 
		P 121 
		N 138 
		C0 268 
		T0 2 
		P 122 
		N 139 
		C0 269 
		T0 1 
		P 123 
		N 140 
		C0 270 
		T0 4 
		P 124 
		N 141 
		C0 271 
		T0 5 
		P 125 
		N 142 
		C0 272 
		T0 6 
		P 126 
		N 143 
		C0 273 
		T0 9 
		P 127 
		N 143 
		C0 274 
		T0 8 
		P 128 
		N 142 
		C0 275 
		T0 7 
		P 129 
		N 144 
		C0 276 
		T0 10 
		P 130 
		N 145 
		C0 277 
		T0 12 
		P 131 
		N 146 
		C0 278 
		T0 11 
		P 132 
		N 147 
		C0 279 
		T0 13 
		P 133 
		N 148 
		C0 280 
		T0 14 
		P 134 
		N 149 
		C0 281 
		T0 16 
		P 135 
		N 150 
		C0 282 
		T0 15 
		P 136 
		N 151 
		C0 283 
		T0 17 
		P 137 
		N 152 
		C0 284 
		T0 19 
		P 138 
		N 153 
		C0 285 
		T0 18 
		P 139 
		N 154 
		C0 286 
		T0 20 
		P 140 
		N 155 
		C0 287 
		T0 23 
		P 141 
		N 156 
		C0 288 
		T0 22 
		P 142 
		N 157 
		C0 289 
		T0 21 
		P 143 
		N 158 
		C0 290 
		T0 24 
		P 144 
		N 159 
		C0 291 
		T0 26 
		P 145 
		N 160 
		C0 292 
		T0 25 
		P 146 
		N 161 
		C0 293 
		T0 27 
		P 147 
		N 162 
		C0 294 
		T0 28 
		P 147 
		N 162 
		C0 295 
		T0 31 
		P 148 
		N 163 
		C0 296 
		T0 34 
		P 149 
		N 164 
		C0 297 
		T0 33 
		P 146 
		N 161 
		C0 298 
		T0 32 
		P 150 
		N 165 
		C0 299 
		T0 35 
		P 34 
		N 165 
		C0 300 
		T0 37 
		P 30 
		N 165 
		C0 301 
		T0 36 
		P 146 
		N 165 
		C0 302 
		T0 32 
		P 149 
		N 166 
		C0 303 
		T0 33 
		P 150 
		N 166 
		C0 304 
		T0 35 
		P 146 
		N 166 
		C0 305 
		T0 32 
		P 119 
		N 136 
		C0 306 
		T0 40 
		P 122 
		N 139 
		C0 307 
		T0 39 
		P 151 
		N 167 
		C0 308 
		T0 42 
		P 129 
		N 144 
		C0 309 
		T0 44 
		P 152 
		N 168 
		C0 310 
		T0 46 
		P 153 
		N 169 
		C0 311 
		T0 45 
		P 154 
		N 170 
		C0 312 
		T0 47 
		P 130 
		N 145 
		C0 313 
		T0 48 
		P 155 
		N 171 
		C0 314 
		T0 49 
		P 156 
		N 172 
		C0 315 
		T0 51 
		P 157 
		N 173 
		C0 316 
		T0 50 
		P 157 
		N 174 
		C0 317 
		T0 50 
		P 158 
		N 175 
		C0 318 
		T0 52 
		P 159 
		N 176 
		C0 319 
		T0 53 
		P 160 
		N 176 
		C0 320 
		T0 54 
		P 161 
		N 176 
		C0 321 
		T0 54 
		P 162 
		N 176 
		C0 322 
		T0 54 
		P 163 
		N 177 
		C0 323 
		T0 55 
		P 150 
		N 177 
		C0 324 
		T0 56 
		P 149 
		N 178 
		C0 325 
		T0 60 
		P 164 
		N 179 
		C0 326 
		T0 59 
		P 151 
		N 167 
		C0 327 
		T0 61 
		P 165 
		N 180 
		C0 328 
		T0 62 
		P 166 
		N 181 
		C0 329 
		T0 66 
		P 167 
		N 182 
		C0 330 
		T0 65 
		P 168 
		N 183 
		C0 331 
		T0 67 
		P 169 
		N 184 
		C0 332 
		T0 69 
		P 170 
		N 157 
		C0 333 
		T0 70 
		P 171 
		N 185 
		C0 334 
		T0 73 
		P 164 
		N 179 
		C0 335 
		T0 72 
		P 172 
		N 157 
		C0 336 
		T0 71 
		P 173 
		N 186 
		C0 337 
		T0 74 
		P 131 
		N 187 
		C0 338 
		T0 11 
		P 135 
		N 187 
		C0 339 
		T0 15 
		P 152 
		N 168 
		C0 340 
		T0 75 
		P 132 
		N 188 
		C0 341 
		T0 13 
		P 174 
		N 188 
		C0 342 
		T0 76 
		P 175 
		N 189 
		C0 343 
		T0 77 
		P 176 
		N 189 
		C0 344 
		T0 79 
		P 177 
		N 189 
		C0 345 
		T0 78 
		P 178 
		N 190 
		C0 346 
		T0 21 
		P 160 
		N 191 
		C0 347 
		T0 81 
		P 179 
		N 192 
		C0 348 
		T0 80 
		P 171 
		N 193 
		C0 349 
		T0 73 
		P 145 
		N 194 
		C0 350 
		T0 25 
		P 144 
		N 195 
		C0 351 
		T0 26 
		P 173 
		N 195 
		C0 352 
		T0 74 
		P 180 
		N 157 
		C0 353 
		T0 82 
		P 159 
		N 157 
		C0 354 
		T0 53 
		P 162 
		N 157 
		C0 355 
		T0 54 
		P 181 
		N 157 
		C0 356 
		T0 54 
		P 182 
		N 196 
		C0 357 
		T0 53 
		P 183 
		N 196 
		C0 358 
		T0 82 
		P 159 
		N 196 
		C0 359 
		T0 53 
		P 179 
		N 197 
		C0 360 
		T0 80 
		P 183 
		N 197 
		C0 361 
		T0 84 
		P 182 
		N 197 
		C0 362 
		T0 83 
		P 161 
		N 198 
		C0 363 
		T0 85 
		P 184 
		N 199 
		C0 364 
		T0 86 
		P 185 
		N 199 
		C0 365 
		T0 86 
		P 120 
		N 199 
		C0 366 
		T0 86 
		P 123 
		N 199 
		C0 367 
		T0 86 
		P 186 
		N 200 
		C0 368 
		T0 87 
		P 187 
		N 200 
		C0 369 
		T0 87 
		P 188 
		N 200 
		C0 370 
		T0 87 
		P 189 
		N 201 
		C0 371 
		T0 87 
		P 138 
		N 201 
		C0 372 
		T0 87 
		P 190 
		N 201 
		C0 373 
		T0 87 
		P 191 
		N 201 
		C0 374 
		T0 87 
		P 192 
		N 202 
		C0 375 
		T0 87 
		P 191 
		N 202 
		C0 376 
		T0 87 
		P 143 
		N 202 
		C0 377 
		T0 87 
		P 190 
		N 203 
		C0 378 
		T0 87 
		P 185 
		N 204 
		C0 379 
		T0 86 
		P 191 
		N 204 
		C0 380 
		T0 87 
		P 187 
		N 157 
		C0 381 
		T0 87 
		P 184 
		N 157 
		C0 382 
		T0 86 
		P 149 
		N 178 
		C0 383 
		T0 33 
		P 193 
		N 205 
		C0 384 
		T0 92 
		P 194 
		N 206 
		C0 385 
		T0 91 
		P 195 
		N 207 
		C0 386 
		T0 94 
		P 196 
		N 208 
		C0 387 
		T0 93 
		P 155 
		N 209 
		C0 388 
		T0 49 
		P 124 
		N 141 
		C0 389 
		T0 95 
		P 151 
		N 167 
		C0 390 
		T0 97 
		P 197 
		N 210 
		C0 391 
		T0 96 
		P 172 
		N 211 
		C0 392 
		T0 71 
		P 170 
		N 212 
		C0 393 
		T0 70 
		P 170 
		N 213 
		C0 394 
		T0 70 
		P 139 
		N 213 
		C0 395 
		T0 20 
		P 142 
		N 213 
		C0 396 
		T0 21 
		P 177 
		N 213 
		C0 397 
		T0 78 
		P 162 
		N 91 
		C0 398 
		T0 98 
		P 181 
		N 91 
		C0 399 
		T0 99 
		P 141 
		N 69 
		C0 400 
		T0 22 
		P 178 
		N 69 
		C0 401 
		T0 21 
		P 193 
		N 92 
		C0 402 
		T0 92 
		P 195 
		N 92 
		C0 403 
		T0 94 
		P 195 
		N 69 
		C0 404 
		T0 94 
		P 142 
		N 69 
		C0 405 
		T0 21 
		P 162 
		N 93 
		C0 406 
		T0 85 
		P 198 
		N 214 
		C0 407 
		T0 101 
		P 199 
		N 215 
		C0 408 
		T0 103 
		P 200 
		N 216 
		C0 409 
		T0 102 
		P 175 
		N 217 
		C0 410 
		T0 77 
		P 183 
		N 218 
		C0 411 
		T0 82 
		P 160 
		N 218 
		C0 412 
		T0 54 
		P 159 
		N 218 
		C0 413 
		T0 53 
		P 179 
		N 219 
		C0 414 
		T0 80 
		P 160 
		N 219 
		C0 415 
		T0 81 
		P 183 
		N 219 
		C0 416 
		T0 84 
		P 186 
		N 220 
		C0 417 
		T0 104 
		P 188 
		N 221 
		C0 418 
		T0 105 
		P 174 
		N 222 
		C0 419 
		T0 76 
		P 158 
		N 175 
		C0 420 
		T0 106 
		P 184 
		N 223 
		C0 421 
		T0 86 
		P 134 
		N 223 
		C0 422 
		T0 86 
		P 133 
		N 223 
		C0 423 
		T0 86 
		P 192 
		N 224 
		C0 424 
		T0 107 
		P 200 
		N 225 
		C0 425 
		T0 102 
		P 134 
		N 226 
		C0 426 
		T0 86 
		P 184 
		N 226 
		C0 427 
		T0 86 
		P 201 
		N 226 
		C0 428 
		T0 86 
		P 201 
		N 227 
		C0 429 
		T0 108 
		P 143 
		N 228 
		C0 430 
		T0 87 
		P 191 
		N 228 
		C0 431 
		T0 87 
		P 187 
		N 228 
		C0 432 
		T0 87 
		P 186 
		N 228 
		C0 433 
		T0 87 
		P 187 
		N 229 
		C0 434 
		T0 87 
		P 133 
		N 229 
		C0 435 
		T0 86 
		P 188 
		N 229 
		C0 436 
		T0 87 
		P 187 
		N 230 
		C0 437 
		T0 87 
		P 184 
		N 230 
		C0 438 
		T0 86 
		P 133 
		N 230 
		C0 439 
		T0 86 
		P 189 
		N 231 
		C0 440 
		T0 87 
		P 191 
		N 231 
		C0 441 
		T0 87 
		P 192 
		N 231 
		C0 442 
		T0 87 
		P 189 
		N 153 
		C0 443 
		T0 109 
		P 202 
		N 232 
		C0 444 
		T0 110 
		P 203 
		N 232 
		C0 445 
		T0 112 
		P 182 
		N 233 
		C0 446 
		T0 83 
		P 204 
		N 233 
		C0 447 
		T0 111 
		P 205 
		N 234 
		C0 448 
		T0 113 
		P 206 
		N 234 
		C0 449 
		T0 114 
		P 207 
		N 234 
		C0 450 
		T0 115 
		P 208 
		N 235 
		C0 451 
		T0 116 
		P 209 
		N 152 
		C0 452 
		T0 117 
		P 210 
		N 235 
		C0 453 
		T0 120 
		P 211 
		N 235 
		C0 454 
		T0 119 
		P 212 
		N 152 
		C0 455 
		T0 118 
		P 199 
		N 91 
		C0 456 
		T0 103 
		P 210 
		N 91 
		C0 457 
		T0 120 
		P 209 
		N 91 
		C0 458 
		T0 117 
		P 136 
		N 91 
		C0 459 
		T0 17 
		P 182 
		N 116 
		C0 460 
		T0 83 
		P 203 
		N 116 
		C0 461 
		T0 112 
		P 206 
		N 116 
		C0 462 
		T0 114 
		P 198 
		N 116 
		C0 463 
		T0 101 
		P 204 
		N 236 
		C0 464 
		T0 53 
		P 182 
		N 236 
		C0 465 
		T0 53 
		P 159 
		N 236 
		C0 466 
		T0 53 
		P 163 
		N 237 
		C0 467 
		T0 55 
		P 213 
		N 238 
		C0 468 
		T0 121 
		P 123 
		N 140 
		C0 469 
		T0 122 
		P 124 
		N 141 
		C0 470 
		T0 123 
		P 123 
		N 239 
		C0 471 
		T0 86 
		P 201 
		N 239 
		C0 472 
		T0 86 
		P 184 
		N 239 
		C0 473 
		T0 86 
		P 185 
		N 122 
		C0 474 
		T0 86 
		P 121 
		N 122 
		C0 475 
		T0 86 
		P 120 
		N 122 
		C0 476 
		T0 86 
		P 163 
		N 240 
		C0 477 
		T0 55 
		P 156 
		N 241 
		C0 478 
		T0 51 
		P 213 
		N 242 
		C0 479 
		T0 121 
		P 213 
		N 243 
		C0 480 
		T0 121 
		P 164 
		N 244 
		C0 481 
		T0 59 
		P 179 
		N 217 
		C0 482 
		T0 80 
		P 182 
		N 217 
		C0 483 
		T0 83 
		P 198 
		N 217 
		C0 484 
		T0 101 
		P 175 
		N 192 
		C0 485 
		T0 77 
		P 177 
		N 192 
		C0 486 
		T0 78 
		P 142 
		N 245 
		C0 487 
		T0 21 
		P 178 
		N 245 
		C0 488 
		T0 21 
		P 177 
		N 245 
		C0 489 
		T0 78 
		P 214 
		N 246 
		C0 490 
		T0 126 
		P 170 
		N 247 
		C0 491 
		T0 70 
		P 214 
		N 247 
		C0 492 
		T0 126 
		P 171 
		N 248 
		C0 493 
		T0 73 
		P 177 
		N 249 
		C0 494 
		T0 78 
		P 176 
		N 249 
		C0 495 
		T0 79 
		P 175 
		N 250 
		C0 496 
		T0 77 
		P 200 
		N 250 
		C0 497 
		T0 102 
		P 214 
		N 250 
		C0 498 
		T0 126 
		P 176 
		N 250 
		C0 499 
		T0 79 
		P 70 
		N 19 
		C0 500 
		T0 82 
		P 73 
		N 19 
		C0 501 
		T0 54 
		P 47 
		N 19 
		C0 502 
		T0 54 
		P 46 
		N 19 
		C0 503 
		T0 53 
		P 180 
		N 69 
		C0 504 
		T0 82 
		P 181 
		N 69 
		C0 505 
		T0 54 
		P 215 
		N 251 
		C0 506 
		T0 127 
		P 216 
		N 251 
		C0 507 
		T0 128 
		P 217 
		N 251 
		C0 508 
		T0 129 
		P 218 
		N 251 
		C0 509 
		T0 130 
		P 218 
		N 91 
		C0 510 
		T0 131 
		P 217 
		N 252 
		C0 511 
		T0 132 
		P 219 
		N 252 
		C0 512 
		T0 132 
		P 215 
		N 253 
		C0 513 
		T0 133 
		P 220 
		N 253 
		C0 514 
		T0 134 
		P 221 
		N 253 
		C0 515 
		T0 135 
		P 215 
		N 117 
		C0 516 
		T0 133 
		P 221 
		N 213 
		C0 517 
		T0 135 
		P 216 
		N 213 
		C0 518 
		T0 135 
		P 216 
		N 254 
		C0 519 
		T0 135 
		P 220 
		N 255 
		C0 520 
		T0 134 
		P 222 
		N 256 
		C0 521 
		T0 136 
		P 217 
		N 257 
		C0 522 
		T0 132 
		P 218 
		N 253 
		C0 523 
		T0 131 
		P 219 
		N 253 
		C0 524 
		T0 132 
		P 222 
		N 253 
		C0 525 
		T0 136 
		P 216 
		N 213 
		C0 526 
		T0 128 
		P 221 
		N 213 
		C0 527 
		T0 128 
		P 223 
		N 258 
		C0 528 
		T0 137 
		P 221 
		N 259 
		C0 529 
		T0 128 
		P 220 
		N 255 
		C0 530 
		T0 128 
		P 223 
		N 260 
		C0 531 
		T0 137 
		P 216 
		N 254 
		C0 532 
		T0 128 
		P 217 
		N 257 
		C0 533 
		T0 129 
		P 222 
		N 256 
		C0 534 
		T0 129 
		P 224 
		N 261 
		C0 535 
		T0 138 
		P 219 
		N 259 
		C0 536 
		T0 129 
		P 219 
		N 252 
		C0 537 
		T0 129 
		P 217 
		N 252 
		C0 538 
		T0 129 
		P 224 
		N 262 
		C0 539 
		T0 138 
		P 225 
		N 263 
		C0 540 
		T0 127 
		P 226 
		N 263 
		C0 541 
		T0 130 
		P 227 
		N 263 
		C0 542 
		T0 129 
		P 228 
		N 263 
		C0 543 
		T0 128 
		P 226 
		N 91 
		C0 544 
		T0 131 
		P 229 
		N 264 
		C0 545 
		T0 132 
		P 227 
		N 264 
		C0 546 
		T0 132 
		P 225 
		N 265 
		C0 547 
		T0 133 
		P 230 
		N 265 
		C0 548 
		T0 135 
		P 231 
		N 265 
		C0 549 
		T0 134 
		P 225 
		N 117 
		C0 550 
		T0 133 
		P 228 
		N 90 
		C0 551 
		T0 135 
		P 230 
		N 90 
		C0 552 
		T0 135 
		P 228 
		N 266 
		C0 553 
		T0 135 
		P 227 
		N 267 
		C0 554 
		T0 132 
		P 232 
		N 268 
		C0 555 
		T0 136 
		P 231 
		N 269 
		C0 556 
		T0 134 
		P 226 
		N 265 
		C0 557 
		T0 131 
		P 232 
		N 265 
		C0 558 
		T0 136 
		P 229 
		N 265 
		C0 559 
		T0 132 
		P 228 
		N 90 
		C0 560 
		T0 128 
		P 233 
		N 270 
		C0 561 
		T0 137 
		P 230 
		N 90 
		C0 562 
		T0 128 
		P 230 
		N 271 
		C0 563 
		T0 128 
		P 233 
		N 272 
		C0 564 
		T0 137 
		P 231 
		N 269 
		C0 565 
		T0 128 
		P 228 
		N 266 
		C0 566 
		T0 128 
		P 227 
		N 267 
		C0 567 
		T0 129 
		P 234 
		N 273 
		C0 568 
		T0 138 
		P 232 
		N 268 
		C0 569 
		T0 129 
		P 229 
		N 271 
		C0 570 
		T0 129 
		P 229 
		N 264 
		C0 571 
		T0 129 
		P 234 
		N 274 
		C0 572 
		T0 138 
		P 227 
		N 264 
		C0 573 
		T0 129 
		P 19 
		N 117 
		C0 574 
		T0 139 
		P 18 
		N 117 
		C0 575 
		T0 140 
		P 83 
		N 117 
		C0 576 
		T0 141 
		P 235 
		N 117 
		C0 577 
		T0 142 
		P 109 
		N 117 
		C0 578 
		T0 143 
		P 110 
		N 117 
		C0 579 
		T0 144 
		P 70 
		N 275 
		C0 580 
		T0 145 
		P 46 
		N 275 
		C0 581 
		T0 146 
		P 236 
		N 275 
		C0 582 
		T0 147 
		P 71 
		N 275 
		C0 583 
		T0 148 
		P 83 
		N 276 
		C0 584 
		T0 141 
		P 77 
		N 276 
		C0 585 
		T0 149 
		P 237 
		N 276 
		C0 586 
		T0 150 
		P 238 
		N 276 
		C0 587 
		T0 151 
		P 46 
		N 117 
		C0 588 
		T0 146 
		P 239 
		N 117 
		C0 589 
		T0 152 
		P 236 
		N 117 
		C0 590 
		T0 147 
		P 77 
		N 277 
		C0 591 
		T0 149 
		P 2 
		N 277 
		C0 592 
		T0 153 
		P 1 
		N 277 
		C0 593 
		T0 154 
		P 35 
		N 277 
		C0 594 
		T0 155 
		P 77 
		N 278 
		C0 595 
		T0 149 
		P 35 
		N 278 
		C0 596 
		T0 155 
		P 237 
		N 278 
		C0 597 
		T0 150 
		P 107 
		N 117 
		C0 598 
		T0 156 
		P 104 
		N 117 
		C0 599 
		T0 157 
		P 105 
		N 117 
		C0 600 
		T0 158 
		P 137 
		N 117 
		C0 601 
		T0 159 
		P 190 
		N 117 
		C0 602 
		T0 160 
		P 138 
		N 117 
		C0 603 
		T0 161 
		P 240 
		N 117 
		C0 604 
		T0 162 
		P 208 
		N 117 
		C0 605 
		T0 163 
		P 207 
		N 117 
		C0 606 
		T0 164 
		P 180 
		N 275 
		C0 607 
		T0 165 
		P 159 
		N 275 
		C0 608 
		T0 166 
		P 190 
		N 276 
		C0 609 
		T0 160 
		P 185 
		N 276 
		C0 610 
		T0 167 
		P 159 
		N 117 
		C0 611 
		T0 166 
		P 185 
		N 277 
		C0 612 
		T0 167 
		P 122 
		N 277 
		C0 613 
		T0 168 
		P 121 
		N 277 
		C0 614 
		T0 169 
		P 185 
		N 278 
		C0 615 
		T0 167 
		P 205 
		N 117 
		C0 616 
		T0 170 
		P 202 
		N 117 
		C0 617 
		T0 171 
		P 204 
		N 117 
		C0 618 
		T0 172 
		P 211 
		N 117 
		C0 619 
		T0 173 
		P 212 
		N 117 
		C0 620 
		T0 174 
		P 241 
		N 279 
		C0 621 
		T0 175 
		P 242 
		N 280 
		C0 622 
		T0 176 
		P 243 
		N 281 
		C0 623 
		T0 177 
		P 244 
		N 280 
		C0 624 
		T0 178 
		P 245 
		N 280 
		C0 625 
		T0 179 
		P 246 
		N 282 
		C0 626 
		T0 180 
		P 247 
		N 283 
		C0 627 
		T0 175 
		P 248 
		N 284 
		C0 628 
		T0 177 
		P 249 
		N 280 
		C0 629 
		T0 176 
		P 250 
		N 280 
		C0 630 
		T0 178 
		P 251 
		N 280 
		C0 631 
		T0 179 
		P 252 
		N 285 
		C0 632 
		T0 180 
		P 246 
		N 286 
		C0 633 
		T0 181 
		P 243 
		N 286 
		C0 634 
		T0 182 
		P 253 
		N 286 
		C0 635 
		T0 183 
		P 254 
		N 286 
		C0 636 
		T0 184 
		P 248 
		N 287 
		C0 637 
		T0 182 
		P 252 
		N 287 
		C0 638 
		T0 181 
		P 255 
		N 287 
		C0 639 
		T0 184 
		P 256 
		N 287 
		C0 640 
		T0 183 
	}

	Mtl 3 { 
		{
			Name "#0" 
			Priority 32 
			Prim 117 { 
				{
					Type TRISTRIP
					Priority 32 
					Idx 6 { 1 2 0 3 5 4 }
				}
				{
					Type TRISTRIP
					Priority 32 
					Idx 4 { 36 37 35 38 }
				}
				{
					Type TRISTRIP
					Priority 32 
					Idx 4 { 58 59 61 60 }
				}
				{
					Type TRISTRIP
					Priority 32 
					Idx 4 { 110 111 109 108 }
				}
				{
					Type TRISTRIP
					Priority 32 
					Idx 4 { 118 115 117 116 }
				}
				{
					Type TRISTRIP
					Priority 32 
					Idx 5 { 125 126 123 124 122 }
				}
				{
					Type TRISTRIP2
					Priority 32 
					Idx 5 { 32 31 33 34 78 }
				}
				{
					Type TRISTRIP
					Priority 32 
					Idx 4 { 142 143 145 144 }
				}
				{
					Type TRISTRIP
					Priority 32 
					Idx 6 { 148 149 151 150 398 399 }
				}
				{
					Type TRISTRIP
					Priority 32 
					Idx 8 { 162 153 152 154 155 401 400 405 }
				}
				{
					Type TRISTRIP
					Priority 32 
					Idx 4 { 190 191 189 192 }
				}
				{
					Type TRISTRIP
					Priority 32 
					Idx 4 { 216 217 215 218 }
				}
				{
					Type TRISTRIP
					Priority 32 
					Idx 4 { 220 221 219 222 }
				}
				{
					Type TRISTRIP
					Priority 32 
					Idx 4 { 223 224 226 225 }
				}
				{
					Type TRISTRIP
					Priority 32 
					Idx 4 { 167 248 250 249 }
				}
				{
					Type TRISTRIP
					Priority 32 
					Idx 5 { 166 167 169 168 17 }
				}
				{
					Type TRISTRIP2
					Priority 32 
					Idx 6 { 53 55 54 230 231 247 }
				}
				{
					Type TRISTRIP2
					Priority 32 
					Idx 12 { 83 10 84 82 86 85 95 94 96 93 184 256 }
				}
				{
					Type TRISTRIP2
					Priority 32 
					Idx 6 { 97 100 98 99 504 505 }
				}
				{
					Type TRISTRIP2
					Priority 32 
					Idx 6 { 157 156 158 159 403 402 }
				}
				{
					Type TRISTRIP2
					Priority 32 
					Idx 6 { 152 160 155 161 400 404 }
				}
				{
					Type TRISTRIP2
					Priority 32 
					Idx 12 { 245 57 56 51 136 45 244 388 240 478 243 477 }
				}
				{
					Type TRISTRIP2
					Priority 32 
					Idx 6 { 243 242 240 241 244 136 }
				}
				{
					Type TRISTRIP2
					Priority 32 
					Idx 4 { 265 264 262 263 }
				}
				{
					Type TRISTRIP2
					Priority 32 
					Idx 6 { 269 268 266 267 271 270 }
				}
				{
					Type TRISTRIP2
					Priority 32 
					Idx 4 { 301 300 302 299 }
				}
				{
					Type TRISTRIP2
					Priority 32 
					Idx 4 { 319 322 320 321 }
				}
				{
					Type TRISTRIP2
					Priority 32 
					Idx 4 { 354 353 355 356 }
				}
				{
					Type TRISTRIP2
					Priority 32 
					Idx 4 { 365 364 366 367 }
				}
				{
					Type TRISTRIP2
					Priority 32 
					Idx 4 { 374 373 371 372 }
				}
				{
					Type TRISTRIP2
					Priority 32 
					Idx 5 { 381 382 380 379 378 }
				}
				{
					Type TRISTRIP
					Priority 32 
					Idx 5 { 298 295 297 296 336 }
				}
				{
					Type TRISTRIP2
					Priority 32 
					Idx 4 { 394 397 395 396 }
				}
				{
					Type TRISTRIP2
					Priority 32 
					Idx 4 { 432 431 433 430 }
				}
				{
					Type TRISTRIP2
					Priority 32 
					Idx 4 { 459 458 456 457 }
				}
				{
					Type TRISTRIP2
					Priority 32 
					Idx 4 { 463 462 460 461 }
				}
				{
					Type TRISTRIP2
					Priority 32 
					Idx 4 { 484 483 410 482 }
				}
				{
					Type TRISTRIP2
					Priority 32 
					Idx 5 { 407 410 408 409 283 }
				}
				{
					Type TRISTRIP
					Priority 32 
					Idx 6 { 314 315 316 467 468 481 }
				}
				{
					Type TRISTRIP
					Priority 32 
					Idx 4 { 498 499 497 496 }
				}
				{
					Type TRISTRIP
					Priority 32 
					Idx 4 { 503 500 502 501 }
				}
				{
					Type TRISTRIP
					Priority 32 
					Idx 4 { 507 508 506 509 }
				}
				{
					Type TRISTRIP
					Priority 32 
					Idx 4 { 520 521 519 522 }
				}
				{
					Type TRISTRIP
					Priority 32 
					Idx 4 { 529 530 531 532 }
				}
				{
					Type TRISTRIP
					Priority 32 
					Idx 4 { 533 534 535 536 }
				}
				{
					Type TRISTRIP
					Priority 32 
					Idx 4 { 543 540 542 541 }
				}
				{
					Type TRISTRIP
					Priority 32 
					Idx 6 { 548 549 547 558 557 559 }
				}
				{
					Type TRISTRIP
					Priority 32 
					Idx 4 { 556 553 555 554 }
				}
				{
					Type TRISTRIP
					Priority 32 
					Idx 4 { 563 564 565 566 }
				}
				{
					Type TRISTRIP
					Priority 32 
					Idx 4 { 567 568 569 570 }
				}
				{
					Type TRISTRIP
					Priority 32 
					Idx 13 { 490 425 349 350 349 351 352 342 341 339 338 340 276 }
				}
				{
					Type TRISTRIP2
					Priority 32 
					Idx 40 { 470 469 340 429 282 281 282 280 419 418 419 417 291 290 292 424 409 443 283 285 283 284 283 455 452 455 453 454 453 451 408 450 407 448 449 444 445 444 446 447 }
				}
				{
					Type TRISTRIP2
					Priority 32 
					Idx 41 { 31 139 34 138 140 72 23 73 76 69 74 70 75 328 331 329 332 287 387 386 387 384 385 133 130 132 131 135 134 23 134 76 134 74 131 75 130 331 385 332 387 }
				}
				{
					Type TRISTRIP
					Priority 32 
					Idx 11 { 325 326 324 323 64 65 63 62 63 66 67 }
				}
				{
					Type TRISTRIP2
					Priority 32 
					Idx 3 { 326 480 318 }
				}
				{
					Type TRISTRIP
					Priority 32 
					Idx 4 { 28 46 29 47 }
				}
				{
					Type TRISTRIP
					Priority 32 
					Idx 8 { 393 392 286 287 289 287 288 386 }
				}
				{
					Type TRISTRIP
					Priority 32 
					Idx 3 { 57 66 246 }
				}
				{
					Type TRISTRIP2
					Priority 32 
					Idx 8 { 141 140 20 23 21 23 22 135 }
				}
				{
					Type TRISTRIP2
					Priority 32 
					Idx 9 { 308 47 294 29 293 29 30 28 27 }
				}
				{
					Type TRISTRIP
					Priority 32 
					Idx 13 { 57 51 52 49 48 49 50 45 137 45 44 42 43 }
				}
				{
					Type TRISTRIP2
					Priority 32 
					Idx 15 { 42 307 45 306 45 389 311 310 311 309 312 313 317 318 479 }
				}
				{
					Type TRISTRIP
					Priority 32 
					Idx 40 { 204 205 203 206 203 208 207 166 209 169 210 214 213 214 212 211 212 17 19 17 18 17 202 168 183 25 24 26 176 177 178 177 14 15 16 15 188 83 232 233 }
				}
				{
					Type TRISTRIP
					Priority 32 
					Idx 5 { 258 259 257 260 261 }
				}
				{
					Type TRISTRIP2
					Priority 32 
					Idx 6 { 515 514 513 525 523 524 }
				}
				{
					Type TRISTRIP2
					Priority 32 
					Idx 5 { 493 492 491 495 494 }
				}
				{
					Type TRISTRIP
					Priority 32 
					Idx 15 { 383 336 335 333 335 334 335 337 335 279 420 279 277 278 276 }
				}
				{
					Type TRISTRIP2
					Priority 32 
					Idx 15 { 129 78 79 77 79 80 79 81 79 13 179 13 12 11 10 }
				}
				{
					Type TRISTRIP
					Priority 32 
					Idx 23 { 252 91 251 91 90 92 90 107 90 164 163 165 346 406 346 363 346 347 346 348 346 485 486 }
				}
				{
					Type TRISTRIP2
					Priority 32 
					Idx 15 { 147 273 274 272 275 128 127 128 7 6 8 9 146 147 274 }
				}
				{
					Type TRISTRIP
					Priority 32 
					Idx 3 { 41 39 40 }
				}
				{
					Type TRISTRIP2
					Priority 32 
					Idx 3 { 87 89 88 }
				}
				{
					Type TRISTRIP
					Priority 32 
					Idx 3 { 103 101 102 }
				}
				{
					Type TRISTRIP2
					Priority 32 
					Idx 3 { 104 106 105 }
				}
				{
					Type TRISTRIP
					Priority 32 
					Idx 3 { 114 112 113 }
				}
				{
					Type TRISTRIP2
					Priority 32 
					Idx 3 { 119 121 120 }
				}
				{
					Type TRISTRIP
					Priority 32 
					Idx 3 { 45 49 51 }
				}
				{
					Type TRISTRIP2
					Priority 32 
					Idx 3 { 72 138 139 }
				}
				{
					Type TRISTRIP
					Priority 32 
					Idx 5 { 317 312 388 311 45 }
				}
				{
					Type TRISTRIP2
					Priority 32 
					Idx 19 { 73 72 69 68 69 71 70 327 328 330 329 330 287 330 392 391 296 390 295 }
				}
				{
					Type TRISTRIP
					Priority 32 
					Idx 3 { 390 330 391 }
				}
				{
					Type TRISTRIP2
					Priority 32 
					Idx 3 { 185 187 186 }
				}
				{
					Type TRISTRIP
					Priority 32 
					Idx 3 { 195 193 194 }
				}
				{
					Type TRISTRIP2
					Priority 32 
					Idx 3 { 196 198 197 }
				}
				{
					Type TRISTRIP
					Priority 32 
					Idx 3 { 201 199 200 }
				}
				{
					Type TRISTRIP2
					Priority 32 
					Idx 3 { 227 229 228 }
				}
				{
					Type TRISTRIP
					Priority 32 
					Idx 3 { 236 234 235 }
				}
				{
					Type TRISTRIP2
					Priority 32 
					Idx 3 { 237 239 238 }
				}
				{
					Type TRISTRIP
					Priority 32 
					Idx 3 { 172 170 171 }
				}
				{
					Type TRISTRIP2
					Priority 32 
					Idx 3 { 253 255 254 }
				}
				{
					Type TRISTRIP
					Priority 32 
					Idx 3 { 305 303 304 }
				}
				{
					Type TRISTRIP2
					Priority 32 
					Idx 3 { 343 345 344 }
				}
				{
					Type TRISTRIP
					Priority 32 
					Idx 3 { 359 357 358 }
				}
				{
					Type TRISTRIP2
					Priority 32 
					Idx 3 { 360 362 361 }
				}
				{
					Type TRISTRIP
					Priority 32 
					Idx 3 { 370 368 369 }
				}
				{
					Type TRISTRIP2
					Priority 32 
					Idx 3 { 375 377 376 }
				}
				{
					Type TRISTRIP
					Priority 32 
					Idx 3 { 182 180 181 }
				}
				{
					Type TRISTRIP2
					Priority 32 
					Idx 3 { 411 413 412 }
				}
				{
					Type TRISTRIP
					Priority 32 
					Idx 3 { 416 414 415 }
				}
				{
					Type TRISTRIP2
					Priority 32 
					Idx 3 { 421 423 422 }
				}
				{
					Type TRISTRIP
					Priority 32 
					Idx 3 { 428 426 427 }
				}
				{
					Type TRISTRIP2
					Priority 32 
					Idx 3 { 434 436 435 }
				}
				{
					Type TRISTRIP
					Priority 32 
					Idx 3 { 439 437 438 }
				}
				{
					Type TRISTRIP2
					Priority 32 
					Idx 3 { 440 442 441 }
				}
				{
					Type TRISTRIP
					Priority 32 
					Idx 3 { 466 464 465 }
				}
				{
					Type TRISTRIP2
					Priority 32 
					Idx 3 { 471 473 472 }
				}
				{
					Type TRISTRIP
					Priority 32 
					Idx 3 { 476 474 475 }
				}
				{
					Type TRISTRIP2
					Priority 32 
					Idx 3 { 173 175 174 }
				}
				{
					Type TRISTRIP
					Priority 32 
					Idx 3 { 489 487 488 }
				}
				{
					Type TRISTRIP2
					Priority 32 
					Idx 3 { 510 512 511 }
				}
				{
					Type TRISTRIP
					Priority 32 
					Idx 3 { 518 516 517 }
				}
				{
					Type TRISTRIP2
					Priority 32 
					Idx 3 { 526 528 527 }
				}
				{
					Type TRISTRIP
					Priority 32 
					Idx 3 { 539 537 538 }
				}
				{
					Type TRISTRIP2
					Priority 32 
					Idx 3 { 544 546 545 }
				}
				{
					Type TRISTRIP
					Priority 32 
					Idx 3 { 552 550 551 }
				}
				{
					Type TRISTRIP2
					Priority 32 
					Idx 3 { 560 562 561 }
				}
				{
					Type TRISTRIP
					Priority 32 
					Idx 3 { 573 571 572 }
				}
			}

		}
		{
			Name "#1" 
			Priority 32 
			Prim 9 { 
				{
					Type TRISTRIP
					Priority 32 
					Idx 4 { 593 594 592 591 }
				}
				{
					Type TRISTRIP
					Priority 32 
					Idx 4 { 594 613 612 614 }
				}
				{
					Type TRISTRIP
					Priority 32 
					Idx 4 { 595 596 597 615 }
				}
				{
					Type TRISTRIP
					Priority 32 
					Idx 11 { 600 599 588 598 588 578 577 579 576 574 575 }
				}
				{
					Type TRISTRIP2
					Priority 32 
					Idx 6 { 581 580 582 583 608 607 }
				}
				{
					Type TRISTRIP2
					Priority 32 
					Idx 8 { 603 602 601 604 601 605 620 619 }
				}
				{
					Type TRISTRIP2
					Priority 32 
					Idx 8 { 605 604 606 611 616 611 617 618 }
				}
				{
					Type TRISTRIP2
					Priority 32 
					Idx 11 { 611 604 590 589 588 589 577 587 584 586 585 }
				}
				{
					Type TRISTRIP
					Priority 32 
					Idx 6 { 604 589 609 587 610 586 }
				}
			}

		}
		{
			Name "#2" 
			Priority 32 
			Prim 4 { 
				{
					Type TRISTRIP
					Priority 32 
					Idx 4 { 635 636 634 633 }
				}
				{
					Type TRISTRIP
					Priority 32 
					Idx 4 { 637 638 640 639 }
				}
				{
					Type TRISTRIP
					Priority 32 
					Idx 7 { 631 630 628 629 628 627 632 }
				}
				{
					Type TRISTRIP2
					Priority 32 
					Idx 7 { 625 624 623 622 623 621 626 }
				}
			}

		}
	}

	Offset 0 
}
