{
	Skinned 0 
	PosSkin 0 
	Pos 223 { 
		-1.056664	0.844899	-2.531095 
		-0.616825	0.850816	-2.545950 
		-0.616825	0.631415	-2.501297 
		-1.056255	0.631315	-2.492138 
		1.056664	0.844899	-2.531095 
		1.056255	0.631315	-2.492137 
		0.616825	0.631415	-2.501297 
		0.616825	0.850816	-2.545949 
		-1.074202	0.850518	-2.446637 
		-1.067299	0.631216	-2.385823 
		1.074202	0.850518	-2.446637 
		1.067299	0.631215	-2.385823 
		-0.753664	1.462325	0.176434 
		-0.749639	1.441386	-0.163998 
		-0.997769	1.007748	0.209056 
		-0.933180	1.044631	-0.682202 
		-1.010421	1.011762	0.848347 
		-0.775215	1.451702	0.741361 
		-0.982838	1.086380	1.214326 
		-0.808586	1.409044	1.399426 
		-0.708304	1.458887	-0.168261 
		0.000000	1.482406	-0.257568 
		-0.000000	1.122648	-0.902139 
		-0.713868	1.500759	0.176093 
		-0.966166	0.964985	-0.686716 
		-1.061057	0.937030	-0.687436 
		-1.043453	0.804826	0.205693 
		-1.041985	0.932483	2.078923 
		-1.008732	1.001121	2.078825 
		-0.993908	1.059478	1.652785 
		-1.044498	0.981180	1.683950 
		-1.015288	0.765235	2.802671 
		-0.986745	0.857568	2.755507 
		-1.045707	0.983232	1.254900 
		-1.046474	0.911794	0.854104 
		-1.026978	0.563819	2.906851 
		-1.009506	0.316854	2.135269 
		-1.011184	0.351391	2.840057 
		-1.025285	0.612056	2.881860 
		-1.042914	0.568766	1.969195 
		-1.028305	0.433811	1.149282 
		-1.054914	0.665749	1.277651 
		-1.059207	0.723081	1.404147 
		-1.057209	0.701174	1.776932 
		-1.060121	0.740031	1.557065 
		-1.052113	0.574694	-2.345294 
		-1.075535	0.546468	-1.988597 
		-1.058423	0.631216	-2.365365 
		-1.083918	0.663612	-1.927942 
		-1.065268	0.850518	-2.426179 
		-1.088462	0.751167	-1.754198 
		-1.075251	0.953913	-1.863005 
		-1.088084	0.746600	-1.531777 
		-1.069310	0.966080	-1.370932 
		-1.040375	0.455353	-1.124300 
		-1.071891	0.631236	-1.274446 
		-0.767406	1.443964	1.371254 
		-0.759023	1.426515	1.403971 
		-0.737201	1.489419	0.739188 
		0.000000	1.532413	0.176093 
		0.000000	1.513233	0.739188 
		-0.000000	1.474739	1.340238 
		-1.040726	0.976852	-1.862891 
		-1.049462	0.978975	-1.357798 
		-1.065193	0.900229	-2.435569 
		-0.947237	0.870412	2.748623 
		-0.965944	1.013173	2.078825 
		-0.959022	1.072585	1.662337 
		-0.710186	0.987939	-1.861544 
		-0.827929	1.004260	-1.321161 
		-0.558341	0.909539	-2.425828 
		-0.684091	1.027849	-1.862111 
		-0.539474	0.968173	-2.444265 
		-0.800698	1.054940	-1.309755 
		-0.000000	1.107237	-1.315543 
		-0.000000	1.071411	-1.875035 
		-0.000000	1.002668	-2.445185 
		-0.478492	0.746710	-2.538332 
		-0.522164	0.577933	-2.557659 
		-0.492610	0.922521	-2.573369 
		-0.529115	0.870323	-2.523722 
		-0.504707	0.947067	-2.553574 
		-0.531983	0.850816	-2.528886 
		-0.536247	0.577933	-2.479182 
		-0.616825	0.850816	-2.525491 
		-0.616825	0.631415	-2.480838 
		-1.047876	0.844899	-2.510636 
		-1.042933	0.868060	-2.514884 
		0.000000	0.956226	-2.594476 
		0.000000	0.982087	-2.566751 
		-0.613629	0.577933	-2.477677 
		-1.043820	0.576463	-2.461917 
		-1.047471	0.631315	-2.471679 
		-1.017900	0.332023	-2.032399 
		-0.508594	0.572076	-2.684954 
		-0.602896	0.572076	-2.628409 
		-1.026198	0.571493	-2.614938 
		0.000000	0.577933	-2.582470 
		0.000000	0.572688	-2.706201 
		-0.512361	0.398444	-2.685640 
		-0.606541	0.398438	-2.629449 
		-1.021952	0.397087	-2.610926 
		-0.000000	0.395113	-2.708353 
		-0.000000	0.875835	2.748623 
		0.000000	0.611924	2.882033 
		-0.000000	1.035881	2.078825 
		-0.000000	1.101886	1.662337 
		-0.000000	1.451579	1.365561 
		-1.029979	0.556641	2.955417 
		0.000000	0.561541	2.948664 
		0.000000	0.569492	2.903562 
		-0.980786	0.374338	2.955417 
		0.000000	0.374338	2.955417 
		-0.599634	0.238285	1.149149 
		-0.599634	0.694415	1.340899 
		-0.599634	0.720603	1.916457 
		-0.599634	0.316854	2.135269 
		-0.599634	0.663612	-1.927942 
		-0.599634	0.748884	-1.642988 
		-0.599634	0.631236	-1.274446 
		-0.599634	0.332023	-2.032399 
		-0.599634	0.257341	-1.121452 
		-0.986406	0.250106	-1.017790 
		-0.974536	0.231049	1.109311 
		0.753664	1.462325	0.176434 
		0.997769	1.007748	0.209056 
		0.749639	1.441386	-0.163998 
		0.933180	1.044631	-0.682202 
		0.775215	1.451702	0.741361 
		1.010421	1.011762	0.848347 
		0.808586	1.409044	1.399426 
		0.982838	1.086380	1.214326 
		0.708304	1.458887	-0.168261 
		0.713868	1.500759	0.176093 
		0.966166	0.964985	-0.686716 
		1.043453	0.804826	0.205693 
		1.061057	0.937030	-0.687436 
		1.041985	0.932483	2.078923 
		1.044498	0.981180	1.683950 
		0.993908	1.059478	1.652785 
		1.008732	1.001121	2.078825 
		0.986745	0.857568	2.755507 
		1.015288	0.765235	2.802671 
		1.045707	0.983232	1.254900 
		1.046474	0.911794	0.854104 
		1.026978	0.563819	2.906851 
		1.011184	0.351391	2.840057 
		1.009506	0.316854	2.135269 
		1.025285	0.612056	2.881860 
		1.042914	0.568766	1.969195 
		1.028305	0.433811	1.149282 
		1.054914	0.665749	1.277651 
		1.059207	0.723081	1.404147 
		1.057209	0.701174	1.776932 
		1.060121	0.740031	1.557065 
		1.052113	0.574694	-2.345294 
		1.058423	0.631215	-2.365365 
		1.075535	0.546468	-1.988597 
		1.083918	0.663612	-1.927942 
		1.065268	0.850518	-2.426179 
		1.088462	0.751167	-1.754198 
		1.075251	0.953913	-1.863005 
		1.088084	0.746600	-1.531777 
		1.069310	0.966080	-1.370932 
		1.040375	0.455353	-1.124300 
		1.071891	0.631236	-1.274446 
		0.767406	1.443964	1.371254 
		0.759023	1.426515	1.403971 
		0.737201	1.489419	0.739188 
		1.040726	0.976852	-1.862891 
		1.049462	0.978975	-1.357798 
		1.065193	0.900229	-2.435569 
		0.965944	1.013173	2.078825 
		0.947237	0.870412	2.748623 
		0.959022	1.072585	1.662337 
		0.710186	0.987939	-1.861544 
		0.827929	1.004260	-1.321161 
		0.558341	0.909539	-2.425828 
		0.539474	0.968173	-2.444265 
		0.684091	1.027849	-1.862111 
		0.800698	1.054940	-1.309755 
		0.478492	0.746710	-2.538332 
		0.492610	0.922521	-2.573369 
		0.522164	0.577933	-2.557659 
		0.529115	0.870323	-2.523722 
		0.504707	0.947067	-2.553574 
		0.531983	0.850816	-2.528886 
		0.536247	0.577933	-2.479182 
		0.616825	0.850816	-2.525491 
		0.616825	0.631415	-2.480838 
		1.047876	0.844899	-2.510636 
		1.042933	0.868060	-2.514884 
		0.613629	0.577933	-2.477677 
		1.047471	0.631315	-2.471679 
		1.043820	0.576463	-2.461917 
		1.017900	0.332023	-2.032399 
		0.602896	0.572076	-2.628409 
		0.508594	0.572076	-2.684954 
		1.026198	0.571493	-2.614938 
		0.606540	0.398438	-2.629449 
		0.512361	0.398444	-2.685640 
		1.021952	0.397087	-2.610926 
		1.029979	0.556641	2.955417 
		0.980786	0.374338	2.955417 
		0.599634	0.694415	1.340899 
		0.599634	0.238285	1.149149 
		0.599634	0.720603	1.916457 
		0.599634	0.316854	2.135269 
		0.599634	0.748883	-1.642988 
		0.599634	0.663612	-1.927942 
		0.599634	0.631236	-1.274446 
		0.599634	0.332023	-2.032399 
		0.599634	0.257341	-1.121452 
		0.986406	0.250106	-1.017790 
		0.974536	0.231049	1.109311 
		0.499404	0.591991	2.900352 
		0.967151	0.592204	2.900304 
		0.967356	0.718010	2.835382 
		0.498423	0.720374	2.834751 
		-0.499075	0.591991	2.900353 
		-0.499736	0.720367	2.834753 
		-0.967356	0.718010	2.835382 
		-0.967151	0.592204	2.900304 
	}

	Nrm 268 { 
		-0.031250	-0.187500	-0.984375 
		0.031250	-0.187500	-0.984375 
		-0.984375	-0.046875	-0.140625 
		0.984375	-0.046875	-0.140625 
		-0.781250	0.625000	-0.046875 
		-0.718750	0.671875	-0.171875 
		-0.921875	0.390625	-0.031250 
		-0.828125	0.515625	-0.203125 
		-0.906250	0.406250	-0.031250 
		-0.796875	0.609375	-0.015625 
		-0.875000	0.484375	-0.015625 
		-0.671875	0.687500	0.250000 
		-0.156250	0.828125	-0.531250 
		0.000000	0.843750	-0.531250 
		-0.343750	0.906250	-0.234375 
		-0.359375	0.937500	-0.046875 
		-0.218750	0.968750	0.093750 
		-0.343750	0.937500	0.078125 
		-0.281250	0.953125	0.140625 
		-0.890625	0.453125	0.078125 
		-0.640625	0.750000	0.140625 
		-0.703125	0.671875	0.187500 
		-0.859375	0.515625	0.031250 
		-0.921875	0.390625	0.125000 
		-0.656250	0.734375	0.187500 
		-0.984375	0.125000	-0.031250 
		-0.921875	0.359375	-0.109375 
		-1.000000	0.078125	-0.015625 
		-0.984375	-0.125000	0.062500 
		-1.000000	-0.078125	0.015625 
		-0.984375	-0.125000	0.093750 
		-1.000000	-0.031250	0.015625 
		-1.000000	0.015625	0.031250 
		-1.000000	-0.031250	0.031250 
		-0.968750	-0.140625	0.218750 
		-1.000000	-0.031250	-0.046875 
		-1.000000	0.046875	0.000000 
		-1.000000	0.046875	0.015625 
		-1.000000	0.031250	0.031250 
		-1.000000	0.062500	0.015625 
		-0.984375	-0.187500	-0.078125 
		-0.984375	-0.125000	-0.062500 
		-0.984375	-0.093750	-0.093750 
		-1.000000	0.015625	-0.046875 
		-1.000000	-0.015625	-0.093750 
		-1.000000	0.046875	-0.015625 
		-1.000000	0.062500	-0.015625 
		-1.000000	0.078125	0.015625 
		-1.000000	-0.109375	0.031250 
		-1.000000	-0.078125	0.062500 
		-0.281250	0.906250	0.312500 
		-0.234375	0.781250	0.593750 
		-0.390625	0.921875	0.031250 
		0.000000	1.000000	-0.046875 
		0.000000	1.000000	-0.125000 
		0.000000	1.000000	0.046875 
		0.000000	0.937500	0.328125 
		-0.312500	0.953125	-0.062500 
		-0.546875	0.828125	-0.046875 
		-0.562500	0.828125	0.015625 
		-0.343750	0.937500	0.015625 
		-0.546875	0.828125	-0.093750 
		-0.140625	0.968750	0.218750 
		-0.156250	0.968750	0.171875 
		-0.250000	0.906250	0.328125 
		-0.046875	1.000000	-0.078125 
		-0.125000	1.000000	0.015625 
		-0.906250	0.265625	-0.312500 
		-0.875000	0.437500	-0.234375 
		-0.859375	0.468750	-0.187500 
		-0.062500	1.000000	-0.093750 
		-0.078125	1.000000	-0.031250 
		0.000000	1.000000	-0.031250 
		0.000000	1.000000	-0.093750 
		-0.062500	0.984375	-0.156250 
		0.000000	0.984375	-0.156250 
		-0.015625	0.968750	-0.265625 
		0.671875	-0.093750	-0.734375 
		-0.890625	0.156250	-0.437500 
		-0.593750	0.578125	-0.562500 
		-0.765625	0.265625	-0.593750 
		-0.906250	0.125000	-0.406250 
		-0.921875	0.015625	-0.390625 
		-0.046875	0.031250	-1.000000 
		-0.062500	0.031250	-1.000000 
		-0.046875	-0.125000	-0.984375 
		-0.031250	0.000000	-1.000000 
		-0.031250	0.125000	-0.984375 
		0.000000	0.671875	-0.734375 
		0.000000	0.875000	-0.484375 
		-0.031250	-0.093750	-1.000000 
		-0.031250	-0.125000	-1.000000 
		-0.015625	0.921875	-0.375000 
		-0.984375	0.015625	-0.125000 
		-0.968750	0.015625	-0.234375 
		-0.984375	-0.015625	-0.187500 
		-0.984375	0.187500	-0.078125 
		-0.984375	-0.078125	-0.109375 
		-0.984375	-0.187500	-0.062500 
		-0.015625	1.000000	-0.046875 
		-0.015625	1.000000	-0.031250 
		-0.031250	1.000000	-0.031250 
		-0.593750	0.515625	-0.609375 
		-0.281250	0.000000	-0.953125 
		-0.281250	0.015625	-0.953125 
		-0.703125	-0.078125	-0.703125 
		0.000000	0.015625	-1.000000 
		-0.046875	-0.031250	-1.000000 
		0.000000	-0.031250	-1.000000 
		-1.000000	0.000000	-0.015625 
		0.000000	0.453125	0.890625 
		0.000000	0.968750	0.218750 
		0.000000	0.984375	0.187500 
		0.000000	0.984375	0.156250 
		0.000000	0.812500	0.578125 
		0.000000	0.625000	0.781250 
		-0.968750	-0.187500	0.171875 
		0.000000	0.015625	1.000000 
		-0.140625	-0.421875	0.890625 
		0.000000	-0.906250	0.406250 
		0.093750	-0.984375	-0.171875 
		0.109375	-0.609375	-0.796875 
		-0.078125	-1.000000	0.062500 
		-0.046875	-0.937500	0.359375 
		0.000000	-1.000000	-0.015625 
		-0.031250	-0.937500	-0.343750 
		-0.031250	-0.343750	0.937500 
		-0.109375	-0.484375	-0.875000 
		0.000000	-0.546875	-0.828125 
		0.000000	-0.203125	0.984375 
		-1.000000	0.000000	0.000000 
		-0.250000	-0.968750	0.015625 
		-0.453125	-0.890625	0.062500 
		-0.218750	-0.500000	-0.843750 
		-0.968750	-0.250000	0.000000 
		-0.703125	-0.312500	0.640625 
		-0.093750	-0.218750	0.968750 
		-0.078125	1.000000	-0.015625 
		0.000000	1.000000	-0.015625 
		0.781250	0.625000	-0.046875 
		0.921875	0.390625	-0.031250 
		0.718750	0.671875	-0.171875 
		0.828125	0.515625	-0.203125 
		0.796875	0.609375	-0.015625 
		0.906250	0.406250	-0.031250 
		0.671875	0.687500	0.250000 
		0.875000	0.484375	-0.015625 
		0.156250	0.828125	-0.531250 
		0.343750	0.906250	-0.234375 
		0.359375	0.937500	-0.046875 
		0.218750	0.968750	0.093750 
		0.281250	0.953125	0.140625 
		0.343750	0.937500	0.078125 
		0.890625	0.453125	0.078125 
		0.859375	0.515625	0.031250 
		0.703125	0.671875	0.187500 
		0.640625	0.750000	0.140625 
		0.656250	0.734375	0.187500 
		0.921875	0.390625	0.125000 
		0.984375	0.125000	-0.031250 
		0.921875	0.359375	-0.109375 
		1.000000	0.078125	-0.015625 
		0.984375	-0.125000	0.062500 
		0.984375	-0.125000	0.093750 
		1.000000	-0.078125	0.015625 
		1.000000	-0.031250	0.015625 
		1.000000	-0.031250	0.031250 
		1.000000	0.015625	0.031250 
		0.968750	-0.140625	0.218750 
		1.000000	-0.031250	-0.046875 
		1.000000	0.046875	0.000000 
		1.000000	0.046875	0.015625 
		1.000000	0.031250	0.031250 
		1.000000	0.062500	0.015625 
		0.984375	-0.187500	-0.078125 
		0.984375	-0.093750	-0.093750 
		0.984375	-0.125000	-0.062500 
		1.000000	0.015625	-0.046875 
		1.000000	-0.015625	-0.093750 
		1.000000	0.046875	-0.015625 
		1.000000	0.062500	-0.015625 
		1.000000	0.078125	0.015625 
		1.000000	-0.109375	0.031250 
		1.000000	-0.078125	0.062500 
		0.281250	0.906250	0.312500 
		0.234375	0.781250	0.593750 
		0.390625	0.921875	0.031250 
		0.312500	0.953125	-0.062500 
		0.343750	0.937500	0.015625 
		0.562500	0.828125	0.015625 
		0.546875	0.828125	-0.046875 
		0.546875	0.828125	-0.093750 
		0.156250	0.968750	0.171875 
		0.140625	0.968750	0.218750 
		0.250000	0.906250	0.328125 
		0.046875	1.000000	-0.078125 
		0.125000	1.000000	0.015625 
		0.906250	0.265625	-0.312500 
		0.875000	0.437500	-0.234375 
		0.859375	0.468750	-0.187500 
		0.062500	1.000000	-0.093750 
		0.078125	1.000000	-0.031250 
		0.062500	0.984375	-0.156250 
		0.015625	0.968750	-0.265625 
		-0.671875	-0.093750	-0.734375 
		0.890625	0.156250	-0.437500 
		0.593750	0.578125	-0.562500 
		0.765625	0.265625	-0.593750 
		0.906250	0.125000	-0.406250 
		0.921875	0.015625	-0.390625 
		0.046875	0.031250	-1.000000 
		0.046875	-0.125000	-0.984375 
		0.062500	0.031250	-1.000000 
		0.031250	0.000000	-1.000000 
		0.031250	0.125000	-0.984375 
		0.031250	-0.093750	-1.000000 
		0.031250	-0.125000	-1.000000 
		0.015625	0.921875	-0.375000 
		0.984375	0.015625	-0.125000 
		0.984375	-0.015625	-0.187500 
		0.968750	0.015625	-0.234375 
		0.984375	0.187500	-0.078125 
		0.984375	-0.078125	-0.109375 
		0.984375	-0.187500	-0.062500 
		0.015625	1.000000	-0.046875 
		0.015625	1.000000	-0.031250 
		0.031250	1.000000	-0.031250 
		0.593750	0.515625	-0.609375 
		0.281250	0.000000	-0.953125 
		0.281250	0.015625	-0.953125 
		0.703125	-0.078125	-0.703125 
		0.046875	-0.031250	-1.000000 
		1.000000	0.000000	-0.015625 
		0.968750	-0.187500	0.171875 
		0.140625	-0.421875	0.890625 
		-0.093750	-0.984375	-0.171875 
		-0.109375	-0.609375	-0.796875 
		0.078125	-1.000000	0.062500 
		0.046875	-0.937500	0.359375 
		0.031250	-0.937500	-0.343750 
		0.031250	-0.343750	0.937500 
		0.109375	-0.484375	-0.875000 
		1.000000	0.000000	0.000000 
		0.218750	-0.500000	-0.843750 
		0.968750	-0.250000	0.000000 
		0.703125	-0.312500	0.640625 
		0.093750	-0.218750	0.968750 
		0.078125	1.000000	-0.015625 
		0.015625	-1.000000	-0.015625 
		0.078125	-1.000000	-0.031250 
		-0.015625	-1.000000	-0.109375 
		0.046875	-1.000000	-0.078125 
		0.000000	-1.000000	-0.093750 
		0.000000	-1.000000	-0.109375 
		-0.015625	-1.000000	-0.125000 
		0.000000	-0.984375	0.125000 
		0.015625	-1.000000	0.062500 
		0.062500	-1.000000	0.078125 
		0.000000	-0.984375	0.187500 
		-0.015625	-1.000000	-0.015625 
		0.015625	-1.000000	-0.109375 
		-0.046875	-1.000000	-0.078125 
		0.015625	-1.000000	-0.125000 
		-0.062500	-1.000000	0.078125 
		0.000000	-1.000000	0.062500 
		-0.015625	-1.000000	0.062500 
		-0.109375	-1.000000	0.031250 
		-0.125000	-0.984375	-0.046875 
	}

	Cpv 516 { 
		0.500000	0.388183	0.549734	0.000000 
		0.500000	0.436166	0.549734	0.000000 
		0.500000	0.500000	0.549734	0.000000 
		0.500000	0.500000	0.549734	0.000000 
		0.468295	0.434386	0.500000	0.000000 
		0.500000	0.500000	0.500000	0.000000 
		0.500000	0.500000	0.500000	0.000000 
		0.500000	0.500000	0.500000	0.000000 
		0.500000	0.388183	0.549734	0.000000 
		0.500000	0.388183	0.549734	0.000000 
		0.500000	0.500000	0.549734	0.000000 
		0.500000	0.500000	0.549734	0.000000 
		0.468295	0.434386	0.500000	0.000000 
		0.500000	0.500000	0.500000	0.000000 
		0.500000	0.500000	0.500000	0.000000 
		0.468295	0.434386	0.500000	0.000000 
		0.500000	0.421605	0.500000	0.003922 
		0.500000	0.421605	0.500000	0.003922 
		0.500000	0.500000	0.500000	0.000000 
		0.500000	0.500000	0.500000	0.000000 
		0.500000	0.500000	0.500000	0.000000 
		0.500000	0.361337	0.500000	0.003922 
		0.500000	0.500000	0.500000	0.000000 
		0.500000	0.361336	0.391136	0.003922 
		0.500000	0.500000	0.500000	0.000000 
		0.500000	0.421605	0.500000	0.003922 
		0.500000	0.328673	0.500000	0.003922 
		0.500000	0.500000	0.500000	0.000000 
		0.500000	0.421605	0.500000	0.003922 
		0.500000	0.421605	0.500000	0.003922 
		0.500000	0.500000	0.500000	0.000000 
		0.576344	0.419461	0.500000	0.000000 
		0.582825	0.634557	0.500000	0.000000 
		0.500000	0.419420	0.500000	0.000000 
		0.500000	0.419420	0.500000	0.000000 
		0.500000	0.500000	0.500000	0.000000 
		0.500000	0.500000	0.500000	0.000000 
		0.500000	0.412895	0.408246	0.000000 
		0.500000	0.412895	0.408246	0.000000 
		0.608151	0.500000	0.500000	0.000000 
		0.608151	0.500000	0.500000	0.000000 
		0.500000	0.500000	0.500000	0.000000 
		0.582825	0.634557	0.500000	0.000000 
		0.500000	0.500000	0.408246	0.000000 
		0.500000	0.500000	0.500000	0.000000 
		0.500000	0.500000	0.408246	0.000000 
		0.546014	0.500000	0.408246	0.000000 
		0.500000	0.412895	0.408246	0.000000 
		0.500000	0.419420	0.500000	0.000000 
		0.546014	0.500000	0.500000	0.000000 
		0.500000	0.500000	0.500000	0.000000 
		0.500000	0.500000	0.500000	0.000000 
		0.500000	0.500000	0.500000	0.000000 
		0.608151	0.500000	0.500000	0.000000 
		0.500000	0.500000	0.500000	0.000000 
		0.500000	0.500000	0.500000	0.000000 
		0.500000	0.500000	0.500000	0.000000 
		0.556406	0.500000	0.549734	0.000000 
		0.500000	0.500000	0.500000	0.000000 
		0.500000	0.500000	0.549734	0.000000 
		0.500000	0.500000	0.500000	0.000000 
		0.500000	0.388183	0.549734	0.000000 
		0.500000	0.500000	0.500000	0.000000 
		0.500000	0.419420	0.500000	0.000000 
		0.500000	0.500000	0.560472	0.000000 
		0.589979	0.419876	0.500000	0.000000 
		0.578959	0.500000	0.448526	0.000000 
		0.576344	0.419461	0.500000	0.000000 
		0.500000	0.500000	0.560472	0.000000 
		0.500000	0.361336	0.391136	0.003922 
		0.500000	0.361336	0.391136	0.003922 
		0.500000	0.361337	0.500000	0.003922 
		0.500000	0.328673	0.500000	0.003922 
		0.500000	0.328673	0.500000	0.003922 
		0.500000	0.421605	0.500000	0.003922 
		0.500000	0.421605	0.500000	0.003922 
		0.500000	0.366373	0.500000	0.003922 
		0.500000	0.361337	0.500000	0.003922 
		0.500000	0.361336	0.391136	0.003922 
		0.500000	0.366373	0.500000	0.003922 
		0.500000	0.419420	0.500000	0.000000 
		0.500000	0.419420	0.500000	0.000000 
		0.589979	0.419876	0.500000	0.000000 
		0.589979	0.419876	0.500000	0.000000 
		0.500000	0.388183	0.549734	0.000000 
		0.500000	0.412895	0.408246	0.000000 
		0.500000	0.412895	0.408246	0.000000 
		0.500000	0.419420	0.500000	0.000000 
		0.500000	0.419420	0.500000	0.000000 
		0.500000	0.500000	0.500000	0.000000 
		0.500000	0.500000	0.500000	0.000000 
		0.500000	0.444693	0.500000	0.000000 
		0.500000	0.444693	0.500000	0.000000 
		0.500000	0.436166	0.549734	0.000000 
		0.500000	0.444693	0.500000	0.000000 
		0.500000	0.444693	0.500000	0.000000 
		0.500000	0.436166	0.549734	0.000000 
		0.500000	0.444693	0.500000	0.000000 
		0.500000	0.444693	0.500000	0.000000 
		0.500000	0.444693	0.500000	0.000000 
		0.500000	0.444693	0.500000	0.000000 
		0.500000	0.500000	0.500000	0.000000 
		0.500000	0.500000	0.500000	0.000000 
		0.500000	0.436166	0.549734	0.000000 
		0.500000	0.443693	0.590731	0.000000 
		0.500000	0.436166	0.549734	0.000000 
		0.500000	0.388183	0.549734	0.000000 
		0.500000	0.500000	0.549734	0.000000 
		0.500000	0.500000	0.549734	0.000000 
		0.500000	0.436166	0.549734	0.000000 
		0.500000	0.436166	0.549734	0.000000 
		0.500000	0.436166	0.549734	0.000000 
		0.500000	0.436166	0.549734	0.000000 
		0.500000	0.436166	0.549734	0.000000 
		0.500000	0.436166	0.549734	0.000000 
		0.500000	0.436166	0.549734	0.000000 
		0.500000	0.500000	0.549734	0.000000 
		0.500000	0.500000	0.549734	0.000000 
		0.500000	0.436166	0.549734	0.000000 
		0.500000	0.436166	0.549734	0.000000 
		0.500000	0.500000	0.549734	0.000000 
		0.500000	0.500000	0.549734	0.000000 
		0.500000	0.388183	0.549734	0.000000 
		0.500000	0.388183	0.549734	0.000000 
		0.500000	0.436166	0.549734	0.000000 
		0.500000	0.443693	0.590731	0.000000 
		0.500000	0.436166	0.549734	0.000000 
		0.500000	0.436166	0.549734	0.000000 
		0.500000	0.443693	0.590731	0.000000 
		0.500000	0.500000	0.549734	0.000000 
		0.556406	0.500000	0.549734	0.000000 
		0.500000	0.500000	0.549734	0.000000 
		0.500000	0.436166	0.549734	0.000000 
		0.500000	0.388183	0.549734	0.000000 
		0.500000	0.388183	0.549734	0.000000 
		0.500000	0.388183	0.549734	0.000000 
		0.500000	0.388183	0.549734	0.000000 
		0.500000	0.443693	0.590731	0.000000 
		0.556406	0.500000	0.549734	0.000000 
		0.500000	0.500000	0.549734	0.000000 
		0.500000	0.500000	0.500000	0.000000 
		0.500000	0.500000	0.549734	0.000000 
		0.500000	0.500000	0.549734	0.000000 
		0.500000	0.500000	0.549734	0.000000 
		0.500000	0.500000	0.549734	0.000000 
		0.500000	0.500000	0.549734	0.000000 
		0.556406	0.500000	0.549734	0.000000 
		0.719287	0.459300	0.668170	0.000000 
		0.500000	0.500000	0.590731	0.000000 
		0.500000	0.500000	0.590731	0.000000 
		0.500000	0.500000	0.549734	0.000000 
		0.500000	0.500000	0.549734	0.000000 
		0.500000	0.559334	0.549734	0.000000 
		0.500000	0.559334	0.549734	0.000000 
		0.719287	0.459300	0.668170	0.000000 
		0.719287	0.459300	0.668170	0.000000 
		0.719287	0.459300	0.668170	0.000000 
		0.719287	0.459300	0.668170	0.000000 
		0.500000	0.500000	0.590731	0.000000 
		0.500000	0.559334	0.590730	0.000000 
		0.500000	0.436166	0.549734	0.000000 
		0.500000	0.443693	0.590731	0.000000 
		0.500000	0.500000	0.590731	0.000000 
		0.500000	0.500000	0.549734	0.000000 
		0.500000	0.388183	0.549734	0.000000 
		0.500000	0.436166	0.549734	0.000000 
		0.500000	0.500000	0.549734	0.000000 
		0.500000	0.500000	0.549734	0.000000 
		0.500000	0.419420	0.500000	0.000000 
		0.500000	0.348865	0.500000	0.000000 
		0.500000	0.412895	0.408246	0.000000 
		0.546014	0.500000	0.408246	0.000000 
		0.500000	0.500000	0.500000	0.000000 
		0.500000	0.348865	0.500000	0.000000 
		0.500000	0.332876	0.500000	0.000000 
		0.500000	0.421736	0.500000	0.000000 
		0.500000	0.366373	0.500000	0.003922 
		0.500000	0.366373	0.500000	0.003922 
		0.500000	0.500000	0.500000	0.000000 
		0.500000	0.366373	0.500000	0.003922 
		0.500000	0.361336	0.391136	0.003922 
		0.500000	0.500000	0.500000	0.000000 
		0.500000	0.421736	0.500000	0.000000 
		0.500000	0.500000	0.408246	0.000000 
		0.500000	0.500000	0.408246	0.000000 
		0.500000	0.500000	0.500000	0.000000 
		0.500000	0.500000	0.500000	0.000000 
		0.500000	0.412895	0.408246	0.000000 
		0.500000	0.412895	0.408246	0.000000 
		0.500000	0.500000	0.408246	0.000000 
		0.500000	0.500000	0.500000	0.000000 
		0.500000	0.500000	0.408246	0.000000 
		0.500000	0.500000	0.408246	0.000000 
		0.500000	0.500000	0.500000	0.000000 
		0.500000	0.500000	0.408246	0.000000 
		0.500000	0.500000	0.408246	0.000000 
		0.500000	0.615076	0.500000	0.000000 
		0.500000	0.500000	0.500000	0.000000 
		0.500000	0.500000	0.500000	0.000000 
		0.500000	0.500000	0.500000	0.000000 
		0.500000	0.500000	0.500000	0.000000 
		0.500000	0.500000	0.500000	0.000000 
		0.500000	0.500000	0.500000	0.000000 
		0.500000	0.500000	0.500000	0.000000 
		0.500000	0.500000	0.500000	0.000000 
		0.500000	0.500000	0.500000	0.000000 
		0.500000	0.500000	0.500000	0.000000 
		0.546014	0.500000	0.500000	0.000000 
		0.500000	0.500000	0.500000	0.000000 
		0.500000	0.500000	0.500000	0.000000 
		0.500000	0.500000	0.500000	0.000000 
		0.500000	0.500000	0.500000	0.000000 
		0.500000	0.500000	0.500000	0.000000 
		0.500000	0.500000	0.500000	0.000000 
		0.500000	0.500000	0.500000	0.000000 
		0.500000	0.500000	0.500000	0.000000 
		0.500000	0.500000	0.500000	0.000000 
		0.500000	0.500000	0.500000	0.000000 
		0.500000	0.500000	0.500000	0.000000 
		0.500000	0.500000	0.560472	0.000000 
		0.500000	0.500000	0.500000	0.000000 
		0.500000	0.500000	0.500000	0.000000 
		0.500000	0.500000	0.560472	0.000000 
		0.500000	0.500000	0.560472	0.000000 
		0.500000	0.500000	0.500000	0.000000 
		0.500000	0.500000	0.500000	0.000000 
		0.500000	0.500000	0.500000	0.000000 
		0.500000	0.500000	0.500000	0.000000 
		0.500000	0.500000	0.500000	0.000000 
		0.500000	0.500000	0.500000	0.000000 
		0.578959	0.500000	0.448526	0.000000 
		0.500000	0.500000	0.560472	0.000000 
		0.500000	0.500000	0.500000	0.000000 
		0.500000	0.500000	0.500000	0.000000 
		0.500000	0.500000	0.500000	0.000000 
		0.546014	0.500000	0.500000	0.000000 
		0.500000	0.500000	0.500000	0.000000 
		0.500000	0.500000	0.500000	0.000000 
		0.500000	0.500000	0.500000	0.000000 
		0.500000	0.500000	0.500000	0.000000 
		0.500000	0.500000	0.500000	0.000000 
		0.500000	0.500000	0.500000	0.000000 
		0.500000	0.500000	0.500000	0.000000 
		0.500000	0.500000	0.500000	0.000000 
		0.500000	0.500000	0.500000	0.000000 
		0.500000	0.500000	0.500000	0.000000 
		0.500000	0.500000	0.500000	0.000000 
		0.500000	0.500000	0.500000	0.000000 
		0.500000	0.500000	0.500000	0.000000 
		0.578959	0.500000	0.448526	0.000000 
		0.578959	0.500000	0.448526	0.000000 
		0.500000	0.500000	0.500000	0.000000 
		0.578959	0.500000	0.448526	0.000000 
		0.500000	0.500000	0.500000	0.000000 
		0.500000	0.500000	0.500000	0.000000 
		0.500000	0.500000	0.500000	0.000000 
		0.500000	0.500000	0.500000	0.000000 
		0.500000	0.500000	0.500000	0.000000 
		0.500000	0.500000	0.500000	0.000000 
		0.500000	0.500000	0.500000	0.000000 
		0.500000	0.500000	0.500000	0.000000 
		0.417163	0.362243	0.500000	0.003922 
		0.401882	0.500000	0.500000	0.000000 
		0.417163	0.362243	0.500000	0.003922 
		0.500000	0.500000	0.500000	0.000000 
		0.417163	0.433061	0.500000	0.003922 
		0.438668	0.500000	0.500000	0.000000 
		0.417163	0.433061	0.500000	0.003922 
		0.305359	0.445961	0.500000	0.000000 
		0.500000	0.500000	0.500000	0.000000 
		0.417163	0.362243	0.500000	0.003922 
		0.417163	0.362243	0.500000	0.003922 
		0.417163	0.362243	0.500000	0.003922 
		0.500000	0.500000	0.500000	0.000000 
		0.284864	0.500000	0.500000	0.000000 
		0.393055	0.400021	0.500000	0.000000 
		0.378958	0.500000	0.500000	0.000000 
		0.353980	0.500000	0.500000	0.000000 
		0.353980	0.500000	0.500000	0.000000 
		0.378958	0.500000	0.500000	0.000000 
		0.372552	0.500000	0.500000	0.000000 
		0.388532	0.500000	0.500000	0.000000 
		0.305359	0.445961	0.500000	0.000000 
		0.438668	0.500000	0.500000	0.000000 
		0.500000	0.500000	0.500000	0.000000 
		0.284864	0.500000	0.500000	0.000000 
		0.500000	0.514459	0.500000	0.000000 
		0.500000	0.574803	0.500000	0.000000 
		0.378958	0.500000	0.500000	0.000000 
		0.500000	0.500000	0.500000	0.000000 
		0.378958	0.500000	0.500000	0.000000 
		0.378958	0.500000	0.500000	0.000000 
		0.388532	0.500000	0.500000	0.000000 
		0.438668	0.500000	0.500000	0.000000 
		0.438668	0.500000	0.500000	0.000000 
		0.305359	0.445961	0.500000	0.000000 
		0.434868	0.500000	0.500000	0.000000 
		0.353980	0.500000	0.500000	0.000000 
		0.353980	0.500000	0.500000	0.000000 
		0.353980	0.500000	0.500000	0.000000 
		0.500000	0.500000	0.500000	0.000000 
		0.500000	0.500000	0.500000	0.000000 
		0.427870	0.500000	0.500000	0.000000 
		0.397118	0.500000	0.500000	0.000000 
		0.468295	0.434386	0.500000	0.000000 
		0.397118	0.500000	0.500000	0.000000 
		0.390781	0.500000	0.500000	0.000000 
		0.397118	0.500000	0.500000	0.000000 
		0.397118	0.500000	0.500000	0.000000 
		0.422874	0.500000	0.500000	0.000000 
		0.397118	0.500000	0.500000	0.000000 
		0.393055	0.400021	0.500000	0.000000 
		0.417163	0.433061	0.500000	0.003922 
		0.417163	0.433061	0.500000	0.003922 
		0.417163	0.433061	0.500000	0.003922 
		0.417163	0.362243	0.500000	0.003922 
		0.417163	0.362243	0.500000	0.003922 
		0.417163	0.433061	0.500000	0.003922 
		0.417163	0.433061	0.500000	0.003922 
		0.390781	0.500000	0.500000	0.000000 
		0.397118	0.500000	0.500000	0.000000 
		0.397118	0.500000	0.500000	0.000000 
		0.390781	0.500000	0.500000	0.000000 
		0.468295	0.434386	0.500000	0.000000 
		0.372552	0.500000	0.500000	0.000000 
		0.378958	0.500000	0.500000	0.000000 
		0.378958	0.500000	0.500000	0.000000 
		0.372552	0.500000	0.500000	0.000000 
		0.353980	0.500000	0.500000	0.000000 
		0.353980	0.500000	0.500000	0.000000 
		0.500000	0.500000	0.500000	0.000000 
		0.500000	0.500000	0.500000	0.000000 
		0.500000	0.500000	0.500000	0.000000 
		0.500000	0.500000	0.500000	0.000000 
		0.500000	0.500000	0.500000	0.000000 
		0.500000	0.500000	0.500000	0.000000 
		0.462843	0.442726	0.500000	0.000000 
		0.500000	0.500000	0.500000	0.000000 
		0.500000	0.500000	0.500000	0.000000 
		0.462843	0.442726	0.500000	0.000000 
		0.500000	0.500000	0.500000	0.000000 
		0.468295	0.434386	0.500000	0.000000 
		0.500000	0.500000	0.500000	0.000000 
		0.500000	0.500000	0.500000	0.000000 
		0.500000	0.500000	0.500000	0.000000 
		0.500000	0.500000	0.500000	0.000000 
		0.500000	0.500000	0.500000	0.000000 
		0.500000	0.500000	0.500000	0.000000 
		0.500000	0.500000	0.500000	0.000000 
		0.500000	0.500000	0.500000	0.000000 
		0.500000	0.500000	0.500000	0.000000 
		0.500000	0.500000	0.500000	0.000000 
		0.500000	0.500000	0.500000	0.000000 
		0.500000	0.500000	0.500000	0.000000 
		0.500000	0.500000	0.500000	0.000000 
		0.500000	0.500000	0.500000	0.000000 
		0.500000	0.500000	0.500000	0.000000 
		0.500000	0.500000	0.500000	0.000000 
		0.468295	0.434386	0.500000	0.000000 
		0.500000	0.500000	0.500000	0.000000 
		0.468295	0.434386	0.500000	0.000000 
		0.500000	0.500000	0.500000	0.000000 
		0.500000	0.500000	0.500000	0.000000 
		0.500000	0.500000	0.500000	0.000000 
		0.500000	0.500000	0.500000	0.000000 
		0.500000	0.500000	0.500000	0.000000 
		0.468295	0.434386	0.500000	0.000000 
		0.500000	0.500000	0.500000	0.000000 
		0.468295	0.434386	0.500000	0.000000 
		0.468295	0.434386	0.500000	0.000000 
		0.468295	0.434386	0.500000	0.000000 
		0.500000	0.500000	0.500000	0.000000 
		0.500000	0.500000	0.500000	0.000000 
		0.500000	0.500000	0.500000	0.000000 
		0.500000	0.500000	0.500000	0.000000 
		0.500000	0.500000	0.500000	0.000000 
		0.500000	0.500000	0.500000	0.000000 
		0.500000	0.500000	0.500000	0.000000 
		0.500000	0.500000	0.500000	0.000000 
		0.500000	0.500000	0.500000	0.000000 
		0.500000	0.500000	0.500000	0.000000 
		0.500000	0.500000	0.500000	0.000000 
		0.500000	0.540787	0.500000	0.000000 
		0.500000	0.540787	0.500000	0.000000 
		0.500000	0.500000	0.500000	0.000000 
		0.500000	0.500000	0.500000	0.000000 
		0.500000	0.540787	0.500000	0.000000 
		0.500000	0.540787	0.500000	0.000000 
		0.500000	0.500000	0.500000	0.000000 
		0.500000	0.500000	0.500000	0.000000 
		0.500000	0.500000	0.500000	0.000000 
		0.468295	0.434386	0.500000	0.000000 
		0.500000	0.500000	0.500000	0.000000 
		0.500000	0.500000	0.500000	0.000000 
		0.500000	0.500000	0.500000	0.000000 
		0.390781	0.500000	0.500000	0.000000 
		0.500000	0.500000	0.500000	0.000000 
		0.372552	0.500000	0.500000	0.000000 
		0.353980	0.500000	0.500000	0.000000 
		0.353980	0.500000	0.500000	0.000000 
		0.417163	0.433061	0.500000	0.003922 
		0.500000	0.514459	0.500000	0.000000 
		0.500000	0.516498	0.500000	0.000000 
		0.388532	0.500000	0.500000	0.000000 
		0.372552	0.500000	0.500000	0.000000 
		0.500000	0.514459	0.500000	0.000000 
		0.500000	0.568285	0.500000	0.000000 
		0.500000	0.516498	0.500000	0.000000 
		0.500000	0.568285	0.500000	0.000000 
		0.500000	0.516498	0.500000	0.000000 
		0.438668	0.500000	0.500000	0.000000 
		0.500000	0.500000	0.500000	0.000000 
		0.500000	0.500000	0.500000	0.000000 
		0.438668	0.500000	0.500000	0.000000 
		0.434868	0.500000	0.500000	0.000000 
		0.500000	0.500000	0.500000	0.000000 
		0.438668	0.500000	0.500000	0.000000 
		0.353980	0.500000	0.500000	0.000000 
		0.500000	0.500000	0.500000	0.000000 
		0.353980	0.500000	0.500000	0.000000 
		0.378958	0.500000	0.500000	0.000000 
		0.500000	0.500000	0.500000	0.000000 
		0.500000	0.500000	0.500000	0.000000 
		0.353980	0.500000	0.500000	0.000000 
		0.353980	0.500000	0.500000	0.000000 
		0.500000	0.500000	0.500000	0.000000 
		0.500000	0.500000	0.500000	0.000000 
		0.434868	0.500000	0.500000	0.000000 
		0.397118	0.500000	0.500000	0.000000 
		0.500000	0.500000	0.500000	0.000000 
		0.500000	0.500000	0.500000	0.000000 
		0.397118	0.500000	0.500000	0.000000 
		0.397118	0.500000	0.500000	0.000000 
		0.500000	0.500000	0.500000	0.000000 
		0.397118	0.500000	0.500000	0.000000 
		0.397118	0.500000	0.500000	0.000000 
		0.500000	0.500000	0.500000	0.000000 
		0.500000	0.500000	0.500000	0.000000 
		0.397118	0.500000	0.500000	0.000000 
		0.397118	0.500000	0.500000	0.000000 
		0.500000	0.500000	0.500000	0.000000 
		0.500000	0.500000	0.500000	0.000000 
		0.427870	0.500000	0.500000	0.000000 
		0.422874	0.500000	0.500000	0.000000 
		0.500000	0.500000	0.500000	0.000000 
		0.500000	0.500000	0.500000	0.000000 
		0.397118	0.500000	0.500000	0.000000 
		0.378958	0.500000	0.500000	0.000000 
		0.500000	0.500000	0.500000	0.000000 
		0.378958	0.500000	0.500000	0.000000 
		0.427870	0.500000	0.500000	0.000000 
		0.500000	0.500000	0.500000	0.000000 
		0.500000	0.500000	0.500000	0.000000 
		0.500000	0.500000	0.500000	0.000000 
		0.500000	0.500000	0.500000	0.000000 
		0.500000	0.500000	0.500000	0.000000 
		0.500000	0.500000	0.500000	0.000000 
		0.500000	0.500000	0.500000	0.000000 
		0.500000	0.500000	0.500000	0.000000 
		0.500000	0.500000	0.500000	0.000000 
		0.500000	0.500000	0.500000	0.000000 
		0.500000	0.500000	0.500000	0.000000 
		0.422874	0.500000	0.500000	0.000000 
		0.500000	0.500000	0.500000	0.000000 
		0.422874	0.500000	0.500000	0.000000 
		0.422874	0.500000	0.500000	0.000000 
		0.438668	0.500000	0.500000	0.000000 
		0.500000	0.500000	0.500000	0.000000 
		0.438668	0.500000	0.500000	0.000000 
		0.438668	0.500000	0.500000	0.000000 
		0.500000	0.500000	0.500000	0.000000 
		0.500000	0.500000	0.500000	0.000000 
		0.500000	0.500000	0.500000	0.000000 
		0.500000	0.500000	0.500000	0.000000 
		0.578959	0.500000	0.448526	0.000000 
		0.500000	0.500000	0.500000	0.000000 
		0.500000	0.500000	0.500000	0.000000 
		0.500000	0.500000	0.500000	0.000000 
		0.500000	0.559334	0.590730	0.000000 
		0.500000	0.500000	0.500000	0.000000 
		0.719287	0.459300	0.668170	0.000000 
		0.500000	0.559334	0.549734	0.000000 
		0.500000	0.500000	0.408246	0.000000 
		0.500000	0.500000	0.500000	0.000000 
		0.500000	0.500000	0.500000	0.000000 
		0.500000	0.615076	0.500000	0.000000 
		0.500000	0.500000	0.408246	0.000000 
		0.500000	0.559334	0.549734	0.000000 
		0.500000	0.559334	0.590730	0.000000 
		0.500000	0.559334	0.549734	0.000000 
		0.438668	0.500000	0.500000	0.000000 
		0.500000	0.500000	0.500000	0.000000 
		0.500000	0.500000	0.500000	0.000000 
		0.422874	0.500000	0.500000	0.000000 
		0.500000	0.500000	0.500000	0.000000 
		0.500000	0.500000	0.500000	0.000000 
		0.500000	0.559334	0.590730	0.000000 
		0.500000	0.540787	0.500000	0.000000 
		0.500000	0.540787	0.500000	0.000000 
		0.500000	0.574803	0.500000	0.000000 
		0.500000	0.615076	0.500000	0.000000 
		0.500000	0.500000	0.500000	0.000000 
		0.378958	0.500000	0.500000	0.000000 
		0.500000	0.568285	0.500000	0.000000 
		0.500000	0.500000	0.500000	0.000000 
		0.500000	0.500000	0.500000	0.000000 
		0.500000	0.540787	0.500000	0.000000 
		0.500000	0.540787	0.500000	0.000000 
		0.500000	0.500000	0.500000	0.000000 
		0.500000	0.500000	0.500000	0.000000 
		0.500000	0.500000	0.500000	0.000000 
		0.500000	0.500000	0.500000	0.000000 
		0.500000	0.500000	0.473787	0.000000 
		0.500000	0.500000	0.473787	0.000000 
		0.500000	0.500000	0.408246	0.000000 
		0.500000	0.500000	0.408246	0.000000 
	}

	Tex0 193 { 
		0.259766	0.695313 
		0.079102	0.697266 
		0.079102	0.614258 
		0.259766	0.614258 
		0.061523	0.356445 
		0.046875	0.355469 
		0.054688	0.320313 
		0.072266	0.320313 
		0.508789	0.460938 
		0.448242	0.460938 
		0.514648	0.387695 
		0.362305	0.393555 
		0.624023	0.388672 
		0.605469	0.458984 
		0.686523	0.400391 
		0.717773	0.451172 
		0.129883	0.793945 
		0.207031	0.959961 
		0.486328	0.959961 
		0.486328	0.825195 
		0.447266	0.463867 
		0.508789	0.466797 
		0.356445	0.168945 
		0.356445	0.178711 
		0.492188	0.179688 
		0.833984	0.375977 
		0.833984	0.383789 
		0.758789	0.394531 
		0.764648	0.383789 
		0.958008	0.349609 
		0.949219	0.358398 
		0.694336	0.383789 
		0.630859	0.370117 
		0.361328	0.380859 
		0.520508	0.348633 
		0.971680	0.309570 
		0.843750	0.279297 
		0.959961	0.276367 
		0.970703	0.320313 
		0.815430	0.318359 
		0.674805	0.297852 
		0.697266	0.333984 
		0.718750	0.342773 
		0.782227	0.339844 
		0.745117	0.345703 
		0.077148	0.309570 
		0.135742	0.315430 
		0.149414	0.333984 
		0.178711	0.347656 
		0.160156	0.379883 
		0.216797	0.346680 
		0.243164	0.375977 
		0.289063	0.300781 
		0.357422	0.371094 
		0.260742	0.328125 
		0.712891	0.457031 
		0.718750	0.454102 
		0.605469	0.464844 
		0.510742	0.009766 
		0.435547	0.009766 
		0.451172	0.113281 
		0.510742	0.114258 
		0.608398	0.009766 
		0.608398	0.117188 
		0.717773	0.123047 
		0.711914	0.009766 
		0.165039	0.174805 
		0.165039	0.182617 
		0.245117	0.180664 
		0.247070	0.176758 
		0.051758	0.179688 
		0.954102	0.167969 
		0.952148	0.167969 
		0.828125	0.170898 
		0.767578	0.169922 
		0.765625	0.168945 
		0.165039	0.127930 
		0.252930	0.146484 
		0.054688	0.095703 
		0.165039	0.122070 
		0.049805	0.091797 
		0.253906	0.140625 
		0.245117	0.028320 
		0.162109	0.028320 
		0.049805	0.028320 
		0.281250	0.668945 
		0.262695	0.590820 
		0.274414	0.738281 
		0.041992	0.091797 
		0.035156	0.085938 
		0.263672	0.714844 
		0.262695	0.747070 
		0.262695	0.706055 
		0.256836	0.590820 
		0.042969	0.697266 
		0.044922	0.593750 
		0.257813	0.704102 
		0.041992	0.705078 
		0.482422	0.746094 
		0.271484	0.732422 
		0.269531	0.741211 
		0.482422	0.753906 
		0.077148	0.593750 
		0.258789	0.593750 
		0.041016	0.175781 
		0.060547	0.364258 
		0.046875	0.359375 
		0.032227	0.028320 
		0.057617	0.309570 
		0.123047	0.281250 
		0.019531	0.089844 
		0.031250	0.077148 
		0.005859	0.087891 
		0.005859	0.076172 
		0.002930	0.007813 
		0.029297	0.010742 
		0.023438	0.172852 
		0.044922	0.172852 
		0.228516	0.581055 
		0.268555	0.581055 
		0.267578	0.520508 
		0.226563	0.520508 
		0.047852	0.581055 
		0.049805	0.520508 
		0.032227	0.308594 
		0.032227	0.283203 
		0.486328	0.581055 
		0.486328	0.519531 
		0.482422	0.592773 
		0.551758	0.715820 
		0.928711	0.713867 
		0.958984	0.623047 
		0.551758	0.623047 
		0.952148	0.010742 
		0.828125	0.010742 
		0.767578	0.010742 
		0.708008	0.461914 
		0.759766	0.396484 
		0.523438	0.950195 
		0.835938	0.941406 
		0.905273	0.810547 
		0.523438	0.821289 
		0.949219	0.591797 
		0.950195	0.583008 
		0.552734	0.584961 
		0.552734	0.592773 
		0.944336	0.708984 
		0.955078	0.676758 
		0.959961	0.606445 
		0.551758	0.608398 
		0.982422	0.279297 
		0.982422	0.307617 
		0.953125	0.584961 
		0.941406	0.517578 
		0.551758	0.517578 
		0.260742	0.458984 
		0.306641	0.266602 
		0.666016	0.267578 
		0.353516	0.162109 
		0.306641	0.028320 
		0.669922	0.041016 
		0.302734	0.035156 
		0.285156	0.217773 
		0.676758	0.217773 
		0.127930	0.020508 
		0.011719	0.500000 
		0.127930	0.217773 
		0.028320	0.018555 
		0.025391	0.213867 
		0.968750	0.023438 
		0.846680	0.024414 
		0.846680	0.217773 
		0.988281	0.500000 
		0.988281	0.038086 
		0.019531	0.291992 
		0.015625	0.291016 
		0.029297	0.284180 
		0.669922	0.958984 
		0.676758	0.782227 
		0.285156	0.782227 
		0.302734	0.964844 
		0.127930	0.979492 
		0.127930	0.782227 
		0.025391	0.786133 
		0.028320	0.981445 
		0.968750	0.976563 
		0.846680	0.782227 
		0.846680	0.975586 
		0.988281	0.961914 
		0.750000	0.615234 
		0.936523	0.615234 
		0.936523	0.660156 
		0.750000	0.660156 
	}

	Tex1 0 
	Adj 516 { 
		P 0 
		N 0 
		C0 0 
		T0 0 
		P 1 
		N 0 
		C0 1 
		T0 1 
		P 2 
		N 0 
		C0 2 
		T0 2 
		P 3 
		N 0 
		C0 3 
		T0 3 
		P 4 
		N 1 
		C0 4 
		T0 0 
		P 5 
		N 1 
		C0 5 
		T0 3 
		P 6 
		N 1 
		C0 6 
		T0 2 
		P 7 
		N 1 
		C0 7 
		T0 1 
		P 8 
		N 2 
		C0 8 
		T0 4 
		P 0 
		N 2 
		C0 9 
		T0 5 
		P 3 
		N 2 
		C0 10 
		T0 6 
		P 9 
		N 2 
		C0 11 
		T0 7 
		P 10 
		N 3 
		C0 12 
		T0 4 
		P 11 
		N 3 
		C0 13 
		T0 7 
		P 5 
		N 3 
		C0 14 
		T0 6 
		P 4 
		N 3 
		C0 15 
		T0 5 
		P 12 
		N 4 
		C0 16 
		T0 8 
		P 13 
		N 5 
		C0 17 
		T0 9 
		P 14 
		N 6 
		C0 18 
		T0 10 
		P 15 
		N 7 
		C0 19 
		T0 11 
		P 16 
		N 8 
		C0 20 
		T0 12 
		P 17 
		N 9 
		C0 21 
		T0 13 
		P 18 
		N 10 
		C0 22 
		T0 14 
		P 19 
		N 11 
		C0 23 
		T0 15 
		P 15 
		N 12 
		C0 24 
		T0 16 
		P 20 
		N 12 
		C0 25 
		T0 17 
		P 21 
		N 13 
		C0 26 
		T0 18 
		P 22 
		N 13 
		C0 27 
		T0 19 
		P 20 
		N 14 
		C0 28 
		T0 20 
		P 23 
		N 15 
		C0 29 
		T0 21 
		P 24 
		N 16 
		C0 30 
		T0 22 
		P 25 
		N 17 
		C0 31 
		T0 23 
		P 26 
		N 18 
		C0 32 
		T0 24 
		P 27 
		N 19 
		C0 33 
		T0 25 
		P 28 
		N 20 
		C0 34 
		T0 26 
		P 29 
		N 21 
		C0 35 
		T0 27 
		P 30 
		N 22 
		C0 36 
		T0 28 
		P 31 
		N 23 
		C0 37 
		T0 29 
		P 32 
		N 24 
		C0 38 
		T0 30 
		P 33 
		N 10 
		C0 39 
		T0 31 
		P 34 
		N 25 
		C0 40 
		T0 32 
		P 24 
		N 26 
		C0 41 
		T0 33 
		P 26 
		N 27 
		C0 42 
		T0 34 
		P 35 
		N 28 
		C0 43 
		T0 35 
		P 36 
		N 29 
		C0 44 
		T0 36 
		P 37 
		N 30 
		C0 45 
		T0 37 
		P 38 
		N 31 
		C0 46 
		T0 38 
		P 31 
		N 32 
		C0 47 
		T0 29 
		P 27 
		N 32 
		C0 48 
		T0 25 
		P 39 
		N 33 
		C0 49 
		T0 39 
		P 40 
		N 34 
		C0 50 
		T0 40 
		P 41 
		N 35 
		C0 51 
		T0 41 
		P 42 
		N 36 
		C0 52 
		T0 42 
		P 33 
		N 36 
		C0 53 
		T0 31 
		P 30 
		N 37 
		C0 54 
		T0 28 
		P 43 
		N 38 
		C0 55 
		T0 43 
		P 44 
		N 39 
		C0 56 
		T0 44 
		P 45 
		N 40 
		C0 57 
		T0 45 
		P 46 
		N 41 
		C0 58 
		T0 46 
		P 47 
		N 42 
		C0 59 
		T0 7 
		P 48 
		N 43 
		C0 60 
		T0 47 
		P 49 
		N 44 
		C0 61 
		T0 4 
		P 50 
		N 45 
		C0 62 
		T0 48 
		P 51 
		N 46 
		C0 63 
		T0 49 
		P 52 
		N 37 
		C0 64 
		T0 50 
		P 53 
		N 47 
		C0 65 
		T0 51 
		P 54 
		N 48 
		C0 66 
		T0 52 
		P 25 
		N 33 
		C0 67 
		T0 53 
		P 55 
		N 49 
		C0 68 
		T0 54 
		P 56 
		N 50 
		C0 69 
		T0 55 
		P 57 
		N 51 
		C0 70 
		T0 56 
		P 58 
		N 52 
		C0 71 
		T0 57 
		P 59 
		N 53 
		C0 72 
		T0 58 
		P 21 
		N 54 
		C0 73 
		T0 59 
		P 20 
		N 14 
		C0 74 
		T0 60 
		P 23 
		N 15 
		C0 75 
		T0 61 
		P 60 
		N 55 
		C0 76 
		T0 62 
		P 58 
		N 52 
		C0 77 
		T0 63 
		P 56 
		N 50 
		C0 78 
		T0 64 
		P 61 
		N 56 
		C0 79 
		T0 65 
		P 62 
		N 57 
		C0 80 
		T0 66 
		P 51 
		N 58 
		C0 81 
		T0 67 
		P 53 
		N 59 
		C0 82 
		T0 68 
		P 63 
		N 60 
		C0 83 
		T0 69 
		P 64 
		N 61 
		C0 84 
		T0 70 
		P 32 
		N 24 
		C0 85 
		T0 71 
		P 65 
		N 62 
		C0 86 
		T0 72 
		P 66 
		N 63 
		C0 87 
		T0 73 
		P 28 
		N 20 
		C0 88 
		T0 73 
		P 67 
		N 64 
		C0 89 
		T0 74 
		P 29 
		N 21 
		C0 90 
		T0 75 
		P 68 
		N 65 
		C0 91 
		T0 76 
		P 69 
		N 66 
		C0 92 
		T0 77 
		P 70 
		N 67 
		C0 93 
		T0 78 
		P 68 
		N 68 
		C0 94 
		T0 76 
		P 71 
		N 68 
		C0 95 
		T0 79 
		P 72 
		N 67 
		C0 96 
		T0 80 
		P 69 
		N 69 
		C0 97 
		T0 77 
		P 73 
		N 69 
		C0 98 
		T0 81 
		P 71 
		N 70 
		C0 99 
		T0 79 
		P 73 
		N 71 
		C0 100 
		T0 81 
		P 74 
		N 72 
		C0 101 
		T0 82 
		P 75 
		N 73 
		C0 102 
		T0 83 
		P 72 
		N 74 
		C0 103 
		T0 80 
		P 76 
		N 75 
		C0 104 
		T0 84 
		P 70 
		N 76 
		C0 105 
		T0 78 
		P 64 
		N 76 
		C0 106 
		T0 70 
		P 77 
		N 77 
		C0 107 
		T0 85 
		P 78 
		N 77 
		C0 108 
		T0 86 
		P 79 
		N 77 
		C0 109 
		T0 87 
		P 80 
		N 78 
		C0 110 
		T0 88 
		P 81 
		N 79 
		C0 111 
		T0 89 
		P 79 
		N 80 
		C0 112 
		T0 87 
		P 80 
		N 78 
		C0 113 
		T0 90 
		P 81 
		N 79 
		C0 114 
		T0 91 
		P 82 
		N 81 
		C0 115 
		T0 92 
		P 78 
		N 82 
		C0 116 
		T0 86 
		P 83 
		N 82 
		C0 117 
		T0 93 
		P 84 
		N 83 
		C0 118 
		T0 1 
		P 82 
		N 84 
		C0 119 
		T0 94 
		P 83 
		N 85 
		C0 120 
		T0 95 
		P 85 
		N 85 
		C0 121 
		T0 2 
		P 86 
		N 86 
		C0 122 
		T0 0 
		P 87 
		N 86 
		C0 123 
		T0 96 
		P 80 
		N 87 
		C0 124 
		T0 97 
		P 88 
		N 88 
		C0 125 
		T0 98 
		P 79 
		N 80 
		C0 126 
		T0 99 
		P 81 
		N 79 
		C0 127 
		T0 100 
		P 89 
		N 89 
		C0 128 
		T0 101 
		P 90 
		N 90 
		C0 129 
		T0 102 
		P 91 
		N 91 
		C0 130 
		T0 103 
		P 92 
		N 91 
		C0 131 
		T0 3 
		P 80 
		N 92 
		C0 132 
		T0 88 
		P 87 
		N 92 
		C0 133 
		T0 104 
		P 64 
		N 93 
		C0 134 
		T0 105 
		P 87 
		N 94 
		C0 135 
		T0 106 
		P 86 
		N 95 
		C0 136 
		T0 5 
		P 89 
		N 89 
		C0 137 
		T0 107 
		P 91 
		N 96 
		C0 138 
		T0 108 
		P 92 
		N 97 
		C0 139 
		T0 6 
		P 93 
		N 98 
		C0 140 
		T0 109 
		P 78 
		N 99 
		C0 141 
		T0 110 
		P 94 
		N 99 
		C0 142 
		T0 88 
		P 95 
		N 100 
		C0 143 
		T0 111 
		P 83 
		N 101 
		C0 144 
		T0 112 
		P 90 
		N 100 
		C0 145 
		T0 113 
		P 91 
		N 96 
		C0 146 
		T0 114 
		P 96 
		N 102 
		C0 147 
		T0 115 
		P 97 
		N 53 
		C0 148 
		T0 116 
		P 98 
		N 53 
		C0 149 
		T0 117 
		P 95 
		N 103 
		C0 150 
		T0 118 
		P 94 
		N 104 
		C0 151 
		T0 119 
		P 99 
		N 104 
		C0 152 
		T0 120 
		P 100 
		N 103 
		C0 153 
		T0 121 
		P 96 
		N 102 
		C0 154 
		T0 122 
		P 101 
		N 105 
		C0 155 
		T0 123 
		P 96 
		N 102 
		C0 156 
		T0 124 
		P 101 
		N 105 
		C0 157 
		T0 125 
		P 98 
		N 106 
		C0 158 
		T0 126 
		P 102 
		N 106 
		C0 159 
		T0 127 
		P 79 
		N 107 
		C0 160 
		T0 99 
		P 88 
		N 108 
		C0 161 
		T0 98 
		P 97 
		N 108 
		C0 162 
		T0 128 
		P 78 
		N 107 
		C0 163 
		T0 103 
		P 86 
		N 0 
		C0 164 
		T0 0 
		P 84 
		N 0 
		C0 165 
		T0 1 
		P 85 
		N 0 
		C0 166 
		T0 2 
		P 92 
		N 0 
		C0 167 
		T0 3 
		P 51 
		N 109 
		C0 168 
		T0 49 
		P 103 
		N 110 
		C0 169 
		T0 129 
		P 65 
		N 110 
		C0 170 
		T0 130 
		P 38 
		N 110 
		C0 171 
		T0 131 
		P 104 
		N 110 
		C0 172 
		T0 132 
		P 103 
		N 111 
		C0 173 
		T0 133 
		P 105 
		N 112 
		C0 174 
		T0 134 
		P 106 
		N 113 
		C0 175 
		T0 135 
		P 61 
		N 56 
		C0 176 
		T0 136 
		P 107 
		N 114 
		C0 177 
		T0 55 
		P 67 
		N 64 
		C0 178 
		T0 137 
		P 107 
		N 115 
		C0 179 
		T0 138 
		P 57 
		N 115 
		C0 180 
		T0 139 
		P 67 
		N 115 
		C0 181 
		T0 140 
		P 106 
		N 115 
		C0 182 
		T0 141 
		P 35 
		N 113 
		C0 183 
		T0 142 
		P 108 
		N 113 
		C0 184 
		T0 143 
		P 109 
		N 113 
		C0 185 
		T0 144 
		P 110 
		N 113 
		C0 186 
		T0 145 
		P 32 
		N 110 
		C0 187 
		T0 146 
		P 31 
		N 110 
		C0 188 
		T0 147 
		P 35 
		N 110 
		C0 189 
		T0 148 
		P 110 
		N 110 
		C0 190 
		T0 149 
		P 111 
		N 116 
		C0 191 
		T0 150 
		P 108 
		N 116 
		C0 192 
		T0 151 
		P 109 
		N 117 
		C0 193 
		T0 144 
		P 108 
		N 117 
		C0 194 
		T0 152 
		P 111 
		N 117 
		C0 195 
		T0 153 
		P 112 
		N 117 
		C0 196 
		T0 154 
		P 41 
		N 118 
		C0 197 
		T0 155 
		P 40 
		N 118 
		C0 198 
		T0 155 
		P 113 
		N 118 
		C0 199 
		T0 155 
		P 114 
		N 118 
		C0 200 
		T0 155 
		P 42 
		N 119 
		C0 201 
		T0 155 
		P 41 
		N 119 
		C0 202 
		T0 155 
		P 114 
		N 119 
		C0 203 
		T0 155 
		P 43 
		N 120 
		C0 204 
		T0 155 
		P 44 
		N 120 
		C0 205 
		T0 155 
		P 115 
		N 120 
		C0 206 
		T0 155 
		P 39 
		N 121 
		C0 207 
		T0 155 
		P 43 
		N 121 
		C0 208 
		T0 155 
		P 115 
		N 121 
		C0 209 
		T0 155 
		P 116 
		N 121 
		C0 210 
		T0 155 
		P 44 
		N 122 
		C0 211 
		T0 155 
		P 42 
		N 122 
		C0 212 
		T0 155 
		P 114 
		N 122 
		C0 213 
		T0 155 
		P 115 
		N 122 
		C0 214 
		T0 155 
		P 50 
		N 123 
		C0 215 
		T0 155 
		P 48 
		N 123 
		C0 216 
		T0 155 
		P 117 
		N 123 
		C0 217 
		T0 155 
		P 118 
		N 123 
		C0 218 
		T0 155 
		P 52 
		N 124 
		C0 219 
		T0 155 
		P 50 
		N 124 
		C0 220 
		T0 155 
		P 118 
		N 124 
		C0 221 
		T0 155 
		P 55 
		N 125 
		C0 222 
		T0 155 
		P 52 
		N 125 
		C0 223 
		T0 155 
		P 118 
		N 125 
		C0 224 
		T0 155 
		P 119 
		N 125 
		C0 225 
		T0 155 
		P 48 
		N 126 
		C0 226 
		T0 155 
		P 46 
		N 126 
		C0 227 
		T0 155 
		P 120 
		N 126 
		C0 228 
		T0 155 
		P 117 
		N 126 
		C0 229 
		T0 155 
		P 54 
		N 127 
		C0 230 
		T0 155 
		P 55 
		N 127 
		C0 231 
		T0 155 
		P 119 
		N 127 
		C0 232 
		T0 155 
		P 121 
		N 127 
		C0 233 
		T0 155 
		P 36 
		N 128 
		C0 234 
		T0 155 
		P 39 
		N 128 
		C0 235 
		T0 155 
		P 116 
		N 128 
		C0 236 
		T0 155 
		P 46 
		N 129 
		C0 237 
		T0 155 
		P 93 
		N 129 
		C0 238 
		T0 155 
		P 120 
		N 129 
		C0 239 
		T0 155 
		P 118 
		N 130 
		C0 240 
		T0 155 
		P 117 
		N 130 
		C0 241 
		T0 155 
		P 120 
		N 130 
		C0 242 
		T0 155 
		P 121 
		N 130 
		C0 243 
		T0 155 
		P 119 
		N 130 
		C0 244 
		T0 155 
		P 115 
		N 130 
		C0 245 
		T0 155 
		P 114 
		N 130 
		C0 246 
		T0 155 
		P 113 
		N 131 
		C0 247 
		T0 155 
		P 116 
		N 132 
		C0 248 
		T0 155 
		P 122 
		N 133 
		C0 249 
		T0 155 
		P 54 
		N 133 
		C0 250 
		T0 155 
		P 121 
		N 133 
		C0 251 
		T0 155 
		P 122 
		N 134 
		C0 252 
		T0 156 
		P 123 
		N 135 
		C0 253 
		T0 157 
		P 113 
		N 136 
		C0 254 
		T0 155 
		P 40 
		N 34 
		C0 255 
		T0 155 
		P 123 
		N 135 
		C0 256 
		T0 155 
		P 24 
		N 26 
		C0 257 
		T0 22 
		P 15 
		N 7 
		C0 258 
		T0 158 
		P 15 
		N 137 
		C0 259 
		T0 158 
		P 22 
		N 138 
		C0 260 
		T0 159 
		P 124 
		N 139 
		C0 261 
		T0 8 
		P 125 
		N 140 
		C0 262 
		T0 10 
		P 126 
		N 141 
		C0 263 
		T0 9 
		P 127 
		N 142 
		C0 264 
		T0 11 
		P 128 
		N 143 
		C0 265 
		T0 13 
		P 129 
		N 144 
		C0 266 
		T0 12 
		P 130 
		N 145 
		C0 267 
		T0 15 
		P 131 
		N 146 
		C0 268 
		T0 14 
		P 127 
		N 147 
		C0 269 
		T0 16 
		P 132 
		N 147 
		C0 270 
		T0 17 
		P 132 
		N 148 
		C0 271 
		T0 20 
		P 133 
		N 149 
		C0 272 
		T0 21 
		P 134 
		N 150 
		C0 273 
		T0 22 
		P 135 
		N 151 
		C0 274 
		T0 24 
		P 136 
		N 152 
		C0 275 
		T0 23 
		P 137 
		N 153 
		C0 276 
		T0 25 
		P 138 
		N 154 
		C0 277 
		T0 28 
		P 139 
		N 155 
		C0 278 
		T0 27 
		P 140 
		N 156 
		C0 279 
		T0 26 
		P 141 
		N 157 
		C0 280 
		T0 30 
		P 142 
		N 158 
		C0 281 
		T0 29 
		P 143 
		N 146 
		C0 282 
		T0 31 
		P 144 
		N 159 
		C0 283 
		T0 32 
		P 134 
		N 160 
		C0 284 
		T0 33 
		P 135 
		N 161 
		C0 285 
		T0 34 
		P 145 
		N 162 
		C0 286 
		T0 35 
		P 146 
		N 163 
		C0 287 
		T0 37 
		P 147 
		N 164 
		C0 288 
		T0 36 
		P 148 
		N 165 
		C0 289 
		T0 38 
		P 149 
		N 166 
		C0 290 
		T0 39 
		P 137 
		N 167 
		C0 291 
		T0 25 
		P 142 
		N 167 
		C0 292 
		T0 29 
		P 150 
		N 168 
		C0 293 
		T0 40 
		P 151 
		N 169 
		C0 294 
		T0 41 
		P 143 
		N 170 
		C0 295 
		T0 31 
		P 152 
		N 170 
		C0 296 
		T0 42 
		P 138 
		N 171 
		C0 297 
		T0 28 
		P 153 
		N 172 
		C0 298 
		T0 43 
		P 154 
		N 173 
		C0 299 
		T0 44 
		P 155 
		N 174 
		C0 300 
		T0 45 
		P 156 
		N 175 
		C0 301 
		T0 7 
		P 157 
		N 176 
		C0 302 
		T0 46 
		P 158 
		N 177 
		C0 303 
		T0 47 
		P 159 
		N 178 
		C0 304 
		T0 4 
		P 160 
		N 179 
		C0 305 
		T0 48 
		P 161 
		N 180 
		C0 306 
		T0 49 
		P 162 
		N 171 
		C0 307 
		T0 50 
		P 163 
		N 181 
		C0 308 
		T0 51 
		P 164 
		N 182 
		C0 309 
		T0 52 
		P 165 
		N 183 
		C0 310 
		T0 54 
		P 136 
		N 166 
		C0 311 
		T0 53 
		P 166 
		N 184 
		C0 312 
		T0 55 
		P 167 
		N 185 
		C0 313 
		T0 56 
		P 168 
		N 186 
		C0 314 
		T0 57 
		P 133 
		N 149 
		C0 315 
		T0 61 
		P 132 
		N 148 
		C0 316 
		T0 60 
		P 166 
		N 184 
		C0 317 
		T0 64 
		P 168 
		N 186 
		C0 318 
		T0 63 
		P 169 
		N 187 
		C0 319 
		T0 66 
		P 170 
		N 188 
		C0 320 
		T0 69 
		P 163 
		N 189 
		C0 321 
		T0 68 
		P 161 
		N 190 
		C0 322 
		T0 67 
		P 171 
		N 191 
		C0 323 
		T0 70 
		P 141 
		N 157 
		C0 324 
		T0 71 
		P 140 
		N 156 
		C0 325 
		T0 73 
		P 172 
		N 192 
		C0 326 
		T0 73 
		P 173 
		N 193 
		C0 327 
		T0 72 
		P 139 
		N 155 
		C0 328 
		T0 75 
		P 174 
		N 194 
		C0 329 
		T0 74 
		P 175 
		N 195 
		C0 330 
		T0 76 
		P 176 
		N 196 
		C0 331 
		T0 77 
		P 177 
		N 197 
		C0 332 
		T0 78 
		P 178 
		N 197 
		C0 333 
		T0 80 
		P 179 
		N 198 
		C0 334 
		T0 79 
		P 175 
		N 198 
		C0 335 
		T0 76 
		P 180 
		N 199 
		C0 336 
		T0 81 
		P 176 
		N 199 
		C0 337 
		T0 77 
		P 179 
		N 200 
		C0 338 
		T0 79 
		P 180 
		N 201 
		C0 339 
		T0 81 
		P 178 
		N 202 
		C0 340 
		T0 80 
		P 171 
		N 203 
		C0 341 
		T0 70 
		P 177 
		N 203 
		C0 342 
		T0 78 
		P 181 
		N 204 
		C0 343 
		T0 85 
		P 182 
		N 204 
		C0 344 
		T0 87 
		P 183 
		N 204 
		C0 345 
		T0 86 
		P 184 
		N 205 
		C0 346 
		T0 88 
		P 185 
		N 206 
		C0 347 
		T0 89 
		P 182 
		N 207 
		C0 348 
		T0 87 
		P 185 
		N 206 
		C0 349 
		T0 91 
		P 184 
		N 205 
		C0 350 
		T0 90 
		P 186 
		N 208 
		C0 351 
		T0 92 
		P 187 
		N 209 
		C0 352 
		T0 93 
		P 183 
		N 209 
		C0 353 
		T0 86 
		P 188 
		N 210 
		C0 354 
		T0 1 
		P 189 
		N 211 
		C0 355 
		T0 2 
		P 187 
		N 211 
		C0 356 
		T0 95 
		P 186 
		N 212 
		C0 357 
		T0 94 
		P 190 
		N 213 
		C0 358 
		T0 0 
		P 184 
		N 214 
		C0 359 
		T0 97 
		P 191 
		N 213 
		C0 360 
		T0 96 
		P 185 
		N 206 
		C0 361 
		T0 100 
		P 182 
		N 207 
		C0 362 
		T0 99 
		P 192 
		N 215 
		C0 363 
		T0 102 
		P 193 
		N 216 
		C0 364 
		T0 3 
		P 194 
		N 216 
		C0 365 
		T0 103 
		P 191 
		N 217 
		C0 366 
		T0 104 
		P 184 
		N 217 
		C0 367 
		T0 88 
		P 171 
		N 218 
		C0 368 
		T0 105 
		P 190 
		N 219 
		C0 369 
		T0 5 
		P 191 
		N 220 
		C0 370 
		T0 106 
		P 194 
		N 221 
		C0 371 
		T0 108 
		P 193 
		N 222 
		C0 372 
		T0 6 
		P 195 
		N 223 
		C0 373 
		T0 109 
		P 183 
		N 224 
		C0 374 
		T0 110 
		P 196 
		N 225 
		C0 375 
		T0 111 
		P 197 
		N 224 
		C0 376 
		T0 88 
		P 187 
		N 226 
		C0 377 
		T0 112 
		P 192 
		N 225 
		C0 378 
		T0 113 
		P 194 
		N 221 
		C0 379 
		T0 114 
		P 198 
		N 227 
		C0 380 
		T0 115 
		P 196 
		N 228 
		C0 381 
		T0 118 
		P 199 
		N 228 
		C0 382 
		T0 121 
		P 200 
		N 229 
		C0 383 
		T0 120 
		P 197 
		N 229 
		C0 384 
		T0 119 
		P 198 
		N 227 
		C0 385 
		T0 122 
		P 201 
		N 230 
		C0 386 
		T0 123 
		P 201 
		N 230 
		C0 387 
		T0 125 
		P 198 
		N 227 
		C0 388 
		T0 124 
		P 182 
		N 231 
		C0 389 
		T0 99 
		P 183 
		N 231 
		C0 390 
		T0 103 
		P 190 
		N 1 
		C0 391 
		T0 0 
		P 193 
		N 1 
		C0 392 
		T0 3 
		P 189 
		N 1 
		C0 393 
		T0 2 
		P 188 
		N 1 
		C0 394 
		T0 1 
		P 161 
		N 232 
		C0 395 
		T0 49 
		P 148 
		N 110 
		C0 396 
		T0 131 
		P 173 
		N 110 
		C0 397 
		T0 130 
		P 174 
		N 194 
		C0 398 
		T0 137 
		P 174 
		N 115 
		C0 399 
		T0 140 
		P 167 
		N 115 
		C0 400 
		T0 139 
		P 145 
		N 113 
		C0 401 
		T0 142 
		P 202 
		N 113 
		C0 402 
		T0 143 
		P 142 
		N 110 
		C0 403 
		T0 147 
		P 141 
		N 110 
		C0 404 
		T0 146 
		P 145 
		N 110 
		C0 405 
		T0 148 
		P 203 
		N 233 
		C0 406 
		T0 150 
		P 202 
		N 233 
		C0 407 
		T0 151 
		P 203 
		N 117 
		C0 408 
		T0 153 
		P 202 
		N 117 
		C0 409 
		T0 152 
		P 151 
		N 234 
		C0 410 
		T0 155 
		P 204 
		N 234 
		C0 411 
		T0 155 
		P 205 
		N 234 
		C0 412 
		T0 155 
		P 150 
		N 234 
		C0 413 
		T0 155 
		P 152 
		N 119 
		C0 414 
		T0 155 
		P 204 
		N 119 
		C0 415 
		T0 155 
		P 151 
		N 119 
		C0 416 
		T0 155 
		P 153 
		N 235 
		C0 417 
		T0 155 
		P 206 
		N 235 
		C0 418 
		T0 155 
		P 154 
		N 235 
		C0 419 
		T0 155 
		P 149 
		N 236 
		C0 420 
		T0 155 
		P 207 
		N 236 
		C0 421 
		T0 155 
		P 206 
		N 236 
		C0 422 
		T0 155 
		P 153 
		N 236 
		C0 423 
		T0 155 
		P 154 
		N 237 
		C0 424 
		T0 155 
		P 206 
		N 237 
		C0 425 
		T0 155 
		P 204 
		N 237 
		C0 426 
		T0 155 
		P 152 
		N 237 
		C0 427 
		T0 155 
		P 160 
		N 238 
		C0 428 
		T0 155 
		P 208 
		N 238 
		C0 429 
		T0 155 
		P 209 
		N 238 
		C0 430 
		T0 155 
		P 158 
		N 238 
		C0 431 
		T0 155 
		P 162 
		N 124 
		C0 432 
		T0 155 
		P 208 
		N 124 
		C0 433 
		T0 155 
		P 160 
		N 124 
		C0 434 
		T0 155 
		P 165 
		N 239 
		C0 435 
		T0 155 
		P 210 
		N 239 
		C0 436 
		T0 155 
		P 208 
		N 239 
		C0 437 
		T0 155 
		P 162 
		N 239 
		C0 438 
		T0 155 
		P 158 
		N 240 
		C0 439 
		T0 155 
		P 209 
		N 240 
		C0 440 
		T0 155 
		P 211 
		N 240 
		C0 441 
		T0 155 
		P 157 
		N 240 
		C0 442 
		T0 155 
		P 164 
		N 241 
		C0 443 
		T0 155 
		P 212 
		N 241 
		C0 444 
		T0 155 
		P 210 
		N 241 
		C0 445 
		T0 155 
		P 165 
		N 241 
		C0 446 
		T0 155 
		P 147 
		N 128 
		C0 447 
		T0 155 
		P 207 
		N 128 
		C0 448 
		T0 155 
		P 149 
		N 128 
		C0 449 
		T0 155 
		P 157 
		N 129 
		C0 450 
		T0 155 
		P 211 
		N 129 
		C0 451 
		T0 155 
		P 195 
		N 129 
		C0 452 
		T0 155 
		P 208 
		N 242 
		C0 453 
		T0 155 
		P 212 
		N 242 
		C0 454 
		T0 155 
		P 211 
		N 242 
		C0 455 
		T0 155 
		P 209 
		N 242 
		C0 456 
		T0 155 
		P 210 
		N 242 
		C0 457 
		T0 155 
		P 206 
		N 242 
		C0 458 
		T0 155 
		P 207 
		N 242 
		C0 459 
		T0 155 
		P 205 
		N 242 
		C0 460 
		T0 155 
		P 204 
		N 242 
		C0 461 
		T0 155 
		P 213 
		N 243 
		C0 462 
		T0 155 
		P 212 
		N 243 
		C0 463 
		T0 155 
		P 164 
		N 243 
		C0 464 
		T0 155 
		P 213 
		N 244 
		C0 465 
		T0 156 
		P 214 
		N 245 
		C0 466 
		T0 157 
		P 205 
		N 246 
		C0 467 
		T0 155 
		P 214 
		N 245 
		C0 468 
		T0 155 
		P 150 
		N 168 
		C0 469 
		T0 155 
		P 127 
		N 142 
		C0 470 
		T0 158 
		P 134 
		N 160 
		C0 471 
		T0 22 
		P 127 
		N 247 
		C0 472 
		T0 158 
		P 123 
		N 248 
		C0 473 
		T0 160 
		P 122 
		N 248 
		C0 474 
		T0 161 
		P 121 
		N 249 
		C0 475 
		T0 162 
		P 113 
		N 131 
		C0 476 
		T0 163 
		P 93 
		N 250 
		C0 477 
		T0 164 
		P 102 
		N 251 
		C0 478 
		T0 165 
		P 120 
		N 252 
		C0 479 
		T0 166 
		P 101 
		N 253 
		C0 480 
		T0 167 
		P 100 
		N 254 
		C0 481 
		T0 168 
		P 37 
		N 255 
		C0 482 
		T0 169 
		P 36 
		N 256 
		C0 483 
		T0 170 
		P 116 
		N 132 
		C0 484 
		T0 171 
		P 112 
		N 257 
		C0 485 
		T0 172 
		P 111 
		N 258 
		C0 486 
		T0 173 
		P 99 
		N 124 
		C0 487 
		T0 174 
		P 102 
		N 124 
		C0 488 
		T0 175 
		P 100 
		N 124 
		C0 489 
		T0 176 
		P 214 
		N 259 
		C0 490 
		T0 177 
		P 205 
		N 259 
		C0 491 
		T0 178 
		P 212 
		N 259 
		C0 492 
		T0 179 
		P 213 
		N 259 
		C0 493 
		T0 180 
		P 195 
		N 260 
		C0 494 
		T0 181 
		P 211 
		N 252 
		C0 495 
		T0 182 
		P 102 
		N 261 
		C0 496 
		T0 165 
		P 199 
		N 262 
		C0 497 
		T0 183 
		P 201 
		N 253 
		C0 498 
		T0 184 
		P 146 
		N 255 
		C0 499 
		T0 185 
		P 112 
		N 263 
		C0 500 
		T0 172 
		P 207 
		N 264 
		C0 501 
		T0 186 
		P 147 
		N 265 
		C0 502 
		T0 187 
		P 203 
		N 258 
		C0 503 
		T0 188 
		P 205 
		N 266 
		C0 504 
		T0 178 
		P 212 
		N 267 
		C0 505 
		T0 179 
		P 200 
		N 124 
		C0 506 
		T0 174 
		P 199 
		N 124 
		C0 507 
		T0 176 
		P 215 
		N 110 
		C0 508 
		T0 189 
		P 216 
		N 110 
		C0 509 
		T0 190 
		P 217 
		N 110 
		C0 510 
		T0 191 
		P 218 
		N 110 
		C0 511 
		T0 192 
		P 219 
		N 110 
		C0 512 
		T0 189 
		P 220 
		N 110 
		C0 513 
		T0 192 
		P 221 
		N 110 
		C0 514 
		T0 191 
		P 222 
		N 110 
		C0 515 
		T0 190 
	}

	Mtl 4 { 
		{
			Name "#2" 
			Priority 32 
			Prim 2 { 
				{
					Type TRISTRIP
					Priority 32 
					Idx 4 { 3 0 2 1 }
				}
				{
					Type TRISTRIP
					Priority 32 
					Idx 4 { 6 7 5 4 }
				}
			}

		}
		{
			Name "#3" 
			Priority 32 
			Prim 77 { 
				{
					Type TRISTRIP
					Priority 32 
					Idx 4 { 10 11 9 8 }
				}
				{
					Type TRISTRIP
					Priority 32 
					Idx 4 { 14 15 13 12 }
				}
				{
					Type TRISTRIP
					Priority 32 
					Idx 6 { 24 25 27 26 269 270 }
				}
				{
					Type TRISTRIP
					Priority 32 
					Idx 11 { 32 30 31 92 83 91 80 105 106 132 133 }
				}
				{
					Type TRISTRIP2
					Priority 32 
					Idx 10 { 110 111 93 96 94 95 97 98 257 258 }
				}
				{
					Type TRISTRIP2
					Priority 32 
					Idx 4 { 167 166 164 165 }
				}
				{
					Type TRISTRIP2
					Priority 32 
					Idx 6 { 195 194 196 193 408 409 }
				}
				{
					Type TRISTRIP2
					Priority 32 
					Idx 4 { 198 197 199 200 }
				}
				{
					Type TRISTRIP2
					Priority 32 
					Idx 4 { 208 207 209 210 }
				}
				{
					Type TRISTRIP2
					Priority 32 
					Idx 4 { 213 212 214 211 }
				}
				{
					Type TRISTRIP2
					Priority 32 
					Idx 4 { 216 215 217 218 }
				}
				{
					Type TRISTRIP2
					Priority 32 
					Idx 4 { 224 223 225 222 }
				}
				{
					Type TRISTRIP2
					Priority 32 
					Idx 4 { 227 226 228 229 }
				}
				{
					Type TRISTRIP2
					Priority 32 
					Idx 4 { 231 230 232 233 }
				}
				{
					Type TRISTRIP2
					Priority 32 
					Idx 5 { 242 241 243 240 244 }
				}
				{
					Type TRISTRIP
					Priority 32 
					Idx 6 { 84 81 80 82 83 31 }
				}
				{
					Type TRISTRIP
					Priority 32 
					Idx 6 { 126 127 125 128 362 361 }
				}
				{
					Type TRISTRIP
					Priority 32 
					Idx 6 { 144 141 145 143 146 147 }
				}
				{
					Type TRISTRIP
					Priority 32 
					Idx 14 { 155 154 153 150 152 151 159 158 383 384 382 381 386 385 }
				}
				{
					Type TRISTRIP
					Priority 32 
					Idx 6 { 163 160 162 161 390 389 }
				}
				{
					Type TRISTRIP
					Priority 32 
					Idx 6 { 180 181 179 182 400 399 }
				}
				{
					Type TRISTRIP
					Priority 32 
					Idx 6 { 183 184 186 185 401 402 }
				}
				{
					Type TRISTRIP
					Priority 32 
					Idx 4 { 247 248 246 245 }
				}
				{
					Type TRISTRIP
					Priority 32 
					Idx 4 { 393 394 392 391 }
				}
				{
					Type TRISTRIP
					Priority 32 
					Idx 4 { 412 413 411 410 }
				}
				{
					Type TRISTRIP
					Priority 32 
					Idx 4 { 422 423 421 420 }
				}
				{
					Type TRISTRIP
					Priority 32 
					Idx 4 { 426 427 425 424 }
				}
				{
					Type TRISTRIP
					Priority 32 
					Idx 4 { 430 431 429 428 }
				}
				{
					Type TRISTRIP
					Priority 32 
					Idx 4 { 437 438 436 435 }
				}
				{
					Type TRISTRIP
					Priority 32 
					Idx 4 { 441 442 440 439 }
				}
				{
					Type TRISTRIP
					Priority 32 
					Idx 4 { 445 446 444 443 }
				}
				{
					Type TRISTRIP
					Priority 32 
					Idx 5 { 455 456 454 453 457 }
				}
				{
					Type TRISTRIP2
					Priority 32 
					Idx 11 { 367 366 342 341 330 319 331 320 273 275 274 }
				}
				{
					Type TRISTRIP
					Priority 32 
					Idx 6 { 323 319 322 320 321 275 }
				}
				{
					Type TRISTRIP
					Priority 32 
					Idx 4 { 460 461 459 458 }
				}
				{
					Type TRISTRIP
					Priority 32 
					Idx 13 { 472 339 260 101 259 101 100 102 99 104 103 137 111 }
				}
				{
					Type TRISTRIP2
					Priority 32 
					Idx 8 { 339 101 338 102 340 104 347 137 }
				}
				{
					Type TRISTRIP2
					Priority 32 
					Idx 13 { 395 368 304 370 304 369 301 372 300 371 373 388 387 }
				}
				{
					Type TRISTRIP
					Priority 32 
					Idx 13 { 379 380 378 375 377 375 374 376 148 149 141 142 143 }
				}
				{
					Type TRISTRIP2
					Priority 32 
					Idx 13 { 324 327 325 326 328 326 329 174 175 87 89 88 90 }
				}
				{
					Type TRISTRIP
					Priority 32 
					Idx 8 { 88 85 87 86 174 173 326 327 }
				}
				{
					Type TRISTRIP
					Priority 32 
					Idx 13 { 168 134 61 135 61 136 59 139 57 138 140 156 157 }
				}
				{
					Type TRISTRIP2
					Priority 32 
					Idx 16 { 38 37 34 33 34 36 35 39 22 39 20 40 18 42 19 41 }
				}
				{
					Type TRISTRIP2
					Priority 32 
					Idx 39 { 284 285 264 262 264 263 271 263 272 261 314 265 312 267 312 313 312 177 176 70 69 23 71 21 29 16 28 17 19 17 18 16 20 21 22 23 35 70 178 }
				}
				{
					Type TRISTRIP
					Priority 32 
					Idx 11 { 403 404 396 397 172 169 171 170 171 187 188 }
				}
				{
					Type TRISTRIP2
					Priority 32 
					Idx 7 { 405 190 396 190 172 189 171 }
				}
				{
					Type TRISTRIP
					Priority 32 
					Idx 11 { 317 318 79 76 78 76 77 72 75 73 74 }
				}
				{
					Type TRISTRIP2
					Priority 32 
					Idx 6 { 73 316 72 315 76 318 }
				}
				{
					Type TRISTRIP2
					Priority 32 
					Idx 7 { 353 352 348 351 348 350 349 }
				}
				{
					Type TRISTRIP
					Priority 32 
					Idx 7 { 116 117 112 115 112 113 114 }
				}
				{
					Type TRISTRIP2
					Priority 32 
					Idx 17 { 281 280 276 279 277 278 282 268 283 268 266 268 267 278 267 398 313 }
				}
				{
					Type TRISTRIP
					Priority 32 
					Idx 6 { 263 261 262 265 266 267 }
				}
				{
					Type TRISTRIP
					Priority 32 
					Idx 12 { 470 471 336 337 336 335 334 335 333 332 347 346 }
				}
				{
					Type TRISTRIP
					Priority 32 
					Idx 12 { 130 131 129 121 120 118 119 118 124 118 123 122 }
				}
				{
					Type TRISTRIP
					Priority 32 
					Idx 11 { 407 406 286 287 286 288 289 290 289 291 292 }
				}
				{
					Type TRISTRIP2
					Priority 32 
					Idx 11 { 192 191 43 45 43 44 46 49 46 48 47 }
				}
				{
					Type TRISTRIP
					Priority 32 
					Idx 29 { 49 48 55 54 56 54 52 53 51 40 50 42 66 67 68 67 64 65 64 63 62 63 60 61 58 59 58 57 140 }
				}
				{
					Type TRISTRIP2
					Priority 32 
					Idx 4 { 66 50 252 253 }
				}
				{
					Type TRISTRIP2
					Priority 32 
					Idx 16 { 290 291 298 297 299 297 296 295 294 283 293 283 285 283 262 266 }
				}
				{
					Type TRISTRIP2
					Priority 32 
					Idx 13 { 358 360 354 359 354 357 355 356 355 363 355 365 364 }
				}
				{
					Type TRISTRIP
					Priority 32 
					Idx 22 { 466 465 293 309 285 309 311 310 311 307 308 307 306 305 306 303 304 302 301 302 300 373 }
				}
				{
					Type TRISTRIP
					Priority 32 
					Idx 3 { 109 107 108 }
				}
				{
					Type TRISTRIP2
					Priority 32 
					Idx 3 { 201 203 202 }
				}
				{
					Type TRISTRIP
					Priority 32 
					Idx 3 { 206 204 205 }
				}
				{
					Type TRISTRIP2
					Priority 32 
					Idx 3 { 219 221 220 }
				}
				{
					Type TRISTRIP
					Priority 32 
					Idx 3 { 236 234 235 }
				}
				{
					Type TRISTRIP2
					Priority 32 
					Idx 3 { 237 239 238 }
				}
				{
					Type TRISTRIP
					Priority 32 
					Idx 3 { 251 249 250 }
				}
				{
					Type TRISTRIP2
					Priority 32 
					Idx 3 { 254 256 255 }
				}
				{
					Type TRISTRIP
					Priority 32 
					Idx 3 { 345 343 344 }
				}
				{
					Type TRISTRIP2
					Priority 32 
					Idx 3 { 414 416 415 }
				}
				{
					Type TRISTRIP
					Priority 32 
					Idx 3 { 419 417 418 }
				}
				{
					Type TRISTRIP2
					Priority 32 
					Idx 3 { 432 434 433 }
				}
				{
					Type TRISTRIP
					Priority 32 
					Idx 3 { 449 447 448 }
				}
				{
					Type TRISTRIP2
					Priority 32 
					Idx 3 { 450 452 451 }
				}
				{
					Type TRISTRIP
					Priority 32 
					Idx 3 { 464 462 463 }
				}
				{
					Type TRISTRIP2
					Priority 32 
					Idx 3 { 467 469 468 }
				}
			}

		}
		{
			Name "#4" 
			Priority 32 
			Prim 6 { 
				{
					Type TRISTRIP
					Priority 32 
					Idx 5 { 483 484 482 485 486 }
				}
				{
					Type TRISTRIP2
					Priority 32 
					Idx 4 { 492 491 493 490 }
				}
				{
					Type TRISTRIP2
					Priority 32 
					Idx 11 { 484 485 476 485 475 478 479 478 477 481 480 }
				}
				{
					Type TRISTRIP
					Priority 32 
					Idx 4 { 475 476 474 473 }
				}
				{
					Type TRISTRIP
					Priority 32 
					Idx 17 { 503 500 499 500 502 500 501 500 504 500 505 496 495 496 494 497 498 }
				}
				{
					Type TRISTRIP2
					Priority 32 
					Idx 6 { 487 489 488 488 506 507 }
				}
			}

		}
		{
			Name "#5" 
			Priority 32 
			Prim 2 { 
				{
					Type TRISTRIP
					Priority 32 
					Idx 4 { 511 508 510 509 }
				}
				{
					Type TRISTRIP
					Priority 32 
					Idx 4 { 514 515 513 512 }
				}
			}

		}
	}

	Offset 0 
}
