{
	Skinned 0 
	PosSkin 0 
	Pos 240 { 
		-0.563037	1.202996	1.290544 
		-0.563037	1.370903	1.290544 
		-0.563037	1.370903	-0.544933 
		-0.563037	1.202996	-0.544933 
		0.564403	1.202996	1.290544 
		0.564403	1.202996	-0.544933 
		0.564403	1.370903	-0.544933 
		0.564403	1.370903	1.290544 
		-0.865614	2.137733	10.176955 
		0.000000	2.137733	10.392241 
		0.000000	2.295520	10.470347 
		-0.865614	2.295520	10.201615 
		0.000000	2.453307	10.392241 
		-0.865614	2.453307	10.176955 
		0.865614	2.295520	10.201617 
		0.865614	2.453307	10.176957 
		0.865614	2.137733	10.176957 
		1.066740	2.582382	8.816685 
		1.158171	2.295520	8.816685 
		1.158171	2.295520	0.523937 
		1.066741	2.582382	0.523937 
		1.066741	2.008657	8.816685 
		1.066741	2.008657	0.523937 
		-1.068249	2.582382	8.816685 
		-1.068249	2.582382	0.523937 
		-1.159888	2.295520	0.523937 
		-1.159888	2.295520	8.816685 
		-1.068249	2.008657	0.523937 
		-1.068249	2.008657	8.816685 
		-1.049609	0.785828	10.289078 
		-0.597380	0.785828	10.289078 
		-0.597380	0.953078	10.289078 
		-1.049609	0.953078	10.289078 
		-0.551852	1.438121	-0.637836 
		0.000000	1.305481	-0.637836 
		-0.551852	0.982679	-0.637836 
		-0.551852	0.749754	10.080985 
		-0.551852	0.993122	10.080985 
		-0.551852	0.639161	9.330514 
		0.000000	0.993122	10.080984 
		0.000000	1.305481	10.080985 
		-0.551852	1.438121	10.080985 
		-0.551852	1.438121	5.918865 
		-0.551852	0.639161	6.681166 
		-0.551852	0.274512	6.854960 
		-0.551852	0.274512	9.196327 
		0.551853	0.639161	6.681166 
		0.551853	0.274512	6.854960 
		1.049609	0.785828	10.289078 
		1.049609	0.953078	10.289078 
		0.597380	0.953078	10.289078 
		0.597381	0.785828	10.289078 
		0.551853	1.438121	-0.637836 
		0.551853	0.982679	-0.637836 
		0.551853	0.749754	10.080985 
		0.551853	0.639161	9.330514 
		0.551853	0.993122	10.080985 
		0.551853	1.438121	10.080985 
		0.551853	1.438121	5.918865 
		0.551853	0.274512	9.196327 
		-0.551852	1.057472	1.358490 
		-0.551852	1.438121	1.651844 
		0.551853	1.438121	1.651844 
		0.551853	1.059648	1.358490 
		-1.102066	0.631066	9.231515 
		-0.560797	0.631066	9.231515 
		-0.560797	0.631066	9.326238 
		-1.102066	0.631066	9.326238 
		-1.102066	0.631026	6.879852 
		-0.560797	0.631026	6.879852 
		-0.560797	0.631066	6.998864 
		-1.102066	0.631066	6.998864 
		-1.102066	0.989173	7.311611 
		-0.560797	0.989173	7.311612 
		-0.560797	0.989173	8.945237 
		-1.102066	0.989173	8.945237 
		-1.102066	0.831667	9.148797 
		-0.560797	0.832269	9.148141 
		-1.102066	0.827922	7.105699 
		-0.560797	0.830429	7.108525 
		-1.102066	0.624207	1.400125 
		-0.560748	0.624207	1.400125 
		-0.560748	0.624638	1.492175 
		-1.102066	0.624638	1.492175 
		-1.102066	0.989174	-0.637836 
		-0.560748	0.989174	-0.637836 
		-0.560748	0.989174	1.089382 
		-1.102066	0.989174	1.089382 
		-0.560748	0.840012	1.301659 
		-1.102066	0.840686	1.300938 
		-1.050070	1.060821	1.052612 
		-0.597116	1.060825	1.052612 
		-0.597116	1.060825	1.137540 
		-1.050070	1.060821	1.137540 
		-1.050062	1.230682	1.052612 
		-0.597109	1.230682	1.052612 
		-0.597109	1.230682	1.137540 
		-1.050062	1.230682	1.137540 
		1.102067	0.631066	9.231515 
		1.102067	0.631066	9.326238 
		0.560797	0.631066	9.326238 
		0.560797	0.631066	9.231515 
		1.102067	0.631026	6.879852 
		1.102067	0.631066	6.998864 
		0.560797	0.631066	6.998864 
		0.560798	0.631026	6.879853 
		1.102067	0.989174	7.311611 
		1.102067	0.989174	8.945237 
		0.560798	0.989174	8.945237 
		0.560798	0.989173	7.311612 
		1.102067	0.831667	9.148797 
		0.560797	0.832269	9.148141 
		0.560797	0.830429	7.108525 
		1.102067	0.827922	7.105699 
		1.102067	0.624207	1.400125 
		1.102067	0.624638	1.492175 
		0.560748	0.624638	1.492175 
		0.560748	0.624207	1.400125 
		1.102067	0.989174	-0.637836 
		1.102067	0.989174	1.089382 
		0.560748	0.989174	1.089382 
		0.560748	0.989174	-0.637836 
		1.102067	0.840686	1.300938 
		0.560748	0.840012	1.301659 
		1.050071	1.060821	1.052612 
		1.050071	1.060821	1.137540 
		0.597116	1.060825	1.137540 
		0.597116	1.060825	1.052612 
		1.050063	1.230682	1.052612 
		0.597110	1.230682	1.052612 
		1.050063	1.230682	1.137540 
		0.597110	1.230682	1.137540 
		-0.552338	3.088683	5.052339 
		0.552338	3.088683	5.052339 
		0.552338	3.465328	5.052339 
		-0.552338	3.465328	5.052339 
		-0.552338	3.088683	3.947662 
		-0.552338	3.465328	3.947662 
		0.552338	3.465328	3.947662 
		0.552338	3.088683	3.947662 
		-0.563037	1.202996	9.821670 
		-0.563037	1.370903	9.821670 
		-0.563037	1.370903	6.411911 
		-0.563037	1.202996	6.411911 
		0.564404	1.202996	9.821669 
		0.564403	1.202996	6.411911 
		0.564403	1.370903	6.411911 
		0.564404	1.370903	9.821669 
		0.000000	3.285558	-0.637836 
		-0.551852	3.152919	-0.637836 
		-0.551852	3.153479	4.500000 
		0.000000	3.286174	4.500000 
		-0.955836	2.790539	-0.637836 
		-0.955836	2.790951	4.500000 
		-1.103704	2.295520	-0.637836 
		-1.103704	2.295726	4.500000 
		-0.955836	1.800500	-0.637836 
		-0.955836	1.800500	4.500000 
		0.000000	2.295520	-0.976070 
		0.000000	3.285559	10.080985 
		-0.551852	3.152919	10.080985 
		0.000000	2.295520	10.416903 
		-0.955836	2.790539	10.080985 
		-1.103704	2.295520	10.080985 
		-0.955836	1.800500	10.080985 
		0.000000	0.749754	10.080985 
		0.000000	0.749754	10.289078 
		-1.077882	0.749754	10.289078 
		-1.077882	0.993123	10.289078 
		0.000000	0.993123	10.289077 
		-1.077883	0.993122	10.080985 
		-1.077883	0.749754	10.080985 
		0.000000	0.818844	10.264579 
		0.000000	0.919535	10.264578 
		-0.549794	0.919535	10.264579 
		-0.549794	0.818844	10.264579 
		0.000000	0.952958	10.289077 
		0.000000	0.785420	10.289078 
		0.551853	3.153479	4.500000 
		0.551853	3.152919	-0.637836 
		0.955837	2.790951	4.500000 
		0.955837	2.790539	-0.637836 
		1.103705	2.295726	4.500000 
		1.103705	2.295520	-0.637835 
		0.955837	1.800500	4.500000 
		0.955837	1.800501	-0.637835 
		0.551853	3.152919	10.080985 
		0.955837	2.790539	10.080985 
		1.103705	2.295519	10.080985 
		0.955837	1.800500	10.080985 
		1.077883	0.749754	10.289078 
		1.077883	0.993123	10.289077 
		1.077883	0.993122	10.080984 
		1.077883	0.749754	10.080985 
		0.549794	0.818844	10.264579 
		0.549794	0.919535	10.264579 
		-1.102066	1.058560	8.975854 
		-0.560797	1.058560	8.975855 
		-0.560797	1.058560	7.262989 
		-1.102066	1.058560	7.262988 
		-1.102066	0.906550	9.197480 
		-0.560797	0.906550	9.197480 
		-1.102066	0.905066	7.044844 
		-0.560797	0.905066	7.044845 
		-1.102066	1.058560	1.141788 
		-0.560748	1.058560	1.141788 
		-0.560748	1.058560	-0.637836 
		-1.102066	1.058560	-0.637836 
		-1.102066	0.891602	1.365927 
		-0.560748	0.891421	1.366123 
		1.102067	1.058560	8.975854 
		1.102067	1.058560	7.262988 
		0.560798	1.058560	7.262989 
		0.560798	1.058560	8.975855 
		0.560798	0.906550	9.197480 
		1.102067	0.906550	9.197480 
		1.102067	0.905066	7.044844 
		0.560798	0.905066	7.044845 
		1.102067	1.058560	1.141788 
		1.102067	1.058560	-0.637836 
		0.560748	1.058560	-0.637836 
		0.560748	1.058560	1.141788 
		0.560748	0.891421	1.366123 
		1.102067	0.891602	1.365927 
		-1.028831	0.806441	10.297781 
		-0.884088	0.806441	10.297781 
		-0.887946	0.935060	10.297781 
		-1.028831	0.935060	10.297781 
		-1.028831	1.081440	1.144620 
		-0.884088	1.081440	1.144620 
		-0.887946	1.210059	1.144620 
		-1.028831	1.210059	1.144620 
		1.028832	0.806441	10.297781 
		1.028832	0.935060	10.297781 
		0.887947	0.935060	10.297781 
		0.884089	0.806441	10.297781 
		1.028832	1.081440	1.144620 
		1.028832	1.210059	1.144620 
		0.887947	1.210059	1.144620 
		0.884089	1.081440	1.144620 
	}

	Nrm 83 { 
		-1.000000	0.000000	0.000000 
		1.000000	0.000000	0.000000 
		-0.250000	-0.296875	0.921875 
		0.000000	-0.312500	0.953125 
		0.000000	0.000000	1.000000 
		-0.265625	0.000000	0.968750 
		0.000000	0.312500	0.953125 
		-0.250000	0.296875	0.921875 
		0.265625	0.000000	0.968750 
		0.250000	0.296875	0.921875 
		0.250000	-0.296875	0.921875 
		0.953125	0.296875	0.000000 
		0.953125	-0.296875	0.000000 
		-0.953125	0.296875	0.000000 
		-0.953125	-0.296875	0.000000 
		0.000000	0.000000	-1.000000 
		0.000000	-0.437500	-0.906250 
		0.000000	-1.000000	0.000000 
		0.000000	-0.343750	0.937500 
		0.000000	-0.953125	0.328125 
		0.000000	-0.609375	-0.796875 
		0.000000	-0.375000	-0.921875 
		0.000000	-0.640625	0.765625 
		0.000000	-0.484375	0.875000 
		0.000000	-0.796875	-0.609375 
		0.000000	-0.953125	-0.296875 
		0.000000	-0.640625	-0.765625 
		0.000000	-0.421875	-0.906250 
		0.000000	1.000000	0.000000 
		-0.468750	0.890625	0.000000 
		-0.843750	0.531250	0.000000 
		-0.843750	-0.531250	0.000000 
		-0.812500	-0.578125	0.000000 
		-0.468750	-0.875000	0.000000 
		-0.140625	0.281250	-0.953125 
		0.000000	0.328125	-0.953125 
		-0.250000	0.156250	-0.953125 
		-0.296875	0.000000	-0.953125 
		-0.250000	-0.156250	-0.953125 
		-0.140625	-0.281250	-0.953125 
		0.000000	-0.328125	-0.953125 
		0.000000	0.328125	0.953125 
		-0.140625	0.281250	0.953125 
		-0.250000	0.156250	0.953125 
		-0.296875	0.000000	0.953125 
		-0.250000	-0.156250	0.953125 
		-0.140625	-0.281250	0.953125 
		0.000000	-0.328125	0.953125 
		-0.671875	-0.750000	0.000000 
		0.000000	-1.000000	0.046875 
		0.000000	-1.000000	0.093750 
		0.000000	-0.593750	0.812500 
		0.453125	0.000000	0.890625 
		0.000000	0.593750	0.812500 
		0.468750	0.890625	0.000000 
		0.843750	0.531250	0.000000 
		0.812500	-0.578125	0.000000 
		0.843750	-0.531250	0.000000 
		0.140625	0.281250	-0.953125 
		0.250000	0.156250	-0.953125 
		0.296875	0.000000	-0.953125 
		0.250000	-0.156250	-0.953125 
		0.140625	-0.281250	-0.953125 
		0.140625	0.281250	0.953125 
		0.250000	0.156250	0.953125 
		0.296875	0.000000	0.953125 
		0.250000	-0.156250	0.953125 
		0.140625	-0.281250	0.953125 
		0.468750	-0.875000	0.000000 
		-0.453125	0.000000	0.890625 
		0.671875	-0.750000	0.000000 
		0.000000	0.953125	0.296875 
		0.000000	0.953125	-0.296875 
		0.000000	0.640625	0.765625 
		0.000000	0.687500	-0.734375 
		0.000000	0.515625	-0.859375 
		0.000000	0.421875	0.906250 
		0.000000	0.953125	0.312500 
		0.000000	0.640625	0.781250 
		0.000000	-0.984375	0.140625 
		0.000000	-0.687500	-0.718750 
		0.000000	-0.609375	0.796875 
		0.000000	-1.000000	0.031250 
	}

	Cpv 520 { 
		0.500000	0.500000	0.500000	0.000000 
		0.500000	0.500000	0.500000	0.000000 
		0.500000	0.500000	0.500000	0.000000 
		0.500000	0.500000	0.500000	0.000000 
		0.500000	0.500000	0.500000	0.000000 
		0.500000	0.500000	0.500000	0.000000 
		0.500000	0.500000	0.500000	0.000000 
		0.500000	0.500000	0.500000	0.000000 
		0.500000	0.511366	0.500000	0.003922 
		0.500000	0.511366	0.391931	0.003922 
		0.500000	0.509925	0.391931	0.003922 
		0.500000	0.509925	0.500000	0.003922 
		0.500000	0.508485	0.391931	0.003922 
		0.500000	0.508485	0.500000	0.003922 
		0.500000	0.509925	0.500000	0.003922 
		0.500000	0.508485	0.500000	0.003922 
		0.500000	0.511366	0.500000	0.003922 
		0.500000	0.507308	0.500000	0.003922 
		0.500000	0.509925	0.500000	0.003922 
		0.500000	0.509925	0.500000	0.003922 
		0.500000	0.507308	0.500000	0.003922 
		0.500000	0.512543	0.500000	0.003922 
		0.500000	0.512543	0.500000	0.003922 
		0.500000	0.507308	0.500000	0.003922 
		0.500000	0.507308	0.500000	0.003922 
		0.500000	0.509925	0.500000	0.003922 
		0.500000	0.509925	0.500000	0.003922 
		0.500000	0.512543	0.500000	0.003922 
		0.500000	0.512543	0.500000	0.003922 
		0.500000	0.500000	0.500000	0.000000 
		0.500000	0.500000	0.500000	0.000000 
		0.500000	0.500000	0.500000	0.000000 
		0.500000	0.500000	0.500000	0.000000 
		0.500000	0.517751	0.500000	0.003922 
		0.500000	0.518961	0.500000	0.003922 
		0.500000	0.500000	0.500000	0.000000 
		0.500000	0.500000	0.500000	0.000000 
		0.500000	0.500000	0.500000	0.000000 
		0.500000	0.500000	0.500000	0.000000 
		0.500000	0.500000	0.500000	0.000000 
		0.500000	0.500000	0.500000	0.000000 
		0.500000	0.518961	0.500000	0.003922 
		0.500000	0.517751	0.500000	0.003922 
		0.500000	0.517751	0.500000	0.003922 
		0.500000	0.500000	0.500000	0.000000 
		0.500000	0.517751	0.500000	0.003922 
		0.500000	0.500000	0.500000	0.000000 
		0.500000	0.500000	0.500000	0.000000 
		0.500000	0.500000	0.500000	0.000000 
		0.500000	0.500000	0.500000	0.000000 
		0.500000	0.500000	0.500000	0.000000 
		0.500000	0.500000	0.500000	0.000000 
		0.500000	0.500000	0.500000	0.000000 
		0.500000	0.500000	0.500000	0.000000 
		0.500000	0.500000	0.500000	0.000000 
		0.500000	0.500000	0.500000	0.000000 
		0.500000	0.500000	0.500000	0.000000 
		0.500000	0.500000	0.500000	0.000000 
		0.500000	0.517751	0.500000	0.003922 
		0.500000	0.500000	0.500000	0.000000 
		0.500000	0.500000	0.500000	0.000000 
		0.500000	0.500000	0.500000	0.000000 
		0.500000	0.500000	0.500000	0.000000 
		0.500000	0.500000	0.500000	0.000000 
		0.500000	0.517751	0.500000	0.003922 
		0.500000	0.517751	0.500000	0.003922 
		0.500000	0.517751	0.500000	0.003922 
		0.500000	0.500000	0.500000	0.000000 
		0.500000	0.500000	0.500000	0.000000 
		0.500000	0.500000	0.500000	0.000000 
		0.500000	0.500000	0.500000	0.000000 
		0.500000	0.500000	0.500000	0.000000 
		0.500000	0.500000	0.500000	0.000000 
		0.500000	0.500000	0.500000	0.000000 
		0.500000	0.500000	0.500000	0.000000 
		0.500000	0.500000	0.500000	0.000000 
		0.500000	0.500000	0.500000	0.000000 
		0.500000	0.500000	0.500000	0.000000 
		0.500000	0.500000	0.500000	0.000000 
		0.500000	0.500000	0.500000	0.000000 
		0.500000	0.517751	0.500000	0.003922 
		0.500000	0.500000	0.500000	0.000000 
		0.500000	0.500000	0.500000	0.000000 
		0.500000	0.517751	0.500000	0.003922 
		0.500000	0.517751	0.500000	0.003922 
		0.500000	0.517751	0.500000	0.003922 
		0.500000	0.500000	0.500000	0.000000 
		0.500000	0.500000	0.500000	0.000000 
		0.500000	0.500000	0.500000	0.000000 
		0.500000	0.500000	0.500000	0.000000 
		0.500000	0.500000	0.500000	0.000000 
		0.500000	0.500000	0.500000	0.000000 
		0.500000	0.500000	0.500000	0.000000 
		0.500000	0.500000	0.500000	0.000000 
		0.500000	0.500000	0.500000	0.000000 
		0.500000	0.500000	0.500000	0.000000 
		0.680715	0.500000	0.500000	0.000000 
		0.500000	0.500000	0.500000	0.000000 
		0.500000	0.500000	0.500000	0.000000 
		0.500000	0.500000	0.500000	0.000000 
		0.500000	0.500000	0.500000	0.000000 
		0.500000	0.500000	0.500000	0.000000 
		0.500000	0.500000	0.500000	0.000000 
		0.500000	0.500000	0.500000	0.000000 
		0.500000	0.500000	0.500000	0.000000 
		0.500000	0.500000	0.500000	0.000000 
		0.500000	0.500000	0.500000	0.000000 
		0.500000	0.500000	0.500000	0.000000 
		0.500000	0.500000	0.500000	0.000000 
		0.500000	0.500000	0.500000	0.000000 
		0.500000	0.500000	0.500000	0.000000 
		0.500000	0.500000	0.500000	0.000000 
		0.500000	0.500000	0.500000	0.000000 
		0.500000	0.500000	0.500000	0.000000 
		0.500000	0.500000	0.500000	0.000000 
		0.500000	0.500000	0.500000	0.000000 
		0.679698	0.630691	0.500000	0.000000 
		0.500000	0.500000	0.500000	0.000000 
		0.500000	0.500000	0.500000	0.000000 
		0.679698	0.630691	0.500000	0.000000 
		0.500000	0.616079	0.500000	0.000000 
		0.500000	0.500000	0.500000	0.000000 
		0.500000	0.500000	0.500000	0.000000 
		0.500000	0.500000	0.500000	0.000000 
		0.500000	0.500000	0.500000	0.000000 
		0.500000	0.500000	0.500000	0.000000 
		0.500000	0.500000	0.500000	0.000000 
		0.679698	0.630691	0.500000	0.000000 
		0.500000	0.500000	0.500000	0.000000 
		0.500000	0.500000	0.500000	0.000000 
		0.500000	0.500000	0.500000	0.000000 
		0.500000	0.500000	0.500000	0.000000 
		0.500000	0.500000	0.500000	0.000000 
		0.500000	0.500000	0.500000	0.000000 
		0.500000	0.500000	0.500000	0.000000 
		0.500000	0.500000	0.500000	0.000000 
		0.500000	0.500000	0.500000	0.000000 
		0.500000	0.500000	0.500000	0.000000 
		0.500000	0.500000	0.500000	0.000000 
		0.500000	0.500000	0.500000	0.000000 
		0.500000	0.500000	0.500000	0.000000 
		0.500000	0.500000	0.500000	0.000000 
		0.500000	0.500000	0.500000	0.000000 
		0.500000	0.500000	0.500000	0.000000 
		0.500000	0.500000	0.500000	0.000000 
		0.500000	0.500000	0.500000	0.000000 
		0.500000	0.500000	0.500000	0.000000 
		0.500000	0.500000	0.500000	0.000000 
		0.500000	0.500000	0.500000	0.000000 
		0.500000	0.500000	0.500000	0.000000 
		0.500000	0.500000	0.500000	0.000000 
		0.500000	0.500000	0.500000	0.000000 
		0.500000	0.500000	0.500000	0.000000 
		0.500000	0.500000	0.500000	0.000000 
		0.500000	0.500000	0.500000	0.000000 
		0.500000	0.500000	0.500000	0.000000 
		0.377917	0.500000	0.500000	0.000000 
		0.377917	0.500000	0.500000	0.000000 
		0.500000	0.500000	0.500000	0.000000 
		0.500000	0.500000	0.500000	0.000000 
		0.377917	0.500000	0.500000	0.000000 
		0.500000	0.500000	0.500000	0.000000 
		0.500000	0.500000	0.500000	0.000000 
		0.500000	0.500000	0.500000	0.000000 
		0.500000	0.500000	0.500000	0.000000 
		0.500000	0.500000	0.500000	0.000000 
		0.500000	0.500000	0.500000	0.000000 
		0.500000	0.500000	0.500000	0.000000 
		0.500000	0.500000	0.500000	0.000000 
		0.377917	0.500000	0.500000	0.000000 
		0.500000	0.500000	0.500000	0.000000 
		0.377917	0.500000	0.500000	0.000000 
		0.500000	0.500000	0.500000	0.000000 
		0.500000	0.500000	0.500000	0.000000 
		0.500000	0.500000	0.500000	0.000000 
		0.500000	0.500000	0.500000	0.000000 
		0.500000	0.500000	0.500000	0.000000 
		0.500000	0.500000	0.500000	0.000000 
		0.500000	0.500000	0.500000	0.000000 
		0.500000	0.500000	0.500000	0.000000 
		0.500000	0.500000	0.500000	0.000000 
		0.500000	0.500000	0.500000	0.000000 
		0.500000	0.500000	0.500000	0.000000 
		0.500000	0.500000	0.500000	0.000000 
		0.500000	0.500000	0.500000	0.000000 
		0.500000	0.500000	0.500000	0.000000 
		0.500000	0.500000	0.500000	0.000000 
		0.500000	0.500000	0.500000	0.000000 
		0.500000	0.500000	0.500000	0.000000 
		0.500000	0.500000	0.500000	0.000000 
		0.500000	0.500000	0.500000	0.000000 
		0.500000	0.500000	0.500000	0.000000 
		0.500000	0.500000	0.500000	0.000000 
		0.500000	0.500000	0.500000	0.000000 
		0.500000	0.500000	0.500000	0.000000 
		0.500000	0.500000	0.500000	0.000000 
		0.500000	0.500000	0.500000	0.000000 
		0.500000	0.500000	0.500000	0.000000 
		0.500000	0.500000	0.500000	0.000000 
		0.500000	0.500000	0.500000	0.000000 
		0.500000	0.500000	0.500000	0.000000 
		0.500000	0.500000	0.500000	0.000000 
		0.500000	0.500000	0.500000	0.000000 
		0.500000	0.500000	0.500000	0.000000 
		0.500000	0.500000	0.500000	0.000000 
		0.500000	0.500000	0.500000	0.000000 
		0.500000	0.500000	0.500000	0.000000 
		0.500000	0.500000	0.500000	0.000000 
		0.500000	0.500000	0.500000	0.000000 
		0.500000	0.500000	0.500000	0.000000 
		0.500000	0.500000	0.500000	0.000000 
		0.500000	0.500000	0.500000	0.000000 
		0.500000	0.500000	0.500000	0.000000 
		0.500000	0.500000	0.500000	0.000000 
		0.500000	0.500000	0.500000	0.000000 
		0.500000	0.500000	0.500000	0.000000 
		0.500000	0.502687	0.500000	0.003922 
		0.500000	0.502687	0.500000	0.003922 
		0.500000	0.499249	0.500000	0.003922 
		0.500000	0.499249	0.500000	0.003922 
		0.500000	0.502687	0.500000	0.003922 
		0.500000	0.502687	0.500000	0.003922 
		0.500000	0.499249	0.500000	0.003922 
		0.500000	0.499249	0.500000	0.003922 
		0.500000	0.499249	0.500000	0.003922 
		0.500000	0.499249	0.500000	0.003922 
		0.500000	0.502687	0.500000	0.003922 
		0.500000	0.502687	0.500000	0.003922 
		0.500000	0.502687	0.500000	0.003922 
		0.500000	0.502687	0.500000	0.003922 
		0.500000	0.499249	0.500000	0.003922 
		0.500000	0.499249	0.500000	0.003922 
		0.500000	0.499249	0.500000	0.003922 
		0.500000	0.499249	0.500000	0.003922 
		0.500000	0.499249	0.500000	0.003922 
		0.500000	0.499249	0.500000	0.003922 
		0.500000	0.500000	0.500000	0.000000 
		0.500000	0.500000	0.500000	0.000000 
		0.500000	0.500000	0.500000	0.000000 
		0.500000	0.500000	0.500000	0.000000 
		0.500000	0.500000	0.500000	0.000000 
		0.500000	0.500000	0.500000	0.000000 
		0.500000	0.500000	0.500000	0.000000 
		0.500000	0.500000	0.500000	0.000000 
		0.500000	0.404941	0.500000	0.003922 
		0.500000	0.502687	0.500000	0.003922 
		0.500000	0.501538	0.500000	0.003922 
		0.500000	0.500272	0.500000	0.003922 
		0.500000	0.505408	0.500000	0.003922 
		0.500000	0.505408	0.500000	0.003922 
		0.500000	0.509925	0.500000	0.003922 
		0.500000	0.509925	0.500000	0.003922 
		0.500000	0.514443	0.500000	0.003922 
		0.581084	0.514443	0.500000	0.003922 
		0.500000	0.517751	0.500000	0.003922 
		0.500000	0.517751	0.500000	0.003922 
		0.500000	0.502687	0.500000	0.003922 
		0.500000	0.404941	0.500000	0.003922 
		0.500000	0.509925	0.500000	0.003922 
		0.500000	0.505408	0.500000	0.003922 
		0.500000	0.509925	0.500000	0.003922 
		0.500000	0.514443	0.500000	0.003922 
		0.500000	0.517751	0.500000	0.003922 
		0.500000	0.518961	0.500000	0.003922 
		0.500000	0.300077	0.500000	0.003922 
		0.500000	0.502687	0.500000	0.003922 
		0.500000	0.509925	0.391931	0.003922 
		0.500000	0.505408	0.500000	0.003922 
		0.500000	0.509925	0.500000	0.003922 
		0.500000	0.514443	0.500000	0.003922 
		0.500000	0.517751	0.500000	0.003922 
		0.500000	0.518961	0.500000	0.003922 
		0.500000	0.517751	0.500000	0.003922 
		0.500000	0.514443	0.500000	0.003922 
		0.500000	0.509925	0.500000	0.003922 
		0.500000	0.505408	0.500000	0.003922 
		0.500000	0.502687	0.500000	0.003922 
		0.500000	0.300077	0.500000	0.003922 
		0.500000	0.500000	0.500000	0.000000 
		0.500000	0.500000	0.500000	0.000000 
		0.500000	0.500000	0.500000	0.000000 
		0.500000	0.500000	0.500000	0.000000 
		0.500000	0.500000	0.500000	0.000000 
		0.500000	0.500000	0.500000	0.000000 
		0.500000	0.500000	0.500000	0.000000 
		0.500000	0.500000	0.500000	0.000000 
		0.500000	0.500000	0.500000	0.000000 
		0.500000	0.500000	0.500000	0.000000 
		0.500000	0.500000	0.500000	0.000000 
		0.500000	0.500000	0.500000	0.000000 
		0.500000	0.500000	0.500000	0.000000 
		0.500000	0.500000	0.500000	0.000000 
		0.500000	0.500000	0.500000	0.000000 
		0.500000	0.500000	0.500000	0.000000 
		0.500000	0.500000	0.500000	0.000000 
		0.500000	0.500000	0.500000	0.000000 
		0.500000	0.500000	0.500000	0.000000 
		0.500000	0.500000	0.500000	0.000000 
		0.500000	0.500000	0.500000	0.000000 
		0.500000	0.500000	0.500000	0.000000 
		0.500000	0.500000	0.500000	0.000000 
		0.500000	0.500000	0.500000	0.000000 
		0.500000	0.500000	0.500000	0.000000 
		0.500000	0.500000	0.500000	0.000000 
		0.500000	0.500000	0.500000	0.000000 
		0.500000	0.500000	0.500000	0.000000 
		0.500000	0.500000	0.500000	0.000000 
		0.500000	0.500000	0.500000	0.000000 
		0.500000	0.500000	0.500000	0.000000 
		0.500000	0.500000	0.500000	0.000000 
		0.500000	0.500000	0.500000	0.000000 
		0.500000	0.500000	0.500000	0.000000 
		0.500000	0.500000	0.500000	0.000000 
		0.500000	0.500000	0.500000	0.000000 
		0.500000	0.500000	0.500000	0.000000 
		0.500000	0.500000	0.500000	0.000000 
		0.500000	0.500000	0.500000	0.000000 
		0.500000	0.500000	0.500000	0.000000 
		0.500000	0.500000	0.500000	0.000000 
		0.500000	0.500000	0.500000	0.000000 
		0.500000	0.500000	0.500000	0.000000 
		0.500000	0.500000	0.500000	0.000000 
		0.500000	0.501538	0.500000	0.003922 
		0.500000	0.502687	0.500000	0.003922 
		0.500000	0.505408	0.500000	0.003922 
		0.500000	0.505408	0.500000	0.003922 
		0.500000	0.509925	0.500000	0.003922 
		0.500000	0.509925	0.500000	0.003922 
		0.220003	0.514443	0.500000	0.003922 
		0.500000	0.514443	0.500000	0.003922 
		0.500000	0.502687	0.500000	0.003922 
		0.500000	0.505408	0.500000	0.003922 
		0.500000	0.509925	0.500000	0.003922 
		0.500000	0.514443	0.500000	0.003922 
		0.500000	0.517751	0.500000	0.003922 
		0.500000	0.406815	0.500000	0.003922 
		0.500000	0.505408	0.500000	0.003922 
		0.500000	0.509925	0.500000	0.003922 
		0.500000	0.514443	0.500000	0.003922 
		0.500000	0.517751	0.500000	0.003922 
		0.500000	0.517751	0.500000	0.003922 
		0.500000	0.517751	0.500000	0.003922 
		0.500000	0.517751	0.500000	0.003922 
		0.500000	0.517751	0.500000	0.003922 
		0.500000	0.517751	0.500000	0.003922 
		0.500000	0.517751	0.500000	0.003922 
		0.500000	0.509925	0.500000	0.003922 
		0.500000	0.514443	0.500000	0.003922 
		0.500000	0.505408	0.500000	0.003922 
		0.500000	0.406815	0.500000	0.003922 
		0.500000	0.500000	0.500000	0.000000 
		0.500000	0.500000	0.500000	0.000000 
		0.500000	0.500000	0.500000	0.000000 
		0.500000	0.500000	0.500000	0.000000 
		0.500000	0.500000	0.500000	0.000000 
		0.500000	0.500000	0.500000	0.000000 
		0.500000	0.500000	0.500000	0.000000 
		0.500000	0.500000	0.500000	0.000000 
		0.500000	0.500000	0.500000	0.000000 
		0.500000	0.500000	0.500000	0.000000 
		0.500000	0.500000	0.500000	0.000000 
		0.500000	0.500000	0.500000	0.000000 
		0.500000	0.500000	0.500000	0.000000 
		0.500000	0.500000	0.500000	0.000000 
		0.500000	0.500000	0.500000	0.000000 
		0.500000	0.500000	0.500000	0.000000 
		0.500000	0.500000	0.500000	0.000000 
		0.500000	0.500000	0.500000	0.000000 
		0.500000	0.500000	0.500000	0.000000 
		0.500000	0.500000	0.500000	0.000000 
		0.500000	0.500000	0.500000	0.000000 
		0.500000	0.500000	0.500000	0.000000 
		0.500000	0.500000	0.500000	0.000000 
		0.500000	0.500000	0.500000	0.000000 
		0.500000	0.500000	0.500000	0.000000 
		0.500000	0.500000	0.500000	0.000000 
		0.500000	0.500000	0.500000	0.000000 
		0.500000	0.500000	0.500000	0.000000 
		0.500000	0.500000	0.500000	0.000000 
		0.500000	0.500000	0.500000	0.000000 
		0.500000	0.517751	0.500000	0.003922 
		0.500000	0.517751	0.500000	0.003922 
		0.500000	0.517751	0.500000	0.003922 
		0.500000	0.500000	0.500000	0.000000 
		0.500000	0.500000	0.500000	0.000000 
		0.500000	0.500000	0.500000	0.000000 
		0.680715	0.500000	0.500000	0.000000 
		0.680715	0.500000	0.500000	0.000000 
		0.500000	0.500000	0.500000	0.000000 
		0.500000	0.500000	0.500000	0.000000 
		0.680715	0.500000	0.500000	0.000000 
		0.500000	0.500000	0.500000	0.000000 
		0.500000	0.500000	0.500000	0.000000 
		0.500000	0.500000	0.500000	0.000000 
		0.500000	0.500000	0.500000	0.000000 
		0.500000	0.500000	0.500000	0.000000 
		0.500000	0.500000	0.500000	0.000000 
		0.500000	0.500000	0.500000	0.000000 
		0.500000	0.500000	0.500000	0.000000 
		0.500000	0.500000	0.500000	0.000000 
		0.500000	0.500000	0.500000	0.000000 
		0.500000	0.500000	0.500000	0.000000 
		0.500000	0.500000	0.500000	0.000000 
		0.680715	0.500000	0.500000	0.000000 
		0.680715	0.500000	0.500000	0.000000 
		0.500000	0.500000	0.500000	0.000000 
		0.500000	0.500000	0.500000	0.000000 
		0.500000	0.500000	0.500000	0.000000 
		0.500000	0.500000	0.500000	0.000000 
		0.500000	0.500000	0.500000	0.000000 
		0.500000	0.500000	0.500000	0.000000 
		0.500000	0.500000	0.500000	0.000000 
		0.500000	0.616079	0.500000	0.000000 
		0.500000	0.616079	0.500000	0.000000 
		0.500000	0.500000	0.500000	0.000000 
		0.500000	0.500000	0.500000	0.000000 
		0.500000	0.616079	0.500000	0.000000 
		0.500000	0.616079	0.500000	0.000000 
		0.500000	0.500000	0.500000	0.000000 
		0.500000	0.500000	0.500000	0.000000 
		0.500000	0.616079	0.500000	0.000000 
		0.500000	0.500000	0.500000	0.000000 
		0.500000	0.500000	0.500000	0.000000 
		0.500000	0.500000	0.500000	0.000000 
		0.500000	0.500000	0.500000	0.000000 
		0.500000	0.500000	0.500000	0.000000 
		0.500000	0.500000	0.500000	0.000000 
		0.500000	0.500000	0.500000	0.000000 
		0.500000	0.500000	0.500000	0.000000 
		0.679698	0.630691	0.500000	0.000000 
		0.679698	0.630691	0.500000	0.000000 
		0.679698	0.630691	0.500000	0.000000 
		0.500000	0.500000	0.500000	0.000000 
		0.500000	0.500000	0.500000	0.000000 
		0.500000	0.500000	0.500000	0.000000 
		0.500000	0.500000	0.500000	0.000000 
		0.377917	0.500000	0.500000	0.000000 
		0.500000	0.500000	0.500000	0.000000 
		0.500000	0.500000	0.500000	0.000000 
		0.377917	0.500000	0.500000	0.000000 
		0.377917	0.500000	0.500000	0.000000 
		0.500000	0.500000	0.500000	0.000000 
		0.500000	0.500000	0.500000	0.000000 
		0.500000	0.500000	0.500000	0.000000 
		0.500000	0.500000	0.500000	0.000000 
		0.500000	0.500000	0.500000	0.000000 
		0.500000	0.500000	0.500000	0.000000 
		0.377917	0.500000	0.500000	0.000000 
		0.377917	0.500000	0.500000	0.000000 
		0.500000	0.500000	0.500000	0.000000 
		0.500000	0.500000	0.500000	0.000000 
		0.377917	0.500000	0.500000	0.000000 
		0.377917	0.500000	0.500000	0.000000 
		0.377917	0.500000	0.500000	0.000000 
		0.377917	0.500000	0.500000	0.000000 
		0.377917	0.500000	0.500000	0.000000 
		0.377917	0.500000	0.500000	0.000000 
		0.500000	0.500000	0.500000	0.000000 
		0.500000	0.500000	0.500000	0.000000 
		0.500000	0.500000	0.500000	0.000000 
		0.500000	0.500000	0.500000	0.000000 
		0.500000	0.500000	0.500000	0.000000 
		0.500000	0.500000	0.500000	0.000000 
		0.500000	0.500000	0.500000	0.000000 
		0.500000	0.500000	0.500000	0.000000 
		0.500000	0.500000	0.500000	0.000000 
		0.500000	0.500000	0.500000	0.000000 
		0.500000	0.500000	0.500000	0.000000 
		0.500000	0.500000	0.500000	0.000000 
		0.500000	0.500000	0.500000	0.000000 
		0.500000	0.500000	0.500000	0.000000 
		0.500000	0.500000	0.500000	0.000000 
		0.500000	0.500000	0.500000	0.000000 
		0.500000	0.500000	0.500000	0.000000 
		0.500000	0.500000	0.500000	0.000000 
		0.500000	0.500000	0.500000	0.000000 
		0.500000	0.500000	0.500000	0.000000 
		0.500000	0.500000	0.500000	0.000000 
		0.500000	0.500000	0.500000	0.000000 
		0.500000	0.500000	0.500000	0.000000 
		0.500000	0.500000	0.500000	0.000000 
		0.500000	0.500000	0.500000	0.000000 
		0.500000	0.500000	0.500000	0.000000 
		0.500000	0.500000	0.500000	0.000000 
		0.500000	0.500000	0.500000	0.000000 
		0.500000	0.500000	0.500000	0.000000 
		0.500000	0.500000	0.500000	0.000000 
		0.500000	0.500000	0.500000	0.000000 
		0.500000	0.500000	0.500000	0.000000 
		0.500000	0.500000	0.500000	0.000000 
		0.500000	0.500000	0.500000	0.000000 
		0.500000	0.517751	0.500000	0.003922 
		0.500000	0.517751	0.500000	0.003922 
		0.500000	0.500000	0.500000	0.000000 
		0.500000	0.500000	0.500000	0.000000 
		0.500000	0.500000	0.500000	0.000000 
		0.500000	0.500000	0.500000	0.000000 
		0.500000	0.500000	0.500000	0.000000 
		0.500000	0.517751	0.500000	0.003922 
		0.500000	0.517751	0.500000	0.003922 
		0.500000	0.500000	0.500000	0.000000 
		0.500000	0.500000	0.500000	0.000000 
		0.500000	0.500000	0.500000	0.000000 
		0.500000	0.500000	0.500000	0.000000 
		0.500000	0.500000	0.500000	0.000000 
		0.500000	0.500000	0.500000	0.000000 
		0.500000	0.500000	0.500000	0.000000 
		0.500000	0.500000	0.500000	0.000000 
		0.500000	0.500000	0.500000	0.000000 
		0.500000	0.500000	0.500000	0.000000 
		0.500000	0.500000	0.500000	0.000000 
		0.500000	0.500000	0.500000	0.000000 
		0.500000	0.500000	0.500000	0.000000 
		0.500000	0.500000	0.500000	0.000000 
		0.500000	0.500000	0.500000	0.000000 
		0.500000	0.500000	0.500000	0.000000 
		0.500000	0.500000	0.500000	0.000000 
		0.500000	0.500000	0.500000	0.000000 
		0.500000	0.500000	0.500000	0.000000 
		0.500000	0.500000	0.500000	0.000000 
	}

	Tex0 137 { 
		0.940430	0.916992 
		0.985352	0.916992 
		0.985352	0.316406 
		0.940430	0.316406 
		0.707031	0.042969 
		0.818359	0.042969 
		0.818359	0.081055 
		0.707031	0.081055 
		0.818359	0.119141 
		0.707031	0.119141 
		0.929688	0.081055 
		0.929688	0.119141 
		0.929688	0.042969 
		0.012695	0.132813 
		0.012695	0.084961 
		0.623047	0.084961 
		0.623047	0.132813 
		0.012695	0.037109 
		0.623047	0.037109 
		0.500000	0.208008 
		0.696289	0.208008 
		0.696289	0.295898 
		0.500000	0.295898 
		0.087891	0.630859 
		0.084961	0.628906 
		0.087891	0.621094 
		0.040039	0.610352 
		0.040039	0.618164 
		0.043945	0.610352 
		0.037109	0.618164 
		0.037109	0.629883 
		0.040039	0.631836 
		0.058594	0.631836 
		0.053711	0.610352 
		0.272461	0.816406 
		0.272461	0.793945 
		0.078125	0.623047 
		0.075195	0.630859 
		0.276367	0.802734 
		0.292969	0.802734 
		0.276367	0.814453 
		0.292969	0.814453 
		0.276367	0.808594 
		0.292969	0.808594 
		0.286133	0.813477 
		0.287109	0.808594 
		0.287109	0.800781 
		0.275391	0.798828 
		0.298828	0.798828 
		0.275391	0.811523 
		0.298828	0.811523 
		0.298828	0.804688 
		0.275391	0.804688 
		0.712891	0.216797 
		0.712891	0.267578 
		0.691406	0.267578 
		0.691406	0.216797 
		0.712891	0.273438 
		0.712891	0.222656 
		0.691406	0.222656 
		0.691406	0.273438 
		0.712891	0.283203 
		0.691406	0.283203 
		0.691406	0.232422 
		0.712891	0.232422 
		0.019531	0.610352 
		0.081055	0.610352 
		0.081055	0.628906 
		0.019531	0.628906 
		0.059570	0.602539 
		0.082031	0.602539 
		0.082031	0.620117 
		0.059570	0.620117 
		0.166992	0.159180 
		0.250000	0.159180 
		0.250000	0.361328 
		0.166992	0.361328 
		0.333008	0.159180 
		0.333008	0.361328 
		0.416992	0.159180 
		0.416992	0.360352 
		0.500000	0.159180 
		0.500000	0.360352 
		0.583008	0.240234 
		0.583008	0.390625 
		0.500000	0.000000 
		0.583008	0.159180 
		0.666992	0.159180 
		0.166992	0.477539 
		0.250000	0.477539 
		0.500000	0.636719 
		0.333008	0.477539 
		0.416992	0.477539 
		0.500000	0.477539 
		0.583008	0.477539 
		0.666992	0.477539 
		0.052734	0.615234 
		0.079102	0.615234 
		0.028320	0.615234 
		0.079102	0.633789 
		0.052734	0.633789 
		0.028320	0.633789 
		0.016602	0.633789 
		0.016602	0.615234 
		0.050781	0.623047 
		0.029297	0.623047 
		0.050781	0.631836 
		0.029297	0.631836 
		0.299805	0.000000 
		0.295898	1.000000 
		0.619141	1.000000 
		0.619141	0.000000 
		0.000000	1.000000 
		1.000000	1.000000 
		1.000000	2.000000 
		0.000000	2.000000 
		-1.000000	0.000000 
		0.000000	0.000000 
		-1.000000	1.000000 
		0.000000	3.000000 
		0.298828	0.814453 
		0.481445	0.000000 
		0.618164	0.021484 
		0.212891	0.021484 
		1.000000	0.000000 
		1.000000	0.021484 
		1.000000	0.500000 
		0.912109	1.000000 
		0.709961	0.000000 
		0.709961	1.000000 
		0.912109	0.000000 
		0.212891	0.000000 
		0.214844	1.000000 
		0.583008	0.218750 
		0.646484	0.218750 
		0.644531	0.282227 
		0.583008	0.282227 
	}

	Tex1 0 
	Adj 520 { 
		P 0 
		N 0 
		C0 0 
		T0 0 
		P 1 
		N 0 
		C0 1 
		T0 1 
		P 2 
		N 0 
		C0 2 
		T0 2 
		P 3 
		N 0 
		C0 3 
		T0 3 
		P 4 
		N 1 
		C0 4 
		T0 0 
		P 5 
		N 1 
		C0 5 
		T0 3 
		P 6 
		N 1 
		C0 6 
		T0 2 
		P 7 
		N 1 
		C0 7 
		T0 1 
		P 8 
		N 2 
		C0 8 
		T0 4 
		P 9 
		N 3 
		C0 9 
		T0 5 
		P 10 
		N 4 
		C0 10 
		T0 6 
		P 11 
		N 5 
		C0 11 
		T0 7 
		P 12 
		N 6 
		C0 12 
		T0 8 
		P 13 
		N 7 
		C0 13 
		T0 9 
		P 14 
		N 8 
		C0 14 
		T0 10 
		P 15 
		N 9 
		C0 15 
		T0 11 
		P 16 
		N 10 
		C0 16 
		T0 12 
		P 17 
		N 11 
		C0 17 
		T0 13 
		P 18 
		N 1 
		C0 18 
		T0 14 
		P 19 
		N 1 
		C0 19 
		T0 15 
		P 20 
		N 11 
		C0 20 
		T0 16 
		P 21 
		N 12 
		C0 21 
		T0 17 
		P 22 
		N 12 
		C0 22 
		T0 18 
		P 23 
		N 13 
		C0 23 
		T0 16 
		P 24 
		N 13 
		C0 24 
		T0 13 
		P 25 
		N 0 
		C0 25 
		T0 14 
		P 26 
		N 0 
		C0 26 
		T0 15 
		P 27 
		N 14 
		C0 27 
		T0 17 
		P 28 
		N 14 
		C0 28 
		T0 18 
		P 29 
		N 4 
		C0 29 
		T0 19 
		P 30 
		N 4 
		C0 30 
		T0 20 
		P 31 
		N 4 
		C0 31 
		T0 21 
		P 32 
		N 4 
		C0 32 
		T0 22 
		P 33 
		N 15 
		C0 33 
		T0 23 
		P 34 
		N 15 
		C0 34 
		T0 24 
		P 35 
		N 15 
		C0 35 
		T0 25 
		P 36 
		N 0 
		C0 36 
		T0 26 
		P 37 
		N 0 
		C0 37 
		T0 27 
		P 38 
		N 0 
		C0 38 
		T0 28 
		P 37 
		N 4 
		C0 39 
		T0 27 
		P 39 
		N 4 
		C0 40 
		T0 29 
		P 40 
		N 4 
		C0 41 
		T0 30 
		P 41 
		N 4 
		C0 42 
		T0 31 
		P 42 
		N 0 
		C0 43 
		T0 32 
		P 43 
		N 0 
		C0 44 
		T0 33 
		P 41 
		N 0 
		C0 45 
		T0 31 
		P 38 
		N 0 
		C0 46 
		T0 34 
		P 43 
		N 0 
		C0 47 
		T0 34 
		P 44 
		N 0 
		C0 48 
		T0 35 
		P 45 
		N 0 
		C0 49 
		T0 35 
		P 44 
		N 16 
		C0 50 
		T0 35 
		P 43 
		N 16 
		C0 51 
		T0 34 
		P 46 
		N 16 
		C0 52 
		T0 34 
		P 47 
		N 16 
		C0 53 
		T0 35 
		P 48 
		N 4 
		C0 54 
		T0 19 
		P 49 
		N 4 
		C0 55 
		T0 22 
		P 50 
		N 4 
		C0 56 
		T0 21 
		P 51 
		N 4 
		C0 57 
		T0 20 
		P 52 
		N 15 
		C0 58 
		T0 23 
		P 53 
		N 15 
		C0 59 
		T0 25 
		P 54 
		N 1 
		C0 60 
		T0 26 
		P 55 
		N 1 
		C0 61 
		T0 28 
		P 56 
		N 1 
		C0 62 
		T0 27 
		P 56 
		N 4 
		C0 63 
		T0 27 
		P 57 
		N 4 
		C0 64 
		T0 31 
		P 58 
		N 1 
		C0 65 
		T0 32 
		P 57 
		N 1 
		C0 66 
		T0 31 
		P 46 
		N 1 
		C0 67 
		T0 33 
		P 44 
		N 17 
		C0 68 
		T0 35 
		P 47 
		N 17 
		C0 69 
		T0 35 
		P 59 
		N 17 
		C0 70 
		T0 35 
		P 45 
		N 17 
		C0 71 
		T0 35 
		P 45 
		N 18 
		C0 72 
		T0 35 
		P 59 
		N 18 
		C0 73 
		T0 35 
		P 55 
		N 18 
		C0 74 
		T0 34 
		P 38 
		N 18 
		C0 75 
		T0 34 
		P 55 
		N 1 
		C0 76 
		T0 34 
		P 59 
		N 1 
		C0 77 
		T0 35 
		P 47 
		N 1 
		C0 78 
		T0 35 
		P 46 
		N 1 
		C0 79 
		T0 34 
		P 33 
		N 0 
		C0 80 
		T0 23 
		P 35 
		N 0 
		C0 81 
		T0 25 
		P 60 
		N 0 
		C0 82 
		T0 36 
		P 61 
		N 0 
		C0 83 
		T0 37 
		P 52 
		N 1 
		C0 84 
		T0 23 
		P 62 
		N 1 
		C0 85 
		T0 37 
		P 63 
		N 1 
		C0 86 
		T0 36 
		P 53 
		N 1 
		C0 87 
		T0 25 
		P 64 
		N 17 
		C0 88 
		T0 38 
		P 65 
		N 17 
		C0 89 
		T0 39 
		P 66 
		N 17 
		C0 90 
		T0 39 
		P 67 
		N 17 
		C0 91 
		T0 38 
		P 68 
		N 17 
		C0 92 
		T0 38 
		P 69 
		N 17 
		C0 93 
		T0 39 
		P 70 
		N 17 
		C0 94 
		T0 39 
		P 71 
		N 17 
		C0 95 
		T0 38 
		P 72 
		N 19 
		C0 96 
		T0 40 
		P 73 
		N 19 
		C0 97 
		T0 41 
		P 74 
		N 17 
		C0 98 
		T0 41 
		P 75 
		N 17 
		C0 99 
		T0 40 
		P 76 
		N 20 
		C0 100 
		T0 42 
		P 77 
		N 20 
		C0 101 
		T0 43 
		P 65 
		N 21 
		C0 102 
		T0 39 
		P 64 
		N 21 
		C0 103 
		T0 38 
		P 78 
		N 22 
		C0 104 
		T0 42 
		P 79 
		N 22 
		C0 105 
		T0 43 
		P 71 
		N 23 
		C0 106 
		T0 38 
		P 70 
		N 23 
		C0 107 
		T0 39 
		P 75 
		N 24 
		C0 108 
		T0 40 
		P 74 
		N 24 
		C0 109 
		T0 41 
		P 73 
		N 0 
		C0 110 
		T0 44 
		P 79 
		N 0 
		C0 111 
		T0 45 
		P 77 
		N 0 
		C0 112 
		T0 45 
		P 74 
		N 0 
		C0 113 
		T0 44 
		P 70 
		N 0 
		C0 114 
		T0 46 
		P 65 
		N 0 
		C0 115 
		T0 46 
		P 80 
		N 17 
		C0 116 
		T0 47 
		P 81 
		N 17 
		C0 117 
		T0 48 
		P 82 
		N 17 
		C0 118 
		T0 48 
		P 83 
		N 17 
		C0 119 
		T0 47 
		P 84 
		N 17 
		C0 120 
		T0 49 
		P 85 
		N 17 
		C0 121 
		T0 50 
		P 86 
		N 25 
		C0 122 
		T0 50 
		P 87 
		N 25 
		C0 123 
		T0 49 
		P 88 
		N 26 
		C0 124 
		T0 51 
		P 89 
		N 26 
		C0 125 
		T0 52 
		P 81 
		N 27 
		C0 126 
		T0 48 
		P 80 
		N 27 
		C0 127 
		T0 47 
		P 90 
		N 17 
		C0 128 
		T0 53 
		P 91 
		N 17 
		C0 129 
		T0 54 
		P 92 
		N 17 
		C0 130 
		T0 55 
		P 93 
		N 17 
		C0 131 
		T0 56 
		P 94 
		N 15 
		C0 132 
		T0 57 
		P 95 
		N 15 
		C0 133 
		T0 58 
		P 91 
		N 15 
		C0 134 
		T0 59 
		P 90 
		N 15 
		C0 135 
		T0 60 
		P 93 
		N 4 
		C0 136 
		T0 19 
		P 92 
		N 4 
		C0 137 
		T0 20 
		P 96 
		N 4 
		C0 138 
		T0 21 
		P 97 
		N 4 
		C0 139 
		T0 22 
		P 95 
		N 1 
		C0 140 
		T0 61 
		P 96 
		N 1 
		C0 141 
		T0 62 
		P 92 
		N 1 
		C0 142 
		T0 55 
		P 91 
		N 1 
		C0 143 
		T0 54 
		P 93 
		N 0 
		C0 144 
		T0 56 
		P 97 
		N 0 
		C0 145 
		T0 63 
		P 94 
		N 0 
		C0 146 
		T0 64 
		P 90 
		N 0 
		C0 147 
		T0 53 
		P 95 
		N 28 
		C0 148 
		T0 61 
		P 94 
		N 28 
		C0 149 
		T0 64 
		P 97 
		N 28 
		C0 150 
		T0 63 
		P 96 
		N 28 
		C0 151 
		T0 62 
		P 98 
		N 17 
		C0 152 
		T0 38 
		P 99 
		N 17 
		C0 153 
		T0 38 
		P 100 
		N 17 
		C0 154 
		T0 39 
		P 101 
		N 17 
		C0 155 
		T0 39 
		P 102 
		N 17 
		C0 156 
		T0 38 
		P 103 
		N 17 
		C0 157 
		T0 38 
		P 104 
		N 17 
		C0 158 
		T0 39 
		P 105 
		N 17 
		C0 159 
		T0 39 
		P 106 
		N 19 
		C0 160 
		T0 40 
		P 107 
		N 17 
		C0 161 
		T0 40 
		P 108 
		N 17 
		C0 162 
		T0 41 
		P 109 
		N 19 
		C0 163 
		T0 41 
		P 110 
		N 20 
		C0 164 
		T0 42 
		P 98 
		N 21 
		C0 165 
		T0 38 
		P 101 
		N 21 
		C0 166 
		T0 39 
		P 111 
		N 20 
		C0 167 
		T0 43 
		P 112 
		N 22 
		C0 168 
		T0 43 
		P 113 
		N 22 
		C0 169 
		T0 42 
		P 104 
		N 23 
		C0 170 
		T0 39 
		P 103 
		N 23 
		C0 171 
		T0 38 
		P 107 
		N 24 
		C0 172 
		T0 40 
		P 108 
		N 24 
		C0 173 
		T0 41 
		P 109 
		N 1 
		C0 174 
		T0 44 
		P 108 
		N 1 
		C0 175 
		T0 44 
		P 111 
		N 1 
		C0 176 
		T0 45 
		P 112 
		N 1 
		C0 177 
		T0 45 
		P 101 
		N 1 
		C0 178 
		T0 46 
		P 104 
		N 1 
		C0 179 
		T0 46 
		P 114 
		N 17 
		C0 180 
		T0 47 
		P 115 
		N 17 
		C0 181 
		T0 47 
		P 116 
		N 17 
		C0 182 
		T0 48 
		P 117 
		N 17 
		C0 183 
		T0 48 
		P 118 
		N 17 
		C0 184 
		T0 49 
		P 119 
		N 25 
		C0 185 
		T0 49 
		P 120 
		N 25 
		C0 186 
		T0 50 
		P 121 
		N 17 
		C0 187 
		T0 50 
		P 122 
		N 26 
		C0 188 
		T0 52 
		P 123 
		N 26 
		C0 189 
		T0 51 
		P 114 
		N 27 
		C0 190 
		T0 47 
		P 117 
		N 27 
		C0 191 
		T0 48 
		P 124 
		N 17 
		C0 192 
		T0 53 
		P 125 
		N 17 
		C0 193 
		T0 56 
		P 126 
		N 17 
		C0 194 
		T0 55 
		P 127 
		N 17 
		C0 195 
		T0 54 
		P 128 
		N 15 
		C0 196 
		T0 57 
		P 124 
		N 15 
		C0 197 
		T0 60 
		P 127 
		N 15 
		C0 198 
		T0 59 
		P 129 
		N 15 
		C0 199 
		T0 58 
		P 125 
		N 4 
		C0 200 
		T0 19 
		P 130 
		N 4 
		C0 201 
		T0 22 
		P 131 
		N 4 
		C0 202 
		T0 21 
		P 126 
		N 4 
		C0 203 
		T0 20 
		P 129 
		N 0 
		C0 204 
		T0 61 
		P 127 
		N 0 
		C0 205 
		T0 54 
		P 126 
		N 0 
		C0 206 
		T0 55 
		P 131 
		N 0 
		C0 207 
		T0 62 
		P 125 
		N 1 
		C0 208 
		T0 56 
		P 124 
		N 1 
		C0 209 
		T0 53 
		P 128 
		N 1 
		C0 210 
		T0 64 
		P 130 
		N 1 
		C0 211 
		T0 63 
		P 129 
		N 28 
		C0 212 
		T0 61 
		P 131 
		N 28 
		C0 213 
		T0 62 
		P 130 
		N 28 
		C0 214 
		T0 63 
		P 128 
		N 28 
		C0 215 
		T0 64 
		P 132 
		N 4 
		C0 216 
		T0 65 
		P 133 
		N 4 
		C0 217 
		T0 66 
		P 134 
		N 4 
		C0 218 
		T0 67 
		P 135 
		N 4 
		C0 219 
		T0 68 
		P 136 
		N 0 
		C0 220 
		T0 66 
		P 132 
		N 0 
		C0 221 
		T0 65 
		P 135 
		N 0 
		C0 222 
		T0 68 
		P 137 
		N 0 
		C0 223 
		T0 67 
		P 137 
		N 15 
		C0 224 
		T0 68 
		P 138 
		N 15 
		C0 225 
		T0 67 
		P 139 
		N 15 
		C0 226 
		T0 66 
		P 136 
		N 15 
		C0 227 
		T0 65 
		P 133 
		N 1 
		C0 228 
		T0 65 
		P 139 
		N 1 
		C0 229 
		T0 66 
		P 138 
		N 1 
		C0 230 
		T0 67 
		P 134 
		N 1 
		C0 231 
		T0 68 
		P 135 
		N 28 
		C0 232 
		T0 69 
		P 134 
		N 28 
		C0 233 
		T0 70 
		P 138 
		N 28 
		C0 234 
		T0 71 
		P 137 
		N 28 
		C0 235 
		T0 72 
		P 140 
		N 0 
		C0 236 
		T0 3 
		P 141 
		N 0 
		C0 237 
		T0 2 
		P 142 
		N 0 
		C0 238 
		T0 1 
		P 143 
		N 0 
		C0 239 
		T0 0 
		P 144 
		N 1 
		C0 240 
		T0 3 
		P 145 
		N 1 
		C0 241 
		T0 0 
		P 146 
		N 1 
		C0 242 
		T0 1 
		P 147 
		N 1 
		C0 243 
		T0 2 
		P 148 
		N 28 
		C0 244 
		T0 73 
		P 149 
		N 29 
		C0 245 
		T0 74 
		P 150 
		N 29 
		C0 246 
		T0 75 
		P 151 
		N 28 
		C0 247 
		T0 76 
		P 152 
		N 30 
		C0 248 
		T0 77 
		P 153 
		N 30 
		C0 249 
		T0 78 
		P 154 
		N 0 
		C0 250 
		T0 79 
		P 155 
		N 0 
		C0 251 
		T0 80 
		P 156 
		N 31 
		C0 252 
		T0 81 
		P 157 
		N 32 
		C0 253 
		T0 82 
		P 61 
		N 33 
		C0 254 
		T0 83 
		P 42 
		N 33 
		C0 255 
		T0 84 
		P 149 
		N 34 
		C0 256 
		T0 74 
		P 148 
		N 35 
		C0 257 
		T0 73 
		P 158 
		N 15 
		C0 258 
		T0 85 
		P 152 
		N 36 
		C0 259 
		T0 77 
		P 154 
		N 37 
		C0 260 
		T0 79 
		P 156 
		N 38 
		C0 261 
		T0 81 
		P 33 
		N 39 
		C0 262 
		T0 86 
		P 34 
		N 40 
		C0 263 
		T0 87 
		P 159 
		N 41 
		C0 264 
		T0 88 
		P 160 
		N 42 
		C0 265 
		T0 89 
		P 161 
		N 4 
		C0 266 
		T0 90 
		P 162 
		N 43 
		C0 267 
		T0 91 
		P 163 
		N 44 
		C0 268 
		T0 92 
		P 164 
		N 45 
		C0 269 
		T0 93 
		P 41 
		N 46 
		C0 270 
		T0 94 
		P 40 
		N 47 
		C0 271 
		T0 95 
		P 41 
		N 48 
		C0 272 
		T0 94 
		P 164 
		N 31 
		C0 273 
		T0 93 
		P 163 
		N 0 
		C0 274 
		T0 92 
		P 162 
		N 30 
		C0 275 
		T0 91 
		P 160 
		N 29 
		C0 276 
		T0 89 
		P 159 
		N 28 
		C0 277 
		T0 88 
		P 36 
		N 49 
		C0 278 
		T0 96 
		P 165 
		N 50 
		C0 279 
		T0 97 
		P 166 
		N 17 
		C0 280 
		T0 97 
		P 167 
		N 17 
		C0 281 
		T0 98 
		P 39 
		N 28 
		C0 282 
		T0 99 
		P 37 
		N 28 
		C0 283 
		T0 100 
		P 168 
		N 28 
		C0 284 
		T0 101 
		P 169 
		N 28 
		C0 285 
		T0 99 
		P 170 
		N 0 
		C0 286 
		T0 102 
		P 171 
		N 0 
		C0 287 
		T0 103 
		P 167 
		N 0 
		C0 288 
		T0 98 
		P 168 
		N 0 
		C0 289 
		T0 101 
		P 37 
		N 15 
		C0 290 
		T0 100 
		P 36 
		N 15 
		C0 291 
		T0 96 
		P 171 
		N 15 
		C0 292 
		T0 103 
		P 170 
		N 15 
		C0 293 
		T0 102 
		P 171 
		N 17 
		C0 294 
		T0 103 
		P 170 
		N 28 
		C0 295 
		T0 102 
		P 167 
		N 4 
		C0 296 
		T0 98 
		P 166 
		N 4 
		C0 297 
		T0 97 
		P 30 
		N 4 
		C0 298 
		T0 104 
		P 29 
		N 4 
		C0 299 
		T0 105 
		P 172 
		N 4 
		C0 300 
		T0 97 
		P 173 
		N 4 
		C0 301 
		T0 99 
		P 174 
		N 4 
		C0 302 
		T0 106 
		P 175 
		N 4 
		C0 303 
		T0 104 
		P 169 
		N 4 
		C0 304 
		T0 99 
		P 168 
		N 4 
		C0 305 
		T0 101 
		P 32 
		N 4 
		C0 306 
		T0 107 
		P 31 
		N 4 
		C0 307 
		T0 106 
		P 176 
		N 4 
		C0 308 
		T0 99 
		P 177 
		N 4 
		C0 309 
		T0 97 
		P 176 
		N 51 
		C0 310 
		T0 99 
		P 31 
		N 51 
		C0 311 
		T0 106 
		P 174 
		N 51 
		C0 312 
		T0 106 
		P 173 
		N 51 
		C0 313 
		T0 99 
		P 31 
		N 52 
		C0 314 
		T0 106 
		P 30 
		N 52 
		C0 315 
		T0 104 
		P 175 
		N 52 
		C0 316 
		T0 104 
		P 174 
		N 52 
		C0 317 
		T0 106 
		P 30 
		N 53 
		C0 318 
		T0 104 
		P 177 
		N 53 
		C0 319 
		T0 97 
		P 172 
		N 53 
		C0 320 
		T0 97 
		P 175 
		N 53 
		C0 321 
		T0 104 
		P 178 
		N 54 
		C0 322 
		T0 75 
		P 179 
		N 54 
		C0 323 
		T0 74 
		P 180 
		N 55 
		C0 324 
		T0 78 
		P 181 
		N 55 
		C0 325 
		T0 77 
		P 182 
		N 1 
		C0 326 
		T0 80 
		P 183 
		N 1 
		C0 327 
		T0 79 
		P 184 
		N 56 
		C0 328 
		T0 82 
		P 185 
		N 57 
		C0 329 
		T0 81 
		P 179 
		N 58 
		C0 330 
		T0 74 
		P 181 
		N 59 
		C0 331 
		T0 77 
		P 183 
		N 60 
		C0 332 
		T0 79 
		P 185 
		N 61 
		C0 333 
		T0 81 
		P 52 
		N 62 
		C0 334 
		T0 86 
		P 186 
		N 63 
		C0 335 
		T0 89 
		P 187 
		N 64 
		C0 336 
		T0 91 
		P 188 
		N 65 
		C0 337 
		T0 92 
		P 189 
		N 66 
		C0 338 
		T0 93 
		P 57 
		N 67 
		C0 339 
		T0 94 
		P 61 
		N 33 
		C0 340 
		T0 108 
		P 62 
		N 68 
		C0 341 
		T0 109 
		P 58 
		N 68 
		C0 342 
		T0 110 
		P 42 
		N 33 
		C0 343 
		T0 111 
		P 58 
		N 68 
		C0 344 
		T0 84 
		P 62 
		N 68 
		C0 345 
		T0 83 
		P 188 
		N 1 
		C0 346 
		T0 92 
		P 189 
		N 57 
		C0 347 
		T0 93 
		P 187 
		N 55 
		C0 348 
		T0 91 
		P 186 
		N 54 
		C0 349 
		T0 89 
		P 54 
		N 49 
		C0 350 
		T0 96 
		P 190 
		N 17 
		C0 351 
		T0 98 
		P 191 
		N 28 
		C0 352 
		T0 101 
		P 56 
		N 28 
		C0 353 
		T0 100 
		P 192 
		N 1 
		C0 354 
		T0 102 
		P 191 
		N 1 
		C0 355 
		T0 101 
		P 190 
		N 1 
		C0 356 
		T0 98 
		P 193 
		N 1 
		C0 357 
		T0 103 
		P 56 
		N 15 
		C0 358 
		T0 100 
		P 192 
		N 15 
		C0 359 
		T0 102 
		P 193 
		N 15 
		C0 360 
		T0 103 
		P 54 
		N 15 
		C0 361 
		T0 96 
		P 193 
		N 17 
		C0 362 
		T0 103 
		P 192 
		N 28 
		C0 363 
		T0 102 
		P 190 
		N 4 
		C0 364 
		T0 98 
		P 48 
		N 4 
		C0 365 
		T0 105 
		P 51 
		N 4 
		C0 366 
		T0 104 
		P 194 
		N 4 
		C0 367 
		T0 104 
		P 195 
		N 4 
		C0 368 
		T0 106 
		P 50 
		N 4 
		C0 369 
		T0 106 
		P 49 
		N 4 
		C0 370 
		T0 107 
		P 191 
		N 4 
		C0 371 
		T0 101 
		P 195 
		N 51 
		C0 372 
		T0 106 
		P 50 
		N 51 
		C0 373 
		T0 106 
		P 50 
		N 69 
		C0 374 
		T0 106 
		P 195 
		N 69 
		C0 375 
		T0 106 
		P 194 
		N 69 
		C0 376 
		T0 104 
		P 51 
		N 69 
		C0 377 
		T0 104 
		P 51 
		N 53 
		C0 378 
		T0 104 
		P 194 
		N 53 
		C0 379 
		T0 104 
		P 57 
		N 70 
		C0 380 
		T0 94 
		P 33 
		N 48 
		C0 381 
		T0 86 
		P 52 
		N 70 
		C0 382 
		T0 86 
		P 196 
		N 71 
		C0 383 
		T0 112 
		P 197 
		N 71 
		C0 384 
		T0 113 
		P 198 
		N 72 
		C0 385 
		T0 114 
		P 199 
		N 72 
		C0 386 
		T0 115 
		P 72 
		N 0 
		C0 387 
		T0 116 
		P 75 
		N 0 
		C0 388 
		T0 117 
		P 196 
		N 0 
		C0 389 
		T0 112 
		P 199 
		N 0 
		C0 390 
		T0 118 
		P 200 
		N 73 
		C0 391 
		T0 112 
		P 201 
		N 73 
		C0 392 
		T0 113 
		P 76 
		N 0 
		C0 393 
		T0 117 
		P 200 
		N 0 
		C0 394 
		T0 112 
		P 202 
		N 74 
		C0 395 
		T0 115 
		P 203 
		N 74 
		C0 396 
		T0 114 
		P 69 
		N 75 
		C0 397 
		T0 114 
		P 68 
		N 75 
		C0 398 
		T0 115 
		P 78 
		N 0 
		C0 399 
		T0 119 
		P 202 
		N 0 
		C0 400 
		T0 115 
		P 68 
		N 0 
		C0 401 
		T0 115 
		P 71 
		N 0 
		C0 402 
		T0 119 
		P 72 
		N 0 
		C0 403 
		T0 119 
		P 199 
		N 0 
		C0 404 
		T0 115 
		P 64 
		N 0 
		C0 405 
		T0 117 
		P 67 
		N 0 
		C0 406 
		T0 112 
		P 67 
		N 76 
		C0 407 
		T0 112 
		P 66 
		N 76 
		C0 408 
		T0 113 
		P 204 
		N 77 
		C0 409 
		T0 112 
		P 205 
		N 77 
		C0 410 
		T0 113 
		P 206 
		N 28 
		C0 411 
		T0 114 
		P 207 
		N 28 
		C0 412 
		T0 115 
		P 207 
		N 15 
		C0 413 
		T0 40 
		P 206 
		N 15 
		C0 414 
		T0 120 
		P 85 
		N 15 
		C0 415 
		T0 50 
		P 84 
		N 15 
		C0 416 
		T0 49 
		P 84 
		N 0 
		C0 417 
		T0 116 
		P 87 
		N 0 
		C0 418 
		T0 117 
		P 204 
		N 0 
		C0 419 
		T0 112 
		P 207 
		N 0 
		C0 420 
		T0 118 
		P 208 
		N 78 
		C0 421 
		T0 112 
		P 209 
		N 78 
		C0 422 
		T0 113 
		P 89 
		N 0 
		C0 423 
		T0 117 
		P 208 
		N 0 
		C0 424 
		T0 112 
		P 205 
		N 1 
		C0 425 
		T0 117 
		P 209 
		N 1 
		C0 426 
		T0 121 
		P 88 
		N 1 
		C0 427 
		T0 122 
		P 86 
		N 1 
		C0 428 
		T0 123 
		P 80 
		N 0 
		C0 429 
		T0 117 
		P 83 
		N 0 
		C0 430 
		T0 112 
		P 83 
		N 76 
		C0 431 
		T0 112 
		P 82 
		N 76 
		C0 432 
		T0 113 
		P 82 
		N 1 
		C0 433 
		T0 124 
		P 81 
		N 1 
		C0 434 
		T0 125 
		P 210 
		N 71 
		C0 435 
		T0 112 
		P 211 
		N 72 
		C0 436 
		T0 115 
		P 212 
		N 72 
		C0 437 
		T0 114 
		P 213 
		N 71 
		C0 438 
		T0 113 
		P 106 
		N 1 
		C0 439 
		T0 116 
		P 211 
		N 1 
		C0 440 
		T0 118 
		P 210 
		N 1 
		C0 441 
		T0 112 
		P 107 
		N 1 
		C0 442 
		T0 117 
		P 214 
		N 73 
		C0 443 
		T0 113 
		P 215 
		N 73 
		C0 444 
		T0 112 
		P 215 
		N 1 
		C0 445 
		T0 112 
		P 110 
		N 1 
		C0 446 
		T0 117 
		P 216 
		N 74 
		C0 447 
		T0 115 
		P 102 
		N 75 
		C0 448 
		T0 115 
		P 105 
		N 75 
		C0 449 
		T0 114 
		P 217 
		N 74 
		C0 450 
		T0 114 
		P 113 
		N 1 
		C0 451 
		T0 119 
		P 103 
		N 1 
		C0 452 
		T0 119 
		P 102 
		N 1 
		C0 453 
		T0 115 
		P 216 
		N 1 
		C0 454 
		T0 115 
		P 106 
		N 1 
		C0 455 
		T0 119 
		P 211 
		N 1 
		C0 456 
		T0 115 
		P 99 
		N 1 
		C0 457 
		T0 112 
		P 98 
		N 1 
		C0 458 
		T0 117 
		P 100 
		N 76 
		C0 459 
		T0 113 
		P 99 
		N 76 
		C0 460 
		T0 112 
		P 218 
		N 77 
		C0 461 
		T0 112 
		P 219 
		N 28 
		C0 462 
		T0 115 
		P 220 
		N 28 
		C0 463 
		T0 114 
		P 221 
		N 77 
		C0 464 
		T0 113 
		P 219 
		N 15 
		C0 465 
		T0 40 
		P 118 
		N 15 
		C0 466 
		T0 49 
		P 121 
		N 15 
		C0 467 
		T0 50 
		P 220 
		N 15 
		C0 468 
		T0 120 
		P 118 
		N 1 
		C0 469 
		T0 116 
		P 219 
		N 1 
		C0 470 
		T0 118 
		P 218 
		N 1 
		C0 471 
		T0 112 
		P 119 
		N 1 
		C0 472 
		T0 117 
		P 222 
		N 78 
		C0 473 
		T0 113 
		P 223 
		N 78 
		C0 474 
		T0 112 
		P 223 
		N 1 
		C0 475 
		T0 112 
		P 122 
		N 1 
		C0 476 
		T0 117 
		P 221 
		N 0 
		C0 477 
		T0 117 
		P 120 
		N 0 
		C0 478 
		T0 123 
		P 123 
		N 0 
		C0 479 
		T0 122 
		P 222 
		N 0 
		C0 480 
		T0 121 
		P 115 
		N 1 
		C0 481 
		T0 112 
		P 114 
		N 1 
		C0 482 
		T0 117 
		P 116 
		N 76 
		C0 483 
		T0 113 
		P 115 
		N 76 
		C0 484 
		T0 112 
		P 117 
		N 0 
		C0 485 
		T0 125 
		P 116 
		N 0 
		C0 486 
		T0 124 
		P 165 
		N 50 
		C0 487 
		T0 126 
		P 55 
		N 79 
		C0 488 
		T0 127 
		P 54 
		N 49 
		C0 489 
		T0 113 
		P 43 
		N 80 
		C0 490 
		T0 128 
		P 42 
		N 80 
		C0 491 
		T0 111 
		P 58 
		N 80 
		C0 492 
		T0 110 
		P 46 
		N 80 
		C0 493 
		T0 129 
		P 38 
		N 79 
		C0 494 
		T0 130 
		P 36 
		N 49 
		C0 495 
		T0 124 
		P 60 
		N 81 
		C0 496 
		T0 131 
		P 63 
		N 81 
		C0 497 
		T0 132 
		P 62 
		N 81 
		C0 498 
		T0 109 
		P 61 
		N 81 
		C0 499 
		T0 108 
		P 35 
		N 82 
		C0 500 
		T0 117 
		P 53 
		N 82 
		C0 501 
		T0 112 
		P 63 
		N 82 
		C0 502 
		T0 132 
		P 60 
		N 82 
		C0 503 
		T0 131 
		P 224 
		N 4 
		C0 504 
		T0 133 
		P 225 
		N 4 
		C0 505 
		T0 134 
		P 226 
		N 4 
		C0 506 
		T0 135 
		P 227 
		N 4 
		C0 507 
		T0 136 
		P 228 
		N 4 
		C0 508 
		T0 133 
		P 229 
		N 4 
		C0 509 
		T0 134 
		P 230 
		N 4 
		C0 510 
		T0 135 
		P 231 
		N 4 
		C0 511 
		T0 136 
		P 232 
		N 4 
		C0 512 
		T0 133 
		P 233 
		N 4 
		C0 513 
		T0 136 
		P 234 
		N 4 
		C0 514 
		T0 135 
		P 235 
		N 4 
		C0 515 
		T0 134 
		P 236 
		N 4 
		C0 516 
		T0 133 
		P 237 
		N 4 
		C0 517 
		T0 136 
		P 238 
		N 4 
		C0 518 
		T0 135 
		P 239 
		N 4 
		C0 519 
		T0 134 
	}

	Mtl 4 { 
		{
			Name "#0" 
			Priority 32 
			Prim 53 { 
				{
					Type TRISTRIP
					Priority 32 
					Idx 4 { 3 0 2 1 }
				}
				{
					Type TRISTRIP
					Priority 32 
					Idx 4 { 5 6 4 7 }
				}
				{
					Type TRISTRIP
					Priority 32 
					Idx 6 { 23 24 26 25 28 27 }
				}
				{
					Type TRISTRIP
					Priority 32 
					Idx 4 { 29 30 32 31 }
				}
				{
					Type TRISTRIP
					Priority 32 
					Idx 5 { 36 37 38 43 44 }
				}
				{
					Type TRISTRIP2
					Priority 32 
					Idx 6 { 17 20 18 19 21 22 }
				}
				{
					Type TRISTRIP2
					Priority 32 
					Idx 3 { 43 45 37 }
				}
				{
					Type TRISTRIP
					Priority 32 
					Idx 4 { 47 48 46 49 }
				}
				{
					Type TRISTRIP
					Priority 32 
					Idx 4 { 51 52 50 53 }
				}
				{
					Type TRISTRIP
					Priority 32 
					Idx 4 { 57 54 56 55 }
				}
				{
					Type TRISTRIP
					Priority 32 
					Idx 5 { 60 61 62 65 66 }
				}
				{
					Type TRISTRIP2
					Priority 32 
					Idx 6 { 39 42 40 41 63 64 }
				}
				{
					Type TRISTRIP2
					Priority 32 
					Idx 4 { 68 71 69 70 }
				}
				{
					Type TRISTRIP2
					Priority 32 
					Idx 4 { 72 75 73 74 }
				}
				{
					Type TRISTRIP2
					Priority 32 
					Idx 4 { 79 78 76 77 }
				}
				{
					Type TRISTRIP2
					Priority 32 
					Idx 4 { 81 80 82 83 }
				}
				{
					Type TRISTRIP2
					Priority 32 
					Idx 4 { 87 86 84 85 }
				}
				{
					Type TRISTRIP2
					Priority 32 
					Idx 4 { 88 91 89 90 }
				}
				{
					Type TRISTRIP2
					Priority 32 
					Idx 4 { 92 95 93 94 }
				}
				{
					Type TRISTRIP2
					Priority 32 
					Idx 4 { 116 119 117 118 }
				}
				{
					Type TRISTRIP2
					Priority 32 
					Idx 4 { 128 131 129 130 }
				}
				{
					Type TRISTRIP2
					Priority 32 
					Idx 4 { 135 134 132 133 }
				}
				{
					Type TRISTRIP2
					Priority 32 
					Idx 4 { 136 139 137 138 }
				}
				{
					Type TRISTRIP2
					Priority 32 
					Idx 4 { 143 142 140 141 }
				}
				{
					Type TRISTRIP2
					Priority 32 
					Idx 4 { 147 146 144 145 }
				}
				{
					Type TRISTRIP2
					Priority 32 
					Idx 4 { 149 148 150 151 }
				}
				{
					Type TRISTRIP2
					Priority 32 
					Idx 4 { 155 154 152 153 }
				}
				{
					Type TRISTRIP2
					Priority 32 
					Idx 4 { 159 158 156 157 }
				}
				{
					Type TRISTRIP2
					Priority 32 
					Idx 6 { 175 174 176 177 178 179 }
				}
				{
					Type TRISTRIP2
					Priority 32 
					Idx 4 { 183 182 180 181 }
				}
				{
					Type TRISTRIP2
					Priority 32 
					Idx 4 { 195 194 192 193 }
				}
				{
					Type TRISTRIP2
					Priority 32 
					Idx 4 { 198 197 199 196 }
				}
				{
					Type TRISTRIP2
					Priority 32 
					Idx 4 { 203 202 200 201 }
				}
				{
					Type TRISTRIP2
					Priority 32 
					Idx 4 { 205 204 206 207 }
				}
				{
					Type TRISTRIP2
					Priority 32 
					Idx 4 { 209 208 210 211 }
				}
				{
					Type TRISTRIP2
					Priority 32 
					Idx 4 { 212 215 213 214 }
				}
				{
					Type TRISTRIP2
					Priority 32 
					Idx 4 { 216 219 217 218 }
				}
				{
					Type TRISTRIP2
					Priority 32 
					Idx 4 { 220 223 221 222 }
				}
				{
					Type TRISTRIP2
					Priority 32 
					Idx 4 { 227 226 224 225 }
				}
				{
					Type TRISTRIP2
					Priority 32 
					Idx 4 { 229 228 230 231 }
				}
				{
					Type TRISTRIP2
					Priority 32 
					Idx 4 { 235 234 232 233 }
				}
				{
					Type TRISTRIP2
					Priority 32 
					Idx 4 { 239 238 236 237 }
				}
				{
					Type TRISTRIP2
					Priority 32 
					Idx 4 { 241 240 242 243 }
				}
				{
					Type TRISTRIP2
					Priority 32 
					Idx 9 { 190 188 191 188 189 185 186 184 187 }
				}
				{
					Type TRISTRIP
					Priority 32 
					Idx 8 { 98 99 97 96 105 104 107 106 }
				}
				{
					Type TRISTRIP
					Priority 32 
					Idx 6 { 102 103 101 100 109 108 }
				}
				{
					Type TRISTRIP
					Priority 32 
					Idx 6 { 113 110 112 111 115 114 }
				}
				{
					Type TRISTRIP
					Priority 32 
					Idx 8 { 120 121 123 122 125 124 127 126 }
				}
				{
					Type TRISTRIP
					Priority 32 
					Idx 8 { 161 162 160 163 169 168 171 170 }
				}
				{
					Type TRISTRIP
					Priority 32 
					Idx 6 { 165 166 164 167 172 173 }
				}
				{
					Type TRISTRIP
					Priority 32 
					Idx 13 { 8 9 11 10 13 10 12 10 15 10 14 9 16 }
				}
				{
					Type TRISTRIP2
					Priority 32 
					Idx 5 { 33 35 34 59 58 }
				}
				{
					Type TRISTRIP
					Priority 32 
					Idx 3 { 67 65 61 }
				}
			}

		}
		{
			Name "#5" 
			Priority 32 
			Prim 33 { 
				{
					Type TRISTRIP
					Priority 32 
					Idx 7 { 272 273 255 253 254 252 381 }
				}
				{
					Type TRISTRIP2
					Priority 32 
					Idx 4 { 287 286 288 289 }
				}
				{
					Type TRISTRIP2
					Priority 32 
					Idx 4 { 292 291 293 290 }
				}
				{
					Type TRISTRIP2
					Priority 32 
					Idx 8 { 295 283 284 282 285 353 352 363 }
				}
				{
					Type TRISTRIP2
					Priority 32 
					Idx 6 { 303 302 300 301 367 368 }
				}
				{
					Type TRISTRIP2
					Priority 32 
					Idx 6 { 312 311 313 310 372 373 }
				}
				{
					Type TRISTRIP2
					Priority 32 
					Idx 4 { 316 315 317 314 }
				}
				{
					Type TRISTRIP2
					Priority 32 
					Idx 4 { 340 343 341 342 }
				}
				{
					Type TRISTRIP2
					Priority 32 
					Idx 4 { 357 356 354 355 }
				}
				{
					Type TRISTRIP2
					Priority 32 
					Idx 4 { 361 360 358 359 }
				}
				{
					Type TRISTRIP2
					Priority 32 
					Idx 4 { 376 375 377 374 }
				}
				{
					Type TRISTRIP2
					Priority 32 
					Idx 7 { 380 347 344 328 345 329 382 }
				}
				{
					Type TRISTRIP
					Priority 32 
					Idx 8 { 294 278 281 279 280 350 351 362 }
				}
				{
					Type TRISTRIP
					Priority 32 
					Idx 6 { 321 318 320 319 379 378 }
				}
				{
					Type TRISTRIP
					Priority 32 
					Idx 6 { 401 402 400 399 404 403 }
				}
				{
					Type TRISTRIP
					Priority 32 
					Idx 4 { 416 413 415 414 }
				}
				{
					Type TRISTRIP
					Priority 32 
					Idx 6 { 428 425 427 426 434 433 }
				}
				{
					Type TRISTRIP
					Priority 32 
					Idx 4 { 467 468 466 465 }
				}
				{
					Type TRISTRIP
					Priority 32 
					Idx 8 { 469 470 472 471 476 475 482 481 }
				}
				{
					Type TRISTRIP
					Priority 32 
					Idx 13 { 460 444 459 444 443 435 438 436 437 447 450 448 449 }
				}
				{
					Type TRISTRIP2
					Priority 32 
					Idx 12 { 398 397 395 396 386 385 383 384 391 392 407 408 }
				}
				{
					Type TRISTRIP2
					Priority 32 
					Idx 8 { 412 411 409 410 421 422 431 432 }
				}
				{
					Type TRISTRIP2
					Priority 32 
					Idx 8 { 417 420 418 419 423 424 429 430 }
				}
				{
					Type TRISTRIP2
					Priority 32 
					Idx 6 { 453 452 454 451 456 455 }
				}
				{
					Type TRISTRIP2
					Priority 32 
					Idx 8 { 463 462 464 461 473 474 483 484 }
				}
				{
					Type TRISTRIP2
					Priority 32 
					Idx 6 { 478 477 479 480 485 486 }
				}
				{
					Type TRISTRIP2
					Priority 32 
					Idx 9 { 440 439 441 442 441 446 445 458 457 }
				}
				{
					Type TRISTRIP
					Priority 32 
					Idx 9 { 390 387 389 388 389 393 394 405 406 }
				}
				{
					Type TRISTRIP2
					Priority 32 
					Idx 25 { 252 250 253 251 273 251 274 249 275 246 276 247 277 322 349 322 348 324 346 326 347 326 328 327 329 }
				}
				{
					Type TRISTRIP
					Priority 32 
					Idx 15 { 250 251 248 249 245 246 244 247 323 322 323 324 325 326 327 }
				}
				{
					Type TRISTRIP2
					Priority 32 
					Idx 22 { 298 309 297 366 364 365 364 370 371 369 304 308 304 307 305 306 305 299 296 299 297 298 }
				}
				{
					Type TRISTRIP2
					Priority 32 
					Idx 23 { 257 256 258 259 258 260 258 261 258 262 258 263 258 334 258 333 258 332 258 331 258 330 257 }
				}
				{
					Type TRISTRIP
					Priority 32 
					Idx 23 { 264 265 266 267 266 268 266 269 266 270 266 271 266 339 266 338 266 337 266 336 266 335 264 }
				}
			}

		}
		{
			Name "#1" 
			Priority 32 
			Prim 4 { 
				{
					Type TRISTRIP
					Priority 32 
					Idx 4 { 491 492 490 493 }
				}
				{
					Type TRISTRIP
					Priority 32 
					Idx 5 { 495 494 487 488 489 }
				}
				{
					Type TRISTRIP2
					Priority 32 
					Idx 4 { 496 499 497 498 }
				}
				{
					Type TRISTRIP2
					Priority 32 
					Idx 4 { 500 503 501 502 }
				}
			}

		}
		{
			Name "#6" 
			Priority 32 
			Prim 4 { 
				{
					Type TRISTRIP
					Priority 32 
					Idx 4 { 504 505 507 506 }
				}
				{
					Type TRISTRIP
					Priority 32 
					Idx 4 { 508 509 511 510 }
				}
				{
					Type TRISTRIP
					Priority 32 
					Idx 4 { 515 512 514 513 }
				}
				{
					Type TRISTRIP
					Priority 32 
					Idx 4 { 519 516 518 517 }
				}
			}

		}
	}

	Offset 0 
}
