{
	Skinned 0 
	PosSkin 0 
	Pos 12 { 
		1.472571	2.623019	4.882244 
		1.407382	2.713851	4.845407 
		1.260038	2.713851	4.845407 
		1.194849	2.623019	4.882244 
		1.472571	2.623019	4.366718 
		1.407382	2.713851	4.404975 
		1.260038	2.713851	4.404975 
		1.194849	2.623019	4.366718 
		1.433950	2.532187	4.845407 
		1.233470	2.532187	4.845407 
		1.233470	2.532187	4.404975 
		1.433950	2.532187	4.404975 
	}

	Nrm 9 { 
		0.000000	0.375000	0.921875 
		0.812500	0.578125	0.000000 
		0.000000	1.000000	0.000000 
		-0.812500	0.578125	0.000000 
		0.000000	0.390625	-0.921875 
		0.000000	-0.375000	0.921875 
		-0.921875	-0.390625	0.000000 
		0.921875	-0.390625	0.000000 
		0.000000	-0.390625	-0.921875 
	}

	Cpv 40 { 
		0.500000	0.500000	0.500000	0.003922 
		0.500000	0.500000	0.500000	0.003922 
		0.500000	0.500000	0.500000	0.003922 
		0.500000	0.500000	0.500000	0.003922 
		0.500000	0.500000	0.500000	0.003922 
		0.500000	0.500000	0.500000	0.003922 
		0.500000	0.500000	0.500000	0.003922 
		0.500000	0.500000	0.500000	0.003922 
		0.500000	0.500000	0.500000	0.003922 
		0.500000	0.500000	0.500000	0.003922 
		0.500000	0.500000	0.500000	0.003922 
		0.500000	0.500000	0.500000	0.003922 
		0.500000	0.500000	0.500000	0.003922 
		0.500000	0.500000	0.500000	0.003922 
		0.500000	0.500000	0.500000	0.003922 
		0.500000	0.500000	0.500000	0.003922 
		0.500000	0.500000	0.500000	0.003922 
		0.500000	0.500000	0.500000	0.003922 
		0.500000	0.500000	0.500000	0.003922 
		0.500000	0.500000	0.500000	0.003922 
		0.500000	0.500000	0.500000	0.003922 
		0.500000	0.500000	0.500000	0.003922 
		0.500000	0.500000	0.500000	0.003922 
		0.500000	0.500000	0.500000	0.003922 
		0.500000	0.500000	0.500000	0.003922 
		0.500000	0.500000	0.500000	0.003922 
		0.500000	0.500000	0.500000	0.003922 
		0.500000	0.500000	0.500000	0.003922 
		0.500000	0.500000	0.500000	0.003922 
		0.500000	0.500000	0.500000	0.003922 
		0.500000	0.500000	0.500000	0.003922 
		0.500000	0.500000	0.500000	0.003922 
		0.500000	0.500000	0.500000	0.003922 
		0.500000	0.500000	0.500000	0.003922 
		0.500000	0.500000	0.500000	0.003922 
		0.500000	0.500000	0.500000	0.003922 
		0.500000	0.500000	0.500000	0.003922 
		0.500000	0.500000	0.500000	0.003922 
		0.500000	0.500000	0.500000	0.003922 
		0.500000	0.500000	0.500000	0.003922 
	}

	Tex0 19 { 
		0.855469	0.451172 
		0.852539	0.456055 
		0.852539	0.466797 
		0.855469	0.472656 
		0.815430	0.451172 
		0.818359	0.456055 
		0.818359	0.466797 
		0.815430	0.472656 
		0.230469	0.283203 
		0.233398	0.275391 
		0.215820	0.275391 
		0.219727	0.283203 
		0.182617	0.283203 
		0.215820	0.283203 
		0.184570	0.275391 
		0.066406	0.438477 
		0.005859	0.438477 
		0.005859	0.467773 
		0.066406	0.467773 
	}

	Tex1 0 
	Adj 40 { 
		P 0 
		N 0 
		C0 0 
		T0 0 
		P 1 
		N 0 
		C0 1 
		T0 1 
		P 2 
		N 0 
		C0 2 
		T0 2 
		P 3 
		N 0 
		C0 3 
		T0 3 
		P 1 
		N 1 
		C0 4 
		T0 1 
		P 0 
		N 1 
		C0 5 
		T0 0 
		P 4 
		N 1 
		C0 6 
		T0 4 
		P 5 
		N 1 
		C0 7 
		T0 5 
		P 2 
		N 2 
		C0 8 
		T0 2 
		P 1 
		N 2 
		C0 9 
		T0 1 
		P 5 
		N 2 
		C0 10 
		T0 5 
		P 6 
		N 2 
		C0 11 
		T0 6 
		P 3 
		N 3 
		C0 12 
		T0 3 
		P 2 
		N 3 
		C0 13 
		T0 2 
		P 6 
		N 3 
		C0 14 
		T0 6 
		P 7 
		N 3 
		C0 15 
		T0 7 
		P 6 
		N 4 
		C0 16 
		T0 6 
		P 5 
		N 4 
		C0 17 
		T0 5 
		P 4 
		N 4 
		C0 18 
		T0 4 
		P 7 
		N 4 
		C0 19 
		T0 7 
		P 8 
		N 5 
		C0 20 
		T0 8 
		P 0 
		N 5 
		C0 21 
		T0 9 
		P 3 
		N 5 
		C0 22 
		T0 10 
		P 9 
		N 5 
		C0 23 
		T0 11 
		P 3 
		N 6 
		C0 24 
		T0 12 
		P 7 
		N 6 
		C0 25 
		T0 13 
		P 10 
		N 6 
		C0 26 
		T0 10 
		P 9 
		N 6 
		C0 27 
		T0 14 
		P 3 
		N 2 
		C0 28 
		T0 15 
		P 0 
		N 2 
		C0 29 
		T0 16 
		P 4 
		N 2 
		C0 30 
		T0 17 
		P 7 
		N 2 
		C0 31 
		T0 18 
		P 4 
		N 7 
		C0 32 
		T0 13 
		P 0 
		N 7 
		C0 33 
		T0 12 
		P 8 
		N 7 
		C0 34 
		T0 14 
		P 11 
		N 7 
		C0 35 
		T0 10 
		P 7 
		N 8 
		C0 36 
		T0 9 
		P 4 
		N 8 
		C0 37 
		T0 10 
		P 11 
		N 8 
		C0 38 
		T0 11 
		P 10 
		N 8 
		C0 39 
		T0 8 
	}

	Mtl 1 { 
		{
			Name "#2" 
			Priority 32 
			Prim 10 { 
				{
					Type TRISTRIP
					Priority 32 
					Idx 4 { 2 3 1 0 }
				}
				{
					Type TRISTRIP
					Priority 32 
					Idx 4 { 7 4 6 5 }
				}
				{
					Type TRISTRIP
					Priority 32 
					Idx 4 { 11 8 10 9 }
				}
				{
					Type TRISTRIP
					Priority 32 
					Idx 4 { 15 12 14 13 }
				}
				{
					Type TRISTRIP
					Priority 32 
					Idx 4 { 19 16 18 17 }
				}
				{
					Type TRISTRIP
					Priority 32 
					Idx 4 { 23 20 22 21 }
				}
				{
					Type TRISTRIP
					Priority 32 
					Idx 4 { 26 27 25 24 }
				}
				{
					Type TRISTRIP
					Priority 32 
					Idx 4 { 31 28 30 29 }
				}
				{
					Type TRISTRIP
					Priority 32 
					Idx 4 { 35 32 34 33 }
				}
				{
					Type TRISTRIP
					Priority 32 
					Idx 4 { 39 36 38 37 }
				}
			}

		}
	}

	Offset 0 
}
