{
	Skinned 0 
	PosSkin 0 
	Pos 16 { 
		-0.497176	1.766732	3.056679 
		0.497176	1.766732	3.056679 
		0.497176	2.681255	3.152430 
		-0.497176	2.681255	3.152430 
		0.497176	2.414425	2.323560 
		-0.497176	2.414425	2.323560 
		0.497176	1.766732	2.144633 
		-0.497176	1.766732	2.144633 
		0.843656	1.629460	1.815980 
		-0.843656	1.629460	1.815980 
		0.843656	1.629460	3.363630 
		-0.843656	1.629460	3.363630 
		0.843656	1.422853	1.815980 
		-0.843656	1.422853	1.815980 
		0.843656	1.422853	3.363630 
		-0.843656	1.422853	3.363630 
	}

	Nrm 11 { 
		0.000000	-0.109375	1.000000 
		0.000000	0.953125	-0.312500 
		0.000000	0.265625	-0.968750 
		1.000000	0.000000	0.000000 
		-1.000000	0.000000	0.000000 
		-0.187500	0.968750	-0.203125 
		0.187500	0.968750	-0.203125 
		0.187500	0.953125	0.218750 
		-0.187500	0.953125	0.218750 
		0.000000	0.000000	-1.000000 
		0.000000	0.000000	1.000000 
	}

	Cpv 44 { 
		0.500000	0.500000	0.500000	0.000000 
		0.500000	0.500000	0.500000	0.000000 
		0.500000	0.500000	0.500000	0.003922 
		0.500000	0.500000	0.500000	0.003922 
		0.500000	0.500000	0.500000	0.003922 
		0.500000	0.500000	0.500000	0.003922 
		0.500000	0.500000	0.500000	0.003922 
		0.500000	0.500000	0.500000	0.003922 
		0.500000	0.500000	0.500000	0.003922 
		0.500000	0.500000	0.500000	0.003922 
		0.500000	0.500000	0.500000	0.000000 
		0.500000	0.500000	0.500000	0.000000 
		0.500000	0.500000	0.500000	0.000000 
		0.500000	0.500000	0.500000	0.000000 
		0.500000	0.500000	0.500000	0.003922 
		0.500000	0.500000	0.500000	0.003922 
		0.500000	0.500000	0.500000	0.000000 
		0.500000	0.500000	0.500000	0.000000 
		0.500000	0.500000	0.500000	0.003922 
		0.500000	0.500000	0.500000	0.003922 
		0.500000	0.500000	0.500000	0.000000 
		0.500000	0.500000	0.500000	0.000000 
		0.500000	0.500000	0.500000	0.000000 
		0.500000	0.500000	0.500000	0.000000 
		0.500000	0.500000	0.500000	0.000000 
		0.500000	0.500000	0.500000	0.000000 
		0.500000	0.500000	0.500000	0.000000 
		0.500000	0.500000	0.500000	0.000000 
		0.500000	0.500000	0.500000	0.000000 
		0.500000	0.500000	0.500000	0.000000 
		0.500000	0.500000	0.500000	0.000000 
		0.500000	0.500000	0.500000	0.000000 
		0.500000	0.500000	0.500000	0.000000 
		0.500000	0.500000	0.500000	0.000000 
		0.500000	0.500000	0.500000	0.000000 
		0.500000	0.500000	0.500000	0.000000 
		0.500000	0.500000	0.500000	0.000000 
		0.500000	0.500000	0.500000	0.000000 
		0.500000	0.500000	0.500000	0.000000 
		0.500000	0.500000	0.500000	0.000000 
		0.500000	0.500000	0.500000	0.000000 
		0.500000	0.500000	0.500000	0.000000 
		0.500000	0.500000	0.500000	0.000000 
		0.500000	0.500000	0.500000	0.000000 
	}

	Tex0 24 { 
		0.764648	0.624023 
		0.906250	0.624023 
		0.906250	0.754883 
		0.764648	0.754883 
		0.489258	0.934570 
		0.489258	0.790039 
		0.568359	0.790039 
		0.568359	0.934570 
		0.756836	0.646484 
		0.635742	0.625977 
		0.645508	0.715820 
		0.749023	0.769531 
		0.909180	0.338867 
		0.970703	0.338867 
		0.992188	0.359375 
		0.887695	0.359375 
		0.970703	0.283203 
		0.992188	0.263672 
		0.909180	0.283203 
		0.887695	0.263672 
		0.037109	0.752930 
		0.037109	0.857422 
		0.067383	0.857422 
		0.067383	0.752930 
	}

	Tex1 0 
	Adj 44 { 
		P 0 
		N 0 
		C0 0 
		T0 0 
		P 1 
		N 0 
		C0 1 
		T0 1 
		P 2 
		N 0 
		C0 2 
		T0 2 
		P 3 
		N 0 
		C0 3 
		T0 3 
		P 3 
		N 1 
		C0 4 
		T0 4 
		P 2 
		N 1 
		C0 5 
		T0 5 
		P 4 
		N 1 
		C0 6 
		T0 6 
		P 5 
		N 1 
		C0 7 
		T0 7 
		P 5 
		N 2 
		C0 8 
		T0 4 
		P 4 
		N 2 
		C0 9 
		T0 5 
		P 6 
		N 2 
		C0 10 
		T0 6 
		P 7 
		N 2 
		C0 11 
		T0 7 
		P 1 
		N 3 
		C0 12 
		T0 8 
		P 6 
		N 3 
		C0 13 
		T0 9 
		P 4 
		N 3 
		C0 14 
		T0 10 
		P 2 
		N 3 
		C0 15 
		T0 11 
		P 7 
		N 4 
		C0 16 
		T0 9 
		P 0 
		N 4 
		C0 17 
		T0 8 
		P 3 
		N 4 
		C0 18 
		T0 11 
		P 5 
		N 4 
		C0 19 
		T0 10 
		P 7 
		N 5 
		C0 20 
		T0 12 
		P 6 
		N 6 
		C0 21 
		T0 13 
		P 8 
		N 6 
		C0 22 
		T0 14 
		P 9 
		N 5 
		C0 23 
		T0 15 
		P 1 
		N 7 
		C0 24 
		T0 16 
		P 10 
		N 7 
		C0 25 
		T0 17 
		P 0 
		N 8 
		C0 26 
		T0 18 
		P 11 
		N 8 
		C0 27 
		T0 19 
		P 9 
		N 9 
		C0 28 
		T0 20 
		P 8 
		N 9 
		C0 29 
		T0 21 
		P 12 
		N 9 
		C0 30 
		T0 22 
		P 13 
		N 9 
		C0 31 
		T0 23 
		P 8 
		N 3 
		C0 32 
		T0 20 
		P 10 
		N 3 
		C0 33 
		T0 21 
		P 14 
		N 3 
		C0 34 
		T0 22 
		P 12 
		N 3 
		C0 35 
		T0 23 
		P 10 
		N 10 
		C0 36 
		T0 20 
		P 11 
		N 10 
		C0 37 
		T0 21 
		P 15 
		N 10 
		C0 38 
		T0 22 
		P 14 
		N 10 
		C0 39 
		T0 23 
		P 11 
		N 4 
		C0 40 
		T0 21 
		P 9 
		N 4 
		C0 41 
		T0 20 
		P 13 
		N 4 
		C0 42 
		T0 23 
		P 15 
		N 4 
		C0 43 
		T0 22 
	}

	Mtl 1 { 
		{
			Name "#2" 
			Priority 32 
			Prim 10 { 
				{
					Type TRISTRIP
					Priority 32 
					Idx 4 { 0 1 3 2 }
				}
				{
					Type TRISTRIP
					Priority 32 
					Idx 4 { 7 4 6 5 }
				}
				{
					Type TRISTRIP
					Priority 32 
					Idx 4 { 11 8 10 9 }
				}
				{
					Type TRISTRIP
					Priority 32 
					Idx 4 { 13 14 12 15 }
				}
				{
					Type TRISTRIP
					Priority 32 
					Idx 4 { 16 17 19 18 }
				}
				{
					Type TRISTRIP
					Priority 32 
					Idx 4 { 31 28 30 29 }
				}
				{
					Type TRISTRIP
					Priority 32 
					Idx 4 { 35 32 34 33 }
				}
				{
					Type TRISTRIP
					Priority 32 
					Idx 4 { 38 39 37 36 }
				}
				{
					Type TRISTRIP
					Priority 32 
					Idx 4 { 42 43 41 40 }
				}
				{
					Type TRISTRIP
					Priority 32 
					Idx 12 { 27 25 24 22 21 22 20 23 20 27 26 24 }
				}
			}

		}
	}

	Offset 0 
}
