{
	Skinned 0 
	PosSkin 0 
	Pos 24 { 
		1.222172	2.959306	-1.652142 
		1.127520	3.050138	-1.688978 
		0.980177	3.050138	-1.688978 
		0.885525	2.959306	-1.652142 
		1.222172	2.959306	-2.167667 
		1.127520	3.050138	-2.167667 
		0.980177	3.050138	-2.167667 
		0.885525	2.959306	-2.167667 
		1.222172	2.959306	-2.683193 
		0.885525	2.959306	-2.683193 
		0.980177	3.050138	-2.646356 
		1.127520	3.050138	-2.646356 
		1.154089	2.868474	-1.688979 
		0.953609	2.868474	-1.688979 
		0.953609	2.815807	-1.688979 
		1.154089	2.815807	-1.688979 
		0.953609	2.868474	-2.167667 
		0.953609	2.815807	-2.167667 
		1.154089	2.868474	-2.167667 
		1.154089	2.815807	-2.167667 
		1.154089	2.868474	-2.646356 
		0.953609	2.868474	-2.646356 
		1.154089	2.815807	-2.646356 
		0.953609	2.815807	-2.646356 
	}

	Nrm 13 { 
		0.000000	0.375000	0.921875 
		0.687500	0.718750	0.000000 
		0.000000	1.000000	0.000000 
		-0.687500	0.718750	0.000000 
		0.000000	0.375000	-0.921875 
		0.000000	-0.375000	0.921875 
		0.000000	0.000000	1.000000 
		-1.000000	0.000000	0.000000 
		-0.796875	-0.593750	0.000000 
		1.000000	0.000000	0.000000 
		0.796875	-0.593750	0.000000 
		0.000000	-0.375000	-0.921875 
		0.000000	0.000000	-1.000000 
	}

	Cpv 72 { 
		0.500000	0.500000	0.500000	0.003922 
		0.500000	0.500000	0.500000	0.003922 
		0.500000	0.500000	0.500000	0.003922 
		0.500000	0.500000	0.500000	0.003922 
		0.500000	0.500000	0.500000	0.003922 
		0.500000	0.500000	0.500000	0.003922 
		0.500000	0.500000	0.500000	0.003922 
		0.500000	0.500000	0.500000	0.003922 
		0.500000	0.500000	0.500000	0.003922 
		0.500000	0.500000	0.500000	0.003922 
		0.500000	0.500000	0.500000	0.003922 
		0.500000	0.500000	0.500000	0.003922 
		0.500000	0.500000	0.500000	0.003922 
		0.500000	0.500000	0.500000	0.003922 
		0.500000	0.500000	0.500000	0.003922 
		0.500000	0.500000	0.500000	0.003922 
		0.500000	0.500000	0.500000	0.003922 
		0.500000	0.500000	0.500000	0.003922 
		0.500000	0.500000	0.500000	0.003922 
		0.500000	0.500000	0.500000	0.003922 
		0.500000	0.500000	0.500000	0.003922 
		0.500000	0.500000	0.500000	0.003922 
		0.500000	0.500000	0.500000	0.003922 
		0.500000	0.500000	0.500000	0.003922 
		0.500000	0.500000	0.500000	0.003922 
		0.500000	0.500000	0.500000	0.003922 
		0.500000	0.500000	0.500000	0.003922 
		0.500000	0.500000	0.500000	0.003922 
		0.500000	0.500000	0.500000	0.003922 
		0.500000	0.500000	0.500000	0.003922 
		0.500000	0.500000	0.500000	0.003922 
		0.500000	0.500000	0.500000	0.003922 
		0.500000	0.500000	0.500000	0.003922 
		0.500000	0.500000	0.500000	0.003922 
		0.500000	0.500000	0.500000	0.003922 
		0.500000	0.500000	0.500000	0.003922 
		0.500000	0.500000	0.500000	0.003922 
		0.500000	0.500000	0.500000	0.003922 
		0.500000	0.500000	0.500000	0.003922 
		0.500000	0.500000	0.500000	0.003922 
		0.500000	0.500000	0.500000	0.003922 
		0.500000	0.500000	0.500000	0.003922 
		0.500000	0.500000	0.500000	0.003922 
		0.500000	0.500000	0.500000	0.003922 
		0.500000	0.500000	0.500000	0.003922 
		0.500000	0.500000	0.500000	0.003922 
		0.500000	0.500000	0.500000	0.003922 
		0.500000	0.500000	0.500000	0.003922 
		0.500000	0.500000	0.500000	0.003922 
		0.500000	0.500000	0.500000	0.003922 
		0.500000	0.500000	0.500000	0.003922 
		0.500000	0.500000	0.500000	0.003922 
		0.500000	0.500000	0.500000	0.003922 
		0.500000	0.500000	0.500000	0.003922 
		0.500000	0.500000	0.500000	0.003922 
		0.500000	0.500000	0.500000	0.003922 
		0.500000	0.500000	0.500000	0.003922 
		0.500000	0.500000	0.500000	0.003922 
		0.500000	0.500000	0.500000	0.003922 
		0.500000	0.500000	0.500000	0.003922 
		0.500000	0.500000	0.500000	0.003922 
		0.500000	0.500000	0.500000	0.003922 
		0.500000	0.500000	0.500000	0.003922 
		0.500000	0.500000	0.500000	0.003922 
		0.500000	0.500000	0.500000	0.003922 
		0.500000	0.500000	0.500000	0.003922 
		0.500000	0.500000	0.500000	0.003922 
		0.500000	0.500000	0.500000	0.003922 
		0.500000	0.500000	0.500000	0.003922 
		0.500000	0.500000	0.500000	0.003922 
		0.500000	0.500000	0.500000	0.003922 
		0.500000	0.500000	0.500000	0.003922 
	}

	Tex0 25 { 
		0.909180	0.469727 
		0.910156	0.464844 
		0.910156	0.458008 
		0.909180	0.454102 
		0.931641	0.469727 
		0.931641	0.464844 
		0.931641	0.458008 
		0.931641	0.454102 
		0.230469	0.283203 
		0.233398	0.275391 
		0.215820	0.275391 
		0.219727	0.283203 
		0.391602	0.769531 
		0.348633	0.769531 
		0.348633	0.820313 
		0.391602	0.820313 
		0.391602	0.881836 
		0.348633	0.881836 
		0.182617	0.283203 
		0.215820	0.283203 
		0.184570	0.275391 
		0.066406	0.438477 
		0.005859	0.438477 
		0.005859	0.467773 
		0.066406	0.467773 
	}

	Tex1 0 
	Adj 72 { 
		P 0 
		N 0 
		C0 0 
		T0 0 
		P 1 
		N 0 
		C0 1 
		T0 1 
		P 2 
		N 0 
		C0 2 
		T0 2 
		P 3 
		N 0 
		C0 3 
		T0 3 
		P 1 
		N 1 
		C0 4 
		T0 1 
		P 0 
		N 1 
		C0 5 
		T0 0 
		P 4 
		N 1 
		C0 6 
		T0 4 
		P 5 
		N 1 
		C0 7 
		T0 5 
		P 2 
		N 2 
		C0 8 
		T0 2 
		P 1 
		N 2 
		C0 9 
		T0 1 
		P 5 
		N 2 
		C0 10 
		T0 5 
		P 6 
		N 2 
		C0 11 
		T0 6 
		P 3 
		N 3 
		C0 12 
		T0 3 
		P 2 
		N 3 
		C0 13 
		T0 2 
		P 6 
		N 3 
		C0 14 
		T0 6 
		P 7 
		N 3 
		C0 15 
		T0 7 
		P 8 
		N 4 
		C0 16 
		T0 0 
		P 9 
		N 4 
		C0 17 
		T0 3 
		P 10 
		N 4 
		C0 18 
		T0 2 
		P 11 
		N 4 
		C0 19 
		T0 1 
		P 11 
		N 1 
		C0 20 
		T0 1 
		P 8 
		N 1 
		C0 21 
		T0 0 
		P 10 
		N 2 
		C0 22 
		T0 2 
		P 11 
		N 2 
		C0 23 
		T0 1 
		P 9 
		N 3 
		C0 24 
		T0 3 
		P 10 
		N 3 
		C0 25 
		T0 2 
		P 12 
		N 5 
		C0 26 
		T0 8 
		P 0 
		N 5 
		C0 27 
		T0 9 
		P 3 
		N 5 
		C0 28 
		T0 10 
		P 13 
		N 5 
		C0 29 
		T0 11 
		P 13 
		N 6 
		C0 30 
		T0 12 
		P 14 
		N 6 
		C0 31 
		T0 13 
		P 15 
		N 6 
		C0 32 
		T0 14 
		P 12 
		N 6 
		C0 33 
		T0 15 
		P 14 
		N 7 
		C0 34 
		T0 13 
		P 13 
		N 7 
		C0 35 
		T0 12 
		P 16 
		N 7 
		C0 36 
		T0 16 
		P 17 
		N 7 
		C0 37 
		T0 17 
		P 3 
		N 8 
		C0 38 
		T0 18 
		P 7 
		N 8 
		C0 39 
		T0 19 
		P 16 
		N 8 
		C0 40 
		T0 10 
		P 13 
		N 8 
		C0 41 
		T0 20 
		P 3 
		N 2 
		C0 42 
		T0 21 
		P 0 
		N 2 
		C0 43 
		T0 22 
		P 4 
		N 2 
		C0 44 
		T0 23 
		P 7 
		N 2 
		C0 45 
		T0 24 
		P 18 
		N 9 
		C0 46 
		T0 16 
		P 12 
		N 9 
		C0 47 
		T0 12 
		P 15 
		N 9 
		C0 48 
		T0 13 
		P 19 
		N 9 
		C0 49 
		T0 17 
		P 4 
		N 10 
		C0 50 
		T0 19 
		P 0 
		N 10 
		C0 51 
		T0 18 
		P 12 
		N 10 
		C0 52 
		T0 20 
		P 18 
		N 10 
		C0 53 
		T0 10 
		P 20 
		N 11 
		C0 54 
		T0 8 
		P 21 
		N 11 
		C0 55 
		T0 11 
		P 9 
		N 11 
		C0 56 
		T0 10 
		P 8 
		N 11 
		C0 57 
		T0 9 
		P 21 
		N 12 
		C0 58 
		T0 12 
		P 20 
		N 12 
		C0 59 
		T0 15 
		P 22 
		N 12 
		C0 60 
		T0 14 
		P 23 
		N 12 
		C0 61 
		T0 13 
		P 23 
		N 7 
		C0 62 
		T0 13 
		P 21 
		N 7 
		C0 63 
		T0 12 
		P 9 
		N 8 
		C0 64 
		T0 18 
		P 21 
		N 8 
		C0 65 
		T0 20 
		P 9 
		N 2 
		C0 66 
		T0 21 
		P 8 
		N 2 
		C0 67 
		T0 22 
		P 22 
		N 9 
		C0 68 
		T0 13 
		P 20 
		N 9 
		C0 69 
		T0 12 
		P 20 
		N 10 
		C0 70 
		T0 20 
		P 8 
		N 10 
		C0 71 
		T0 18 
	}

	Mtl 1 { 
		{
			Name "#2" 
			Priority 32 
			Prim 14 { 
				{
					Type TRISTRIP
					Priority 32 
					Idx 4 { 2 3 1 0 }
				}
				{
					Type TRISTRIP
					Priority 32 
					Idx 4 { 17 18 16 19 }
				}
				{
					Type TRISTRIP
					Priority 32 
					Idx 4 { 29 26 28 27 }
				}
				{
					Type TRISTRIP
					Priority 32 
					Idx 4 { 31 32 30 33 }
				}
				{
					Type TRISTRIP
					Priority 32 
					Idx 6 { 47 48 46 49 69 68 }
				}
				{
					Type TRISTRIP
					Priority 32 
					Idx 6 { 51 52 50 53 71 70 }
				}
				{
					Type TRISTRIP
					Priority 32 
					Idx 4 { 55 56 54 57 }
				}
				{
					Type TRISTRIP
					Priority 32 
					Idx 4 { 61 58 60 59 }
				}
				{
					Type TRISTRIP
					Priority 32 
					Idx 7 { 66 45 67 45 44 42 43 }
				}
				{
					Type TRISTRIP2
					Priority 32 
					Idx 6 { 5 4 6 7 21 20 }
				}
				{
					Type TRISTRIP2
					Priority 32 
					Idx 6 { 9 8 10 11 23 22 }
				}
				{
					Type TRISTRIP2
					Priority 32 
					Idx 6 { 13 12 14 15 25 24 }
				}
				{
					Type TRISTRIP2
					Priority 32 
					Idx 6 { 35 34 36 37 63 62 }
				}
				{
					Type TRISTRIP2
					Priority 32 
					Idx 6 { 38 41 39 40 64 65 }
				}
			}

		}
	}

	Offset 0 
}
