{
	Skinned 0 
	PosSkin 0 
	Pos 6 { 
		-2.028663	-0.000064	0.436509 
		-2.030223	-0.000063	-5.376180 
		2.093809	-0.000063	-5.376180 
		2.092249	-0.000064	0.436509 
		-2.027104	-0.000064	5.532933 
		2.090690	-0.000064	5.532933 
	}

	Nrm 2 { 
		0.000000	-1.000000	0.000000 
		0.000000	0.000000	-1.000000 
	}

	Cpv 6 { 
		1.000000	1.000000	1.000000	1.000000 
		1.000000	1.000000	1.000000	1.000000 
		1.000000	1.000000	1.000000	1.000000 
		1.000000	1.000000	1.000000	1.000000 
		1.000000	1.000000	1.000000	1.000000 
		1.000000	1.000000	1.000000	1.000000 
	}

	Tex0 4 { 
		0.064453	0.032227 
		0.064453	0.905273 
		0.935547	0.905273 
		0.935547	0.032227 
	}

	Tex1 0 
	Adj 6 { 
		P 0 
		N 0 
		C0 0 
		T0 0 
		P 1 
		N 1 
		C0 1 
		T0 1 
		P 2 
		N 0 
		C0 2 
		T0 2 
		P 3 
		N 0 
		C0 3 
		T0 3 
		P 4 
		N 1 
		C0 4 
		T0 1 
		P 5 
		N 1 
		C0 5 
		T0 2 
	}

	Mtl 1 { 
		{
			Name "#1" 
			Priority 32 
			Prim 1 { 
				{
					Type TRISTRIP
					Priority 32 
					Idx 6 { 1 2 0 3 4 5 }
				}
			}

		}
	}

	Offset 0 
}
