{
	Skinned 0 
	PosSkin 0 
	Pos 159 { 
		-0.946451	0.592099	-1.801632 
		-0.946451	0.310567	-1.896784 
		-0.560218	0.318940	-1.888407 
		-0.569459	0.593734	-1.812317 
		-0.560218	0.261334	-0.960126 
		-0.569459	0.537137	-1.040146 
		-0.569459	0.734082	-1.239648 
		-0.569459	0.732841	-1.595397 
		-0.946451	0.255005	-0.957387 
		-0.946451	0.534553	-1.036891 
		-0.478884	0.267406	0.955801 
		-0.946452	0.261674	0.953286 
		-0.478611	0.270648	1.884704 
		-0.572529	0.527441	1.844280 
		-0.572528	0.544446	1.053655 
		-0.572529	0.724456	1.664458 
		-0.572529	0.722940	1.230124 
		-0.946451	0.327245	-2.254721 
		-0.859243	0.335010	-2.325282 
		-0.002154	0.334933	-2.347159 
		-0.946451	0.732772	-1.600943 
		-0.946451	0.734030	-1.240462 
		-0.946452	0.544473	1.056058 
		-0.946452	0.726095	1.234612 
		-0.946452	0.719333	1.662908 
		-0.946452	0.525628	1.845838 
		-0.946452	0.267764	1.883341 
		-0.946452	0.286681	2.601458 
		-0.859244	0.293078	2.648399 
		-0.002155	0.293323	2.718205 
		0.565150	0.593734	-1.812317 
		0.565150	0.732841	-1.595397 
		0.565150	0.734083	-1.239648 
		0.565150	0.537137	-1.040146 
		0.555908	0.318940	-1.888407 
		0.555908	0.261334	-0.960126 
		0.568217	0.544446	1.053655 
		0.568217	0.722940	1.230124 
		0.568217	0.724456	1.664458 
		0.568217	0.527441	1.844280 
		0.474573	0.267406	0.955801 
		0.474299	0.270648	1.884704 
		0.854933	0.335010	-2.325282 
		0.942142	0.310567	-1.896784 
		0.942142	0.592099	-1.801632 
		0.942142	0.732772	-1.600943 
		0.942142	0.734030	-1.240462 
		0.942142	0.534553	-1.036891 
		0.942142	0.255005	-0.957387 
		0.942142	0.261674	0.953286 
		0.942142	0.544473	1.056058 
		0.942142	0.726096	1.234612 
		0.942141	0.719333	1.662908 
		0.942141	0.525628	1.845838 
		0.942141	0.267764	1.883341 
		0.854932	0.293079	2.648399 
		0.942141	0.286681	2.601458 
		0.942142	0.327245	-2.254721 
		-0.859244	0.431865	2.773528 
		-0.002155	0.432108	2.843334 
		-0.002155	0.668897	2.838310 
		-0.799891	0.668897	2.773152 
		-0.821293	2.602792	1.876564 
		-0.821293	2.683228	2.271566 
		-0.002155	2.713925	2.286623 
		-0.002155	2.633681	1.946263 
		-0.821293	2.612484	-1.008859 
		-0.002154	2.643052	-1.030843 
		-0.834571	2.036294	-1.876645 
		-0.824582	2.333719	-1.600986 
		-0.002154	2.364287	-1.622970 
		-0.002154	2.066862	-1.898629 
		-0.859243	1.152945	-2.347901 
		-0.002154	1.152868	-2.369778 
		-0.946451	1.160679	-2.274385 
		-0.946452	0.456779	2.701630 
		-0.946451	1.003515	-1.005387 
		-0.946452	0.668897	2.696945 
		-0.859244	0.668897	2.768304 
		-0.904641	2.519813	1.923429 
		-0.904641	2.602089	2.376429 
		-0.904641	2.547629	-1.001364 
		-0.919271	2.042447	-1.776454 
		-0.908370	2.305279	-1.535151 
		-0.904641	2.444471	2.655831 
		-0.796649	0.985040	2.766468 
		-0.002155	0.985040	2.831603 
		-0.002155	2.464851	2.796466 
		-0.821294	2.436736	2.726757 
		0.854932	0.431865	2.773528 
		0.795417	0.667388	2.773199 
		0.816983	2.683228	2.271566 
		0.816983	2.602793	1.876564 
		0.816983	2.612484	-1.008859 
		0.820274	2.333719	-1.600985 
		0.830262	2.036295	-1.876645 
		0.854933	1.152945	-2.347901 
		0.942142	1.160679	-2.274385 
		0.900331	2.548545	-1.011158 
		0.900330	2.519813	1.923429 
		0.902896	2.314974	-1.007310 
		0.900330	2.602089	2.376429 
		0.943532	2.444471	2.655831 
		0.942141	0.456779	2.701630 
		0.942141	0.668897	2.696945 
		0.904087	2.304963	-1.527652 
		0.914961	2.042447	-1.776454 
		0.854932	0.667275	2.768340 
		-1.113772	1.737502	-2.284794 
		-1.069849	1.737565	-2.266690 
		-1.069849	1.427869	-2.265610 
		-1.113772	1.386665	-2.283570 
		-1.107489	1.737667	-2.237705 
		-1.107489	1.386829	-2.236480 
		-0.700046	1.427697	-2.314952 
		-0.743968	1.386492	-2.332912 
		-0.737685	1.386656	-2.285822 
		-0.700046	1.185055	-2.314105 
		-0.743968	1.184991	-2.332208 
		-0.737685	1.185156	-2.285119 
		-1.181117	1.880389	-2.206230 
		-1.181117	1.517048	-2.200522 
		-0.985971	1.517048	-2.200522 
		-0.985971	1.880389	-2.206230 
		-1.143404	1.779225	-2.244514 
		-1.023683	1.779226	-2.244514 
		-1.023683	1.616292	-2.241954 
		-1.143404	1.616292	-2.241955 
		1.072281	1.427871	-2.265611 
		1.072281	1.737565	-2.266692 
		1.116204	1.737502	-2.284794 
		1.116203	1.386665	-2.283571 
		1.109921	1.386829	-2.236481 
		1.109921	1.737667	-2.237706 
		0.702477	1.427698	-2.314953 
		0.746400	1.386492	-2.332912 
		0.740117	1.386656	-2.285823 
		0.702477	1.185056	-2.314106 
		0.746400	1.184991	-2.332209 
		0.740117	1.185156	-2.285119 
		1.183549	1.880389	-2.206230 
		0.988403	1.880389	-2.206230 
		0.988403	1.517048	-2.200522 
		1.183549	1.517048	-2.200522 
		1.145836	1.779226	-2.244515 
		1.145836	1.616293	-2.241955 
		1.026116	1.616293	-2.241955 
		1.026116	1.779226	-2.244515 
		0.942142	1.003515	-1.005387 
		0.942141	0.985040	2.689962 
		0.854932	0.985040	2.761338 
		0.816982	2.436736	2.726757 
		0.797041	0.985040	2.766083 
		-0.946452	0.983418	2.689997 
		-0.859244	0.985040	2.761338 
		-0.906952	2.301919	-1.003375 
		-0.821294	2.664775	2.647150 
		-0.002155	2.695663	2.716849 
		0.816983	2.664775	2.647150 
	}

	Nrm 160 { 
		0.000000	-0.593750	0.796875 
		0.000000	-0.296875	0.953125 
		-0.703125	-0.234375	0.671875 
		-0.718750	-0.421875	0.546875 
		-0.703125	-0.218750	-0.671875 
		-0.718750	-0.359375	-0.593750 
		-0.468750	-0.812500	-0.328125 
		-0.453125	-0.843750	0.265625 
		0.000000	-0.281250	-0.968750 
		0.000000	-0.515625	-0.859375 
		0.046875	-1.000000	0.000000 
		0.015625	-1.000000	0.000000 
		0.031250	-1.000000	-0.015625 
		-0.625000	-0.453125	0.625000 
		-0.656250	-0.328125	-0.687500 
		-0.687500	-0.406250	-0.609375 
		-0.671875	-0.468750	0.578125 
		-0.468750	-0.812500	-0.359375 
		-0.468750	-0.812500	0.343750 
		0.046875	-1.000000	-0.046875 
		0.031250	-1.000000	-0.046875 
		0.000000	-1.000000	-0.031250 
		-0.015625	-1.000000	-0.046875 
		0.000000	-0.953125	0.296875 
		0.000000	-0.921875	-0.375000 
		0.000000	-0.531250	0.843750 
		0.000000	-0.343750	0.937500 
		0.000000	-0.921875	0.390625 
		0.000000	-0.921875	-0.406250 
		0.000000	-0.437500	-0.906250 
		0.000000	-0.156250	-0.984375 
		0.062500	-1.000000	0.031250 
		0.031250	-1.000000	0.031250 
		0.015625	-1.000000	0.015625 
		0.000000	-1.000000	0.015625 
		0.718750	-0.421875	0.546875 
		0.453125	-0.843750	0.265625 
		0.468750	-0.812500	-0.328125 
		0.718750	-0.359375	-0.593750 
		0.703125	-0.234375	0.671875 
		0.703125	-0.218750	-0.671875 
		0.671875	-0.468750	0.578125 
		0.468750	-0.812500	0.343750 
		0.468750	-0.812500	-0.359375 
		0.687500	-0.406250	-0.609375 
		0.625000	-0.453125	0.625000 
		0.656250	-0.328125	-0.687500 
		0.015625	-1.000000	-0.046875 
		-0.031250	-1.000000	-0.046875 
		-0.015625	-1.000000	0.000000 
		-0.046875	-1.000000	0.000000 
		-0.031250	-1.000000	-0.015625 
		-0.031250	-1.000000	0.031250 
		-0.062500	-1.000000	0.031250 
		-0.015625	-1.000000	0.015625 
		-0.046875	-1.000000	-0.046875 
		-0.296875	-0.250000	0.921875 
		-0.296875	-0.609375	0.734375 
		0.000000	-0.671875	0.750000 
		0.000000	0.015625	1.000000 
		-0.078125	0.015625	1.000000 
		-0.406250	0.906250	-0.093750 
		-0.515625	0.843750	-0.109375 
		0.000000	0.984375	-0.218750 
		0.000000	1.000000	-0.109375 
		-0.375000	0.921875	0.000000 
		0.000000	1.000000	0.000000 
		-0.359375	0.546875	-0.750000 
		-0.359375	0.640625	-0.687500 
		0.000000	0.687500	-0.734375 
		0.000000	0.578125	-0.812500 
		-0.359375	0.218750	-0.906250 
		0.000000	0.218750	-0.968750 
		-0.343750	-0.031250	-0.937500 
		0.000000	-0.031250	-1.000000 
		-0.968750	0.062500	-0.218750 
		-0.906250	-0.015625	-0.421875 
		-1.000000	0.000000	0.000000 
		-0.875000	-0.281250	0.390625 
		-0.906250	-0.140625	0.421875 
		-1.000000	0.015625	0.000000 
		-0.953125	0.000000	0.281250 
		-0.375000	0.015625	0.921875 
		-0.953125	0.312500	-0.031250 
		-0.890625	0.468750	0.031250 
		-0.906250	0.421875	-0.093750 
		-0.906250	0.281250	-0.343750 
		-0.890625	0.375000	-0.250000 
		-0.921875	0.156250	0.375000 
		-0.078125	0.031250	1.000000 
		0.000000	0.031250	1.000000 
		-0.281250	0.031250	0.953125 
		0.296875	-0.609375	0.734375 
		0.296875	-0.250000	0.921875 
		0.078125	0.015625	1.000000 
		0.406250	0.906250	-0.062500 
		0.406250	0.906250	-0.093750 
		0.375000	0.921875	0.000000 
		0.359375	0.640625	-0.671875 
		0.359375	0.546875	-0.750000 
		0.359375	0.218750	-0.906250 
		0.343750	-0.031250	-0.937500 
		0.906250	-0.015625	-0.421875 
		0.968750	0.062500	-0.218750 
		1.000000	0.000000	0.000000 
		0.906250	0.421875	-0.093750 
		0.937500	0.343750	-0.031250 
		1.000000	0.015625	0.000000 
		0.843750	0.546875	0.000000 
		0.875000	0.234375	0.406250 
		0.906250	-0.140625	0.421875 
		0.953125	0.000000	0.281250 
		0.875000	-0.281250	0.390625 
		0.890625	0.375000	-0.250000 
		0.906250	0.265625	-0.328125 
		0.375000	0.015625	0.921875 
		-0.437500	0.703125	-0.562500 
		0.703125	0.703125	-0.093750 
		-0.390625	-0.265625	-0.875000 
		-0.265625	0.703125	0.656250 
		-0.140625	-0.265625	0.953125 
		0.984375	0.000000	-0.125000 
		-0.609375	0.000000	-0.796875 
		-0.375000	0.000000	0.921875 
		-0.265625	0.125000	-0.953125 
		0.265625	0.125000	-0.953125 
		0.265625	-0.156250	-0.953125 
		-0.265625	-0.156250	-0.953125 
		0.406250	-0.218750	-0.890625 
		-0.406250	-0.218750	-0.890625 
		-0.406250	0.187500	-0.890625 
		0.406250	0.187500	-0.890625 
		-0.703125	0.703125	-0.093750 
		0.437500	0.703125	-0.562500 
		0.390625	-0.265625	-0.875000 
		0.140625	-0.265625	0.953125 
		0.265625	0.703125	0.656250 
		-0.984375	0.000000	-0.125000 
		0.609375	0.000000	-0.796875 
		0.375000	0.000000	0.921875 
		0.968750	0.015625	0.218750 
		0.328125	0.031250	0.937500 
		0.265625	0.140625	0.953125 
		0.078125	0.031250	1.000000 
		-0.984375	0.015625	0.203125 
		-0.375000	0.031250	0.921875 
		0.640625	0.015625	0.781250 
		-0.640625	0.015625	0.781250 
		-0.312500	0.859375	-0.406250 
		0.000000	0.906250	-0.421875 
		0.312500	0.859375	-0.406250 
		-0.078125	0.796875	0.593750 
		-0.093750	0.328125	0.937500 
		0.000000	0.328125	0.937500 
		0.000000	0.796875	0.593750 
		-0.046875	1.000000	0.046875 
		0.000000	1.000000	0.046875 
		-0.796875	0.484375	0.359375 
		-0.609375	0.265625	0.750000 
		0.515625	0.703125	0.500000 
	}

	Cpv 278 { 
		0.434514	0.500000	0.500000	0.000000 
		0.555141	0.500000	0.500000	0.000000 
		0.500000	0.500000	0.500000	1.000000 
		0.500000	0.500000	0.500000	0.000000 
		0.500000	0.500000	0.596026	0.000000 
		0.500000	0.500000	0.592709	0.000000 
		0.500000	0.500000	0.592709	0.000000 
		0.500000	0.500000	0.500000	0.000000 
		0.500000	0.500000	0.596026	0.000000 
		0.500000	0.500000	0.592709	0.000000 
		0.500000	0.500000	0.500000	0.000000 
		0.500000	0.500000	0.500000	0.000000 
		0.500000	0.500000	0.596026	0.000000 
		0.500000	0.500000	0.596026	0.000000 
		0.500000	0.500000	0.500000	0.000000 
		0.500000	0.573723	0.500000	0.000000 
		0.500000	0.573723	0.500000	0.000000 
		0.500000	0.500000	0.500000	0.000000 
		0.500000	0.500000	0.500000	0.000000 
		0.500000	0.500000	0.500000	0.000000 
		0.636501	0.500000	0.500000	0.000000 
		0.636501	0.500000	0.500000	0.000000 
		0.555141	0.500000	0.500000	0.000000 
		0.500000	0.500000	0.500000	0.000000 
		0.500000	0.500000	0.500000	1.000000 
		0.434514	0.500000	0.500000	0.000000 
		0.500000	0.500000	0.592709	0.000000 
		0.500000	0.500000	0.500000	0.000000 
		0.500000	0.500000	0.500000	0.000000 
		0.500000	0.500000	0.500000	0.000000 
		0.500000	0.500000	0.500000	0.000000 
		0.500000	0.573723	0.500000	0.000000 
		0.500000	0.573723	0.500000	0.000000 
		0.500000	0.573723	0.500000	0.000000 
		0.500000	0.573723	0.500000	0.000000 
		0.500000	0.573723	0.500000	0.000000 
		0.500000	0.573723	0.500000	0.000000 
		0.500000	0.561832	0.500000	0.000000 
		0.500000	0.618012	0.417375	0.000000 
		0.500000	0.559583	0.445192	0.000000 
		0.500000	0.608349	0.500000	0.000000 
		0.500000	0.613261	0.500000	0.000000 
		0.500000	0.500000	0.500000	0.000000 
		0.500000	0.613261	0.500000	0.000000 
		0.500000	0.500000	0.500000	0.000000 
		0.500000	0.500000	0.500000	0.000000 
		0.500000	0.500000	0.500000	0.000000 
		0.500000	0.500000	0.500000	0.000000 
		0.500000	0.500000	0.500000	0.000000 
		0.500000	0.500000	0.500000	0.000000 
		0.500000	0.500000	0.500000	0.000000 
		0.500000	0.500000	0.500000	0.000000 
		0.500000	0.500000	0.500000	0.000000 
		0.500000	0.500000	0.500000	0.000000 
		0.500000	0.615402	0.416630	0.000000 
		0.500000	0.560966	0.445349	0.000000 
		0.500000	0.613261	0.500000	0.000000 
		0.500000	0.613261	0.500000	0.000000 
		0.500000	0.613261	0.500000	0.000000 
		0.592338	0.500000	0.500000	0.000000 
		0.500000	0.500000	0.500000	0.000000 
		0.500000	0.613261	0.500000	0.000000 
		0.592338	0.500000	0.500000	0.000000 
		0.592338	0.500000	0.500000	0.000000 
		0.592338	0.500000	0.500000	0.000000 
		0.543170	0.500000	0.500000	0.000000 
		0.500000	0.500000	0.500000	0.000000 
		0.500000	0.500000	0.500000	0.000000 
		0.429716	0.500000	0.500000	0.000000 
		0.500000	0.500000	0.500000	0.000000 
		0.429716	0.500000	0.500000	0.000000 
		0.500000	0.500000	0.500000	0.000000 
		0.500000	0.500000	0.500000	0.000000 
		0.500000	0.613261	0.500000	0.000000 
		0.500000	0.573723	0.500000	0.000000 
		0.500000	0.573723	0.500000	0.000000 
		0.500000	0.561832	0.500000	0.000000 
		0.500000	0.561832	0.390429	0.000000 
		0.500000	0.500000	0.390429	0.000000 
		0.500000	0.500000	0.500000	0.000000 
		0.500000	0.500000	0.500000	0.000000 
		0.500000	0.373356	0.500000	0.000000 
		0.500000	0.441258	0.500000	0.000000 
		0.500000	0.500000	0.500000	0.000000 
		0.500000	0.500000	0.500000	0.000000 
		0.500000	0.389613	0.500000	0.000000 
		0.500000	0.409715	0.500000	0.000000 
		0.595122	0.500000	0.500000	0.000000 
		0.396407	0.500000	0.500000	0.000000 
		0.396407	0.429601	0.500000	0.000000 
		0.500000	0.500000	0.500000	0.000000 
		0.500000	0.409715	0.500000	0.000000 
		0.396407	0.429601	0.500000	0.000000 
		0.500000	0.500000	0.500000	0.000000 
		0.636501	0.500000	0.500000	0.000000 
		0.500000	0.500000	0.500000	0.000000 
		0.500000	0.500000	0.500000	0.000000 
		0.636501	0.500000	0.500000	0.000000 
		0.555141	0.500000	0.500000	0.000000 
		0.434514	0.500000	0.500000	0.000000 
		0.500000	0.573723	0.500000	0.000000 
		0.500000	0.573723	0.500000	0.000000 
		0.500000	0.573723	0.500000	0.000000 
		0.500000	0.573723	0.500000	0.000000 
		0.434514	0.500000	0.500000	0.000000 
		0.500000	0.500000	0.592709	0.000000 
		0.500000	0.392682	0.500000	0.000000 
		0.500000	0.500000	0.500000	0.000000 
		0.500000	0.500000	0.596026	0.000000 
		0.500000	0.500000	0.500000	0.000000 
		0.500000	0.500000	0.500000	0.000000 
		0.500000	0.500000	0.592709	0.000000 
		0.500000	0.500000	0.500000	0.000000 
		0.500000	0.500000	0.500000	0.000000 
		0.500000	0.573723	0.500000	0.000000 
		0.500000	0.573723	0.500000	0.000000 
		0.500000	0.500000	0.500000	0.000000 
		0.500000	0.500000	0.500000	0.000000 
		0.500000	0.420899	0.500000	0.000000 
		0.500000	0.373356	0.500000	0.000000 
		0.500000	0.500000	0.500000	0.000000 
		0.500000	0.409715	0.500000	0.000000 
		0.595122	0.500000	0.500000	0.000000 
		0.595122	0.500000	0.500000	0.000000 
		0.500000	0.409715	0.500000	0.000000 
		0.500000	0.409715	0.500000	0.000000 
		0.500000	0.500000	0.500000	0.000000 
		0.636501	0.500000	0.500000	0.000000 
		0.500000	0.373356	0.500000	0.000000 
		0.538933	0.500000	0.500000	0.000000 
		0.500000	0.500000	0.360699	0.000000 
		0.500000	0.441258	0.500000	0.000000 
		0.500000	0.373356	0.500000	0.000000 
		0.429716	0.500000	0.500000	0.000000 
		0.429716	0.500000	0.500000	0.000000 
		0.500000	0.500000	0.445735	0.000000 
		0.500000	0.500000	0.500000	0.000000 
		0.500000	0.391090	0.500000	0.000000 
		0.500000	0.458564	0.500000	0.000000 
		0.396407	0.500000	0.500000	0.000000 
		0.396407	0.500000	0.500000	0.000000 
		0.396407	0.500000	0.500000	0.000000 
		0.500000	0.500000	0.585042	0.000000 
		0.500000	0.500000	0.500000	0.000000 
		0.500000	0.500000	0.500000	0.000000 
		0.500000	0.500000	0.585042	0.000000 
		0.500000	0.615402	0.416630	0.000000 
		0.500000	0.500000	0.500000	0.000000 
		0.500000	0.560966	0.445349	0.000000 
		0.500000	0.613261	0.500000	0.000000 
		0.500000	0.392682	0.500000	0.000000 
		0.500000	0.391090	0.500000	0.000000 
		0.500000	0.466315	0.500000	0.000000 
		0.500000	0.500000	0.500000	0.000000 
		0.407155	0.500000	0.500000	0.000000 
		0.429716	0.500000	0.500000	0.000000 
		0.500000	0.500000	0.500000	0.000000 
		0.543170	0.500000	0.500000	0.000000 
		0.500000	0.500000	0.445735	0.000000 
		0.429716	0.500000	0.500000	0.000000 
		0.500000	0.500000	0.500000	0.000000 
		0.429716	0.500000	0.500000	0.000000 
		0.429716	0.500000	0.500000	0.000000 
		0.396407	0.500000	0.500000	0.000000 
		0.396407	0.500000	0.500000	0.000000 
		0.396407	0.500000	0.500000	0.000000 
		0.396407	0.500000	0.500000	0.000000 
		0.396407	0.500000	0.500000	0.000000 
		0.500000	0.500000	0.585042	0.000000 
		0.500000	0.500000	0.500000	0.000000 
		0.500000	0.500000	0.445735	0.000000 
		0.714233	0.497500	0.377892	0.000000 
		0.712753	0.490569	0.379997	0.000000 
		0.632597	0.509294	0.448370	0.000000 
		0.623429	0.518713	0.455347	0.000000 
		0.714061	0.506674	0.376979	0.000000 
		0.623258	0.527887	0.454435	0.000000 
		0.500000	0.494645	0.450509	0.000000 
		0.500000	0.491630	0.460406	0.000000 
		0.500000	0.502393	0.459121	0.000000 
		0.500000	0.500000	0.500000	0.000000 
		0.500000	0.500000	0.500000	0.000000 
		0.500000	0.500000	0.500000	0.000000 
		0.753510	0.523907	0.340266	0.000000 
		0.659470	0.546891	0.420364	0.000000 
		0.652820	0.497722	0.431913	0.000000 
		0.710695	0.474738	0.351815	0.000000 
		0.726041	0.511687	0.365855	0.000000 
		0.721962	0.481522	0.372941	0.000000 
		0.679792	0.491829	0.408859	0.000000 
		0.683871	0.521994	0.401774	0.000000 
		0.652820	0.497722	0.431913	0.000000 
		0.659470	0.546891	0.420364	0.000000 
		0.753510	0.523907	0.340266	0.000000 
		0.710695	0.474738	0.351815	0.000000 
		0.357914	0.525833	0.483374	0.000000 
		0.447936	0.501668	0.563708	0.000000 
		0.447891	0.492205	0.566291	0.000000 
		0.345911	0.519581	0.475285	0.000000 
		0.340536	0.510548	0.473388	0.000000 
		0.442517	0.483173	0.564394	0.000000 
		0.500000	0.500000	0.500000	0.000000 
		0.500000	0.500000	0.500000	0.000000 
		0.500000	0.500000	0.500000	0.000000 
		0.500000	0.500000	0.585042	0.000000 
		0.500000	0.500000	0.585042	0.000000 
		0.500000	0.500000	0.585042	0.000000 
		0.467648	0.418839	0.539318	0.000000 
		0.496966	0.489306	0.638000	0.000000 
		0.395612	0.510692	0.562701	0.000000 
		0.366293	0.481624	0.464019	0.000000 
		0.427434	0.484511	0.543880	0.000000 
		0.381983	0.494100	0.510113	0.000000 
		0.399970	0.511933	0.570654	0.000000 
		0.445421	0.502344	0.604421	0.000000 
		0.366293	0.481624	0.464019	0.000000 
		0.395612	0.510692	0.562701	0.000000 
		0.467648	0.418839	0.539318	0.000000 
		0.496966	0.489306	0.638000	0.000000 
		0.592338	0.500000	0.500000	0.000000 
		0.500000	0.500000	0.500000	0.000000 
		0.500000	0.500000	0.445735	0.000000 
		0.500000	0.500000	0.445735	0.000000 
		0.500000	0.500000	0.445735	0.000000 
		0.407155	0.500000	0.500000	0.000000 
		0.407155	0.500000	0.500000	0.000000 
		0.500000	0.500000	0.445735	0.000000 
		0.538933	0.500000	0.500000	0.000000 
		0.538933	0.500000	0.500000	0.000000 
		0.500000	0.373356	0.500000	0.000000 
		0.538933	0.500000	0.500000	0.000000 
		0.500000	0.500000	0.445735	0.000000 
		0.500000	0.500000	0.500000	0.000000 
		0.500000	0.613261	0.500000	0.000000 
		0.592338	0.500000	0.500000	0.000000 
		0.592338	0.500000	0.500000	0.000000 
		0.500000	0.613261	0.500000	0.000000 
		0.500000	0.500000	0.445735	0.000000 
		0.500000	0.500000	0.445735	0.000000 
		0.500000	0.500000	0.445735	0.000000 
		0.500000	0.500000	0.445735	0.000000 
		0.500000	0.500000	0.445735	0.000000 
		0.500000	0.500000	0.445735	0.000000 
		0.500000	0.500000	0.500000	0.000000 
		0.500000	0.500000	0.500000	0.000000 
		0.538933	0.500000	0.500000	0.000000 
		0.538933	0.500000	0.500000	0.000000 
		0.538933	0.500000	0.500000	0.000000 
		0.500000	0.500000	0.500000	0.000000 
		0.595122	0.500000	0.500000	0.000000 
		0.500000	0.500000	0.500000	0.000000 
		0.500000	0.389613	0.500000	0.000000 
		0.396407	0.500000	0.500000	0.000000 
		0.500000	0.500000	0.500000	0.000000 
		0.500000	0.500000	0.500000	0.000000 
		0.595122	0.500000	0.500000	0.000000 
		0.595122	0.500000	0.500000	0.000000 
		0.500000	0.500000	0.500000	0.000000 
		0.500000	0.458564	0.500000	0.000000 
		0.396407	0.500000	0.500000	0.000000 
		0.500000	0.392682	0.500000	0.000000 
		0.396407	0.500000	0.500000	0.000000 
		0.396407	0.500000	0.500000	0.000000 
		0.500000	0.392682	0.500000	0.000000 
		0.500000	0.466315	0.500000	0.000000 
		0.500000	0.445856	0.500000	0.000000 
		0.500000	0.373356	0.500000	0.000000 
		0.500000	0.441258	0.500000	0.000000 
		0.500000	0.441258	0.500000	0.000000 
		0.500000	0.373356	0.500000	0.000000 
		0.500000	0.441258	0.500000	0.000000 
		0.500000	0.445856	0.500000	0.000000 
		0.500000	0.373356	0.500000	0.000000 
		0.407155	0.500000	0.500000	0.000000 
		0.500000	0.500000	0.500000	0.000000 
		0.500000	0.500000	0.500000	0.000000 
		0.500000	0.500000	0.500000	0.000000 
		0.407155	0.500000	0.500000	0.000000 
	}

	Tex0 156 { 
		0.160156	0.021484 
		0.652344	0.248047 
		0.651367	0.000000 
		0.274414	0.000000 
		0.273438	0.204102 
		0.018555	0.000000 
		0.003906	0.045898 
		0.088867	0.000000 
		0.000000	0.500000 
		0.090820	0.204102 
		0.976563	0.000000 
		0.834961	0.000000 
		0.986328	0.045898 
		0.835938	0.248047 
		1.000000	0.500000 
		0.090820	0.795898 
		0.003906	0.954102 
		0.088867	1.000000 
		0.274414	1.000000 
		0.651367	1.000000 
		0.652344	0.751953 
		0.273438	0.795898 
		0.986328	0.954102 
		0.834961	1.000000 
		0.976563	1.000000 
		0.835938	0.751953 
		0.018555	1.000000 
		0.525391	0.539063 
		0.525391	0.500000 
		0.750000	0.500000 
		0.750000	0.539063 
		0.750000	0.606445 
		0.541016	0.606445 
		0.831055	0.486328 
		0.905273	0.496094 
		0.843750	0.493164 
		0.266602	0.488281 
		0.267578	0.495117 
		0.068359	0.895508 
		0.071289	0.954102 
		0.250000	0.957031 
		0.250000	0.902344 
		0.490234	0.703125 
		0.469727	0.893555 
		0.250000	0.900391 
		0.250000	0.703125 
		0.490234	0.503906 
		0.250000	0.503906 
		0.018555	0.188477 
		0.022461	0.015625 
		0.090820	0.012695 
		0.109375	0.070313 
		0.970703	0.007813 
		0.990234	0.042969 
		0.822266	0.056641 
		0.829102	0.003906 
		0.147461	0.099609 
		0.216797	0.099609 
		0.261719	0.156250 
		0.701172	0.098633 
		0.270508	0.000977 
		0.646484	0.001953 
		0.666016	0.060547 
		0.255859	0.058594 
		0.786133	0.096680 
		0.989258	0.086914 
		0.502930	0.498047 
		0.502930	0.546875 
		0.525391	0.606445 
		0.502930	0.606445 
		0.836914	0.469727 
		0.918945	0.486328 
		0.264648	0.475586 
		0.114258	0.371094 
		0.160156	0.424805 
		0.147461	0.427734 
		0.094727	0.369141 
		0.082031	0.369141 
		0.000977	0.186523 
		0.008789	0.017578 
		0.954102	0.457031 
		0.541992	0.668945 
		0.750000	0.668945 
		0.750000	0.964844 
		0.535156	0.958008 
		0.973633	0.500000 
		0.973633	0.539063 
		0.958008	0.605469 
		0.429688	0.954102 
		0.431641	0.895508 
		0.030273	0.893555 
		0.009766	0.703125 
		0.009766	0.503906 
		0.262695	0.475586 
		0.261719	0.426758 
		0.954102	0.458984 
		0.996094	0.498047 
		0.996094	0.546875 
		0.973633	0.605469 
		0.949219	0.513672 
		0.927734	0.865234 
		0.884766	0.299805 
		0.884766	0.333984 
		0.931641	0.333984 
		0.931641	0.299805 
		0.959961	0.344727 
		0.959961	0.289063 
		0.856445	0.289063 
		0.856445	0.344727 
		0.988281	0.152344 
		0.973633	0.668945 
		0.996094	0.668945 
		0.997070	0.958008 
		0.963867	0.958008 
		0.958008	0.668945 
		0.502930	0.668945 
		0.525391	0.668945 
		0.513672	0.959961 
		0.996094	0.606445 
		0.261719	0.424805 
		0.976563	0.605469 
		1.000000	0.605469 
		1.000000	0.668945 
		0.976563	0.668945 
		0.961914	0.668945 
		0.960938	0.605469 
		0.523438	0.605469 
		0.539063	0.605469 
		0.540039	0.668945 
		0.523438	0.668945 
		0.500000	0.667969 
		0.500000	0.605469 
		0.066406	0.956055 
		0.067383	0.996094 
		0.252930	0.994141 
		0.252930	0.956055 
		0.263672	0.426758 
		0.264648	0.481445 
		0.145508	0.427734 
		0.047852	0.956055 
		0.048828	0.997070 
		0.438477	0.996094 
		0.438477	0.956055 
		0.457031	0.996094 
		0.458008	0.956055 
		0.261719	0.481445 
		0.262695	0.429688 
		0.542969	0.997070 
		0.542969	0.958008 
		0.750000	0.962891 
		0.750000	0.998047 
		0.974609	0.496094 
		0.979492	0.457031 
		0.958008	0.958008 
		0.958008	0.997070 
		0.974609	0.459961 
	}

	Tex1 0 
	Adj 278 { 
		P 0 
		N 0 
		C0 0 
		T0 0 
		P 1 
		N 1 
		C0 1 
		T0 0 
		P 2 
		N 2 
		C0 2 
		T0 0 
		P 3 
		N 3 
		C0 3 
		T0 0 
		P 4 
		N 4 
		C0 4 
		T0 0 
		P 5 
		N 5 
		C0 5 
		T0 0 
		P 6 
		N 6 
		C0 6 
		T0 0 
		P 7 
		N 7 
		C0 7 
		T0 0 
		P 8 
		N 8 
		C0 8 
		T0 0 
		P 9 
		N 9 
		C0 9 
		T0 0 
		P 10 
		N 10 
		C0 10 
		T0 1 
		P 11 
		N 11 
		C0 11 
		T0 2 
		P 8 
		N 11 
		C0 12 
		T0 3 
		P 4 
		N 12 
		C0 13 
		T0 4 
		P 10 
		N 13 
		C0 14 
		T0 0 
		P 12 
		N 14 
		C0 15 
		T0 0 
		P 13 
		N 15 
		C0 16 
		T0 0 
		P 14 
		N 16 
		C0 17 
		T0 0 
		P 15 
		N 17 
		C0 18 
		T0 0 
		P 16 
		N 18 
		C0 19 
		T0 0 
		P 17 
		N 19 
		C0 20 
		T0 5 
		P 18 
		N 20 
		C0 21 
		T0 6 
		P 1 
		N 20 
		C0 22 
		T0 7 
		P 19 
		N 21 
		C0 23 
		T0 8 
		P 2 
		N 22 
		C0 24 
		T0 9 
		P 20 
		N 23 
		C0 25 
		T0 0 
		P 21 
		N 24 
		C0 26 
		T0 0 
		P 22 
		N 25 
		C0 27 
		T0 0 
		P 11 
		N 26 
		C0 28 
		T0 0 
		P 23 
		N 27 
		C0 29 
		T0 0 
		P 24 
		N 28 
		C0 30 
		T0 0 
		P 25 
		N 29 
		C0 31 
		T0 0 
		P 26 
		N 30 
		C0 32 
		T0 0 
		P 27 
		N 31 
		C0 33 
		T0 10 
		P 26 
		N 32 
		C0 34 
		T0 11 
		P 28 
		N 32 
		C0 35 
		T0 12 
		P 12 
		N 33 
		C0 36 
		T0 13 
		P 29 
		N 34 
		C0 37 
		T0 14 
		P 30 
		N 35 
		C0 38 
		T0 0 
		P 31 
		N 36 
		C0 39 
		T0 0 
		P 32 
		N 37 
		C0 40 
		T0 0 
		P 33 
		N 38 
		C0 41 
		T0 0 
		P 34 
		N 39 
		C0 42 
		T0 0 
		P 35 
		N 40 
		C0 43 
		T0 0 
		P 36 
		N 41 
		C0 44 
		T0 0 
		P 37 
		N 42 
		C0 45 
		T0 0 
		P 38 
		N 43 
		C0 46 
		T0 0 
		P 39 
		N 44 
		C0 47 
		T0 0 
		P 40 
		N 45 
		C0 48 
		T0 0 
		P 41 
		N 46 
		C0 49 
		T0 0 
		P 34 
		N 47 
		C0 50 
		T0 15 
		P 42 
		N 48 
		C0 51 
		T0 16 
		P 43 
		N 48 
		C0 52 
		T0 17 
		P 43 
		N 1 
		C0 53 
		T0 0 
		P 44 
		N 0 
		C0 54 
		T0 0 
		P 45 
		N 23 
		C0 55 
		T0 0 
		P 46 
		N 24 
		C0 56 
		T0 0 
		P 47 
		N 9 
		C0 57 
		T0 0 
		P 48 
		N 49 
		C0 58 
		T0 18 
		P 49 
		N 49 
		C0 59 
		T0 19 
		P 40 
		N 50 
		C0 60 
		T0 20 
		P 35 
		N 51 
		C0 61 
		T0 21 
		P 49 
		N 26 
		C0 62 
		T0 0 
		P 50 
		N 25 
		C0 63 
		T0 0 
		P 51 
		N 27 
		C0 64 
		T0 0 
		P 52 
		N 28 
		C0 65 
		T0 0 
		P 53 
		N 29 
		C0 66 
		T0 0 
		P 54 
		N 30 
		C0 67 
		T0 0 
		P 55 
		N 52 
		C0 68 
		T0 22 
		P 54 
		N 52 
		C0 69 
		T0 23 
		P 56 
		N 53 
		C0 70 
		T0 24 
		P 41 
		N 54 
		C0 71 
		T0 25 
		P 57 
		N 55 
		C0 72 
		T0 26 
		P 48 
		N 8 
		C0 73 
		T0 0 
		P 58 
		N 56 
		C0 74 
		T0 27 
		P 28 
		N 57 
		C0 75 
		T0 28 
		P 29 
		N 58 
		C0 76 
		T0 29 
		P 59 
		N 26 
		C0 77 
		T0 30 
		P 60 
		N 59 
		C0 78 
		T0 31 
		P 61 
		N 60 
		C0 79 
		T0 32 
		P 62 
		N 61 
		C0 80 
		T0 33 
		P 63 
		N 62 
		C0 81 
		T0 34 
		P 64 
		N 63 
		C0 82 
		T0 34 
		P 65 
		N 64 
		C0 83 
		T0 35 
		P 66 
		N 65 
		C0 84 
		T0 36 
		P 67 
		N 66 
		C0 85 
		T0 37 
		P 68 
		N 67 
		C0 86 
		T0 38 
		P 69 
		N 68 
		C0 87 
		T0 39 
		P 70 
		N 69 
		C0 88 
		T0 40 
		P 71 
		N 70 
		C0 89 
		T0 41 
		P 72 
		N 71 
		C0 90 
		T0 42 
		P 68 
		N 67 
		C0 91 
		T0 43 
		P 71 
		N 70 
		C0 92 
		T0 44 
		P 73 
		N 72 
		C0 93 
		T0 45 
		P 18 
		N 73 
		C0 94 
		T0 46 
		P 19 
		N 74 
		C0 95 
		T0 47 
		P 74 
		N 75 
		C0 96 
		T0 48 
		P 17 
		N 76 
		C0 97 
		T0 49 
		P 1 
		N 77 
		C0 98 
		T0 50 
		P 0 
		N 77 
		C0 99 
		T0 51 
		P 27 
		N 78 
		C0 100 
		T0 52 
		P 75 
		N 79 
		C0 101 
		T0 53 
		P 25 
		N 77 
		C0 102 
		T0 54 
		P 26 
		N 77 
		C0 103 
		T0 55 
		P 20 
		N 77 
		C0 104 
		T0 56 
		P 21 
		N 77 
		C0 105 
		T0 57 
		P 76 
		N 80 
		C0 106 
		T0 58 
		P 23 
		N 77 
		C0 107 
		T0 59 
		P 8 
		N 77 
		C0 108 
		T0 60 
		P 11 
		N 77 
		C0 109 
		T0 61 
		P 22 
		N 77 
		C0 110 
		T0 62 
		P 9 
		N 77 
		C0 111 
		T0 63 
		P 24 
		N 77 
		C0 112 
		T0 64 
		P 77 
		N 81 
		C0 113 
		T0 65 
		P 27 
		N 78 
		C0 114 
		T0 66 
		P 75 
		N 79 
		C0 115 
		T0 67 
		P 78 
		N 82 
		C0 116 
		T0 68 
		P 77 
		N 81 
		C0 117 
		T0 69 
		P 79 
		N 83 
		C0 118 
		T0 70 
		P 80 
		N 84 
		C0 119 
		T0 71 
		P 81 
		N 85 
		C0 120 
		T0 72 
		P 82 
		N 86 
		C0 121 
		T0 73 
		P 83 
		N 87 
		C0 122 
		T0 74 
		P 69 
		N 68 
		C0 123 
		T0 75 
		P 68 
		N 67 
		C0 124 
		T0 76 
		P 68 
		N 67 
		C0 125 
		T0 77 
		P 72 
		N 71 
		C0 126 
		T0 78 
		P 18 
		N 73 
		C0 127 
		T0 79 
		P 84 
		N 88 
		C0 128 
		T0 80 
		P 85 
		N 89 
		C0 129 
		T0 81 
		P 86 
		N 59 
		C0 130 
		T0 82 
		P 87 
		N 90 
		C0 131 
		T0 83 
		P 88 
		N 91 
		C0 132 
		T0 84 
		P 55 
		N 92 
		C0 133 
		T0 85 
		P 89 
		N 93 
		C0 134 
		T0 86 
		P 90 
		N 94 
		C0 135 
		T0 87 
		P 91 
		N 95 
		C0 136 
		T0 34 
		P 92 
		N 96 
		C0 137 
		T0 33 
		P 93 
		N 97 
		C0 138 
		T0 36 
		P 94 
		N 98 
		C0 139 
		T0 88 
		P 95 
		N 99 
		C0 140 
		T0 89 
		P 95 
		N 99 
		C0 141 
		T0 90 
		P 96 
		N 100 
		C0 142 
		T0 91 
		P 42 
		N 101 
		C0 143 
		T0 92 
		P 57 
		N 102 
		C0 144 
		T0 49 
		P 97 
		N 103 
		C0 145 
		T0 48 
		P 44 
		N 104 
		C0 146 
		T0 51 
		P 43 
		N 104 
		C0 147 
		T0 50 
		P 45 
		N 104 
		C0 148 
		T0 56 
		P 46 
		N 104 
		C0 149 
		T0 57 
		P 98 
		N 105 
		C0 150 
		T0 93 
		P 99 
		N 106 
		C0 151 
		T0 70 
		P 100 
		N 107 
		C0 152 
		T0 94 
		P 101 
		N 108 
		C0 153 
		T0 71 
		P 102 
		N 109 
		C0 154 
		T0 95 
		P 103 
		N 110 
		C0 155 
		T0 53 
		P 53 
		N 104 
		C0 156 
		T0 54 
		P 52 
		N 104 
		C0 157 
		T0 64 
		P 104 
		N 111 
		C0 158 
		T0 65 
		P 56 
		N 112 
		C0 159 
		T0 52 
		P 54 
		N 104 
		C0 160 
		T0 55 
		P 56 
		N 112 
		C0 161 
		T0 96 
		P 103 
		N 110 
		C0 162 
		T0 97 
		P 94 
		N 98 
		C0 163 
		T0 75 
		P 105 
		N 113 
		C0 164 
		T0 74 
		P 106 
		N 114 
		C0 165 
		T0 73 
		P 95 
		N 99 
		C0 166 
		T0 76 
		P 95 
		N 99 
		C0 167 
		T0 77 
		P 96 
		N 100 
		C0 168 
		T0 78 
		P 42 
		N 101 
		C0 169 
		T0 79 
		P 107 
		N 115 
		C0 170 
		T0 98 
		P 108 
		N 116 
		C0 171 
		T0 99 
		P 109 
		N 117 
		C0 172 
		T0 99 
		P 110 
		N 117 
		C0 173 
		T0 99 
		P 111 
		N 118 
		C0 174 
		T0 99 
		P 112 
		N 119 
		C0 175 
		T0 99 
		P 113 
		N 120 
		C0 176 
		T0 99 
		P 114 
		N 117 
		C0 177 
		T0 99 
		P 115 
		N 118 
		C0 178 
		T0 99 
		P 116 
		N 120 
		C0 179 
		T0 99 
		P 117 
		N 121 
		C0 180 
		T0 99 
		P 118 
		N 122 
		C0 181 
		T0 99 
		P 119 
		N 123 
		C0 182 
		T0 99 
		P 120 
		N 59 
		C0 183 
		T0 100 
		P 121 
		N 59 
		C0 184 
		T0 100 
		P 122 
		N 59 
		C0 185 
		T0 100 
		P 123 
		N 59 
		C0 186 
		T0 100 
		P 124 
		N 124 
		C0 187 
		T0 101 
		P 125 
		N 125 
		C0 188 
		T0 102 
		P 126 
		N 126 
		C0 189 
		T0 103 
		P 127 
		N 127 
		C0 190 
		T0 104 
		P 122 
		N 128 
		C0 191 
		T0 105 
		P 121 
		N 129 
		C0 192 
		T0 106 
		P 120 
		N 130 
		C0 193 
		T0 107 
		P 123 
		N 131 
		C0 194 
		T0 108 
		P 128 
		N 132 
		C0 195 
		T0 99 
		P 129 
		N 132 
		C0 196 
		T0 99 
		P 130 
		N 133 
		C0 197 
		T0 99 
		P 131 
		N 134 
		C0 198 
		T0 99 
		P 132 
		N 135 
		C0 199 
		T0 99 
		P 133 
		N 136 
		C0 200 
		T0 99 
		P 134 
		N 132 
		C0 201 
		T0 99 
		P 135 
		N 134 
		C0 202 
		T0 99 
		P 136 
		N 135 
		C0 203 
		T0 99 
		P 137 
		N 137 
		C0 204 
		T0 99 
		P 138 
		N 138 
		C0 205 
		T0 99 
		P 139 
		N 139 
		C0 206 
		T0 99 
		P 140 
		N 59 
		C0 207 
		T0 100 
		P 141 
		N 59 
		C0 208 
		T0 100 
		P 142 
		N 59 
		C0 209 
		T0 100 
		P 143 
		N 59 
		C0 210 
		T0 100 
		P 144 
		N 125 
		C0 211 
		T0 102 
		P 145 
		N 126 
		C0 212 
		T0 103 
		P 146 
		N 127 
		C0 213 
		T0 104 
		P 147 
		N 124 
		C0 214 
		T0 101 
		P 143 
		N 128 
		C0 215 
		T0 105 
		P 142 
		N 129 
		C0 216 
		T0 106 
		P 140 
		N 131 
		C0 217 
		T0 108 
		P 141 
		N 130 
		C0 218 
		T0 107 
		P 51 
		N 104 
		C0 219 
		T0 59 
		P 148 
		N 107 
		C0 220 
		T0 58 
		P 149 
		N 140 
		C0 221 
		T0 109 
		P 150 
		N 141 
		C0 222 
		T0 110 
		P 149 
		N 140 
		C0 223 
		T0 111 
		P 102 
		N 109 
		C0 224 
		T0 112 
		P 151 
		N 142 
		C0 225 
		T0 113 
		P 152 
		N 143 
		C0 226 
		T0 114 
		P 153 
		N 144 
		C0 227 
		T0 115 
		P 154 
		N 145 
		C0 228 
		T0 116 
		P 84 
		N 88 
		C0 229 
		T0 117 
		P 153 
		N 144 
		C0 230 
		T0 109 
		P 104 
		N 111 
		C0 231 
		T0 118 
		P 155 
		N 80 
		C0 232 
		T0 119 
		P 47 
		N 104 
		C0 233 
		T0 63 
		P 50 
		N 104 
		C0 234 
		T0 62 
		P 49 
		N 104 
		C0 235 
		T0 61 
		P 48 
		N 104 
		C0 236 
		T0 60 
		P 107 
		N 115 
		C0 237 
		T0 120 
		P 104 
		N 146 
		C0 238 
		T0 121 
		P 149 
		N 146 
		C0 239 
		T0 122 
		P 150 
		N 115 
		C0 240 
		T0 123 
		P 152 
		N 94 
		C0 241 
		T0 124 
		P 90 
		N 94 
		C0 242 
		T0 125 
		P 78 
		N 82 
		C0 243 
		T0 126 
		P 61 
		N 60 
		C0 244 
		T0 127 
		P 85 
		N 60 
		C0 245 
		T0 128 
		P 154 
		N 82 
		C0 246 
		T0 129 
		P 153 
		N 147 
		C0 247 
		T0 130 
		P 77 
		N 147 
		C0 248 
		T0 131 
		P 69 
		N 148 
		C0 249 
		T0 132 
		P 66 
		N 148 
		C0 250 
		T0 133 
		P 67 
		N 149 
		C0 251 
		T0 134 
		P 70 
		N 149 
		C0 252 
		T0 135 
		P 155 
		N 80 
		C0 253 
		T0 136 
		P 81 
		N 85 
		C0 254 
		T0 137 
		P 83 
		N 87 
		C0 255 
		T0 138 
		P 83 
		N 87 
		C0 256 
		T0 139 
		P 81 
		N 85 
		C0 257 
		T0 140 
		P 93 
		N 150 
		C0 258 
		T0 141 
		P 94 
		N 150 
		C0 259 
		T0 142 
		P 98 
		N 105 
		C0 260 
		T0 143 
		P 105 
		N 113 
		C0 261 
		T0 144 
		P 105 
		N 113 
		C0 262 
		T0 75 
		P 98 
		N 105 
		C0 263 
		T0 145 
		P 100 
		N 107 
		C0 264 
		T0 146 
		P 156 
		N 151 
		C0 265 
		T0 147 
		P 88 
		N 152 
		C0 266 
		T0 148 
		P 87 
		N 153 
		C0 267 
		T0 149 
		P 157 
		N 154 
		C0 268 
		T0 150 
		P 63 
		N 155 
		C0 269 
		T0 148 
		P 64 
		N 156 
		C0 270 
		T0 149 
		P 156 
		N 157 
		C0 271 
		T0 151 
		P 88 
		N 158 
		C0 272 
		T0 152 
		P 151 
		N 142 
		C0 273 
		T0 153 
		P 158 
		N 159 
		C0 274 
		T0 154 
		P 91 
		N 95 
		C0 275 
		T0 153 
		P 158 
		N 159 
		C0 276 
		T0 151 
		P 151 
		N 142 
		C0 277 
		T0 155 
	}

	Mtl 2 { 
		{
			Name "#3" 
			Priority 32 
			Prim 10 { 
				{
					Type TRISTRIP
					Priority 32 
					Idx 9 { 33 34 35 36 37 10 13 11 12 }
				}
				{
					Type TRISTRIP2
					Priority 32 
					Idx 11 { 59 58 60 61 60 37 71 37 69 68 70 }
				}
				{
					Type TRISTRIP
					Priority 32 
					Idx 15 { 28 14 27 17 29 19 30 18 31 16 32 16 15 17 14 }
				}
				{
					Type TRISTRIP2
					Priority 32 
					Idx 4 { 17 19 16 18 }
				}
				{
					Type TRISTRIP2
					Priority 32 
					Idx 20 { 73 57 43 57 41 56 40 55 39 54 38 53 38 42 38 43 38 41 39 40 }
				}
				{
					Type TRISTRIP2
					Priority 32 
					Idx 19 { 1 0 2 3 4 5 8 5 9 6 26 6 7 5 7 3 7 25 26 }
				}
				{
					Type TRISTRIP
					Priority 32 
					Idx 16 { 20 21 22 23 24 23 13 23 37 23 61 23 50 51 52 72 }
				}
				{
					Type TRISTRIP
					Priority 32 
					Idx 16 { 48 62 44 63 45 64 46 65 47 66 47 67 47 49 44 48 }
				}
				{
					Type TRISTRIP
					Priority 32 
					Idx 4 { 44 45 47 46 }
				}
				{
					Type TRISTRIP
					Priority 32 
					Idx 3 { 25 0 3 }
				}
			}

		}
		{
			Name "#4" 
			Priority 32 
			Prim 32 { 
				{
					Type TRISTRIP
					Priority 32 
					Idx 6 { 86 87 89 88 140 139 }
				}
				{
					Type TRISTRIP
					Priority 32 
					Idx 11 { 125 126 121 96 106 105 107 111 110 108 109 }
				}
				{
					Type TRISTRIP2
					Priority 32 
					Idx 26 { 100 103 101 102 113 112 230 107 230 106 230 232 128 118 119 80 81 83 82 137 136 151 153 154 276 277 }
				}
				{
					Type TRISTRIP2
					Priority 32 
					Idx 4 { 209 208 210 207 }
				}
				{
					Type TRISTRIP2
					Priority 32 
					Idx 6 { 245 244 246 243 247 248 }
				}
				{
					Type TRISTRIP2
					Priority 32 
					Idx 4 { 184 183 185 186 }
				}
				{
					Type TRISTRIP2
					Priority 32 
					Idx 3 { 136 153 276 }
				}
				{
					Type TRISTRIP
					Priority 32 
					Idx 10 { 256 257 249 250 252 251 259 258 261 260 }
				}
				{
					Type TRISTRIP
					Priority 32 
					Idx 13 { 223 224 222 225 226 131 130 132 129 132 228 229 227 }
				}
				{
					Type TRISTRIP2
					Priority 32 
					Idx 11 { 115 117 74 116 74 79 77 79 78 129 130 }
				}
				{
					Type TRISTRIP
					Priority 32 
					Idx 13 { 226 130 135 78 134 77 133 77 76 74 75 115 114 }
				}
				{
					Type TRISTRIP2
					Priority 32 
					Idx 9 { 141 92 142 93 143 93 95 90 94 }
				}
				{
					Type TRISTRIP
					Priority 32 
					Idx 4 { 90 91 93 92 }
				}
				{
					Type TRISTRIP
					Priority 32 
					Idx 15 { 235 236 234 233 219 149 220 145 165 145 167 145 168 144 169 }
				}
				{
					Type TRISTRIP2
					Priority 32 
					Idx 8 { 161 133 162 134 231 134 170 135 }
				}
				{
					Type TRISTRIP2
					Priority 32 
					Idx 7 { 220 152 165 164 165 163 166 }
				}
				{
					Type TRISTRIP
					Priority 32 
					Idx 7 { 149 148 145 146 145 147 144 }
				}
				{
					Type TRISTRIP2
					Priority 32 
					Idx 7 { 242 241 237 240 237 239 238 }
				}
				{
					Type TRISTRIP
					Priority 32 
					Idx 7 { 106 232 121 122 121 123 124 }
				}
				{
					Type TRISTRIP2
					Priority 32 
					Idx 23 { 232 120 118 84 80 85 83 138 137 150 151 152 154 220 221 219 221 157 158 156 155 160 159 }
				}
				{
					Type TRISTRIP
					Priority 32 
					Idx 13 { 269 265 270 268 275 268 274 268 273 268 267 265 266 }
				}
				{
					Type TRISTRIP2
					Priority 32 
					Idx 11 { 105 104 96 99 96 98 96 97 96 127 126 }
				}
				{
					Type TRISTRIP
					Priority 32 
					Idx 12 { 181 178 180 177 179 173 176 175 171 172 173 175 }
				}
				{
					Type TRISTRIP
					Priority 32 
					Idx 5 { 180 179 182 178 181 }
				}
				{
					Type TRISTRIP2
					Priority 32 
					Idx 9 { 179 178 176 174 171 174 173 178 177 }
				}
				{
					Type TRISTRIP
					Priority 32 
					Idx 21 { 205 204 201 206 203 205 202 201 195 203 199 202 198 195 196 199 200 198 197 196 200 }
				}
				{
					Type TRISTRIP2
					Priority 32 
					Idx 13 { 218 216 213 215 212 217 211 218 214 213 214 212 211 }
				}
				{
					Type TRISTRIP
					Priority 32 
					Idx 12 { 192 190 191 189 194 188 193 187 190 187 189 188 }
				}
				{
					Type TRISTRIP
					Priority 32 
					Idx 3 { 190 192 193 }
				}
				{
					Type TRISTRIP2
					Priority 32 
					Idx 3 { 253 255 254 }
				}
				{
					Type TRISTRIP
					Priority 32 
					Idx 3 { 264 262 263 }
				}
				{
					Type TRISTRIP2
					Priority 32 
					Idx 5 { 272 128 271 119 81 }
				}
			}

		}
	}

	Offset 0 
}
