{
	Skinned 0 
	PosSkin 0 
	Pos 48 { 
		0.025928	0.550371	0.550507 
		0.025928	0.550371	-0.550507 
		0.025928	-0.550641	-0.550507 
		0.025928	-0.550641	0.550507 
		0.372001	0.550371	-0.550507 
		0.372001	0.550371	0.550507 
		0.372001	-0.550642	0.550507 
		0.372001	-0.550641	-0.550507 
		0.027485	-0.387975	-0.388471 
		0.027485	0.000812	-0.549512 
		0.371681	0.000812	-0.549512 
		0.371681	-0.387975	-0.388471 
		0.027485	-0.549016	0.000315 
		0.371681	-0.549016	0.000315 
		0.027485	-0.387975	0.389099 
		0.371681	-0.387975	0.389099 
		0.027485	0.000812	0.550143 
		0.371681	0.000812	0.550143 
		0.027485	0.389599	0.389099 
		0.371680	0.389599	0.389099 
		0.027485	0.550641	0.000316 
		0.371681	0.550642	0.000315 
		0.027485	0.389599	-0.388471 
		0.371681	0.389598	-0.388471 
		-0.372001	0.550371	0.550507 
		-0.372001	0.550371	-0.550507 
		-0.372001	-0.550641	-0.550507 
		-0.372001	-0.550641	0.550507 
		-0.025924	0.550371	-0.550507 
		-0.025924	0.550371	0.550507 
		-0.025924	-0.550642	0.550507 
		-0.025923	-0.550641	-0.550507 
		-0.370441	-0.387975	-0.388471 
		-0.370441	0.000812	-0.549512 
		-0.026243	0.000812	-0.549512 
		-0.026243	-0.387975	-0.388471 
		-0.370441	-0.549016	0.000315 
		-0.026243	-0.549016	0.000315 
		-0.370441	-0.387975	0.389099 
		-0.026243	-0.387975	0.389099 
		-0.370441	0.000812	0.550143 
		-0.026243	0.000812	0.550143 
		-0.370441	0.389599	0.389099 
		-0.026243	0.389599	0.389099 
		-0.370441	0.550641	0.000316 
		-0.026243	0.550642	0.000315 
		-0.370441	0.389599	-0.388471 
		-0.026243	0.389598	-0.388471 
	}

	Nrm 18 { 
		-1.000000	0.000000	0.000000 
		1.000000	0.000000	0.000000 
		0.000000	0.796875	-0.609375 
		0.000000	0.984375	0.140625 
		0.000000	0.984375	-0.140625 
		0.000000	0.609375	-0.796875 
		0.000000	0.140625	-0.984375 
		0.000000	-0.140625	-0.984375 
		0.000000	-0.609375	-0.796875 
		0.000000	-0.796875	-0.609375 
		0.000000	-0.984375	-0.140625 
		0.000000	-0.984375	0.140625 
		0.000000	-0.796875	0.609375 
		0.000000	-0.609375	0.796875 
		0.000000	-0.140625	0.984375 
		0.000000	0.140625	0.984375 
		0.000000	0.609375	0.796875 
		0.000000	0.796875	0.609375 
	}

	Cpv 80 { 
		0.500000	0.500000	0.500000	1.000000 
		0.500000	0.500000	0.500000	1.000000 
		0.500000	0.500000	0.500000	1.000000 
		0.500000	0.500000	0.500000	1.000000 
		0.500000	0.500000	0.500000	1.000000 
		0.500000	0.500000	0.500000	1.000000 
		0.500000	0.500000	0.500000	1.000000 
		0.500000	0.500000	0.500000	1.000000 
		0.500000	0.500000	0.500000	1.000000 
		0.500000	0.500000	0.500000	1.000000 
		0.500000	0.500000	0.500000	1.000000 
		0.500000	0.500000	0.500000	1.000000 
		0.500000	0.500000	0.500000	1.000000 
		0.500000	0.500000	0.500000	1.000000 
		0.500000	0.500000	0.500000	1.000000 
		0.500000	0.500000	0.500000	1.000000 
		0.500000	0.500000	0.500000	1.000000 
		0.500000	0.500000	0.500000	1.000000 
		0.500000	0.500000	0.500000	1.000000 
		0.500000	0.500000	0.500000	1.000000 
		0.500000	0.500000	0.500000	1.000000 
		0.500000	0.500000	0.500000	1.000000 
		0.500000	0.500000	0.500000	1.000000 
		0.500000	0.500000	0.500000	1.000000 
		0.500000	0.500000	0.500000	1.000000 
		0.500000	0.500000	0.500000	1.000000 
		0.500000	0.500000	0.500000	1.000000 
		0.500000	0.500000	0.500000	1.000000 
		0.500000	0.500000	0.500000	1.000000 
		0.500000	0.500000	0.500000	1.000000 
		0.500000	0.500000	0.500000	1.000000 
		0.500000	0.500000	0.500000	1.000000 
		0.500000	0.500000	0.500000	1.000000 
		0.500000	0.500000	0.500000	1.000000 
		0.500000	0.500000	0.500000	1.000000 
		0.500000	0.500000	0.500000	1.000000 
		0.500000	0.500000	0.500000	1.000000 
		0.500000	0.500000	0.500000	1.000000 
		0.500000	0.500000	0.500000	1.000000 
		0.500000	0.500000	0.500000	1.000000 
		0.500000	0.500000	0.500000	1.000000 
		0.500000	0.500000	0.500000	1.000000 
		0.500000	0.500000	0.500000	1.000000 
		0.500000	0.500000	0.500000	1.000000 
		0.500000	0.500000	0.500000	1.000000 
		0.500000	0.500000	0.500000	1.000000 
		0.500000	0.500000	0.500000	1.000000 
		0.500000	0.500000	0.500000	1.000000 
		0.500000	0.500000	0.500000	1.000000 
		0.500000	0.500000	0.500000	1.000000 
		0.500000	0.500000	0.500000	1.000000 
		0.500000	0.500000	0.500000	1.000000 
		0.500000	0.500000	0.500000	1.000000 
		0.500000	0.500000	0.500000	1.000000 
		0.500000	0.500000	0.500000	1.000000 
		0.500000	0.500000	0.500000	1.000000 
		0.500000	0.500000	0.500000	1.000000 
		0.500000	0.500000	0.500000	1.000000 
		0.500000	0.500000	0.500000	1.000000 
		0.500000	0.500000	0.500000	1.000000 
		0.500000	0.500000	0.500000	1.000000 
		0.500000	0.500000	0.500000	1.000000 
		0.500000	0.500000	0.500000	1.000000 
		0.500000	0.500000	0.500000	1.000000 
		0.500000	0.500000	0.500000	1.000000 
		0.500000	0.500000	0.500000	1.000000 
		0.500000	0.500000	0.500000	1.000000 
		0.500000	0.500000	0.500000	1.000000 
		0.500000	0.500000	0.500000	1.000000 
		0.500000	0.500000	0.500000	1.000000 
		0.500000	0.500000	0.500000	1.000000 
		0.500000	0.500000	0.500000	1.000000 
		0.500000	0.500000	0.500000	1.000000 
		0.500000	0.500000	0.500000	1.000000 
		0.500000	0.500000	0.500000	1.000000 
		0.500000	0.500000	0.500000	1.000000 
		0.500000	0.500000	0.500000	1.000000 
		0.500000	0.500000	0.500000	1.000000 
		0.500000	0.500000	0.500000	1.000000 
		0.500000	0.500000	0.500000	1.000000 
	}

	Tex0 12 { 
		0.488281	0.965820 
		0.017578	0.965820 
		0.017578	0.034180 
		0.488281	0.034180 
		0.000000	1.000000 
		0.505859	1.000000 
		0.505859	0.000000 
		0.000000	0.000000 
		0.528320	0.000000 
		0.991211	0.000000 
		0.991211	1.000000 
		0.528320	1.000000 
	}

	Tex1 0 
	Adj 80 { 
		P 0 
		N 0 
		C0 0 
		T0 0 
		P 1 
		N 0 
		C0 1 
		T0 1 
		P 2 
		N 0 
		C0 2 
		T0 2 
		P 3 
		N 0 
		C0 3 
		T0 3 
		P 4 
		N 1 
		C0 4 
		T0 4 
		P 5 
		N 1 
		C0 5 
		T0 5 
		P 6 
		N 1 
		C0 6 
		T0 6 
		P 7 
		N 1 
		C0 7 
		T0 7 
		P 8 
		N 2 
		C0 8 
		T0 8 
		P 9 
		N 3 
		C0 9 
		T0 9 
		P 10 
		N 4 
		C0 10 
		T0 10 
		P 11 
		N 5 
		C0 11 
		T0 11 
		P 12 
		N 6 
		C0 12 
		T0 8 
		P 8 
		N 2 
		C0 13 
		T0 9 
		P 11 
		N 5 
		C0 14 
		T0 10 
		P 13 
		N 7 
		C0 15 
		T0 11 
		P 14 
		N 8 
		C0 16 
		T0 8 
		P 12 
		N 6 
		C0 17 
		T0 9 
		P 13 
		N 7 
		C0 18 
		T0 10 
		P 15 
		N 9 
		C0 19 
		T0 11 
		P 16 
		N 10 
		C0 20 
		T0 8 
		P 14 
		N 8 
		C0 21 
		T0 9 
		P 15 
		N 9 
		C0 22 
		T0 10 
		P 17 
		N 11 
		C0 23 
		T0 11 
		P 18 
		N 12 
		C0 24 
		T0 8 
		P 16 
		N 10 
		C0 25 
		T0 9 
		P 17 
		N 11 
		C0 26 
		T0 10 
		P 19 
		N 13 
		C0 27 
		T0 11 
		P 20 
		N 14 
		C0 28 
		T0 8 
		P 18 
		N 12 
		C0 29 
		T0 9 
		P 19 
		N 13 
		C0 30 
		T0 10 
		P 21 
		N 15 
		C0 31 
		T0 11 
		P 22 
		N 16 
		C0 32 
		T0 8 
		P 20 
		N 14 
		C0 33 
		T0 9 
		P 21 
		N 15 
		C0 34 
		T0 10 
		P 23 
		N 17 
		C0 35 
		T0 11 
		P 9 
		N 3 
		C0 36 
		T0 8 
		P 22 
		N 16 
		C0 37 
		T0 9 
		P 23 
		N 17 
		C0 38 
		T0 10 
		P 10 
		N 4 
		C0 39 
		T0 11 
		P 24 
		N 0 
		C0 40 
		T0 0 
		P 25 
		N 0 
		C0 41 
		T0 1 
		P 26 
		N 0 
		C0 42 
		T0 2 
		P 27 
		N 0 
		C0 43 
		T0 3 
		P 28 
		N 1 
		C0 44 
		T0 1 
		P 29 
		N 1 
		C0 45 
		T0 0 
		P 30 
		N 1 
		C0 46 
		T0 3 
		P 31 
		N 1 
		C0 47 
		T0 2 
		P 32 
		N 2 
		C0 48 
		T0 8 
		P 33 
		N 3 
		C0 49 
		T0 9 
		P 34 
		N 4 
		C0 50 
		T0 10 
		P 35 
		N 5 
		C0 51 
		T0 11 
		P 36 
		N 6 
		C0 52 
		T0 8 
		P 32 
		N 2 
		C0 53 
		T0 9 
		P 35 
		N 5 
		C0 54 
		T0 10 
		P 37 
		N 7 
		C0 55 
		T0 11 
		P 38 
		N 8 
		C0 56 
		T0 8 
		P 36 
		N 6 
		C0 57 
		T0 9 
		P 37 
		N 7 
		C0 58 
		T0 10 
		P 39 
		N 9 
		C0 59 
		T0 11 
		P 40 
		N 10 
		C0 60 
		T0 8 
		P 38 
		N 8 
		C0 61 
		T0 9 
		P 39 
		N 9 
		C0 62 
		T0 10 
		P 41 
		N 11 
		C0 63 
		T0 11 
		P 42 
		N 12 
		C0 64 
		T0 8 
		P 40 
		N 10 
		C0 65 
		T0 9 
		P 41 
		N 11 
		C0 66 
		T0 10 
		P 43 
		N 13 
		C0 67 
		T0 11 
		P 44 
		N 14 
		C0 68 
		T0 8 
		P 42 
		N 12 
		C0 69 
		T0 9 
		P 43 
		N 13 
		C0 70 
		T0 10 
		P 45 
		N 15 
		C0 71 
		T0 11 
		P 46 
		N 16 
		C0 72 
		T0 8 
		P 44 
		N 14 
		C0 73 
		T0 9 
		P 45 
		N 15 
		C0 74 
		T0 10 
		P 47 
		N 17 
		C0 75 
		T0 11 
		P 33 
		N 3 
		C0 76 
		T0 8 
		P 46 
		N 16 
		C0 77 
		T0 9 
		P 47 
		N 17 
		C0 78 
		T0 10 
		P 34 
		N 4 
		C0 79 
		T0 11 
	}

	Mtl 1 { 
		{
			Name "#6" 
			Priority 32 
			Prim 20 { 
				{
					Type TRISTRIP
					Priority 32 
					Idx 4 { 2 3 1 0 }
				}
				{
					Type TRISTRIP
					Priority 32 
					Idx 4 { 7 4 6 5 }
				}
				{
					Type TRISTRIP
					Priority 32 
					Idx 4 { 8 9 11 10 }
				}
				{
					Type TRISTRIP
					Priority 32 
					Idx 4 { 13 14 12 15 }
				}
				{
					Type TRISTRIP
					Priority 32 
					Idx 4 { 17 18 16 19 }
				}
				{
					Type TRISTRIP
					Priority 32 
					Idx 4 { 21 22 20 23 }
				}
				{
					Type TRISTRIP
					Priority 32 
					Idx 4 { 25 26 24 27 }
				}
				{
					Type TRISTRIP
					Priority 32 
					Idx 4 { 28 29 31 30 }
				}
				{
					Type TRISTRIP
					Priority 32 
					Idx 4 { 32 33 35 34 }
				}
				{
					Type TRISTRIP
					Priority 32 
					Idx 4 { 36 37 39 38 }
				}
				{
					Type TRISTRIP
					Priority 32 
					Idx 4 { 42 43 41 40 }
				}
				{
					Type TRISTRIP
					Priority 32 
					Idx 4 { 47 44 46 45 }
				}
				{
					Type TRISTRIP
					Priority 32 
					Idx 4 { 48 49 51 50 }
				}
				{
					Type TRISTRIP
					Priority 32 
					Idx 4 { 53 54 52 55 }
				}
				{
					Type TRISTRIP
					Priority 32 
					Idx 4 { 57 58 56 59 }
				}
				{
					Type TRISTRIP
					Priority 32 
					Idx 4 { 61 62 60 63 }
				}
				{
					Type TRISTRIP
					Priority 32 
					Idx 4 { 65 66 64 67 }
				}
				{
					Type TRISTRIP
					Priority 32 
					Idx 4 { 68 69 71 70 }
				}
				{
					Type TRISTRIP
					Priority 32 
					Idx 4 { 72 73 75 74 }
				}
				{
					Type TRISTRIP
					Priority 32 
					Idx 4 { 76 77 79 78 }
				}
			}

		}
	}

	Offset 0 
}
