{
	Skinned 0 
	PosSkin 0 
	Pos 4 { 
		-0.899248	0.991183	-2.580393 
		-0.899248	1.217665	-2.587063 
		-0.634094	1.223877	-2.606958 
		-0.637417	0.991156	-2.599943 
	}

	Nrm 1 { 
		-0.078125	-0.031250	-1.000000 
	}

	Cpv 4 { 
		0.500000	0.522890	0.621889	0.000000 
		0.500000	0.474821	0.673647	0.000000 
		0.500000	0.477110	0.675584	0.000000 
		0.500000	0.526473	0.622397	0.000000 
	}

	Tex0 4 { 
		0.444336	0.625000 
		0.444336	0.677734 
		0.383789	0.678711 
		0.383789	0.625000 
	}

	Tex1 0 
	Adj 4 { 
		P 0 
		N 0 
		C0 0 
		T0 0 
		P 1 
		N 0 
		C0 1 
		T0 1 
		P 2 
		N 0 
		C0 2 
		T0 2 
		P 3 
		N 0 
		C0 3 
		T0 3 
	}

	Mtl 1 { 
		{
			Name "#4" 
			Priority 32 
			Prim 1 { 
				{
					Type TRISTRIP
					Priority 32 
					Idx 4 { 0 1 3 2 }
				}
			}

		}
	}

	Offset 0 
}
