{
	Skinned 0 
	PosSkin 0 
	Pos 225 { 
		-0.895680	1.118769	2.311617 
		-0.913885	0.911099	2.312908 
		-0.863885	0.911973	2.362990 
		-0.845546	1.117905	2.361479 
		-0.734461	0.912088	2.369560 
		-0.737216	1.117154	2.367290 
		-0.836878	1.195999	2.360765 
		-0.889003	1.194933	2.311143 
		0.899910	1.118769	2.311617 
		0.849776	1.117905	2.361479 
		0.868115	0.911973	2.362990 
		0.918115	0.911099	2.312908 
		0.738692	0.912088	2.369560 
		0.741446	1.117154	2.367290 
		0.841108	1.195999	2.360765 
		0.893234	1.194933	2.311143 
		-0.865249	0.362649	-1.971498 
		-0.798040	0.379085	-2.183344 
		0.002115	0.378122	-2.238516 
		-0.593285	0.362649	-1.971498 
		-0.886676	0.537235	2.319937 
		-0.891109	0.466373	1.949469 
		-0.593285	0.468053	1.949440 
		-0.835620	0.553022	2.393748 
		0.002115	0.562622	2.437517 
		-0.913885	0.734909	1.901598 
		-0.593285	0.832456	1.780403 
		-0.933121	0.832456	1.780403 
		-0.933121	0.882306	1.462740 
		-0.593285	0.803837	1.143264 
		-0.933121	0.803837	1.143264 
		-0.933121	0.600972	1.015927 
		-0.879077	0.351020	0.998177 
		-0.593285	0.351020	0.998177 
		-0.879077	0.340940	0.413571 
		-0.879077	0.316111	-1.026461 
		-0.593285	0.316111	-1.026461 
		-0.933121	0.574914	-1.071010 
		-0.593285	0.820497	-1.291384 
		-0.593285	0.683464	-1.899888 
		-0.933121	0.820497	-1.291384 
		-0.933121	0.813154	-1.699774 
		-0.928541	0.683464	-1.899888 
		-0.911105	0.515062	-1.950033 
		-0.846990	0.380221	-2.118222 
		0.000000	0.362649	-1.971497 
		0.000000	0.468053	1.949440 
		0.000000	0.351020	0.998178 
		0.000000	0.316111	-1.026461 
		0.869479	0.362649	-1.971498 
		0.597515	0.362649	-1.971497 
		0.802271	0.379085	-2.183344 
		0.890906	0.537236	2.319937 
		0.839851	0.553022	2.393748 
		0.597515	0.468053	1.949440 
		0.895340	0.466373	1.949469 
		0.918115	0.734909	1.901598 
		0.597515	0.832456	1.780403 
		0.937351	0.832456	1.780403 
		0.937351	0.882306	1.462740 
		0.597515	0.803837	1.143264 
		0.937351	0.803837	1.143264 
		0.937351	0.600972	1.015927 
		0.597515	0.351020	0.998177 
		0.883307	0.351020	0.998178 
		0.597515	0.316111	-1.026461 
		0.883307	0.316111	-1.026461 
		0.883307	0.340940	0.413571 
		0.937351	0.574914	-1.071010 
		0.597515	0.683464	-1.899888 
		0.597515	0.820497	-1.291384 
		0.937351	0.820497	-1.291384 
		0.937351	0.813154	-1.699774 
		0.932771	0.683464	-1.899888 
		0.915336	0.515062	-1.950033 
		0.851221	0.380221	-2.118222 
		0.004230	0.362649	-1.971498 
		0.004230	0.468053	1.949440 
		0.004230	0.351020	0.998178 
		0.004231	0.316111	-1.026461 
		-0.807031	0.472873	-2.243548 
		0.002115	0.471910	-2.298720 
		-0.815204	0.659537	-2.248018 
		0.002115	0.659036	-2.303195 
		-0.815204	0.678176	-2.174767 
		0.002115	0.677213	-2.229939 
		-0.815204	0.779559	-2.177686 
		0.002115	0.778596	-2.232859 
		-0.815204	0.894606	-2.157248 
		0.002115	0.911151	-2.212727 
		-0.810960	1.007994	-2.084765 
		0.002115	1.033220	-2.138258 
		0.002115	1.141455	-1.677668 
		-0.825910	1.105467	-1.658257 
		-0.815848	1.199875	-0.923427 
		0.002115	1.242136	-0.987908 
		-0.757658	1.456117	-0.654734 
		0.002115	1.480712	-0.720900 
		-0.693512	1.662548	-0.392002 
		0.002115	1.671220	-0.478372 
		-0.666291	1.712271	-0.270893 
		0.002115	1.737723	-0.298730 
		-0.645572	1.740204	-0.082510 
		0.002115	1.764835	-0.129923 
		-0.646441	1.768303	0.420519 
		0.002115	1.793643	0.421834 
		-0.649150	1.764477	1.988404 
		-0.766413	1.489056	2.234293 
		0.002115	1.489824	2.278253 
		0.002115	1.790648	2.026441 
		0.002115	1.196766	2.404724 
		0.002115	0.777745	2.385983 
		0.002115	0.822267	2.392898 
		-0.863885	0.822267	2.349057 
		-0.863885	0.776978	2.342023 
		-0.854359	0.779225	2.470759 
		0.002115	0.779786	2.502930 
		-0.844938	0.614390	2.459395 
		0.002115	0.614951	2.491566 
		-0.718040	1.664818	-0.254424 
		-0.744713	1.619763	-0.365347 
		-0.730656	1.651486	0.420051 
		-0.706703	1.696084	0.420271 
		-0.707906	1.690338	-0.075970 
		-0.808193	1.486468	2.177072 
		-0.702952	1.714005	1.967934 
		-0.807599	1.450791	0.419059 
		-0.880197	1.172097	0.417681 
		-0.893844	0.612484	2.407913 
		-0.903809	0.775142	2.408532 
		-0.913885	0.773259	2.293088 
		-0.910114	0.948445	-1.612710 
		-0.925293	0.904809	0.416359 
		-0.874231	1.156626	-0.865123 
		-0.856531	0.473774	-2.191895 
		-0.865204	0.660093	-2.197775 
		-0.865204	0.679105	-2.120386 
		-0.865204	0.779466	-2.123907 
		-0.865204	0.887022	-2.106867 
		-0.883716	1.061723	-1.640204 
		-0.865204	0.981381	-2.044130 
		-0.933121	0.808814	0.415884 
		-0.933121	0.593466	0.414820 
		-0.807254	1.430060	-0.602473 
		-1.090211	1.331197	-0.642211 
		-1.091896	1.355117	-0.578221 
		-0.885889	1.350707	-0.617386 
		-0.834196	1.305915	-0.722664 
		-1.100854	1.214870	-0.572510 
		-1.098264	1.208650	-0.639919 
		-0.868897	1.173326	-0.716481 
		-0.870210	1.180236	-0.615128 
		-0.843217	1.274347	-0.622749 
		0.002115	0.912740	2.406950 
		0.811261	0.472873	-2.243548 
		0.819434	0.659537	-2.248018 
		0.819434	0.678176	-2.174767 
		0.819434	0.779559	-2.177686 
		0.819434	0.894606	-2.157248 
		0.815191	1.007994	-2.084765 
		0.830141	1.105467	-1.658257 
		0.820079	1.199875	-0.923427 
		0.761888	1.456117	-0.654734 
		0.697743	1.662548	-0.392002 
		0.670521	1.712271	-0.270893 
		0.649802	1.740204	-0.082510 
		0.650671	1.768303	0.420519 
		0.653381	1.764477	1.988404 
		0.770643	1.489056	2.234293 
		0.868115	0.776978	2.342023 
		0.868115	0.822267	2.349057 
		0.858589	0.779225	2.470759 
		0.849168	0.614390	2.459395 
		0.722270	1.664818	-0.254424 
		0.712137	1.690338	-0.075970 
		0.710934	1.696084	0.420271 
		0.734886	1.651486	0.420051 
		0.748943	1.619763	-0.365347 
		0.812424	1.486468	2.177072 
		0.811830	1.450791	0.419059 
		0.707183	1.714005	1.967934 
		0.884428	1.172097	0.417681 
		0.898074	0.612484	2.407913 
		0.918115	0.773259	2.293088 
		0.908039	0.775142	2.408532 
		0.914344	0.948445	-1.612710 
		0.878462	1.156626	-0.865123 
		0.929523	0.904809	0.416359 
		0.860761	0.473774	-2.191895 
		0.869434	0.660093	-2.197775 
		0.869434	0.679105	-2.120386 
		0.869434	0.779466	-2.123907 
		0.869434	0.887022	-2.106866 
		0.869434	0.981381	-2.044130 
		0.887946	1.061723	-1.640204 
		0.937351	0.808814	0.415884 
		0.937351	0.593466	0.414820 
		0.811485	1.430060	-0.602473 
		1.094442	1.331197	-0.642211 
		0.838427	1.305915	-0.722664 
		0.890119	1.350707	-0.617386 
		1.096127	1.355117	-0.578221 
		1.105084	1.214870	-0.572510 
		1.102494	1.208650	-0.639919 
		0.873127	1.173326	-0.716481 
		0.874440	1.180236	-0.615128 
		0.847447	1.274347	-0.622749 
		-0.815204	0.779559	-2.184633 
		-0.815204	0.894606	-2.164195 
		-0.616649	0.900534	-2.184073 
		-0.580761	0.779102	-2.210816 
		-0.812231	0.974033	-2.113421 
		-0.624097	0.969865	-2.133411 
		-0.865204	0.779466	-2.130853 
		-0.865204	0.887022	-2.113813 
		-0.865204	0.975088	-2.055260 
		0.819434	0.779559	-2.184633 
		0.584992	0.779102	-2.210816 
		0.620879	0.900534	-2.184073 
		0.819434	0.894606	-2.164195 
		0.628327	0.969865	-2.133410 
		0.816462	0.974033	-2.113421 
		0.869434	0.887022	-2.113813 
		0.869434	0.779466	-2.130853 
		0.869434	0.975089	-2.055260 
	}

	Nrm 248 { 
		-0.921875	0.093750	0.390625 
		-0.890625	-0.031250	0.468750 
		-0.406250	-0.046875	0.906250 
		-0.406250	0.046875	0.921875 
		-0.046875	-0.078125	1.000000 
		-0.046875	0.015625	1.000000 
		-0.328125	0.203125	0.921875 
		-0.937500	0.218750	0.281250 
		0.921875	0.093750	0.390625 
		0.406250	0.046875	0.921875 
		0.406250	-0.046875	0.906250 
		0.890625	-0.031250	0.468750 
		0.046875	-0.078125	1.000000 
		0.046875	0.015625	1.000000 
		0.328125	0.203125	0.921875 
		0.937500	0.218750	0.281250 
		-0.109375	-0.984375	-0.109375 
		0.000000	-1.000000	-0.062500 
		0.015625	-0.984375	0.187500 
		0.000000	-0.984375	0.171875 
		0.000000	-0.984375	0.187500 
		0.000000	-0.171875	-0.984375 
		-0.078125	-0.484375	-0.875000 
		-0.531250	-0.250000	-0.812500 
		-0.359375	-0.828125	-0.421875 
		0.000000	-0.921875	-0.406250 
		-0.062500	-1.000000	0.046875 
		-0.359375	-0.750000	0.562500 
		0.000000	-0.812500	0.578125 
		-0.062500	-0.312500	0.953125 
		0.000000	-0.078125	1.000000 
		-0.515625	-0.156250	0.843750 
		0.000000	-1.000000	0.015625 
		0.000000	-1.000000	0.000000 
		0.000000	-1.000000	0.046875 
		-0.078125	-0.437500	-0.890625 
		-0.531250	-0.265625	-0.796875 
		-0.406250	-0.843750	-0.375000 
		-0.343750	-0.609375	0.718750 
		-0.468750	-0.156250	0.875000 
		-0.078125	-0.953125	0.265625 
		0.000000	-0.593750	0.796875 
		-0.015625	-0.218750	0.984375 
		0.000000	-0.140625	0.984375 
		-0.218750	-0.968750	-0.140625 
		0.000000	-1.000000	-0.046875 
		0.000000	-0.984375	0.156250 
		0.000000	-1.000000	0.062500 
		0.000000	-1.000000	-0.015625 
		0.109375	-0.984375	-0.109375 
		-0.015625	-0.984375	0.187500 
		0.531250	-0.250000	-0.812500 
		0.078125	-0.484375	-0.875000 
		0.359375	-0.828125	-0.421875 
		0.062500	-1.000000	0.046875 
		0.359375	-0.750000	0.562500 
		0.062500	-0.312500	0.953125 
		0.515625	-0.156250	0.843750 
		0.531250	-0.265625	-0.796875 
		0.078125	-0.437500	-0.890625 
		0.468750	-0.156250	0.875000 
		0.343750	-0.609375	0.718750 
		0.406250	-0.843750	-0.375000 
		0.078125	-0.953125	0.265625 
		0.015625	-0.218750	0.984375 
		0.218750	-0.968750	-0.140625 
		-0.390625	-0.531250	-0.750000 
		-0.421875	-0.296875	-0.859375 
		0.000000	-0.296875	-0.953125 
		0.000000	-0.546875	-0.843750 
		-0.343750	0.609375	-0.718750 
		0.000000	0.609375	-0.796875 
		-0.343750	0.609375	-0.703125 
		-0.421875	0.062500	-0.906250 
		0.000000	0.062500	-1.000000 
		-0.421875	0.328125	-0.843750 
		0.000000	0.359375	-0.937500 
		-0.390625	0.750000	-0.531250 
		0.000000	0.812500	-0.578125 
		0.000000	0.984375	-0.187500 
		-0.343750	0.921875	-0.171875 
		-0.421875	0.843750	-0.343750 
		0.000000	0.906250	-0.421875 
		-0.437500	0.734375	-0.531250 
		0.000000	0.765625	-0.640625 
		-0.406250	0.828125	-0.390625 
		0.000000	0.875000	-0.484375 
		-0.390625	0.906250	-0.187500 
		0.000000	0.968750	-0.250000 
		-0.390625	0.921875	-0.078125 
		0.000000	1.000000	-0.109375 
		-0.406250	0.906250	-0.015625 
		0.000000	1.000000	-0.031250 
		-0.421875	0.843750	0.328125 
		-0.390625	0.578125	0.718750 
		0.000000	0.531250	0.843750 
		0.000000	0.906250	0.406250 
		0.000000	0.140625	0.984375 
		0.000000	0.656250	0.750000 
		0.000000	-0.156250	0.984375 
		-0.328125	-0.140625	0.937500 
		-0.312500	0.687500	0.656250 
		-0.031250	1.000000	-0.015625 
		0.000000	1.000000	-0.015625 
		-0.031250	-0.062500	1.000000 
		-0.031250	-0.718750	0.687500 
		0.000000	-0.718750	0.687500 
		-0.750000	0.656250	-0.062500 
		-0.828125	0.562500	-0.125000 
		-0.906250	0.421875	0.000000 
		-0.812500	0.593750	-0.015625 
		-0.750000	0.656250	-0.031250 
		-0.859375	0.453125	0.250000 
		-0.828125	0.562500	0.093750 
		-0.953125	0.312500	0.000000 
		-0.984375	0.203125	0.000000 
		-0.843750	-0.296875	0.453125 
		-0.859375	0.390625	0.328125 
		-0.968750	0.171875	0.203125 
		-0.921875	-0.312500	0.218750 
		-1.000000	-0.093750	0.015625 
		-1.000000	-0.078125	0.031250 
		-1.000000	0.015625	0.031250 
		-1.000000	0.093750	0.000000 
		-0.984375	0.187500	-0.031250 
		-0.984375	0.125000	0.000000 
		-0.906250	0.406250	-0.109375 
		-0.843750	-0.375000	-0.375000 
		-0.953125	-0.250000	-0.156250 
		-0.968750	-0.156250	-0.187500 
		-0.875000	-0.218750	-0.437500 
		-0.765625	0.500000	-0.406250 
		-0.984375	-0.046875	-0.203125 
		-0.921875	0.328125	-0.234375 
		-0.875000	0.062500	-0.468750 
		-0.890625	0.218750	-0.421875 
		-0.984375	0.156250	-0.093750 
		-0.843750	0.531250	-0.093750 
		-0.859375	0.421875	-0.265625 
		-1.000000	0.046875	0.000000 
		-1.000000	0.031250	0.000000 
		-1.000000	-0.109375	0.000000 
		-0.984375	-0.203125	0.000000 
		-0.875000	0.468750	-0.187500 
		-0.750000	-0.062500	0.656250 
		-0.687500	-0.375000	0.625000 
		-0.546875	-0.656250	0.531250 
		-0.625000	0.468750	-0.640625 
		-0.687500	0.656250	-0.296875 
		-0.046875	0.921875	-0.390625 
		-0.203125	0.562500	-0.796875 
		-0.765625	-0.640625	0.015625 
		-0.734375	-0.468750	-0.484375 
		-0.312500	-0.703125	-0.640625 
		-0.125000	-0.984375	0.078125 
		0.187500	0.031250	0.984375 
		0.171875	0.031250	0.984375 
		0.859375	0.468750	0.218750 
		0.390625	-0.531250	-0.750000 
		0.421875	-0.296875	-0.859375 
		0.343750	0.609375	-0.718750 
		0.343750	0.609375	-0.703125 
		0.421875	0.062500	-0.906250 
		0.421875	0.328125	-0.843750 
		0.390625	0.750000	-0.531250 
		0.343750	0.921875	-0.171875 
		0.421875	0.843750	-0.343750 
		0.437500	0.734375	-0.531250 
		0.406250	0.828125	-0.390625 
		0.390625	0.906250	-0.187500 
		0.390625	0.921875	-0.078125 
		0.406250	0.906250	-0.015625 
		0.421875	0.843750	0.328125 
		0.390625	0.578125	0.718750 
		0.312500	0.687500	0.656250 
		0.328125	-0.140625	0.937500 
		0.031250	1.000000	-0.015625 
		0.031250	-0.062500	1.000000 
		0.031250	-0.718750	0.687500 
		0.750000	0.656250	-0.062500 
		0.750000	0.656250	-0.031250 
		0.812500	0.593750	-0.015625 
		0.906250	0.421875	0.000000 
		0.828125	0.562500	-0.125000 
		0.859375	0.453125	0.250000 
		0.953125	0.312500	0.000000 
		0.828125	0.562500	0.093750 
		0.984375	0.203125	0.000000 
		0.843750	-0.296875	0.453125 
		0.921875	-0.312500	0.218750 
		0.968750	0.171875	0.203125 
		0.859375	0.390625	0.328125 
		1.000000	-0.093750	0.015625 
		1.000000	-0.078125	0.031250 
		1.000000	0.015625	0.031250 
		1.000000	0.093750	0.000000 
		0.984375	0.187500	-0.031250 
		0.906250	0.406250	-0.109375 
		0.984375	0.125000	0.000000 
		0.843750	-0.375000	-0.375000 
		0.875000	-0.218750	-0.437500 
		0.968750	-0.156250	-0.187500 
		0.953125	-0.250000	-0.156250 
		0.765625	0.500000	-0.406250 
		0.984375	-0.046875	-0.203125 
		0.921875	0.328125	-0.234375 
		0.875000	0.062500	-0.468750 
		0.890625	0.218750	-0.421875 
		0.984375	0.156250	-0.093750 
		0.859375	0.421875	-0.265625 
		0.843750	0.531250	-0.093750 
		1.000000	0.046875	0.000000 
		1.000000	0.031250	0.000000 
		1.000000	-0.109375	0.000000 
		0.984375	-0.203125	0.000000 
		0.875000	0.468750	-0.187500 
		0.750000	-0.062500	0.656250 
		0.687500	-0.375000	0.625000 
		0.546875	-0.656250	0.531250 
		0.625000	0.468750	-0.640625 
		0.203125	0.562500	-0.796875 
		0.046875	0.921875	-0.390625 
		0.687500	0.656250	-0.296875 
		0.765625	-0.640625	0.015625 
		0.734375	-0.468750	-0.484375 
		0.312500	-0.703125	-0.640625 
		0.125000	-0.984375	0.078125 
		-0.187500	0.031250	0.984375 
		-0.171875	0.031250	0.984375 
		-0.859375	0.468750	0.218750 
		-0.437500	0.156250	-0.890625 
		-0.421875	0.343750	-0.843750 
		-0.093750	0.375000	-0.921875 
		-0.109375	0.171875	-0.984375 
		-0.406250	0.515625	-0.765625 
		-0.093750	0.562500	-0.828125 
		-0.718750	0.109375	-0.687500 
		-0.703125	0.265625	-0.656250 
		-0.671875	0.406250	-0.609375 
		0.437500	0.156250	-0.890625 
		0.109375	0.171875	-0.984375 
		0.093750	0.375000	-0.921875 
		0.421875	0.343750	-0.843750 
		0.093750	0.562500	-0.828125 
		0.406250	0.515625	-0.765625 
		0.703125	0.265625	-0.656250 
		0.718750	0.109375	-0.687500 
		0.671875	0.406250	-0.609375 
	}

	Cpv 401 { 
		0.500000	0.500000	0.500000	0.000000 
		0.500000	0.500000	0.500000	0.000000 
		0.500000	0.500000	0.500000	0.000000 
		0.500000	0.500000	0.500000	0.000000 
		0.500000	0.500000	0.500000	0.000000 
		0.500000	0.500000	0.500000	0.000000 
		0.500000	0.500000	0.500000	0.000000 
		0.500000	0.500000	0.500000	0.000000 
		0.500000	0.500000	0.500000	0.000000 
		0.500000	0.500000	0.500000	0.000000 
		0.500000	0.500000	0.500000	0.000000 
		0.500000	0.500000	0.500000	0.000000 
		0.500000	0.500000	0.500000	0.000000 
		0.500000	0.500000	0.500000	0.000000 
		0.500000	0.500000	0.500000	0.000000 
		0.500000	0.500000	0.500000	0.000000 
		0.500000	0.604797	0.500000	0.000000 
		0.500000	0.611764	0.500000	0.000000 
		0.500000	0.572347	0.638807	0.000000 
		0.500000	0.604797	0.500000	0.000000 
		0.500000	0.500000	0.500000	0.000000 
		0.500000	0.500000	0.500000	0.000000 
		0.500000	0.500000	0.500000	0.000000 
		0.500000	0.500000	0.465533	0.000000 
		0.500000	0.567012	0.368595	0.000000 
		0.500000	0.500000	0.500000	0.000000 
		0.500000	0.500000	0.500000	0.000000 
		0.500000	0.500000	0.500000	0.000000 
		0.500000	0.500000	0.500000	0.000000 
		0.500000	0.500000	0.500000	0.000000 
		0.500000	0.500000	0.500000	0.000000 
		0.500000	0.500000	0.500000	0.000000 
		0.500000	0.500000	0.500000	0.000000 
		0.500000	0.500000	0.500000	0.000000 
		0.500000	0.500000	0.500000	0.000000 
		0.500000	0.500000	0.500000	0.000000 
		0.500000	0.500000	0.500000	0.000000 
		0.500000	0.500000	0.500000	0.000000 
		0.500000	0.500000	0.500000	0.000000 
		0.500000	0.500000	0.500000	0.000000 
		0.500000	0.500000	0.500000	0.000000 
		0.500000	0.500000	0.500000	0.000000 
		0.500000	0.500000	0.500000	0.000000 
		0.500000	0.500000	0.500000	0.000000 
		0.500000	0.500000	0.500000	0.000000 
		0.500000	0.500000	0.500000	0.000000 
		0.500000	0.604797	0.500000	0.000000 
		0.500000	0.500000	0.500000	0.000000 
		0.500000	0.500000	0.500000	0.000000 
		0.500000	0.500000	0.500000	0.000000 
		0.500000	0.604797	0.500000	0.000000 
		0.500000	0.604797	0.500000	0.000000 
		0.500000	0.604797	0.500000	0.000000 
		0.500000	0.572347	0.638807	0.000000 
		0.500000	0.500000	0.500000	0.000000 
		0.500000	0.500000	0.500000	0.000000 
		0.500000	0.500000	0.500000	0.000000 
		0.500000	0.500000	0.500000	0.000000 
		0.500000	0.500000	0.500000	0.000000 
		0.500000	0.500000	0.500000	0.000000 
		0.500000	0.500000	0.500000	0.000000 
		0.500000	0.500000	0.500000	0.000000 
		0.500000	0.500000	0.500000	0.000000 
		0.500000	0.500000	0.500000	0.000000 
		0.500000	0.500000	0.500000	0.000000 
		0.500000	0.500000	0.500000	0.000000 
		0.500000	0.500000	0.500000	0.000000 
		0.500000	0.500000	0.500000	0.000000 
		0.500000	0.500000	0.500000	0.000000 
		0.500000	0.500000	0.500000	0.000000 
		0.500000	0.500000	0.500000	0.000000 
		0.500000	0.500000	0.500000	0.000000 
		0.500000	0.500000	0.500000	0.000000 
		0.500000	0.500000	0.500000	0.000000 
		0.500000	0.500000	0.500000	0.000000 
		0.500000	0.500000	0.500000	0.000000 
		0.500000	0.500000	0.500000	0.000000 
		0.500000	0.500000	0.500000	0.000000 
		0.446235	0.500000	0.500000	0.000000 
		0.500000	0.500000	0.500000	0.000000 
		0.446235	0.500000	0.500000	0.000000 
		0.500000	0.500000	0.500000	0.000000 
		0.446235	0.500000	0.500000	0.000000 
		0.500000	0.500000	0.500000	0.000000 
		0.500000	0.500000	0.500000	0.000000 
		0.500000	0.500000	0.500000	0.000000 
		0.428040	0.500000	0.500000	0.000000 
		0.399385	0.500000	0.500000	0.000000 
		0.500000	0.500000	0.500000	0.000000 
		0.500000	0.500000	0.500000	0.000000 
		0.500000	0.500000	0.500000	0.000000 
		0.500000	0.500000	0.500000	0.000000 
		0.500000	0.572347	0.638807	0.000000 
		0.500000	0.500000	0.500000	0.000000 
		0.500000	0.500000	0.500000	0.000000 
		0.500000	0.500000	0.500000	0.000000 
		0.500000	0.611764	0.500000	0.000000 
		0.500000	0.604797	0.500000	0.000000 
		0.500000	0.572347	0.638807	0.000000 
		0.500000	0.572347	0.638807	0.000000 
		0.500000	0.500000	0.500000	0.000000 
		0.500000	0.572347	0.638807	0.000000 
		0.500000	0.500000	0.500000	0.000000 
		0.500000	0.572347	0.638807	0.000000 
		0.500000	0.500000	0.500000	0.000000 
		0.500000	0.544105	0.638807	0.000000 
		0.500000	0.500000	0.500000	0.000000 
		0.500000	0.500000	0.638807	0.000000 
		0.500000	0.500000	0.500000	0.000000 
		0.500000	0.500000	0.638807	0.000000 
		0.500000	0.500000	0.500000	0.000000 
		0.500000	0.500000	0.638807	0.000000 
		0.500000	0.500000	0.500000	0.000000 
		0.500000	0.500000	0.500000	0.000000 
		0.500000	0.500000	0.500000	0.000000 
		0.500000	0.500000	0.500000	0.000000 
		0.500000	0.500000	0.500000	0.000000 
		0.500000	0.500000	0.500000	0.003922 
		0.500000	0.500000	0.500000	0.003922 
		0.500000	0.500000	0.500000	0.000000 
		0.500000	0.402511	0.500000	0.003922 
		0.500000	0.436769	0.500000	0.003922 
		0.500000	0.374986	0.500000	0.003922 
		0.500000	0.394245	0.500000	0.003922 
		0.500000	0.374986	0.500000	0.003922 
		0.500000	0.402511	0.500000	0.003922 
		0.500000	0.404812	0.500000	0.003922 
		0.500000	0.394245	0.500000	0.003922 
		0.500000	0.402511	0.500000	0.003922 
		0.500000	0.402511	0.500000	0.003922 
		0.500000	0.339592	0.500000	0.003922 
		0.500000	0.404812	0.500000	0.003922 
		0.500000	0.402511	0.500000	0.003922 
		0.500000	0.500000	0.467705	0.003922 
		0.500000	0.500000	0.500000	0.003922 
		0.500000	0.357897	0.500000	0.003922 
		0.500000	0.500000	0.500000	0.000000 
		0.500000	0.500000	0.368595	0.000000 
		0.500000	0.500000	0.368595	0.000000 
		0.500000	0.567012	0.368595	0.000000 
		0.500000	0.567012	0.368595	0.000000 
		0.500000	0.500000	0.500000	0.000000 
		0.500000	0.500000	0.500000	0.000000 
		0.500000	0.500000	0.500000	0.000000 
		0.500000	0.500000	0.404670	0.000000 
		0.500000	0.567012	0.368595	0.000000 
		0.500000	0.567012	0.368595	0.000000 
		0.500000	0.500000	0.404670	0.000000 
		0.500000	0.500000	0.413013	0.000000 
		0.500000	0.567012	0.368595	0.000000 
		0.500000	0.567012	0.368595	0.000000 
		0.500000	0.500000	0.413013	0.000000 
		0.500000	0.500000	0.465533	0.000000 
		0.500000	0.567012	0.368595	0.000000 
		0.500000	0.567012	0.368595	0.000000 
		0.500000	0.374986	0.500000	0.003922 
		0.500000	0.402511	0.500000	0.003922 
		0.500000	0.402511	0.500000	0.003922 
		0.500000	0.402511	0.500000	0.003922 
		0.500000	0.402511	0.500000	0.003922 
		0.500000	0.500000	0.467705	0.003922 
		0.500000	0.402511	0.500000	0.003922 
		0.500000	0.500000	0.500000	0.003922 
		0.500000	0.500000	0.500000	0.000000 
		0.500000	0.500000	0.500000	0.000000 
		0.500000	0.500000	0.450805	0.000000 
		0.500000	0.500000	0.450805	0.000000 
		0.500000	0.500000	0.500000	0.000000 
		0.500000	0.500000	0.500000	0.000000 
		0.500000	0.500000	0.500000	0.000000 
		0.500000	0.500000	0.500000	0.000000 
		0.500000	0.500000	0.500000	0.000000 
		0.500000	0.500000	0.500000	0.000000 
		0.500000	0.500000	0.500000	0.000000 
		0.500000	0.500000	0.500000	0.000000 
		0.500000	0.500000	0.500000	0.000000 
		0.500000	0.500000	0.500000	0.000000 
		0.500000	0.500000	0.500000	0.000000 
		0.500000	0.500000	0.500000	0.000000 
		0.500000	0.500000	0.500000	0.000000 
		0.500000	0.604797	0.500000	0.000000 
		0.500000	0.604797	0.500000	0.000000 
		0.500000	0.604797	0.500000	0.000000 
		0.500000	0.604797	0.500000	0.000000 
		0.500000	0.500000	0.500000	0.000000 
		0.500000	0.500000	0.500000	0.000000 
		0.500000	0.500000	0.500000	0.000000 
		0.500000	0.500000	0.500000	0.000000 
		0.500000	0.500000	0.500000	0.000000 
		0.500000	0.500000	0.500000	0.000000 
		0.500000	0.500000	0.500000	0.000000 
		0.500000	0.500000	0.500000	0.000000 
		0.500000	0.500000	0.500000	0.000000 
		0.500000	0.500000	0.500000	0.000000 
		0.500000	0.500000	0.500000	0.000000 
		0.500000	0.500000	0.500000	0.000000 
		0.500000	0.500000	0.500000	0.000000 
		0.500000	0.500000	0.500000	0.000000 
		0.500000	0.500000	0.500000	0.000000 
		0.500000	0.500000	0.500000	0.000000 
		0.500000	0.500000	0.500000	0.000000 
		0.500000	0.500000	0.500000	0.000000 
		0.500000	0.500000	0.500000	0.000000 
		0.500000	0.604797	0.500000	0.000000 
		0.500000	0.604797	0.500000	0.000000 
		0.500000	0.500000	0.500000	0.000000 
		0.500000	0.500000	0.500000	0.000000 
		0.500000	0.500000	0.500000	0.000000 
		0.500000	0.500000	0.500000	0.000000 
		0.500000	0.500000	0.500000	0.000000 
		0.500000	0.500000	0.500000	0.000000 
		0.500000	0.500000	0.500000	0.000000 
		0.500000	0.500000	0.500000	0.000000 
		0.500000	0.500000	0.500000	0.003922 
		0.500000	0.500000	0.500000	0.003922 
		0.500000	0.402511	0.500000	0.003922 
		0.500000	0.374986	0.500000	0.003922 
		0.500000	0.402511	0.500000	0.003922 
		0.500000	0.402511	0.500000	0.003922 
		0.500000	0.402511	0.500000	0.003922 
		0.500000	0.402511	0.500000	0.003922 
		0.500000	0.500000	0.467705	0.003922 
		0.500000	0.500000	0.500000	0.000000 
		0.500000	0.500000	0.500000	0.000000 
		0.500000	0.500000	0.500000	0.000000 
		0.500000	0.500000	0.404670	0.000000 
		0.500000	0.500000	0.413013	0.000000 
		0.500000	0.500000	0.465533	0.000000 
		0.612925	0.500000	0.500000	0.000000 
		0.612925	0.500000	0.500000	0.000000 
		0.500000	0.500000	0.500000	0.000000 
		0.500000	0.500000	0.500000	0.000000 
		0.612925	0.500000	0.500000	0.000000 
		0.612925	0.500000	0.500000	0.000000 
		0.500000	0.500000	0.500000	0.000000 
		0.612925	0.500000	0.500000	0.000000 
		0.612925	0.500000	0.500000	0.000000 
		0.500000	0.500000	0.500000	0.000000 
		0.500000	0.500000	0.500000	0.000000 
		0.500000	0.500000	0.500000	0.000000 
		0.612925	0.500000	0.500000	0.000000 
		0.612925	0.500000	0.500000	0.000000 
		0.500000	0.500000	0.500000	0.000000 
		0.500000	0.500000	0.500000	0.000000 
		0.500000	0.500000	0.500000	0.000000 
		0.500000	0.500000	0.500000	0.000000 
		0.500000	0.500000	0.500000	0.000000 
		0.500000	0.500000	0.500000	0.000000 
		0.500000	0.500000	0.500000	0.000000 
		0.500000	0.500000	0.368595	0.000000 
		0.500000	0.500000	0.368595	0.000000 
		0.500000	0.500000	0.500000	0.000000 
		0.500000	0.500000	0.500000	0.000000 
		0.500000	0.500000	0.500000	0.000000 
		0.500000	0.402511	0.500000	0.003922 
		0.500000	0.357897	0.500000	0.003922 
		0.500000	0.500000	0.500000	0.000000 
		0.500000	0.500000	0.500000	0.000000 
		0.500000	0.500000	0.500000	0.000000 
		0.500000	0.500000	0.500000	0.000000 
		0.500000	0.500000	0.500000	0.000000 
		0.500000	0.500000	0.500000	0.000000 
		0.500000	0.500000	0.500000	0.000000 
		0.399385	0.500000	0.500000	0.000000 
		0.500000	0.500000	0.500000	0.000000 
		0.500000	0.500000	0.500000	0.000000 
		0.500000	0.500000	0.500000	0.000000 
		0.460292	0.500000	0.500000	0.003922 
		0.500000	0.500000	0.500000	0.003922 
		0.500000	0.500000	0.500000	0.003922 
		0.500000	0.500000	0.500000	0.003922 
		0.500000	0.500000	0.500000	0.003922 
		0.500000	0.500000	0.500000	0.003922 
		0.500000	0.500000	0.500000	0.003922 
		0.500000	0.500000	0.500000	0.003922 
		0.460292	0.500000	0.500000	0.003922 
		0.500000	0.500000	0.500000	0.000000 
		0.500000	0.500000	0.500000	0.000000 
		0.500000	0.500000	0.500000	0.000000 
		0.500000	0.500000	0.500000	0.000000 
		0.500000	0.500000	0.500000	0.000000 
		0.500000	0.500000	0.500000	0.000000 
		0.500000	0.500000	0.500000	0.000000 
		0.500000	0.500000	0.500000	0.000000 
		0.500000	0.500000	0.500000	0.000000 
		0.500000	0.500000	0.500000	0.003922 
		0.500000	0.500000	0.500000	0.003922 
		0.500000	0.500000	0.500000	0.003922 
		0.500000	0.500000	0.500000	0.003922 
		0.500000	0.500000	0.500000	0.003922 
		0.460292	0.500000	0.500000	0.003922 
		0.460292	0.500000	0.500000	0.003922 
		0.500000	0.500000	0.500000	0.003922 
		0.500000	0.500000	0.500000	0.000000 
		0.379613	0.500000	0.500000	0.000000 
		0.500000	0.500000	0.500000	0.000000 
		0.500000	0.500000	0.500000	0.000000 
		0.500000	0.500000	0.500000	0.000000 
		0.500000	0.500000	0.500000	0.000000 
		0.500000	0.500000	0.500000	0.000000 
		0.500000	0.500000	0.500000	0.000000 
		0.500000	0.500000	0.500000	0.000000 
		0.500000	0.500000	0.500000	0.000000 
		0.500000	0.500000	0.500000	0.000000 
		0.500000	0.500000	0.500000	0.000000 
		0.500000	0.500000	0.500000	0.000000 
		0.500000	0.500000	0.500000	0.000000 
		0.399385	0.500000	0.500000	0.000000 
		0.500000	0.500000	0.500000	0.000000 
		0.500000	0.500000	0.500000	0.000000 
		0.500000	0.500000	0.500000	0.000000 
		0.500000	0.500000	0.500000	0.000000 
		0.500000	0.500000	0.500000	0.000000 
		0.500000	0.500000	0.500000	0.000000 
		0.500000	0.500000	0.500000	0.000000 
		0.500000	0.500000	0.500000	0.000000 
		0.500000	0.500000	0.500000	0.000000 
		0.500000	0.500000	0.500000	0.000000 
		0.500000	0.500000	0.500000	0.000000 
		0.500000	0.500000	0.500000	0.000000 
		0.500000	0.500000	0.500000	0.000000 
		0.500000	0.500000	0.500000	0.000000 
		0.399385	0.500000	0.500000	0.000000 
		0.500000	0.500000	0.500000	0.000000 
		0.399385	0.500000	0.500000	0.000000 
		0.428040	0.500000	0.500000	0.000000 
		0.379613	0.500000	0.500000	0.000000 
		0.500000	0.500000	0.500000	0.000000 
		0.500000	0.500000	0.500000	0.000000 
		0.500000	0.500000	0.500000	0.000000 
		0.446235	0.500000	0.500000	0.000000 
		0.446235	0.500000	0.500000	0.000000 
		0.500000	0.500000	0.500000	0.000000 
		0.500000	0.500000	0.500000	0.000000 
		0.500000	0.500000	0.500000	0.000000 
		0.500000	0.500000	0.500000	0.000000 
		0.500000	0.500000	0.500000	0.000000 
		0.500000	0.500000	0.500000	0.000000 
		0.500000	0.500000	0.500000	0.000000 
		0.500000	0.500000	0.500000	0.000000 
		0.399385	0.500000	0.500000	0.000000 
		0.500000	0.500000	0.500000	0.000000 
		0.500000	0.500000	0.500000	0.000000 
		0.460292	0.500000	0.500000	0.003922 
		0.460292	0.500000	0.500000	0.003922 
		0.500000	0.500000	0.500000	0.003922 
		0.500000	0.500000	0.500000	0.003922 
		0.500000	0.500000	0.500000	0.003922 
		0.500000	0.500000	0.500000	0.003922 
		0.500000	0.500000	0.500000	0.003922 
		0.460292	0.500000	0.500000	0.003922 
		0.500000	0.500000	0.500000	0.003922 
		0.500000	0.500000	0.500000	0.000000 
		0.500000	0.500000	0.500000	0.000000 
		0.500000	0.500000	0.500000	0.000000 
		0.500000	0.500000	0.500000	0.000000 
		0.500000	0.500000	0.500000	0.000000 
		0.500000	0.500000	0.500000	0.000000 
		0.497456	0.412121	0.494224	0.000000 
		0.500000	0.500000	0.500000	0.000000 
		0.500000	0.500000	0.500000	0.000000 
		0.498976	0.419837	0.490720	0.000000 
		0.453287	0.426240	0.507788	0.000000 
		0.457774	0.417242	0.509211	0.000000 
		0.500000	0.500000	0.500000	0.000000 
		0.453287	0.426240	0.507788	0.000000 
		0.500000	0.500000	0.500000	0.000000 
		0.500000	0.500000	0.500000	0.000000 
		0.457774	0.417242	0.509211	0.000000 
		0.500000	0.500000	0.500000	0.000000 
		0.500000	0.500000	0.500000	0.000000 
		0.453287	0.426240	0.507788	0.000000 
		0.498976	0.419837	0.490720	0.000000 
		0.500000	0.500000	0.500000	0.000000 
		0.500000	0.500000	0.500000	0.000000 
		0.500000	0.500000	0.500000	0.000000 
		0.500000	0.500000	0.500000	0.000000 
		0.500000	0.500000	0.500000	0.000000 
		0.500000	0.500000	0.500000	0.000000 
		0.500000	0.500000	0.500000	0.000000 
		0.500000	0.500000	0.500000	0.000000 
		0.500000	0.500000	0.500000	0.000000 
		0.500000	0.500000	0.500000	0.003922 
		0.500000	0.500000	0.500000	0.000000 
		0.500000	0.500000	0.500000	0.000000 
		0.500000	0.500000	0.500000	0.000000 
		0.500000	0.500000	0.500000	0.000000 
		0.500000	0.500000	0.500000	0.000000 
		0.500000	0.500000	0.500000	0.000000 
		0.500000	0.500000	0.500000	0.000000 
		0.500000	0.500000	0.500000	0.000000 
		0.500000	0.500000	0.500000	0.000000 
		0.500000	0.500000	0.500000	0.000000 
		0.500000	0.500000	0.500000	0.000000 
		0.500000	0.500000	0.500000	0.000000 
		0.500000	0.500000	0.500000	0.000000 
		0.500000	0.500000	0.500000	0.000000 
		0.500000	0.500000	0.500000	0.000000 
		0.500000	0.500000	0.500000	0.000000 
		0.500000	0.500000	0.500000	0.000000 
		0.500000	0.500000	0.500000	0.000000 
	}

	Tex0 226 { 
		0.160156	0.509766 
		0.227539	0.507813 
		0.227539	0.535156 
		0.160156	0.537109 
		0.227539	0.587891 
		0.160156	0.585938 
		0.150391	0.541992 
		0.150391	0.513672 
		0.056641	0.035156 
		0.010742	0.071289 
		-0.000977	0.499023 
		0.056641	0.180664 
		0.973633	0.023438 
		0.894531	0.021484 
		0.894531	0.180664 
		0.989258	0.050781 
		0.999023	0.499023 
		0.884766	0.009766 
		0.858398	0.180664 
		0.858398	-0.000977 
		0.791016	-0.000977 
		0.722656	0.180664 
		0.722656	-0.000977 
		0.695313	-0.000977 
		0.691406	0.028320 
		0.691406	0.180664 
		0.566406	0.028320 
		0.257813	0.028320 
		0.257813	0.180664 
		0.249023	-0.000977 
		0.201172	0.180664 
		0.071289	0.180664 
		0.201172	-0.000977 
		0.114258	-0.000977 
		0.071289	0.001953 
		0.060547	0.010742 
		0.024414	0.044922 
		0.056641	0.498047 
		0.894531	0.498047 
		0.691406	0.498047 
		0.257813	0.498047 
		0.056641	0.962891 
		0.056641	0.817383 
		0.010742	0.926758 
		0.973633	0.974609 
		0.989258	0.947266 
		0.894531	0.817383 
		0.894531	0.976563 
		0.884766	0.989258 
		0.858398	0.817383 
		0.858398	0.999023 
		0.791016	0.999023 
		0.722656	0.817383 
		0.722656	0.999023 
		0.695313	0.999023 
		0.691406	0.817383 
		0.691406	0.969727 
		0.257813	0.817383 
		0.257813	0.969727 
		0.566406	0.969727 
		0.249023	0.999023 
		0.071289	0.817383 
		0.201172	0.817383 
		0.201172	0.999023 
		0.114258	0.999023 
		0.071289	0.997070 
		0.060547	0.987305 
		0.024414	0.953125 
		0.056641	0.500000 
		0.894531	0.500000 
		0.691406	0.500000 
		0.257813	0.500000 
		0.285156	0.055664 
		0.265625	0.049805 
		0.265625	0.497070 
		0.285156	0.497070 
		0.225586	0.043945 
		0.225586	0.497070 
		0.221680	0.043945 
		0.222656	0.497070 
		0.200195	0.043945 
		0.201172	0.497070 
		0.176758	0.043945 
		0.172852	0.497070 
		0.152344	0.046875 
		0.147461	0.497070 
		0.133789	0.502930 
		0.140625	0.502930 
		0.141602	0.009766 
		0.135742	0.004883 
		0.129883	0.008789 
		0.126953	0.502930 
		0.068359	0.311523 
		0.053711	0.313477 
		0.052734	0.342773 
		0.066406	0.342773 
		0.041992	0.315430 
		0.041016	0.342773 
		0.039063	0.316406 
		0.038086	0.342773 
		0.515625	0.432617 
		0.557617	0.433594 
		0.546875	0.433594 
		0.508789	0.432617 
		0.767578	0.433594 
		0.021484	0.664063 
		0.065430	0.622070 
		0.064453	0.983398 
		0.016602	0.983398 
		0.127930	0.544922 
		0.127930	0.983398 
		0.149414	0.976563 
		0.220703	0.778320 
		0.215820	0.778320 
		0.215820	0.616211 
		0.220703	0.616211 
		0.249023	0.625000 
		0.250000	0.595703 
		0.250000	0.587891 
		0.249023	0.615234 
		0.275391	0.599609 
		0.276367	0.591797 
		0.284180	0.615234 
		0.283203	0.604492 
		0.581055	0.954102 
		0.564453	0.897461 
		0.696289	0.919922 
		0.696289	0.975586 
		0.607422	0.971680 
		0.955078	0.805664 
		0.923828	0.988281 
		0.696289	0.781250 
		0.974609	0.605469 
		0.696289	0.589844 
		0.275391	0.611328 
		0.250000	0.609375 
		0.249023	0.636719 
		0.281250	0.631836 
		0.920898	0.103516 
		0.975586	0.152344 
		0.971680	0.314453 
		0.914063	0.288086 
		0.974609	0.410156 
		0.896484	0.355469 
		0.974609	0.552734 
		0.849609	0.389648 
		0.397461	0.435547 
		0.696289	0.405273 
		0.491211	0.579102 
		0.284180	0.032227 
		0.255859	0.037109 
		0.264648	0.033203 
		0.225586	0.028320 
		0.220703	0.038086 
		0.221680	0.028320 
		0.331055	0.252930 
		0.322266	0.319336 
		0.323242	0.250000 
		0.325195	0.393555 
		0.360352	0.341797 
		0.393555	0.513672 
		0.333984	0.458008 
		0.445313	0.347656 
		0.696289	0.338867 
		0.802734	0.335938 
		0.695313	0.191406 
		0.784180	0.196289 
		0.483398	0.000000 
		0.695313	0.017578 
		0.477539	0.177734 
		0.285156	0.023438 
		0.265625	0.016602 
		0.225586	0.010742 
		0.221680	0.010742 
		0.200195	0.010742 
		0.177734	0.010742 
		0.158203	0.010742 
		0.390625	0.543945 
		0.328125	0.476563 
		0.482422	0.608398 
		0.522461	0.785156 
		0.529297	0.766602 
		0.560547	0.926758 
		0.578125	0.960938 
		0.606445	0.980469 
		0.926758	0.991211 
		0.696289	0.994141 
		0.016602	0.644531 
		0.065430	0.602539 
		0.127930	0.520508 
		0.207031	0.606445 
		0.221680	0.606445 
		0.426758	0.571289 
		0.427734	0.576172 
		0.398438	0.578125 
		0.389648	0.569336 
		0.426758	0.546875 
		0.425781	0.544922 
		0.392578	0.541016 
		0.888672	0.916992 
		0.890625	0.918945 
		0.959961	0.891602 
		0.959961	0.895508 
		0.423828	0.335938 
		0.402344	0.336914 
		0.401367	0.314453 
		0.424805	0.310547 
		0.427734	0.325195 
		0.956055	0.977539 
		0.968750	0.940430 
		0.968750	0.943359 
		0.227539	0.976563 
		0.207031	0.778320 
		0.207031	0.640625 
		0.207031	0.616211 
		0.781250	0.024414 
		0.774414	0.433594 
		0.198242	0.043945 
		0.169922	0.043945 
		0.167969	0.176758 
		0.198242	0.200195 
		0.150391	0.045898 
		0.151367	0.171875 
		0.198242	0.010742 
		0.171875	0.010742 
		0.149414	0.010742 
	}

	Tex1 0 
	Adj 401 { 
		P 0 
		N 0 
		C0 0 
		T0 0 
		P 1 
		N 1 
		C0 1 
		T0 1 
		P 2 
		N 2 
		C0 2 
		T0 2 
		P 3 
		N 3 
		C0 3 
		T0 3 
		P 4 
		N 4 
		C0 4 
		T0 4 
		P 5 
		N 5 
		C0 5 
		T0 5 
		P 6 
		N 6 
		C0 6 
		T0 6 
		P 7 
		N 7 
		C0 7 
		T0 7 
		P 8 
		N 8 
		C0 8 
		T0 0 
		P 9 
		N 9 
		C0 9 
		T0 3 
		P 10 
		N 10 
		C0 10 
		T0 2 
		P 11 
		N 11 
		C0 11 
		T0 1 
		P 12 
		N 12 
		C0 12 
		T0 4 
		P 13 
		N 13 
		C0 13 
		T0 5 
		P 14 
		N 14 
		C0 14 
		T0 6 
		P 15 
		N 15 
		C0 15 
		T0 7 
		P 16 
		N 16 
		C0 16 
		T0 8 
		P 17 
		N 16 
		C0 17 
		T0 9 
		P 18 
		N 17 
		C0 18 
		T0 10 
		P 19 
		N 17 
		C0 19 
		T0 11 
		P 20 
		N 18 
		C0 20 
		T0 12 
		P 21 
		N 18 
		C0 21 
		T0 13 
		P 22 
		N 19 
		C0 22 
		T0 14 
		P 23 
		N 20 
		C0 23 
		T0 15 
		P 24 
		N 20 
		C0 24 
		T0 16 
		P 21 
		N 21 
		C0 25 
		T0 13 
		P 25 
		N 22 
		C0 26 
		T0 17 
		P 22 
		N 23 
		C0 27 
		T0 14 
		P 26 
		N 24 
		C0 28 
		T0 18 
		P 27 
		N 25 
		C0 29 
		T0 19 
		P 28 
		N 26 
		C0 30 
		T0 20 
		P 29 
		N 27 
		C0 31 
		T0 21 
		P 30 
		N 28 
		C0 32 
		T0 22 
		P 31 
		N 29 
		C0 33 
		T0 23 
		P 32 
		N 30 
		C0 34 
		T0 24 
		P 33 
		N 31 
		C0 35 
		T0 25 
		P 32 
		N 32 
		C0 36 
		T0 24 
		P 34 
		N 32 
		C0 37 
		T0 26 
		P 35 
		N 32 
		C0 38 
		T0 27 
		P 36 
		N 33 
		C0 39 
		T0 28 
		P 33 
		N 34 
		C0 40 
		T0 25 
		P 35 
		N 21 
		C0 41 
		T0 27 
		P 37 
		N 35 
		C0 42 
		T0 29 
		P 36 
		N 36 
		C0 43 
		T0 28 
		P 38 
		N 37 
		C0 44 
		T0 30 
		P 39 
		N 38 
		C0 45 
		T0 31 
		P 19 
		N 39 
		C0 46 
		T0 11 
		P 40 
		N 25 
		C0 47 
		T0 32 
		P 41 
		N 40 
		C0 48 
		T0 33 
		P 42 
		N 41 
		C0 49 
		T0 34 
		P 43 
		N 42 
		C0 50 
		T0 35 
		P 16 
		N 43 
		C0 51 
		T0 8 
		P 44 
		N 44 
		C0 52 
		T0 36 
		P 45 
		N 45 
		C0 53 
		T0 37 
		P 46 
		N 46 
		C0 54 
		T0 38 
		P 47 
		N 47 
		C0 55 
		T0 39 
		P 48 
		N 48 
		C0 56 
		T0 40 
		P 49 
		N 49 
		C0 57 
		T0 41 
		P 50 
		N 17 
		C0 58 
		T0 42 
		P 51 
		N 49 
		C0 59 
		T0 43 
		P 52 
		N 50 
		C0 60 
		T0 44 
		P 53 
		N 20 
		C0 61 
		T0 45 
		P 54 
		N 19 
		C0 62 
		T0 46 
		P 55 
		N 50 
		C0 63 
		T0 47 
		P 55 
		N 21 
		C0 64 
		T0 47 
		P 54 
		N 51 
		C0 65 
		T0 46 
		P 56 
		N 52 
		C0 66 
		T0 48 
		P 57 
		N 53 
		C0 67 
		T0 49 
		P 58 
		N 25 
		C0 68 
		T0 50 
		P 59 
		N 54 
		C0 69 
		T0 51 
		P 60 
		N 55 
		C0 70 
		T0 52 
		P 61 
		N 28 
		C0 71 
		T0 53 
		P 62 
		N 56 
		C0 72 
		T0 54 
		P 63 
		N 57 
		C0 73 
		T0 55 
		P 64 
		N 30 
		C0 74 
		T0 56 
		P 64 
		N 32 
		C0 75 
		T0 56 
		P 63 
		N 34 
		C0 76 
		T0 55 
		P 65 
		N 33 
		C0 77 
		T0 57 
		P 66 
		N 32 
		C0 78 
		T0 58 
		P 67 
		N 32 
		C0 79 
		T0 59 
		P 66 
		N 21 
		C0 80 
		T0 58 
		P 65 
		N 58 
		C0 81 
		T0 57 
		P 68 
		N 59 
		C0 82 
		T0 60 
		P 50 
		N 60 
		C0 83 
		T0 42 
		P 69 
		N 61 
		C0 84 
		T0 61 
		P 70 
		N 62 
		C0 85 
		T0 62 
		P 71 
		N 25 
		C0 86 
		T0 63 
		P 72 
		N 63 
		C0 87 
		T0 64 
		P 73 
		N 41 
		C0 88 
		T0 65 
		P 74 
		N 64 
		C0 89 
		T0 66 
		P 49 
		N 43 
		C0 90 
		T0 41 
		P 75 
		N 65 
		C0 91 
		T0 67 
		P 76 
		N 45 
		C0 92 
		T0 68 
		P 77 
		N 46 
		C0 93 
		T0 69 
		P 78 
		N 47 
		C0 94 
		T0 70 
		P 79 
		N 48 
		C0 95 
		T0 71 
		P 17 
		N 66 
		C0 96 
		T0 72 
		P 80 
		N 67 
		C0 97 
		T0 73 
		P 81 
		N 68 
		C0 98 
		T0 74 
		P 18 
		N 69 
		C0 99 
		T0 75 
		P 82 
		N 70 
		C0 100 
		T0 76 
		P 83 
		N 71 
		C0 101 
		T0 77 
		P 84 
		N 72 
		C0 102 
		T0 78 
		P 85 
		N 71 
		C0 103 
		T0 79 
		P 86 
		N 73 
		C0 104 
		T0 80 
		P 87 
		N 74 
		C0 105 
		T0 81 
		P 88 
		N 75 
		C0 106 
		T0 82 
		P 89 
		N 76 
		C0 107 
		T0 83 
		P 90 
		N 77 
		C0 108 
		T0 84 
		P 91 
		N 78 
		C0 109 
		T0 85 
		P 92 
		N 79 
		C0 110 
		T0 86 
		P 91 
		N 78 
		C0 111 
		T0 87 
		P 90 
		N 77 
		C0 112 
		T0 88 
		P 93 
		N 80 
		C0 113 
		T0 89 
		P 94 
		N 81 
		C0 114 
		T0 90 
		P 95 
		N 82 
		C0 115 
		T0 91 
		P 94 
		N 81 
		C0 116 
		T0 92 
		P 96 
		N 83 
		C0 117 
		T0 93 
		P 97 
		N 84 
		C0 118 
		T0 94 
		P 95 
		N 82 
		C0 119 
		T0 95 
		P 98 
		N 85 
		C0 120 
		T0 96 
		P 99 
		N 86 
		C0 121 
		T0 97 
		P 100 
		N 87 
		C0 122 
		T0 98 
		P 101 
		N 88 
		C0 123 
		T0 99 
		P 100 
		N 87 
		C0 124 
		T0 100 
		P 102 
		N 89 
		C0 125 
		T0 101 
		P 103 
		N 90 
		C0 126 
		T0 102 
		P 101 
		N 88 
		C0 127 
		T0 103 
		P 102 
		N 89 
		C0 128 
		T0 104 
		P 104 
		N 91 
		C0 129 
		T0 104 
		P 105 
		N 92 
		C0 130 
		T0 104 
		P 103 
		N 90 
		C0 131 
		T0 104 
		P 106 
		N 93 
		C0 132 
		T0 105 
		P 107 
		N 94 
		C0 133 
		T0 106 
		P 108 
		N 95 
		C0 134 
		T0 107 
		P 109 
		N 96 
		C0 135 
		T0 108 
		P 6 
		N 6 
		C0 136 
		T0 109 
		P 110 
		N 97 
		C0 137 
		T0 110 
		P 110 
		N 97 
		C0 138 
		T0 111 
		P 111 
		N 98 
		C0 139 
		T0 112 
		P 112 
		N 99 
		C0 140 
		T0 113 
		P 113 
		N 100 
		C0 141 
		T0 114 
		P 114 
		N 101 
		C0 142 
		T0 115 
		P 114 
		N 101 
		C0 143 
		T0 116 
		P 115 
		N 102 
		C0 144 
		T0 117 
		P 116 
		N 103 
		C0 145 
		T0 118 
		P 111 
		N 98 
		C0 146 
		T0 119 
		P 115 
		N 104 
		C0 147 
		T0 117 
		P 117 
		N 104 
		C0 148 
		T0 120 
		P 118 
		N 30 
		C0 149 
		T0 121 
		P 116 
		N 30 
		C0 150 
		T0 118 
		P 117 
		N 105 
		C0 151 
		T0 120 
		P 23 
		N 105 
		C0 152 
		T0 122 
		P 24 
		N 106 
		C0 153 
		T0 123 
		P 118 
		N 106 
		C0 154 
		T0 121 
		P 119 
		N 107 
		C0 155 
		T0 124 
		P 120 
		N 108 
		C0 156 
		T0 125 
		P 121 
		N 109 
		C0 157 
		T0 126 
		P 122 
		N 110 
		C0 158 
		T0 127 
		P 123 
		N 111 
		C0 159 
		T0 128 
		P 124 
		N 112 
		C0 160 
		T0 129 
		P 125 
		N 113 
		C0 161 
		T0 130 
		P 126 
		N 114 
		C0 162 
		T0 131 
		P 7 
		N 7 
		C0 163 
		T0 132 
		P 127 
		N 115 
		C0 164 
		T0 133 
		P 128 
		N 116 
		C0 165 
		T0 134 
		P 129 
		N 117 
		C0 166 
		T0 135 
		P 130 
		N 118 
		C0 167 
		T0 136 
		P 20 
		N 119 
		C0 168 
		T0 137 
		P 21 
		N 120 
		C0 169 
		T0 138 
		P 20 
		N 119 
		C0 170 
		T0 139 
		P 130 
		N 118 
		C0 171 
		T0 140 
		P 25 
		N 121 
		C0 172 
		T0 141 
		P 1 
		N 1 
		C0 173 
		T0 142 
		P 27 
		N 122 
		C0 174 
		T0 143 
		P 0 
		N 0 
		C0 175 
		T0 144 
		P 28 
		N 123 
		C0 176 
		T0 145 
		P 131 
		N 124 
		C0 177 
		T0 146 
		P 132 
		N 125 
		C0 178 
		T0 147 
		P 133 
		N 126 
		C0 179 
		T0 148 
		P 44 
		N 127 
		C0 180 
		T0 149 
		P 16 
		N 128 
		C0 181 
		T0 149 
		P 43 
		N 129 
		C0 182 
		T0 150 
		P 134 
		N 130 
		C0 183 
		T0 151 
		P 135 
		N 131 
		C0 184 
		T0 152 
		P 42 
		N 132 
		C0 185 
		T0 153 
		P 42 
		N 133 
		C0 186 
		T0 153 
		P 136 
		N 131 
		C0 187 
		T0 154 
		P 42 
		N 133 
		C0 188 
		T0 155 
		P 137 
		N 134 
		C0 189 
		T0 156 
		P 136 
		N 131 
		C0 190 
		T0 157 
		P 138 
		N 135 
		C0 191 
		T0 158 
		P 41 
		N 136 
		C0 192 
		T0 159 
		P 139 
		N 137 
		C0 193 
		T0 160 
		P 140 
		N 138 
		C0 194 
		T0 161 
		P 40 
		N 123 
		C0 195 
		T0 162 
		P 141 
		N 139 
		C0 196 
		T0 163 
		P 30 
		N 140 
		C0 197 
		T0 164 
		P 142 
		N 141 
		C0 198 
		T0 165 
		P 31 
		N 141 
		C0 199 
		T0 166 
		P 35 
		N 142 
		C0 200 
		T0 167 
		P 34 
		N 142 
		C0 201 
		T0 168 
		P 37 
		N 141 
		C0 202 
		T0 169 
		P 44 
		N 127 
		C0 203 
		T0 170 
		P 134 
		N 130 
		C0 204 
		T0 171 
		P 135 
		N 131 
		C0 205 
		T0 172 
		P 136 
		N 131 
		C0 206 
		T0 173 
		P 137 
		N 134 
		C0 207 
		T0 174 
		P 138 
		N 135 
		C0 208 
		T0 175 
		P 140 
		N 138 
		C0 209 
		T0 176 
		P 93 
		N 80 
		C0 210 
		T0 177 
		P 90 
		N 77 
		C0 211 
		T0 178 
		P 94 
		N 81 
		C0 212 
		T0 179 
		P 96 
		N 83 
		C0 213 
		T0 180 
		P 143 
		N 143 
		C0 214 
		T0 181 
		P 98 
		N 85 
		C0 215 
		T0 182 
		P 100 
		N 87 
		C0 216 
		T0 183 
		P 102 
		N 89 
		C0 217 
		T0 184 
		P 106 
		N 93 
		C0 218 
		T0 185 
		P 104 
		N 91 
		C0 219 
		T0 186 
		P 125 
		N 113 
		C0 220 
		T0 187 
		P 124 
		N 112 
		C0 221 
		T0 188 
		P 7 
		N 7 
		C0 222 
		T0 189 
		P 1 
		N 1 
		C0 223 
		T0 190 
		P 130 
		N 118 
		C0 224 
		T0 191 
		P 115 
		N 144 
		C0 225 
		T0 117 
		P 117 
		N 145 
		C0 226 
		T0 120 
		P 23 
		N 146 
		C0 227 
		T0 122 
		P 144 
		N 147 
		C0 228 
		T0 192 
		P 145 
		N 148 
		C0 229 
		T0 193 
		P 146 
		N 149 
		C0 230 
		T0 194 
		P 147 
		N 150 
		C0 231 
		T0 195 
		P 148 
		N 151 
		C0 232 
		T0 196 
		P 149 
		N 152 
		C0 233 
		T0 197 
		P 150 
		N 153 
		C0 234 
		T0 198 
		P 148 
		N 151 
		C0 235 
		T0 199 
		P 149 
		N 152 
		C0 236 
		T0 200 
		P 150 
		N 153 
		C0 237 
		T0 201 
		P 151 
		N 154 
		C0 238 
		T0 202 
		P 146 
		N 155 
		C0 239 
		T0 203 
		P 145 
		N 155 
		C0 240 
		T0 204 
		P 148 
		N 155 
		C0 241 
		T0 205 
		P 151 
		N 155 
		C0 242 
		T0 206 
		P 152 
		N 156 
		C0 243 
		T0 207 
		P 146 
		N 156 
		C0 244 
		T0 203 
		P 151 
		N 156 
		C0 245 
		T0 206 
		P 146 
		N 157 
		C0 246 
		T0 208 
		P 152 
		N 157 
		C0 247 
		T0 209 
		P 147 
		N 157 
		C0 248 
		T0 210 
		P 153 
		N 30 
		C0 249 
		T0 211 
		P 153 
		N 30 
		C0 250 
		T0 212 
		P 4 
		N 4 
		C0 251 
		T0 213 
		P 2 
		N 2 
		C0 252 
		T0 214 
		P 32 
		N 142 
		C0 253 
		T0 215 
		P 106 
		N 93 
		C0 254 
		T0 216 
		P 109 
		N 96 
		C0 255 
		T0 216 
		P 51 
		N 158 
		C0 256 
		T0 72 
		P 154 
		N 159 
		C0 257 
		T0 73 
		P 155 
		N 160 
		C0 258 
		T0 76 
		P 156 
		N 161 
		C0 259 
		T0 78 
		P 157 
		N 162 
		C0 260 
		T0 80 
		P 158 
		N 163 
		C0 261 
		T0 82 
		P 159 
		N 164 
		C0 262 
		T0 84 
		P 160 
		N 165 
		C0 263 
		T0 89 
		P 159 
		N 164 
		C0 264 
		T0 88 
		P 161 
		N 166 
		C0 265 
		T0 90 
		P 161 
		N 166 
		C0 266 
		T0 92 
		P 162 
		N 167 
		C0 267 
		T0 93 
		P 163 
		N 168 
		C0 268 
		T0 96 
		P 164 
		N 169 
		C0 269 
		T0 98 
		P 164 
		N 169 
		C0 270 
		T0 100 
		P 165 
		N 170 
		C0 271 
		T0 101 
		P 165 
		N 170 
		C0 272 
		T0 104 
		P 166 
		N 171 
		C0 273 
		T0 104 
		P 167 
		N 172 
		C0 274 
		T0 105 
		P 168 
		N 173 
		C0 275 
		T0 106 
		P 14 
		N 14 
		C0 276 
		T0 109 
		P 169 
		N 174 
		C0 277 
		T0 115 
		P 170 
		N 175 
		C0 278 
		T0 114 
		P 169 
		N 174 
		C0 279 
		T0 116 
		P 171 
		N 176 
		C0 280 
		T0 117 
		P 171 
		N 177 
		C0 281 
		T0 117 
		P 172 
		N 177 
		C0 282 
		T0 120 
		P 172 
		N 178 
		C0 283 
		T0 120 
		P 53 
		N 178 
		C0 284 
		T0 122 
		P 173 
		N 179 
		C0 285 
		T0 124 
		P 174 
		N 180 
		C0 286 
		T0 128 
		P 175 
		N 181 
		C0 287 
		T0 127 
		P 176 
		N 182 
		C0 288 
		T0 126 
		P 177 
		N 183 
		C0 289 
		T0 125 
		P 178 
		N 184 
		C0 290 
		T0 129 
		P 179 
		N 185 
		C0 291 
		T0 131 
		P 180 
		N 186 
		C0 292 
		T0 130 
		P 15 
		N 15 
		C0 293 
		T0 132 
		P 181 
		N 187 
		C0 294 
		T0 133 
		P 182 
		N 188 
		C0 295 
		T0 134 
		P 52 
		N 189 
		C0 296 
		T0 137 
		P 183 
		N 190 
		C0 297 
		T0 136 
		P 184 
		N 191 
		C0 298 
		T0 135 
		P 55 
		N 192 
		C0 299 
		T0 138 
		P 56 
		N 193 
		C0 300 
		T0 141 
		P 183 
		N 190 
		C0 301 
		T0 140 
		P 52 
		N 189 
		C0 302 
		T0 139 
		P 58 
		N 194 
		C0 303 
		T0 143 
		P 11 
		N 11 
		C0 304 
		T0 142 
		P 59 
		N 195 
		C0 305 
		T0 145 
		P 8 
		N 8 
		C0 306 
		T0 144 
		P 185 
		N 196 
		C0 307 
		T0 146 
		P 186 
		N 197 
		C0 308 
		T0 148 
		P 187 
		N 198 
		C0 309 
		T0 147 
		P 75 
		N 199 
		C0 310 
		T0 149 
		P 188 
		N 200 
		C0 311 
		T0 151 
		P 74 
		N 201 
		C0 312 
		T0 150 
		P 49 
		N 202 
		C0 313 
		T0 149 
		P 189 
		N 203 
		C0 314 
		T0 152 
		P 73 
		N 204 
		C0 315 
		T0 153 
		P 73 
		N 205 
		C0 316 
		T0 153 
		P 190 
		N 203 
		C0 317 
		T0 154 
		P 73 
		N 205 
		C0 318 
		T0 155 
		P 190 
		N 203 
		C0 319 
		T0 157 
		P 191 
		N 206 
		C0 320 
		T0 156 
		P 192 
		N 207 
		C0 321 
		T0 158 
		P 72 
		N 208 
		C0 322 
		T0 159 
		P 193 
		N 209 
		C0 323 
		T0 161 
		P 194 
		N 210 
		C0 324 
		T0 160 
		P 71 
		N 195 
		C0 325 
		T0 162 
		P 195 
		N 211 
		C0 326 
		T0 163 
		P 61 
		N 212 
		C0 327 
		T0 164 
		P 62 
		N 213 
		C0 328 
		T0 166 
		P 196 
		N 213 
		C0 329 
		T0 165 
		P 66 
		N 214 
		C0 330 
		T0 167 
		P 68 
		N 213 
		C0 331 
		T0 169 
		P 67 
		N 214 
		C0 332 
		T0 168 
		P 188 
		N 200 
		C0 333 
		T0 171 
		P 75 
		N 199 
		C0 334 
		T0 170 
		P 189 
		N 203 
		C0 335 
		T0 172 
		P 190 
		N 203 
		C0 336 
		T0 173 
		P 191 
		N 206 
		C0 337 
		T0 174 
		P 192 
		N 207 
		C0 338 
		T0 175 
		P 193 
		N 209 
		C0 339 
		T0 176 
		P 160 
		N 165 
		C0 340 
		T0 177 
		P 159 
		N 164 
		C0 341 
		T0 178 
		P 161 
		N 166 
		C0 342 
		T0 179 
		P 162 
		N 167 
		C0 343 
		T0 180 
		P 197 
		N 215 
		C0 344 
		T0 181 
		P 163 
		N 168 
		C0 345 
		T0 182 
		P 164 
		N 169 
		C0 346 
		T0 183 
		P 165 
		N 170 
		C0 347 
		T0 184 
		P 167 
		N 172 
		C0 348 
		T0 185 
		P 166 
		N 171 
		C0 349 
		T0 186 
		P 178 
		N 184 
		C0 350 
		T0 188 
		P 180 
		N 186 
		C0 351 
		T0 187 
		P 15 
		N 15 
		C0 352 
		T0 189 
		P 183 
		N 190 
		C0 353 
		T0 191 
		P 11 
		N 11 
		C0 354 
		T0 190 
		P 171 
		N 216 
		C0 355 
		T0 117 
		P 172 
		N 217 
		C0 356 
		T0 120 
		P 53 
		N 218 
		C0 357 
		T0 122 
		P 198 
		N 219 
		C0 358 
		T0 192 
		P 199 
		N 220 
		C0 359 
		T0 195 
		P 200 
		N 221 
		C0 360 
		T0 194 
		P 201 
		N 222 
		C0 361 
		T0 193 
		P 202 
		N 223 
		C0 362 
		T0 196 
		P 203 
		N 224 
		C0 363 
		T0 197 
		P 204 
		N 225 
		C0 364 
		T0 198 
		P 202 
		N 223 
		C0 365 
		T0 199 
		P 205 
		N 226 
		C0 366 
		T0 202 
		P 204 
		N 225 
		C0 367 
		T0 201 
		P 203 
		N 224 
		C0 368 
		T0 200 
		P 200 
		N 227 
		C0 369 
		T0 203 
		P 205 
		N 227 
		C0 370 
		T0 206 
		P 202 
		N 227 
		C0 371 
		T0 205 
		P 201 
		N 227 
		C0 372 
		T0 204 
		P 206 
		N 228 
		C0 373 
		T0 207 
		P 205 
		N 228 
		C0 374 
		T0 206 
		P 200 
		N 228 
		C0 375 
		T0 203 
		P 200 
		N 229 
		C0 376 
		T0 208 
		P 199 
		N 229 
		C0 377 
		T0 210 
		P 206 
		N 229 
		C0 378 
		T0 209 
		P 12 
		N 12 
		C0 379 
		T0 213 
		P 10 
		N 10 
		C0 380 
		T0 214 
		P 64 
		N 214 
		C0 381 
		T0 215 
		P 167 
		N 172 
		C0 382 
		T0 216 
		P 207 
		N 230 
		C0 383 
		T0 217 
		P 208 
		N 231 
		C0 384 
		T0 218 
		P 209 
		N 232 
		C0 385 
		T0 219 
		P 210 
		N 233 
		C0 386 
		T0 220 
		P 211 
		N 234 
		C0 387 
		T0 221 
		P 212 
		N 235 
		C0 388 
		T0 222 
		P 213 
		N 236 
		C0 389 
		T0 223 
		P 214 
		N 237 
		C0 390 
		T0 224 
		P 215 
		N 238 
		C0 391 
		T0 225 
		P 216 
		N 239 
		C0 392 
		T0 217 
		P 217 
		N 240 
		C0 393 
		T0 220 
		P 218 
		N 241 
		C0 394 
		T0 219 
		P 219 
		N 242 
		C0 395 
		T0 218 
		P 220 
		N 243 
		C0 396 
		T0 222 
		P 221 
		N 244 
		C0 397 
		T0 221 
		P 222 
		N 245 
		C0 398 
		T0 224 
		P 223 
		N 246 
		C0 399 
		T0 223 
		P 224 
		N 247 
		C0 400 
		T0 225 
	}

	Mtl 4 { 
		{
			Name "#2" 
			Priority 32 
			Prim 2 { 
				{
					Type TRISTRIP
					Priority 32 
					Idx 11 { 12 10 13 9 14 9 15 9 8 10 11 }
				}
				{
					Type TRISTRIP2
					Priority 32 
					Idx 12 { 1 0 2 3 4 3 5 3 6 3 7 0 }
				}
			}

		}
		{
			Name "#3" 
			Priority 32 
			Prim 12 { 
				{
					Type TRISTRIP
					Priority 32 
					Idx 14 { 90 89 83 84 81 85 82 85 86 85 87 84 88 89 }
				}
				{
					Type TRISTRIP
					Priority 32 
					Idx 14 { 74 72 73 70 65 67 66 67 68 67 69 70 71 72 }
				}
				{
					Type TRISTRIP
					Priority 32 
					Idx 3 { 82 80 81 }
				}
				{
					Type TRISTRIP2
					Priority 32 
					Idx 4 { 46 45 43 44 }
				}
				{
					Type TRISTRIP2
					Priority 32 
					Idx 14 { 79 78 75 77 76 94 76 93 62 24 62 61 63 60 }
				}
				{
					Type TRISTRIP2
					Priority 32 
					Idx 14 { 34 33 35 31 27 28 26 28 29 28 30 31 32 33 }
				}
				{
					Type TRISTRIP2
					Priority 32 
					Idx 19 { 21 20 22 23 22 24 22 54 22 55 40 56 39 53 19 18 16 17 52 }
				}
				{
					Type TRISTRIP
					Priority 32 
					Idx 5 { 37 38 36 39 40 }
				}
				{
					Type TRISTRIP2
					Priority 32 
					Idx 11 { 94 77 95 58 92 58 18 58 59 57 91 }
				}
				{
					Type TRISTRIP
					Priority 32 
					Idx 3 { 27 25 26 }
				}
				{
					Type TRISTRIP2
					Priority 32 
					Idx 3 { 64 66 65 }
				}
				{
					Type TRISTRIP
					Priority 32 
					Idx 13 { 51 46 50 45 49 45 48 44 47 44 42 43 41 }
				}
			}

		}
		{
			Name "#4" 
			Priority 32 
			Prim 41 { 
				{
					Type TRISTRIP
					Priority 32 
					Idx 6 { 124 125 127 126 270 271 }
				}
				{
					Type TRISTRIP
					Priority 32 
					Idx 4 { 237 238 236 235 }
				}
				{
					Type TRISTRIP
					Priority 32 
					Idx 4 { 242 239 241 240 }
				}
				{
					Type TRISTRIP
					Priority 32 
					Idx 5 { 4 249 5 138 6 }
				}
				{
					Type TRISTRIP2
					Priority 32 
					Idx 6 { 148 147 149 150 282 281 }
				}
				{
					Type TRISTRIP2
					Priority 32 
					Idx 6 { 152 151 153 154 284 283 }
				}
				{
					Type TRISTRIP2
					Priority 32 
					Idx 5 { 14 13 138 12 249 }
				}
				{
					Type TRISTRIP
					Priority 32 
					Idx 4 { 367 368 366 365 }
				}
				{
					Type TRISTRIP
					Priority 32 
					Idx 4 { 370 371 369 372 }
				}
				{
					Type TRISTRIP
					Priority 32 
					Idx 11 { 269 268 123 121 122 121 120 118 117 119 116 }
				}
				{
					Type TRISTRIP2
					Priority 32 
					Idx 6 { 119 266 118 267 121 268 }
				}
				{
					Type TRISTRIP2
					Priority 32 
					Idx 6 { 310 313 311 312 314 315 }
				}
				{
					Type TRISTRIP2
					Priority 32 
					Idx 3 { 316 317 314 }
				}
				{
					Type TRISTRIP
					Priority 32 
					Idx 9 { 382 273 255 130 254 130 129 131 128 }
				}
				{
					Type TRISTRIP2
					Priority 32 
					Idx 4 { 131 272 130 273 }
				}
				{
					Type TRISTRIP2
					Priority 32 
					Idx 9 { 265 115 263 110 264 110 111 113 112 }
				}
				{
					Type TRISTRIP
					Priority 32 
					Idx 4 { 113 114 110 115 }
				}
				{
					Type TRISTRIP
					Priority 32 
					Idx 39 { 339 338 262 261 109 107 108 106 209 106 208 104 207 102 206 100 205 97 204 97 203 97 96 97 99 98 256 257 334 257 333 258 335 259 336 260 337 261 338 }
				}
				{
					Type TRISTRIP2
					Priority 32 
					Idx 33 { 341 323 340 324 342 308 343 344 345 289 346 285 347 286 349 287 348 287 292 288 290 291 293 291 294 291 344 291 289 288 285 287 286 }
				}
				{
					Type TRISTRIP
					Priority 32 
					Idx 13 { 261 260 107 105 106 105 104 103 102 101 100 98 97 }
				}
				{
					Type TRISTRIP2
					Priority 32 
					Idx 8 { 98 257 101 258 103 259 105 260 }
				}
				{
					Type TRISTRIP2
					Priority 32 
					Idx 15 { 344 308 294 309 294 305 293 305 306 303 304 300 301 299 302 }
				}
				{
					Type TRISTRIP
					Priority 32 
					Idx 7 { 185 184 182 183 182 180 181 }
				}
				{
					Type TRISTRIP2
					Priority 32 
					Idx 11 { 305 309 327 326 328 329 381 329 332 331 330 }
				}
				{
					Type TRISTRIP
					Priority 32 
					Idx 3 { 184 186 187 }
				}
				{
					Type TRISTRIP2
					Priority 32 
					Idx 6 { 142 141 139 140 277 278 }
				}
				{
					Type TRISTRIP2
					Priority 32 
					Idx 5 { 309 325 326 331 329 }
				}
				{
					Type TRISTRIP
					Priority 32 
					Idx 6 { 132 133 135 134 274 275 }
				}
				{
					Type TRISTRIP
					Priority 32 
					Idx 17 { 224 142 223 141 252 141 251 140 250 278 379 278 380 278 354 277 353 }
				}
				{
					Type TRISTRIP2
					Priority 32 
					Idx 16 { 322 325 307 309 307 308 307 324 307 323 322 321 318 320 318 319 }
				}
				{
					Type TRISTRIP2
					Priority 32 
					Idx 10 { 234 231 233 228 232 228 229 228 230 231 }
				}
				{
					Type TRISTRIP2
					Priority 32 
					Idx 53 { 190 189 188 191 192 194 192 177 195 178 195 196 202 198 200 198 201 198 253 198 199 196 197 178 176 178 164 178 179 177 193 194 193 211 193 210 179 212 179 213 179 214 164 214 162 156 157 155 158 159 158 217 219 }
				}
				{
					Type TRISTRIP
					Priority 32 
					Idx 9 { 213 214 215 156 215 155 216 159 217 }
				}
				{
					Type TRISTRIP2
					Priority 32 
					Idx 10 { 364 363 359 358 360 358 361 358 362 363 }
				}
				{
					Type TRISTRIP2
					Priority 32 
					Idx 17 { 220 132 221 133 222 133 136 134 137 275 276 275 352 275 350 274 351 }
				}
				{
					Type TRISTRIP
					Priority 32 
					Idx 27 { 225 166 226 165 227 165 168 166 167 166 143 144 146 145 279 280 279 298 297 295 296 295 357 295 356 298 355 }
				}
				{
					Type TRISTRIP2
					Priority 32 
					Idx 3 { 243 245 244 }
				}
				{
					Type TRISTRIP
					Priority 32 
					Idx 3 { 248 246 247 }
				}
				{
					Type TRISTRIP2
					Priority 32 
					Idx 19 { 170 169 171 172 173 174 175 176 163 164 163 162 160 157 161 158 161 219 218 }
				}
				{
					Type TRISTRIP
					Priority 32 
					Idx 3 { 375 373 374 }
				}
				{
					Type TRISTRIP2
					Priority 32 
					Idx 3 { 376 378 377 }
				}
			}

		}
		{
			Name "#5" 
			Priority 32 
			Prim 4 { 
				{
					Type TRISTRIP
					Priority 32 
					Idx 6 { 388 385 387 384 391 390 }
				}
				{
					Type TRISTRIP
					Priority 32 
					Idx 6 { 385 386 384 383 390 389 }
				}
				{
					Type TRISTRIP
					Priority 32 
					Idx 6 { 393 394 392 395 399 398 }
				}
				{
					Type TRISTRIP
					Priority 32 
					Idx 6 { 394 396 395 397 398 400 }
				}
			}

		}
	}

	Offset 0 
}
