{
	Skinned 0 
	PosSkin 0 
	Pos 24 { 
		-0.148554	0.472502	0.472615 
		-0.148554	0.472502	-0.472615 
		-0.148554	-0.472734	-0.472615 
		-0.148554	-0.472734	0.472615 
		0.148555	0.472502	-0.472615 
		0.148554	0.472502	0.472615 
		0.148555	-0.472734	0.472615 
		0.148555	-0.472734	-0.472615 
		-0.147214	-0.333083	-0.333505 
		-0.147214	0.000697	-0.471765 
		0.148280	0.000697	-0.471765 
		0.148280	-0.333083	-0.333505 
		-0.147214	-0.471339	0.000275 
		0.148280	-0.471339	0.000275 
		-0.147214	-0.333083	0.334055 
		0.148280	-0.333083	0.334055 
		-0.147214	0.000697	0.472305 
		0.148280	0.000697	0.472305 
		-0.147214	0.334477	0.334055 
		0.148280	0.334477	0.334055 
		-0.147214	0.472734	0.000275 
		0.148280	0.472734	0.000275 
		-0.147214	0.334477	-0.333505 
		0.148280	0.334477	-0.333505 
	}

	Nrm 18 { 
		-1.000000	0.000000	0.000000 
		1.000000	0.000000	0.000000 
		0.000000	0.796875	-0.609375 
		0.000000	0.984375	0.140625 
		0.000000	0.984375	-0.140625 
		0.000000	0.609375	-0.796875 
		0.000000	0.140625	-0.984375 
		0.000000	-0.140625	-0.984375 
		0.000000	-0.609375	-0.796875 
		0.000000	-0.796875	-0.609375 
		0.000000	-0.984375	-0.140625 
		0.000000	-0.984375	0.140625 
		0.000000	-0.796875	0.609375 
		0.000000	-0.609375	0.796875 
		0.000000	-0.140625	0.984375 
		0.000000	0.140625	0.984375 
		0.000000	0.609375	0.796875 
		0.000000	0.796875	0.609375 
	}

	Cpv 24 { 
		1.000000	1.000000	1.000000	1.000000 
		1.000000	1.000000	1.000000	1.000000 
		1.000000	1.000000	1.000000	1.000000 
		1.000000	1.000000	1.000000	1.000000 
		1.000000	1.000000	1.000000	1.000000 
		1.000000	1.000000	1.000000	1.000000 
		1.000000	1.000000	1.000000	1.000000 
		1.000000	1.000000	1.000000	1.000000 
		1.000000	1.000000	1.000000	1.000000 
		1.000000	1.000000	1.000000	1.000000 
		1.000000	1.000000	1.000000	1.000000 
		1.000000	1.000000	1.000000	1.000000 
		1.000000	1.000000	1.000000	1.000000 
		1.000000	1.000000	1.000000	1.000000 
		1.000000	1.000000	1.000000	1.000000 
		1.000000	1.000000	1.000000	1.000000 
		1.000000	1.000000	1.000000	1.000000 
		1.000000	1.000000	1.000000	1.000000 
		1.000000	1.000000	1.000000	1.000000 
		1.000000	1.000000	1.000000	1.000000 
		1.000000	1.000000	1.000000	1.000000 
		1.000000	1.000000	1.000000	1.000000 
		1.000000	1.000000	1.000000	1.000000 
		1.000000	1.000000	1.000000	1.000000 
	}

	Tex0 10 { 
		0.488281	0.972656 
		0.013672	0.972656 
		0.013672	0.027344 
		0.488281	0.027344 
		0.538086	0.000000 
		0.769531	0.000000 
		0.769531	0.999023 
		0.538086	0.999023 
		1.000977	0.000000 
		1.000977	0.999023 
	}

	Tex1 0 
	Adj 24 { 
		P 0 
		N 0 
		C0 0 
		T0 0 
		P 1 
		N 0 
		C0 1 
		T0 1 
		P 2 
		N 0 
		C0 2 
		T0 2 
		P 3 
		N 0 
		C0 3 
		T0 3 
		P 4 
		N 1 
		C0 4 
		T0 1 
		P 5 
		N 1 
		C0 5 
		T0 0 
		P 6 
		N 1 
		C0 6 
		T0 3 
		P 7 
		N 1 
		C0 7 
		T0 2 
		P 8 
		N 2 
		C0 8 
		T0 4 
		P 9 
		N 3 
		C0 9 
		T0 5 
		P 10 
		N 4 
		C0 10 
		T0 6 
		P 11 
		N 5 
		C0 11 
		T0 7 
		P 12 
		N 6 
		C0 12 
		T0 5 
		P 13 
		N 7 
		C0 13 
		T0 6 
		P 14 
		N 8 
		C0 14 
		T0 8 
		P 15 
		N 9 
		C0 15 
		T0 9 
		P 16 
		N 10 
		C0 16 
		T0 5 
		P 17 
		N 11 
		C0 17 
		T0 6 
		P 18 
		N 12 
		C0 18 
		T0 8 
		P 19 
		N 13 
		C0 19 
		T0 9 
		P 20 
		N 14 
		C0 20 
		T0 5 
		P 21 
		N 15 
		C0 21 
		T0 6 
		P 22 
		N 16 
		C0 22 
		T0 4 
		P 23 
		N 17 
		C0 23 
		T0 7 
	}

	Mtl 1 { 
		{
			Name "#1" 
			Priority 32 
			Prim 3 { 
				{
					Type TRISTRIP
					Priority 32 
					Idx 4 { 2 3 1 0 }
				}
				{
					Type TRISTRIP
					Priority 32 
					Idx 4 { 7 4 6 5 }
				}
				{
					Type TRISTRIP
					Priority 32 
					Idx 19 { 18 21 20 23 22 10 9 11 8 11 12 13 14 15 16 17 18 19 21 }
				}
			}

		}
	}

	Offset 0 
}
