{
	Skinned 0 
	PosSkin 0 
	Pos 186 { 
		-0.000000	0.384945	2.632480 
		-0.000000	0.648563	2.647640 
		-0.868999	0.647671	2.574600 
		-0.855964	0.380016	2.559920 
		-0.868999	0.731256	2.505290 
		-0.000000	0.732072	2.572150 
		-0.831892	1.043139	2.500945 
		-0.231802	1.042927	2.517537 
		0.000000	1.042845	2.523947 
		0.000000	1.205740	2.498680 
		-0.812546	1.205740	2.498680 
		-0.603763	1.787455	1.912374 
		-0.620625	1.748085	2.053154 
		0.000000	1.770175	2.062024 
		0.000000	1.808545	1.909534 
		0.000000	1.808438	0.056490 
		-0.604172	1.787768	0.060559 
		-0.000000	1.756350	-0.829444 
		-0.639659	1.719910	-0.799846 
		-0.000000	1.468090	-1.165230 
		-0.747646	1.442330	-1.138730 
		0.000000	1.199930	-1.462529 
		-0.846412	1.176970	-1.434760 
		-0.844480	1.054370	-1.857110 
		0.000000	1.077430	-1.903120 
		0.000000	0.919422	-2.291800 
		-0.834184	0.907007	-2.171420 
		-0.000000	0.813136	-2.324320 
		-0.494289	0.809586	-2.269842 
		-0.826293	0.807201	-2.233250 
		0.000000	0.625627	-2.454720 
		-0.824431	0.626645	-2.371390 
		-0.819637	0.668181	-2.256750 
		-0.395453	0.667678	-2.297883 
		-0.000000	0.667210	-2.336230 
		-0.817675	0.255435	-2.338850 
		0.000000	0.261442	-2.410540 
		-0.921933	0.488581	-2.089310 
		-0.899548	0.626869	-2.268800 
		-0.867516	0.248521	-2.259880 
		-0.881815	0.239969	-2.115550 
		-0.895954	0.670221	-2.163164 
		-0.949789	0.665012	-1.977850 
		-0.934996	0.373144	2.493030 
		-0.968999	0.643204	2.500280 
		-0.969000	0.532056	2.068430 
		-0.934997	0.330200	2.106140 
		-0.974813	0.686111	1.973840 
		-0.959592	0.728342	2.438820 
		-0.956054	0.892670	-1.328750 
		-0.969307	0.774664	-1.656590 
		-0.974814	0.660454	-1.312450 
		-0.974814	0.778311	1.696950 
		-0.944309	0.893599	2.434113 
		-0.936932	0.973371	2.431840 
		-0.915763	1.202280	2.425320 
		-0.920972	1.146800	0.086420 
		-0.964788	0.839428	0.079909 
		-0.924049	1.113630	-1.343670 
		-0.932466	0.280356	1.190050 
		-0.969000	0.491675	1.230060 
		-0.969000	0.483861	0.075820 
		-0.932466	0.269020	0.073349 
		-0.974814	0.695179	1.393479 
		-0.973992	0.688457	0.078173 
		-0.922780	0.812247	-2.041922 
		-0.907398	0.896095	-2.078410 
		-0.898738	0.798523	-2.138640 
		-0.910065	0.804989	-2.093072 
		-0.924551	1.005280	-1.804950 
		-0.847124	1.391570	2.323568 
		-0.836996	1.347467	0.081768 
		-0.690572	1.689910	-0.775270 
		-0.802705	1.406420	-1.093490 
		-0.703966	1.658392	0.068884 
		-0.682344	1.711975	2.037604 
		-0.649299	1.752565	1.909754 
		-0.649446	1.753054	0.063791 
		-0.852353	0.871162	2.503341 
		-0.762322	1.395250	2.377417 
		0.000000	1.395250	2.377417 
		-0.902494	1.319510	-0.989679 
		-0.858813	1.238270	-0.996537 
		-0.857877	1.244860	-1.110118 
		-1.140540	1.302250	-1.018076 
		-1.139730	1.323840	-0.945090 
		-1.146250	1.168490	-1.016717 
		-1.152170	1.164830	-0.940077 
		-0.889605	1.131600	-1.104148 
		-0.890949	1.138010	-0.988802 
		-0.969000	0.475239	-1.197850 
		-0.932466	0.256621	-1.148080 
		-0.210107	0.871229	2.538922 
		-0.000000	0.871251	2.550562 
		0.855964	0.380016	2.559920 
		0.868999	0.647671	2.574600 
		0.868999	0.731256	2.505290 
		0.831892	1.043139	2.500945 
		0.812546	1.205740	2.498680 
		0.231802	1.042927	2.517537 
		0.603763	1.787455	1.912374 
		0.620625	1.748085	2.053154 
		0.604172	1.787768	0.060559 
		0.639659	1.719910	-0.799846 
		0.747646	1.442330	-1.138730 
		0.846412	1.176970	-1.434760 
		0.844480	1.054370	-1.857110 
		0.834184	0.907007	-2.171420 
		0.826293	0.807201	-2.233250 
		0.494289	0.809586	-2.269842 
		0.395453	0.667678	-2.297883 
		0.819637	0.668181	-2.256750 
		0.824431	0.626645	-2.371390 
		0.817675	0.255435	-2.338850 
		0.921933	0.488581	-2.089310 
		0.881815	0.239969	-2.115550 
		0.867516	0.248521	-2.259880 
		0.899548	0.626869	-2.268800 
		0.895954	0.670221	-2.163164 
		0.949789	0.665012	-1.977850 
		0.934996	0.373144	2.493030 
		0.934997	0.330200	2.106140 
		0.969000	0.532056	2.068430 
		0.968999	0.643204	2.500280 
		0.974813	0.686111	1.973840 
		0.959592	0.728342	2.438820 
		0.956054	0.892670	-1.328750 
		0.974814	0.660454	-1.312450 
		0.969307	0.774664	-1.656590 
		0.974814	0.778311	1.696950 
		0.920972	1.146800	0.086420 
		0.915763	1.202280	2.425320 
		0.936932	0.973371	2.431840 
		0.944309	0.893598	2.434112 
		0.924049	1.113630	-1.343670 
		0.964788	0.839428	0.079909 
		0.932466	0.280356	1.190050 
		0.932466	0.269020	0.073349 
		0.969000	0.483861	0.075820 
		0.969000	0.491675	1.230060 
		0.973992	0.688457	0.078173 
		0.974814	0.695179	1.393479 
		0.922780	0.812247	-2.041922 
		0.910065	0.804989	-2.093072 
		0.898738	0.798523	-2.138640 
		0.907398	0.896095	-2.078410 
		0.924551	1.005280	-1.804950 
		0.836996	1.347467	0.081768 
		0.847124	1.391570	2.323568 
		0.690572	1.689910	-0.775270 
		0.703966	1.658392	0.068884 
		0.802705	1.406420	-1.093490 
		0.682344	1.711975	2.037604 
		0.649446	1.753054	0.063791 
		0.649299	1.752566	1.909754 
		0.852353	0.871162	2.503341 
		0.762322	1.395250	2.377417 
		0.902494	1.319510	-0.989679 
		0.857877	1.244860	-1.110118 
		0.858813	1.238270	-0.996537 
		1.139730	1.323840	-0.945090 
		1.140540	1.302250	-1.018075 
		1.146250	1.168490	-1.016717 
		1.152170	1.164830	-0.940077 
		0.889605	1.131600	-1.104148 
		0.890949	1.138010	-0.988802 
		0.932466	0.256621	-1.148080 
		0.969000	0.475239	-1.197850 
		0.210107	0.871229	2.538922 
		-0.467663	0.239969	-2.115550 
		-0.484500	0.665012	-1.977850 
		-0.484500	0.660454	-1.312450 
		-0.484500	0.256621	-1.148080 
		-0.484500	0.280356	1.190050 
		-0.484500	0.688380	1.368660 
		-0.484500	0.686111	1.973840 
		-0.484500	0.330200	2.106140 
		0.000000	0.268488	0.020985 
		0.484500	0.665012	-1.977850 
		0.467663	0.239969	-2.115550 
		0.484500	0.660454	-1.312450 
		0.484500	0.256621	-1.148080 
		0.484500	0.280356	1.190050 
		0.484500	0.688380	1.368660 
		0.484500	0.686111	1.973840 
		0.484500	0.330200	2.106140 
	}

	Nrm 227 { 
		0.000000	-0.062500	1.000000 
		0.000000	0.328125	0.953125 
		-0.359375	0.296875	0.890625 
		-0.359375	-0.078125	0.921875 
		-0.296875	0.609375	0.734375 
		0.000000	0.656250	0.750000 
		-0.312500	0.078125	0.953125 
		-0.031250	0.093750	1.000000 
		0.000000	0.109375	1.000000 
		0.000000	0.078125	1.000000 
		-0.296875	0.343750	0.890625 
		-0.328125	0.937500	0.109375 
		-0.281250	0.843750	0.453125 
		0.000000	0.843750	0.531250 
		0.000000	0.984375	0.125000 
		0.000000	1.000000	-0.031250 
		-0.328125	0.937500	-0.031250 
		0.000000	0.921875	-0.375000 
		-0.359375	0.890625	-0.296875 
		0.000000	0.765625	-0.656250 
		-0.406250	0.750000	-0.531250 
		0.000000	0.875000	-0.484375 
		-0.406250	0.828125	-0.390625 
		-0.359375	0.875000	-0.312500 
		0.000000	0.937500	-0.343750 
		0.000000	0.718750	-0.703125 
		-0.437500	0.656250	-0.625000 
		0.000000	0.265625	-0.968750 
		-0.109375	0.218750	-0.968750 
		-0.484375	0.250000	-0.843750 
		0.000000	0.531250	-0.843750 
		-0.437500	0.531250	-0.718750 
		-0.218750	0.921875	-0.328125 
		-0.031250	0.937500	-0.328125 
		0.000000	0.937500	-0.328125 
		-0.500000	-0.093750	-0.859375 
		0.000000	-0.109375	-1.000000 
		-0.984375	-0.015625	-0.171875 
		-0.906250	0.218750	-0.343750 
		-0.921875	-0.093750	-0.375000 
		-0.984375	-0.109375	-0.156250 
		-0.796875	0.531250	-0.281250 
		-0.984375	0.062500	-0.171875 
		-0.890625	-0.125000	0.453125 
		-0.890625	0.093750	0.421875 
		-1.000000	-0.062500	0.015625 
		-0.984375	-0.140625	0.031250 
		-1.000000	0.031250	0.015625 
		-0.859375	0.328125	0.390625 
		-1.000000	0.109375	0.000000 
		-0.984375	0.125000	-0.046875 
		-1.000000	0.046875	0.000000 
		-0.984375	0.125000	0.000000 
		-0.890625	0.109375	0.453125 
		-0.796875	0.109375	0.593750 
		-0.843750	0.312500	0.421875 
		-0.984375	0.140625	0.000000 
		-0.906250	0.421875	-0.109375 
		-0.984375	-0.171875	0.000000 
		-1.000000	-0.093750	0.000000 
		-1.000000	0.015625	0.000000 
		-0.968750	0.078125	-0.203125 
		-0.890625	0.312500	-0.343750 
		-0.890625	0.125000	-0.437500 
		-0.968750	0.062500	-0.250000 
		-0.984375	0.093750	-0.187500 
		-0.875000	0.453125	-0.171875 
		-0.921875	0.375000	-0.015625 
		-0.765625	0.562500	0.328125 
		-0.921875	0.390625	0.000000 
		-0.781250	0.609375	-0.109375 
		-0.828125	0.515625	-0.171875 
		-0.890625	0.468750	0.000000 
		-0.734375	0.656250	0.171875 
		-0.687500	0.734375	0.046875 
		-0.734375	0.671875	-0.015625 
		-0.343750	0.093750	0.937500 
		-0.250000	0.640625	0.734375 
		0.000000	0.609375	0.796875 
		0.515625	0.578125	0.640625 
		0.687500	0.312500	0.656250 
		0.281250	0.687500	-0.671875 
		-0.609375	0.453125	-0.656250 
		-0.609375	0.718750	0.359375 
		-0.734375	-0.468750	-0.500000 
		-0.578125	-0.562500	0.593750 
		-0.296875	-0.687500	-0.656250 
		0.109375	-0.437500	0.890625 
		0.000000	0.531250	0.843750 
		-1.000000	0.093750	0.000000 
		-0.046875	0.093750	1.000000 
		0.000000	0.093750	1.000000 
		-0.109375	0.109375	-0.984375 
		0.000000	0.109375	-1.000000 
		-0.968750	0.046875	-0.265625 
		0.359375	-0.078125	0.921875 
		0.359375	0.296875	0.890625 
		0.296875	0.609375	0.734375 
		0.312500	0.078125	0.953125 
		0.296875	0.343750	0.890625 
		0.031250	0.109375	1.000000 
		0.328125	0.937500	0.109375 
		0.281250	0.843750	0.453125 
		0.328125	0.937500	-0.031250 
		0.359375	0.890625	-0.296875 
		0.406250	0.750000	-0.531250 
		0.406250	0.828125	-0.390625 
		0.359375	0.875000	-0.312500 
		0.437500	0.656250	-0.625000 
		0.484375	0.250000	-0.843750 
		0.109375	0.218750	-0.968750 
		0.031250	0.937500	-0.328125 
		0.218750	0.921875	-0.328125 
		0.437500	0.531250	-0.718750 
		0.500000	-0.093750	-0.859375 
		0.984375	-0.015625	-0.171875 
		0.984375	-0.109375	-0.156250 
		0.921875	-0.093750	-0.375000 
		0.906250	0.218750	-0.343750 
		0.796875	0.531250	-0.281250 
		0.984375	0.062500	-0.171875 
		0.890625	-0.125000	0.453125 
		0.984375	-0.140625	0.031250 
		1.000000	-0.062500	0.015625 
		0.890625	0.093750	0.421875 
		1.000000	0.031250	0.015625 
		0.859375	0.328125	0.390625 
		1.000000	0.109375	0.000000 
		1.000000	0.046875	0.000000 
		0.984375	0.125000	-0.046875 
		0.984375	0.140625	0.000000 
		0.843750	0.312500	0.421875 
		0.796875	0.109375	0.593750 
		0.890625	0.109375	0.453125 
		0.984375	0.125000	0.000000 
		0.906250	0.421875	-0.109375 
		0.984375	-0.171875	0.000000 
		1.000000	-0.093750	0.000000 
		1.000000	0.015625	0.000000 
		0.968750	0.078125	-0.203125 
		0.968750	0.062500	-0.250000 
		0.890625	0.125000	-0.437500 
		0.890625	0.312500	-0.343750 
		0.984375	0.093750	-0.187500 
		0.875000	0.453125	-0.171875 
		0.921875	0.375000	-0.015625 
		0.921875	0.390625	0.000000 
		0.765625	0.562500	0.328125 
		0.781250	0.609375	-0.109375 
		0.890625	0.468750	0.000000 
		0.828125	0.515625	-0.171875 
		0.734375	0.656250	0.171875 
		0.734375	0.671875	-0.015625 
		0.687500	0.734375	0.046875 
		0.343750	0.093750	0.937500 
		0.250000	0.640625	0.734375 
		-0.515625	0.578125	0.640625 
		-0.281250	0.687500	-0.671875 
		-0.687500	0.312500	0.656250 
		0.609375	0.718750	0.359375 
		0.609375	0.453125	-0.656250 
		0.734375	-0.468750	-0.500000 
		0.578125	-0.562500	0.593750 
		0.296875	-0.687500	-0.656250 
		-0.109375	-0.437500	0.890625 
		1.000000	0.093750	0.000000 
		0.046875	0.109375	1.000000 
		0.109375	0.109375	-0.984375 
		0.968750	0.046875	-0.265625 
		-0.484375	0.125000	-0.875000 
		-0.093750	0.140625	-0.984375 
		-0.890625	0.062500	-0.437500 
		-0.968750	0.031250	-0.250000 
		0.484375	0.125000	-0.875000 
		0.093750	0.140625	-0.984375 
		0.890625	0.062500	-0.437500 
		0.968750	0.031250	-0.250000 
		-0.046875	-0.812500	0.593750 
		-0.390625	-0.859375	0.343750 
		-0.343750	-0.750000	0.562500 
		-0.031250	-0.390625	0.921875 
		0.000000	-0.781250	0.625000 
		-0.078125	-0.984375	0.109375 
		-0.406250	-0.640625	-0.656250 
		-0.078125	-0.843750	-0.531250 
		-0.031250	-0.421875	-0.906250 
		-0.281250	-0.921875	-0.250000 
		-0.031250	-0.812500	-0.578125 
		-0.031250	-0.343750	0.937500 
		0.000000	-0.765625	0.640625 
		-0.187500	-0.906250	0.375000 
		-0.546875	-0.703125	0.453125 
		-0.093750	-0.828125	0.546875 
		-0.328125	-0.765625	-0.562500 
		0.000000	-0.781250	-0.625000 
		-0.062500	-0.984375	-0.109375 
		-0.031250	-0.406250	-0.906250 
		-0.375000	-0.875000	-0.312500 
		-0.031250	-0.828125	-0.546875 
		0.000000	-1.000000	0.015625 
		0.000000	-1.000000	0.109375 
		0.000000	-1.000000	0.078125 
		0.000000	-1.000000	-0.078125 
		0.000000	-1.000000	-0.046875 
		0.000000	-1.000000	-0.093750 
		0.046875	-0.812500	0.593750 
		0.031250	-0.390625	0.921875 
		0.343750	-0.750000	0.562500 
		0.390625	-0.859375	0.343750 
		0.078125	-0.984375	0.109375 
		0.078125	-0.843750	-0.531250 
		0.406250	-0.640625	-0.656250 
		0.031250	-0.421875	-0.906250 
		0.031250	-0.812500	-0.578125 
		0.281250	-0.921875	-0.250000 
		0.031250	-0.343750	0.937500 
		0.187500	-0.906250	0.375000 
		0.093750	-0.828125	0.546875 
		0.546875	-0.703125	0.453125 
		0.328125	-0.765625	-0.562500 
		0.062500	-0.984375	-0.109375 
		0.031250	-0.406250	-0.906250 
		0.031250	-0.828125	-0.546875 
		0.375000	-0.875000	-0.312500 
		-0.328125	0.078125	0.937500 
		0.328125	0.078125	0.937500 
		0.046875	0.062500	1.000000 
	}

	Cpv 355 { 
		0.421386	0.510666	0.407221	0.000000 
		0.421386	0.510666	0.407221	0.000000 
		0.587741	0.465766	0.386650	0.000000 
		0.566311	0.493164	0.444980	0.000000 
		0.551200	0.500000	0.490691	0.000000 
		0.441674	0.514024	0.398442	0.000000 
		0.561659	0.479323	0.464904	0.000000 
		0.439491	0.500000	0.416219	0.000000 
		0.441674	0.514024	0.398442	0.000000 
		0.439491	0.500000	0.416219	0.000000 
		0.570939	0.472055	0.437955	0.000000 
		0.537236	0.500000	0.518618	0.003922 
		0.537236	0.500000	0.518618	0.003922 
		0.553826	0.361666	0.495967	0.003922 
		0.553826	0.361666	0.495967	0.003922 
		0.585255	0.363083	0.556532	0.003922 
		0.639909	0.389797	0.592234	0.003922 
		0.584526	0.315307	0.522382	0.003922 
		0.535891	0.383699	0.528384	0.003922 
		0.584526	0.315307	0.522382	0.003922 
		0.500000	0.500000	0.500000	0.003922 
		0.551174	0.463228	0.475977	0.003922 
		0.535891	0.383699	0.528384	0.003922 
		0.500000	0.500000	0.500000	0.000000 
		0.486036	0.500000	0.523273	0.000000 
		0.600466	0.457403	0.530963	0.000000 
		0.486036	0.500000	0.523273	0.000000 
		0.500000	0.500000	0.500000	0.000000 
		0.451856	0.549603	0.537106	0.000000 
		0.472073	0.500000	0.616363	0.000000 
		0.522183	0.500000	0.525207	0.000000 
		0.522183	0.500000	0.525207	0.000000 
		0.472073	0.500000	0.616363	0.000000 
		0.472073	0.500000	0.616363	0.000000 
		0.477521	0.495751	0.541708	0.000000 
		0.512874	0.500000	0.520552	0.000000 
		0.444940	0.495751	0.699962	0.000000 
		0.495345	0.500000	0.513964	0.000000 
		0.495345	0.500000	0.513964	0.000000 
		0.477521	0.495751	0.541708	0.000000 
		0.449594	0.495751	0.658072	0.000000 
		0.558873	0.491536	0.539938	0.000000 
		0.445313	0.525975	0.733268	0.000000 
		0.523738	0.500000	0.526876	0.000000 
		0.514429	0.500000	0.522222	0.000000 
		0.558873	0.491536	0.539938	0.000000 
		0.568182	0.491536	0.544592	0.000000 
		0.522183	0.500000	0.525207	0.000000 
		0.526837	0.500000	0.511243	0.000000 
		0.566311	0.493164	0.444980	0.000000 
		0.587741	0.465766	0.386650	0.000000 
		0.586073	0.504113	0.537328	0.000000 
		0.537236	0.500000	0.518618	0.000000 
		0.537236	0.500000	0.518618	0.000000 
		0.551200	0.500000	0.490691	0.000000 
		0.486036	0.500000	0.523273	0.000000 
		0.586268	0.500000	0.509023	0.000000 
		0.550164	0.526110	0.493996	0.000000 
		0.559914	0.515887	0.516443	0.000000 
		0.537236	0.500000	0.518618	0.000000 
		0.551200	0.500000	0.490691	0.000000 
		0.561659	0.479323	0.464904	0.000000 
		0.561659	0.479323	0.464904	0.000000 
		0.570939	0.472055	0.437955	0.000000 
		0.636710	0.490606	0.542870	0.000000 
		0.636710	0.490606	0.542870	0.000000 
		0.636710	0.490606	0.542870	0.000000 
		0.486036	0.500000	0.523273	0.000000 
		0.490691	0.500000	0.518618	0.000000 
		0.531184	0.497179	0.560567	0.000000 
		0.654524	0.506575	0.551609	0.000000 
		0.571163	0.475647	0.496621	0.000000 
		0.490691	0.500000	0.518618	0.000000 
		0.603211	0.490491	0.530310	0.000000 
		0.526837	0.500000	0.511243	0.000000 
		0.526837	0.500000	0.511243	0.000000 
		0.522183	0.500000	0.525207	0.000000 
		0.522183	0.500000	0.525207	0.000000 
		0.526837	0.500000	0.511243	0.000000 
		0.633048	0.457403	0.544927	0.000000 
		0.616363	0.500000	0.532582	0.000000 
		0.609244	0.468064	0.457002	0.003922 
		0.616363	0.500000	0.532582	0.003922 
		0.535891	0.383699	0.528384	0.003922 
		0.551174	0.463228	0.475977	0.003922 
		0.616363	0.500000	0.532582	0.003922 
		0.639909	0.389797	0.592234	0.003922 
		0.537236	0.500000	0.518618	0.003922 
		0.639909	0.389797	0.592234	0.003922 
		0.537236	0.500000	0.518618	0.003922 
		0.639909	0.389797	0.592234	0.003922 
		0.566311	0.493164	0.444980	0.000000 
		0.587741	0.465766	0.386650	0.000000 
		0.551200	0.500000	0.490691	0.000000 
		0.551200	0.500000	0.490691	0.000000 
		0.561659	0.479323	0.464904	0.000000 
		0.570939	0.472055	0.437955	0.000000 
		0.609244	0.468064	0.457002	0.003922 
		0.537236	0.500000	0.518618	0.003922 
		0.537236	0.500000	0.518618	0.003922 
		0.639909	0.389797	0.592234	0.003922 
		0.639909	0.389797	0.592234	0.003922 
		0.535891	0.383699	0.528384	0.003922 
		0.639909	0.389797	0.592234	0.003922 
		0.551174	0.463228	0.475977	0.003922 
		0.486036	0.500000	0.523273	0.000000 
		0.600466	0.457403	0.530963	0.000000 
		0.522183	0.500000	0.525207	0.000000 
		0.512874	0.500000	0.520552	0.000000 
		0.495345	0.500000	0.513964	0.000000 
		0.495345	0.500000	0.513964	0.000000 
		0.558873	0.491536	0.539938	0.000000 
		0.609244	0.468064	0.457002	0.003922 
		0.439491	0.500000	0.416219	0.003922 
		0.553826	0.361666	0.495967	0.003922 
		0.537236	0.500000	0.518618	0.003922 
		0.454269	0.445347	0.481120	0.000000 
		0.487872	0.477775	0.473847	0.000000 
		0.460559	0.455306	0.477896	0.000000 
		0.499089	0.325385	0.549569	0.000000 
		0.502826	0.336618	0.545108	0.000000 
		0.570643	0.343038	0.558692	0.000000 
		0.589586	0.355480	0.557387	0.000000 
		0.526860	0.457957	0.492912	0.000000 
		0.547783	0.478603	0.488166	0.000000 
		0.502826	0.336618	0.545108	0.000000 
		0.589586	0.355480	0.557387	0.000000 
		0.547783	0.478603	0.488166	0.000000 
		0.454269	0.445347	0.481120	0.000000 
		0.487872	0.477775	0.473847	0.000000 
		0.454269	0.445347	0.481120	0.000000 
		0.547783	0.478603	0.488166	0.000000 
		0.616363	0.500000	0.532582	0.000000 
		0.570939	0.472055	0.437955	0.000000 
		0.439491	0.500000	0.416219	0.000000 
		0.603211	0.490491	0.530310	0.000000 
		0.616363	0.500000	0.532582	0.000000 
		0.636710	0.490606	0.542870	0.000000 
		0.571163	0.475647	0.496621	0.000000 
		0.654524	0.506575	0.551609	0.000000 
		0.500000	0.500000	0.500000	0.000000 
		0.544377	0.500000	0.490405	0.000000 
		0.441674	0.514024	0.398442	0.000000 
		0.441674	0.514024	0.398442	0.000000 
		0.551200	0.500000	0.490691	0.000000 
		0.441674	0.514024	0.398442	0.000000 
		0.561659	0.479323	0.464904	0.000000 
		0.561659	0.479323	0.464904	0.000000 
		0.477521	0.495751	0.541708	0.000000 
		0.449594	0.495751	0.658072	0.000000 
		0.522183	0.500000	0.525207	0.000000 
		0.522183	0.500000	0.525207	0.000000 
		0.341373	0.511765	0.468029	0.000000 
		0.404239	0.491563	0.471969	0.000000 
		0.417089	0.479798	0.491658	0.000000 
		0.448788	0.500000	0.500000	0.000000 
		0.449638	0.474988	0.490966	0.000000 
		0.500000	0.500000	0.500000	0.000000 
		0.503281	0.378997	0.477341	0.003922 
		0.441316	0.395676	0.498316	0.003922 
		0.407359	0.429837	0.609030	0.003922 
		0.434800	0.443517	0.524342	0.003922 
		0.434800	0.443517	0.524342	0.003922 
		0.453714	0.484515	0.489582	0.003922 
		0.472073	0.500000	0.504655	0.000000 
		0.432263	0.439942	0.554299	0.000000 
		0.472073	0.500000	0.504655	0.000000 
		0.425528	0.500000	0.579127	0.000000 
		0.425528	0.500000	0.579127	0.000000 
		0.425528	0.500000	0.579127	0.000000 
		0.458109	0.500000	0.537236	0.000000 
		0.458109	0.500000	0.537236	0.000000 
		0.425528	0.500000	0.579127	0.000000 
		0.425528	0.500000	0.579127	0.000000 
		0.425528	0.500000	0.579127	0.000000 
		0.481382	0.500000	0.513964	0.000000 
		0.481382	0.500000	0.513964	0.000000 
		0.406909	0.500000	0.593091	0.000000 
		0.406909	0.500000	0.593091	0.000000 
		0.406909	0.500000	0.593091	0.000000 
		0.481382	0.500000	0.513964	0.000000 
		0.341373	0.511765	0.468029	0.000000 
		0.490691	0.500000	0.500000	0.000000 
		0.490691	0.500000	0.500000	0.000000 
		0.404239	0.491563	0.471969	0.000000 
		0.490691	0.500000	0.500000	0.000000 
		0.417089	0.479798	0.491658	0.000000 
		0.500000	0.500000	0.500000	0.000000 
		0.500000	0.500000	0.500000	0.000000 
		0.439491	0.500000	0.527927	0.000000 
		0.448788	0.500000	0.500000	0.000000 
		0.402255	0.500000	0.565163	0.000000 
		0.449638	0.474988	0.490966	0.000000 
		0.448788	0.500000	0.500000	0.000000 
		0.448788	0.500000	0.500000	0.000000 
		0.417089	0.479798	0.491658	0.000000 
		0.490691	0.500000	0.500000	0.000000 
		0.500000	0.500000	0.500000	0.000000 
		0.402255	0.500000	0.565163	0.000000 
		0.402255	0.500000	0.565163	0.000000 
		0.486002	0.510286	0.499168	0.000000 
		0.402255	0.500000	0.565163	0.000000 
		0.402255	0.500000	0.565163	0.000000 
		0.486002	0.510286	0.499168	0.000000 
		0.324595	0.465313	0.607324	0.000000 
		0.476693	0.510286	0.499168	0.000000 
		0.481382	0.500000	0.513964	0.000000 
		0.481382	0.500000	0.513964	0.000000 
		0.448800	0.500000	0.555854	0.000000 
		0.481382	0.500000	0.513964	0.000000 
		0.481382	0.500000	0.513964	0.000000 
		0.432263	0.439942	0.554299	0.000000 
		0.402255	0.500000	0.565163	0.000000 
		0.345283	0.461871	0.571176	0.003922 
		0.375172	0.445385	0.472756	0.003922 
		0.428690	0.460196	0.526699	0.003922 
		0.401248	0.446516	0.611387	0.003922 
		0.345283	0.461871	0.571176	0.003922 
		0.453714	0.484515	0.489582	0.003922 
		0.401248	0.446516	0.611387	0.003922 
		0.459935	0.395676	0.512280	0.003922 
		0.407359	0.429837	0.609030	0.003922 
		0.503281	0.378997	0.477341	0.003922 
		0.341373	0.511765	0.468029	0.000000 
		0.404239	0.491563	0.471969	0.000000 
		0.417089	0.479798	0.491658	0.000000 
		0.448788	0.500000	0.500000	0.000000 
		0.417089	0.479798	0.491658	0.000000 
		0.425534	0.470397	0.481790	0.003922 
		0.449638	0.474988	0.490966	0.000000 
		0.441316	0.395676	0.498316	0.003922 
		0.503281	0.378997	0.477341	0.003922 
		0.407359	0.429837	0.609030	0.003922 
		0.407359	0.429837	0.609030	0.003922 
		0.407359	0.429837	0.609030	0.003922 
		0.434800	0.443517	0.524342	0.003922 
		0.453714	0.484515	0.489582	0.003922 
		0.472073	0.500000	0.504655	0.000000 
		0.432263	0.439942	0.554299	0.000000 
		0.425528	0.500000	0.579127	0.000000 
		0.425528	0.500000	0.579127	0.000000 
		0.425528	0.500000	0.579127	0.000000 
		0.425528	0.500000	0.579127	0.000000 
		0.425528	0.500000	0.579127	0.000000 
		0.425534	0.470397	0.481790	0.003922 
		0.441316	0.395676	0.498316	0.003922 
		0.472504	0.485167	0.454057	0.000000 
		0.555932	0.468876	0.463626	0.000000 
		0.491168	0.478951	0.444166	0.000000 
		0.402726	0.526823	0.577192	0.000000 
		0.446198	0.521003	0.594666	0.000000 
		0.455323	0.524255	0.619262	0.000000 
		0.410580	0.531884	0.608949	0.000000 
		0.555924	0.476339	0.498535	0.000000 
		0.489007	0.486416	0.476869	0.000000 
		0.402726	0.526823	0.577192	0.000000 
		0.472504	0.485167	0.454057	0.000000 
		0.489007	0.486416	0.476869	0.000000 
		0.410580	0.531884	0.608949	0.000000 
		0.491168	0.478951	0.444166	0.000000 
		0.489007	0.486416	0.476869	0.000000 
		0.472504	0.485167	0.454057	0.000000 
		0.402255	0.500000	0.565163	0.000000 
		0.449638	0.474988	0.490966	0.000000 
		0.324595	0.465313	0.607324	0.000000 
		0.402255	0.500000	0.565163	0.000000 
		0.402255	0.500000	0.565163	0.000000 
		0.494050	0.506423	0.500562	0.000000 
		0.494050	0.506423	0.500562	0.000000 
		0.402255	0.500000	0.565163	0.000000 
		0.502183	0.514024	0.482224	0.000000 
		0.417089	0.479798	0.491658	0.000000 
		0.448788	0.500000	0.500000	0.000000 
		0.448788	0.500000	0.500000	0.000000 
		0.458109	0.500000	0.537236	0.000000 
		0.406909	0.500000	0.593091	0.000000 
		0.481382	0.500000	0.513964	0.000000 
		0.495345	0.500000	0.513964	0.000000 
		0.477521	0.495751	0.541708	0.000000 
		0.495345	0.500000	0.513964	0.000000 
		0.522183	0.500000	0.525207	0.000000 
		0.522183	0.500000	0.525207	0.000000 
		0.425528	0.500000	0.579127	0.000000 
		0.458109	0.500000	0.537236	0.000000 
		0.406909	0.500000	0.593091	0.000000 
		0.425528	0.500000	0.579127	0.000000 
		0.481382	0.500000	0.513964	0.000000 
		0.568182	0.491536	0.544592	0.000000 
		0.500000	0.500000	0.500000	0.000000 
		0.500000	0.500000	0.500000	0.000000 
		0.523738	0.500000	0.526876	0.000000 
		0.526837	0.500000	0.511243	0.000000 
		0.586268	0.500000	0.509023	0.000000 
		0.486036	0.500000	0.523273	0.000000 
		0.550164	0.526110	0.493996	0.000000 
		0.500000	0.500000	0.500000	0.000000 
		0.500000	0.500000	0.500000	0.000000 
		0.544377	0.500000	0.490405	0.000000 
		0.531184	0.497179	0.560567	0.000000 
		0.490691	0.500000	0.518618	0.000000 
		0.513369	0.515887	0.516443	0.000000 
		0.513369	0.515887	0.516443	0.000000 
		0.490691	0.500000	0.518618	0.000000 
		0.537236	0.500000	0.518618	0.000000 
		0.537236	0.500000	0.518618	0.000000 
		0.559914	0.515887	0.516443	0.000000 
		0.586073	0.504113	0.537328	0.000000 
		0.537236	0.500000	0.518618	0.000000 
		0.537236	0.500000	0.518618	0.000000 
		0.571163	0.475647	0.496621	0.000000 
		0.566311	0.493164	0.444980	0.000000 
		0.566311	0.493164	0.444980	0.000000 
		0.421386	0.510666	0.407221	0.000000 
		0.421386	0.510666	0.407221	0.000000 
		0.558873	0.491536	0.539938	0.000000 
		0.445313	0.525975	0.733268	0.000000 
		0.538304	0.496009	0.519047	0.000000 
		0.558873	0.491536	0.539938	0.000000 
		0.481382	0.500000	0.513964	0.000000 
		0.481382	0.500000	0.513964	0.000000 
		0.500000	0.500000	0.500000	0.000000 
		0.477521	0.495751	0.541708	0.000000 
		0.481382	0.500000	0.513964	0.000000 
		0.439491	0.500000	0.527927	0.000000 
		0.500000	0.500000	0.500000	0.000000 
		0.500000	0.500000	0.500000	0.000000 
		0.494050	0.506423	0.500562	0.000000 
		0.494050	0.506423	0.500562	0.000000 
		0.494050	0.506423	0.500562	0.000000 
		0.486002	0.510286	0.499168	0.000000 
		0.500000	0.500000	0.500000	0.000000 
		0.486002	0.510286	0.499168	0.000000 
		0.476693	0.510286	0.499168	0.000000 
		0.481382	0.500000	0.486036	0.000000 
		0.425528	0.500000	0.504655	0.000000 
		0.448788	0.500000	0.500000	0.000000 
		0.490691	0.500000	0.500000	0.000000 
		0.490691	0.500000	0.500000	0.000000 
		0.490691	0.500000	0.500000	0.000000 
		0.425528	0.500000	0.504655	0.000000 
		0.402255	0.500000	0.565163	0.000000 
		0.341373	0.511765	0.468029	0.000000 
		0.341373	0.511765	0.468029	0.000000 
		0.406909	0.500000	0.593091	0.000000 
		0.425528	0.500000	0.579127	0.000000 
		0.561659	0.479323	0.464904	0.000000 
		0.561659	0.479323	0.464904	0.000000 
		0.561659	0.479323	0.464904	0.000000 
		0.561659	0.479323	0.464904	0.000000 
		0.448788	0.500000	0.500000	0.000000 
		0.448788	0.500000	0.500000	0.000000 
		0.500000	0.500000	0.500000	0.000000 
		0.502183	0.514024	0.482224	0.000000 
		0.448788	0.500000	0.500000	0.000000 
		0.448788	0.500000	0.500000	0.000000 
	}

	Tex0 187 { 
		0.287109	0.495117 
		0.255859	0.495117 
		0.256836	0.049805 
		0.288086	0.064453 
		0.209961	0.049805 
		0.208984	0.495117 
		0.133789	0.060547 
		0.133789	0.374023 
		0.133789	0.495117 
		0.113281	0.495117 
		0.113281	0.066406 
		0.373047	0.456055 
		0.359375	0.435547 
		0.359375	0.447266 
		0.374023	0.466797 
		0.554688	0.466797 
		0.554688	0.456055 
		0.640625	0.440430 
		0.638672	0.421875 
		0.530273	0.953125 
		0.530273	0.906250 
		0.446289	0.902344 
		0.458008	0.947266 
		0.530273	0.863281 
		0.434570	0.859375 
		0.128906	0.565430 
		0.118164	0.564453 
		0.116211	0.996094 
		0.126953	0.996094 
		0.139648	0.996094 
		0.140625	0.571289 
		0.138672	0.579102 
		0.135742	0.996094 
		0.166016	0.996094 
		0.157227	0.749023 
		0.151367	0.582031 
		0.223633	0.996094 
		0.220703	0.583008 
		0.193359	0.584961 
		0.201172	0.797852 
		0.208984	0.996094 
		0.279297	0.585938 
		0.274414	0.996094 
		0.371094	0.075195 
		0.320313	0.120117 
		0.322266	0.009766 
		0.363281	0.004883 
		0.350586	0.134766 
		0.403320	0.132813 
		0.956055	0.559570 
		0.958008	0.645508 
		0.842773	0.610352 
		0.852539	0.546875 
		0.817383	0.659180 
		0.941406	0.672852 
		0.587891	0.208008 
		0.495117	0.168945 
		0.592773	0.131836 
		0.743164	0.674805 
		0.940430	0.724609 
		0.939453	0.750000 
		0.937500	0.822266 
		0.294922	0.804688 
		0.990234	0.190430 
		0.992188	0.291992 
		0.583984	0.281250 
		0.591797	0.530273 
		0.607422	0.583008 
		0.294922	0.580078 
		0.294922	0.527344 
		0.656250	0.662109 
		0.294922	0.660156 
		0.423828	0.198242 
		0.436523	0.234375 
		0.357422	0.203125 
		0.388672	0.200195 
		0.452148	0.256836 
		0.911133	0.882813 
		0.294922	0.868164 
		0.809570	0.470703 
		0.691406	0.377930 
		0.991211	0.358398 
		0.987305	0.460938 
		0.833984	0.983398 
		0.294922	0.966797 
		0.799805	0.990234 
		0.294922	0.987305 
		0.973633	0.562500 
		0.977539	0.646484 
		0.958984	0.673828 
		0.958984	0.717773 
		0.957031	0.823242 
		0.924805	0.883789 
		0.838867	0.995117 
		0.800781	0.995117 
		0.294922	0.992188 
		0.984375	0.496094 
		0.802734	0.480469 
		0.985352	0.494141 
		0.678711	0.389648 
		0.557617	0.301758 
		0.437500	0.273438 
		0.347656	0.238281 
		0.330078	0.205078 
		0.323242	0.133789 
		0.291016	0.120117 
		0.299805	0.009766 
		0.444336	0.894531 
		0.530273	0.894531 
		0.530273	0.955078 
		0.459961	0.951172 
		0.955078	0.985352 
		0.949219	0.969727 
		0.990234	0.982422 
		0.990234	0.986328 
		0.991211	0.957031 
		0.953125	0.949219 
		0.705078	0.669922 
		0.113281	0.371094 
		0.438477	0.864258 
		0.990234	0.140625 
		0.294922	0.694336 
		0.988281	0.002930 
		0.989258	0.073242 
		0.625977	0.070313 
		0.639648	-0.001953 
		0.175781	0.386719 
		0.175781	0.495117 
		0.175781	0.054688 
		0.958008	0.772461 
		0.044922	0.025391 
		0.044922	0.238281 
		0.072266	0.229492 
		0.049805	0.004883 
		0.072266	-0.008789 
		0.135742	-0.019531 
		0.204102	0.229492 
		0.204102	-0.021484 
		0.226563	-0.018555 
		0.236328	0.229492 
		0.236328	0.000000 
		0.708008	-0.018555 
		0.700195	0.000000 
		0.700195	0.229492 
		0.735352	0.229492 
		0.740234	-0.021484 
		0.855469	0.229492 
		0.855469	-0.021484 
		0.800781	-0.021484 
		0.874023	-0.018555 
		0.881836	0.229492 
		0.881836	-0.001953 
		0.478516	0.000000 
		0.971680	0.039063 
		0.958984	-0.001953 
		0.986328	0.478516 
		0.015625	0.033203 
		-0.013672	0.478516 
		0.468750	0.478516 
		0.000000	0.058594 
		0.044922	0.930664 
		0.049805	0.951172 
		0.072266	0.726563 
		0.044922	0.717773 
		0.072266	0.964844 
		0.135742	0.975586 
		0.204102	0.978516 
		0.204102	0.726563 
		0.226563	0.975586 
		0.236328	0.956055 
		0.236328	0.726563 
		0.708008	0.975586 
		0.700195	0.726563 
		0.700195	0.956055 
		0.740234	0.978516 
		0.735352	0.726563 
		0.855469	0.726563 
		0.800781	0.978516 
		0.855469	0.978516 
		0.874023	0.975586 
		0.881836	0.958008 
		0.881836	0.726563 
		0.478516	0.956055 
		0.971680	0.916992 
		0.958984	0.958008 
		0.015625	0.922852 
		0.000000	0.897461 
	}

	Tex1 0 
	Adj 355 { 
		P 0 
		N 0 
		C0 0 
		T0 0 
		P 1 
		N 1 
		C0 1 
		T0 1 
		P 2 
		N 2 
		C0 2 
		T0 2 
		P 3 
		N 3 
		C0 3 
		T0 3 
		P 4 
		N 4 
		C0 4 
		T0 4 
		P 5 
		N 5 
		C0 5 
		T0 5 
		P 6 
		N 6 
		C0 6 
		T0 6 
		P 7 
		N 7 
		C0 7 
		T0 7 
		P 8 
		N 8 
		C0 8 
		T0 8 
		P 9 
		N 9 
		C0 9 
		T0 9 
		P 10 
		N 10 
		C0 10 
		T0 10 
		P 11 
		N 11 
		C0 11 
		T0 11 
		P 12 
		N 12 
		C0 12 
		T0 12 
		P 13 
		N 13 
		C0 13 
		T0 13 
		P 14 
		N 14 
		C0 14 
		T0 14 
		P 15 
		N 15 
		C0 15 
		T0 15 
		P 16 
		N 16 
		C0 16 
		T0 16 
		P 17 
		N 17 
		C0 17 
		T0 17 
		P 18 
		N 18 
		C0 18 
		T0 18 
		P 17 
		N 17 
		C0 19 
		T0 19 
		P 19 
		N 19 
		C0 20 
		T0 20 
		P 20 
		N 20 
		C0 21 
		T0 21 
		P 18 
		N 18 
		C0 22 
		T0 22 
		P 21 
		N 21 
		C0 23 
		T0 23 
		P 22 
		N 22 
		C0 24 
		T0 24 
		P 23 
		N 23 
		C0 25 
		T0 25 
		P 22 
		N 22 
		C0 26 
		T0 26 
		P 21 
		N 21 
		C0 27 
		T0 27 
		P 24 
		N 24 
		C0 28 
		T0 28 
		P 25 
		N 25 
		C0 29 
		T0 29 
		P 26 
		N 26 
		C0 30 
		T0 30 
		P 26 
		N 26 
		C0 31 
		T0 31 
		P 25 
		N 25 
		C0 32 
		T0 32 
		P 27 
		N 27 
		C0 33 
		T0 33 
		P 28 
		N 28 
		C0 34 
		T0 34 
		P 29 
		N 29 
		C0 35 
		T0 35 
		P 30 
		N 30 
		C0 36 
		T0 36 
		P 31 
		N 31 
		C0 37 
		T0 37 
		P 32 
		N 32 
		C0 38 
		T0 38 
		P 33 
		N 33 
		C0 39 
		T0 39 
		P 34 
		N 34 
		C0 40 
		T0 40 
		P 35 
		N 35 
		C0 41 
		T0 41 
		P 36 
		N 36 
		C0 42 
		T0 42 
		P 37 
		N 37 
		C0 43 
		T0 43 
		P 38 
		N 38 
		C0 44 
		T0 44 
		P 39 
		N 39 
		C0 45 
		T0 45 
		P 40 
		N 40 
		C0 46 
		T0 46 
		P 41 
		N 41 
		C0 47 
		T0 47 
		P 42 
		N 42 
		C0 48 
		T0 48 
		P 43 
		N 43 
		C0 49 
		T0 49 
		P 44 
		N 44 
		C0 50 
		T0 50 
		P 45 
		N 45 
		C0 51 
		T0 51 
		P 46 
		N 46 
		C0 52 
		T0 52 
		P 47 
		N 47 
		C0 53 
		T0 53 
		P 48 
		N 48 
		C0 54 
		T0 54 
		P 49 
		N 49 
		C0 55 
		T0 55 
		P 50 
		N 50 
		C0 56 
		T0 56 
		P 51 
		N 51 
		C0 57 
		T0 57 
		P 52 
		N 49 
		C0 58 
		T0 58 
		P 47 
		N 52 
		C0 59 
		T0 53 
		P 48 
		N 53 
		C0 60 
		T0 54 
		P 53 
		N 54 
		C0 61 
		T0 59 
		P 54 
		N 54 
		C0 62 
		T0 60 
		P 55 
		N 55 
		C0 63 
		T0 61 
		P 56 
		N 56 
		C0 64 
		T0 62 
		P 57 
		N 49 
		C0 65 
		T0 63 
		P 56 
		N 56 
		C0 66 
		T0 64 
		P 58 
		N 57 
		C0 67 
		T0 65 
		P 59 
		N 58 
		C0 68 
		T0 66 
		P 60 
		N 59 
		C0 69 
		T0 67 
		P 61 
		N 59 
		C0 70 
		T0 68 
		P 62 
		N 58 
		C0 71 
		T0 69 
		P 63 
		N 60 
		C0 72 
		T0 70 
		P 64 
		N 60 
		C0 73 
		T0 71 
		P 65 
		N 61 
		C0 74 
		T0 72 
		P 66 
		N 62 
		C0 75 
		T0 73 
		P 67 
		N 63 
		C0 76 
		T0 74 
		P 68 
		N 64 
		C0 77 
		T0 75 
		P 42 
		N 65 
		C0 78 
		T0 48 
		P 69 
		N 66 
		C0 79 
		T0 76 
		P 56 
		N 67 
		C0 80 
		T0 62 
		P 70 
		N 68 
		C0 81 
		T0 77 
		P 71 
		N 69 
		C0 82 
		T0 78 
		P 72 
		N 70 
		C0 83 
		T0 79 
		P 73 
		N 71 
		C0 84 
		T0 80 
		P 71 
		N 69 
		C0 85 
		T0 81 
		P 74 
		N 72 
		C0 86 
		T0 82 
		P 75 
		N 73 
		C0 87 
		T0 83 
		P 74 
		N 72 
		C0 88 
		T0 84 
		P 76 
		N 74 
		C0 89 
		T0 85 
		P 77 
		N 75 
		C0 90 
		T0 86 
		P 3 
		N 3 
		C0 91 
		T0 87 
		P 2 
		N 2 
		C0 92 
		T0 88 
		P 4 
		N 4 
		C0 93 
		T0 89 
		P 4 
		N 76 
		C0 94 
		T0 89 
		P 78 
		N 76 
		C0 95 
		T0 90 
		P 10 
		N 10 
		C0 96 
		T0 91 
		P 79 
		N 77 
		C0 97 
		T0 92 
		P 12 
		N 12 
		C0 98 
		T0 93 
		P 11 
		N 11 
		C0 99 
		T0 94 
		P 16 
		N 16 
		C0 100 
		T0 95 
		P 16 
		N 16 
		C0 101 
		T0 96 
		P 18 
		N 18 
		C0 102 
		T0 97 
		P 77 
		N 75 
		C0 103 
		T0 98 
		P 20 
		N 20 
		C0 104 
		T0 99 
		P 22 
		N 22 
		C0 105 
		T0 100 
		P 23 
		N 23 
		C0 106 
		T0 101 
		P 26 
		N 26 
		C0 107 
		T0 102 
		P 29 
		N 29 
		C0 108 
		T0 103 
		P 32 
		N 32 
		C0 109 
		T0 104 
		P 31 
		N 31 
		C0 110 
		T0 105 
		P 35 
		N 35 
		C0 111 
		T0 106 
		P 79 
		N 77 
		C0 112 
		T0 107 
		P 80 
		N 78 
		C0 113 
		T0 108 
		P 13 
		N 13 
		C0 114 
		T0 109 
		P 12 
		N 12 
		C0 115 
		T0 110 
		P 81 
		N 79 
		C0 116 
		T0 111 
		P 82 
		N 80 
		C0 117 
		T0 112 
		P 83 
		N 81 
		C0 118 
		T0 112 
		P 84 
		N 82 
		C0 119 
		T0 113 
		P 85 
		N 83 
		C0 120 
		T0 114 
		P 86 
		N 84 
		C0 121 
		T0 115 
		P 87 
		N 85 
		C0 122 
		T0 115 
		P 88 
		N 86 
		C0 123 
		T0 116 
		P 89 
		N 87 
		C0 124 
		T0 116 
		P 85 
		N 83 
		C0 125 
		T0 117 
		P 87 
		N 85 
		C0 126 
		T0 117 
		P 89 
		N 87 
		C0 127 
		T0 117 
		P 81 
		N 79 
		C0 128 
		T0 117 
		P 82 
		N 80 
		C0 129 
		T0 118 
		P 81 
		N 79 
		C0 130 
		T0 118 
		P 89 
		N 87 
		C0 131 
		T0 118 
		P 56 
		N 67 
		C0 132 
		T0 64 
		P 10 
		N 10 
		C0 133 
		T0 119 
		P 9 
		N 88 
		C0 134 
		T0 23 
		P 64 
		N 60 
		C0 135 
		T0 120 
		P 56 
		N 56 
		C0 136 
		T0 62 
		P 57 
		N 89 
		C0 137 
		T0 121 
		P 62 
		N 58 
		C0 138 
		T0 122 
		P 61 
		N 59 
		C0 139 
		T0 123 
		P 90 
		N 59 
		C0 140 
		T0 124 
		P 91 
		N 58 
		C0 141 
		T0 125 
		P 92 
		N 90 
		C0 142 
		T0 126 
		P 93 
		N 8 
		C0 143 
		T0 127 
		P 4 
		N 76 
		C0 144 
		T0 4 
		P 5 
		N 91 
		C0 145 
		T0 5 
		P 78 
		N 76 
		C0 146 
		T0 128 
		P 6 
		N 6 
		C0 147 
		T0 129 
		P 33 
		N 92 
		C0 148 
		T0 39 
		P 34 
		N 93 
		C0 149 
		T0 40 
		P 68 
		N 94 
		C0 150 
		T0 75 
		P 41 
		N 94 
		C0 151 
		T0 47 
		P 94 
		N 95 
		C0 152 
		T0 3 
		P 95 
		N 96 
		C0 153 
		T0 2 
		P 96 
		N 97 
		C0 154 
		T0 4 
		P 97 
		N 98 
		C0 155 
		T0 6 
		P 98 
		N 99 
		C0 156 
		T0 10 
		P 99 
		N 100 
		C0 157 
		T0 7 
		P 100 
		N 101 
		C0 158 
		T0 11 
		P 101 
		N 102 
		C0 159 
		T0 12 
		P 102 
		N 103 
		C0 160 
		T0 16 
		P 103 
		N 104 
		C0 161 
		T0 18 
		P 103 
		N 104 
		C0 162 
		T0 22 
		P 104 
		N 105 
		C0 163 
		T0 21 
		P 105 
		N 106 
		C0 164 
		T0 24 
		P 106 
		N 107 
		C0 165 
		T0 25 
		P 105 
		N 106 
		C0 166 
		T0 26 
		P 107 
		N 108 
		C0 167 
		T0 30 
		P 107 
		N 108 
		C0 168 
		T0 31 
		P 108 
		N 109 
		C0 169 
		T0 35 
		P 109 
		N 110 
		C0 170 
		T0 34 
		P 110 
		N 111 
		C0 171 
		T0 39 
		P 111 
		N 112 
		C0 172 
		T0 38 
		P 112 
		N 113 
		C0 173 
		T0 37 
		P 113 
		N 114 
		C0 174 
		T0 41 
		P 114 
		N 115 
		C0 175 
		T0 43 
		P 115 
		N 116 
		C0 176 
		T0 46 
		P 116 
		N 117 
		C0 177 
		T0 45 
		P 117 
		N 118 
		C0 178 
		T0 44 
		P 118 
		N 119 
		C0 179 
		T0 47 
		P 119 
		N 120 
		C0 180 
		T0 48 
		P 120 
		N 121 
		C0 181 
		T0 49 
		P 121 
		N 122 
		C0 182 
		T0 52 
		P 122 
		N 123 
		C0 183 
		T0 51 
		P 123 
		N 124 
		C0 184 
		T0 50 
		P 124 
		N 125 
		C0 185 
		T0 53 
		P 125 
		N 126 
		C0 186 
		T0 54 
		P 126 
		N 127 
		C0 187 
		T0 55 
		P 127 
		N 128 
		C0 188 
		T0 57 
		P 128 
		N 129 
		C0 189 
		T0 56 
		P 129 
		N 127 
		C0 190 
		T0 58 
		P 130 
		N 130 
		C0 191 
		T0 62 
		P 131 
		N 131 
		C0 192 
		T0 61 
		P 132 
		N 132 
		C0 193 
		T0 60 
		P 133 
		N 132 
		C0 194 
		T0 59 
		P 125 
		N 133 
		C0 195 
		T0 54 
		P 124 
		N 134 
		C0 196 
		T0 53 
		P 134 
		N 135 
		C0 197 
		T0 65 
		P 130 
		N 130 
		C0 198 
		T0 64 
		P 135 
		N 127 
		C0 199 
		T0 63 
		P 136 
		N 136 
		C0 200 
		T0 66 
		P 137 
		N 136 
		C0 201 
		T0 69 
		P 138 
		N 137 
		C0 202 
		T0 68 
		P 139 
		N 137 
		C0 203 
		T0 67 
		P 140 
		N 138 
		C0 204 
		T0 71 
		P 141 
		N 138 
		C0 205 
		T0 70 
		P 142 
		N 139 
		C0 206 
		T0 72 
		P 143 
		N 140 
		C0 207 
		T0 75 
		P 144 
		N 141 
		C0 208 
		T0 74 
		P 145 
		N 142 
		C0 209 
		T0 73 
		P 119 
		N 143 
		C0 210 
		T0 48 
		P 146 
		N 144 
		C0 211 
		T0 76 
		P 130 
		N 145 
		C0 212 
		T0 62 
		P 147 
		N 146 
		C0 213 
		T0 78 
		P 148 
		N 147 
		C0 214 
		T0 77 
		P 149 
		N 148 
		C0 215 
		T0 79 
		P 150 
		N 149 
		C0 216 
		T0 82 
		P 147 
		N 146 
		C0 217 
		T0 81 
		P 151 
		N 150 
		C0 218 
		T0 80 
		P 150 
		N 149 
		C0 219 
		T0 84 
		P 152 
		N 151 
		C0 220 
		T0 83 
		P 153 
		N 152 
		C0 221 
		T0 86 
		P 154 
		N 153 
		C0 222 
		T0 85 
		P 94 
		N 95 
		C0 223 
		T0 87 
		P 95 
		N 96 
		C0 224 
		T0 88 
		P 96 
		N 97 
		C0 225 
		T0 89 
		P 155 
		N 154 
		C0 226 
		T0 90 
		P 96 
		N 154 
		C0 227 
		T0 89 
		P 156 
		N 155 
		C0 228 
		T0 92 
		P 98 
		N 99 
		C0 229 
		T0 91 
		P 101 
		N 102 
		C0 230 
		T0 93 
		P 100 
		N 101 
		C0 231 
		T0 94 
		P 102 
		N 103 
		C0 232 
		T0 95 
		P 102 
		N 103 
		C0 233 
		T0 96 
		P 153 
		N 152 
		C0 234 
		T0 98 
		P 103 
		N 104 
		C0 235 
		T0 97 
		P 104 
		N 105 
		C0 236 
		T0 99 
		P 105 
		N 106 
		C0 237 
		T0 100 
		P 106 
		N 107 
		C0 238 
		T0 101 
		P 107 
		N 108 
		C0 239 
		T0 102 
		P 108 
		N 109 
		C0 240 
		T0 103 
		P 111 
		N 112 
		C0 241 
		T0 104 
		P 112 
		N 113 
		C0 242 
		T0 105 
		P 113 
		N 114 
		C0 243 
		T0 106 
		P 156 
		N 155 
		C0 244 
		T0 107 
		P 101 
		N 102 
		C0 245 
		T0 110 
		P 157 
		N 156 
		C0 246 
		T0 111 
		P 158 
		N 157 
		C0 247 
		T0 112 
		P 159 
		N 158 
		C0 248 
		T0 112 
		P 160 
		N 159 
		C0 249 
		T0 114 
		P 161 
		N 160 
		C0 250 
		T0 113 
		P 162 
		N 161 
		C0 251 
		T0 115 
		P 163 
		N 162 
		C0 252 
		T0 115 
		P 164 
		N 163 
		C0 253 
		T0 116 
		P 165 
		N 164 
		C0 254 
		T0 116 
		P 160 
		N 159 
		C0 255 
		T0 117 
		P 157 
		N 156 
		C0 256 
		T0 117 
		P 165 
		N 164 
		C0 257 
		T0 117 
		P 163 
		N 162 
		C0 258 
		T0 117 
		P 159 
		N 158 
		C0 259 
		T0 118 
		P 165 
		N 164 
		C0 260 
		T0 118 
		P 157 
		N 156 
		C0 261 
		T0 118 
		P 130 
		N 145 
		C0 262 
		T0 64 
		P 98 
		N 99 
		C0 263 
		T0 119 
		P 140 
		N 138 
		C0 264 
		T0 120 
		P 135 
		N 165 
		C0 265 
		T0 121 
		P 137 
		N 136 
		C0 266 
		T0 122 
		P 166 
		N 136 
		C0 267 
		T0 125 
		P 167 
		N 137 
		C0 268 
		T0 124 
		P 138 
		N 137 
		C0 269 
		T0 123 
		P 168 
		N 166 
		C0 270 
		T0 126 
		P 96 
		N 154 
		C0 271 
		T0 4 
		P 155 
		N 154 
		C0 272 
		T0 128 
		P 97 
		N 98 
		C0 273 
		T0 129 
		P 110 
		N 167 
		C0 274 
		T0 39 
		P 118 
		N 168 
		C0 275 
		T0 47 
		P 143 
		N 168 
		C0 276 
		T0 75 
		P 32 
		N 169 
		C0 277 
		T0 38 
		P 33 
		N 170 
		C0 278 
		T0 39 
		P 32 
		N 169 
		C0 279 
		T0 104 
		P 41 
		N 171 
		C0 280 
		T0 47 
		P 68 
		N 172 
		C0 281 
		T0 75 
		P 111 
		N 173 
		C0 282 
		T0 38 
		P 110 
		N 174 
		C0 283 
		T0 39 
		P 118 
		N 175 
		C0 284 
		T0 47 
		P 111 
		N 173 
		C0 285 
		T0 104 
		P 143 
		N 176 
		C0 286 
		T0 75 
		P 40 
		N 177 
		C0 287 
		T0 130 
		P 169 
		N 178 
		C0 288 
		T0 131 
		P 170 
		N 179 
		C0 289 
		T0 132 
		P 37 
		N 180 
		C0 290 
		T0 133 
		P 42 
		N 181 
		C0 291 
		T0 134 
		P 50 
		N 182 
		C0 292 
		T0 135 
		P 171 
		N 183 
		C0 293 
		T0 136 
		P 51 
		N 184 
		C0 294 
		T0 137 
		P 90 
		N 185 
		C0 295 
		T0 138 
		P 172 
		N 186 
		C0 296 
		T0 139 
		P 91 
		N 187 
		C0 297 
		T0 140 
		P 60 
		N 188 
		C0 298 
		T0 141 
		P 59 
		N 189 
		C0 299 
		T0 142 
		P 173 
		N 190 
		C0 300 
		T0 143 
		P 174 
		N 191 
		C0 301 
		T0 144 
		P 63 
		N 192 
		C0 302 
		T0 145 
		P 175 
		N 193 
		C0 303 
		T0 146 
		P 47 
		N 194 
		C0 304 
		T0 147 
		P 52 
		N 195 
		C0 305 
		T0 148 
		P 45 
		N 196 
		C0 306 
		T0 149 
		P 176 
		N 197 
		C0 307 
		T0 150 
		P 46 
		N 198 
		C0 308 
		T0 151 
		P 62 
		N 199 
		C0 309 
		T0 152 
		P 3 
		N 200 
		C0 310 
		T0 153 
		P 43 
		N 200 
		C0 311 
		T0 154 
		P 0 
		N 200 
		C0 312 
		T0 155 
		P 0 
		N 201 
		C0 313 
		T0 155 
		P 39 
		N 202 
		C0 314 
		T0 156 
		P 36 
		N 203 
		C0 315 
		T0 157 
		P 177 
		N 199 
		C0 316 
		T0 158 
		P 35 
		N 204 
		C0 317 
		T0 159 
		P 115 
		N 205 
		C0 318 
		T0 160 
		P 114 
		N 206 
		C0 319 
		T0 161 
		P 178 
		N 207 
		C0 320 
		T0 162 
		P 179 
		N 208 
		C0 321 
		T0 163 
		P 119 
		N 181 
		C0 322 
		T0 164 
		P 128 
		N 209 
		C0 323 
		T0 165 
		P 127 
		N 210 
		C0 324 
		T0 166 
		P 180 
		N 211 
		C0 325 
		T0 167 
		P 167 
		N 212 
		C0 326 
		T0 168 
		P 166 
		N 213 
		C0 327 
		T0 169 
		P 181 
		N 214 
		C0 328 
		T0 170 
		P 139 
		N 215 
		C0 329 
		T0 171 
		P 182 
		N 216 
		C0 330 
		T0 172 
		P 136 
		N 189 
		C0 331 
		T0 173 
		P 141 
		N 217 
		C0 332 
		T0 174 
		P 183 
		N 218 
		C0 333 
		T0 175 
		P 184 
		N 219 
		C0 334 
		T0 176 
		P 129 
		N 220 
		C0 335 
		T0 177 
		P 124 
		N 194 
		C0 336 
		T0 178 
		P 122 
		N 221 
		C0 337 
		T0 179 
		P 121 
		N 222 
		C0 338 
		T0 180 
		P 185 
		N 223 
		C0 339 
		T0 181 
		P 137 
		N 199 
		C0 340 
		T0 182 
		P 94 
		N 200 
		C0 341 
		T0 183 
		P 120 
		N 200 
		C0 342 
		T0 184 
		P 116 
		N 202 
		C0 343 
		T0 185 
		P 113 
		N 204 
		C0 344 
		T0 186 
		P 78 
		N 224 
		C0 345 
		T0 128 
		P 6 
		N 224 
		C0 346 
		T0 6 
		P 78 
		N 224 
		C0 347 
		T0 90 
		P 6 
		N 224 
		C0 348 
		T0 129 
		P 155 
		N 225 
		C0 349 
		T0 128 
		P 97 
		N 225 
		C0 350 
		T0 6 
		P 99 
		N 226 
		C0 351 
		T0 7 
		P 168 
		N 226 
		C0 352 
		T0 126 
		P 97 
		N 225 
		C0 353 
		T0 129 
		P 155 
		N 225 
		C0 354 
		T0 90 
	}

	Mtl 4 { 
		{
			Name "#2" 
			Priority 32 
			Prim 46 { 
				{
					Type TRISTRIP
					Priority 32 
					Idx 9 { 71 68 70 69 73 72 137 58 136 }
				}
				{
					Type TRISTRIP2
					Priority 32 
					Idx 6 { 59 58 60 61 94 95 }
				}
				{
					Type TRISTRIP2
					Priority 32 
					Idx 5 { 64 63 58 62 61 }
				}
				{
					Type TRISTRIP
					Priority 32 
					Idx 20 { 62 147 63 96 63 97 81 98 87 99 89 100 89 90 87 88 81 82 63 80 }
				}
				{
					Type TRISTRIP
					Priority 32 
					Idx 9 { 156 9 155 8 157 143 270 271 272 }
				}
				{
					Type TRISTRIP2
					Priority 32 
					Idx 8 { 10 9 6 8 7 8 142 143 }
				}
				{
					Type TRISTRIP2
					Priority 32 
					Idx 6 { 146 142 144 143 145 271 }
				}
				{
					Type TRISTRIP2
					Priority 32 
					Idx 12 { 232 221 231 222 230 220 214 219 214 213 192 212 }
				}
				{
					Type TRISTRIP2
					Priority 32 
					Idx 4 { 219 220 221 222 }
				}
				{
					Type TRISTRIP2
					Priority 32 
					Idx 11 { 159 13 158 14 160 15 161 15 17 16 18 }
				}
				{
					Type TRISTRIP
					Priority 32 
					Idx 6 { 196 190 195 194 227 226 }
				}
				{
					Type TRISTRIP
					Priority 32 
					Idx 11 { 66 67 65 55 135 57 135 140 139 141 138 }
				}
				{
					Type TRISTRIP2
					Priority 32 
					Idx 14 { 194 193 190 192 190 191 190 265 205 204 203 202 200 201 }
				}
				{
					Type TRISTRIP2
					Priority 32 
					Idx 8 { 230 214 228 192 229 192 273 193 }
				}
				{
					Type TRISTRIP2
					Priority 32 
					Idx 5 { 198 197 199 187 264 }
				}
				{
					Type TRISTRIP
					Priority 32 
					Idx 7 { 275 276 210 206 209 207 208 }
				}
				{
					Type TRISTRIP2
					Priority 32 
					Idx 18 { 267 266 268 269 268 264 188 187 189 197 211 237 211 238 209 239 208 240 }
				}
				{
					Type TRISTRIP2
					Priority 32 
					Idx 9 { 263 134 244 113 245 113 114 112 115 }
				}
				{
					Type TRISTRIP
					Priority 32 
					Idx 4 { 112 133 113 134 }
				}
				{
					Type TRISTRIP
					Priority 32 
					Idx 4 { 127 128 126 125 }
				}
				{
					Type TRISTRIP
					Priority 32 
					Idx 9 { 243 242 177 178 176 178 175 179 180 }
				}
				{
					Type TRISTRIP2
					Priority 32 
					Idx 4 { 242 178 241 179 }
				}
				{
					Type TRISTRIP2
					Priority 32 
					Idx 9 { 169 168 170 33 274 33 149 34 148 }
				}
				{
					Type TRISTRIP
					Priority 32 
					Idx 9 { 166 165 27 28 26 28 25 29 30 }
				}
				{
					Type TRISTRIP2
					Priority 32 
					Idx 6 { 35 34 31 33 32 168 }
				}
				{
					Type TRISTRIP2
					Priority 32 
					Idx 4 { 29 167 28 165 }
				}
				{
					Type TRISTRIP2
					Priority 32 
					Idx 9 { 162 19 163 20 164 20 23 21 24 }
				}
				{
					Type TRISTRIP
					Priority 32 
					Idx 4 { 21 22 20 19 }
				}
				{
					Type TRISTRIP
					Priority 32 
					Idx 11 { 248 246 247 250 251 252 251 254 251 253 247 }
				}
				{
					Type TRISTRIP2
					Priority 32 
					Idx 4 { 246 250 249 252 }
				}
				{
					Type TRISTRIP2
					Priority 32 
					Idx 4 { 257 256 258 255 }
				}
				{
					Type TRISTRIP2
					Priority 32 
					Idx 6 { 13 12 14 11 15 16 }
				}
				{
					Type TRISTRIP2
					Priority 32 
					Idx 4 { 209 210 211 189 }
				}
				{
					Type TRISTRIP2
					Priority 32 
					Idx 14 { 101 103 102 83 104 84 67 84 132 84 85 83 86 103 }
				}
				{
					Type TRISTRIP2
					Priority 32 
					Idx 9 { 57 56 55 79 67 106 67 105 104 }
				}
				{
					Type TRISTRIP
					Priority 32 
					Idx 16 { 56 79 78 75 74 75 77 75 76 75 108 75 107 75 106 79 }
				}
				{
					Type TRISTRIP
					Priority 32 
					Idx 13 { 48 47 43 44 46 44 45 44 111 44 110 47 109 }
				}
				{
					Type TRISTRIP2
					Priority 32 
					Idx 16 { 237 197 236 218 235 215 233 215 234 215 216 215 217 218 262 197 }
				}
				{
					Type TRISTRIP2
					Priority 32 
					Idx 13 { 3 2 0 1 152 1 153 1 154 1 5 2 4 }
				}
				{
					Type TRISTRIP
					Priority 32 
					Idx 14 { 185 186 183 184 182 184 181 184 223 184 224 184 225 186 }
				}
				{
					Type TRISTRIP
					Priority 32 
					Idx 14 { 53 51 54 50 93 50 92 50 91 50 49 50 52 51 }
				}
				{
					Type TRISTRIP
					Priority 32 
					Idx 14 { 117 118 116 119 120 119 122 121 124 121 123 121 118 119 }
				}
				{
					Type TRISTRIP
					Priority 32 
					Idx 4 { 151 78 150 74 }
				}
				{
					Type TRISTRIP
					Priority 32 
					Idx 18 { 41 37 42 36 174 36 173 36 172 36 171 36 40 36 39 36 38 37 }
				}
				{
					Type TRISTRIP
					Priority 32 
					Idx 3 { 131 129 130 }
				}
				{
					Type TRISTRIP2
					Priority 32 
					Idx 3 { 259 261 260 }
				}
			}

		}
		{
			Name "#3" 
			Priority 32 
			Prim 4 { 
				{
					Type TRISTRIP
					Priority 32 
					Idx 4 { 277 35 278 34 }
				}
				{
					Type TRISTRIP
					Priority 32 
					Idx 5 { 281 76 280 108 279 }
				}
				{
					Type TRISTRIP2
					Priority 32 
					Idx 4 { 283 282 170 169 }
				}
				{
					Type TRISTRIP2
					Priority 32 
					Idx 5 { 286 208 284 240 285 }
				}
			}

		}
		{
			Name "#4" 
			Priority 32 
			Prim 8 { 
				{
					Type TRISTRIP
					Priority 32 
					Idx 26 { 344 343 315 321 316 328 330 327 330 340 330 331 330 329 333 332 334 335 334 336 334 337 339 338 313 342 }
				}
				{
					Type TRISTRIP
					Priority 32 
					Idx 27 { 334 339 333 339 330 313 316 300 296 309 296 297 293 295 293 294 293 292 289 291 289 290 288 287 315 314 317 }
				}
				{
					Type TRISTRIP2
					Priority 32 
					Idx 7 { 316 315 296 288 296 289 293 }
				}
				{
					Type TRISTRIP
					Priority 32 
					Idx 24 { 309 300 299 300 298 300 302 301 305 303 304 303 306 307 308 307 311 307 313 307 300 307 301 303 }
				}
				{
					Type TRISTRIP
					Priority 32 
					Idx 16 { 343 318 321 320 328 325 326 325 324 325 323 320 322 320 319 318 }
				}
				{
					Type TRISTRIP
					Priority 32 
					Idx 3 { 312 310 311 }
				}
				{
					Type TRISTRIP2
					Priority 32 
					Idx 3 { 326 328 327 }
				}
				{
					Type TRISTRIP
					Priority 32 
					Idx 3 { 342 341 312 }
				}
			}

		}
		{
			Name "#5" 
			Priority 32 
			Prim 4 { 
				{
					Type TRISTRIP
					Priority 32 
					Idx 4 { 345 142 346 7 }
				}
				{
					Type TRISTRIP
					Priority 32 
					Idx 4 { 61 347 62 348 }
				}
				{
					Type TRISTRIP
					Priority 32 
					Idx 4 { 352 349 351 350 }
				}
				{
					Type TRISTRIP
					Priority 32 
					Idx 4 { 194 193 354 353 }
				}
			}

		}
	}

	Offset 0 
}
