{
	Skinned 0 
	PosSkin 0 
	Pos 24 { 
		-0.141810	0.451050	0.451157 
		-0.141810	0.451050	-0.451157 
		-0.141810	-0.451271	-0.451157 
		-0.141810	-0.451271	0.451157 
		0.141810	0.451049	-0.451157 
		0.141810	0.451050	0.451157 
		0.141810	-0.451271	0.451157 
		0.141810	-0.451271	-0.451157 
		0.141549	0.000666	-0.450346 
		-0.140531	-0.317960	-0.318363 
		-0.140531	0.000666	-0.450346 
		0.141549	-0.317960	-0.318363 
		-0.140531	-0.449939	0.000263 
		0.141549	-0.449939	0.000263 
		-0.140531	-0.317960	0.318888 
		0.141548	-0.317960	0.318888 
		-0.140531	0.000666	0.450871 
		0.141548	0.000666	0.450871 
		-0.140531	0.319292	0.318888 
		0.141548	0.319292	0.318888 
		-0.140531	0.451271	0.000263 
		0.141548	0.451271	0.000263 
		-0.140531	0.319292	-0.318363 
		0.141549	0.319292	-0.318363 
	}

	Nrm 18 { 
		-1.000000	0.000000	0.000000 
		1.000000	0.000000	0.000000 
		0.000000	0.984375	-0.140625 
		0.000000	0.796875	-0.609375 
		0.000000	0.984375	0.140625 
		0.000000	0.609375	-0.796875 
		0.000000	0.140625	-0.984375 
		0.000000	-0.140625	-0.984375 
		0.000000	-0.609375	-0.796875 
		0.000000	-0.796875	-0.609375 
		0.000000	-0.984375	-0.140625 
		0.000000	-0.984375	0.140625 
		0.000000	-0.796875	0.609375 
		0.000000	-0.609375	0.796875 
		0.000000	-0.140625	0.984375 
		0.000000	0.140625	0.984375 
		0.000000	0.609375	0.796875 
		0.000000	0.796875	0.609375 
	}

	Cpv 24 { 
		1.000000	1.000000	1.000000	1.000000 
		1.000000	1.000000	1.000000	1.000000 
		1.000000	1.000000	1.000000	1.000000 
		1.000000	1.000000	1.000000	1.000000 
		1.000000	1.000000	1.000000	1.000000 
		1.000000	1.000000	1.000000	1.000000 
		1.000000	1.000000	1.000000	1.000000 
		1.000000	1.000000	1.000000	1.000000 
		1.000000	1.000000	1.000000	1.000000 
		1.000000	1.000000	1.000000	1.000000 
		1.000000	1.000000	1.000000	1.000000 
		1.000000	1.000000	1.000000	1.000000 
		1.000000	1.000000	1.000000	1.000000 
		1.000000	1.000000	1.000000	1.000000 
		1.000000	1.000000	1.000000	1.000000 
		1.000000	1.000000	1.000000	1.000000 
		1.000000	1.000000	1.000000	1.000000 
		1.000000	1.000000	1.000000	1.000000 
		1.000000	1.000000	1.000000	1.000000 
		1.000000	1.000000	1.000000	1.000000 
		1.000000	1.000000	1.000000	1.000000 
		1.000000	1.000000	1.000000	1.000000 
		1.000000	1.000000	1.000000	1.000000 
		1.000000	1.000000	1.000000	1.000000 
	}

	Tex0 14 { 
		0.489258	0.975586 
		0.012695	0.975586 
		0.012695	0.024414 
		0.489258	0.024414 
		0.008789	0.982422 
		0.493164	0.982422 
		0.493164	0.017578 
		0.008789	0.017578 
		0.769531	0.999023 
		0.538086	0.000000 
		0.769531	0.000000 
		0.538086	0.999023 
		1.000977	0.000000 
		1.000977	0.999023 
	}

	Tex1 0 
	Adj 24 { 
		P 0 
		N 0 
		C0 0 
		T0 0 
		P 1 
		N 0 
		C0 1 
		T0 1 
		P 2 
		N 0 
		C0 2 
		T0 2 
		P 3 
		N 0 
		C0 3 
		T0 3 
		P 4 
		N 1 
		C0 4 
		T0 4 
		P 5 
		N 1 
		C0 5 
		T0 5 
		P 6 
		N 1 
		C0 6 
		T0 6 
		P 7 
		N 1 
		C0 7 
		T0 7 
		P 8 
		N 2 
		C0 8 
		T0 8 
		P 9 
		N 3 
		C0 9 
		T0 9 
		P 10 
		N 4 
		C0 10 
		T0 10 
		P 11 
		N 5 
		C0 11 
		T0 11 
		P 12 
		N 6 
		C0 12 
		T0 10 
		P 13 
		N 7 
		C0 13 
		T0 8 
		P 14 
		N 8 
		C0 14 
		T0 12 
		P 15 
		N 9 
		C0 15 
		T0 13 
		P 16 
		N 10 
		C0 16 
		T0 10 
		P 17 
		N 11 
		C0 17 
		T0 8 
		P 18 
		N 12 
		C0 18 
		T0 12 
		P 19 
		N 13 
		C0 19 
		T0 13 
		P 20 
		N 14 
		C0 20 
		T0 10 
		P 21 
		N 15 
		C0 21 
		T0 8 
		P 22 
		N 16 
		C0 22 
		T0 9 
		P 23 
		N 17 
		C0 23 
		T0 11 
	}

	Mtl 1 { 
		{
			Name "#1" 
			Priority 32 
			Prim 3 { 
				{
					Type TRISTRIP
					Priority 32 
					Idx 4 { 1 2 0 3 }
				}
				{
					Type TRISTRIP
					Priority 32 
					Idx 4 { 5 6 4 7 }
				}
				{
					Type TRISTRIP
					Priority 32 
					Idx 18 { 10 8 9 11 12 13 14 15 16 17 18 19 20 21 22 23 10 8 }
				}
			}

		}
	}

	Offset 0 
}
