{
	Skinned 0 
	PosSkin 0 
	Pos 16 { 
		-0.239731	2.933836	-2.844060 
		0.087692	2.933836	-2.844060 
		0.087692	2.972945	2.696398 
		-0.239731	2.972945	2.696398 
		-0.239731	3.324879	2.696398 
		0.087692	3.324879	2.696398 
		0.087692	3.304955	-2.844060 
		-0.239731	3.304955	-2.844060 
		-0.165405	3.018996	2.696398 
		0.013367	3.018996	2.696398 
		0.013367	3.018997	3.820110 
		-0.165405	3.018997	3.820110 
		0.013367	3.278828	2.696398 
		0.013367	3.278828	3.820110 
		-0.165405	3.278828	2.696398 
		-0.165405	3.278828	3.820110 
	}

	Nrm 6 { 
		0.000000	-1.000000	0.000000 
		0.000000	1.000000	0.000000 
		0.000000	0.000000	-1.000000 
		1.000000	0.000000	0.000000 
		-1.000000	0.000000	0.000000 
		0.000000	0.000000	1.000000 
	}

	Cpv 44 { 
		0.500000	0.500000	0.500000	0.003922 
		0.500000	0.500000	0.500000	0.003922 
		0.500000	0.500000	0.500000	0.003922 
		0.500000	0.500000	0.500000	0.003922 
		0.500000	0.437303	0.500000	0.003922 
		0.500000	0.500000	0.500000	0.003922 
		0.500000	0.500000	0.539231	0.003922 
		0.500000	0.437303	0.539231	0.003922 
		0.500000	0.437303	0.539231	0.003922 
		0.500000	0.500000	0.539231	0.003922 
		0.500000	0.500000	0.500000	0.003922 
		0.500000	0.500000	0.500000	0.003922 
		0.500000	0.500000	0.500000	0.003922 
		0.500000	0.500000	0.539231	0.003922 
		0.500000	0.500000	0.500000	0.003922 
		0.500000	0.500000	0.500000	0.003922 
		0.500000	0.437303	0.539231	0.003922 
		0.500000	0.500000	0.500000	0.003922 
		0.500000	0.500000	0.500000	0.003922 
		0.500000	0.437303	0.500000	0.003922 
		0.500000	0.500000	0.500000	0.003922 
		0.500000	0.500000	0.500000	0.003922 
		0.500000	0.500000	0.500000	0.003922 
		0.500000	0.500000	0.500000	0.003922 
		0.500000	0.500000	0.500000	0.003922 
		0.500000	0.500000	0.500000	0.003922 
		0.500000	0.500000	0.500000	0.003922 
		0.500000	0.500000	0.500000	0.003922 
		0.500000	0.500000	0.500000	0.003922 
		0.500000	0.500000	0.500000	0.003922 
		0.500000	0.500000	0.500000	0.003922 
		0.500000	0.500000	0.500000	0.003922 
		0.500000	0.500000	0.500000	0.003922 
		0.500000	0.500000	0.500000	0.003922 
		0.500000	0.500000	0.500000	0.003922 
		0.500000	0.500000	0.500000	0.003922 
		0.500000	0.500000	0.500000	0.003922 
		0.500000	0.500000	0.500000	0.003922 
		0.500000	0.500000	0.500000	0.003922 
		0.500000	0.500000	0.500000	0.003922 
		0.500000	0.500000	0.500000	0.003922 
		0.500000	0.500000	0.500000	0.003922 
		0.500000	0.437303	0.500000	0.003922 
		0.500000	0.500000	0.500000	0.003922 
	}

	Tex0 22 { 
		0.205078	0.661133 
		0.217773	0.661133 
		0.217773	0.450195 
		0.205078	0.450195 
		0.217773	0.650391 
		0.205078	0.650391 
		0.224609	0.708984 
		0.204102	0.693359 
		0.203125	0.383789 
		0.222656	0.383789 
		0.037109	0.900391 
		0.061523	0.900391 
		0.061523	0.717773 
		0.037109	0.717773 
		0.222656	0.361328 
		0.222656	0.379883 
		0.219727	0.373047 
		0.219727	0.366211 
		0.203125	0.379883 
		0.206055	0.373047 
		0.203125	0.361328 
		0.206055	0.366211 
	}

	Tex1 0 
	Adj 44 { 
		P 0 
		N 0 
		C0 0 
		T0 0 
		P 1 
		N 0 
		C0 1 
		T0 1 
		P 2 
		N 0 
		C0 2 
		T0 2 
		P 3 
		N 0 
		C0 3 
		T0 3 
		P 4 
		N 1 
		C0 4 
		T0 3 
		P 5 
		N 1 
		C0 5 
		T0 2 
		P 6 
		N 1 
		C0 6 
		T0 4 
		P 7 
		N 1 
		C0 7 
		T0 5 
		P 7 
		N 2 
		C0 8 
		T0 5 
		P 6 
		N 2 
		C0 9 
		T0 4 
		P 1 
		N 2 
		C0 10 
		T0 1 
		P 0 
		N 2 
		C0 11 
		T0 0 
		P 1 
		N 3 
		C0 12 
		T0 6 
		P 6 
		N 3 
		C0 13 
		T0 7 
		P 5 
		N 3 
		C0 14 
		T0 8 
		P 2 
		N 3 
		C0 15 
		T0 9 
		P 7 
		N 4 
		C0 16 
		T0 7 
		P 0 
		N 4 
		C0 17 
		T0 6 
		P 3 
		N 4 
		C0 18 
		T0 9 
		P 4 
		N 4 
		C0 19 
		T0 8 
		P 8 
		N 0 
		C0 20 
		T0 10 
		P 9 
		N 0 
		C0 21 
		T0 11 
		P 10 
		N 0 
		C0 22 
		T0 12 
		P 11 
		N 0 
		C0 23 
		T0 13 
		P 9 
		N 3 
		C0 24 
		T0 11 
		P 12 
		N 3 
		C0 25 
		T0 10 
		P 13 
		N 3 
		C0 26 
		T0 13 
		P 10 
		N 3 
		C0 27 
		T0 12 
		P 12 
		N 1 
		C0 28 
		T0 10 
		P 14 
		N 1 
		C0 29 
		T0 11 
		P 15 
		N 1 
		C0 30 
		T0 12 
		P 13 
		N 1 
		C0 31 
		T0 13 
		P 14 
		N 4 
		C0 32 
		T0 10 
		P 8 
		N 4 
		C0 33 
		T0 11 
		P 11 
		N 4 
		C0 34 
		T0 12 
		P 15 
		N 4 
		C0 35 
		T0 13 
		P 3 
		N 5 
		C0 36 
		T0 14 
		P 2 
		N 5 
		C0 37 
		T0 15 
		P 9 
		N 5 
		C0 38 
		T0 16 
		P 8 
		N 5 
		C0 39 
		T0 17 
		P 5 
		N 5 
		C0 40 
		T0 18 
		P 12 
		N 5 
		C0 41 
		T0 19 
		P 4 
		N 5 
		C0 42 
		T0 20 
		P 14 
		N 5 
		C0 43 
		T0 21 
	}

	Mtl 1 { 
		{
			Name "#2" 
			Priority 32 
			Prim 10 { 
				{
					Type TRISTRIP
					Priority 32 
					Idx 4 { 0 1 3 2 }
				}
				{
					Type TRISTRIP
					Priority 32 
					Idx 4 { 7 4 6 5 }
				}
				{
					Type TRISTRIP
					Priority 32 
					Idx 4 { 11 8 10 9 }
				}
				{
					Type TRISTRIP
					Priority 32 
					Idx 4 { 12 13 15 14 }
				}
				{
					Type TRISTRIP
					Priority 32 
					Idx 4 { 17 18 16 19 }
				}
				{
					Type TRISTRIP
					Priority 32 
					Idx 4 { 20 21 23 22 }
				}
				{
					Type TRISTRIP
					Priority 32 
					Idx 4 { 24 25 27 26 }
				}
				{
					Type TRISTRIP
					Priority 32 
					Idx 4 { 29 30 28 31 }
				}
				{
					Type TRISTRIP
					Priority 32 
					Idx 4 { 33 34 32 35 }
				}
				{
					Type TRISTRIP
					Priority 32 
					Idx 12 { 39 43 42 41 40 41 37 38 37 39 36 42 }
				}
			}

		}
	}

	Offset 0 
}
