{
	Skinned 0 
	PosSkin 0 
	Pos 24 { 
		0.173038	0.550371	0.550504 
		0.173038	-0.550641	0.550504 
		0.173038	-0.550641	-0.550503 
		0.173038	0.550372	-0.550503 
		-0.173038	0.550372	-0.550503 
		-0.173038	-0.550641	-0.550503 
		-0.173038	-0.550642	0.550504 
		-0.173038	0.550371	0.550504 
		0.171478	-0.387976	-0.388471 
		-0.172718	-0.387976	-0.388471 
		-0.172718	0.000812	-0.549504 
		0.171478	0.000812	-0.549504 
		0.171478	-0.549016	0.000323 
		-0.172718	-0.549016	0.000323 
		0.171478	-0.387975	0.389106 
		-0.172718	-0.387975	0.389106 
		0.171478	0.000813	0.550149 
		-0.172718	0.000813	0.550149 
		0.171478	0.389599	0.389106 
		-0.172718	0.389599	0.389106 
		0.171478	0.550642	0.000323 
		-0.172718	0.550642	0.000323 
		0.171478	0.389599	-0.388471 
		-0.172718	0.389599	-0.388471 
	}

	Nrm 18 { 
		1.000000	0.000000	0.000000 
		-1.000000	0.000000	0.000000 
		0.000000	0.796875	-0.609375 
		0.000000	0.609375	-0.796875 
		0.000000	0.984375	-0.140625 
		0.000000	0.984375	0.140625 
		0.000000	0.140625	-0.984375 
		0.000000	-0.140625	-0.984375 
		0.000000	-0.609375	-0.796875 
		0.000000	-0.796875	-0.609375 
		0.000000	-0.984375	-0.140625 
		0.000000	-0.984375	0.140625 
		0.000000	-0.796875	0.609375 
		0.000000	-0.609375	0.796875 
		0.000000	-0.140625	0.984375 
		0.000000	0.140625	0.984375 
		0.000000	0.609375	0.796875 
		0.000000	0.796875	0.609375 
	}

	Cpv 40 { 
		0.500000	0.500000	0.500000	1.000000 
		0.500000	0.500000	0.500000	1.000000 
		0.500000	0.500000	0.500000	1.000000 
		0.500000	0.500000	0.500000	1.000000 
		0.500000	0.500000	0.500000	1.000000 
		0.500000	0.500000	0.500000	1.000000 
		0.500000	0.500000	0.500000	1.000000 
		0.500000	0.500000	0.500000	1.000000 
		0.500000	0.500000	0.500000	1.000000 
		0.500000	0.500000	0.500000	1.000000 
		0.500000	0.500000	0.500000	1.000000 
		0.500000	0.500000	0.500000	1.000000 
		0.500000	0.500000	0.500000	1.000000 
		0.500000	0.500000	0.500000	1.000000 
		0.500000	0.500000	0.500000	1.000000 
		0.500000	0.500000	0.500000	1.000000 
		0.500000	0.500000	0.500000	1.000000 
		0.500000	0.500000	0.500000	1.000000 
		0.500000	0.500000	0.500000	1.000000 
		0.500000	0.500000	0.500000	1.000000 
		0.500000	0.500000	0.500000	1.000000 
		0.500000	0.500000	0.500000	1.000000 
		0.500000	0.500000	0.500000	1.000000 
		0.500000	0.500000	0.500000	1.000000 
		0.500000	0.500000	0.500000	1.000000 
		0.500000	0.500000	0.500000	1.000000 
		0.500000	0.500000	0.500000	1.000000 
		0.500000	0.500000	0.500000	1.000000 
		0.500000	0.500000	0.500000	1.000000 
		0.500000	0.500000	0.500000	1.000000 
		0.500000	0.500000	0.500000	1.000000 
		0.500000	0.500000	0.500000	1.000000 
		0.500000	0.500000	0.500000	1.000000 
		0.500000	0.500000	0.500000	1.000000 
		0.500000	0.500000	0.500000	1.000000 
		0.500000	0.500000	0.500000	1.000000 
		0.500000	0.500000	0.500000	1.000000 
		0.500000	0.500000	0.500000	1.000000 
		0.500000	0.500000	0.500000	1.000000 
		0.500000	0.500000	0.500000	1.000000 
	}

	Tex0 8 { 
		0.488281	0.965820 
		0.488281	0.034180 
		0.017578	0.034180 
		0.017578	0.965820 
		0.528320	0.000000 
		0.528320	1.000000 
		0.991211	1.000000 
		0.991211	0.000000 
	}

	Tex1 0 
	Adj 40 { 
		P 0 
		N 0 
		C0 0 
		T0 0 
		P 1 
		N 0 
		C0 1 
		T0 1 
		P 2 
		N 0 
		C0 2 
		T0 2 
		P 3 
		N 0 
		C0 3 
		T0 3 
		P 4 
		N 1 
		C0 4 
		T0 3 
		P 5 
		N 1 
		C0 5 
		T0 2 
		P 6 
		N 1 
		C0 6 
		T0 1 
		P 7 
		N 1 
		C0 7 
		T0 0 
		P 8 
		N 2 
		C0 8 
		T0 4 
		P 9 
		N 3 
		C0 9 
		T0 5 
		P 10 
		N 4 
		C0 10 
		T0 6 
		P 11 
		N 5 
		C0 11 
		T0 7 
		P 12 
		N 6 
		C0 12 
		T0 4 
		P 13 
		N 7 
		C0 13 
		T0 5 
		P 9 
		N 3 
		C0 14 
		T0 6 
		P 8 
		N 2 
		C0 15 
		T0 7 
		P 14 
		N 8 
		C0 16 
		T0 4 
		P 15 
		N 9 
		C0 17 
		T0 5 
		P 13 
		N 7 
		C0 18 
		T0 6 
		P 12 
		N 6 
		C0 19 
		T0 7 
		P 16 
		N 10 
		C0 20 
		T0 4 
		P 17 
		N 11 
		C0 21 
		T0 5 
		P 15 
		N 9 
		C0 22 
		T0 6 
		P 14 
		N 8 
		C0 23 
		T0 7 
		P 18 
		N 12 
		C0 24 
		T0 4 
		P 19 
		N 13 
		C0 25 
		T0 5 
		P 17 
		N 11 
		C0 26 
		T0 6 
		P 16 
		N 10 
		C0 27 
		T0 7 
		P 20 
		N 14 
		C0 28 
		T0 4 
		P 21 
		N 15 
		C0 29 
		T0 5 
		P 19 
		N 13 
		C0 30 
		T0 6 
		P 18 
		N 12 
		C0 31 
		T0 7 
		P 22 
		N 16 
		C0 32 
		T0 4 
		P 23 
		N 17 
		C0 33 
		T0 5 
		P 21 
		N 15 
		C0 34 
		T0 6 
		P 20 
		N 14 
		C0 35 
		T0 7 
		P 11 
		N 5 
		C0 36 
		T0 4 
		P 10 
		N 4 
		C0 37 
		T0 5 
		P 23 
		N 17 
		C0 38 
		T0 6 
		P 22 
		N 16 
		C0 39 
		T0 7 
	}

	Mtl 1 { 
		{
			Name "#6" 
			Priority 32 
			Prim 10 { 
				{
					Type TRISTRIP
					Priority 32 
					Idx 4 { 2 3 1 0 }
				}
				{
					Type TRISTRIP
					Priority 32 
					Idx 4 { 5 6 4 7 }
				}
				{
					Type TRISTRIP
					Priority 32 
					Idx 4 { 9 10 8 11 }
				}
				{
					Type TRISTRIP
					Priority 32 
					Idx 4 { 14 15 13 12 }
				}
				{
					Type TRISTRIP
					Priority 32 
					Idx 4 { 18 19 17 16 }
				}
				{
					Type TRISTRIP
					Priority 32 
					Idx 4 { 22 23 21 20 }
				}
				{
					Type TRISTRIP
					Priority 32 
					Idx 4 { 26 27 25 24 }
				}
				{
					Type TRISTRIP
					Priority 32 
					Idx 4 { 29 30 28 31 }
				}
				{
					Type TRISTRIP
					Priority 32 
					Idx 4 { 33 34 32 35 }
				}
				{
					Type TRISTRIP
					Priority 32 
					Idx 4 { 37 38 36 39 }
				}
			}

		}
	}

	Offset 0 
}
