{
	Skinned 0 
	PosSkin 0 
	Pos 153 { 
		0.696000	0.374445	-1.641740 
		0.696000	0.450130	1.605840 
		-0.696000	0.450130	1.605840 
		-0.696000	0.374445	-1.641740 
		-1.200000	0.450130	1.605840 
		-1.200000	0.374445	-1.641740 
		-0.695999	0.470772	2.782390 
		-1.200000	0.504285	3.682392 
		-1.200000	0.470771	2.782390 
		0.000001	0.505174	3.779912 
		-1.116240	0.505174	3.743992 
		0.696001	0.470771	2.782390 
		-0.000000	0.499257	-2.903220 
		0.695999	0.498042	-2.704810 
		-0.696001	0.498042	-2.704810 
		-0.972135	0.499257	-2.814250 
		-1.057780	0.499257	-2.744140 
		-1.076740	0.498042	-2.704810 
		-1.076180	0.667653	-2.685660 
		-0.696001	0.849196	-2.611880 
		-1.102150	0.849196	-2.611880 
		-1.154070	0.996919	-2.403430 
		-0.696000	0.946932	-1.861640 
		-1.192090	1.025520	-2.093020 
		-1.200000	0.946932	-1.861640 
		-1.200000	0.780392	-1.744940 
		-0.696000	0.851414	1.776190 
		-1.200000	0.851414	1.776190 
		-1.200000	1.018930	2.122150 
		-0.695999	0.938642	2.493420 
		-1.200000	0.938642	2.493420 
		-1.200000	0.723316	2.695110 
		1.200314	0.450130	1.605840 
		1.200314	0.374445	-1.641740 
		1.200314	0.470772	2.782390 
		1.200314	0.504285	3.682387 
		1.116250	0.505174	3.743992 
		0.972134	0.499257	-2.814250 
		1.058094	0.499257	-2.744140 
		1.077049	0.498042	-2.704810 
		1.076494	0.667653	-2.685660 
		1.102463	0.849196	-2.611880 
		0.695999	0.849196	-2.611880 
		1.154384	0.996919	-2.403430 
		0.696000	0.946932	-1.861640 
		1.192404	1.025520	-2.093020 
		1.200314	0.946932	-1.861640 
		1.200314	0.780392	-1.744940 
		0.696000	0.851414	1.776190 
		1.200314	0.851414	1.776190 
		1.200314	1.018930	2.122150 
		0.696001	0.938642	2.493420 
		1.200314	0.938642	2.493420 
		1.200314	0.723316	2.695110 
		-1.116240	1.528930	3.743992 
		0.000001	2.954610	3.779912 
		-1.116240	2.954610	3.743992 
		0.000000	3.030300	1.605840 
		-1.116240	3.030300	1.605840 
		0.000000	3.000010	-1.415062 
		-1.116250	2.982140	-1.415062 
		-0.000000	2.842380	-1.630070 
		-1.116250	2.831370	-1.607290 
		-0.000000	2.555070	-1.822250 
		-1.116250	2.546440	-1.794750 
		-0.000000	1.978130	-1.998070 
		-1.116250	1.970710	-1.972000 
		-0.000000	1.584530	-2.049170 
		-1.111810	1.564760	-2.020350 
		-0.000000	1.519690	-2.557250 
		-1.062720	1.506280	-2.507710 
		-0.000000	1.282660	-2.857940 
		-0.983335	1.282660	-2.775890 
		-0.000001	0.859087	-2.909120 
		-0.970648	0.859087	-2.819240 
		-1.197250	1.522920	-1.952190 
		-1.224000	1.528930	1.605840 
		-1.200000	1.962400	-1.899140 
		-1.200000	2.524720	-1.724810 
		-1.200000	2.960990	1.605840 
		-1.200000	2.912930	-1.409452 
		-1.200000	2.775240	-1.557320 
		-1.200000	2.886400	3.682392 
		-1.200000	1.528930	3.682392 
		-1.056250	0.857268	-2.749040 
		-1.068760	1.262520	-2.708090 
		-1.146140	1.453100	-2.469920 
		1.116250	1.528930	3.743992 
		1.116559	2.954610	3.743992 
		1.116559	3.030300	1.605840 
		1.116559	2.982140	-1.415062 
		1.116559	2.831370	-1.607295 
		1.116240	2.546440	-1.794750 
		1.116240	1.970710	-1.972000 
		1.111810	1.564760	-2.020350 
		1.062720	1.506280	-2.507710 
		0.983334	1.282660	-2.775890 
		0.970647	0.859087	-2.819240 
		1.200314	2.886400	3.682387 
		1.200314	1.528930	3.682386 
		1.200314	2.775240	-1.557320 
		1.200314	2.524720	-1.724815 
		1.200314	1.962400	-1.899140 
		1.197558	1.522920	-1.952190 
		1.146454	1.453100	-2.469920 
		1.069074	1.262520	-2.708090 
		1.056563	0.857268	-2.749040 
		1.224627	1.528930	1.605840 
		1.209924	1.791075	-0.513826 
		1.200438	2.359797	-0.504305 
		1.200625	2.960990	1.605840 
		1.200314	0.971276	-0.514623 
		1.209731	1.172358	-0.518579 
		1.200626	2.912930	-1.409452 
		1.208457	1.525340	-0.519655 
		1.200428	2.685217	-0.499518 
		1.200418	2.837684	-0.493950 
		-0.884259	0.813477	3.759187 
		-0.928276	0.831710	3.759187 
		-0.928276	0.769460	3.759187 
		-0.972293	0.813477	3.759187 
		-0.990525	0.769460	3.759187 
		-0.972293	0.725444	3.759187 
		-0.928276	0.707211	3.759187 
		-0.884259	0.725444	3.759187 
		-0.866027	0.769460	3.759187 
		0.897982	0.814696	3.759187 
		0.941999	0.770680	3.759187 
		0.941999	0.832929	3.759187 
		0.986016	0.814696	3.759187 
		1.004248	0.770680	3.759187 
		0.986016	0.726663	3.759187 
		0.941999	0.708431	3.759187 
		0.897982	0.726663	3.759187 
		0.879750	0.770680	3.759187 
		0.865858	1.247366	-2.820924 
		0.947018	1.213749	-2.820924 
		0.865858	1.132589	-2.820924 
		0.784698	1.213749	-2.820924 
		0.751080	1.132589	-2.820924 
		0.784698	1.051430	-2.820924 
		0.865858	1.017812	-2.820924 
		0.947018	1.051430	-2.820924 
		0.980635	1.132589	-2.820924 
		-0.865858	1.247366	-2.820924 
		-0.865858	1.132589	-2.820924 
		-0.947018	1.213749	-2.820924 
		-0.784698	1.213749	-2.820924 
		-0.751080	1.132589	-2.820924 
		-0.784698	1.051430	-2.820924 
		-0.865858	1.017812	-2.820924 
		-0.947018	1.051430	-2.820924 
		-0.980635	1.132589	-2.820924 
	}

	Nrm 125 { 
		0.296875	-0.937500	-0.156250 
		0.421875	-0.812500	0.406250 
		-0.312500	-0.906250	0.296875 
		-0.406250	-0.890625	-0.203125 
		0.000000	-0.921875	0.375000 
		-0.062500	-0.656250	-0.765625 
		-0.171875	-0.968750	-0.125000 
		0.000000	-1.000000	0.031250 
		-0.093750	-0.718750	-0.687500 
		0.156250	-0.984375	-0.109375 
		0.000000	-1.000000	-0.015625 
		0.187500	-0.937500	0.312500 
		-0.156250	-0.953125	0.250000 
		0.000000	-1.000000	0.000000 
		0.000000	-0.750000	0.656250 
		-0.015625	-0.250000	0.968750 
		-0.546875	-0.562500	0.609375 
		0.000000	-0.625000	0.781250 
		-0.156250	-0.953125	0.265625 
		-0.296875	-0.781250	-0.546875 
		-0.093750	-0.984375	-0.125000 
		0.000000	-0.796875	-0.593750 
		-0.078125	-0.421875	-0.906250 
		-0.421875	-0.765625	0.500000 
		0.000000	-0.593750	0.796875 
		-0.078125	-0.984375	0.125000 
		-0.500000	-0.703125	-0.515625 
		0.000000	-0.875000	-0.500000 
		-0.125000	-0.515625	-0.843750 
		0.062500	-0.656250	-0.765625 
		0.093750	-0.718750	-0.687500 
		0.015625	-0.250000	0.968750 
		0.546875	-0.562500	0.609375 
		0.156250	-0.953125	0.265625 
		0.296875	-0.781250	-0.546875 
		0.093750	-0.984375	-0.125000 
		0.078125	-0.421875	-0.906250 
		0.421875	-0.765625	0.500000 
		0.078125	-0.984375	0.125000 
		0.500000	-0.703125	-0.515625 
		0.125000	-0.515625	-0.843750 
		-0.031250	0.000000	1.000000 
		0.000000	0.000000	1.000000 
		0.000000	1.000000	0.031250 
		0.000000	1.000000	0.000000 
		-0.343750	0.937500	0.015625 
		-0.578125	0.781250	0.265625 
		0.000000	0.906250	-0.421875 
		-0.343750	0.890625	-0.312500 
		0.000000	0.640625	-0.765625 
		-0.359375	0.640625	-0.671875 
		0.000000	0.390625	-0.921875 
		-0.359375	0.406250	-0.843750 
		0.000000	0.187500	-0.984375 
		-0.359375	0.187500	-0.906250 
		0.000000	0.125000	-0.984375 
		-0.390625	0.625000	-0.671875 
		0.000000	1.000000	-0.125000 
		0.000000	0.921875	-0.390625 
		-0.296875	0.843750	-0.453125 
		0.000000	0.484375	-0.875000 
		-0.437500	0.328125	-0.828125 
		0.000000	0.031250	-1.000000 
		-0.375000	0.046875	-0.921875 
		0.000000	-0.015625	-1.000000 
		-0.281250	-0.015625	-0.953125 
		-0.937500	0.156250	-0.296875 
		-1.000000	-0.015625	0.000000 
		-0.906250	0.093750	-0.406250 
		-0.875000	0.234375	-0.437500 
		-0.953125	0.281250	0.000000 
		-0.781250	0.593750	-0.171875 
		-0.859375	0.359375	-0.375000 
		-0.843750	0.234375	0.484375 
		-0.937500	0.000000	0.343750 
		-0.937500	0.015625	-0.343750 
		-0.812500	0.015625	-0.593750 
		-0.906250	0.046875	-0.437500 
		-0.828125	0.015625	-0.562500 
		-0.953125	0.000000	-0.296875 
		-0.796875	0.234375	-0.562500 
		-0.906250	0.343750	-0.265625 
		-0.984375	-0.015625	-0.171875 
		-1.000000	0.000000	-0.078125 
		-1.000000	-0.015625	-0.015625 
		-1.000000	0.000000	0.000000 
		-0.968750	0.000000	0.218750 
		-0.593750	0.000000	0.812500 
		0.328125	0.000000	0.937500 
		0.515625	0.687500	0.515625 
		0.031250	0.000000	1.000000 
		0.265625	0.968750	0.015625 
		0.343750	0.890625	-0.312500 
		0.359375	0.640625	-0.671875 
		0.359375	0.406250	-0.843750 
		0.359375	0.187500	-0.906250 
		0.390625	0.625000	-0.671875 
		0.296875	0.843750	-0.453125 
		0.437500	0.328125	-0.828125 
		0.375000	0.046875	-0.921875 
		0.281250	-0.015625	-0.953125 
		0.843750	0.234375	0.484375 
		0.937500	0.000000	0.343750 
		0.968750	0.000000	0.218750 
		0.593750	0.000000	0.812500 
		0.859375	0.359375	-0.375000 
		0.906250	0.203125	-0.359375 
		0.906250	0.093750	-0.406250 
		0.937500	0.156250	-0.296875 
		0.906250	0.343750	-0.265625 
		0.796875	0.234375	-0.562500 
		0.828125	0.015625	-0.562500 
		0.812500	0.015625	-0.593750 
		1.000000	-0.015625	0.000000 
		1.000000	0.000000	0.000000 
		0.953125	0.281250	0.000000 
		0.937500	0.015625	-0.343750 
		0.906250	0.046875	-0.437500 
		0.953125	0.000000	-0.296875 
		0.984375	-0.015625	-0.171875 
		1.000000	0.000000	-0.078125 
		1.000000	-0.015625	-0.015625 
		1.000000	-0.031250	0.000000 
		0.906250	0.390625	-0.171875 
		0.000000	0.000000	-1.000000 
	}

	Cpv 268 { 
		0.500000	0.500000	0.500000	0.000000 
		0.500000	0.500000	0.500000	0.000000 
		0.500000	0.500000	0.500000	0.000000 
		0.500000	0.500000	0.500000	0.000000 
		0.621961	0.500000	0.500000	0.000000 
		0.500000	0.500000	0.500000	0.000000 
		0.604102	0.500000	0.500000	0.000000 
		0.558886	0.531924	0.500000	0.000000 
		0.582446	0.500000	0.500000	0.000000 
		0.500000	0.600594	0.422565	0.000000 
		0.558886	0.531924	0.500000	0.000000 
		0.500000	0.500000	0.500000	0.000000 
		0.500000	0.609596	0.500000	0.000000 
		0.500000	0.571011	0.500000	0.000000 
		0.500000	0.500000	0.500000	0.000000 
		0.500000	0.500000	0.500000	0.000000 
		0.500000	0.500000	0.500000	0.000000 
		0.500000	0.500000	0.500000	0.000000 
		0.500000	0.500000	0.500000	0.000000 
		0.500000	0.500000	0.500000	0.000000 
		0.500000	0.500000	0.500000	0.000000 
		0.500000	0.500000	0.500000	0.000000 
		0.500000	0.500000	0.500000	0.000000 
		0.500000	0.500000	0.500000	0.000000 
		0.500000	0.500000	0.500000	0.000000 
		0.500000	0.500000	0.500000	0.000000 
		0.500000	0.500000	0.500000	0.000000 
		0.500000	0.500000	0.500000	0.000000 
		0.500000	0.500000	0.500000	0.000000 
		0.621961	0.500000	0.500000	0.000000 
		0.500000	0.500000	0.500000	0.000000 
		0.621961	0.500000	0.500000	0.000000 
		0.621961	0.500000	0.500000	0.000000 
		0.500000	0.500000	0.500000	0.000000 
		0.590411	0.500000	0.500000	0.000000 
		0.582446	0.500000	0.500000	0.000000 
		0.604102	0.500000	0.500000	0.000000 
		0.582446	0.500000	0.500000	0.000000 
		0.500000	0.500000	0.500000	0.000000 
		0.500000	0.500000	0.500000	0.000000 
		0.500000	0.500000	0.500000	0.000000 
		0.500000	0.500000	0.500000	0.000000 
		0.500000	0.500000	0.500000	0.000000 
		0.500000	0.500000	0.500000	0.000000 
		0.500000	0.500000	0.500000	0.000000 
		0.500000	0.585946	0.500000	0.000000 
		0.412022	0.585946	0.500000	0.000000 
		0.412022	0.585946	0.500000	0.000000 
		0.412022	0.500000	0.500000	0.000000 
		0.412022	0.500000	0.500000	0.000000 
		0.500000	0.500000	0.500000	0.000000 
		0.454202	0.500000	0.500000	0.000000 
		0.500000	0.500000	0.500000	0.000000 
		0.500000	0.500000	0.500000	0.000000 
		0.500000	0.500000	0.500000	0.000000 
		0.500000	0.500000	0.500000	0.000000 
		0.500000	0.500000	0.500000	0.000000 
		0.500000	0.500000	0.500000	0.000000 
		0.500000	0.500000	0.500000	0.000000 
		0.500000	0.500000	0.500000	0.000000 
		0.500000	0.500000	0.500000	0.000000 
		0.500000	0.500000	0.500000	0.000000 
		0.500000	0.500000	0.500000	0.000000 
		0.500000	0.500000	0.500000	0.000000 
		0.500000	0.500000	0.500000	0.000000 
		0.500000	0.500000	0.500000	0.000000 
		0.500000	0.500000	0.500000	0.000000 
		0.500000	0.500000	0.500000	0.000000 
		0.500000	0.571011	0.500000	0.000000 
		0.412022	0.585946	0.500000	0.000000 
		0.604102	0.500000	0.500000	0.000000 
		0.500000	0.350656	0.422565	0.003922 
		0.575313	0.294492	0.500000	0.003922 
		0.500000	0.600594	0.422565	0.000000 
		0.558886	0.531924	0.500000	0.000000 
		0.500000	0.350656	0.422565	0.003922 
		0.500000	0.285493	0.500000	0.003922 
		0.728941	0.229527	0.500000	0.003922 
		0.575313	0.294492	0.500000	0.003922 
		0.500000	0.368664	0.500000	0.003922 
		0.618243	0.397899	0.500000	0.003922 
		0.500000	0.368664	0.500000	0.003922 
		0.605655	0.414916	0.500000	0.003922 
		0.500000	0.368664	0.500000	0.003922 
		0.500000	0.500000	0.500000	0.003922 
		0.651515	0.500000	0.500000	0.003922 
		0.605655	0.414916	0.500000	0.003922 
		0.500000	0.500000	0.500000	0.003922 
		0.635951	0.500000	0.500000	0.003922 
		0.500000	0.500000	0.500000	0.000000 
		0.500000	0.500000	0.500000	0.000000 
		0.500000	0.500000	0.500000	0.000000 
		0.500000	0.500000	0.500000	0.000000 
		0.500000	0.500000	0.500000	0.000000 
		0.500000	0.500000	0.500000	0.000000 
		0.500000	0.500000	0.500000	0.000000 
		0.500000	0.500000	0.500000	0.000000 
		0.500000	0.500000	0.500000	0.000000 
		0.500000	0.609596	0.500000	0.000000 
		0.500000	0.500000	0.500000	0.000000 
		0.500000	0.500000	0.500000	0.000000 
		0.500000	0.609596	0.500000	0.000000 
		0.500000	0.500000	0.500000	0.000000 
		0.500000	0.500000	0.500000	0.000000 
		0.708853	0.500000	0.500000	0.000000 
		0.635951	0.500000	0.500000	0.003922 
		0.651515	0.500000	0.500000	0.003922 
		0.728941	0.229527	0.500000	0.003922 
		0.618243	0.397899	0.500000	0.003922 
		0.605655	0.414916	0.500000	0.003922 
		0.575313	0.294492	0.500000	0.003922 
		0.604102	0.500000	0.500000	0.000000 
		0.500000	0.500000	0.500000	0.000000 
		0.500000	0.500000	0.500000	0.000000 
		0.500000	0.500000	0.500000	0.000000 
		0.500000	0.500000	0.500000	0.000000 
		0.500000	0.500000	0.500000	0.000000 
		0.500000	0.500000	0.500000	0.000000 
		0.500000	0.500000	0.500000	0.000000 
		0.500000	0.500000	0.500000	0.000000 
		0.500000	0.500000	0.500000	0.000000 
		0.500000	0.500000	0.500000	0.000000 
		0.500000	0.500000	0.500000	0.000000 
		0.500000	0.500000	0.500000	0.000000 
		0.621961	0.500000	0.500000	0.000000 
		0.621961	0.500000	0.500000	0.000000 
		0.582446	0.500000	0.500000	0.000000 
		0.582446	0.500000	0.500000	0.000000 
		0.558886	0.531924	0.500000	0.000000 
		0.590411	0.500000	0.500000	0.000000 
		0.621961	0.500000	0.500000	0.000000 
		0.575313	0.294492	0.500000	0.003922 
		0.575313	0.294492	0.500000	0.003922 
		0.604102	0.500000	0.500000	0.000000 
		0.604102	0.500000	0.500000	0.000000 
		0.558886	0.531924	0.500000	0.000000 
		0.558886	0.531924	0.500000	0.000000 
		0.575313	0.294492	0.500000	0.003922 
		0.728941	0.229527	0.500000	0.003922 
		0.618243	0.397899	0.500000	0.003922 
		0.605655	0.414916	0.500000	0.003922 
		0.605655	0.414916	0.500000	0.003922 
		0.651515	0.500000	0.500000	0.003922 
		0.635951	0.500000	0.500000	0.003922 
		0.500000	0.500000	0.500000	0.000000 
		0.500000	0.500000	0.500000	0.000000 
		0.500000	0.500000	0.500000	0.000000 
		0.500000	0.500000	0.500000	0.000000 
		0.500000	0.500000	0.500000	0.000000 
		0.500000	0.500000	0.500000	0.000000 
		0.500000	0.500000	0.500000	0.000000 
		0.500000	0.500000	0.500000	0.000000 
		0.500000	0.333268	0.500000	0.003922 
		0.500000	0.500000	0.500000	0.000000 
		0.500000	0.375781	0.500000	0.003922 
		0.500000	0.333268	0.500000	0.003922 
		0.500000	0.333268	0.500000	0.003922 
		0.500000	0.333268	0.500000	0.003922 
		0.500000	0.500000	0.500000	0.003922 
		0.500000	0.333268	0.500000	0.003922 
		0.500000	0.500000	0.500000	0.003922 
		0.500000	0.500000	0.500000	0.000000 
		0.500000	0.500000	0.500000	0.000000 
		0.500000	0.500000	0.500000	0.000000 
		0.500000	0.500000	0.500000	0.000000 
		0.500000	0.500000	0.500000	0.000000 
		0.500000	0.500000	0.500000	0.000000 
		0.500000	0.585946	0.500000	0.000000 
		0.500000	0.333268	0.500000	0.003922 
		0.500000	0.500000	0.500000	0.000000 
		0.500000	0.500000	0.500000	0.000000 
		0.500000	0.500000	0.500000	0.000000 
		0.500000	0.333268	0.500000	0.003922 
		0.500000	0.500000	0.500000	0.003922 
		0.500000	0.500000	0.500000	0.003922 
		0.500000	0.500000	0.500000	0.000000 
		0.500000	0.500000	0.500000	0.000000 
		0.500000	0.500000	0.500000	0.000000 
		0.454202	0.500000	0.500000	0.000000 
		0.454202	0.500000	0.500000	0.000000 
		0.412022	0.500000	0.500000	0.000000 
		0.412022	0.585946	0.500000	0.000000 
		0.500000	0.500000	0.500000	0.000000 
		0.339213	0.500000	0.500000	0.003922 
		0.339213	0.500000	0.500000	0.003922 
		0.500000	0.375781	0.500000	0.003922 
		0.500000	0.333268	0.500000	0.003922 
		0.500000	0.500000	0.500000	0.000000 
		0.412022	0.500000	0.500000	0.000000 
		0.412022	0.585946	0.500000	0.000000 
		0.412022	0.585946	0.500000	0.000000 
		0.412022	0.500000	0.500000	0.000000 
		0.412022	0.500000	0.500000	0.000000 
		0.454202	0.500000	0.500000	0.000000 
		0.500000	0.500000	0.500000	0.000000 
		0.454202	0.500000	0.500000	0.000000 
		0.500000	0.500000	0.500000	0.000000 
		0.500000	0.500000	0.500000	0.000000 
		0.500000	0.500000	0.500000	0.000000 
		0.500000	0.500000	0.500000	0.000000 
		0.500000	0.500000	0.500000	0.000000 
		0.500000	0.500000	0.500000	0.000000 
		0.500000	0.500000	0.500000	0.000000 
		0.500000	0.500000	0.500000	0.000000 
		0.500000	0.500000	0.500000	0.000000 
		0.500000	0.500000	0.500000	0.000000 
		0.500000	0.500000	0.500000	0.000000 
		0.500000	0.500000	0.500000	0.000000 
		0.500000	0.500000	0.500000	0.000000 
		0.500000	0.500000	0.500000	0.000000 
		0.289964	0.500000	0.500000	0.000000 
		0.289964	0.500000	0.500000	0.000000 
		0.500000	0.333268	0.500000	0.003922 
		0.500000	0.375781	0.500000	0.003922 
		0.500000	0.333268	0.500000	0.003922 
		0.500000	0.333268	0.500000	0.003922 
		0.500000	0.500000	0.500000	0.000000 
		0.418110	0.500000	0.500000	0.003922 
		0.362589	0.381606	0.500000	0.003922 
		0.500000	0.333268	0.500000	0.003922 
		0.500000	0.375781	0.500000	0.003922 
		0.362589	0.381606	0.500000	0.003922 
		0.500000	0.500000	0.500000	0.000000 
		0.289964	0.500000	0.500000	0.000000 
		0.500000	0.500000	0.500000	0.000000 
		0.500000	0.500000	0.500000	0.000000 
		0.500000	0.500000	0.500000	0.000000 
		0.500000	0.500000	0.500000	0.000000 
		0.500000	0.500000	0.500000	0.000000 
		0.500000	0.500000	0.500000	0.000000 
		0.500000	0.500000	0.500000	0.000000 
		0.500000	0.500000	0.500000	0.000000 
		0.500000	0.500000	0.500000	0.000000 
		0.500000	0.500000	0.500000	0.000000 
		0.500000	0.500000	0.500000	0.000000 
		0.500000	0.500000	0.500000	0.000000 
		0.500000	0.500000	0.500000	0.000000 
		0.500000	0.500000	0.500000	0.000000 
		0.500000	0.500000	0.500000	0.000000 
		0.500000	0.500000	0.500000	0.000000 
		0.500000	0.500000	0.500000	0.000000 
		0.500000	0.500000	0.500000	0.000000 
		0.500000	0.500000	0.500000	0.000000 
		0.500000	0.500000	0.500000	0.003922 
		0.339213	0.500000	0.500000	0.003922 
		0.339213	0.500000	0.500000	0.003922 
		0.500000	0.500000	0.500000	0.003922 
		0.289964	0.500000	0.500000	0.000000 
		0.418110	0.500000	0.500000	0.003922 
		0.500000	0.333268	0.500000	0.003922 
		0.500000	0.500000	0.500000	0.000000 
		0.500000	0.500000	0.500000	0.000000 
		0.500000	0.500000	0.500000	0.000000 
		0.500000	0.500000	0.500000	0.000000 
		0.500000	0.500000	0.500000	0.000000 
		0.500000	0.500000	0.500000	0.000000 
		0.500000	0.500000	0.500000	0.000000 
		0.500000	0.500000	0.500000	0.000000 
		0.500000	0.500000	0.500000	0.000000 
		0.500000	0.500000	0.500000	0.000000 
		0.500000	0.500000	0.500000	0.000000 
		0.500000	0.500000	0.500000	0.000000 
		0.500000	0.500000	0.500000	0.000000 
		0.500000	0.500000	0.500000	0.000000 
		0.500000	0.500000	0.500000	0.000000 
		0.500000	0.500000	0.500000	0.000000 
		0.500000	0.500000	0.500000	0.000000 
		0.500000	0.500000	0.500000	0.000000 
	}

	Tex0 159 { 
		0.182617	0.186523 
		0.629883	0.186523 
		0.629883	0.766602 
		0.182617	0.766602 
		0.629883	0.976563 
		0.182617	0.976563 
		0.791992	0.766602 
		0.996094	0.976563 
		0.791992	0.976563 
		1.009766	0.476563 
		1.004883	0.942383 
		0.791992	0.186523 
		0.009766	0.476563 
		0.037109	0.186523 
		0.037109	0.766602 
		0.021484	0.881836 
		0.031250	0.917969 
		0.037109	0.925781 
		0.023438	0.979492 
		0.629883	-0.023438 
		0.254883	-0.023438 
		0.791992	-0.023438 
		0.996094	-0.023438 
		1.004883	0.011719 
		0.021484	0.072266 
		0.031250	0.036133 
		0.037109	0.028320 
		0.018555	0.708984 
		0.249023	0.989258 
		0.018555	0.989258 
		0.249023	0.507813 
		0.018555	0.507813 
		0.453125	0.439453 
		0.750000	0.958984 
		0.750000	0.907227 
		0.517578	0.905273 
		0.517578	0.957031 
		0.750000	0.803711 
		0.517578	0.802734 
		0.750000	0.733398 
		0.518555	0.730469 
		0.752930	0.710938 
		0.752930	0.683594 
		0.564453	0.686523 
		0.555664	0.711914 
		0.752930	0.667969 
		0.579102	0.671875 
		0.750977	0.644531 
		0.750977	0.567383 
		0.524414	0.567383 
		0.521484	0.644531 
		0.750977	0.501953 
		0.524414	0.501953 
		0.091797	0.259766 
		0.641602	0.260742 
		0.100586	0.330078 
		0.126953	0.420898 
		0.641602	0.491211 
		0.175781	0.483398 
		0.153320	0.461914 
		0.962891	0.479492 
		0.962891	0.260742 
		-0.021484	0.121094 
		-0.030273	0.093750 
		-0.024414	0.093750 
		-0.031250	0.152344 
		-0.009766	0.150391 
		-0.024414	0.217773 
		0.012695	0.248047 
		0.022461	0.174805 
		0.070313	0.178711 
		0.106445	0.166016 
		0.124023	0.139648 
		0.140625	0.074219 
		0.641602	0.085938 
		0.667969	0.151367 
		0.810547	0.129883 
		0.824219	0.089844 
		0.962891	0.094727 
		0.779297	0.165039 
		0.721680	0.177734 
		0.000977	0.975586 
		0.000977	0.708984 
		0.000977	0.507813 
		0.500977	0.946289 
		0.500977	0.901367 
		0.500977	0.800781 
		0.500977	0.722656 
		0.541016	0.715820 
		0.549805	0.688477 
		0.563477	0.675781 
		0.501953	0.640625 
		0.504883	0.567383 
		0.503906	0.501953 
		0.480469	0.708984 
		0.480469	0.989258 
		0.480469	0.507813 
		0.982422	0.905273 
		0.982422	0.957031 
		0.982422	0.802734 
		0.981445	0.730469 
		0.941406	0.686523 
		0.950195	0.711914 
		0.927734	0.671875 
		0.976563	0.567383 
		0.979492	0.644531 
		0.976563	0.501953 
		0.498047	0.975586 
		0.498047	0.708984 
		0.498047	0.507813 
		1.000000	0.946289 
		1.000000	0.901367 
		1.000000	0.800781 
		0.999023	0.722656 
		0.965820	0.715820 
		0.956055	0.688477 
		0.942383	0.675781 
		1.000000	0.640625 
		0.997070	0.567383 
		0.997070	0.501953 
		0.643555	0.259766 
		0.974609	0.302734 
		0.972656	0.394531 
		0.643555	0.491211 
		0.319336	0.479492 
		0.319336	0.259766 
		0.504883	0.165039 
		0.319336	0.094727 
		0.562500	0.177734 
		0.314453	0.169922 
		0.313477	0.203125 
		0.975586	0.259766 
		0.972656	0.446289 
		0.317383	0.471680 
		0.971680	0.471680 
		0.975586	0.203125 
		0.453125	0.568359 
		0.444336	0.571289 
		0.444336	0.561523 
		0.435547	0.568359 
		0.432617	0.561523 
		0.435547	0.554688 
		0.444336	0.551758 
		0.453125	0.554688 
		0.457031	0.561523 
		0.313477	0.259766 
		0.314453	0.302734 
		0.316406	0.394531 
		0.974609	0.169922 
		0.316406	0.447266 
		0.546875	0.636719 
		0.561523	0.630859 
		0.546875	0.616211 
		0.532227	0.630859 
		0.525391	0.616211 
		0.532227	0.601563 
		0.546875	0.595703 
		0.561523	0.601563 
		0.568359	0.616211 
	}

	Tex1 0 
	Adj 268 { 
		P 0 
		N 0 
		C0 0 
		T0 0 
		P 1 
		N 1 
		C0 1 
		T0 1 
		P 2 
		N 2 
		C0 2 
		T0 2 
		P 3 
		N 3 
		C0 3 
		T0 3 
		P 4 
		N 4 
		C0 4 
		T0 4 
		P 5 
		N 5 
		C0 5 
		T0 5 
		P 6 
		N 6 
		C0 6 
		T0 6 
		P 7 
		N 7 
		C0 7 
		T0 7 
		P 8 
		N 8 
		C0 8 
		T0 8 
		P 9 
		N 7 
		C0 9 
		T0 9 
		P 10 
		N 7 
		C0 10 
		T0 10 
		P 11 
		N 9 
		C0 11 
		T0 11 
		P 12 
		N 10 
		C0 12 
		T0 12 
		P 13 
		N 11 
		C0 13 
		T0 13 
		P 14 
		N 12 
		C0 14 
		T0 14 
		P 15 
		N 13 
		C0 15 
		T0 15 
		P 16 
		N 10 
		C0 16 
		T0 16 
		P 17 
		N 14 
		C0 17 
		T0 17 
		P 18 
		N 15 
		C0 18 
		T0 18 
		P 19 
		N 16 
		C0 19 
		T0 18 
		P 20 
		N 17 
		C0 20 
		T0 18 
		P 21 
		N 18 
		C0 21 
		T0 18 
		P 22 
		N 19 
		C0 22 
		T0 18 
		P 23 
		N 20 
		C0 23 
		T0 18 
		P 24 
		N 21 
		C0 24 
		T0 18 
		P 25 
		N 22 
		C0 25 
		T0 18 
		P 3 
		N 3 
		C0 26 
		T0 18 
		P 5 
		N 5 
		C0 27 
		T0 18 
		P 26 
		N 23 
		C0 28 
		T0 18 
		P 27 
		N 24 
		C0 29 
		T0 18 
		P 2 
		N 2 
		C0 30 
		T0 18 
		P 4 
		N 4 
		C0 31 
		T0 18 
		P 28 
		N 25 
		C0 32 
		T0 18 
		P 29 
		N 26 
		C0 33 
		T0 18 
		P 30 
		N 27 
		C0 34 
		T0 18 
		P 31 
		N 28 
		C0 35 
		T0 18 
		P 6 
		N 6 
		C0 36 
		T0 18 
		P 8 
		N 8 
		C0 37 
		T0 18 
		P 14 
		N 12 
		C0 38 
		T0 18 
		P 17 
		N 14 
		C0 39 
		T0 18 
		P 32 
		N 4 
		C0 40 
		T0 19 
		P 33 
		N 29 
		C0 41 
		T0 20 
		P 34 
		N 30 
		C0 42 
		T0 21 
		P 35 
		N 7 
		C0 43 
		T0 22 
		P 36 
		N 7 
		C0 44 
		T0 23 
		P 37 
		N 13 
		C0 45 
		T0 24 
		P 38 
		N 10 
		C0 46 
		T0 25 
		P 39 
		N 14 
		C0 47 
		T0 26 
		P 40 
		N 31 
		C0 48 
		T0 18 
		P 41 
		N 17 
		C0 49 
		T0 18 
		P 42 
		N 32 
		C0 50 
		T0 18 
		P 43 
		N 33 
		C0 51 
		T0 18 
		P 44 
		N 34 
		C0 52 
		T0 18 
		P 45 
		N 35 
		C0 53 
		T0 18 
		P 46 
		N 21 
		C0 54 
		T0 18 
		P 47 
		N 36 
		C0 55 
		T0 18 
		P 0 
		N 0 
		C0 56 
		T0 18 
		P 33 
		N 29 
		C0 57 
		T0 18 
		P 48 
		N 37 
		C0 58 
		T0 18 
		P 1 
		N 1 
		C0 59 
		T0 18 
		P 49 
		N 24 
		C0 60 
		T0 18 
		P 32 
		N 4 
		C0 61 
		T0 18 
		P 50 
		N 38 
		C0 62 
		T0 18 
		P 51 
		N 39 
		C0 63 
		T0 18 
		P 52 
		N 27 
		C0 64 
		T0 18 
		P 53 
		N 40 
		C0 65 
		T0 18 
		P 11 
		N 9 
		C0 66 
		T0 18 
		P 34 
		N 30 
		C0 67 
		T0 18 
		P 13 
		N 11 
		C0 68 
		T0 18 
		P 39 
		N 14 
		C0 69 
		T0 18 
		P 54 
		N 41 
		C0 70 
		T0 27 
		P 55 
		N 42 
		C0 71 
		T0 28 
		P 56 
		N 41 
		C0 72 
		T0 29 
		P 9 
		N 42 
		C0 73 
		T0 30 
		P 10 
		N 41 
		C0 74 
		T0 31 
		P 55 
		N 43 
		C0 75 
		T0 32 
		P 57 
		N 44 
		C0 76 
		T0 32 
		P 58 
		N 45 
		C0 77 
		T0 32 
		P 56 
		N 46 
		C0 78 
		T0 32 
		P 59 
		N 47 
		C0 79 
		T0 32 
		P 60 
		N 48 
		C0 80 
		T0 32 
		P 61 
		N 49 
		C0 81 
		T0 32 
		P 62 
		N 50 
		C0 82 
		T0 32 
		P 61 
		N 49 
		C0 83 
		T0 33 
		P 63 
		N 51 
		C0 84 
		T0 34 
		P 64 
		N 52 
		C0 85 
		T0 35 
		P 62 
		N 50 
		C0 86 
		T0 36 
		P 65 
		N 53 
		C0 87 
		T0 37 
		P 66 
		N 54 
		C0 88 
		T0 38 
		P 67 
		N 55 
		C0 89 
		T0 39 
		P 68 
		N 56 
		C0 90 
		T0 40 
		P 67 
		N 57 
		C0 91 
		T0 41 
		P 69 
		N 58 
		C0 92 
		T0 42 
		P 70 
		N 59 
		C0 93 
		T0 43 
		P 68 
		N 56 
		C0 94 
		T0 44 
		P 71 
		N 60 
		C0 95 
		T0 45 
		P 72 
		N 61 
		C0 96 
		T0 46 
		P 71 
		N 60 
		C0 97 
		T0 47 
		P 73 
		N 62 
		C0 98 
		T0 48 
		P 74 
		N 63 
		C0 99 
		T0 49 
		P 72 
		N 61 
		C0 100 
		T0 50 
		P 12 
		N 64 
		C0 101 
		T0 51 
		P 15 
		N 65 
		C0 102 
		T0 52 
		P 75 
		N 66 
		C0 103 
		T0 53 
		P 76 
		N 67 
		C0 104 
		T0 54 
		P 77 
		N 68 
		C0 105 
		T0 55 
		P 78 
		N 69 
		C0 106 
		T0 56 
		P 79 
		N 70 
		C0 107 
		T0 57 
		P 80 
		N 71 
		C0 108 
		T0 58 
		P 81 
		N 72 
		C0 109 
		T0 59 
		P 82 
		N 73 
		C0 110 
		T0 60 
		P 83 
		N 74 
		C0 111 
		T0 61 
		P 18 
		N 75 
		C0 112 
		T0 62 
		P 16 
		N 76 
		C0 113 
		T0 63 
		P 17 
		N 77 
		C0 114 
		T0 64 
		P 84 
		N 78 
		C0 115 
		T0 65 
		P 20 
		N 79 
		C0 116 
		T0 66 
		P 85 
		N 80 
		C0 117 
		T0 67 
		P 86 
		N 81 
		C0 118 
		T0 68 
		P 21 
		N 82 
		C0 119 
		T0 69 
		P 23 
		N 83 
		C0 120 
		T0 70 
		P 24 
		N 84 
		C0 121 
		T0 71 
		P 25 
		N 85 
		C0 122 
		T0 72 
		P 5 
		N 85 
		C0 123 
		T0 73 
		P 4 
		N 85 
		C0 124 
		T0 74 
		P 27 
		N 85 
		C0 125 
		T0 75 
		P 31 
		N 85 
		C0 126 
		T0 76 
		P 8 
		N 85 
		C0 127 
		T0 77 
		P 7 
		N 86 
		C0 128 
		T0 78 
		P 30 
		N 85 
		C0 129 
		T0 79 
		P 28 
		N 67 
		C0 130 
		T0 80 
		P 56 
		N 46 
		C0 131 
		T0 29 
		P 82 
		N 73 
		C0 132 
		T0 81 
		P 54 
		N 87 
		C0 133 
		T0 27 
		P 83 
		N 74 
		C0 134 
		T0 82 
		P 7 
		N 86 
		C0 135 
		T0 83 
		P 10 
		N 87 
		C0 136 
		T0 31 
		P 82 
		N 73 
		C0 137 
		T0 32 
		P 79 
		N 70 
		C0 138 
		T0 32 
		P 80 
		N 71 
		C0 139 
		T0 32 
		P 81 
		N 72 
		C0 140 
		T0 32 
		P 81 
		N 72 
		C0 141 
		T0 84 
		P 78 
		N 69 
		C0 142 
		T0 85 
		P 77 
		N 68 
		C0 143 
		T0 86 
		P 75 
		N 66 
		C0 144 
		T0 87 
		P 75 
		N 66 
		C0 145 
		T0 88 
		P 86 
		N 81 
		C0 146 
		T0 89 
		P 85 
		N 80 
		C0 147 
		T0 90 
		P 85 
		N 80 
		C0 148 
		T0 91 
		P 84 
		N 78 
		C0 149 
		T0 92 
		P 16 
		N 76 
		C0 150 
		T0 93 
		P 87 
		N 88 
		C0 151 
		T0 94 
		P 88 
		N 89 
		C0 152 
		T0 95 
		P 36 
		N 90 
		C0 153 
		T0 96 
		P 89 
		N 91 
		C0 154 
		T0 32 
		P 88 
		N 89 
		C0 155 
		T0 32 
		P 90 
		N 92 
		C0 156 
		T0 32 
		P 91 
		N 93 
		C0 157 
		T0 32 
		P 92 
		N 94 
		C0 158 
		T0 97 
		P 91 
		N 93 
		C0 159 
		T0 98 
		P 93 
		N 95 
		C0 160 
		T0 99 
		P 94 
		N 96 
		C0 161 
		T0 100 
		P 95 
		N 97 
		C0 162 
		T0 101 
		P 94 
		N 96 
		C0 163 
		T0 102 
		P 96 
		N 98 
		C0 164 
		T0 103 
		P 97 
		N 99 
		C0 165 
		T0 104 
		P 96 
		N 98 
		C0 166 
		T0 105 
		P 37 
		N 100 
		C0 167 
		T0 106 
		P 98 
		N 101 
		C0 168 
		T0 107 
		P 99 
		N 102 
		C0 169 
		T0 108 
		P 35 
		N 103 
		C0 170 
		T0 109 
		P 36 
		N 104 
		C0 171 
		T0 96 
		P 100 
		N 105 
		C0 172 
		T0 110 
		P 101 
		N 106 
		C0 173 
		T0 111 
		P 102 
		N 107 
		C0 174 
		T0 112 
		P 103 
		N 108 
		C0 175 
		T0 113 
		P 103 
		N 108 
		C0 176 
		T0 114 
		P 104 
		N 109 
		C0 177 
		T0 115 
		P 105 
		N 110 
		C0 178 
		T0 116 
		P 105 
		N 110 
		C0 179 
		T0 117 
		P 106 
		N 111 
		C0 180 
		T0 118 
		P 38 
		N 112 
		C0 181 
		T0 119 
		P 107 
		N 113 
		C0 182 
		T0 120 
		P 108 
		N 114 
		C0 183 
		T0 121 
		P 109 
		N 114 
		C0 184 
		T0 122 
		P 110 
		N 115 
		C0 185 
		T0 123 
		P 98 
		N 101 
		C0 186 
		T0 124 
		P 99 
		N 102 
		C0 187 
		T0 125 
		P 40 
		N 116 
		C0 188 
		T0 62 
		P 39 
		N 117 
		C0 189 
		T0 64 
		P 38 
		N 112 
		C0 190 
		T0 63 
		P 106 
		N 111 
		C0 191 
		T0 65 
		P 41 
		N 118 
		C0 192 
		T0 66 
		P 105 
		N 110 
		C0 193 
		T0 67 
		P 104 
		N 109 
		C0 194 
		T0 68 
		P 43 
		N 119 
		C0 195 
		T0 69 
		P 45 
		N 120 
		C0 196 
		T0 70 
		P 103 
		N 108 
		C0 197 
		T0 53 
		P 46 
		N 121 
		C0 198 
		T0 71 
		P 49 
		N 114 
		C0 199 
		T0 75 
		P 47 
		N 114 
		C0 200 
		T0 72 
		P 32 
		N 114 
		C0 201 
		T0 74 
		P 53 
		N 114 
		C0 202 
		T0 76 
		P 35 
		N 103 
		C0 203 
		T0 78 
		P 34 
		N 114 
		C0 204 
		T0 77 
		P 52 
		N 114 
		C0 205 
		T0 79 
		P 52 
		N 114 
		C0 206 
		T0 126 
		P 35 
		N 103 
		C0 207 
		T0 127 
		P 50 
		N 113 
		C0 208 
		T0 128 
		P 50 
		N 113 
		C0 209 
		T0 80 
		P 111 
		N 122 
		C0 210 
		T0 129 
		P 112 
		N 113 
		C0 211 
		T0 130 
		P 98 
		N 101 
		C0 212 
		T0 32 
		P 110 
		N 115 
		C0 213 
		T0 32 
		P 113 
		N 123 
		C0 214 
		T0 32 
		P 100 
		N 105 
		C0 215 
		T0 32 
		P 114 
		N 114 
		C0 216 
		T0 131 
		P 115 
		N 114 
		C0 217 
		T0 132 
		P 116 
		N 114 
		C0 218 
		T0 133 
		P 113 
		N 123 
		C0 219 
		T0 58 
		P 110 
		N 115 
		C0 220 
		T0 57 
		P 116 
		N 114 
		C0 221 
		T0 134 
		P 33 
		N 114 
		C0 222 
		T0 73 
		P 112 
		N 113 
		C0 223 
		T0 135 
		P 117 
		N 42 
		C0 224 
		T0 136 
		P 118 
		N 42 
		C0 225 
		T0 137 
		P 119 
		N 42 
		C0 226 
		T0 138 
		P 120 
		N 42 
		C0 227 
		T0 139 
		P 121 
		N 42 
		C0 228 
		T0 140 
		P 122 
		N 42 
		C0 229 
		T0 141 
		P 123 
		N 42 
		C0 230 
		T0 142 
		P 124 
		N 42 
		C0 231 
		T0 143 
		P 125 
		N 42 
		C0 232 
		T0 144 
		P 126 
		N 42 
		C0 233 
		T0 136 
		P 127 
		N 42 
		C0 234 
		T0 138 
		P 128 
		N 42 
		C0 235 
		T0 137 
		P 129 
		N 42 
		C0 236 
		T0 139 
		P 130 
		N 42 
		C0 237 
		T0 140 
		P 131 
		N 42 
		C0 238 
		T0 141 
		P 132 
		N 42 
		C0 239 
		T0 142 
		P 133 
		N 42 
		C0 240 
		T0 143 
		P 134 
		N 42 
		C0 241 
		T0 144 
		P 114 
		N 114 
		C0 242 
		T0 145 
		P 102 
		N 107 
		C0 243 
		T0 55 
		P 108 
		N 114 
		C0 244 
		T0 146 
		P 109 
		N 114 
		C0 245 
		T0 147 
		P 101 
		N 106 
		C0 246 
		T0 56 
		P 111 
		N 122 
		C0 247 
		T0 148 
		P 115 
		N 114 
		C0 248 
		T0 149 
		P 100 
		N 105 
		C0 249 
		T0 59 
		P 135 
		N 124 
		C0 250 
		T0 150 
		P 136 
		N 124 
		C0 251 
		T0 151 
		P 137 
		N 124 
		C0 252 
		T0 152 
		P 138 
		N 124 
		C0 253 
		T0 153 
		P 139 
		N 124 
		C0 254 
		T0 154 
		P 140 
		N 124 
		C0 255 
		T0 155 
		P 141 
		N 124 
		C0 256 
		T0 156 
		P 142 
		N 124 
		C0 257 
		T0 157 
		P 143 
		N 124 
		C0 258 
		T0 158 
		P 144 
		N 124 
		C0 259 
		T0 150 
		P 145 
		N 124 
		C0 260 
		T0 152 
		P 146 
		N 124 
		C0 261 
		T0 151 
		P 147 
		N 124 
		C0 262 
		T0 153 
		P 148 
		N 124 
		C0 263 
		T0 154 
		P 149 
		N 124 
		C0 264 
		T0 155 
		P 150 
		N 124 
		C0 265 
		T0 156 
		P 151 
		N 124 
		C0 266 
		T0 157 
		P 152 
		N 124 
		C0 267 
		T0 158 
	}

	Mtl 3 { 
		{
			Name "#2" 
			Priority 32 
			Prim 8 { 
				{
					Type TRISTRIP
					Priority 32 
					Idx 13 { 41 40 0 1 2 11 6 9 6 10 6 7 8 }
				}
				{
					Type TRISTRIP2
					Priority 32 
					Idx 5 { 9 44 11 43 42 }
				}
				{
					Type TRISTRIP
					Priority 32 
					Idx 11 { 17 16 14 15 14 12 13 45 13 46 47 }
				}
				{
					Type TRISTRIP2
					Priority 32 
					Idx 8 { 5 4 3 2 3 0 14 13 }
				}
				{
					Type TRISTRIP2
					Priority 32 
					Idx 18 { 39 18 38 19 26 22 27 22 25 22 24 22 23 22 21 19 20 18 }
				}
				{
					Type TRISTRIP2
					Priority 32 
					Idx 16 { 61 59 60 58 62 63 64 63 65 63 67 63 66 63 59 58 }
				}
				{
					Type TRISTRIP2
					Priority 32 
					Idx 19 { 69 68 48 50 49 50 51 52 53 52 54 52 55 52 57 52 56 50 68 }
				}
				{
					Type TRISTRIP
					Priority 32 
					Idx 16 { 31 30 29 28 32 33 34 33 35 33 37 33 36 33 30 28 }
				}
			}

		}
		{
			Name "#3" 
			Priority 32 
			Prim 26 { 
				{
					Type TRISTRIP
					Priority 32 
					Idx 6 { 72 70 71 73 151 153 }
				}
				{
					Type TRISTRIP
					Priority 32 
					Idx 10 { 110 107 111 104 130 121 125 122 124 123 }
				}
				{
					Type TRISTRIP
					Priority 32 
					Idx 6 { 131 132 133 134 136 135 }
				}
				{
					Type TRISTRIP
					Priority 32 
					Idx 4 { 204 202 203 205 }
				}
				{
					Type TRISTRIP
					Priority 32 
					Idx 7 { 247 223 208 182 187 185 186 }
				}
				{
					Type TRISTRIP2
					Priority 32 
					Idx 4 { 207 187 206 208 }
				}
				{
					Type TRISTRIP2
					Priority 32 
					Idx 6 { 127 126 128 129 111 130 }
				}
				{
					Type TRISTRIP2
					Priority 32 
					Idx 9 { 221 217 185 184 182 183 182 216 223 }
				}
				{
					Type TRISTRIP
					Priority 32 
					Idx 5 { 198 199 200 201 222 }
				}
				{
					Type TRISTRIP2
					Priority 32 
					Idx 17 { 220 219 218 249 248 246 245 243 244 243 242 197 211 198 210 199 209 }
				}
				{
					Type TRISTRIP
					Priority 32 
					Idx 14 { 179 180 166 165 97 98 99 102 99 150 99 149 100 148 }
				}
				{
					Type TRISTRIP
					Priority 32 
					Idx 7 { 180 181 165 167 98 101 102 }
				}
				{
					Type TRISTRIP2
					Priority 32 
					Idx 8 { 71 152 151 168 151 169 171 170 }
				}
				{
					Type TRISTRIP2
					Priority 32 
					Idx 3 { 97 100 99 }
				}
				{
					Type TRISTRIP
					Priority 32 
					Idx 21 { 141 86 142 85 143 88 144 88 90 87 89 87 161 160 175 160 174 158 173 159 172 }
				}
				{
					Type TRISTRIP2
					Priority 32 
					Idx 13 { 198 197 196 194 195 194 192 193 192 191 188 190 189 }
				}
				{
					Type TRISTRIP
					Priority 32 
					Idx 16 { 145 94 146 93 147 93 96 93 95 92 162 91 162 163 177 176 }
				}
				{
					Type TRISTRIP
					Priority 32 
					Idx 4 { 92 93 91 94 }
				}
				{
					Type TRISTRIP
					Priority 32 
					Idx 5 { 177 178 162 164 95 }
				}
				{
					Type TRISTRIP2
					Priority 32 
					Idx 21 { 114 113 112 115 116 117 116 118 119 118 120 103 121 103 104 105 107 106 107 109 108 }
				}
				{
					Type TRISTRIP
					Priority 32 
					Idx 13 { 86 83 85 84 88 84 87 84 160 84 158 83 159 }
				}
				{
					Type TRISTRIP2
					Priority 32 
					Idx 13 { 155 75 154 76 156 76 79 76 80 76 77 75 78 }
				}
				{
					Type TRISTRIP
					Priority 32 
					Idx 15 { 233 241 234 240 234 239 234 238 234 237 234 236 234 235 233 }
				}
				{
					Type TRISTRIP2
					Priority 32 
					Idx 15 { 224 232 226 231 226 230 226 229 226 228 226 227 226 225 224 }
				}
				{
					Type TRISTRIP
					Priority 32 
					Idx 3 { 74 73 70 }
				}
				{
					Type TRISTRIP2
					Priority 32 
					Idx 21 { 212 155 213 154 214 156 215 156 157 79 81 79 82 80 140 80 139 77 138 78 137 }
				}
			}

		}
		{
			Name "#4" 
			Priority 32 
			Prim 2 { 
				{
					Type TRISTRIP
					Priority 32 
					Idx 15 { 267 261 260 259 260 262 260 263 260 264 260 265 260 266 267 }
				}
				{
					Type TRISTRIP2
					Priority 32 
					Idx 15 { 258 251 252 250 252 253 252 254 252 255 252 256 252 257 258 }
				}
			}

		}
	}

	Offset 0 
}
