{
	Skinned 0 
	PosSkin 0 
	Pos 8 { 
		-0.645415	0.706578	-4.658350 
		-1.018240	0.706578	-4.643677 
		-1.018240	0.834501	-4.643677 
		-0.645415	0.834501	-4.658350 
		0.645766	0.706578	-4.658350 
		0.645766	0.834501	-4.658350 
		1.018591	0.834501	-4.643677 
		1.018591	0.706578	-4.643677 
	}

	Nrm 2 { 
		-0.046875	0.000000	-1.000000 
		0.046875	0.000000	-1.000000 
	}

	Cpv 8 { 
		0.500000	0.500000	0.500000	1.000000 
		0.500000	0.500000	0.500000	0.000000 
		0.500000	0.500000	0.500000	0.000000 
		0.500000	0.500000	0.500000	0.000000 
		0.500000	0.500000	0.500000	0.000000 
		0.500000	0.500000	0.500000	0.000000 
		0.500000	0.500000	0.500000	0.000000 
		0.500000	0.500000	0.500000	0.000000 
	}

	Tex0 4 { 
		0.113281	0.563477 
		0.034180	0.563477 
		0.034180	0.591797 
		0.113281	0.591797 
	}

	Tex1 0 
	Adj 8 { 
		P 0 
		N 0 
		C0 0 
		T0 0 
		P 1 
		N 0 
		C0 1 
		T0 1 
		P 2 
		N 0 
		C0 2 
		T0 2 
		P 3 
		N 0 
		C0 3 
		T0 3 
		P 4 
		N 1 
		C0 4 
		T0 0 
		P 5 
		N 1 
		C0 5 
		T0 3 
		P 6 
		N 1 
		C0 6 
		T0 2 
		P 7 
		N 1 
		C0 7 
		T0 1 
	}

	Mtl 1 { 
		{
			Name "#2" 
			Priority 32 
			Prim 2 { 
				{
					Type TRISTRIP
					Priority 32 
					Idx 4 { 1 2 0 3 }
				}
				{
					Type TRISTRIP
					Priority 32 
					Idx 4 { 4 5 7 6 }
				}
			}

		}
	}

	Offset 0 
}
