{
	Skinned 0 
	PosSkin 0 
	Pos 6 { 
		0.006599	-0.000049	-6.304205 
		0.006602	-0.000049	6.717272 
		1.939468	-0.000049	6.717272 
		1.942403	-0.000049	-6.308455 
		-1.926268	-0.000049	6.717272 
		-1.929203	-0.000049	-6.308455 
	}

	Nrm 1 { 
		0.000000	0.000000	1.000000 
	}

	Cpv 6 { 
		1.000000	1.000000	1.000000	1.000000 
		1.000000	1.000000	1.000000	1.000000 
		1.000000	1.000000	1.000000	1.000000 
		1.000000	1.000000	1.000000	1.000000 
		1.000000	1.000000	1.000000	1.000000 
		1.000000	1.000000	1.000000	1.000000 
	}

	Tex0 4 { 
		1.019531	0.015625 
		-0.019531	0.015625 
		-0.019531	0.913086 
		1.019531	0.914063 
	}

	Tex1 0 
	Adj 6 { 
		P 0 
		N 0 
		C0 0 
		T0 0 
		P 1 
		N 0 
		C0 1 
		T0 1 
		P 2 
		N 0 
		C0 2 
		T0 2 
		P 3 
		N 0 
		C0 3 
		T0 3 
		P 4 
		N 0 
		C0 4 
		T0 2 
		P 5 
		N 0 
		C0 5 
		T0 3 
	}

	Mtl 1 { 
		{
			Name "#1" 
			Priority 32 
			Prim 1 { 
				{
					Type TRISTRIP
					Priority 32 
					Idx 6 { 2 3 1 0 4 5 }
				}
			}

		}
	}

	Offset 0 
}
