{
	Skinned 0 
	PosSkin 0 
	Pos 255 { 
		1.192492	1.615015	-2.204129 
		1.192492	2.073478	-2.204129 
		1.019704	2.073478	-2.318135 
		1.019704	1.615015	-2.318135 
		1.033836	2.073478	-2.337100 
		1.033836	1.615015	-2.337100 
		1.033836	1.632210	-2.337100 
		1.033836	2.055671	-2.337100 
		0.893281	1.615015	-2.392445 
		0.907413	1.615015	-2.411409 
		0.907413	1.632210	-2.411409 
		0.813696	2.073478	-2.444669 
		0.827828	2.055671	-2.463634 
		0.827828	2.073478	-2.463634 
		-1.192492	1.615015	-2.204129 
		-1.019704	1.615015	-2.318135 
		-1.019704	2.073478	-2.318135 
		-1.192492	2.073478	-2.204129 
		-1.033836	2.073478	-2.337100 
		-1.033836	1.632210	-2.337100 
		-1.033836	1.615015	-2.337100 
		-1.033836	2.055671	-2.337100 
		-0.907413	1.615015	-2.411410 
		-0.893281	1.615015	-2.392445 
		-0.907413	1.632210	-2.411410 
		-0.827828	2.055671	-2.463634 
		-0.813696	2.073478	-2.444669 
		-0.827828	2.073478	-2.463634 
		-0.703297	1.034898	-3.993964 
		-0.836664	1.183789	-3.559946 
		-0.842063	1.573434	-3.356740 
		-0.690637	1.464932	-3.946878 
		-0.914088	1.225748	-3.166795 
		-0.955786	1.148322	-2.796917 
		-0.927679	1.646911	-2.709543 
		-0.955786	0.946843	-2.601081 
		-0.955786	0.707175	-1.311178 
		-0.955786	1.638542	-1.329251 
		-0.815648	2.303437	-1.411011 
		-0.810307	2.301181	-2.428258 
		-1.108433	0.974870	-3.981538 
		-1.130721	1.128333	-3.554048 
		-1.142483	1.169382	-3.168714 
		-1.151607	1.094935	-2.821048 
		-1.153729	0.909617	-2.641668 
		-0.955786	0.706697	-2.501334 
		-1.153872	0.679766	-2.540081 
		-1.149014	0.973193	-3.578929 
		-1.130952	0.701041	-3.796835 
		-1.162761	1.076239	-3.213151 
		-1.170886	1.001601	-2.899625 
		-1.170886	0.807778	-2.700094 
		-1.170886	0.588702	-2.610901 
		-1.156772	0.305144	-2.546011 
		-0.955786	0.245608	-2.501707 
		-1.170886	0.308074	-2.591769 
		-0.955786	0.250295	-1.312206 
		-1.072357	0.554009	-1.319598 
		-1.070668	0.383079	-1.317188 
		-1.111154	0.706829	-4.014815 
		-1.110904	0.368710	-4.014815 
		-1.130952	0.362922	-3.839771 
		0.000000	2.362452	-1.424568 
		0.000000	2.341628	-2.423447 
		0.000000	0.368710	-4.026689 
		0.000000	0.706829	-4.026689 
		-0.581758	1.656650	-3.378527 
		-0.592961	1.729233	-2.759709 
		0.000000	1.729233	-2.759708 
		0.000000	1.656650	-3.378527 
		-0.572742	1.543633	-3.970740 
		0.000000	1.543633	-3.970739 
		0.000000	0.920599	-4.036546 
		-0.573041	0.923061	-4.036407 
		-0.594056	1.591462	-3.356740 
		-0.605458	1.664940	-2.725625 
		0.000000	1.664940	-2.725625 
		-0.584935	1.482960	-3.954116 
		0.000000	0.905689	-4.015409 
		-0.585119	0.908259	-4.015264 
		-1.070669	0.378204	-2.350172 
		-0.955786	0.246198	-2.352073 
		-0.955786	0.706755	-2.358016 
		-1.071851	0.553877	-2.354049 
		-0.699918	1.050708	-3.687881 
		-0.730820	1.021369	-2.700094 
		-0.712601	0.368710	-3.846761 
		-0.726637	0.245846	-2.567841 
		0.000000	1.638542	-1.329208 
		-0.785248	0.891732	4.191601 
		-0.788035	0.250295	4.193558 
		0.000000	0.250295	4.193558 
		0.000000	0.889774	4.188006 
		-0.785249	0.891733	-1.314162 
		0.000000	0.889775	-1.317757 
		-0.788035	0.250295	-1.312206 
		-0.805227	0.947013	-3.998534 
		-0.998045	0.947013	-3.990076 
		-0.998045	0.812889	-4.005773 
		-0.805227	0.812889	-4.012716 
		0.703297	1.034898	-3.993964 
		0.690637	1.464932	-3.946878 
		0.842063	1.573434	-3.356740 
		0.836664	1.183789	-3.559946 
		0.914088	1.225748	-3.166795 
		0.927679	1.646911	-2.709543 
		0.955786	1.148322	-2.796917 
		0.955786	0.946843	-2.601081 
		0.955786	1.638542	-1.329251 
		0.955786	0.707175	-1.311178 
		0.810307	2.301181	-2.428258 
		0.815648	2.303437	-1.411011 
		1.130721	1.128333	-3.554048 
		1.108433	0.974870	-3.981538 
		1.142483	1.169382	-3.168714 
		1.151607	1.094935	-2.821048 
		1.153729	0.909617	-2.641668 
		0.955786	0.706697	-2.501334 
		1.153872	0.679766	-2.540081 
		1.162761	1.076239	-3.213151 
		1.149014	0.973193	-3.578929 
		1.170886	1.001601	-2.899625 
		1.170886	0.807778	-2.700094 
		1.170886	0.588702	-2.610901 
		1.130952	0.701041	-3.796835 
		0.955786	0.245608	-2.501707 
		1.156772	0.305144	-2.546011 
		1.170886	0.308074	-2.591769 
		0.955786	0.250295	-1.312206 
		1.070668	0.383079	-1.317188 
		1.072357	0.554009	-1.319598 
		1.130952	0.362922	-3.839771 
		1.110904	0.368710	-4.014815 
		1.111154	0.706829	-4.014815 
		0.581758	1.656650	-3.378527 
		0.592961	1.729233	-2.759709 
		0.572742	1.543633	-3.970740 
		0.573041	0.923061	-4.036407 
		0.585119	0.908259	-4.015264 
		0.804104	0.812889	-4.012755 
		0.989032	0.812889	-4.006099 
		0.594056	1.591462	-3.356740 
		0.605458	1.664940	-2.725625 
		0.584935	1.482960	-3.954116 
		0.955786	0.246198	-2.352073 
		1.070669	0.378204	-2.350172 
		0.955786	0.706755	-2.358016 
		1.071851	0.553877	-2.354049 
		0.699918	1.049615	-3.687881 
		0.730820	1.020275	-2.700094 
		0.726637	0.245846	-2.567841 
		0.712601	0.368710	-3.846761 
		0.785248	0.891732	4.191601 
		0.788035	0.250295	4.193558 
		0.785249	0.891733	-1.314162 
		0.788035	0.250295	-1.312206 
		0.989032	0.947013	-3.990475 
		0.804104	0.947013	-3.998581 
		1.094462	0.608088	4.229251 
		1.094462	0.775429	4.229251 
		0.759791	0.775430	4.229252 
		0.759791	0.608088	4.229251 
		0.759791	0.791761	4.116188 
		0.759791	0.591757	4.116188 
		1.094462	0.791761	4.116187 
		1.094462	0.591757	4.116187 
		-1.094462	0.608088	4.229251 
		-0.759791	0.608088	4.229251 
		-0.759791	0.775430	4.229252 
		-1.094462	0.775429	4.229251 
		-0.759791	0.591757	4.116188 
		-0.759791	0.791761	4.116188 
		-1.094462	0.791761	4.116187 
		-1.094462	0.591757	4.116187 
		-0.785249	1.638542	-0.986022 
		-0.785249	0.891733	-0.986022 
		0.000000	0.891733	-0.986022 
		0.000000	1.638542	-0.986022 
		-1.277257	0.435337	-0.986022 
		-0.967494	0.435337	-0.986022 
		0.000000	1.638542	-1.314162 
		-0.785249	1.638542	-1.314162 
		-1.277257	0.435337	-1.314162 
		-1.351076	0.357090	-1.314162 
		-0.928775	0.357090	-1.314162 
		-0.928775	0.357090	-0.945005 
		-1.351076	0.357090	-0.945005 
		-0.967494	0.435337	-1.314162 
		-0.785249	1.638542	4.118919 
		-0.785249	0.891733	4.118919 
		0.000000	0.891733	4.118919 
		0.000000	1.638542	4.118919 
		-1.277257	0.435337	4.118919 
		-0.967494	0.435337	4.118919 
		0.000000	1.638542	3.790779 
		-0.785249	1.638542	3.790779 
		-1.277257	0.435337	3.790779 
		-1.351076	0.357090	3.790779 
		-0.928775	0.357090	3.790779 
		-0.928775	0.357090	4.159936 
		-1.351076	0.357090	4.159936 
		-0.785249	0.891733	3.790779 
		-0.967494	0.435337	3.790779 
		0.000000	0.891733	3.790779 
		0.785249	1.638542	-0.986022 
		0.785249	0.891733	-0.986022 
		0.967494	0.435337	-0.986022 
		1.277257	0.435337	-0.986022 
		0.785249	1.638542	-1.314162 
		1.277257	0.435337	-1.314162 
		1.351076	0.357090	-1.314162 
		1.351076	0.357090	-0.945005 
		0.928775	0.357090	-0.945005 
		0.928775	0.357090	-1.314162 
		0.967494	0.435337	-1.314162 
		0.785249	1.638542	4.118919 
		0.785249	0.891733	4.118919 
		0.967494	0.435337	4.118919 
		1.277257	0.435337	4.118919 
		0.785249	1.638542	3.790779 
		1.277257	0.435337	3.790779 
		1.351076	0.357090	3.790779 
		1.351076	0.357090	4.159936 
		0.928775	0.357090	4.159936 
		0.928775	0.357090	3.790779 
		0.785249	0.891733	3.790779 
		0.967494	0.435337	3.790779 
		-0.500000	0.891733	3.227206 
		0.500000	0.891733	3.227206 
		0.500000	1.204670	3.227206 
		-0.500000	1.204670	3.227206 
		-0.500000	1.204670	0.218616 
		0.500000	1.204670	0.218616 
		0.500000	0.891733	0.218616 
		-0.500000	0.891733	0.218616 
		-1.476935	1.422853	3.637971 
		-1.476935	1.204670	3.637971 
		1.476935	1.204670	3.637971 
		1.476935	1.422853	3.637971 
		-1.476935	1.422853	-0.220145 
		1.476935	1.422853	-0.220145 
		-1.476935	1.204670	-0.220145 
		1.476935	1.204670	-0.220145 
		0.873985	0.739885	4.230402 
		0.818484	0.739885	4.230402 
		0.790734	0.691820	4.230402 
		0.901735	0.691820	4.230402 
		0.818484	0.643756	4.230402 
		0.873985	0.643755	4.230402 
		-0.873985	0.739885	4.230402 
		-0.901735	0.691820	4.230402 
		-0.790734	0.691820	4.230402 
		-0.818484	0.739885	4.230402 
		-0.873985	0.643755	4.230402 
		-0.818484	0.643756	4.230402 
	}

	Nrm 202 { 
		-0.390625	-0.703125	0.593750 
		-0.390625	0.703125	0.593750 
		-0.765625	0.546875	0.343750 
		-0.765625	-0.546875	0.343750 
		0.234375	0.890625	-0.375000 
		0.640625	0.000000	-0.765625 
		0.234375	-0.890625	-0.390625 
		-0.437500	-0.578125	-0.687500 
		-0.437500	0.578125	-0.687500 
		-0.484375	-0.312500	0.812500 
		0.359375	-0.703125	-0.609375 
		0.234375	0.890625	-0.390625 
		-0.500000	0.312500	0.812500 
		0.234375	-0.890625	-0.375000 
		0.375000	0.703125	-0.609375 
		0.390625	-0.703125	0.593750 
		0.765625	-0.546875	0.343750 
		0.765625	0.546875	0.343750 
		0.390625	0.703125	0.593750 
		-0.234375	0.890625	-0.375000 
		-0.640625	0.000000	-0.765625 
		-0.234375	-0.890625	-0.390625 
		0.437500	0.578125	-0.687500 
		0.437500	-0.578125	-0.687500 
		-0.359375	-0.703125	-0.609375 
		0.484375	-0.312500	0.812500 
		-0.234375	0.890625	-0.390625 
		-0.234375	-0.890625	-0.375000 
		0.500000	0.312500	0.812500 
		-0.375000	0.703125	-0.609375 
		-0.312500	0.328125	-0.890625 
		-0.968750	0.093750	-0.250000 
		-0.968750	0.093750	-0.203125 
		-0.515625	0.531250	-0.671875 
		-0.984375	0.093750	-0.156250 
		-1.000000	0.078125	-0.031250 
		-0.953125	0.187500	-0.234375 
		-1.000000	0.015625	0.015625 
		-1.000000	0.015625	0.000000 
		-1.000000	0.109375	-0.015625 
		-0.531250	0.687500	0.500000 
		-0.375000	0.687500	-0.625000 
		-0.187500	0.953125	-0.234375 
		-0.625000	0.343750	-0.703125 
		-0.734375	0.656250	-0.203125 
		-0.234375	0.968750	0.031250 
		-0.734375	0.687500	0.000000 
		-0.281250	0.843750	0.453125 
		-0.750000	0.578125	0.296875 
		-0.265625	0.531250	0.796875 
		-0.234375	0.187500	0.953125 
		-0.984375	0.109375	-0.078125 
		-1.000000	0.031250	-0.093750 
		-0.984375	0.187500	-0.031250 
		-0.984375	0.156250	0.062500 
		-0.984375	0.093750	0.125000 
		-0.984375	0.031250	0.203125 
		-0.203125	0.000000	0.984375 
		-0.968750	0.015625	0.250000 
		-0.031250	0.000000	1.000000 
		-0.062500	0.000000	1.000000 
		-0.546875	0.062500	-0.843750 
		-0.671875	0.000000	-0.734375 
		-1.000000	0.000000	-0.093750 
		0.000000	0.750000	0.656250 
		0.000000	0.843750	-0.546875 
		0.000000	0.000000	-1.000000 
		0.000000	0.031250	-1.000000 
		-0.640625	0.750000	-0.125000 
		-0.640625	0.765625	-0.093750 
		0.000000	1.000000	-0.109375 
		0.000000	0.984375	-0.156250 
		-0.656250	0.468750	-0.593750 
		0.000000	0.671875	-0.734375 
		0.000000	0.109375	-1.000000 
		-0.671875	0.734375	-0.125000 
		-0.671875	0.734375	-0.093750 
		0.000000	0.468750	0.890625 
		-0.687500	0.437500	-0.578125 
		0.000000	-0.812500	-0.578125 
		-0.875000	0.046875	-0.468750 
		-0.750000	-0.656250	0.000000 
		-0.937500	-0.359375	0.000000 
		-1.000000	0.000000	0.000000 
		-0.031250	-0.015625	-1.000000 
		0.265625	-0.796875	0.546875 
		0.171875	-0.640625	0.750000 
		0.234375	-0.937500	0.265625 
		0.265625	-0.531250	-0.796875 
		0.156250	-0.906250	-0.406250 
		0.140625	-0.625000	-0.765625 
		-0.031250	-1.000000	-0.078125 
		0.078125	-0.265625	-0.968750 
		0.125000	-0.406250	0.906250 
		-0.031250	-0.187500	0.984375 
		-0.015625	-0.140625	-0.984375 
		-0.796875	0.609375	0.000000 
		-0.953125	0.312500	0.000000 
		0.000000	0.046875	1.000000 
		0.000000	0.078125	1.000000 
		0.000000	0.703125	0.703125 
		0.000000	-0.703125	0.703125 
		0.000000	0.015625	1.000000 
		0.015625	0.000000	1.000000 
		0.000000	1.000000	0.000000 
		-0.031250	0.406250	-0.906250 
		0.000000	0.421875	-0.906250 
		-0.078125	0.984375	-0.156250 
		-0.062500	0.984375	-0.125000 
		-0.046875	0.078125	-1.000000 
		-0.046875	0.109375	-1.000000 
		-0.031250	0.093750	-1.000000 
		-0.046875	0.125000	-0.984375 
		-0.031250	0.062500	-1.000000 
		0.312500	0.328125	-0.890625 
		0.515625	0.531250	-0.671875 
		0.968750	0.093750	-0.203125 
		0.968750	0.093750	-0.250000 
		0.984375	0.093750	-0.156250 
		0.953125	0.187500	-0.234375 
		1.000000	0.078125	-0.031250 
		1.000000	0.015625	0.015625 
		1.000000	0.109375	-0.015625 
		1.000000	0.015625	0.000000 
		0.375000	0.687500	-0.625000 
		0.531250	0.687500	0.500000 
		0.187500	0.953125	-0.234375 
		0.734375	0.656250	-0.203125 
		0.625000	0.343750	-0.703125 
		0.234375	0.968750	0.031250 
		0.734375	0.687500	0.000000 
		0.281250	0.843750	0.453125 
		0.750000	0.578125	0.296875 
		0.265625	0.531250	0.796875 
		0.234375	0.187500	0.953125 
		0.984375	0.187500	-0.031250 
		0.984375	0.109375	-0.078125 
		0.984375	0.156250	0.062500 
		0.984375	0.093750	0.125000 
		0.984375	0.031250	0.203125 
		1.000000	0.031250	-0.093750 
		0.203125	0.000000	0.984375 
		0.968750	0.015625	0.250000 
		0.031250	0.000000	1.000000 
		0.062500	0.000000	1.000000 
		1.000000	0.000000	-0.093750 
		0.671875	0.000000	-0.734375 
		0.546875	0.062500	-0.843750 
		0.640625	0.750000	-0.125000 
		0.640625	0.765625	-0.093750 
		0.656250	0.468750	-0.593750 
		0.046875	0.078125	-1.000000 
		0.031250	0.062500	-1.000000 
		0.015625	0.062500	-1.000000 
		0.671875	0.734375	-0.125000 
		0.671875	0.734375	-0.093750 
		0.687500	0.437500	-0.578125 
		0.875000	0.046875	-0.468750 
		0.750000	-0.656250	0.000000 
		0.937500	-0.359375	0.000000 
		1.000000	0.000000	0.000000 
		0.031250	-0.015625	-1.000000 
		-0.265625	-0.796875	0.546875 
		0.171875	-0.812500	0.562500 
		-0.125000	-0.406250	0.906250 
		-0.093750	-0.984375	0.093750 
		-0.156250	-0.906250	-0.406250 
		-0.265625	-0.531250	-0.796875 
		0.156250	-0.625000	-0.765625 
		-0.078125	-0.265625	-0.968750 
		0.015625	-0.140625	-0.984375 
		0.031250	-0.187500	0.984375 
		1.000000	0.000000	-0.015625 
		0.796875	0.609375	0.000000 
		0.953125	0.312500	0.000000 
		-0.015625	0.000000	1.000000 
		0.031250	0.406250	-0.906250 
		0.078125	0.984375	-0.156250 
		0.062500	0.984375	-0.125000 
		0.046875	0.109375	-1.000000 
		0.046875	0.125000	-0.984375 
		0.000000	0.000000	1.000000 
		0.000000	-0.984375	0.140625 
		0.000000	0.984375	0.140625 
		-0.921875	0.375000	0.000000 
		0.000000	-1.000000	0.000000 
		0.921875	-0.375000	0.000000 
		0.890625	0.437500	0.000000 
		0.921875	0.375000	0.000000 
		-0.921875	-0.375000	0.000000 
		-0.890625	0.437500	0.000000 
		-1.000000	0.000000	-0.015625 
		0.000000	-1.000000	-0.031250 
		0.000000	-1.000000	-0.015625 
		-0.031250	-1.000000	-0.062500 
		-0.015625	-1.000000	0.000000 
		-0.078125	-0.984375	-0.156250 
		-0.140625	-0.937500	-0.312500 
		0.031250	-1.000000	-0.062500 
		0.078125	-0.984375	-0.156250 
		0.015625	-1.000000	0.000000 
		0.140625	-0.937500	-0.312500 
	}

	Cpv 615 { 
		0.435011	0.500000	0.371911	0.000000 
		0.435011	0.500000	0.371911	0.000000 
		0.500000	0.500000	0.500000	0.000000 
		0.500000	0.500000	0.500000	0.000000 
		0.435011	0.500000	0.371911	0.000000 
		0.500000	0.500000	0.500000	0.000000 
		0.500000	0.500000	0.500000	0.000000 
		0.435011	0.500000	0.371911	0.000000 
		0.500000	0.500000	0.500000	0.000000 
		0.500000	0.500000	0.500000	0.000000 
		0.435011	0.500000	0.371911	0.000000 
		0.500000	0.500000	0.500000	0.000000 
		0.500000	0.500000	0.500000	0.000000 
		0.435011	0.500000	0.371911	0.000000 
		0.500000	0.500000	0.500000	0.000000 
		0.500000	0.500000	0.500000	0.000000 
		0.500000	0.500000	0.500000	0.000000 
		0.500000	0.500000	0.500000	0.000000 
		0.500000	0.500000	0.500000	0.000000 
		0.500000	0.500000	0.500000	0.000000 
		0.500000	0.500000	0.500000	0.000000 
		0.500000	0.500000	0.500000	0.000000 
		0.500000	0.500000	0.500000	0.000000 
		0.500000	0.500000	0.500000	0.000000 
		0.500000	0.500000	0.500000	0.000000 
		0.500000	0.500000	0.500000	0.000000 
		0.500000	0.500000	0.500000	0.000000 
		0.500000	0.500000	0.500000	0.000000 
		0.500000	0.500000	0.500000	0.000000 
		0.500000	0.500000	0.500000	0.000000 
		0.609350	0.503922	0.535522	0.000000 
		0.523163	0.496802	0.461638	0.000000 
		0.560729	0.495260	0.461638	0.000000 
		0.646916	0.502380	0.535522	0.000000 
		0.646916	0.502380	0.535522	0.000000 
		0.560729	0.495260	0.461638	0.000000 
		0.552936	0.497063	0.471917	0.000000 
		0.609350	0.503922	0.535522	0.000000 
		0.516779	0.498547	0.471917	0.000000 
		0.515370	0.498604	0.471917	0.000000 
		0.609350	0.503922	0.535522	0.000000 
		0.515370	0.498604	0.471917	0.000000 
		0.523163	0.496802	0.461638	0.000000 
		0.646916	0.502380	0.535522	0.000000 
		0.552936	0.497063	0.471917	0.000000 
		0.551477	0.497123	0.471917	0.000000 
		0.516779	0.498547	0.471917	0.000000 
		0.551477	0.497123	0.471917	0.000000 
		0.523163	0.496802	0.461638	0.000000 
		0.515370	0.498604	0.471917	0.000000 
		0.500000	0.500000	0.500000	0.000000 
		0.500000	0.500000	0.500000	0.000000 
		0.516779	0.498547	0.471917	0.000000 
		0.500000	0.500000	0.500000	0.000000 
		0.560729	0.495260	0.461638	0.000000 
		0.551477	0.497123	0.471917	0.000000 
		0.500000	0.500000	0.500000	0.000000 
		0.500000	0.500000	0.500000	0.000000 
		0.552936	0.497063	0.471917	0.000000 
		0.500000	0.500000	0.500000	0.000000 
		0.500000	0.500000	0.500000	0.000000 
		0.626009	0.500000	0.500000	0.000000 
		0.626009	0.500000	0.500000	0.000000 
		0.500000	0.500000	0.500000	0.000000 
		0.626009	0.500000	0.500000	0.000000 
		0.500000	0.500000	0.500000	0.000000 
		0.500000	0.500000	0.500000	0.000000 
		0.500000	0.500000	0.500000	0.000000 
		0.500000	0.500000	0.500000	0.000000 
		0.500000	0.500000	0.500000	0.000000 
		0.500000	0.432214	0.500000	0.003922 
		0.500000	0.432214	0.500000	0.003922 
		0.626009	0.500000	0.500000	0.000000 
		0.500000	0.500000	0.500000	0.000000 
		0.564343	0.500000	0.500000	0.000000 
		0.626009	0.500000	0.500000	0.000000 
		0.626009	0.500000	0.500000	0.000000 
		0.626009	0.500000	0.500000	0.000000 
		0.500000	0.500000	0.500000	0.000000 
		0.500000	0.500000	0.500000	0.000000 
		0.500000	0.500000	0.500000	0.000000 
		0.500000	0.500000	0.500000	0.000000 
		0.500000	0.500000	0.500000	0.000000 
		0.500000	0.500000	0.500000	0.000000 
		0.626009	0.500000	0.500000	0.000000 
		0.564343	0.500000	0.500000	0.000000 
		0.626009	0.500000	0.500000	0.000000 
		0.500000	0.500000	0.500000	0.000000 
		0.500000	0.500000	0.500000	0.000000 
		0.500000	0.500000	0.500000	0.000000 
		0.500000	0.500000	0.500000	0.000000 
		0.500000	0.500000	0.500000	0.000000 
		0.500000	0.500000	0.500000	0.000000 
		0.500000	0.500000	0.500000	0.000000 
		0.500000	0.500000	0.500000	0.000000 
		0.500000	0.500000	0.500000	0.000000 
		0.500000	0.500000	0.500000	0.000000 
		0.500000	0.500000	0.500000	0.000000 
		0.500000	0.500000	0.500000	0.000000 
		0.500000	0.500000	0.500000	0.000000 
		0.564343	0.500000	0.500000	0.000000 
		0.564343	0.500000	0.500000	0.000000 
		0.564343	0.500000	0.500000	0.000000 
		0.500000	0.432214	0.500000	0.003922 
		0.500000	0.432214	0.500000	0.003922 
		0.500000	0.500000	0.500000	0.003922 
		0.500000	0.500000	0.500000	0.003922 
		0.500000	0.500000	0.619606	0.000000 
		0.564343	0.500000	0.500000	0.000000 
		0.564343	0.500000	0.500000	0.000000 
		0.500000	0.500000	0.619606	0.000000 
		0.500000	0.500000	0.500000	0.000000 
		0.500000	0.500000	0.500000	0.000000 
		0.500000	0.500000	0.500000	0.000000 
		0.500000	0.500000	0.500000	0.000000 
		0.500000	0.500000	0.500000	0.000000 
		0.500000	0.500000	0.619606	0.000000 
		0.500000	0.500000	0.619606	0.000000 
		0.500000	0.500000	0.500000	0.000000 
		0.500000	0.500000	0.500000	0.000000 
		0.500000	0.500000	0.500000	0.000000 
		0.500000	0.500000	0.500000	0.000000 
		0.500000	0.500000	0.500000	0.000000 
		0.500000	0.500000	0.500000	0.000000 
		0.500000	0.500000	0.500000	0.000000 
		0.500000	0.500000	0.500000	0.000000 
		0.500000	0.500000	0.619606	0.000000 
		0.500000	0.500000	0.500000	0.000000 
		0.500000	0.500000	0.500000	0.000000 
		0.500000	0.500000	0.619606	0.000000 
		0.500000	0.500000	0.500000	0.000000 
		0.500000	0.500000	0.500000	0.000000 
		0.500000	0.500000	0.500000	0.000000 
		0.500000	0.500000	0.500000	0.000000 
		0.500000	0.500000	0.500000	0.000000 
		0.500000	0.500000	0.500000	0.000000 
		0.500000	0.500000	0.500000	0.000000 
		0.500000	0.500000	0.500000	0.000000 
		0.500000	0.500000	0.500000	0.000000 
		0.500000	0.500000	0.500000	0.000000 
		0.500000	0.500000	0.500000	0.000000 
		0.500000	0.500000	0.500000	0.000000 
		0.500000	0.500000	0.500000	0.000000 
		0.500000	0.500000	0.500000	0.000000 
		0.500000	0.500000	0.500000	0.000000 
		0.500000	0.500000	0.500000	0.000000 
		0.626009	0.500000	0.500000	0.000000 
		0.500000	0.500000	0.500000	0.000000 
		0.626009	0.500000	0.500000	0.000000 
		0.500000	0.500000	0.500000	0.000000 
		0.500000	0.500000	0.500000	0.000000 
		0.500000	0.500000	0.500000	0.000000 
		0.626009	0.500000	0.500000	0.000000 
		0.500000	0.500000	0.500000	0.000000 
		0.500000	0.500000	0.500000	0.000000 
		0.500000	0.500000	0.500000	0.000000 
		0.564343	0.500000	0.500000	0.000000 
		0.564343	0.500000	0.500000	0.000000 
		0.500000	0.500000	0.500000	0.000000 
		0.500000	0.500000	0.500000	0.000000 
		0.500000	0.500000	0.500000	0.000000 
		0.500000	0.500000	0.500000	0.000000 
		0.500000	0.500000	0.500000	0.000000 
		0.500000	0.500000	0.500000	0.000000 
		0.500000	0.500000	0.500000	0.000000 
		0.500000	0.432214	0.500000	0.003922 
		0.500000	0.500000	0.500000	0.000000 
		0.500000	0.500000	0.500000	0.000000 
		0.500000	0.500000	0.500000	0.003922 
		0.500000	0.500000	0.500000	0.000000 
		0.500000	0.611801	0.500000	0.000000 
		0.500000	0.644707	0.500000	0.000000 
		0.500000	0.583180	0.500000	0.000000 
		0.500000	0.500000	0.500000	0.000000 
		0.500000	0.500000	0.500000	0.000000 
		0.500000	0.500000	0.500000	0.000000 
		0.500000	0.500000	0.500000	0.000000 
		0.500000	0.500000	0.500000	0.000000 
		0.500000	0.500000	0.500000	0.000000 
		0.500000	0.500000	0.500000	0.000000 
		0.500000	0.500000	0.500000	0.000000 
		0.500000	0.500000	0.500000	0.000000 
		0.500000	0.611801	0.500000	0.000000 
		0.500000	0.500000	0.500000	0.000000 
		0.500000	0.500000	0.500000	0.000000 
		0.500000	0.500000	0.500000	0.000000 
		0.500000	0.500000	0.500000	0.000000 
		0.500000	0.583180	0.500000	0.000000 
		0.500000	0.500000	0.500000	0.000000 
		0.500000	0.500000	0.500000	0.000000 
		0.626009	0.500000	0.500000	0.000000 
		0.500000	0.500000	0.500000	0.000000 
		0.500000	0.500000	0.500000	0.000000 
		0.500000	0.500000	0.500000	0.000000 
		0.500000	0.500000	0.500000	0.000000 
		0.500000	0.500000	0.500000	0.000000 
		0.564343	0.500000	0.500000	0.000000 
		0.500000	0.500000	0.500000	0.000000 
		0.500000	0.500000	0.500000	0.000000 
		0.500000	0.500000	0.500000	0.000000 
		0.500000	0.500000	0.500000	0.000000 
		0.500000	0.500000	0.500000	0.000000 
		0.500000	0.500000	0.500000	0.000000 
		0.500000	0.500000	0.500000	0.000000 
		0.500000	0.500000	0.500000	0.000000 
		0.500000	0.500000	0.500000	0.000000 
		0.500000	0.500000	0.500000	0.000000 
		0.500000	0.500000	0.500000	0.000000 
		0.500000	0.500000	0.500000	0.000000 
		0.500000	0.500000	0.500000	0.000000 
		0.500000	0.500000	0.500000	0.000000 
		0.500000	0.500000	0.500000	0.000000 
		0.500000	0.500000	0.500000	0.003922 
		0.500000	0.500000	0.500000	0.003922 
		0.500000	0.500000	0.500000	0.000000 
		0.500000	0.500000	0.500000	0.000000 
		0.500000	0.500000	0.500000	0.000000 
		0.500000	0.500000	0.500000	0.000000 
		0.500000	0.500000	0.500000	0.000000 
		0.500000	0.500000	0.500000	0.000000 
		0.500000	0.500000	0.500000	0.000000 
		0.500000	0.500000	0.500000	0.000000 
		0.500000	0.500000	0.500000	0.000000 
		0.500000	0.500000	0.500000	0.000000 
		0.500000	0.500000	0.500000	0.000000 
		0.500000	0.500000	0.500000	0.000000 
		0.500000	0.500000	0.500000	0.000000 
		0.500000	0.500000	0.500000	0.000000 
		0.500000	0.500000	0.500000	0.000000 
		0.500000	0.500000	0.500000	0.000000 
		0.500000	0.500000	0.500000	0.000000 
		0.500000	0.500000	0.500000	0.000000 
		0.500000	0.500000	0.500000	0.000000 
		0.500000	0.500000	0.500000	0.000000 
		0.500000	0.500000	0.500000	0.000000 
		0.500000	0.500000	0.500000	0.000000 
		0.500000	0.500000	0.500000	0.000000 
		0.500000	0.500000	0.500000	0.000000 
		0.500000	0.500000	0.500000	0.000000 
		0.500000	0.500000	0.500000	0.000000 
		0.500000	0.500000	0.500000	0.000000 
		0.500000	0.500000	0.500000	0.000000 
		0.500000	0.500000	0.500000	0.000000 
		0.500000	0.500000	0.500000	0.000000 
		0.500000	0.500000	0.500000	0.000000 
		0.500000	0.500000	0.500000	0.003922 
		0.500000	0.500000	0.500000	0.003922 
		0.500000	0.500000	0.500000	0.000000 
		0.500000	0.500000	0.500000	0.000000 
		0.500000	0.500000	0.500000	0.000000 
		0.500000	0.500000	0.500000	0.000000 
		0.500000	0.500000	0.500000	0.000000 
		0.500000	0.500000	0.500000	0.000000 
		0.500000	0.500000	0.500000	0.000000 
		0.500000	0.500000	0.500000	0.000000 
		0.500000	0.500000	0.619606	0.000000 
		0.500000	0.500000	0.500000	0.000000 
		0.500000	0.500000	0.500000	0.000000 
		0.500000	0.500000	0.500000	0.000000 
		0.500000	0.500000	0.500000	0.000000 
		0.500000	0.500000	0.500000	0.000000 
		0.500000	0.500000	0.500000	0.000000 
		0.500000	0.500000	0.500000	0.000000 
		0.500000	0.500000	0.500000	0.000000 
		0.500000	0.500000	0.500000	0.000000 
		0.500000	0.500000	0.500000	0.000000 
		0.500000	0.500000	0.500000	0.000000 
		0.500000	0.500000	0.500000	0.000000 
		0.500000	0.500000	0.500000	0.000000 
		0.500000	0.500000	0.500000	0.000000 
		0.500000	0.500000	0.500000	0.000000 
		0.500000	0.500000	0.500000	0.000000 
		0.500000	0.500000	0.500000	0.000000 
		0.500000	0.500000	0.500000	0.000000 
		0.500000	0.500000	0.500000	0.000000 
		0.500000	0.500000	0.500000	0.000000 
		0.500000	0.500000	0.500000	0.000000 
		0.500000	0.500000	0.500000	0.000000 
		0.500000	0.500000	0.500000	0.000000 
		0.500000	0.500000	0.500000	0.000000 
		0.500000	0.500000	0.500000	0.000000 
		0.500000	0.500000	0.500000	0.000000 
		0.500000	0.500000	0.500000	0.000000 
		0.500000	0.500000	0.500000	0.000000 
		0.500000	0.500000	0.500000	0.000000 
		0.500000	0.500000	0.500000	0.000000 
		0.500000	0.500000	0.500000	0.000000 
		0.500000	0.500000	0.500000	0.000000 
		0.500000	0.500000	0.500000	0.000000 
		0.500000	0.500000	0.500000	0.000000 
		0.500000	0.500000	0.500000	0.000000 
		0.500000	0.500000	0.500000	0.000000 
		0.500000	0.500000	0.500000	0.000000 
		0.500000	0.500000	0.500000	0.000000 
		0.500000	0.500000	0.500000	0.000000 
		0.500000	0.500000	0.500000	0.000000 
		0.500000	0.500000	0.500000	0.000000 
		0.500000	0.500000	0.500000	0.000000 
		0.500000	0.500000	0.500000	0.003922 
		0.500000	0.500000	0.500000	0.000000 
		0.500000	0.500000	0.500000	0.000000 
		0.500000	0.500000	0.500000	0.000000 
		0.500000	0.500000	0.500000	0.000000 
		0.500000	0.500000	0.500000	0.000000 
		0.500000	0.500000	0.500000	0.000000 
		0.500000	0.500000	0.500000	0.000000 
		0.500000	0.500000	0.500000	0.000000 
		0.500000	0.500000	0.500000	0.000000 
		0.500000	0.500000	0.500000	0.000000 
		0.500000	0.500000	0.500000	0.000000 
		0.500000	0.500000	0.500000	0.000000 
		0.500000	0.500000	0.500000	0.000000 
		0.500000	0.500000	0.500000	0.000000 
		0.500000	0.500000	0.500000	0.000000 
		0.500000	0.500000	0.500000	0.000000 
		0.500000	0.500000	0.500000	0.000000 
		0.500000	0.500000	0.500000	0.000000 
		0.500000	0.500000	0.500000	0.000000 
		0.500000	0.500000	0.500000	0.000000 
		0.500000	0.500000	0.500000	0.000000 
		0.500000	0.500000	0.500000	0.000000 
		0.500000	0.500000	0.500000	0.000000 
		0.500000	0.500000	0.500000	0.000000 
		0.500000	0.500000	0.500000	0.000000 
		0.500000	0.500000	0.500000	0.000000 
		0.500000	0.500000	0.500000	0.000000 
		0.500000	0.500000	0.500000	0.000000 
		0.500000	0.500000	0.500000	0.000000 
		0.500000	0.500000	0.500000	0.000000 
		0.500000	0.500000	0.500000	0.000000 
		0.500000	0.500000	0.500000	0.000000 
		0.500000	0.500000	0.500000	0.000000 
		0.500000	0.500000	0.500000	0.000000 
		0.500000	0.500000	0.500000	0.000000 
		0.500000	0.500000	0.500000	0.000000 
		0.500000	0.500000	0.500000	0.000000 
		0.500000	0.500000	0.500000	0.000000 
		0.500000	0.500000	0.500000	0.000000 
		0.500000	0.500000	0.500000	0.000000 
		0.500000	0.500000	0.500000	0.000000 
		0.500000	0.500000	0.500000	0.000000 
		0.500000	0.500000	0.500000	0.000000 
		0.500000	0.500000	0.500000	0.000000 
		0.517722	0.471341	0.500000	0.000000 
		0.512294	0.531373	0.500000	0.000000 
		0.482278	0.528659	0.500000	0.000000 
		0.487706	0.468627	0.500000	0.000000 
		0.482278	0.528659	0.500000	0.000000 
		0.512294	0.531373	0.500000	0.000000 
		0.515224	0.531638	0.500000	0.000000 
		0.479348	0.528394	0.500000	0.000000 
		0.484776	0.468362	0.500000	0.000000 
		0.520652	0.471606	0.500000	0.000000 
		0.517722	0.471341	0.500000	0.000000 
		0.487706	0.468627	0.500000	0.000000 
		0.517722	0.471341	0.500000	0.000000 
		0.520652	0.471606	0.500000	0.000000 
		0.515224	0.531638	0.500000	0.000000 
		0.512294	0.531373	0.500000	0.000000 
		0.484776	0.468362	0.500000	0.000000 
		0.487706	0.468627	0.500000	0.000000 
		0.482278	0.528659	0.500000	0.000000 
		0.479348	0.528394	0.500000	0.000000 
		0.500000	0.500000	0.500000	0.000000 
		0.500000	0.500000	0.500000	0.000000 
		0.500000	0.500000	0.500000	0.000000 
		0.500000	0.500000	0.500000	0.000000 
		0.500000	0.500000	0.500000	0.000000 
		0.500000	0.500000	0.500000	0.000000 
		0.500000	0.500000	0.500000	0.000000 
		0.500000	0.500000	0.500000	0.000000 
		0.500000	0.500000	0.500000	0.000000 
		0.500000	0.500000	0.500000	0.000000 
		0.500000	0.500000	0.500000	0.000000 
		0.500000	0.500000	0.500000	0.000000 
		0.500000	0.500000	0.500000	0.000000 
		0.500000	0.500000	0.500000	0.000000 
		0.500000	0.500000	0.500000	0.000000 
		0.500000	0.500000	0.500000	0.000000 
		0.500000	0.500000	0.500000	0.000000 
		0.500000	0.500000	0.500000	0.000000 
		0.500000	0.500000	0.500000	0.000000 
		0.500000	0.500000	0.500000	0.000000 
		0.500000	0.500000	0.500000	0.000000 
		0.500000	0.500000	0.500000	0.000000 
		0.500000	0.500000	0.500000	0.000000 
		0.500000	0.500000	0.500000	0.000000 
		0.500000	0.500000	0.500000	0.000000 
		0.500000	0.500000	0.500000	0.000000 
		0.500000	0.500000	0.500000	0.000000 
		0.500000	0.500000	0.500000	0.000000 
		0.500000	0.500000	0.500000	0.000000 
		0.500000	0.500000	0.500000	0.000000 
		0.500000	0.500000	0.500000	0.000000 
		0.500000	0.500000	0.500000	0.000000 
		0.500000	0.500000	0.500000	0.000000 
		0.500000	0.500000	0.500000	0.000000 
		0.500000	0.500000	0.500000	0.000000 
		0.500000	0.500000	0.500000	0.000000 
		0.500000	0.500000	0.500000	0.000000 
		0.500000	0.500000	0.500000	0.000000 
		0.500000	0.500000	0.500000	0.000000 
		0.500000	0.500000	0.500000	0.000000 
		0.500000	0.500000	0.500000	0.000000 
		0.500000	0.500000	0.500000	0.000000 
		0.500000	0.500000	0.500000	0.000000 
		0.500000	0.500000	0.500000	0.000000 
		0.500000	0.583180	0.500000	0.000000 
		0.500000	0.500000	0.500000	0.000000 
		0.500000	0.500000	0.500000	0.000000 
		0.500000	0.500000	0.500000	0.000000 
		0.500000	0.500000	0.500000	0.000000 
		0.500000	0.500000	0.500000	0.000000 
		0.500000	0.500000	0.500000	0.000000 
		0.500000	0.500000	0.500000	0.000000 
		0.500000	0.500000	0.500000	0.000000 
		0.500000	0.500000	0.500000	0.000000 
		0.500000	0.500000	0.500000	0.000000 
		0.500000	0.500000	0.500000	0.000000 
		0.500000	0.500000	0.500000	0.000000 
		0.500000	0.500000	0.500000	0.000000 
		0.500000	0.500000	0.500000	0.000000 
		0.500000	0.500000	0.500000	0.000000 
		0.500000	0.500000	0.500000	0.000000 
		0.500000	0.500000	0.500000	0.000000 
		0.500000	0.500000	0.500000	0.000000 
		0.500000	0.500000	0.500000	0.000000 
		0.500000	0.500000	0.500000	0.000000 
		0.500000	0.500000	0.500000	0.000000 
		0.500000	0.500000	0.500000	0.000000 
		0.500000	0.500000	0.500000	0.000000 
		0.500000	0.500000	0.500000	0.000000 
		0.500000	0.500000	0.500000	0.000000 
		0.500000	0.500000	0.500000	0.000000 
		0.500000	0.500000	0.500000	0.000000 
		0.500000	0.500000	0.500000	0.000000 
		0.500000	0.500000	0.500000	0.000000 
		0.500000	0.500000	0.500000	0.000000 
		0.500000	0.500000	0.500000	0.000000 
		0.500000	0.500000	0.500000	0.000000 
		0.500000	0.500000	0.500000	0.000000 
		0.500000	0.500000	0.500000	0.000000 
		0.500000	0.500000	0.500000	0.000000 
		0.500000	0.500000	0.500000	0.000000 
		0.500000	0.500000	0.500000	0.000000 
		0.500000	0.500000	0.500000	0.000000 
		0.500000	0.500000	0.500000	0.000000 
		0.500000	0.500000	0.500000	0.000000 
		0.500000	0.500000	0.500000	0.000000 
		0.500000	0.500000	0.500000	0.000000 
		0.500000	0.500000	0.500000	0.000000 
		0.482802	0.483436	0.551701	0.000000 
		0.468580	0.576219	0.551701	0.000000 
		0.500000	0.500000	0.500000	0.000000 
		0.500000	0.500000	0.500000	0.000000 
		0.500000	0.500000	0.500000	0.000000 
		0.468580	0.576219	0.551701	0.000000 
		0.496325	0.487844	0.565046	0.000000 
		0.500000	0.500000	0.500000	0.000000 
		0.515420	0.516584	0.587134	0.000000 
		0.484207	0.616006	0.572121	0.000000 
		0.503596	0.489513	0.572121	0.000000 
		0.534809	0.390091	0.587134	0.000000 
		0.500000	0.500000	0.500000	0.000000 
		0.500000	0.500000	0.500000	0.000000 
		0.496325	0.487844	0.565046	0.000000 
		0.510547	0.395060	0.565046	0.000000 
		0.500000	0.500000	0.500000	0.000000 
		0.510547	0.395060	0.565046	0.000000 
		0.482802	0.483436	0.551701	0.000000 
		0.500000	0.500000	0.500000	0.000000 
		0.496325	0.487844	0.565046	0.000000 
		0.515420	0.516584	0.587134	0.000000 
		0.534809	0.390091	0.587134	0.000000 
		0.510547	0.395060	0.565046	0.000000 
		0.510547	0.395060	0.565046	0.000000 
		0.534809	0.390091	0.587134	0.000000 
		0.503596	0.489513	0.572121	0.000000 
		0.482802	0.483436	0.551701	0.000000 
		0.482802	0.483436	0.551701	0.000000 
		0.503596	0.489513	0.572121	0.000000 
		0.484207	0.616006	0.572121	0.000000 
		0.468580	0.576219	0.551701	0.000000 
		0.468580	0.576219	0.551701	0.000000 
		0.484207	0.616006	0.572121	0.000000 
		0.515420	0.516584	0.587134	0.000000 
		0.496325	0.487844	0.565046	0.000000 
		0.500000	0.500000	0.500000	0.000000 
		0.500000	0.500000	0.500000	0.000000 
		0.500000	0.500000	0.500000	0.000000 
		0.500000	0.578289	0.500000	0.000000 
		0.500000	0.500000	0.500000	0.000000 
		0.500000	0.500000	0.500000	0.000000 
		0.500000	0.500000	0.500000	0.000000 
		0.500000	0.578289	0.500000	0.000000 
		0.500000	0.578289	0.500000	0.000000 
		0.500000	0.500000	0.500000	0.000000 
		0.500000	0.578289	0.500000	0.000000 
		0.500000	0.578289	0.500000	0.000000 
		0.500000	0.500000	0.500000	0.000000 
		0.500000	0.500000	0.500000	0.000000 
		0.500000	0.500000	0.500000	0.000000 
		0.500000	0.500000	0.500000	0.000000 
		0.500000	0.578289	0.500000	0.000000 
		0.500000	0.500000	0.500000	0.000000 
		0.500000	0.500000	0.500000	0.000000 
		0.500000	0.500000	0.500000	0.000000 
		0.500000	0.500000	0.500000	0.000000 
		0.500000	0.500000	0.500000	0.000000 
		0.500000	0.578289	0.500000	0.000000 
		0.500000	0.578289	0.500000	0.000000 
		0.500000	0.500000	0.500000	0.000000 
		0.500000	0.500000	0.500000	0.000000 
		0.500000	0.500000	0.500000	0.000000 
		0.500000	0.500000	0.500000	0.000000 
		0.500000	0.500000	0.500000	0.000000 
		0.500000	0.500000	0.500000	0.000000 
		0.500000	0.500000	0.500000	0.000000 
		0.500000	0.500000	0.500000	0.000000 
		0.500000	0.578289	0.500000	0.000000 
		0.500000	0.578289	0.500000	0.000000 
		0.500000	0.578289	0.500000	0.000000 
		0.500000	0.578289	0.500000	0.000000 
		0.500000	0.578289	0.500000	0.000000 
		0.500000	0.578289	0.500000	0.000000 
		0.500000	0.500000	0.500000	0.000000 
		0.500000	0.500000	0.500000	0.000000 
		0.500000	0.500000	0.500000	0.000000 
		0.500000	0.500000	0.500000	0.000000 
		0.500000	0.500000	0.500000	0.000000 
		0.500000	0.500000	0.500000	0.000000 
		0.500000	0.500000	0.500000	0.000000 
		0.500000	0.500000	0.500000	0.000000 
		0.500000	0.500000	0.500000	0.000000 
		0.500000	0.500000	0.500000	0.000000 
		0.500000	0.500000	0.500000	0.000000 
		0.500000	0.500000	0.500000	0.000000 
		0.500000	0.500000	0.500000	0.000000 
		0.500000	0.500000	0.500000	0.000000 
		0.500000	0.500000	0.500000	0.000000 
		0.500000	0.500000	0.500000	0.000000 
		0.500000	0.500000	0.500000	0.000000 
		0.500000	0.500000	0.500000	0.000000 
		0.500000	0.500000	0.500000	0.000000 
		0.500000	0.500000	0.500000	0.000000 
		0.500000	0.500000	0.500000	0.000000 
		0.500000	0.500000	0.500000	0.000000 
		0.500000	0.500000	0.500000	0.000000 
		0.263403	0.370144	0.500000	0.000000 
		0.500000	0.500000	0.500000	0.000000 
		0.500000	0.500000	0.500000	0.000000 
		0.263403	0.370144	0.500000	0.000000 
		0.263403	0.370144	0.500000	0.000000 
		0.500000	0.500000	0.500000	0.000000 
		0.500000	0.500000	0.500000	0.000000 
		0.263403	0.370144	0.500000	0.000000 
		0.500000	0.500000	0.500000	0.000000 
		0.500000	0.500000	0.500000	0.000000 
		0.500000	0.500000	0.500000	0.000000 
		0.500000	0.500000	0.500000	0.000000 
		0.500000	0.500000	0.500000	0.000000 
		0.263403	0.370144	0.500000	0.000000 
		0.263403	0.370144	0.500000	0.000000 
		0.500000	0.500000	0.500000	0.000000 
		0.500000	0.500000	0.500000	0.000000 
		0.500000	0.500000	0.500000	0.000000 
		0.500000	0.500000	0.500000	0.000000 
		0.500000	0.500000	0.500000	0.000000 
		0.500000	0.500000	0.500000	0.000000 
		0.500000	0.500000	0.500000	0.000000 
		0.626009	0.500000	0.500000	0.000000 
		0.564343	0.500000	0.500000	0.000000 
		0.500000	0.500000	0.500000	0.000000 
		0.564343	0.500000	0.500000	0.000000 
		0.564343	0.500000	0.500000	0.000000 
		0.500000	0.500000	0.619606	0.000000 
		0.500000	0.500000	0.500000	0.000000 
		0.500000	0.500000	0.500000	0.000000 
		0.500000	0.500000	0.500000	0.000000 
		0.500000	0.644707	0.500000	0.000000 
		0.500000	0.500000	0.500000	0.000000 
		0.500000	0.500000	0.500000	0.000000 
		0.500000	0.500000	0.500000	0.000000 
		0.500000	0.500000	0.500000	0.000000 
		0.500000	0.500000	0.500000	0.000000 
		0.500000	0.500000	0.500000	0.000000 
		0.500000	0.500000	0.500000	0.000000 
		0.500000	0.644707	0.500000	0.000000 
		0.500000	0.611801	0.500000	0.000000 
		0.500000	0.500000	0.500000	0.000000 
		0.500000	0.500000	0.500000	0.000000 
		0.500000	0.500000	0.500000	0.000000 
		0.500000	0.500000	0.500000	0.000000 
		0.500000	0.500000	0.500000	0.000000 
		0.500000	0.500000	0.500000	0.000000 
		0.500000	0.500000	0.500000	0.000000 
		0.500000	0.500000	0.500000	0.000000 
		0.500000	0.500000	0.500000	0.000000 
		0.500000	0.500000	0.500000	0.000000 
		0.500000	0.500000	0.500000	0.000000 
		0.500000	0.500000	0.500000	0.000000 
		0.500000	0.500000	0.500000	0.000000 
		0.500000	0.500000	0.500000	0.000000 
		0.500000	0.500000	0.500000	0.000000 
		0.500000	0.500000	0.500000	0.000000 
		0.490505	0.508752	0.500000	0.000000 
		0.499577	0.504554	0.500000	0.000000 
		0.497777	0.524464	0.500000	0.000000 
		0.489605	0.518707	0.500000	0.000000 
		0.507749	0.510311	0.500000	0.000000 
		0.506848	0.520266	0.500000	0.000000 
		0.500000	0.500000	0.500000	0.000000 
		0.500000	0.500000	0.500000	0.000000 
		0.500000	0.500000	0.500000	0.000000 
		0.500000	0.500000	0.500000	0.000000 
	}

	Tex0 211 { 
		0.398438	0.553711 
		0.398438	0.583008 
		0.419922	0.583008 
		0.419922	0.553711 
		0.588867	0.457031 
		0.623047	0.457031 
		0.626953	0.457031 
		0.588867	0.341797 
		0.623047	0.341797 
		0.623047	0.345703 
		0.626953	0.341797 
		0.623047	0.452148 
		0.403320	0.535156 
		0.409180	0.535156 
		0.403320	0.541016 
		0.413086	0.541016 
		0.948242	0.681641 
		0.858398	0.712891 
		0.815430	0.793945 
		0.938477	0.771484 
		0.776367	0.721680 
		0.699219	0.705078 
		0.680664	0.809570 
		0.658203	0.663086 
		0.389648	0.613281 
		0.393555	0.807617 
		0.410156	0.946289 
		0.622070	0.945313 
		0.862305	0.715820 
		0.958008	0.689453 
		0.958984	0.659180 
		0.861328	0.689453 
		0.778320	0.723633 
		0.778320	0.696289 
		0.699219	0.708984 
		0.702148	0.682617 
		0.666016	0.682617 
		0.675781	0.648438 
		0.651367	0.609375 
		0.666016	0.600586 
		0.866211	0.658203 
		0.913086	0.601563 
		0.788086	0.676758 
		0.717773	0.662109 
		0.686523	0.627930 
		0.684570	0.587891 
		0.664063	0.542969 
		0.649414	0.546875 
		0.679688	0.547852 
		0.382813	0.541992 
		0.398438	0.612305 
		0.389648	0.580078 
		0.389648	0.544922 
		0.961914	0.602539 
		0.961914	0.541016 
		0.921875	0.540039 
		0.373047	0.304688 
		0.371094	0.303711 
		0.361328	0.053711 
		0.988281	0.035156 
		0.988281	0.409180 
		0.877930	0.409180 
		0.877930	0.035156 
		0.596680	0.231445 
		0.573242	0.235352 
		0.573242	0.035156 
		0.596680	0.035156 
		0.638672	0.228516 
		0.638672	0.035156 
		0.811523	0.035156 
		0.810547	0.228516 
		0.617188	0.235352 
		0.593750	0.236328 
		0.593750	0.053711 
		0.658203	0.234375 
		0.816406	0.035156 
		0.815430	0.232422 
		0.610352	0.543945 
		0.611328	0.529297 
		0.637695	0.613281 
		0.607422	0.613281 
		0.611328	0.580078 
		0.612305	0.612305 
		0.635742	0.612305 
		0.635742	0.529297 
		0.538086	0.869141 
		0.535156	0.870117 
		0.531250	0.867188 
		0.533203	0.869141 
		0.530273	0.865234 
		0.540039	0.866211 
		0.541016	0.863281 
		0.530273	0.861328 
		0.377930	0.303711 
		0.580078	0.352539 
		0.571289	0.056641 
		0.372070	0.058594 
		0.426758	0.606445 
		0.426758	0.566406 
		0.537109	0.565430 
		0.537109	0.605469 
		0.436523	0.339844 
		0.441406	0.454102 
		0.546875	0.432617 
		0.546875	0.332031 
		0.570313	0.454102 
		0.382813	0.650391 
		0.551758	0.541016 
		0.550781	0.593750 
		0.390625	0.593750 
		0.390625	0.541016 
		0.544922	0.878906 
		0.508789	0.878906 
		0.508789	0.841797 
		0.544922	0.841797 
		0.617188	0.287109 
		0.593750	0.337891 
		0.658203	0.250977 
		0.778320	0.269531 
		0.796875	0.409180 
		0.804688	0.304688 
		0.805664	0.371094 
		0.845703	0.371094 
		0.845703	0.305664 
		0.845703	0.368164 
		0.805664	0.368164 
		0.369141	0.657227 
		0.251953	0.657227 
		0.251953	0.887695 
		0.369141	0.887695 
		0.271484	0.775391 
		0.643555	0.798828 
		0.643555	0.764648 
		0.708984	0.764648 
		0.708984	0.798828 
		0.601563	0.739258 
		0.627930	0.739258 
		0.708984	0.769531 
		0.643555	0.769531 
		0.904297	0.483398 
		0.904297	0.523438 
		0.500977	0.523438 
		0.500977	0.483398 
		0.608398	0.528320 
		0.608398	0.584961 
		0.566406	0.584961 
		0.566406	0.528320 
		0.643555	0.734375 
		0.627930	0.695313 
		0.601563	0.695313 
		0.643555	0.796875 
		0.469727	0.548828 
		0.526367	0.548828 
		0.534180	0.563477 
		0.456055	0.563477 
		0.630859	0.689453 
		0.708984	0.734375 
		0.708984	0.796875 
		0.627930	0.746094 
		0.601563	0.746094 
		0.386719	0.591797 
		0.386719	0.535156 
		0.442383	0.535156 
		0.442383	0.591797 
		0.389648	0.597656 
		0.389648	0.525391 
		0.443359	0.525391 
		0.443359	0.597656 
		0.184570	0.220703 
		0.241211	0.220703 
		0.241211	0.962891 
		0.184570	0.962891 
		0.749023	0.668945 
		0.924805	0.668945 
		0.924805	0.802734 
		0.749023	0.802734 
		0.240234	0.966797 
		0.240234	0.225586 
		0.183594	0.225586 
		0.183594	0.966797 
		0.535156	0.868164 
		0.052734	0.224609 
		0.053711	0.062500 
		0.033203	0.070313 
		0.032227	0.500000 
		0.198242	0.218750 
		0.340820	0.195313 
		0.222656	0.129883 
		0.967773	0.500000 
		0.206055	0.129883 
		0.195313	0.046875 
		0.200195	0.052734 
		0.198242	0.781250 
		0.052734	0.775391 
		0.340820	0.129883 
		0.967773	0.195313 
		0.033203	0.929688 
		0.053711	0.937500 
		0.206055	0.870117 
		0.222656	0.870117 
		0.340820	0.804688 
		0.195313	0.953125 
		0.200195	0.947266 
		0.340820	0.870117 
		0.967773	0.804688 
		0.279297	0.809570 
		0.279297	0.845703 
		0.310547	0.864258 
		0.310547	0.791016 
		0.342773	0.845703 
		0.342773	0.809570 
	}

	Tex1 0 
	Adj 615 { 
		P 0 
		N 0 
		C0 0 
		T0 0 
		P 1 
		N 1 
		C0 1 
		T0 1 
		P 2 
		N 2 
		C0 2 
		T0 2 
		P 3 
		N 3 
		C0 3 
		T0 3 
		P 1 
		N 1 
		C0 4 
		T0 4 
		P 4 
		N 4 
		C0 5 
		T0 5 
		P 2 
		N 2 
		C0 6 
		T0 6 
		P 0 
		N 5 
		C0 7 
		T0 7 
		P 5 
		N 5 
		C0 8 
		T0 8 
		P 6 
		N 5 
		C0 9 
		T0 9 
		P 0 
		N 0 
		C0 10 
		T0 7 
		P 3 
		N 3 
		C0 11 
		T0 10 
		P 5 
		N 6 
		C0 12 
		T0 8 
		P 1 
		N 5 
		C0 13 
		T0 4 
		P 7 
		N 5 
		C0 14 
		T0 11 
		P 4 
		N 5 
		C0 15 
		T0 5 
		P 7 
		N 7 
		C0 16 
		T0 11 
		P 6 
		N 8 
		C0 17 
		T0 9 
		P 3 
		N 3 
		C0 18 
		T0 12 
		P 8 
		N 9 
		C0 19 
		T0 13 
		P 9 
		N 10 
		C0 20 
		T0 13 
		P 5 
		N 6 
		C0 21 
		T0 12 
		P 10 
		N 11 
		C0 22 
		T0 13 
		P 6 
		N 8 
		C0 23 
		T0 12 
		P 2 
		N 2 
		C0 24 
		T0 14 
		P 11 
		N 12 
		C0 25 
		T0 15 
		P 12 
		N 13 
		C0 26 
		T0 15 
		P 7 
		N 7 
		C0 27 
		T0 14 
		P 13 
		N 14 
		C0 28 
		T0 15 
		P 4 
		N 4 
		C0 29 
		T0 14 
		P 14 
		N 15 
		C0 30 
		T0 0 
		P 15 
		N 16 
		C0 31 
		T0 3 
		P 16 
		N 17 
		C0 32 
		T0 2 
		P 17 
		N 18 
		C0 33 
		T0 1 
		P 17 
		N 18 
		C0 34 
		T0 4 
		P 16 
		N 17 
		C0 35 
		T0 6 
		P 18 
		N 19 
		C0 36 
		T0 5 
		P 14 
		N 20 
		C0 37 
		T0 7 
		P 19 
		N 20 
		C0 38 
		T0 9 
		P 20 
		N 20 
		C0 39 
		T0 8 
		P 14 
		N 15 
		C0 40 
		T0 7 
		P 20 
		N 21 
		C0 41 
		T0 8 
		P 15 
		N 16 
		C0 42 
		T0 10 
		P 17 
		N 20 
		C0 43 
		T0 4 
		P 18 
		N 20 
		C0 44 
		T0 5 
		P 21 
		N 20 
		C0 45 
		T0 11 
		P 19 
		N 22 
		C0 46 
		T0 9 
		P 21 
		N 23 
		C0 47 
		T0 11 
		P 15 
		N 16 
		C0 48 
		T0 12 
		P 20 
		N 21 
		C0 49 
		T0 12 
		P 22 
		N 24 
		C0 50 
		T0 13 
		P 23 
		N 25 
		C0 51 
		T0 13 
		P 19 
		N 22 
		C0 52 
		T0 12 
		P 24 
		N 26 
		C0 53 
		T0 13 
		P 16 
		N 17 
		C0 54 
		T0 14 
		P 21 
		N 23 
		C0 55 
		T0 14 
		P 25 
		N 27 
		C0 56 
		T0 15 
		P 26 
		N 28 
		C0 57 
		T0 15 
		P 18 
		N 19 
		C0 58 
		T0 14 
		P 27 
		N 29 
		C0 59 
		T0 15 
		P 28 
		N 30 
		C0 60 
		T0 16 
		P 29 
		N 31 
		C0 61 
		T0 17 
		P 30 
		N 32 
		C0 62 
		T0 18 
		P 31 
		N 33 
		C0 63 
		T0 19 
		P 32 
		N 34 
		C0 64 
		T0 20 
		P 33 
		N 35 
		C0 65 
		T0 21 
		P 34 
		N 36 
		C0 66 
		T0 22 
		P 35 
		N 37 
		C0 67 
		T0 23 
		P 36 
		N 38 
		C0 68 
		T0 24 
		P 37 
		N 39 
		C0 69 
		T0 25 
		P 38 
		N 40 
		C0 70 
		T0 26 
		P 39 
		N 41 
		C0 71 
		T0 27 
		P 29 
		N 42 
		C0 72 
		T0 28 
		P 28 
		N 30 
		C0 73 
		T0 29 
		P 40 
		N 43 
		C0 74 
		T0 30 
		P 41 
		N 44 
		C0 75 
		T0 31 
		P 32 
		N 45 
		C0 76 
		T0 32 
		P 42 
		N 46 
		C0 77 
		T0 33 
		P 33 
		N 47 
		C0 78 
		T0 34 
		P 43 
		N 48 
		C0 79 
		T0 35 
		P 35 
		N 49 
		C0 80 
		T0 36 
		P 44 
		N 49 
		C0 81 
		T0 37 
		P 45 
		N 50 
		C0 82 
		T0 38 
		P 46 
		N 50 
		C0 83 
		T0 39 
		P 47 
		N 51 
		C0 84 
		T0 40 
		P 48 
		N 52 
		C0 85 
		T0 41 
		P 49 
		N 53 
		C0 86 
		T0 42 
		P 50 
		N 54 
		C0 87 
		T0 43 
		P 44 
		N 55 
		C0 88 
		T0 37 
		P 51 
		N 55 
		C0 89 
		T0 44 
		P 46 
		N 56 
		C0 90 
		T0 39 
		P 52 
		N 56 
		C0 91 
		T0 45 
		P 53 
		N 57 
		C0 92 
		T0 46 
		P 54 
		N 57 
		C0 93 
		T0 47 
		P 55 
		N 58 
		C0 94 
		T0 48 
		P 53 
		N 58 
		C0 95 
		T0 46 
		P 56 
		N 59 
		C0 96 
		T0 49 
		P 36 
		N 59 
		C0 97 
		T0 50 
		P 57 
		N 60 
		C0 98 
		T0 51 
		P 58 
		N 60 
		C0 99 
		T0 52 
		P 59 
		N 61 
		C0 100 
		T0 53 
		P 60 
		N 62 
		C0 101 
		T0 54 
		P 61 
		N 63 
		C0 102 
		T0 55 
		P 39 
		N 41 
		C0 103 
		T0 56 
		P 38 
		N 40 
		C0 104 
		T0 57 
		P 62 
		N 64 
		C0 105 
		T0 58 
		P 63 
		N 65 
		C0 106 
		T0 58 
		P 64 
		N 66 
		C0 107 
		T0 59 
		P 60 
		N 62 
		C0 108 
		T0 60 
		P 59 
		N 61 
		C0 109 
		T0 61 
		P 65 
		N 67 
		C0 110 
		T0 62 
		P 66 
		N 68 
		C0 111 
		T0 63 
		P 67 
		N 69 
		C0 112 
		T0 64 
		P 68 
		N 70 
		C0 113 
		T0 65 
		P 69 
		N 71 
		C0 114 
		T0 66 
		P 70 
		N 72 
		C0 115 
		T0 67 
		P 71 
		N 73 
		C0 116 
		T0 68 
		P 72 
		N 74 
		C0 117 
		T0 69 
		P 73 
		N 74 
		C0 118 
		T0 70 
		P 74 
		N 75 
		C0 119 
		T0 71 
		P 75 
		N 76 
		C0 120 
		T0 72 
		P 75 
		N 77 
		C0 121 
		T0 72 
		P 76 
		N 77 
		C0 122 
		T0 73 
		P 68 
		N 77 
		C0 123 
		T0 65 
		P 67 
		N 77 
		C0 124 
		T0 64 
		P 77 
		N 78 
		C0 125 
		T0 74 
		P 78 
		N 79 
		C0 126 
		T0 75 
		P 79 
		N 79 
		C0 127 
		T0 76 
		P 73 
		N 79 
		C0 128 
		T0 70 
		P 72 
		N 79 
		C0 129 
		T0 69 
		P 73 
		N 80 
		C0 130 
		T0 70 
		P 79 
		N 80 
		C0 131 
		T0 76 
		P 56 
		N 81 
		C0 132 
		T0 49 
		P 58 
		N 82 
		C0 133 
		T0 52 
		P 80 
		N 82 
		C0 134 
		T0 77 
		P 81 
		N 81 
		C0 135 
		T0 78 
		P 45 
		N 83 
		C0 136 
		T0 79 
		P 82 
		N 83 
		C0 137 
		T0 80 
		P 83 
		N 84 
		C0 138 
		T0 81 
		P 82 
		N 84 
		C0 139 
		T0 82 
		P 81 
		N 84 
		C0 140 
		T0 78 
		P 80 
		N 84 
		C0 141 
		T0 77 
		P 81 
		N 83 
		C0 142 
		T0 78 
		P 82 
		N 83 
		C0 143 
		T0 82 
		P 45 
		N 83 
		C0 144 
		T0 83 
		P 54 
		N 83 
		C0 145 
		T0 84 
		P 47 
		N 85 
		C0 146 
		T0 85 
		P 84 
		N 86 
		C0 147 
		T0 85 
		P 49 
		N 87 
		C0 148 
		T0 86 
		P 51 
		N 88 
		C0 149 
		T0 87 
		P 50 
		N 89 
		C0 150 
		T0 88 
		P 85 
		N 90 
		C0 151 
		T0 87 
		P 49 
		N 91 
		C0 152 
		T0 86 
		P 84 
		N 91 
		C0 153 
		T0 85 
		P 52 
		N 92 
		C0 154 
		T0 89 
		P 84 
		N 86 
		C0 155 
		T0 90 
		P 48 
		N 93 
		C0 156 
		T0 90 
		P 61 
		N 94 
		C0 157 
		T0 91 
		P 86 
		N 94 
		C0 158 
		T0 91 
		P 87 
		N 95 
		C0 159 
		T0 92 
		P 55 
		N 95 
		C0 160 
		T0 92 
		P 82 
		N 96 
		C0 161 
		T0 82 
		P 83 
		N 97 
		C0 162 
		T0 81 
		P 57 
		N 97 
		C0 163 
		T0 51 
		P 36 
		N 96 
		C0 164 
		T0 50 
		P 38 
		N 40 
		C0 165 
		T0 93 
		P 37 
		N 98 
		C0 166 
		T0 94 
		P 88 
		N 99 
		C0 167 
		T0 95 
		P 62 
		N 64 
		C0 168 
		T0 96 
		P 89 
		N 100 
		C0 169 
		T0 97 
		P 90 
		N 101 
		C0 170 
		T0 98 
		P 91 
		N 101 
		C0 171 
		T0 99 
		P 92 
		N 100 
		C0 172 
		T0 100 
		P 88 
		N 99 
		C0 173 
		T0 101 
		P 37 
		N 98 
		C0 174 
		T0 102 
		P 93 
		N 102 
		C0 175 
		T0 103 
		P 94 
		N 102 
		C0 176 
		T0 104 
		P 36 
		N 102 
		C0 177 
		T0 105 
		P 95 
		N 103 
		C0 178 
		T0 49 
		P 93 
		N 103 
		C0 179 
		T0 106 
		P 93 
		N 83 
		C0 180 
		T0 107 
		P 95 
		N 83 
		C0 181 
		T0 108 
		P 90 
		N 83 
		C0 182 
		T0 109 
		P 89 
		N 83 
		C0 183 
		T0 110 
		P 94 
		N 104 
		C0 184 
		T0 111 
		P 93 
		N 104 
		C0 185 
		T0 112 
		P 89 
		N 100 
		C0 186 
		T0 113 
		P 92 
		N 100 
		C0 187 
		T0 114 
		P 75 
		N 105 
		C0 188 
		T0 72 
		P 76 
		N 106 
		C0 189 
		T0 73 
		P 30 
		N 107 
		C0 190 
		T0 115 
		P 34 
		N 108 
		C0 191 
		T0 116 
		P 31 
		N 33 
		C0 192 
		T0 117 
		P 79 
		N 109 
		C0 193 
		T0 76 
		P 28 
		N 30 
		C0 194 
		T0 118 
		P 34 
		N 36 
		C0 195 
		T0 116 
		P 40 
		N 43 
		C0 196 
		T0 119 
		P 96 
		N 110 
		C0 197 
		T0 120 
		P 97 
		N 110 
		C0 198 
		T0 121 
		P 98 
		N 111 
		C0 199 
		T0 122 
		P 97 
		N 112 
		C0 200 
		T0 121 
		P 99 
		N 113 
		C0 201 
		T0 123 
		P 100 
		N 114 
		C0 202 
		T0 16 
		P 101 
		N 115 
		C0 203 
		T0 19 
		P 102 
		N 116 
		C0 204 
		T0 18 
		P 103 
		N 117 
		C0 205 
		T0 17 
		P 104 
		N 118 
		C0 206 
		T0 20 
		P 105 
		N 119 
		C0 207 
		T0 22 
		P 106 
		N 120 
		C0 208 
		T0 21 
		P 107 
		N 121 
		C0 209 
		T0 23 
		P 108 
		N 122 
		C0 210 
		T0 25 
		P 109 
		N 123 
		C0 211 
		T0 24 
		P 110 
		N 124 
		C0 212 
		T0 27 
		P 111 
		N 125 
		C0 213 
		T0 26 
		P 103 
		N 126 
		C0 214 
		T0 28 
		P 112 
		N 127 
		C0 215 
		T0 31 
		P 113 
		N 128 
		C0 216 
		T0 30 
		P 100 
		N 114 
		C0 217 
		T0 29 
		P 104 
		N 129 
		C0 218 
		T0 32 
		P 114 
		N 130 
		C0 219 
		T0 33 
		P 106 
		N 131 
		C0 220 
		T0 34 
		P 115 
		N 132 
		C0 221 
		T0 35 
		P 107 
		N 133 
		C0 222 
		T0 36 
		P 116 
		N 133 
		C0 223 
		T0 37 
		P 117 
		N 134 
		C0 224 
		T0 38 
		P 118 
		N 134 
		C0 225 
		T0 39 
		P 119 
		N 135 
		C0 226 
		T0 42 
		P 120 
		N 136 
		C0 227 
		T0 40 
		P 121 
		N 137 
		C0 228 
		T0 43 
		P 116 
		N 138 
		C0 229 
		T0 37 
		P 122 
		N 138 
		C0 230 
		T0 44 
		P 118 
		N 139 
		C0 231 
		T0 39 
		P 123 
		N 139 
		C0 232 
		T0 45 
		P 124 
		N 140 
		C0 233 
		T0 41 
		P 125 
		N 141 
		C0 234 
		T0 47 
		P 126 
		N 141 
		C0 235 
		T0 46 
		P 126 
		N 142 
		C0 236 
		T0 46 
		P 127 
		N 142 
		C0 237 
		T0 48 
		P 128 
		N 143 
		C0 238 
		T0 49 
		P 129 
		N 144 
		C0 239 
		T0 52 
		P 130 
		N 144 
		C0 240 
		T0 51 
		P 109 
		N 143 
		C0 241 
		T0 50 
		P 131 
		N 145 
		C0 242 
		T0 55 
		P 132 
		N 146 
		C0 243 
		T0 54 
		P 133 
		N 147 
		C0 244 
		T0 53 
		P 110 
		N 124 
		C0 245 
		T0 56 
		P 111 
		N 125 
		C0 246 
		T0 57 
		P 133 
		N 147 
		C0 247 
		T0 61 
		P 132 
		N 146 
		C0 248 
		T0 60 
		P 134 
		N 148 
		C0 249 
		T0 63 
		P 135 
		N 149 
		C0 250 
		T0 64 
		P 136 
		N 150 
		C0 251 
		T0 67 
		P 137 
		N 74 
		C0 252 
		T0 70 
		P 138 
		N 151 
		C0 253 
		T0 76 
		P 139 
		N 152 
		C0 254 
		T0 123 
		P 78 
		N 67 
		C0 255 
		T0 75 
		P 140 
		N 153 
		C0 256 
		T0 124 
		P 141 
		N 154 
		C0 257 
		T0 71 
		P 142 
		N 155 
		C0 258 
		T0 72 
		P 142 
		N 77 
		C0 259 
		T0 72 
		P 135 
		N 77 
		C0 260 
		T0 64 
		P 143 
		N 156 
		C0 261 
		T0 74 
		P 137 
		N 79 
		C0 262 
		T0 70 
		P 138 
		N 79 
		C0 263 
		T0 76 
		P 138 
		N 157 
		C0 264 
		T0 76 
		P 137 
		N 157 
		C0 265 
		T0 70 
		P 128 
		N 158 
		C0 266 
		T0 49 
		P 144 
		N 158 
		C0 267 
		T0 78 
		P 145 
		N 159 
		C0 268 
		T0 77 
		P 129 
		N 159 
		C0 269 
		T0 52 
		P 117 
		N 160 
		C0 270 
		T0 79 
		P 146 
		N 160 
		C0 271 
		T0 80 
		P 147 
		N 161 
		C0 272 
		T0 81 
		P 145 
		N 161 
		C0 273 
		T0 77 
		P 144 
		N 161 
		C0 274 
		T0 78 
		P 146 
		N 161 
		C0 275 
		T0 82 
		P 144 
		N 160 
		C0 276 
		T0 78 
		P 125 
		N 160 
		C0 277 
		T0 84 
		P 117 
		N 160 
		C0 278 
		T0 83 
		P 146 
		N 160 
		C0 279 
		T0 82 
		P 120 
		N 162 
		C0 280 
		T0 85 
		P 148 
		N 163 
		C0 281 
		T0 85 
		P 124 
		N 164 
		C0 282 
		T0 90 
		P 119 
		N 165 
		C0 283 
		T0 86 
		P 121 
		N 166 
		C0 284 
		T0 88 
		P 122 
		N 167 
		C0 285 
		T0 87 
		P 149 
		N 168 
		C0 286 
		T0 87 
		P 123 
		N 169 
		C0 287 
		T0 89 
		P 127 
		N 170 
		C0 288 
		T0 92 
		P 150 
		N 170 
		C0 289 
		T0 92 
		P 151 
		N 171 
		C0 290 
		T0 91 
		P 131 
		N 171 
		C0 291 
		T0 91 
		P 150 
		N 172 
		C0 292 
		T0 92 
		P 151 
		N 172 
		C0 293 
		T0 91 
		P 146 
		N 173 
		C0 294 
		T0 82 
		P 109 
		N 173 
		C0 295 
		T0 50 
		P 130 
		N 174 
		C0 296 
		T0 51 
		P 147 
		N 174 
		C0 297 
		T0 81 
		P 111 
		N 125 
		C0 298 
		T0 93 
		P 108 
		N 98 
		C0 299 
		T0 94 
		P 152 
		N 100 
		C0 300 
		T0 97 
		P 153 
		N 101 
		C0 301 
		T0 98 
		P 154 
		N 102 
		C0 302 
		T0 103 
		P 108 
		N 98 
		C0 303 
		T0 102 
		P 109 
		N 102 
		C0 304 
		T0 105 
		P 154 
		N 175 
		C0 305 
		T0 106 
		P 155 
		N 175 
		C0 306 
		T0 49 
		P 154 
		N 160 
		C0 307 
		T0 107 
		P 152 
		N 160 
		C0 308 
		T0 110 
		P 153 
		N 160 
		C0 309 
		T0 109 
		P 155 
		N 160 
		C0 310 
		T0 108 
		P 152 
		N 100 
		C0 311 
		T0 113 
		P 154 
		N 104 
		C0 312 
		T0 112 
		P 142 
		N 176 
		C0 313 
		T0 72 
		P 102 
		N 177 
		C0 314 
		T0 115 
		P 105 
		N 178 
		C0 315 
		T0 116 
		P 101 
		N 115 
		C0 316 
		T0 117 
		P 100 
		N 114 
		C0 317 
		T0 118 
		P 105 
		N 119 
		C0 318 
		T0 116 
		P 156 
		N 179 
		C0 319 
		T0 125 
		P 113 
		N 128 
		C0 320 
		T0 119 
		P 140 
		N 180 
		C0 321 
		T0 124 
		P 157 
		N 179 
		C0 322 
		T0 120 
		P 158 
		N 181 
		C0 323 
		T0 126 
		P 159 
		N 181 
		C0 324 
		T0 127 
		P 160 
		N 181 
		C0 325 
		T0 128 
		P 161 
		N 181 
		C0 326 
		T0 129 
		P 160 
		N 83 
		C0 327 
		T0 130 
		P 162 
		N 83 
		C0 328 
		T0 130 
		P 163 
		N 83 
		C0 329 
		T0 130 
		P 161 
		N 83 
		C0 330 
		T0 130 
		P 164 
		N 160 
		C0 331 
		T0 130 
		P 159 
		N 160 
		C0 332 
		T0 130 
		P 158 
		N 160 
		C0 333 
		T0 130 
		P 165 
		N 160 
		C0 334 
		T0 130 
		P 158 
		N 182 
		C0 335 
		T0 130 
		P 161 
		N 182 
		C0 336 
		T0 130 
		P 163 
		N 182 
		C0 337 
		T0 130 
		P 165 
		N 182 
		C0 338 
		T0 130 
		P 164 
		N 183 
		C0 339 
		T0 130 
		P 162 
		N 183 
		C0 340 
		T0 130 
		P 160 
		N 183 
		C0 341 
		T0 130 
		P 159 
		N 183 
		C0 342 
		T0 130 
		P 166 
		N 181 
		C0 343 
		T0 126 
		P 167 
		N 181 
		C0 344 
		T0 129 
		P 168 
		N 181 
		C0 345 
		T0 128 
		P 169 
		N 181 
		C0 346 
		T0 127 
		P 168 
		N 160 
		C0 347 
		T0 130 
		P 167 
		N 160 
		C0 348 
		T0 130 
		P 170 
		N 160 
		C0 349 
		T0 130 
		P 171 
		N 160 
		C0 350 
		T0 130 
		P 172 
		N 83 
		C0 351 
		T0 130 
		P 173 
		N 83 
		C0 352 
		T0 130 
		P 166 
		N 83 
		C0 353 
		T0 130 
		P 169 
		N 83 
		C0 354 
		T0 130 
		P 166 
		N 182 
		C0 355 
		T0 130 
		P 173 
		N 182 
		C0 356 
		T0 130 
		P 170 
		N 182 
		C0 357 
		T0 130 
		P 167 
		N 182 
		C0 358 
		T0 130 
		P 172 
		N 183 
		C0 359 
		T0 130 
		P 169 
		N 183 
		C0 360 
		T0 130 
		P 168 
		N 183 
		C0 361 
		T0 130 
		P 171 
		N 183 
		C0 362 
		T0 130 
		P 174 
		N 181 
		C0 363 
		T0 131 
		P 175 
		N 181 
		C0 364 
		T0 132 
		P 176 
		N 181 
		C0 365 
		T0 133 
		P 177 
		N 181 
		C0 366 
		T0 134 
		P 178 
		N 181 
		C0 367 
		T0 135 
		P 179 
		N 181 
		C0 368 
		T0 136 
		P 174 
		N 104 
		C0 369 
		T0 131 
		P 177 
		N 104 
		C0 370 
		T0 134 
		P 180 
		N 104 
		C0 371 
		T0 137 
		P 181 
		N 104 
		C0 372 
		T0 138 
		P 174 
		N 184 
		C0 373 
		T0 139 
		P 181 
		N 184 
		C0 374 
		T0 140 
		P 182 
		N 184 
		C0 375 
		T0 141 
		P 178 
		N 184 
		C0 376 
		T0 142 
		P 183 
		N 185 
		C0 377 
		T0 143 
		P 184 
		N 185 
		C0 378 
		T0 144 
		P 185 
		N 185 
		C0 379 
		T0 145 
		P 186 
		N 185 
		C0 380 
		T0 146 
		P 93 
		N 66 
		C0 381 
		T0 147 
		P 187 
		N 66 
		C0 382 
		T0 148 
		P 182 
		N 66 
		C0 383 
		T0 149 
		P 181 
		N 66 
		C0 384 
		T0 150 
		P 93 
		N 186 
		C0 385 
		T0 147 
		P 175 
		N 186 
		C0 386 
		T0 132 
		P 179 
		N 186 
		C0 387 
		T0 136 
		P 187 
		N 186 
		C0 388 
		T0 148 
		P 182 
		N 66 
		C0 389 
		T0 151 
		P 187 
		N 66 
		C0 390 
		T0 152 
		P 184 
		N 66 
		C0 391 
		T0 153 
		P 183 
		N 66 
		C0 392 
		T0 154 
		P 187 
		N 187 
		C0 393 
		T0 148 
		P 179 
		N 187 
		C0 394 
		T0 136 
		P 185 
		N 187 
		C0 395 
		T0 155 
		P 184 
		N 187 
		C0 396 
		T0 155 
		P 179 
		N 77 
		C0 397 
		T0 152 
		P 178 
		N 77 
		C0 398 
		T0 151 
		P 186 
		N 77 
		C0 399 
		T0 154 
		P 185 
		N 77 
		C0 400 
		T0 153 
		P 178 
		N 46 
		C0 401 
		T0 151 
		P 182 
		N 46 
		C0 402 
		T0 152 
		P 183 
		N 46 
		C0 403 
		T0 153 
		P 186 
		N 46 
		C0 404 
		T0 154 
		P 188 
		N 181 
		C0 405 
		T0 150 
		P 189 
		N 181 
		C0 406 
		T0 147 
		P 190 
		N 181 
		C0 407 
		T0 156 
		P 191 
		N 181 
		C0 408 
		T0 157 
		P 192 
		N 181 
		C0 409 
		T0 149 
		P 193 
		N 181 
		C0 410 
		T0 148 
		P 188 
		N 104 
		C0 411 
		T0 150 
		P 191 
		N 104 
		C0 412 
		T0 157 
		P 194 
		N 104 
		C0 413 
		T0 137 
		P 195 
		N 104 
		C0 414 
		T0 138 
		P 188 
		N 184 
		C0 415 
		T0 139 
		P 195 
		N 184 
		C0 416 
		T0 140 
		P 196 
		N 184 
		C0 417 
		T0 141 
		P 192 
		N 184 
		C0 418 
		T0 142 
		P 197 
		N 185 
		C0 419 
		T0 143 
		P 198 
		N 185 
		C0 420 
		T0 144 
		P 199 
		N 185 
		C0 421 
		T0 145 
		P 200 
		N 185 
		C0 422 
		T0 146 
		P 201 
		N 66 
		C0 423 
		T0 132 
		P 202 
		N 66 
		C0 424 
		T0 158 
		P 196 
		N 66 
		C0 425 
		T0 159 
		P 195 
		N 66 
		C0 426 
		T0 150 
		P 201 
		N 186 
		C0 427 
		T0 132 
		P 189 
		N 186 
		C0 428 
		T0 147 
		P 193 
		N 186 
		C0 429 
		T0 148 
		P 202 
		N 186 
		C0 430 
		T0 158 
		P 196 
		N 66 
		C0 431 
		T0 151 
		P 202 
		N 66 
		C0 432 
		T0 152 
		P 198 
		N 66 
		C0 433 
		T0 153 
		P 197 
		N 66 
		C0 434 
		T0 154 
		P 202 
		N 187 
		C0 435 
		T0 158 
		P 193 
		N 187 
		C0 436 
		T0 148 
		P 199 
		N 187 
		C0 437 
		T0 155 
		P 198 
		N 187 
		C0 438 
		T0 155 
		P 193 
		N 77 
		C0 439 
		T0 152 
		P 192 
		N 77 
		C0 440 
		T0 151 
		P 200 
		N 77 
		C0 441 
		T0 154 
		P 199 
		N 77 
		C0 442 
		T0 153 
		P 192 
		N 46 
		C0 443 
		T0 151 
		P 196 
		N 46 
		C0 444 
		T0 152 
		P 197 
		N 46 
		C0 445 
		T0 153 
		P 200 
		N 46 
		C0 446 
		T0 154 
		P 194 
		N 66 
		C0 447 
		T0 157 
		P 203 
		N 66 
		C0 448 
		T0 133 
		P 204 
		N 181 
		C0 449 
		T0 131 
		P 205 
		N 181 
		C0 450 
		T0 132 
		P 206 
		N 181 
		C0 451 
		T0 136 
		P 207 
		N 181 
		C0 452 
		T0 135 
		P 204 
		N 104 
		C0 453 
		T0 131 
		P 208 
		N 104 
		C0 454 
		T0 138 
		P 204 
		N 188 
		C0 455 
		T0 139 
		P 207 
		N 188 
		C0 456 
		T0 142 
		P 209 
		N 188 
		C0 457 
		T0 141 
		P 208 
		N 188 
		C0 458 
		T0 140 
		P 210 
		N 185 
		C0 459 
		T0 143 
		P 211 
		N 185 
		C0 460 
		T0 146 
		P 212 
		N 185 
		C0 461 
		T0 145 
		P 213 
		N 185 
		C0 462 
		T0 144 
		P 154 
		N 66 
		C0 463 
		T0 147 
		P 208 
		N 66 
		C0 464 
		T0 150 
		P 209 
		N 66 
		C0 465 
		T0 149 
		P 214 
		N 66 
		C0 466 
		T0 148 
		P 154 
		N 189 
		C0 467 
		T0 147 
		P 214 
		N 189 
		C0 468 
		T0 148 
		P 206 
		N 189 
		C0 469 
		T0 136 
		P 205 
		N 189 
		C0 470 
		T0 132 
		P 209 
		N 66 
		C0 471 
		T0 151 
		P 210 
		N 66 
		C0 472 
		T0 154 
		P 213 
		N 66 
		C0 473 
		T0 153 
		P 214 
		N 66 
		C0 474 
		T0 152 
		P 214 
		N 190 
		C0 475 
		T0 148 
		P 213 
		N 190 
		C0 476 
		T0 155 
		P 212 
		N 190 
		C0 477 
		T0 155 
		P 206 
		N 190 
		C0 478 
		T0 136 
		P 206 
		N 77 
		C0 479 
		T0 152 
		P 212 
		N 77 
		C0 480 
		T0 153 
		P 211 
		N 77 
		C0 481 
		T0 154 
		P 207 
		N 77 
		C0 482 
		T0 151 
		P 207 
		N 130 
		C0 483 
		T0 151 
		P 211 
		N 130 
		C0 484 
		T0 154 
		P 210 
		N 130 
		C0 485 
		T0 153 
		P 209 
		N 130 
		C0 486 
		T0 152 
		P 215 
		N 181 
		C0 487 
		T0 150 
		P 216 
		N 181 
		C0 488 
		T0 147 
		P 217 
		N 181 
		C0 489 
		T0 148 
		P 218 
		N 181 
		C0 490 
		T0 149 
		P 215 
		N 104 
		C0 491 
		T0 150 
		P 219 
		N 104 
		C0 492 
		T0 138 
		P 215 
		N 188 
		C0 493 
		T0 139 
		P 218 
		N 188 
		C0 494 
		T0 142 
		P 220 
		N 188 
		C0 495 
		T0 141 
		P 219 
		N 188 
		C0 496 
		T0 140 
		P 221 
		N 185 
		C0 497 
		T0 143 
		P 222 
		N 185 
		C0 498 
		T0 146 
		P 223 
		N 185 
		C0 499 
		T0 145 
		P 224 
		N 185 
		C0 500 
		T0 144 
		P 225 
		N 66 
		C0 501 
		T0 132 
		P 219 
		N 66 
		C0 502 
		T0 150 
		P 220 
		N 66 
		C0 503 
		T0 159 
		P 226 
		N 66 
		C0 504 
		T0 158 
		P 225 
		N 189 
		C0 505 
		T0 132 
		P 226 
		N 189 
		C0 506 
		T0 158 
		P 217 
		N 189 
		C0 507 
		T0 148 
		P 216 
		N 189 
		C0 508 
		T0 147 
		P 220 
		N 66 
		C0 509 
		T0 151 
		P 221 
		N 66 
		C0 510 
		T0 154 
		P 224 
		N 66 
		C0 511 
		T0 153 
		P 226 
		N 66 
		C0 512 
		T0 152 
		P 226 
		N 190 
		C0 513 
		T0 158 
		P 224 
		N 190 
		C0 514 
		T0 155 
		P 223 
		N 190 
		C0 515 
		T0 155 
		P 217 
		N 190 
		C0 516 
		T0 148 
		P 217 
		N 77 
		C0 517 
		T0 152 
		P 223 
		N 77 
		C0 518 
		T0 153 
		P 222 
		N 77 
		C0 519 
		T0 154 
		P 218 
		N 77 
		C0 520 
		T0 151 
		P 218 
		N 130 
		C0 521 
		T0 151 
		P 222 
		N 130 
		C0 522 
		T0 154 
		P 221 
		N 130 
		C0 523 
		T0 153 
		P 220 
		N 130 
		C0 524 
		T0 152 
		P 227 
		N 181 
		C0 525 
		T0 160 
		P 228 
		N 181 
		C0 526 
		T0 161 
		P 229 
		N 181 
		C0 527 
		T0 162 
		P 230 
		N 181 
		C0 528 
		T0 163 
		P 231 
		N 66 
		C0 529 
		T0 163 
		P 232 
		N 66 
		C0 530 
		T0 162 
		P 233 
		N 66 
		C0 531 
		T0 161 
		P 234 
		N 66 
		C0 532 
		T0 160 
		P 228 
		N 160 
		C0 533 
		T0 164 
		P 233 
		N 160 
		C0 534 
		T0 165 
		P 232 
		N 160 
		C0 535 
		T0 166 
		P 229 
		N 160 
		C0 536 
		T0 167 
		P 234 
		N 83 
		C0 537 
		T0 165 
		P 227 
		N 83 
		C0 538 
		T0 164 
		P 230 
		N 83 
		C0 539 
		T0 167 
		P 231 
		N 83 
		C0 540 
		T0 166 
		P 235 
		N 181 
		C0 541 
		T0 168 
		P 236 
		N 181 
		C0 542 
		T0 169 
		P 237 
		N 181 
		C0 543 
		T0 170 
		P 238 
		N 181 
		C0 544 
		T0 171 
		P 239 
		N 104 
		C0 545 
		T0 172 
		P 235 
		N 104 
		C0 546 
		T0 173 
		P 238 
		N 104 
		C0 547 
		T0 174 
		P 240 
		N 104 
		C0 548 
		T0 175 
		P 241 
		N 66 
		C0 549 
		T0 169 
		P 239 
		N 66 
		C0 550 
		T0 168 
		P 240 
		N 66 
		C0 551 
		T0 171 
		P 242 
		N 66 
		C0 552 
		T0 170 
		P 236 
		N 185 
		C0 553 
		T0 173 
		P 241 
		N 185 
		C0 554 
		T0 172 
		P 242 
		N 185 
		C0 555 
		T0 175 
		P 237 
		N 185 
		C0 556 
		T0 174 
		P 241 
		N 83 
		C0 557 
		T0 176 
		P 236 
		N 83 
		C0 558 
		T0 177 
		P 235 
		N 83 
		C0 559 
		T0 178 
		P 239 
		N 83 
		C0 560 
		T0 179 
		P 242 
		N 160 
		C0 561 
		T0 176 
		P 240 
		N 160 
		C0 562 
		T0 179 
		P 238 
		N 160 
		C0 563 
		T0 178 
		P 237 
		N 160 
		C0 564 
		T0 177 
		P 84 
		N 191 
		C0 565 
		T0 87 
		P 86 
		N 191 
		C0 566 
		T0 88 
		P 87 
		N 191 
		C0 567 
		T0 86 
		P 85 
		N 191 
		C0 568 
		T0 85 
		P 84 
		N 86 
		C0 569 
		T0 180 
		P 47 
		N 85 
		C0 570 
		T0 88 
		P 48 
		N 93 
		C0 571 
		T0 86 
		P 86 
		N 192 
		C0 572 
		T0 181 
		P 61 
		N 193 
		C0 573 
		T0 182 
		P 60 
		N 193 
		C0 574 
		T0 183 
		P 64 
		N 185 
		C0 575 
		T0 184 
		P 87 
		N 194 
		C0 576 
		T0 185 
		P 95 
		N 195 
		C0 577 
		T0 186 
		P 81 
		N 185 
		C0 578 
		T0 187 
		P 91 
		N 185 
		C0 579 
		T0 188 
		P 54 
		N 196 
		C0 580 
		T0 189 
		P 55 
		N 197 
		C0 581 
		T0 190 
		P 53 
		N 197 
		C0 582 
		T0 191 
		P 150 
		N 198 
		C0 583 
		T0 192 
		P 151 
		N 192 
		C0 584 
		T0 193 
		P 56 
		N 185 
		C0 585 
		T0 194 
		P 95 
		N 185 
		C0 586 
		T0 186 
		P 91 
		N 101 
		C0 587 
		T0 188 
		P 90 
		N 101 
		C0 588 
		T0 195 
		P 132 
		N 193 
		C0 589 
		T0 196 
		P 131 
		N 193 
		C0 590 
		T0 197 
		P 125 
		N 199 
		C0 591 
		T0 198 
		P 144 
		N 185 
		C0 592 
		T0 199 
		P 155 
		N 200 
		C0 593 
		T0 200 
		P 127 
		N 201 
		C0 594 
		T0 201 
		P 126 
		N 201 
		C0 595 
		T0 202 
		P 128 
		N 185 
		C0 596 
		T0 203 
		P 155 
		N 185 
		C0 597 
		T0 200 
		P 153 
		N 101 
		C0 598 
		T0 204 
		P 243 
		N 181 
		C0 599 
		T0 205 
		P 244 
		N 181 
		C0 600 
		T0 206 
		P 245 
		N 181 
		C0 601 
		T0 207 
		P 246 
		N 181 
		C0 602 
		T0 208 
		P 247 
		N 181 
		C0 603 
		T0 209 
		P 248 
		N 181 
		C0 604 
		T0 210 
		P 249 
		N 181 
		C0 605 
		T0 205 
		P 250 
		N 181 
		C0 606 
		T0 208 
		P 251 
		N 181 
		C0 607 
		T0 207 
		P 252 
		N 181 
		C0 608 
		T0 206 
		P 253 
		N 181 
		C0 609 
		T0 210 
		P 254 
		N 181 
		C0 610 
		T0 209 
		P 140 
		N 179 
		C0 611 
		T0 124 
		P 139 
		N 179 
		C0 612 
		T0 123 
		P 99 
		N 110 
		C0 613 
		T0 123 
		P 98 
		N 110 
		C0 614 
		T0 122 
	}

	Mtl 4 { 
		{
			Name "#2" 
			Priority 32 
			Prim 109 { 
				{
					Type TRISTRIP
					Priority 32 
					Idx 4 { 3 0 2 1 }
				}
				{
					Type TRISTRIP
					Priority 32 
					Idx 6 { 8 9 7 14 13 15 }
				}
				{
					Type TRISTRIP
					Priority 32 
					Idx 4 { 11 6 17 16 }
				}
				{
					Type TRISTRIP
					Priority 32 
					Idx 4 { 31 32 30 33 }
				}
				{
					Type TRISTRIP
					Priority 32 
					Idx 4 { 46 47 42 35 }
				}
				{
					Type TRISTRIP
					Priority 32 
					Idx 8 { 70 71 69 66 68 67 137 136 }
				}
				{
					Type TRISTRIP
					Priority 32 
					Idx 6 { 127 128 126 129 263 262 }
				}
				{
					Type TRISTRIP
					Priority 32 
					Idx 4 { 141 138 140 139 }
				}
				{
					Type TRISTRIP
					Priority 32 
					Idx 4 { 145 142 144 143 }
				}
				{
					Type TRISTRIP
					Priority 32 
					Idx 4 { 157 158 156 155 }
				}
				{
					Type TRISTRIP
					Priority 32 
					Idx 8 { 177 175 174 176 173 302 303 304 }
				}
				{
					Type TRISTRIP
					Priority 32 
					Idx 4 { 181 182 180 183 }
				}
				{
					Type TRISTRIP
					Priority 32 
					Idx 6 { 185 186 184 187 312 311 }
				}
				{
					Type TRISTRIP
					Priority 32 
					Idx 4 { 274 275 273 272 }
				}
				{
					Type TRISTRIP
					Priority 32 
					Idx 4 { 277 278 276 279 }
				}
				{
					Type TRISTRIP
					Priority 32 
					Idx 4 { 310 307 309 308 }
				}
				{
					Type TRISTRIP
					Priority 32 
					Idx 4 { 326 323 325 324 }
				}
				{
					Type TRISTRIP
					Priority 32 
					Idx 4 { 329 330 328 327 }
				}
				{
					Type TRISTRIP
					Priority 32 
					Idx 4 { 334 331 333 332 }
				}
				{
					Type TRISTRIP
					Priority 32 
					Idx 4 { 337 338 336 335 }
				}
				{
					Type TRISTRIP
					Priority 32 
					Idx 4 { 340 341 339 342 }
				}
				{
					Type TRISTRIP
					Priority 32 
					Idx 4 { 343 344 346 345 }
				}
				{
					Type TRISTRIP
					Priority 32 
					Idx 4 { 349 350 348 347 }
				}
				{
					Type TRISTRIP
					Priority 32 
					Idx 4 { 352 353 351 354 }
				}
				{
					Type TRISTRIP
					Priority 32 
					Idx 4 { 356 357 355 358 }
				}
				{
					Type TRISTRIP
					Priority 32 
					Idx 4 { 359 360 362 361 }
				}
				{
					Type TRISTRIP
					Priority 32 
					Idx 6 { 372 369 371 370 454 453 }
				}
				{
					Type TRISTRIP
					Priority 32 
					Idx 4 { 375 376 374 373 }
				}
				{
					Type TRISTRIP
					Priority 32 
					Idx 4 { 377 378 380 379 }
				}
				{
					Type TRISTRIP
					Priority 32 
					Idx 4 { 383 384 382 381 }
				}
				{
					Type TRISTRIP
					Priority 32 
					Idx 4 { 388 385 387 386 }
				}
				{
					Type TRISTRIP
					Priority 32 
					Idx 4 { 392 389 391 390 }
				}
				{
					Type TRISTRIP
					Priority 32 
					Idx 4 { 393 394 396 395 }
				}
				{
					Type TRISTRIP
					Priority 32 
					Idx 4 { 398 399 397 400 }
				}
				{
					Type TRISTRIP
					Priority 32 
					Idx 4 { 403 404 402 401 }
				}
				{
					Type TRISTRIP
					Priority 32 
					Idx 6 { 414 411 413 412 492 491 }
				}
				{
					Type TRISTRIP
					Priority 32 
					Idx 4 { 417 418 416 415 }
				}
				{
					Type TRISTRIP
					Priority 32 
					Idx 4 { 419 420 422 421 }
				}
				{
					Type TRISTRIP
					Priority 32 
					Idx 4 { 430 427 429 428 }
				}
				{
					Type TRISTRIP
					Priority 32 
					Idx 4 { 434 431 433 432 }
				}
				{
					Type TRISTRIP
					Priority 32 
					Idx 4 { 435 436 438 437 }
				}
				{
					Type TRISTRIP
					Priority 32 
					Idx 4 { 440 441 439 442 }
				}
				{
					Type TRISTRIP
					Priority 32 
					Idx 4 { 445 446 444 443 }
				}
				{
					Type TRISTRIP
					Priority 32 
					Idx 4 { 458 455 457 456 }
				}
				{
					Type TRISTRIP
					Priority 32 
					Idx 4 { 462 459 461 460 }
				}
				{
					Type TRISTRIP
					Priority 32 
					Idx 4 { 463 464 466 465 }
				}
				{
					Type TRISTRIP
					Priority 32 
					Idx 4 { 467 468 470 469 }
				}
				{
					Type TRISTRIP
					Priority 32 
					Idx 4 { 473 474 472 471 }
				}
				{
					Type TRISTRIP
					Priority 32 
					Idx 4 { 476 477 475 478 }
				}
				{
					Type TRISTRIP
					Priority 32 
					Idx 4 { 479 480 482 481 }
				}
				{
					Type TRISTRIP
					Priority 32 
					Idx 4 { 486 483 485 484 }
				}
				{
					Type TRISTRIP
					Priority 32 
					Idx 4 { 496 493 495 494 }
				}
				{
					Type TRISTRIP
					Priority 32 
					Idx 4 { 500 497 499 498 }
				}
				{
					Type TRISTRIP
					Priority 32 
					Idx 4 { 505 506 508 507 }
				}
				{
					Type TRISTRIP
					Priority 32 
					Idx 4 { 511 512 510 509 }
				}
				{
					Type TRISTRIP
					Priority 32 
					Idx 4 { 514 515 513 516 }
				}
				{
					Type TRISTRIP
					Priority 32 
					Idx 4 { 517 518 520 519 }
				}
				{
					Type TRISTRIP
					Priority 32 
					Idx 4 { 524 521 523 522 }
				}
				{
					Type TRISTRIP
					Priority 32 
					Idx 4 { 525 526 528 527 }
				}
				{
					Type TRISTRIP
					Priority 32 
					Idx 4 { 532 529 531 530 }
				}
				{
					Type TRISTRIP
					Priority 32 
					Idx 4 { 534 535 533 536 }
				}
				{
					Type TRISTRIP
					Priority 32 
					Idx 4 { 537 538 540 539 }
				}
				{
					Type TRISTRIP
					Priority 32 
					Idx 4 { 542 543 541 544 }
				}
				{
					Type TRISTRIP
					Priority 32 
					Idx 4 { 545 546 548 547 }
				}
				{
					Type TRISTRIP
					Priority 32 
					Idx 4 { 549 550 552 551 }
				}
				{
					Type TRISTRIP
					Priority 32 
					Idx 4 { 554 555 553 556 }
				}
				{
					Type TRISTRIP
					Priority 32 
					Idx 4 { 557 558 560 559 }
				}
				{
					Type TRISTRIP
					Priority 32 
					Idx 4 { 561 562 564 563 }
				}
				{
					Type TRISTRIP
					Priority 32 
					Idx 4 { 566 567 565 568 }
				}
				{
					Type TRISTRIP
					Priority 32 
					Idx 18 { 94 95 91 90 91 88 89 79 87 77 86 75 84 74 85 100 102 101 }
				}
				{
					Type TRISTRIP
					Priority 32 
					Idx 15 { 234 235 224 225 224 223 222 221 220 219 218 215 214 216 217 }
				}
				{
					Type TRISTRIP2
					Priority 32 
					Idx 18 { 243 242 244 233 216 227 215 226 219 228 221 230 229 232 231 232 236 237 }
				}
				{
					Type TRISTRIP2
					Priority 32 
					Idx 6 { 99 98 96 97 178 179 }
				}
				{
					Type TRISTRIP2
					Priority 32 
					Idx 6 { 121 124 122 123 259 260 }
				}
				{
					Type TRISTRIP2
					Priority 32 
					Idx 6 { 166 165 167 168 299 298 }
				}
				{
					Type TRISTRIP2
					Priority 32 
					Idx 6 { 170 169 171 172 301 300 }
				}
				{
					Type TRISTRIP2
					Priority 32 
					Idx 8 { 213 212 210 207 211 209 271 270 }
				}
				{
					Type TRISTRIP2
					Priority 32 
					Idx 6 { 240 239 241 238 305 306 }
				}
				{
					Type TRISTRIP2
					Priority 32 
					Idx 8 { 318 245 313 106 189 103 188 195 }
				}
				{
					Type TRISTRIP2
					Priority 32 
					Idx 6 { 39 38 37 45 43 44 }
				}
				{
					Type TRISTRIP2
					Priority 32 
					Idx 15 { 74 73 75 72 77 76 79 78 81 80 83 82 83 93 92 }
				}
				{
					Type TRISTRIP
					Priority 32 
					Idx 6 { 103 104 106 105 245 246 }
				}
				{
					Type TRISTRIP
					Priority 32 
					Idx 11 { 503 504 502 501 447 448 426 423 426 424 425 }
				}
				{
					Type TRISTRIP2
					Priority 32 
					Idx 12 { 200 196 199 109 199 110 201 193 197 194 198 196 }
				}
				{
					Type TRISTRIP2
					Priority 32 
					Idx 12 { 315 258 314 257 316 261 317 253 254 255 110 193 }
				}
				{
					Type TRISTRIP2
					Priority 32 
					Idx 7 { 321 247 319 320 322 317 254 }
				}
				{
					Type TRISTRIP
					Priority 32 
					Idx 11 { 409 410 405 406 405 407 408 488 487 489 490 }
				}
				{
					Type TRISTRIP2
					Priority 32 
					Idx 9 { 256 254 247 110 248 110 107 109 108 }
				}
				{
					Type TRISTRIP
					Priority 32 
					Idx 9 { 294 295 297 296 297 269 268 266 267 }
				}
				{
					Type TRISTRIP2
					Priority 32 
					Idx 11 { 452 451 449 450 366 365 363 364 363 368 367 }
				}
				{
					Type TRISTRIP
					Priority 32 
					Idx 9 { 202 203 205 204 206 204 208 207 209 }
				}
				{
					Type TRISTRIP2
					Priority 32 
					Idx 9 { 132 135 133 134 133 162 163 161 164 }
				}
				{
					Type TRISTRIP
					Priority 32 
					Idx 9 { 67 66 65 62 64 62 61 63 60 }
				}
				{
					Type TRISTRIP2
					Priority 32 
					Idx 24 { 265 264 251 261 251 257 249 258 249 250 249 113 114 112 111 120 119 191 119 190 125 192 193 194 }
				}
				{
					Type TRISTRIP2
					Priority 32 
					Idx 11 { 131 130 125 115 119 115 111 116 114 251 249 }
				}
				{
					Type TRISTRIP
					Priority 32 
					Idx 6 { 118 115 117 116 252 251 }
				}
				{
					Type TRISTRIP
					Priority 32 
					Idx 11 { 160 154 159 154 151 149 151 150 151 152 153 }
				}
				{
					Type TRISTRIP2
					Priority 32 
					Idx 14 { 289 288 286 287 286 285 286 284 286 283 286 281 292 293 }
				}
				{
					Type TRISTRIP2
					Priority 32 
					Idx 7 { 283 280 281 282 281 291 290 }
				}
				{
					Type TRISTRIP
					Priority 32 
					Idx 8 { 22 19 18 20 21 22 23 18 }
				}
				{
					Type TRISTRIP
					Priority 32 
					Idx 9 { 54 57 58 59 55 56 55 57 54 }
				}
				{
					Type TRISTRIP2
					Priority 32 
					Idx 8 { 28 26 27 25 24 28 29 27 }
				}
				{
					Type TRISTRIP2
					Priority 32 
					Idx 8 { 51 50 49 53 52 51 48 49 }
				}
				{
					Type TRISTRIP2
					Priority 32 
					Idx 3 { 4 6 5 }
				}
				{
					Type TRISTRIP
					Priority 32 
					Idx 3 { 12 10 11 }
				}
				{
					Type TRISTRIP2
					Priority 32 
					Idx 3 { 34 36 35 }
				}
				{
					Type TRISTRIP
					Priority 32 
					Idx 3 { 42 40 41 }
				}
				{
					Type TRISTRIP2
					Priority 32 
					Idx 3 { 146 148 147 }
				}
				{
					Type TRISTRIP
					Priority 32 
					Idx 3 { 571 569 570 }
				}
			}

		}
		{
			Name "#3" 
			Priority 32 
			Prim 7 { 
				{
					Type TRISTRIP
					Priority 32 
					Idx 9 { 574 575 573 575 572 575 584 589 590 }
				}
				{
					Type TRISTRIP2
					Priority 32 
					Idx 13 { 595 594 591 583 592 583 593 583 579 583 576 584 572 }
				}
				{
					Type TRISTRIP
					Priority 32 
					Idx 9 { 579 577 576 578 576 580 576 582 581 }
				}
				{
					Type TRISTRIP2
					Priority 32 
					Idx 3 { 585 586 578 }
				}
				{
					Type TRISTRIP
					Priority 32 
					Idx 3 { 588 586 587 }
				}
				{
					Type TRISTRIP2
					Priority 32 
					Idx 3 { 596 592 597 }
				}
				{
					Type TRISTRIP
					Priority 32 
					Idx 3 { 587 597 598 }
				}
			}

		}
		{
			Name "#4" 
			Priority 32 
			Prim 2 { 
				{
					Type TRISTRIP
					Priority 32 
					Idx 6 { 608 605 607 606 610 609 }
				}
				{
					Type TRISTRIP
					Priority 32 
					Idx 7 { 599 600 602 601 602 603 604 }
				}
			}

		}
		{
			Name "#5" 
			Priority 32 
			Prim 2 { 
				{
					Type TRISTRIP
					Priority 32 
					Idx 4 { 612 322 611 319 }
				}
				{
					Type TRISTRIP
					Priority 32 
					Idx 4 { 614 198 613 197 }
				}
			}

		}
	}

	Offset 0 
}
