{
	Skinned 0 
	PosSkin 0 
	Pos 143 { 
		1.051262	1.028322	5.592846 
		1.223849	1.028322	5.573643 
		1.229589	1.443402	5.568763 
		1.051262	1.443402	5.589298 
		-1.193854	1.027424	5.575451 
		-1.026332	1.027424	5.594244 
		-1.026332	1.444043	5.598755 
		-1.193854	1.444043	5.581115 
		1.020520	2.691490	5.228480 
		1.110020	2.661430	5.221280 
		1.107020	2.672149	-4.873420 
		1.020270	2.692360	-4.885470 
		1.159830	2.619440	-5.003220 
		1.088630	2.631510	-5.035310 
		1.183390	2.522370	-5.097190 
		1.120790	2.520910	-5.142381 
		1.253919	1.669084	-5.495657 
		1.269000	1.486629	-5.580860 
		1.315030	0.919605	-5.564060 
		1.223620	0.949959	-5.621750 
		1.223620	0.919129	-5.741390 
		1.315030	0.431765	-5.636520 
		1.223620	0.448313	-5.727390 
		0.001090	2.740310	5.335320 
		0.001092	2.741180	-4.954660 
		-0.997459	2.691240	5.228480 
		0.001092	2.680330	-5.104510 
		0.001092	2.569730	-5.211580 
		-1.097710	2.520660	-5.142380 
		0.001415	1.494590	-5.688590 
		0.001416	0.949959	-5.690950 
		-1.210450	0.949959	-5.621750 
		0.001416	0.919129	-5.810590 
		0.001416	0.448313	-5.796590 
		-1.210450	0.448313	-5.727390 
		-1.086970	2.661180	5.231750 
		-0.997213	2.692110	-4.885470 
		-1.083960	2.671900	-4.873420 
		-1.065570	2.631260	-5.035310 
		-1.136770	2.619190	-5.003221 
		-1.160300	2.522120	-5.097190 
		-1.301850	1.482640	-5.561581 
		-1.301850	0.919605	-5.564060 
		-1.210450	0.919129	-5.741390 
		-1.301850	0.433421	-5.633620 
		-1.303150	0.288336	-4.229230 
		-1.303150	0.745199	-4.205790 
		-1.303150	1.050530	-4.058030 
		-1.303150	0.804559	-3.118040 
		-1.303150	0.279433	2.972610 
		-1.303150	0.717255	3.002250 
		-1.303150	0.285741	-3.059420 
		1.314650	0.288337	-4.229230 
		1.314650	0.745200	-4.205790 
		1.314650	1.051450	-4.057880 
		1.314650	0.764660	4.116400 
		1.315030	0.299279	5.607970 
		1.302760	0.281698	4.177780 
		1.147570	2.616220	5.352720 
		1.314650	0.285741	-3.059420 
		1.314650	0.681830	-3.097670 
		1.314650	0.278067	2.972420 
		1.314650	1.059050	-3.330460 
		1.314650	1.123480	-3.672860 
		1.314650	1.118500	3.553340 
		-1.303150	1.058270	-3.331820 
		1.314650	1.016350	3.139580 
		-1.303150	1.123480	-3.672870 
		-1.303150	1.016300	3.139710 
		-1.303150	0.762808	4.117230 
		-1.303150	0.281865	4.178700 
		-1.301850	0.297864	5.607240 
		-1.066990	2.625110	5.406760 
		0.001090	2.672921	5.513600 
		-1.210120	1.597230	5.581370 
		-0.009902	1.597230	5.688210 
		1.079790	2.622860	5.406760 
		1.252870	1.593820	5.529050 
		1.314740	1.411893	5.505730 
		-1.155180	2.616050	5.351870 
		-1.303310	1.593540	5.505560 
		-1.303150	1.033640	3.957800 
		-1.303150	1.119161	3.553880 
		1.289382	1.594578	5.482520 
		1.314650	0.717680	3.003010 
		1.223620	0.583083	5.687600 
		1.328350	0.585325	5.598690 
		1.223620	0.613913	5.567970 
		1.297210	0.583560	5.510270 
		-1.301850	0.583560	5.510270 
		-1.193854	0.613913	5.569822 
		-1.333520	0.585325	5.598690 
		-1.210450	0.583083	5.687600 
		0.001414	0.613913	5.703950 
		0.001414	0.583083	5.823580 
		1.223620	0.295880	5.692840 
		0.001413	0.298049	5.816750 
		-1.210450	0.295879	5.692840 
		-1.506600	2.109450	-5.291101 
		-1.327420	2.109450	-5.247621 
		-1.506600	1.595370	-5.291101 
		-1.327420	1.595370	-5.247621 
		-1.521080	2.109450	-5.271330 
		-1.521080	1.595370	-5.271330 
		-1.328510	2.109450	-5.226090 
		-1.328510	1.595370	-5.226090 
		1.517430	2.109450	-5.291101 
		1.517430	1.595370	-5.291101 
		1.338240	2.109450	-5.247621 
		1.338240	1.595370	-5.247621 
		1.531900	2.109450	-5.271330 
		1.531900	1.595370	-5.271330 
		1.339330	2.109450	-5.226090 
		1.339330	1.595370	-5.226090 
		1.314650	1.034580	3.955510 
		1.286037	1.601605	4.447058 
		1.310334	1.419092	4.437884 
		1.291482	1.449895	-0.131518 
		1.271244	1.632685	-0.132468 
		0.879795	0.288337	-4.229230 
		-0.510107	0.279433	2.972610 
		-0.510108	0.281866	4.178700 
		-0.510107	0.977546	2.985610 
		0.497075	0.278067	2.972410 
		0.497075	0.977928	2.985160 
		0.497075	0.961320	4.191650 
		0.525790	0.281698	4.177780 
		-0.510107	0.962484	4.190490 
		0.879795	1.042210	-3.229400 
		0.879794	0.285741	-3.059410 
		0.879796	1.037330	-4.151140 
		-0.892845	1.036659	-4.149890 
		-0.892846	0.288337	-4.229230 
		-0.892847	1.041680	-3.229040 
		-0.892600	0.285741	-3.059420 
		-0.571257	1.025780	-5.663376 
		-1.210450	1.025780	-5.626876 
		-0.571257	1.155550	-5.662816 
		-1.210450	1.155550	-5.626316 
		0.571258	1.025780	-5.663376 
		0.571258	1.155550	-5.662816 
		1.210450	1.025780	-5.626876 
		1.210450	1.155550	-5.626316 
	}

	Nrm 143 { 
		0.109375	-0.015625	1.000000 
		-0.109375	-0.015625	1.000000 
		0.187500	0.968750	0.140625 
		0.468750	0.890625	0.078125 
		0.437500	0.890625	-0.093750 
		0.187500	0.968750	-0.171875 
		0.703125	0.671875	-0.218750 
		0.218750	0.843750	-0.500000 
		0.656250	0.531250	-0.546875 
		0.250000	0.593750	-0.765625 
		0.937500	0.218750	-0.281250 
		0.796875	0.203125	-0.562500 
		0.953125	0.031250	-0.281250 
		0.234375	0.031250	-0.968750 
		0.437500	0.875000	-0.218750 
		0.156250	0.953125	-0.250000 
		0.234375	0.937500	-0.250000 
		0.906250	0.015625	-0.406250 
		0.609375	0.000000	-0.796875 
		0.281250	-0.031250	-0.953125 
		0.000000	0.968750	0.234375 
		0.000000	0.984375	-0.187500 
		-0.171875	0.984375	0.125000 
		0.000000	0.796875	-0.609375 
		0.000000	0.500000	-0.859375 
		-0.265625	0.609375	-0.734375 
		0.000000	0.171875	-0.984375 
		0.000000	0.000000	-1.000000 
		-0.234375	0.031250	-0.968750 
		-0.015625	0.968750	-0.250000 
		-0.156250	0.953125	-0.250000 
		0.000000	-0.031250	-1.000000 
		-0.484375	0.000000	-0.875000 
		-0.406250	0.906250	0.062500 
		-0.171875	0.968750	-0.156250 
		-0.359375	0.921875	-0.140625 
		-0.187500	0.875000	-0.437500 
		-0.593750	0.734375	-0.328125 
		-0.875000	0.359375	-0.312500 
		-0.843750	0.171875	-0.515625 
		-0.937500	0.015625	-0.359375 
		-0.234375	0.937500	-0.250000 
		-0.437500	0.875000	-0.218750 
		-0.546875	-0.031250	-0.843750 
		-0.921875	0.046875	-0.375000 
		-1.000000	0.000000	0.000000 
		1.000000	0.000000	0.000000 
		1.000000	0.031250	0.000000 
		1.000000	0.031250	-0.015625 
		1.000000	0.015625	0.000000 
		0.968750	0.000000	0.265625 
		1.000000	-0.031250	-0.015625 
		0.781250	0.578125	0.250000 
		1.000000	0.062500	0.000000 
		-1.000000	-0.046875	0.109375 
		-0.234375	0.734375	0.625000 
		0.000000	0.468750	0.875000 
		-0.359375	0.125000	0.921875 
		0.015625	0.093750	1.000000 
		0.390625	0.656250	0.640625 
		0.375000	0.171875	0.906250 
		0.859375	0.078125	0.500000 
		-0.734375	0.593750	0.343750 
		-0.937500	0.046875	0.359375 
		0.953125	0.171875	0.281250 
		0.015625	0.968750	-0.250000 
		0.078125	0.968750	0.250000 
		0.250000	0.968750	0.062500 
		0.171875	0.984375	0.125000 
		0.296875	0.953125	-0.125000 
		-0.984375	-0.031250	0.156250 
		-0.312500	0.000000	0.953125 
		-0.187500	0.984375	0.062500 
		-0.156250	0.968750	0.234375 
		-0.218750	0.968750	-0.093750 
		0.031250	0.968750	0.250000 
		-0.031250	0.968750	0.250000 
		0.968750	-0.031250	0.265625 
		0.406250	0.000000	0.921875 
		0.406250	0.015625	0.906250 
		0.984375	0.000000	0.140625 
		0.000000	0.000000	1.000000 
		0.000000	-0.031250	1.000000 
		-0.281250	0.000000	0.968750 
		-0.468750	0.000000	0.875000 
		-0.015625	0.000000	1.000000 
		0.375000	-0.015625	0.921875 
		-0.875000	-0.062500	0.484375 
		0.234375	0.000000	-0.968750 
		-0.812500	0.000000	-0.593750 
		0.000000	1.000000	0.000000 
		1.000000	0.000000	0.046875 
		0.000000	-1.000000	0.000000 
		-0.234375	0.000000	0.968750 
		-0.234375	0.000000	-0.968750 
		0.812500	0.000000	-0.593750 
		-1.000000	0.000000	0.046875 
		0.234375	0.000000	0.968750 
		0.984375	0.125000	0.000000 
		1.000000	0.078125	0.000000 
		1.000000	0.093750	0.000000 
		1.000000	0.109375	0.000000 
		-0.078125	-0.984375	-0.093750 
		0.046875	-1.000000	0.015625 
		0.000000	-1.000000	-0.093750 
		0.062500	-1.000000	-0.109375 
		-0.031250	-1.000000	0.015625 
		1.000000	0.046875	-0.031250 
		0.031250	-0.015625	1.000000 
		0.000000	-0.062500	1.000000 
		0.156250	-0.406250	0.890625 
		0.000000	-0.968750	0.234375 
		0.203125	-0.500000	-0.843750 
		0.000000	0.015625	-1.000000 
		0.125000	-0.125000	-0.984375 
		-0.093750	0.015625	-1.000000 
		0.000000	-0.125000	-0.984375 
		-0.203125	-0.500000	-0.843750 
		0.031250	-0.984375	-0.203125 
		-0.156250	-0.406250	0.906250 
		-0.031250	-0.015625	1.000000 
		0.000000	-0.093750	-1.000000 
		0.109375	-0.218750	-0.968750 
		-0.171875	-0.515625	-0.843750 
		-0.171875	-0.421875	0.890625 
		0.062500	-0.109375	1.000000 
		0.000000	-0.046875	1.000000 
		0.000000	-0.109375	-1.000000 
		-0.140625	-0.218750	-0.968750 
		0.156250	-0.640625	-0.750000 
		0.187500	-0.421875	0.890625 
		-0.062500	-0.109375	1.000000 
		0.000000	-1.000000	-0.109375 
		0.000000	-1.000000	0.015625 
		0.000000	-0.984375	0.187500 
		0.000000	-0.984375	-0.187500 
		0.187500	-0.984375	0.000000 
		0.015625	-0.984375	0.187500 
		-0.203125	-0.984375	0.000000 
		-0.031250	-0.984375	-0.203125 
		-0.187500	-0.984375	-0.015625 
		0.171875	-0.984375	-0.015625 
		0.062500	0.000000	-1.000000 
	}

	Cpv 400 { 
		0.500000	0.500000	0.500000	0.000000 
		0.500000	0.500000	0.500000	0.000000 
		0.500000	0.500000	0.500000	0.000000 
		0.500000	0.500000	0.500000	0.000000 
		0.500000	0.500000	0.500000	0.000000 
		0.500000	0.500000	0.500000	0.000000 
		0.500000	0.500000	0.500000	0.000000 
		0.500000	0.500000	0.500000	0.000000 
		0.500000	0.500000	0.500000	0.003922 
		0.500000	0.500000	0.500000	0.003922 
		0.500000	0.500000	0.500000	0.003922 
		0.500000	0.500000	0.500000	0.003922 
		0.500000	0.500000	0.500000	0.003922 
		0.500000	0.500000	0.500000	0.003922 
		0.500000	0.500000	0.500000	0.003922 
		0.500000	0.500000	0.500000	0.003922 
		0.500000	0.500000	0.500000	0.003922 
		0.500000	0.500000	0.500000	0.003922 
		0.500000	0.500000	0.500000	0.000000 
		0.500000	0.500000	0.500000	0.000000 
		0.500000	0.500000	0.500000	0.000000 
		0.500000	0.500000	0.500000	0.000000 
		0.500000	0.500000	0.500000	0.000000 
		0.500000	0.500000	0.500000	0.000000 
		0.500000	0.500000	0.500000	0.000000 
		0.500000	0.500000	0.500000	0.000000 
		0.500000	0.500000	0.500000	0.000000 
		0.500000	0.500000	0.500000	0.000000 
		0.500000	0.500000	0.500000	0.000000 
		0.500000	0.500000	0.500000	0.000000 
		0.500000	0.304185	0.500000	0.003922 
		0.500000	0.304185	0.500000	0.003922 
		0.500000	0.295856	0.500000	0.003922 
		0.500000	0.500000	0.500000	0.003922 
		0.500000	0.304185	0.500000	0.003922 
		0.500000	0.304185	0.500000	0.003922 
		0.500000	0.304185	0.500000	0.003922 
		0.500000	0.295856	0.500000	0.003922 
		0.500000	0.500000	0.590332	0.000000 
		0.500000	0.500000	0.590332	0.000000 
		0.500000	0.500000	0.500000	0.000000 
		0.500000	0.500000	0.590332	0.000000 
		0.500000	0.500000	0.590332	0.000000 
		0.500000	0.500000	0.500000	0.000000 
		0.500000	0.500000	0.590332	0.000000 
		0.500000	0.500000	0.590332	0.000000 
		0.500000	0.500000	0.500000	0.000000 
		0.500000	0.295856	0.500000	0.003922 
		0.500000	0.295856	0.500000	0.003922 
		0.500000	0.295856	0.500000	0.003922 
		0.500000	0.295856	0.500000	0.003922 
		0.500000	0.295856	0.500000	0.003922 
		0.500000	0.295856	0.500000	0.003922 
		0.500000	0.295856	0.500000	0.003922 
		0.553412	0.295856	0.500000	0.003922 
		0.500000	0.295856	0.500000	0.003922 
		0.553412	0.295856	0.500000	0.003922 
		0.500000	0.500000	0.500000	0.000000 
		0.580120	0.500000	0.500000	0.000000 
		0.500000	0.500000	0.500000	0.000000 
		0.500000	0.500000	0.500000	0.000000 
		0.580120	0.500000	0.500000	0.000000 
		0.500000	0.500000	0.500000	0.000000 
		0.580120	0.500000	0.500000	0.000000 
		0.500000	0.500000	0.500000	0.000000 
		0.580120	0.500000	0.500000	0.000000 
		0.500000	0.500000	0.500000	0.000000 
		0.580120	0.500000	0.500000	0.000000 
		0.580120	0.500000	0.500000	0.000000 
		0.500000	0.500000	0.500000	0.000000 
		0.500000	0.500000	0.500000	0.000000 
		0.500000	0.500000	0.500000	0.000000 
		0.500000	0.500000	0.500000	0.000000 
		0.500000	0.500000	0.500000	0.000000 
		0.500000	0.500000	0.500000	0.000000 
		0.500000	0.500000	0.500000	0.000000 
		0.500000	0.500000	0.500000	0.000000 
		0.500000	0.500000	0.500000	0.000000 
		0.500000	0.500000	0.500000	0.000000 
		0.500000	0.500000	0.500000	0.000000 
		0.500000	0.500000	0.500000	0.000000 
		0.500000	0.500000	0.500000	0.000000 
		0.500000	0.500000	0.500000	0.000000 
		0.500000	0.500000	0.500000	0.000000 
		0.500000	0.500000	0.500000	0.003922 
		0.500000	0.500000	0.500000	0.003922 
		0.500000	0.500000	0.500000	0.000000 
		0.500000	0.500000	0.500000	0.000000 
		0.500000	0.500000	0.500000	0.000000 
		0.500000	0.500000	0.500000	0.000000 
		0.500000	0.500000	0.500000	0.000000 
		0.500000	0.500000	0.500000	0.000000 
		0.500000	0.500000	0.500000	0.000000 
		0.500000	0.500000	0.500000	0.000000 
		0.500000	0.500000	0.500000	0.000000 
		0.500000	0.500000	0.500000	0.000000 
		0.500000	0.500000	0.500000	0.000000 
		0.500000	0.500000	0.500000	0.000000 
		0.500000	0.559148	0.500000	0.000000 
		0.500000	0.295856	0.500000	0.003922 
		0.500000	0.304185	0.500000	0.003922 
		0.500000	0.304185	0.500000	0.003922 
		0.500000	0.500000	0.500000	0.000000 
		0.500000	0.500000	0.500000	0.000000 
		0.500000	0.500000	0.500000	0.003922 
		0.500000	0.500000	0.500000	0.000000 
		0.500000	0.500000	0.500000	0.000000 
		0.553412	0.295856	0.500000	0.003922 
		0.500000	0.295856	0.500000	0.003922 
		0.500000	0.295856	0.500000	0.003922 
		0.500000	0.500000	0.500000	0.000000 
		0.553412	0.295856	0.500000	0.003922 
		0.553412	0.295856	0.500000	0.003922 
		0.553412	0.295856	0.500000	0.003922 
		0.500000	0.500000	0.500000	0.000000 
		0.500000	0.500000	0.500000	0.000000 
		0.500000	0.500000	0.500000	0.000000 
		0.500000	0.500000	0.500000	0.000000 
		0.500000	0.500000	0.500000	0.003922 
		0.500000	0.500000	0.500000	0.003922 
		0.500000	0.500000	0.500000	0.003922 
		0.500000	0.500000	0.500000	0.000000 
		0.500000	0.500000	0.500000	0.003922 
		0.500000	0.500000	0.500000	0.003922 
		0.500000	0.295856	0.500000	0.003922 
		0.500000	0.500000	0.500000	0.003922 
		0.500000	0.295856	0.500000	0.003922 
		0.500000	0.295856	0.500000	0.003922 
		0.500000	0.500000	0.500000	0.003922 
		0.500000	0.500000	0.590332	0.000000 
		0.500000	0.500000	0.590332	0.000000 
		0.500000	0.500000	0.500000	0.000000 
		0.500000	0.500000	0.500000	0.000000 
		0.500000	0.500000	0.500000	0.000000 
		0.500000	0.500000	0.500000	0.000000 
		0.500000	0.559148	0.500000	0.000000 
		0.500000	0.559148	0.500000	0.000000 
		0.500000	0.559148	0.500000	0.000000 
		0.500000	0.559148	0.428576	0.000000 
		0.500000	0.559148	0.500000	0.000000 
		0.500000	0.559148	0.500000	0.000000 
		0.500000	0.583574	0.289464	0.000000 
		0.500000	0.583574	0.289464	0.000000 
		0.500000	0.559148	0.500000	0.000000 
		0.500000	0.559148	0.428576	0.000000 
		0.500000	0.583574	0.289464	0.000000 
		0.500000	0.583574	0.289464	0.000000 
		0.500000	0.500000	0.500000	0.000000 
		0.500000	0.500000	0.500000	0.000000 
		0.500000	0.500000	0.500000	0.000000 
		0.500000	0.500000	0.500000	0.000000 
		0.500000	0.500000	0.500000	0.000000 
		0.500000	0.583574	0.289464	0.000000 
		0.500000	0.583574	0.289464	0.000000 
		0.500000	0.559148	0.428576	0.000000 
		0.500000	0.559148	0.428576	0.000000 
		0.500000	0.583574	0.289464	0.000000 
		0.500000	0.500000	0.500000	0.000000 
		0.500000	0.500000	0.500000	0.000000 
		0.500000	0.559148	0.500000	0.000000 
		0.500000	0.559148	0.500000	0.000000 
		0.500000	0.559148	0.500000	0.000000 
		0.500000	0.559148	0.500000	0.000000 
		0.500000	0.500000	0.500000	0.000000 
		0.424638	0.461999	0.500000	0.000000 
		0.415878	0.517339	0.500000	0.000000 
		0.583414	0.487133	0.500000	0.000000 
		0.574654	0.542473	0.500000	0.000000 
		0.425346	0.457527	0.500000	0.000000 
		0.424638	0.461999	0.500000	0.000000 
		0.584122	0.482661	0.500000	0.000000 
		0.583414	0.487133	0.500000	0.000000 
		0.415878	0.517339	0.500000	0.000000 
		0.415878	0.517339	0.500000	0.000000 
		0.425346	0.457527	0.500000	0.000000 
		0.424638	0.461999	0.500000	0.000000 
		0.574654	0.542473	0.500000	0.000000 
		0.574654	0.542473	0.500000	0.000000 
		0.415878	0.517339	0.500000	0.000000 
		0.415878	0.517339	0.500000	0.000000 
		0.584122	0.482661	0.500000	0.000000 
		0.583414	0.487133	0.500000	0.000000 
		0.574654	0.542473	0.500000	0.000000 
		0.574654	0.542473	0.500000	0.000000 
		0.584122	0.482661	0.500000	0.000000 
		0.415878	0.517339	0.500000	0.000000 
		0.425346	0.457527	0.500000	0.000000 
		0.574654	0.542473	0.500000	0.000000 
		0.373466	0.500000	0.573469	0.000000 
		0.373466	0.500000	0.573469	0.000000 
		0.402461	0.500000	0.423027	0.000000 
		0.402461	0.500000	0.423027	0.000000 
		0.353528	0.500000	0.577581	0.000000 
		0.353528	0.500000	0.577581	0.000000 
		0.373466	0.500000	0.573469	0.000000 
		0.373466	0.500000	0.573469	0.000000 
		0.385812	0.500000	0.416418	0.000000 
		0.353528	0.500000	0.577581	0.000000 
		0.402461	0.500000	0.423027	0.000000 
		0.373466	0.500000	0.573469	0.000000 
		0.385812	0.500000	0.416418	0.000000 
		0.385812	0.500000	0.416418	0.000000 
		0.402461	0.500000	0.423027	0.000000 
		0.402461	0.500000	0.423027	0.000000 
		0.353528	0.500000	0.577581	0.000000 
		0.385812	0.500000	0.416418	0.000000 
		0.373466	0.500000	0.573469	0.000000 
		0.402461	0.500000	0.423027	0.000000 
		0.353528	0.500000	0.577581	0.000000 
		0.353528	0.500000	0.577581	0.000000 
		0.385812	0.500000	0.416418	0.000000 
		0.385812	0.500000	0.416418	0.000000 
		0.500000	0.500000	0.500000	0.000000 
		0.500000	0.500000	0.500000	0.000000 
		0.391883	0.500000	0.500000	0.000000 
		0.500000	0.500000	0.500000	0.000000 
		0.391883	0.500000	0.500000	0.000000 
		0.391883	0.500000	0.500000	0.000000 
		0.391883	0.500000	0.500000	0.000000 
		0.391883	0.500000	0.500000	0.000000 
		0.391883	0.500000	0.500000	0.000000 
		0.391883	0.500000	0.500000	0.000000 
		0.391883	0.500000	0.500000	0.000000 
		0.500000	0.500000	0.500000	0.000000 
		0.500000	0.500000	0.500000	0.003922 
		0.500000	0.500000	0.500000	0.000000 
		0.500000	0.500000	0.500000	0.000000 
		0.500000	0.500000	0.500000	0.000000 
		0.500000	0.500000	0.500000	0.000000 
		0.500000	0.500000	0.500000	0.000000 
		0.500000	0.500000	0.500000	0.000000 
		0.500000	0.500000	0.500000	0.000000 
		0.500000	0.500000	0.500000	0.000000 
		0.500000	0.500000	0.590332	0.000000 
		0.500000	0.500000	0.500000	0.000000 
		0.580120	0.500000	0.500000	0.000000 
		0.500000	0.500000	0.500000	0.000000 
		0.500000	0.559148	0.428576	0.000000 
		0.500000	0.559148	0.500000	0.000000 
		0.500000	0.500000	0.500000	0.000000 
		0.500000	0.500000	0.500000	0.000000 
		0.500000	0.500000	0.500000	0.000000 
		0.500000	0.500000	0.500000	0.000000 
		0.500000	0.500000	0.500000	0.000000 
		0.500000	0.500000	0.500000	0.000000 
		0.500000	0.500000	0.500000	0.000000 
		0.500000	0.500000	0.500000	0.000000 
		0.500000	0.500000	0.500000	0.000000 
		0.500000	0.500000	0.500000	0.000000 
		0.500000	0.500000	0.500000	0.000000 
		0.500000	0.500000	0.500000	0.000000 
		0.500000	0.500000	0.500000	0.000000 
		0.500000	0.500000	0.500000	0.000000 
		0.500000	0.500000	0.500000	0.000000 
		0.500000	0.500000	0.500000	0.000000 
		0.500000	0.500000	0.500000	0.000000 
		0.500000	0.500000	0.500000	0.000000 
		0.500000	0.500000	0.500000	0.000000 
		0.500000	0.500000	0.500000	0.000000 
		0.500000	0.500000	0.500000	0.000000 
		0.500000	0.500000	0.500000	0.000000 
		0.500000	0.500000	0.500000	0.000000 
		0.500000	0.500000	0.500000	0.000000 
		0.500000	0.500000	0.500000	0.000000 
		0.500000	0.500000	0.500000	0.000000 
		0.500000	0.500000	0.500000	0.000000 
		0.500000	0.500000	0.500000	0.000000 
		0.500000	0.500000	0.500000	0.000000 
		0.500000	0.500000	0.500000	0.000000 
		0.500000	0.500000	0.500000	0.000000 
		0.500000	0.500000	0.500000	0.000000 
		0.500000	0.500000	0.500000	0.000000 
		0.500000	0.500000	0.500000	0.000000 
		0.500000	0.500000	0.500000	0.000000 
		0.500000	0.500000	0.500000	0.000000 
		0.500000	0.500000	0.500000	0.000000 
		0.500000	0.500000	0.500000	0.000000 
		0.500000	0.500000	0.500000	0.000000 
		0.500000	0.500000	0.500000	0.000000 
		0.500000	0.500000	0.500000	0.000000 
		0.500000	0.500000	0.500000	0.000000 
		0.500000	0.500000	0.500000	0.000000 
		0.500000	0.500000	0.500000	0.000000 
		0.500000	0.500000	0.500000	0.000000 
		0.500000	0.500000	0.500000	0.000000 
		0.500000	0.500000	0.500000	0.000000 
		0.500000	0.500000	0.500000	0.000000 
		0.500000	0.500000	0.500000	0.000000 
		0.500000	0.500000	0.500000	0.000000 
		0.500000	0.500000	0.500000	0.000000 
		0.500000	0.500000	0.500000	0.000000 
		0.500000	0.500000	0.500000	0.000000 
		0.500000	0.500000	0.500000	0.000000 
		0.500000	0.500000	0.500000	0.000000 
		0.500000	0.500000	0.500000	0.000000 
		0.500000	0.500000	0.500000	0.000000 
		0.500000	0.500000	0.500000	0.000000 
		0.500000	0.500000	0.500000	0.000000 
		0.500000	0.500000	0.500000	0.000000 
		0.500000	0.500000	0.500000	0.000000 
		0.500000	0.500000	0.500000	0.000000 
		0.500000	0.500000	0.500000	0.000000 
		0.500000	0.500000	0.500000	0.000000 
		0.500000	0.500000	0.500000	0.000000 
		0.500000	0.500000	0.500000	0.000000 
		0.500000	0.500000	0.500000	0.000000 
		0.500000	0.500000	0.500000	0.000000 
		0.500000	0.500000	0.500000	0.000000 
		0.500000	0.500000	0.500000	0.000000 
		0.500000	0.500000	0.500000	0.000000 
		0.500000	0.500000	0.500000	0.000000 
		0.500000	0.500000	0.500000	0.000000 
		0.500000	0.500000	0.500000	0.000000 
		0.500000	0.500000	0.500000	0.000000 
		0.500000	0.500000	0.500000	0.000000 
		0.500000	0.500000	0.500000	0.000000 
		0.500000	0.500000	0.500000	0.000000 
		0.500000	0.500000	0.500000	0.000000 
		0.500000	0.500000	0.500000	0.000000 
		0.500000	0.500000	0.500000	0.000000 
		0.500000	0.500000	0.500000	0.000000 
		0.500000	0.500000	0.500000	0.000000 
		0.500000	0.500000	0.500000	0.000000 
		0.500000	0.500000	0.500000	0.000000 
		0.500000	0.500000	0.500000	0.000000 
		0.500000	0.500000	0.500000	0.000000 
		0.500000	0.500000	0.500000	0.000000 
		0.500000	0.500000	0.500000	0.000000 
		0.500000	0.500000	0.500000	0.000000 
		0.500000	0.500000	0.500000	0.000000 
		0.580120	0.500000	0.500000	0.000000 
		0.500000	0.500000	0.500000	0.000000 
		0.500000	0.500000	0.500000	0.000000 
		0.580120	0.500000	0.500000	0.000000 
		0.580120	0.500000	0.500000	0.000000 
		0.580120	0.500000	0.500000	0.000000 
		0.500000	0.500000	0.500000	0.000000 
		0.500000	0.500000	0.500000	0.000000 
		0.500000	0.500000	0.500000	0.000000 
		0.500000	0.500000	0.500000	0.000000 
		0.500000	0.500000	0.500000	0.000000 
		0.500000	0.500000	0.590332	0.000000 
		0.500000	0.500000	0.500000	0.000000 
		0.500000	0.500000	0.500000	0.000000 
		0.500000	0.500000	0.500000	0.000000 
		0.500000	0.500000	0.500000	0.000000 
		0.500000	0.500000	0.500000	0.000000 
		0.500000	0.500000	0.500000	0.000000 
		0.500000	0.500000	0.500000	0.000000 
		0.500000	0.583574	0.289464	0.000000 
		0.500000	0.559148	0.428576	0.000000 
		0.500000	0.500000	0.500000	0.000000 
		0.500000	0.500000	0.500000	0.000000 
		0.500000	0.500000	0.500000	0.000000 
		0.500000	0.500000	0.500000	0.000000 
		0.500000	0.500000	0.500000	0.000000 
		0.580120	0.500000	0.500000	0.000000 
		0.500000	0.500000	0.500000	0.000000 
		0.580120	0.500000	0.500000	0.000000 
		0.500000	0.500000	0.500000	0.000000 
		0.500000	0.500000	0.500000	0.000000 
		0.500000	0.500000	0.500000	0.000000 
		0.500000	0.500000	0.500000	0.000000 
		0.500000	0.500000	0.500000	0.000000 
		0.500000	0.500000	0.500000	0.000000 
		0.500000	0.500000	0.500000	0.000000 
		0.500000	0.500000	0.500000	0.000000 
		0.500000	0.500000	0.500000	0.000000 
		0.500000	0.500000	0.500000	0.000000 
		0.500000	0.500000	0.500000	0.000000 
		0.500000	0.500000	0.500000	0.000000 
		0.500000	0.500000	0.500000	0.000000 
		0.500000	0.500000	0.500000	0.000000 
		0.500000	0.500000	0.500000	0.000000 
		0.500000	0.500000	0.500000	0.000000 
		0.500000	0.500000	0.500000	0.000000 
		0.500000	0.500000	0.500000	0.000000 
		0.500000	0.500000	0.500000	0.000000 
		0.500000	0.500000	0.500000	0.000000 
		0.500000	0.500000	0.500000	0.000000 
		0.500000	0.500000	0.500000	0.000000 
		0.500000	0.500000	0.500000	0.000000 
		0.500000	0.500000	0.500000	0.000000 
		0.500000	0.500000	0.500000	0.000000 
		0.500000	0.500000	0.500000	0.000000 
		0.500000	0.500000	0.500000	0.000000 
		0.500000	0.500000	0.500000	0.000000 
		0.500000	0.500000	0.500000	0.000000 
		0.500000	0.500000	0.500000	0.000000 
		0.500000	0.500000	0.500000	0.000000 
		0.500000	0.500000	0.500000	0.000000 
		0.500000	0.500000	0.500000	0.000000 
		0.500000	0.500000	0.500000	0.000000 
		0.500000	0.500000	0.500000	0.000000 
		0.500000	0.500000	0.500000	0.000000 
		0.500000	0.500000	0.500000	0.000000 
		0.500000	0.500000	0.500000	0.000000 
		0.500000	0.500000	0.500000	0.000000 
		0.500000	0.500000	0.500000	0.000000 
		0.500000	0.500000	0.500000	0.000000 
	}

	Tex0 158 { 
		0.443359	0.652344 
		0.475586	0.652344 
		0.476563	0.737305 
		0.443359	0.737305 
		0.024414	0.652344 
		0.055664	0.652344 
		0.055664	0.737305 
		0.024414	0.737305 
		0.965820	0.492188 
		0.965820	0.486328 
		0.067383	0.488281 
		0.066406	0.492188 
		0.536133	0.969727 
		0.524414	0.958984 
		0.558594	0.975586 
		0.541992	0.962891 
		0.520508	0.940430 
		0.536133	0.941406 
		0.511719	0.782227 
		0.509766	0.748047 
		0.503906	0.631836 
		0.521484	0.637695 
		0.512695	0.742188 
		0.986328	0.555664 
		0.969727	0.555664 
		0.969727	0.558594 
		0.986328	0.506836 
		0.969727	0.507813 
		0.099609	0.880859 
		0.126953	0.880859 
		0.099609	0.901367 
		0.546875	0.965820 
		0.751953	0.975586 
		0.751953	0.987305 
		0.751953	0.954102 
		0.959961	0.944336 
		0.751953	0.744141 
		0.751953	0.637695 
		0.981445	0.637695 
		0.746094	0.558594 
		0.746094	0.555664 
		0.523438	0.558594 
		0.746094	0.507813 
		0.523438	0.507813 
		0.998047	0.631836 
		0.998047	0.742188 
		0.523438	0.555664 
		0.506836	0.555664 
		0.506836	0.506836 
		0.006836	0.129883 
		0.000000	0.031250 
		0.125000	0.000977 
		0.126953	0.094727 
		0.006836	0.245117 
		0.140625	0.157227 
		0.223633	0.106445 
		0.765625	-0.000977 
		0.768555	0.088867 
		0.229492	0.000977 
		0.004883	0.246094 
		0.867188	0.098633 
		1.000000	0.003906 
		0.873047	0.000000 
		0.977539	0.476563 
		0.056641	0.477539 
		0.225586	0.082031 
		0.205078	0.159180 
		0.174805	0.171875 
		0.817383	0.170898 
		0.780273	0.150391 
		0.047852	0.979492 
		0.247070	0.977539 
		0.247070	0.999023 
		0.021484	0.769531 
		0.245117	0.769531 
		0.448242	0.972656 
		0.480469	0.768555 
		0.492188	0.732422 
		0.031250	0.978516 
		0.061523	0.993164 
		0.043945	0.987305 
		0.003906	0.768555 
		0.047852	0.458008 
		0.991211	0.267578 
		0.853516	0.153320 
		0.487305	0.768555 
		0.460938	0.970703 
		0.454102	0.992188 
		0.437500	0.998047 
		0.099609	0.859375 
		0.126953	0.859375 
		0.126953	0.901367 
		0.559570	0.977539 
		0.954102	0.965820 
		0.940430	0.977539 
		0.540039	0.944336 
		0.474609	0.556641 
		0.494141	0.556641 
		0.488281	0.556641 
		0.003906	0.561523 
		0.024414	0.567383 
		0.000977	0.556641 
		0.023438	0.556641 
		0.026367	0.557617 
		0.006836	0.556641 
		0.248047	0.557617 
		0.492188	0.541992 
		0.474609	0.541992 
		0.991211	0.059570 
		0.248047	0.541992 
		0.023438	0.541992 
		0.247070	0.567383 
		0.475586	0.567383 
		0.489258	0.561523 
		0.006836	0.541992 
		0.452148	0.800781 
		0.210938	0.286133 
		0.991211	0.232422 
		0.896484	0.270508 
		0.989258	0.269531 
		0.895508	0.233398 
		0.489258	0.239258 
		0.916016	0.263672 
		0.488281	0.261719 
		0.916016	0.240234 
		0.489258	0.276367 
		0.012695	0.283203 
		0.013672	1.000000 
		0.134766	1.000000 
		0.005859	0.964844 
		0.982422	1.000000 
		0.989258	0.964844 
		0.858398	0.995117 
		0.134766	0.833984 
		0.000000	0.498047 
		0.005859	0.035156 
		0.134766	0.000000 
		0.013672	0.000977 
		0.989258	0.035156 
		0.982422	0.000977 
		0.859375	0.000000 
		0.499023	0.283203 
		0.235352	0.833984 
		0.235352	0.157227 
		0.235352	1.000000 
		0.754883	1.000000 
		0.754883	0.302734 
		0.754883	0.000000 
		0.235352	0.000000 
		1.000000	0.498047 
		0.858398	0.698242 
		0.859375	0.302734 
		0.754883	0.687500 
		0.134766	0.156250 
		0.521484	0.571289 
		0.654297	0.571289 
		0.521484	0.604492 
		0.654297	0.604492 
	}

	Tex1 0 
	Adj 400 { 
		P 0 
		N 0 
		C0 0 
		T0 0 
		P 1 
		N 0 
		C0 1 
		T0 1 
		P 2 
		N 0 
		C0 2 
		T0 2 
		P 3 
		N 0 
		C0 3 
		T0 3 
		P 4 
		N 1 
		C0 4 
		T0 4 
		P 5 
		N 1 
		C0 5 
		T0 5 
		P 6 
		N 1 
		C0 6 
		T0 6 
		P 7 
		N 1 
		C0 7 
		T0 7 
		P 8 
		N 2 
		C0 8 
		T0 8 
		P 9 
		N 3 
		C0 9 
		T0 9 
		P 10 
		N 4 
		C0 10 
		T0 10 
		P 11 
		N 5 
		C0 11 
		T0 11 
		P 10 
		N 4 
		C0 12 
		T0 12 
		P 12 
		N 6 
		C0 13 
		T0 13 
		P 11 
		N 5 
		C0 14 
		T0 14 
		P 13 
		N 7 
		C0 15 
		T0 15 
		P 14 
		N 8 
		C0 16 
		T0 16 
		P 15 
		N 9 
		C0 17 
		T0 17 
		P 16 
		N 10 
		C0 18 
		T0 18 
		P 17 
		N 11 
		C0 19 
		T0 19 
		P 18 
		N 12 
		C0 20 
		T0 20 
		P 19 
		N 13 
		C0 21 
		T0 21 
		P 17 
		N 11 
		C0 22 
		T0 22 
		P 18 
		N 14 
		C0 23 
		T0 23 
		P 20 
		N 15 
		C0 24 
		T0 24 
		P 19 
		N 16 
		C0 25 
		T0 25 
		P 18 
		N 12 
		C0 26 
		T0 23 
		P 21 
		N 17 
		C0 27 
		T0 26 
		P 20 
		N 18 
		C0 28 
		T0 24 
		P 22 
		N 19 
		C0 29 
		T0 27 
		P 23 
		N 20 
		C0 30 
		T0 28 
		P 24 
		N 21 
		C0 31 
		T0 29 
		P 25 
		N 22 
		C0 32 
		T0 30 
		P 13 
		N 7 
		C0 33 
		T0 31 
		P 26 
		N 23 
		C0 34 
		T0 32 
		P 24 
		N 21 
		C0 35 
		T0 33 
		P 27 
		N 24 
		C0 36 
		T0 34 
		P 28 
		N 25 
		C0 37 
		T0 35 
		P 29 
		N 26 
		C0 38 
		T0 36 
		P 30 
		N 27 
		C0 39 
		T0 37 
		P 31 
		N 28 
		C0 40 
		T0 38 
		P 30 
		N 29 
		C0 41 
		T0 39 
		P 32 
		N 29 
		C0 42 
		T0 40 
		P 31 
		N 30 
		C0 43 
		T0 41 
		P 32 
		N 31 
		C0 44 
		T0 40 
		P 33 
		N 31 
		C0 45 
		T0 42 
		P 34 
		N 32 
		C0 46 
		T0 43 
		P 35 
		N 33 
		C0 47 
		T0 9 
		P 25 
		N 22 
		C0 48 
		T0 8 
		P 36 
		N 34 
		C0 49 
		T0 11 
		P 37 
		N 35 
		C0 50 
		T0 10 
		P 36 
		N 34 
		C0 51 
		T0 14 
		P 38 
		N 36 
		C0 52 
		T0 15 
		P 37 
		N 35 
		C0 53 
		T0 12 
		P 39 
		N 37 
		C0 54 
		T0 13 
		P 28 
		N 25 
		C0 55 
		T0 17 
		P 40 
		N 38 
		C0 56 
		T0 16 
		P 41 
		N 39 
		C0 57 
		T0 19 
		P 42 
		N 40 
		C0 58 
		T0 44 
		P 41 
		N 39 
		C0 59 
		T0 45 
		P 43 
		N 41 
		C0 60 
		T0 46 
		P 42 
		N 42 
		C0 61 
		T0 47 
		P 43 
		N 43 
		C0 62 
		T0 46 
		P 42 
		N 40 
		C0 63 
		T0 47 
		P 44 
		N 44 
		C0 64 
		T0 48 
		P 42 
		N 40 
		C0 65 
		T0 49 
		P 44 
		N 44 
		C0 66 
		T0 50 
		P 45 
		N 45 
		C0 67 
		T0 51 
		P 46 
		N 45 
		C0 68 
		T0 52 
		P 41 
		N 39 
		C0 69 
		T0 53 
		P 47 
		N 45 
		C0 70 
		T0 54 
		P 48 
		N 45 
		C0 71 
		T0 55 
		P 49 
		N 45 
		C0 72 
		T0 56 
		P 50 
		N 45 
		C0 73 
		T0 57 
		P 51 
		N 45 
		C0 74 
		T0 58 
		P 18 
		N 12 
		C0 75 
		T0 49 
		P 52 
		N 46 
		C0 76 
		T0 51 
		P 21 
		N 17 
		C0 77 
		T0 50 
		P 53 
		N 47 
		C0 78 
		T0 52 
		P 17 
		N 11 
		C0 79 
		T0 59 
		P 54 
		N 48 
		C0 80 
		T0 54 
		P 55 
		N 49 
		C0 81 
		T0 60 
		P 56 
		N 50 
		C0 82 
		T0 61 
		P 57 
		N 51 
		C0 83 
		T0 62 
		P 58 
		N 52 
		C0 84 
		T0 63 
		P 12 
		N 6 
		C0 85 
		T0 64 
		P 59 
		N 46 
		C0 86 
		T0 58 
		P 60 
		N 46 
		C0 87 
		T0 65 
		P 61 
		N 46 
		C0 88 
		T0 56 
		P 62 
		N 46 
		C0 89 
		T0 66 
		P 63 
		N 53 
		C0 90 
		T0 67 
		P 64 
		N 49 
		C0 91 
		T0 68 
		P 65 
		N 45 
		C0 92 
		T0 66 
		P 66 
		N 46 
		C0 93 
		T0 69 
		P 67 
		N 45 
		C0 94 
		T0 67 
		P 68 
		N 45 
		C0 95 
		T0 69 
		P 69 
		N 45 
		C0 96 
		T0 60 
		P 70 
		N 45 
		C0 97 
		T0 62 
		P 71 
		N 54 
		C0 98 
		T0 61 
		P 72 
		N 55 
		C0 99 
		T0 70 
		P 73 
		N 56 
		C0 100 
		T0 71 
		P 23 
		N 20 
		C0 101 
		T0 72 
		P 74 
		N 57 
		C0 102 
		T0 73 
		P 75 
		N 58 
		C0 103 
		T0 74 
		P 76 
		N 59 
		C0 104 
		T0 75 
		P 77 
		N 60 
		C0 105 
		T0 76 
		P 78 
		N 61 
		C0 106 
		T0 77 
		P 79 
		N 62 
		C0 107 
		T0 78 
		P 25 
		N 22 
		C0 108 
		T0 79 
		P 35 
		N 33 
		C0 109 
		T0 80 
		P 80 
		N 63 
		C0 110 
		T0 81 
		P 79 
		N 62 
		C0 111 
		T0 63 
		P 39 
		N 37 
		C0 112 
		T0 64 
		P 40 
		N 38 
		C0 113 
		T0 82 
		P 80 
		N 63 
		C0 114 
		T0 83 
		P 81 
		N 45 
		C0 115 
		T0 84 
		P 82 
		N 45 
		C0 116 
		T0 68 
		P 83 
		N 64 
		C0 117 
		T0 85 
		P 58 
		N 52 
		C0 118 
		T0 86 
		P 9 
		N 3 
		C0 119 
		T0 87 
		P 8 
		N 2 
		C0 120 
		T0 88 
		P 84 
		N 46 
		C0 121 
		T0 57 
		P 8 
		N 2 
		C0 122 
		T0 89 
		P 11 
		N 5 
		C0 123 
		T0 90 
		P 36 
		N 34 
		C0 124 
		T0 91 
		P 11 
		N 5 
		C0 125 
		T0 92 
		P 38 
		N 36 
		C0 126 
		T0 93 
		P 36 
		N 34 
		C0 127 
		T0 94 
		P 15 
		N 9 
		C0 128 
		T0 95 
		P 30 
		N 65 
		C0 129 
		T0 39 
		P 32 
		N 65 
		C0 130 
		T0 40 
		P 85 
		N 66 
		C0 131 
		T0 96 
		P 86 
		N 67 
		C0 132 
		T0 97 
		P 87 
		N 68 
		C0 133 
		T0 96 
		P 88 
		N 69 
		C0 134 
		T0 98 
		P 89 
		N 70 
		C0 135 
		T0 99 
		P 90 
		N 71 
		C0 136 
		T0 100 
		P 91 
		N 72 
		C0 137 
		T0 101 
		P 92 
		N 73 
		C0 138 
		T0 102 
		P 90 
		N 72 
		C0 139 
		T0 103 
		P 89 
		N 74 
		C0 140 
		T0 104 
		P 93 
		N 75 
		C0 141 
		T0 105 
		P 93 
		N 76 
		C0 142 
		T0 105 
		P 90 
		N 76 
		C0 143 
		T0 103 
		P 92 
		N 76 
		C0 144 
		T0 102 
		P 94 
		N 76 
		C0 145 
		T0 105 
		P 94 
		N 75 
		C0 146 
		T0 105 
		P 56 
		N 50 
		C0 147 
		T0 106 
		P 86 
		N 77 
		C0 148 
		T0 97 
		P 85 
		N 78 
		C0 149 
		T0 96 
		P 95 
		N 79 
		C0 150 
		T0 107 
		P 88 
		N 80 
		C0 151 
		T0 108 
		P 96 
		N 81 
		C0 152 
		T0 109 
		P 94 
		N 82 
		C0 153 
		T0 105 
		P 92 
		N 83 
		C0 154 
		T0 102 
		P 97 
		N 84 
		C0 155 
		T0 110 
		P 93 
		N 85 
		C0 156 
		T0 111 
		P 87 
		N 86 
		C0 157 
		T0 112 
		P 88 
		N 80 
		C0 158 
		T0 113 
		P 89 
		N 70 
		C0 159 
		T0 108 
		P 91 
		N 87 
		C0 160 
		T0 101 
		P 71 
		N 54 
		C0 161 
		T0 114 
		P 89 
		N 70 
		C0 162 
		T0 104 
		P 88 
		N 80 
		C0 163 
		T0 98 
		P 98 
		N 88 
		C0 164 
		T0 115 
		P 99 
		N 88 
		C0 165 
		T0 115 
		P 100 
		N 88 
		C0 166 
		T0 115 
		P 101 
		N 88 
		C0 167 
		T0 115 
		P 102 
		N 89 
		C0 168 
		T0 115 
		P 98 
		N 89 
		C0 169 
		T0 115 
		P 103 
		N 89 
		C0 170 
		T0 115 
		P 100 
		N 89 
		C0 171 
		T0 115 
		P 104 
		N 90 
		C0 172 
		T0 115 
		P 99 
		N 90 
		C0 173 
		T0 115 
		P 102 
		N 90 
		C0 174 
		T0 115 
		P 98 
		N 90 
		C0 175 
		T0 115 
		P 105 
		N 91 
		C0 176 
		T0 115 
		P 101 
		N 91 
		C0 177 
		T0 115 
		P 104 
		N 91 
		C0 178 
		T0 115 
		P 99 
		N 91 
		C0 179 
		T0 115 
		P 103 
		N 92 
		C0 180 
		T0 115 
		P 100 
		N 92 
		C0 181 
		T0 115 
		P 105 
		N 92 
		C0 182 
		T0 115 
		P 101 
		N 92 
		C0 183 
		T0 115 
		P 103 
		N 93 
		C0 184 
		T0 116 
		P 104 
		N 93 
		C0 185 
		T0 116 
		P 102 
		N 93 
		C0 186 
		T0 116 
		P 105 
		N 93 
		C0 187 
		T0 116 
		P 106 
		N 94 
		C0 188 
		T0 115 
		P 107 
		N 94 
		C0 189 
		T0 115 
		P 108 
		N 94 
		C0 190 
		T0 115 
		P 109 
		N 94 
		C0 191 
		T0 115 
		P 110 
		N 95 
		C0 192 
		T0 115 
		P 111 
		N 95 
		C0 193 
		T0 115 
		P 106 
		N 95 
		C0 194 
		T0 115 
		P 107 
		N 95 
		C0 195 
		T0 115 
		P 112 
		N 90 
		C0 196 
		T0 115 
		P 110 
		N 90 
		C0 197 
		T0 115 
		P 108 
		N 90 
		C0 198 
		T0 115 
		P 106 
		N 90 
		C0 199 
		T0 115 
		P 113 
		N 96 
		C0 200 
		T0 115 
		P 112 
		N 96 
		C0 201 
		T0 115 
		P 109 
		N 96 
		C0 202 
		T0 115 
		P 108 
		N 96 
		C0 203 
		T0 115 
		P 111 
		N 92 
		C0 204 
		T0 115 
		P 113 
		N 92 
		C0 205 
		T0 115 
		P 107 
		N 92 
		C0 206 
		T0 115 
		P 109 
		N 92 
		C0 207 
		T0 115 
		P 111 
		N 97 
		C0 208 
		T0 116 
		P 110 
		N 97 
		C0 209 
		T0 116 
		P 112 
		N 97 
		C0 210 
		T0 116 
		P 113 
		N 97 
		C0 211 
		T0 116 
		P 78 
		N 61 
		C0 212 
		T0 117 
		P 114 
		N 49 
		C0 213 
		T0 84 
		P 115 
		N 98 
		C0 214 
		T0 118 
		P 83 
		N 64 
		C0 215 
		T0 119 
		P 116 
		N 99 
		C0 216 
		T0 120 
		P 117 
		N 100 
		C0 217 
		T0 121 
		P 118 
		N 101 
		C0 218 
		T0 122 
		P 115 
		N 98 
		C0 219 
		T0 123 
		P 116 
		N 99 
		C0 220 
		T0 121 
		P 117 
		N 100 
		C0 221 
		T0 124 
		P 118 
		N 101 
		C0 222 
		T0 125 
		P 16 
		N 10 
		C0 223 
		T0 126 
		P 14 
		N 8 
		C0 224 
		T0 82 
		P 21 
		N 102 
		C0 225 
		T0 127 
		P 52 
		N 102 
		C0 226 
		T0 128 
		P 22 
		N 102 
		C0 227 
		T0 129 
		P 56 
		N 103 
		C0 228 
		T0 130 
		P 95 
		N 103 
		C0 229 
		T0 131 
		P 57 
		N 103 
		C0 230 
		T0 132 
		P 52 
		N 104 
		C0 231 
		T0 128 
		P 119 
		N 104 
		C0 232 
		T0 133 
		P 33 
		N 104 
		C0 233 
		T0 134 
		P 34 
		N 105 
		C0 234 
		T0 135 
		P 45 
		N 105 
		C0 235 
		T0 136 
		P 44 
		N 105 
		C0 236 
		T0 137 
		P 97 
		N 106 
		C0 237 
		T0 138 
		P 71 
		N 106 
		C0 238 
		T0 139 
		P 70 
		N 106 
		C0 239 
		T0 140 
		P 120 
		N 45 
		C0 240 
		T0 141 
		P 121 
		N 45 
		C0 241 
		T0 141 
		P 122 
		N 45 
		C0 242 
		T0 141 
		P 123 
		N 46 
		C0 243 
		T0 141 
		P 124 
		N 46 
		C0 244 
		T0 141 
		P 125 
		N 46 
		C0 245 
		T0 141 
		P 126 
		N 107 
		C0 246 
		T0 141 
		P 123 
		N 107 
		C0 247 
		T0 141 
		P 125 
		N 107 
		C0 248 
		T0 141 
		P 120 
		N 108 
		C0 249 
		T0 141 
		P 122 
		N 108 
		C0 250 
		T0 141 
		P 50 
		N 108 
		C0 251 
		T0 141 
		P 50 
		N 109 
		C0 252 
		T0 141 
		P 49 
		N 109 
		C0 253 
		T0 141 
		P 120 
		N 109 
		C0 254 
		T0 141 
		P 122 
		N 110 
		C0 255 
		T0 141 
		P 68 
		N 110 
		C0 256 
		T0 141 
		P 50 
		N 110 
		C0 257 
		T0 141 
		P 122 
		N 111 
		C0 258 
		T0 141 
		P 82 
		N 111 
		C0 259 
		T0 141 
		P 68 
		N 111 
		C0 260 
		T0 141 
		P 127 
		N 112 
		C0 261 
		T0 141 
		P 69 
		N 112 
		C0 262 
		T0 141 
		P 81 
		N 112 
		C0 263 
		T0 141 
		P 127 
		N 113 
		C0 264 
		T0 141 
		P 121 
		N 113 
		C0 265 
		T0 141 
		P 70 
		N 113 
		C0 266 
		T0 141 
		P 70 
		N 114 
		C0 267 
		T0 141 
		P 69 
		N 114 
		C0 268 
		T0 141 
		P 127 
		N 114 
		C0 269 
		T0 141 
		P 126 
		N 115 
		C0 270 
		T0 141 
		P 125 
		N 115 
		C0 271 
		T0 141 
		P 55 
		N 115 
		C0 272 
		T0 141 
		P 57 
		N 116 
		C0 273 
		T0 141 
		P 126 
		N 116 
		C0 274 
		T0 141 
		P 55 
		N 116 
		C0 275 
		T0 141 
		P 125 
		N 117 
		C0 276 
		T0 141 
		P 114 
		N 117 
		C0 277 
		T0 141 
		P 55 
		N 117 
		C0 278 
		T0 141 
		P 114 
		N 118 
		C0 279 
		T0 141 
		P 125 
		N 118 
		C0 280 
		T0 141 
		P 64 
		N 118 
		C0 281 
		T0 141 
		P 124 
		N 119 
		C0 282 
		T0 141 
		P 84 
		N 119 
		C0 283 
		T0 141 
		P 66 
		N 119 
		C0 284 
		T0 141 
		P 84 
		N 109 
		C0 285 
		T0 141 
		P 123 
		N 109 
		C0 286 
		T0 141 
		P 61 
		N 109 
		C0 287 
		T0 141 
		P 123 
		N 120 
		C0 288 
		T0 141 
		P 84 
		N 120 
		C0 289 
		T0 141 
		P 124 
		N 120 
		C0 290 
		T0 141 
		P 128 
		N 46 
		C0 291 
		T0 141 
		P 129 
		N 46 
		C0 292 
		T0 141 
		P 130 
		N 46 
		C0 293 
		T0 141 
		P 119 
		N 46 
		C0 294 
		T0 141 
		P 131 
		N 45 
		C0 295 
		T0 141 
		P 132 
		N 45 
		C0 296 
		T0 141 
		P 133 
		N 45 
		C0 297 
		T0 141 
		P 134 
		N 45 
		C0 298 
		T0 141 
		P 59 
		N 121 
		C0 299 
		T0 141 
		P 129 
		N 121 
		C0 300 
		T0 141 
		P 60 
		N 121 
		C0 301 
		T0 141 
		P 60 
		N 122 
		C0 302 
		T0 141 
		P 129 
		N 122 
		C0 303 
		T0 141 
		P 128 
		N 122 
		C0 304 
		T0 141 
		P 60 
		N 123 
		C0 305 
		T0 141 
		P 128 
		N 123 
		C0 306 
		T0 141 
		P 62 
		N 123 
		C0 307 
		T0 141 
		P 53 
		N 124 
		C0 308 
		T0 141 
		P 54 
		N 124 
		C0 309 
		T0 141 
		P 130 
		N 124 
		C0 310 
		T0 141 
		P 53 
		N 125 
		C0 311 
		T0 141 
		P 130 
		N 125 
		C0 312 
		T0 141 
		P 119 
		N 125 
		C0 313 
		T0 141 
		P 119 
		N 126 
		C0 314 
		T0 141 
		P 52 
		N 126 
		C0 315 
		T0 141 
		P 53 
		N 126 
		C0 316 
		T0 141 
		P 119 
		N 92 
		C0 317 
		T0 133 
		P 129 
		N 92 
		C0 318 
		T0 142 
		P 134 
		N 92 
		C0 319 
		T0 143 
		P 134 
		N 127 
		C0 320 
		T0 141 
		P 51 
		N 127 
		C0 321 
		T0 141 
		P 48 
		N 127 
		C0 322 
		T0 141 
		P 133 
		N 128 
		C0 323 
		T0 141 
		P 134 
		N 128 
		C0 324 
		T0 141 
		P 48 
		N 128 
		C0 325 
		T0 141 
		P 48 
		N 129 
		C0 326 
		T0 141 
		P 65 
		N 129 
		C0 327 
		T0 141 
		P 133 
		N 129 
		C0 328 
		T0 141 
		P 47 
		N 130 
		C0 329 
		T0 141 
		P 46 
		N 130 
		C0 330 
		T0 141 
		P 131 
		N 130 
		C0 331 
		T0 141 
		P 132 
		N 126 
		C0 332 
		T0 141 
		P 46 
		N 126 
		C0 333 
		T0 141 
		P 45 
		N 126 
		C0 334 
		T0 141 
		P 46 
		N 131 
		C0 335 
		T0 141 
		P 132 
		N 131 
		C0 336 
		T0 141 
		P 131 
		N 131 
		C0 337 
		T0 141 
		P 127 
		N 45 
		C0 338 
		T0 141 
		P 22 
		N 132 
		C0 339 
		T0 129 
		P 52 
		N 132 
		C0 340 
		T0 128 
		P 33 
		N 132 
		C0 341 
		T0 134 
		P 59 
		N 92 
		C0 342 
		T0 144 
		P 61 
		N 92 
		C0 343 
		T0 145 
		P 120 
		N 92 
		C0 344 
		T0 146 
		P 49 
		N 92 
		C0 345 
		T0 147 
		P 51 
		N 92 
		C0 346 
		T0 148 
		P 57 
		N 133 
		C0 347 
		T0 132 
		P 95 
		N 133 
		C0 348 
		T0 131 
		P 96 
		N 133 
		C0 349 
		T0 149 
		P 97 
		N 133 
		C0 350 
		T0 138 
		P 70 
		N 133 
		C0 351 
		T0 140 
		P 126 
		N 92 
		C0 352 
		T0 150 
		P 121 
		N 92 
		C0 353 
		T0 151 
		P 123 
		N 92 
		C0 354 
		T0 152 
		P 132 
		N 92 
		C0 355 
		T0 153 
		P 45 
		N 104 
		C0 356 
		T0 136 
		P 132 
		N 104 
		C0 357 
		T0 153 
		P 45 
		N 132 
		C0 358 
		T0 136 
		P 34 
		N 132 
		C0 359 
		T0 135 
		P 121 
		N 133 
		C0 360 
		T0 151 
		P 126 
		N 133 
		C0 361 
		T0 150 
		P 130 
		N 134 
		C0 362 
		T0 141 
		P 54 
		N 134 
		C0 363 
		T0 141 
		P 63 
		N 134 
		C0 364 
		T0 141 
		P 128 
		N 135 
		C0 365 
		T0 141 
		P 63 
		N 135 
		C0 366 
		T0 141 
		P 62 
		N 135 
		C0 367 
		T0 141 
		P 128 
		N 136 
		C0 368 
		T0 141 
		P 130 
		N 136 
		C0 369 
		T0 141 
		P 63 
		N 136 
		C0 370 
		T0 141 
		P 133 
		N 135 
		C0 371 
		T0 141 
		P 65 
		N 135 
		C0 372 
		T0 141 
		P 67 
		N 135 
		C0 373 
		T0 141 
		P 67 
		N 137 
		C0 374 
		T0 141 
		P 47 
		N 137 
		C0 375 
		T0 141 
		P 131 
		N 137 
		C0 376 
		T0 141 
		P 131 
		N 138 
		C0 377 
		T0 141 
		P 133 
		N 138 
		C0 378 
		T0 141 
		P 67 
		N 138 
		C0 379 
		T0 141 
		P 127 
		N 139 
		C0 380 
		T0 141 
		P 81 
		N 139 
		C0 381 
		T0 141 
		P 82 
		N 139 
		C0 382 
		T0 141 
		P 127 
		N 140 
		C0 383 
		T0 141 
		P 82 
		N 140 
		C0 384 
		T0 141 
		P 122 
		N 140 
		C0 385 
		T0 141 
		P 124 
		N 111 
		C0 386 
		T0 141 
		P 66 
		N 111 
		C0 387 
		T0 141 
		P 64 
		N 111 
		C0 388 
		T0 141 
		P 124 
		N 141 
		C0 389 
		T0 141 
		P 64 
		N 141 
		C0 390 
		T0 141 
		P 125 
		N 141 
		C0 391 
		T0 141 
		P 135 
		N 142 
		C0 392 
		T0 154 
		P 136 
		N 142 
		C0 393 
		T0 155 
		P 137 
		N 142 
		C0 394 
		T0 156 
		P 138 
		N 142 
		C0 395 
		T0 157 
		P 139 
		N 142 
		C0 396 
		T0 154 
		P 140 
		N 142 
		C0 397 
		T0 156 
		P 141 
		N 142 
		C0 398 
		T0 155 
		P 142 
		N 142 
		C0 399 
		T0 157 
	}

	Mtl 3 { 
		{
			Name "#2" 
			Priority 32 
			Prim 36 { 
				{
					Type TRISTRIP
					Priority 32 
					Idx 5 { 41 42 43 60 61 }
				}
				{
					Type TRISTRIP2
					Priority 32 
					Idx 8 { 12 14 13 15 16 17 18 19 }
				}
				{
					Type TRISTRIP2
					Priority 32 
					Idx 5 { 23 25 24 129 130 }
				}
				{
					Type TRISTRIP
					Priority 32 
					Idx 7 { 57 56 55 54 52 53 51 }
				}
				{
					Type TRISTRIP2
					Priority 32 
					Idx 6 { 134 132 133 131 141 146 }
				}
				{
					Type TRISTRIP2
					Priority 32 
					Idx 4 { 138 137 139 140 }
				}
				{
					Type TRISTRIP2
					Priority 32 
					Idx 4 { 143 142 144 145 }
				}
				{
					Type TRISTRIP2
					Priority 32 
					Idx 4 { 164 166 165 167 }
				}
				{
					Type TRISTRIP2
					Priority 32 
					Idx 4 { 168 170 169 171 }
				}
				{
					Type TRISTRIP2
					Priority 32 
					Idx 4 { 172 174 173 175 }
				}
				{
					Type TRISTRIP2
					Priority 32 
					Idx 4 { 176 178 177 179 }
				}
				{
					Type TRISTRIP2
					Priority 32 
					Idx 4 { 180 182 181 183 }
				}
				{
					Type TRISTRIP2
					Priority 32 
					Idx 4 { 186 185 184 187 }
				}
				{
					Type TRISTRIP2
					Priority 32 
					Idx 4 { 188 190 189 191 }
				}
				{
					Type TRISTRIP2
					Priority 32 
					Idx 4 { 192 194 193 195 }
				}
				{
					Type TRISTRIP2
					Priority 32 
					Idx 4 { 196 198 197 199 }
				}
				{
					Type TRISTRIP2
					Priority 32 
					Idx 4 { 200 202 201 203 }
				}
				{
					Type TRISTRIP2
					Priority 32 
					Idx 4 { 204 206 205 207 }
				}
				{
					Type TRISTRIP2
					Priority 32 
					Idx 4 { 209 208 210 211 }
				}
				{
					Type TRISTRIP2
					Priority 32 
					Idx 4 { 221 220 218 219 }
				}
				{
					Type TRISTRIP2
					Priority 32 
					Idx 16 { 135 110 136 4 156 5 6 4 7 110 102 107 99 107 108 109 }
				}
				{
					Type TRISTRIP2
					Priority 32 
					Idx 11 { 7 102 6 103 156 0 157 1 157 106 158 }
				}
				{
					Type TRISTRIP
					Priority 32 
					Idx 11 { 127 35 126 34 37 36 59 38 59 40 58 }
				}
				{
					Type TRISTRIP2
					Priority 32 
					Idx 8 { 38 22 36 128 34 33 35 125 }
				}
				{
					Type TRISTRIP2
					Priority 32 
					Idx 6 { 20 22 21 38 39 40 }
				}
				{
					Type TRISTRIP2
					Priority 32 
					Idx 9 { 119 118 120 104 101 100 101 99 108 }
				}
				{
					Type TRISTRIP
					Priority 32 
					Idx 10 { 99 102 100 103 100 105 104 106 118 117 }
				}
				{
					Type TRISTRIP
					Priority 32 
					Idx 10 { 103 3 105 2 106 2 1 3 0 103 }
				}
				{
					Type TRISTRIP
					Priority 32 
					Idx 14 { 163 148 147 149 150 149 152 153 152 154 155 160 161 162 }
				}
				{
					Type TRISTRIP
					Priority 32 
					Idx 7 { 124 32 31 30 31 122 123 }
				}
				{
					Type TRISTRIP2
					Priority 32 
					Idx 21 { 77 76 75 78 79 80 79 90 79 217 223 222 224 222 85 84 10 9 10 8 11 }
				}
				{
					Type TRISTRIP
					Priority 32 
					Idx 19 { 222 84 214 215 214 212 216 213 217 91 90 91 89 93 87 121 87 88 86 }
				}
				{
					Type TRISTRIP2
					Priority 32 
					Idx 7 { 83 82 81 151 81 212 213 }
				}
				{
					Type TRISTRIP
					Priority 32 
					Idx 12 { 64 63 46 62 46 44 45 44 29 28 27 26 }
				}
				{
					Type TRISTRIP
					Priority 32 
					Idx 20 { 48 49 47 50 111 112 111 113 114 69 114 116 114 115 114 96 159 96 98 97 }
				}
				{
					Type TRISTRIP
					Priority 32 
					Idx 16 { 66 67 65 68 69 70 69 94 116 94 95 92 73 71 72 74 }
				}
			}

		}
		{
			Name "#3" 
			Priority 32 
			Prim 51 { 
				{
					Type TRISTRIP
					Priority 32 
					Idx 5 { 231 232 233 357 356 }
				}
				{
					Type TRISTRIP2
					Priority 32 
					Idx 4 { 240 242 241 338 }
				}
				{
					Type TRISTRIP2
					Priority 32 
					Idx 4 { 291 293 292 294 }
				}
				{
					Type TRISTRIP2
					Priority 32 
					Idx 4 { 295 297 296 298 }
				}
				{
					Type TRISTRIP2
					Priority 32 
					Idx 7 { 353 352 344 354 318 343 342 }
				}
				{
					Type TRISTRIP
					Priority 32 
					Idx 8 { 345 346 344 319 318 319 317 355 }
				}
				{
					Type TRISTRIP
					Priority 32 
					Idx 9 { 350 351 349 360 349 361 349 347 348 }
				}
				{
					Type TRISTRIP2
					Priority 32 
					Idx 3 { 225 227 226 }
				}
				{
					Type TRISTRIP
					Priority 32 
					Idx 3 { 230 228 229 }
				}
				{
					Type TRISTRIP2
					Priority 32 
					Idx 3 { 234 236 235 }
				}
				{
					Type TRISTRIP
					Priority 32 
					Idx 3 { 239 237 238 }
				}
				{
					Type TRISTRIP2
					Priority 32 
					Idx 3 { 243 245 244 }
				}
				{
					Type TRISTRIP
					Priority 32 
					Idx 3 { 248 246 247 }
				}
				{
					Type TRISTRIP2
					Priority 32 
					Idx 3 { 249 251 250 }
				}
				{
					Type TRISTRIP
					Priority 32 
					Idx 3 { 254 252 253 }
				}
				{
					Type TRISTRIP2
					Priority 32 
					Idx 3 { 255 257 256 }
				}
				{
					Type TRISTRIP
					Priority 32 
					Idx 3 { 260 258 259 }
				}
				{
					Type TRISTRIP2
					Priority 32 
					Idx 3 { 261 263 262 }
				}
				{
					Type TRISTRIP
					Priority 32 
					Idx 3 { 266 264 265 }
				}
				{
					Type TRISTRIP2
					Priority 32 
					Idx 3 { 267 269 268 }
				}
				{
					Type TRISTRIP
					Priority 32 
					Idx 3 { 272 270 271 }
				}
				{
					Type TRISTRIP2
					Priority 32 
					Idx 3 { 273 275 274 }
				}
				{
					Type TRISTRIP
					Priority 32 
					Idx 3 { 278 276 277 }
				}
				{
					Type TRISTRIP2
					Priority 32 
					Idx 3 { 279 281 280 }
				}
				{
					Type TRISTRIP
					Priority 32 
					Idx 3 { 284 282 283 }
				}
				{
					Type TRISTRIP2
					Priority 32 
					Idx 3 { 285 287 286 }
				}
				{
					Type TRISTRIP
					Priority 32 
					Idx 3 { 290 288 289 }
				}
				{
					Type TRISTRIP2
					Priority 32 
					Idx 3 { 299 301 300 }
				}
				{
					Type TRISTRIP
					Priority 32 
					Idx 3 { 304 302 303 }
				}
				{
					Type TRISTRIP2
					Priority 32 
					Idx 3 { 305 307 306 }
				}
				{
					Type TRISTRIP
					Priority 32 
					Idx 3 { 310 308 309 }
				}
				{
					Type TRISTRIP2
					Priority 32 
					Idx 3 { 311 313 312 }
				}
				{
					Type TRISTRIP
					Priority 32 
					Idx 3 { 316 314 315 }
				}
				{
					Type TRISTRIP2
					Priority 32 
					Idx 3 { 320 322 321 }
				}
				{
					Type TRISTRIP
					Priority 32 
					Idx 3 { 325 323 324 }
				}
				{
					Type TRISTRIP2
					Priority 32 
					Idx 3 { 326 328 327 }
				}
				{
					Type TRISTRIP
					Priority 32 
					Idx 3 { 331 329 330 }
				}
				{
					Type TRISTRIP2
					Priority 32 
					Idx 3 { 332 334 333 }
				}
				{
					Type TRISTRIP
					Priority 32 
					Idx 3 { 337 335 336 }
				}
				{
					Type TRISTRIP2
					Priority 32 
					Idx 3 { 339 341 340 }
				}
				{
					Type TRISTRIP
					Priority 32 
					Idx 3 { 341 358 359 }
				}
				{
					Type TRISTRIP2
					Priority 32 
					Idx 3 { 362 364 363 }
				}
				{
					Type TRISTRIP
					Priority 32 
					Idx 3 { 367 365 366 }
				}
				{
					Type TRISTRIP2
					Priority 32 
					Idx 3 { 368 370 369 }
				}
				{
					Type TRISTRIP
					Priority 32 
					Idx 3 { 373 371 372 }
				}
				{
					Type TRISTRIP2
					Priority 32 
					Idx 3 { 374 376 375 }
				}
				{
					Type TRISTRIP
					Priority 32 
					Idx 3 { 379 377 378 }
				}
				{
					Type TRISTRIP2
					Priority 32 
					Idx 3 { 380 382 381 }
				}
				{
					Type TRISTRIP
					Priority 32 
					Idx 3 { 385 383 384 }
				}
				{
					Type TRISTRIP2
					Priority 32 
					Idx 3 { 386 388 387 }
				}
				{
					Type TRISTRIP
					Priority 32 
					Idx 3 { 391 389 390 }
				}
			}

		}
		{
			Name "#4" 
			Priority 32 
			Prim 2 { 
				{
					Type TRISTRIP
					Priority 32 
					Idx 4 { 392 393 394 395 }
				}
				{
					Type TRISTRIP
					Priority 32 
					Idx 4 { 396 397 398 399 }
				}
			}

		}
	}

	Offset 0 
}
