{
	Skinned 0 
	PosSkin 0 
	Pos 36 { 
		-1.500191	0.818264	-0.985127 
		-1.500190	3.475957	-0.985127 
		-1.500190	3.475957	-9.861147 
		-1.500191	0.818263	-10.027879 
		1.509382	0.824610	-10.027881 
		1.509382	0.824610	-0.985127 
		1.459391	0.000000	-0.985127 
		1.459391	0.000000	-9.861149 
		-1.450201	0.000000	-9.861147 
		-1.450201	0.000000	-0.985126 
		1.204057	0.000000	-9.861149 
		0.907796	0.823334	-10.027881 
		-0.945990	0.819633	0.038235 
		1.512796	3.475957	-9.861149 
		-0.945990	3.801665	-9.532162 
		1.017431	3.801665	-9.532162 
		1.017431	3.475957	-0.058706 
		1.512796	3.475957	-0.985127 
		1.017431	3.801665	-0.370456 
		1.017431	0.823354	0.038235 
		-0.844721	0.819618	-10.027881 
		-1.165880	0.000000	-9.861149 
		-0.816506	-0.001858	-8.787367 
		0.877791	0.001858	-0.786972 
		0.877791	0.001858	-8.787367 
		-0.816506	-0.001858	-0.786972 
		0.801545	3.801665	-3.044557 
		0.801545	3.801665	-7.289932 
		0.634118	4.330672	-6.877466 
		0.634118	4.330672	-3.457023 
		-0.577825	4.330672	-6.877466 
		-0.577825	4.330672	-3.457023 
		-0.745253	3.801665	-7.289932 
		-0.745253	3.801665	-3.044557 
		-0.945990	3.801665	-0.370456 
		-0.945990	3.475957	-0.058706 
	}

	Nrm 43 { 
		-0.968750	-0.031250	0.250000 
		-0.890625	0.375000	0.265625 
		-1.000000	0.000000	0.000000 
		-1.000000	-0.031250	0.000000 
		1.000000	-0.031250	0.000000 
		0.968750	-0.031250	0.234375 
		0.968750	-0.062500	0.218750 
		1.000000	-0.062500	0.000000 
		-1.000000	-0.062500	0.000000 
		-0.968750	-0.062500	0.250000 
		0.000000	-0.203125	-0.984375 
		-0.875000	-0.015625	0.484375 
		0.000000	0.406250	-0.906250 
		-0.187500	0.953125	-0.265625 
		0.203125	0.937500	-0.265625 
		0.859375	0.218750	0.453125 
		0.906250	0.343750	0.250000 
		0.390625	0.859375	0.328125 
		0.890625	-0.031250	0.437500 
		0.875000	-0.406250	-0.281250 
		0.078125	-0.968750	0.234375 
		0.062500	-0.921875	0.375000 
		0.000000	-0.984375	-0.187500 
		0.000000	-1.000000	0.000000 
		0.078125	-0.500000	0.859375 
		-0.078125	-0.500000	0.859375 
		-0.062500	-0.921875	0.375000 
		0.000000	-0.828125	-0.546875 
		-0.078125	-0.968750	0.234375 
		0.953125	0.296875	0.000000 
		0.000000	0.906250	0.437500 
		0.000000	0.906250	-0.437500 
		-0.953125	0.296875	0.000000 
		0.000000	0.609375	-0.781250 
		0.000000	0.609375	0.781250 
		-0.890625	-0.375000	-0.265625 
		1.000000	0.000000	0.000000 
		0.000000	0.062500	-1.000000 
		-0.375000	0.859375	0.343750 
		-0.500000	0.859375	0.000000 
		0.546875	0.828125	0.000000 
		-0.843750	0.234375	0.484375 
		0.000000	0.390625	0.921875 
	}

	Cpv 113 { 
		1.000000	1.000000	1.000000	1.000000 
		1.000000	1.000000	1.000000	1.000000 
		1.000000	1.000000	1.000000	1.000000 
		1.000000	1.000000	1.000000	1.000000 
		1.000000	1.000000	1.000000	1.000000 
		1.000000	1.000000	1.000000	1.000000 
		1.000000	1.000000	1.000000	1.000000 
		1.000000	1.000000	1.000000	1.000000 
		1.000000	1.000000	1.000000	1.000000 
		1.000000	1.000000	1.000000	1.000000 
		1.000000	1.000000	1.000000	1.000000 
		1.000000	1.000000	1.000000	1.000000 
		1.000000	1.000000	1.000000	1.000000 
		1.000000	1.000000	1.000000	1.000000 
		1.000000	1.000000	1.000000	1.000000 
		1.000000	1.000000	1.000000	1.000000 
		1.000000	1.000000	1.000000	1.000000 
		1.000000	1.000000	1.000000	1.000000 
		1.000000	1.000000	1.000000	1.000000 
		1.000000	1.000000	1.000000	1.000000 
		1.000000	1.000000	1.000000	1.000000 
		1.000000	1.000000	1.000000	1.000000 
		1.000000	1.000000	1.000000	1.000000 
		1.000000	1.000000	1.000000	1.000000 
		1.000000	1.000000	1.000000	1.000000 
		1.000000	1.000000	1.000000	1.000000 
		1.000000	1.000000	1.000000	1.000000 
		1.000000	1.000000	1.000000	1.000000 
		1.000000	1.000000	1.000000	1.000000 
		1.000000	1.000000	1.000000	1.000000 
		1.000000	1.000000	1.000000	1.000000 
		1.000000	1.000000	1.000000	1.000000 
		1.000000	1.000000	1.000000	1.000000 
		1.000000	1.000000	1.000000	1.000000 
		1.000000	1.000000	1.000000	1.000000 
		1.000000	1.000000	1.000000	1.000000 
		1.000000	1.000000	1.000000	1.000000 
		1.000000	1.000000	1.000000	1.000000 
		1.000000	1.000000	1.000000	1.000000 
		1.000000	1.000000	1.000000	1.000000 
		1.000000	1.000000	1.000000	1.000000 
		1.000000	1.000000	1.000000	1.000000 
		1.000000	1.000000	1.000000	1.000000 
		1.000000	1.000000	1.000000	1.000000 
		1.000000	1.000000	1.000000	1.000000 
		1.000000	1.000000	1.000000	1.000000 
		1.000000	1.000000	1.000000	1.000000 
		1.000000	1.000000	1.000000	1.000000 
		1.000000	1.000000	1.000000	1.000000 
		1.000000	1.000000	1.000000	1.000000 
		1.000000	1.000000	1.000000	1.000000 
		1.000000	1.000000	1.000000	1.000000 
		1.000000	1.000000	1.000000	1.000000 
		1.000000	1.000000	1.000000	1.000000 
		1.000000	1.000000	1.000000	1.000000 
		1.000000	1.000000	1.000000	1.000000 
		1.000000	1.000000	1.000000	1.000000 
		1.000000	1.000000	1.000000	1.000000 
		1.000000	1.000000	1.000000	1.000000 
		1.000000	1.000000	1.000000	1.000000 
		1.000000	1.000000	1.000000	1.000000 
		1.000000	1.000000	1.000000	1.000000 
		1.000000	1.000000	1.000000	1.000000 
		1.000000	1.000000	1.000000	1.000000 
		1.000000	1.000000	1.000000	1.000000 
		1.000000	1.000000	1.000000	1.000000 
		1.000000	1.000000	1.000000	1.000000 
		1.000000	1.000000	1.000000	1.000000 
		1.000000	1.000000	1.000000	1.000000 
		1.000000	1.000000	1.000000	1.000000 
		1.000000	1.000000	1.000000	1.000000 
		1.000000	1.000000	1.000000	1.000000 
		1.000000	1.000000	1.000000	1.000000 
		1.000000	1.000000	1.000000	1.000000 
		1.000000	1.000000	1.000000	1.000000 
		1.000000	1.000000	1.000000	1.000000 
		1.000000	1.000000	1.000000	1.000000 
		1.000000	1.000000	1.000000	1.000000 
		1.000000	1.000000	1.000000	1.000000 
		1.000000	1.000000	1.000000	1.000000 
		1.000000	1.000000	1.000000	1.000000 
		1.000000	1.000000	1.000000	1.000000 
		1.000000	1.000000	1.000000	1.000000 
		1.000000	1.000000	1.000000	1.000000 
		1.000000	1.000000	1.000000	1.000000 
		1.000000	1.000000	1.000000	1.000000 
		1.000000	1.000000	1.000000	1.000000 
		1.000000	1.000000	1.000000	1.000000 
		1.000000	1.000000	1.000000	1.000000 
		1.000000	1.000000	1.000000	1.000000 
		1.000000	1.000000	1.000000	1.000000 
		1.000000	1.000000	1.000000	1.000000 
		1.000000	1.000000	1.000000	1.000000 
		1.000000	1.000000	1.000000	1.000000 
		1.000000	1.000000	1.000000	1.000000 
		1.000000	1.000000	1.000000	1.000000 
		1.000000	1.000000	1.000000	1.000000 
		1.000000	1.000000	1.000000	1.000000 
		1.000000	1.000000	1.000000	1.000000 
		1.000000	1.000000	1.000000	1.000000 
		1.000000	1.000000	1.000000	1.000000 
		1.000000	1.000000	1.000000	1.000000 
		1.000000	1.000000	1.000000	1.000000 
		1.000000	1.000000	1.000000	1.000000 
		1.000000	1.000000	1.000000	1.000000 
		1.000000	1.000000	1.000000	1.000000 
		1.000000	1.000000	1.000000	1.000000 
		1.000000	1.000000	1.000000	1.000000 
		1.000000	1.000000	1.000000	1.000000 
		1.000000	1.000000	1.000000	1.000000 
		1.000000	1.000000	1.000000	1.000000 
		1.000000	1.000000	1.000000	1.000000 
		1.000000	1.000000	1.000000	1.000000 
	}

	Tex0 63 { 
		2.000000	0.596680 
		2.000000	0.983398 
		0.000000	0.983398 
		-0.021484	0.596680 
		2.000000	0.508789 
		0.000000	0.508789 
		0.008789	0.000977 
		0.066406	0.000977 
		0.113281	0.083008 
		0.000000	0.083008 
		0.077148	0.506836 
		0.425781	0.596680 
		0.077148	0.596680 
		0.109375	0.110352 
		0.400391	0.110352 
		0.400391	0.204102 
		0.109375	0.204102 
		0.265625	0.989258 
		0.205078	0.989258 
		0.267578	0.949219 
		0.416016	0.596680 
		0.194336	0.499023 
		0.391602	0.083008 
		0.442383	0.000977 
		0.497070	0.000977 
		0.504883	0.083008 
		0.072266	0.072266 
		0.048828	0.001953 
		0.094727	0.000000 
		1.096680	0.518555 
		1.096680	0.583008 
		0.477539	0.583008 
		0.477539	0.519531 
		0.500000	0.075195 
		0.002930	0.074219 
		0.024414	0.001953 
		0.475586	0.002930 
		0.116211	0.011719 
		0.384766	0.010742 
		1.096680	0.550781 
		0.669922	0.618164 
		0.866211	0.618164 
		0.845703	0.708008 
		0.691406	0.708008 
		0.084961	0.620117 
		0.386719	0.620117 
		0.386719	0.740234 
		0.084961	0.740234 
		0.839844	0.708008 
		0.694336	0.708008 
		0.674805	0.618164 
		0.859375	0.618164 
		0.126953	0.003906 
		0.366211	0.004883 
		0.077148	0.983398 
		0.403320	0.983398 
		0.000000	0.496094 
		0.504883	0.496094 
		0.850586	0.989258 
		0.768555	0.989258 
		0.769531	0.949219 
		0.500000	0.487305 
		0.002930	0.487305 
	}

	Tex1 0 
	Adj 113 { 
		P 0 
		N 0 
		C0 0 
		T0 0 
		P 1 
		N 1 
		C0 1 
		T0 1 
		P 2 
		N 2 
		C0 2 
		T0 2 
		P 3 
		N 3 
		C0 3 
		T0 3 
		P 4 
		N 4 
		C0 4 
		T0 3 
		P 5 
		N 5 
		C0 5 
		T0 0 
		P 6 
		N 6 
		C0 6 
		T0 4 
		P 7 
		N 7 
		C0 7 
		T0 5 
		P 8 
		N 8 
		C0 8 
		T0 5 
		P 9 
		N 9 
		C0 9 
		T0 4 
		P 7 
		N 10 
		C0 10 
		T0 6 
		P 10 
		N 10 
		C0 11 
		T0 7 
		P 11 
		N 10 
		C0 12 
		T0 8 
		P 4 
		N 10 
		C0 13 
		T0 9 
		P 9 
		N 9 
		C0 14 
		T0 10 
		P 12 
		N 11 
		C0 15 
		T0 11 
		P 0 
		N 0 
		C0 16 
		T0 12 
		P 13 
		N 12 
		C0 17 
		T0 13 
		P 2 
		N 12 
		C0 18 
		T0 14 
		P 14 
		N 13 
		C0 19 
		T0 15 
		P 15 
		N 14 
		C0 20 
		T0 16 
		P 16 
		N 15 
		C0 21 
		T0 17 
		P 17 
		N 16 
		C0 22 
		T0 18 
		P 18 
		N 17 
		C0 23 
		T0 19 
		P 19 
		N 18 
		C0 24 
		T0 20 
		P 6 
		N 6 
		C0 25 
		T0 21 
		P 5 
		N 5 
		C0 26 
		T0 12 
		P 20 
		N 10 
		C0 27 
		T0 22 
		P 21 
		N 10 
		C0 28 
		T0 23 
		P 8 
		N 10 
		C0 29 
		T0 24 
		P 3 
		N 10 
		C0 30 
		T0 25 
		P 22 
		N 19 
		C0 31 
		T0 26 
		P 21 
		N 19 
		C0 32 
		T0 27 
		P 20 
		N 19 
		C0 33 
		T0 28 
		P 6 
		N 20 
		C0 34 
		T0 29 
		P 23 
		N 21 
		C0 35 
		T0 30 
		P 24 
		N 22 
		C0 36 
		T0 31 
		P 10 
		N 23 
		C0 37 
		T0 32 
		P 19 
		N 24 
		C0 38 
		T0 33 
		P 12 
		N 25 
		C0 39 
		T0 34 
		P 25 
		N 26 
		C0 40 
		T0 35 
		P 23 
		N 21 
		C0 41 
		T0 36 
		P 23 
		N 21 
		C0 42 
		T0 29 
		P 25 
		N 26 
		C0 43 
		T0 30 
		P 22 
		N 22 
		C0 44 
		T0 31 
		P 24 
		N 22 
		C0 45 
		T0 32 
		P 24 
		N 22 
		C0 46 
		T0 37 
		P 22 
		N 22 
		C0 47 
		T0 38 
		P 20 
		N 27 
		C0 48 
		T0 22 
		P 11 
		N 27 
		C0 49 
		T0 8 
		P 9 
		N 28 
		C0 50 
		T0 39 
		P 8 
		N 23 
		C0 51 
		T0 31 
		P 21 
		N 23 
		C0 52 
		T0 32 
		P 6 
		N 20 
		C0 53 
		T0 39 
		P 10 
		N 23 
		C0 54 
		T0 31 
		P 7 
		N 23 
		C0 55 
		T0 32 
		P 26 
		N 29 
		C0 56 
		T0 40 
		P 27 
		N 29 
		C0 57 
		T0 41 
		P 28 
		N 29 
		C0 58 
		T0 42 
		P 29 
		N 29 
		C0 59 
		T0 43 
		P 29 
		N 30 
		C0 60 
		T0 44 
		P 28 
		N 31 
		C0 61 
		T0 45 
		P 30 
		N 31 
		C0 62 
		T0 46 
		P 31 
		N 30 
		C0 63 
		T0 47 
		P 31 
		N 32 
		C0 64 
		T0 48 
		P 30 
		N 32 
		C0 65 
		T0 49 
		P 32 
		N 32 
		C0 66 
		T0 50 
		P 33 
		N 32 
		C0 67 
		T0 51 
		P 27 
		N 33 
		C0 68 
		T0 40 
		P 32 
		N 33 
		C0 69 
		T0 41 
		P 30 
		N 31 
		C0 70 
		T0 42 
		P 28 
		N 31 
		C0 71 
		T0 43 
		P 33 
		N 34 
		C0 72 
		T0 40 
		P 26 
		N 34 
		C0 73 
		T0 41 
		P 29 
		N 30 
		C0 74 
		T0 42 
		P 31 
		N 30 
		C0 75 
		T0 43 
		P 9 
		N 28 
		C0 76 
		T0 52 
		P 6 
		N 20 
		C0 77 
		T0 53 
		P 10 
		N 35 
		C0 78 
		T0 26 
		P 24 
		N 35 
		C0 79 
		T0 27 
		P 11 
		N 35 
		C0 80 
		T0 28 
		P 25 
		N 26 
		C0 81 
		T0 29 
		P 9 
		N 28 
		C0 82 
		T0 30 
		P 21 
		N 23 
		C0 83 
		T0 31 
		P 22 
		N 22 
		C0 84 
		T0 32 
		P 17 
		N 16 
		C0 85 
		T0 54 
		P 16 
		N 15 
		C0 86 
		T0 55 
		P 13 
		N 36 
		C0 87 
		T0 2 
		P 17 
		N 16 
		C0 88 
		T0 1 
		P 13 
		N 12 
		C0 89 
		T0 56 
		P 4 
		N 37 
		C0 90 
		T0 9 
		P 3 
		N 37 
		C0 91 
		T0 25 
		P 2 
		N 12 
		C0 92 
		T0 57 
		P 15 
		N 14 
		C0 93 
		T0 14 
		P 34 
		N 38 
		C0 94 
		T0 16 
		P 18 
		N 17 
		C0 95 
		T0 13 
		P 14 
		N 13 
		C0 96 
		T0 16 
		P 2 
		N 39 
		C0 97 
		T0 13 
		P 1 
		N 1 
		C0 98 
		T0 14 
		P 34 
		N 38 
		C0 99 
		T0 15 
		P 17 
		N 16 
		C0 100 
		T0 13 
		P 13 
		N 40 
		C0 101 
		T0 14 
		P 15 
		N 14 
		C0 102 
		T0 15 
		P 18 
		N 17 
		C0 103 
		T0 16 
		P 1 
		N 1 
		C0 104 
		T0 58 
		P 35 
		N 41 
		C0 105 
		T0 59 
		P 34 
		N 38 
		C0 106 
		T0 60 
		P 35 
		N 41 
		C0 107 
		T0 55 
		P 1 
		N 1 
		C0 108 
		T0 54 
		P 35 
		N 42 
		C0 109 
		T0 59 
		P 16 
		N 42 
		C0 110 
		T0 17 
		P 16 
		N 42 
		C0 111 
		T0 61 
		P 35 
		N 42 
		C0 112 
		T0 62 
	}

	Mtl 1 { 
		{
			Name "#0" 
			Priority 32 
			Prim 29 { 
				{
					Type TRISTRIP
					Priority 32 
					Idx 6 { 1 2 0 3 9 8 }
				}
				{
					Type TRISTRIP
					Priority 32 
					Idx 4 { 12 13 11 10 }
				}
				{
					Type TRISTRIP
					Priority 32 
					Idx 4 { 18 19 17 20 }
				}
				{
					Type TRISTRIP
					Priority 32 
					Idx 5 { 25 26 24 85 86 }
				}
				{
					Type TRISTRIP2
					Priority 32 
					Idx 6 { 7 6 4 5 87 88 }
				}
				{
					Type TRISTRIP2
					Priority 32 
					Idx 5 { 14 16 15 108 107 }
				}
				{
					Type TRISTRIP
					Priority 32 
					Idx 4 { 29 30 28 27 }
				}
				{
					Type TRISTRIP
					Priority 32 
					Idx 4 { 36 37 35 34 }
				}
				{
					Type TRISTRIP
					Priority 32 
					Idx 4 { 44 45 43 42 }
				}
				{
					Type TRISTRIP
					Priority 32 
					Idx 4 { 48 49 47 46 }
				}
				{
					Type TRISTRIP
					Priority 32 
					Idx 4 { 57 58 56 59 }
				}
				{
					Type TRISTRIP
					Priority 32 
					Idx 4 { 62 63 61 60 }
				}
				{
					Type TRISTRIP
					Priority 32 
					Idx 4 { 66 67 65 64 }
				}
				{
					Type TRISTRIP
					Priority 32 
					Idx 4 { 69 70 68 71 }
				}
				{
					Type TRISTRIP
					Priority 32 
					Idx 4 { 75 72 74 73 }
				}
				{
					Type TRISTRIP
					Priority 32 
					Idx 6 { 76 40 39 41 38 77 }
				}
				{
					Type TRISTRIP
					Priority 32 
					Idx 4 { 39 38 112 111 }
				}
				{
					Type TRISTRIP
					Priority 32 
					Idx 4 { 91 92 90 89 }
				}
				{
					Type TRISTRIP
					Priority 32 
					Idx 4 { 19 94 93 95 }
				}
				{
					Type TRISTRIP
					Priority 32 
					Idx 4 { 97 98 96 99 }
				}
				{
					Type TRISTRIP
					Priority 32 
					Idx 4 { 102 103 101 100 }
				}
				{
					Type TRISTRIP
					Priority 32 
					Idx 4 { 106 109 23 110 }
				}
				{
					Type TRISTRIP
					Priority 32 
					Idx 4 { 83 84 82 81 }
				}
				{
					Type TRISTRIP
					Priority 32 
					Idx 3 { 23 21 22 }
				}
				{
					Type TRISTRIP2
					Priority 32 
					Idx 3 { 104 106 105 }
				}
				{
					Type TRISTRIP
					Priority 32 
					Idx 3 { 52 50 51 }
				}
				{
					Type TRISTRIP2
					Priority 32 
					Idx 3 { 53 55 54 }
				}
				{
					Type TRISTRIP
					Priority 32 
					Idx 3 { 80 78 79 }
				}
				{
					Type TRISTRIP2
					Priority 32 
					Idx 3 { 31 33 32 }
				}
			}

		}
	}

	Offset 0 
}
