{
	Skinned 0 
	PosSkin 0 
	Pos 135 { 
		0.696000	0.450130	1.605840 
		-0.696000	0.450130	1.605840 
		0.696000	0.374445	-1.641740 
		1.200314	0.450130	1.605840 
		-1.200000	0.450130	1.605840 
		-1.200000	0.374445	-1.641740 
		-0.696000	0.374445	-1.641740 
		-1.200000	0.504285	3.682392 
		-1.200000	0.470771	2.782390 
		-0.695999	0.470772	2.782390 
		-1.116240	0.505174	3.743992 
		0.000001	0.505174	3.779912 
		0.696001	0.470771	2.782390 
		-0.000000	0.499257	-2.903220 
		0.695999	0.498042	-2.704810 
		-0.696001	0.498042	-2.704810 
		-0.972135	0.499257	-2.814250 
		-1.057780	0.499257	-2.744140 
		-1.076740	0.498042	-2.704810 
		-0.696001	0.849196	-2.611880 
		-1.102150	0.849196	-2.611880 
		-1.076180	0.667653	-2.685660 
		-1.154070	0.996919	-2.403430 
		-0.696000	0.946932	-1.861640 
		-1.192090	1.025520	-2.093020 
		-1.200000	0.946932	-1.861640 
		-1.200000	0.780392	-1.744940 
		-0.696000	0.851414	1.776190 
		-1.200000	0.851414	1.776190 
		-1.200000	1.018930	2.122150 
		-0.695999	0.938642	2.493420 
		-1.200000	0.938642	2.493420 
		-1.200000	0.723316	2.695110 
		1.200314	0.374445	-1.641740 
		1.200314	0.470772	2.782390 
		1.200314	0.504285	3.682387 
		1.116250	0.505174	3.743992 
		0.972134	0.499257	-2.814250 
		1.058094	0.499257	-2.744140 
		1.077049	0.498042	-2.704810 
		1.076494	0.667653	-2.685660 
		1.102463	0.849196	-2.611880 
		0.695999	0.849196	-2.611880 
		1.154384	0.996919	-2.403430 
		1.192404	1.025520	-2.093020 
		0.696000	0.946932	-1.861640 
		1.200314	0.946932	-1.861640 
		1.200314	0.780392	-1.744940 
		1.200314	0.851414	1.776190 
		0.696000	0.851414	1.776190 
		1.200314	1.018930	2.122150 
		0.696001	0.938642	2.493420 
		1.200314	0.938642	2.493420 
		1.200314	0.723316	2.695110 
		0.000001	2.954610	3.779912 
		-1.116240	2.954610	3.743992 
		-1.116240	1.528930	3.743992 
		0.000000	3.030300	1.605840 
		-1.116240	3.030300	1.605840 
		0.000000	3.000010	-1.415062 
		-1.116250	2.982140	-1.415062 
		-0.000000	2.842380	-1.630070 
		-1.116250	2.831370	-1.607290 
		-0.000000	2.555070	-1.822250 
		-1.116250	2.546440	-1.794750 
		-0.000000	1.978130	-1.998070 
		-1.116250	1.970710	-1.972000 
		-0.000000	1.584530	-2.049170 
		-1.111810	1.564760	-2.020350 
		-0.000000	1.519690	-2.557250 
		-1.062720	1.506280	-2.507710 
		-0.000000	1.282660	-2.857940 
		-0.983335	1.282660	-2.775890 
		-0.000001	0.859087	-2.909120 
		-0.970648	0.859087	-2.819240 
		-1.224000	1.528930	1.605840 
		-1.200000	1.962400	-1.899140 
		-1.197250	1.522920	-1.952190 
		-1.200000	2.960990	1.605840 
		-1.200000	2.524720	-1.724810 
		-1.200000	2.912930	-1.409452 
		-1.200000	2.775240	-1.557320 
		-1.200000	1.528930	3.682392 
		-1.200000	2.886400	3.682392 
		-1.056250	0.857268	-2.749040 
		-1.068760	1.262520	-2.708090 
		-1.146140	1.453100	-2.469920 
		1.116250	1.528930	3.743992 
		1.116559	2.954610	3.743992 
		1.116559	3.030300	1.605840 
		1.116559	2.982140	-1.415062 
		1.116559	2.831370	-1.607295 
		1.116240	2.546440	-1.794750 
		1.116240	1.970710	-1.972000 
		1.111810	1.564760	-2.020350 
		1.062720	1.506280	-2.507710 
		0.983334	1.282660	-2.775890 
		0.970647	0.859087	-2.819240 
		1.200314	2.886400	3.682387 
		1.200314	1.528930	3.682386 
		1.200314	2.775240	-1.557320 
		1.200314	2.524720	-1.724815 
		1.200314	1.962400	-1.899140 
		1.197558	1.522920	-1.952190 
		1.146454	1.453100	-2.469920 
		1.069074	1.262520	-2.708090 
		1.056563	0.857268	-2.749040 
		1.224627	1.528930	1.605840 
		1.209924	1.791075	-0.513826 
		1.200438	2.359797	-0.504305 
		1.200625	2.960990	1.605840 
		1.200314	0.971276	-0.514623 
		1.209731	1.172358	-0.518579 
		1.200626	2.912930	-1.409452 
		1.208457	1.525340	-0.519655 
		1.200428	2.685217	-0.499518 
		1.200418	2.837684	-0.493950 
		0.865858	1.132589	-2.820924 
		0.865858	1.247366	-2.820924 
		0.947018	1.213749	-2.820924 
		0.980635	1.132589	-2.820924 
		0.784698	1.213749	-2.820924 
		0.751080	1.132589	-2.820924 
		0.784698	1.051430	-2.820924 
		0.865858	1.017812	-2.820924 
		0.947018	1.051430	-2.820924 
		-0.947018	1.213749	-2.820924 
		-0.865858	1.247366	-2.820924 
		-0.865858	1.132589	-2.820924 
		-0.980635	1.132589	-2.820924 
		-0.784698	1.213749	-2.820924 
		-0.751080	1.132589	-2.820924 
		-0.784698	1.051430	-2.820924 
		-0.865858	1.017812	-2.820924 
		-0.947018	1.051430	-2.820924 
	}

	Nrm 129 { 
		0.359375	-0.859375	0.343750 
		-0.218750	-0.953125	0.218750 
		0.234375	-0.953125	-0.218750 
		0.000000	-0.921875	0.375000 
		0.000000	-0.828125	0.562500 
		-0.031250	-0.812500	-0.578125 
		-0.296875	-0.906250	-0.281250 
		0.000000	-1.000000	0.031250 
		-0.046875	-0.859375	-0.500000 
		-0.296875	-0.937500	-0.218750 
		0.234375	-0.953125	-0.156250 
		0.000000	-1.000000	-0.015625 
		0.218750	-0.906250	0.375000 
		-0.265625	-0.859375	0.453125 
		0.000000	-0.750000	0.656250 
		-0.437500	-0.703125	0.562500 
		-0.015625	-0.593750	0.812500 
		-0.015625	-0.203125	0.984375 
		-0.125000	-0.921875	0.359375 
		-0.359375	-0.765625	-0.546875 
		-0.125000	-0.984375	-0.109375 
		0.000000	-0.796875	-0.593750 
		-0.031250	-0.453125	-0.890625 
		-0.546875	-0.640625	0.546875 
		-0.093750	-0.765625	0.640625 
		-0.078125	-1.000000	0.015625 
		-0.343750	-0.843750	-0.437500 
		0.000000	-0.875000	-0.500000 
		-0.046875	-0.578125	-0.812500 
		0.031250	-0.812500	-0.578125 
		0.046875	-0.859375	-0.500000 
		0.015625	-0.203125	0.984375 
		0.015625	-0.593750	0.812500 
		0.437500	-0.703125	0.562500 
		0.125000	-0.921875	0.359375 
		0.125000	-0.984375	-0.109375 
		0.359375	-0.765625	-0.546875 
		0.031250	-0.453125	-0.890625 
		0.093750	-0.765625	0.640625 
		0.546875	-0.640625	0.546875 
		0.078125	-1.000000	0.015625 
		0.343750	-0.843750	-0.437500 
		0.046875	-0.578125	-0.812500 
		0.000000	0.000000	1.000000 
		-0.031250	0.000000	1.000000 
		0.000000	1.000000	0.031250 
		0.000000	1.000000	0.015625 
		-0.343750	0.937500	0.015625 
		-0.531250	0.765625	0.375000 
		0.000000	0.953125	-0.328125 
		-0.359375	0.875000	-0.312500 
		0.000000	0.687500	-0.734375 
		-0.343750	0.640625	-0.687500 
		0.000000	0.421875	-0.906250 
		-0.359375	0.406250	-0.843750 
		0.000000	0.203125	-0.984375 
		-0.359375	0.187500	-0.906250 
		0.000000	0.125000	-1.000000 
		-0.406250	0.640625	-0.656250 
		0.000000	1.000000	-0.125000 
		0.000000	0.921875	-0.390625 
		-0.328125	0.843750	-0.421875 
		0.000000	0.484375	-0.875000 
		-0.375000	0.406250	-0.828125 
		0.000000	0.046875	-1.000000 
		-0.375000	0.031250	-0.921875 
		0.000000	-0.015625	-1.000000 
		-0.375000	-0.015625	-0.921875 
		-1.000000	-0.015625	0.000000 
		-0.906250	0.093750	-0.406250 
		-0.953125	0.203125	-0.234375 
		-1.000000	-0.015625	-0.015625 
		-0.937500	0.343750	0.000000 
		-0.906250	0.187500	-0.375000 
		-0.843750	0.515625	-0.187500 
		-0.828125	0.375000	-0.421875 
		-0.937500	0.000000	0.359375 
		-0.890625	0.312500	0.328125 
		-0.812500	0.000000	-0.578125 
		-0.937500	0.015625	-0.328125 
		-0.953125	0.000000	-0.328125 
		-0.859375	0.015625	-0.515625 
		-0.765625	0.203125	-0.593750 
		-0.953125	0.000000	-0.281250 
		-0.906250	0.296875	-0.312500 
		-0.984375	0.000000	-0.171875 
		-1.000000	0.000000	-0.078125 
		-1.000000	0.000000	0.000000 
		-1.000000	-0.031250	0.000000 
		-0.953125	0.000000	0.296875 
		-0.593750	0.000000	0.812500 
		0.328125	0.000000	0.937500 
		0.437500	0.609375	0.656250 
		0.031250	0.000000	1.000000 
		0.343750	0.937500	0.015625 
		0.359375	0.875000	-0.312500 
		0.343750	0.640625	-0.687500 
		0.359375	0.406250	-0.843750 
		0.359375	0.187500	-0.906250 
		0.406250	0.640625	-0.656250 
		0.328125	0.843750	-0.421875 
		0.375000	0.406250	-0.828125 
		0.375000	0.031250	-0.921875 
		0.375000	-0.015625	-0.921875 
		0.890625	0.312500	0.328125 
		0.937500	0.000000	0.359375 
		0.593750	0.000000	0.812500 
		0.953125	0.000000	0.296875 
		0.906250	0.281250	-0.312500 
		0.906250	0.171875	-0.375000 
		0.937500	0.062500	-0.328125 
		0.968750	0.171875	-0.203125 
		0.906250	0.296875	-0.312500 
		0.765625	0.203125	-0.593750 
		0.859375	0.015625	-0.515625 
		0.812500	0.000000	-0.578125 
		1.000000	-0.015625	0.000000 
		1.000000	0.000000	0.000000 
		1.000000	0.015625	0.000000 
		0.953125	0.281250	0.000000 
		0.953125	0.000000	-0.328125 
		0.937500	0.015625	-0.328125 
		0.953125	0.000000	-0.281250 
		0.984375	0.000000	-0.171875 
		1.000000	0.000000	-0.078125 
		1.000000	-0.015625	-0.015625 
		1.000000	-0.031250	0.000000 
		0.843750	0.515625	-0.187500 
		0.000000	0.000000	-1.000000 
	}

	Cpv 250 { 
		0.500000	0.500000	0.500000	0.000000 
		0.500000	0.500000	0.500000	0.000000 
		0.500000	0.500000	0.500000	0.000000 
		0.500000	0.500000	0.500000	0.000000 
		0.680984	0.500000	0.500000	0.000000 
		0.500000	0.500000	0.500000	0.000000 
		0.500000	0.500000	0.500000	0.000000 
		0.500000	0.500000	0.500000	0.000000 
		0.500000	0.500000	0.500000	0.000000 
		0.500000	0.500000	0.500000	0.000000 
		0.500000	0.500000	0.500000	0.000000 
		0.500000	0.500000	0.500000	0.000000 
		0.500000	0.500000	0.500000	0.000000 
		0.500000	0.604055	0.708686	0.000000 
		0.500000	0.546952	0.500000	0.000000 
		0.500000	0.637949	0.500000	0.000000 
		0.500000	0.632359	0.500000	0.000000 
		0.560920	0.632359	0.500000	0.000000 
		0.560920	0.632359	0.500000	0.000000 
		0.500000	0.500000	0.500000	0.000000 
		0.560920	0.500000	0.500000	0.000000 
		0.560920	0.500000	0.500000	0.000000 
		0.500000	0.637949	0.500000	0.000000 
		0.602058	0.500000	0.500000	0.000000 
		0.500000	0.500000	0.500000	0.000000 
		0.556245	0.500000	0.500000	0.000000 
		0.500000	0.500000	0.500000	0.000000 
		0.500000	0.500000	0.500000	0.000000 
		0.500000	0.500000	0.500000	0.000000 
		0.500000	0.500000	0.500000	0.000000 
		0.500000	0.500000	0.500000	0.000000 
		0.500000	0.500000	0.500000	0.000000 
		0.680984	0.500000	0.500000	0.000000 
		0.680984	0.500000	0.500000	0.000000 
		0.680984	0.500000	0.500000	0.000000 
		0.500000	0.500000	0.500000	0.000000 
		0.620315	0.500000	0.500000	0.000000 
		0.567765	0.500000	0.500000	0.000000 
		0.500000	0.500000	0.500000	0.000000 
		0.500000	0.500000	0.500000	0.000000 
		0.560920	0.632359	0.500000	0.000000 
		0.363173	0.500000	0.500000	0.000000 
		0.500000	0.500000	0.500000	0.000000 
		0.500000	0.500000	0.500000	0.000000 
		0.500000	0.500000	0.500000	0.000000 
		0.500000	0.500000	0.500000	0.000000 
		0.500000	0.500000	0.500000	0.000000 
		0.500000	0.500000	0.500000	0.000000 
		0.500000	0.500000	0.500000	0.000000 
		0.500000	0.500000	0.500000	0.000000 
		0.500000	0.500000	0.500000	0.000000 
		0.500000	0.546952	0.500000	0.000000 
		0.500000	0.500000	0.500000	0.000000 
		0.500000	0.500000	0.500000	0.000000 
		0.500000	0.500000	0.500000	0.000000 
		0.363173	0.500000	0.500000	0.000000 
		0.363173	0.500000	0.500000	0.000000 
		0.363173	0.500000	0.500000	0.000000 
		0.500000	0.500000	0.500000	0.000000 
		0.500000	0.500000	0.500000	0.000000 
		0.500000	0.500000	0.500000	0.000000 
		0.500000	0.500000	0.500000	0.000000 
		0.500000	0.500000	0.500000	0.000000 
		0.500000	0.500000	0.500000	0.000000 
		0.500000	0.500000	0.500000	0.000000 
		0.500000	0.500000	0.500000	0.000000 
		0.500000	0.500000	0.500000	0.000000 
		0.500000	0.500000	0.500000	0.000000 
		0.500000	0.500000	0.500000	0.000000 
		0.500000	0.500000	0.500000	0.000000 
		0.500000	0.257811	0.500000	0.003922 
		0.500000	0.351201	0.500000	0.003922 
		0.638474	0.500000	0.500000	0.000000 
		0.500000	0.500000	0.500000	0.000000 
		0.500000	0.500000	0.500000	0.000000 
		0.500000	0.257811	0.500000	0.003922 
		0.500000	0.286338	0.500000	0.003922 
		0.500000	0.351201	0.500000	0.003922 
		0.500000	0.351201	0.500000	0.003922 
		0.500000	0.406610	0.500000	0.003922 
		0.500000	0.351201	0.500000	0.003922 
		0.500000	0.406610	0.500000	0.003922 
		0.500000	0.406610	0.500000	0.003922 
		0.500000	0.351201	0.500000	0.003922 
		0.500000	0.351201	0.500000	0.003922 
		0.500000	0.406610	0.500000	0.003922 
		0.500000	0.500000	0.500000	0.003922 
		0.500000	0.500000	0.598999	0.003922 
		0.500000	0.351201	0.500000	0.003922 
		0.500000	0.500000	0.500000	0.003922 
		0.500000	0.500000	0.500000	0.003922 
		0.500000	0.500000	0.500000	0.000000 
		0.500000	0.500000	0.500000	0.000000 
		0.500000	0.500000	0.500000	0.000000 
		0.500000	0.500000	0.500000	0.000000 
		0.602058	0.500000	0.500000	0.000000 
		0.500000	0.500000	0.500000	0.000000 
		0.500000	0.500000	0.708686	0.000000 
		0.500000	0.500000	0.500000	0.000000 
		0.500000	0.500000	0.708686	0.000000 
		0.500000	0.500000	0.708686	0.000000 
		0.500000	0.500000	0.500000	0.000000 
		0.500000	0.500000	0.500000	0.000000 
		0.500000	0.604055	0.708686	0.000000 
		0.500000	0.632359	0.500000	0.000000 
		0.896815	0.500000	0.500000	0.000000 
		0.500000	0.500000	0.500000	0.003922 
		0.500000	0.500000	0.500000	0.000000 
		0.500000	0.500000	0.500000	0.000000 
		0.500000	0.351201	0.500000	0.003922 
		0.500000	0.500000	0.598999	0.003922 
		0.500000	0.351201	0.500000	0.003922 
		0.500000	0.351201	0.500000	0.003922 
		0.638474	0.500000	0.500000	0.000000 
		0.500000	0.351201	0.500000	0.003922 
		0.560920	0.632359	0.500000	0.000000 
		0.560920	0.632359	0.500000	0.000000 
		0.560920	0.500000	0.500000	0.000000 
		0.560920	0.500000	0.500000	0.000000 
		0.560920	0.500000	0.500000	0.000000 
		0.560920	0.500000	0.500000	0.000000 
		0.602058	0.500000	0.500000	0.000000 
		0.602058	0.500000	0.500000	0.000000 
		0.556245	0.500000	0.500000	0.000000 
		0.500000	0.500000	0.500000	0.000000 
		0.500000	0.500000	0.500000	0.000000 
		0.680984	0.500000	0.500000	0.000000 
		0.680984	0.500000	0.500000	0.000000 
		0.680984	0.500000	0.500000	0.000000 
		0.567765	0.500000	0.500000	0.000000 
		0.500000	0.500000	0.500000	0.000000 
		0.500000	0.500000	0.500000	0.000000 
		0.620315	0.500000	0.500000	0.000000 
		0.638474	0.500000	0.500000	0.000000 
		0.500000	0.351201	0.500000	0.003922 
		0.500000	0.351201	0.500000	0.003922 
		0.638474	0.500000	0.500000	0.000000 
		0.500000	0.500000	0.500000	0.000000 
		0.500000	0.500000	0.500000	0.000000 
		0.500000	0.351201	0.500000	0.003922 
		0.500000	0.351201	0.500000	0.003922 
		0.500000	0.351201	0.500000	0.003922 
		0.500000	0.351201	0.500000	0.003922 
		0.500000	0.351201	0.500000	0.003922 
		0.500000	0.500000	0.598999	0.003922 
		0.500000	0.351201	0.500000	0.003922 
		0.500000	0.500000	0.500000	0.003922 
		0.500000	0.500000	0.500000	0.000000 
		0.602058	0.500000	0.500000	0.000000 
		0.500000	0.500000	0.500000	0.000000 
		0.500000	0.500000	0.500000	0.000000 
		0.602058	0.500000	0.500000	0.000000 
		0.560920	0.500000	0.500000	0.000000 
		0.500000	0.500000	0.500000	0.000000 
		0.560920	0.500000	0.500000	0.000000 
		0.560920	0.500000	0.500000	0.000000 
		0.560920	0.632359	0.500000	0.000000 
		0.500000	0.500000	0.500000	0.000000 
		0.500000	0.500000	0.500000	0.003922 
		0.500000	0.500000	0.500000	0.000000 
		0.500000	0.500000	0.500000	0.003922 
		0.500000	0.500000	0.500000	0.003922 
		0.500000	0.500000	0.500000	0.003922 
		0.500000	0.500000	0.500000	0.003922 
		0.500000	0.500000	0.500000	0.003922 
		0.500000	0.500000	0.500000	0.003922 
		0.500000	0.500000	0.500000	0.003922 
		0.500000	0.500000	0.500000	0.003922 
		0.500000	0.500000	0.500000	0.000000 
		0.500000	0.500000	0.500000	0.000000 
		0.500000	0.500000	0.500000	0.000000 
		0.500000	0.500000	0.500000	0.000000 
		0.500000	0.500000	0.500000	0.000000 
		0.500000	0.500000	0.500000	0.000000 
		0.500000	0.500000	0.500000	0.000000 
		0.500000	0.500000	0.500000	0.003922 
		0.500000	0.500000	0.500000	0.000000 
		0.500000	0.500000	0.500000	0.000000 
		0.500000	0.500000	0.500000	0.000000 
		0.500000	0.500000	0.500000	0.003922 
		0.500000	0.500000	0.500000	0.003922 
		0.500000	0.500000	0.500000	0.003922 
		0.500000	0.500000	0.500000	0.000000 
		0.500000	0.500000	0.500000	0.000000 
		0.500000	0.500000	0.500000	0.000000 
		0.500000	0.500000	0.500000	0.000000 
		0.500000	0.500000	0.500000	0.000000 
		0.500000	0.500000	0.500000	0.000000 
		0.500000	0.500000	0.500000	0.000000 
		0.500000	0.500000	0.500000	0.000000 
		0.500000	0.500000	0.500000	0.000000 
		0.500000	0.500000	0.500000	0.000000 
		0.500000	0.500000	0.500000	0.000000 
		0.292323	0.500000	0.500000	0.003922 
		0.320904	0.500000	0.500000	0.003922 
		0.500000	0.500000	0.500000	0.003922 
		0.500000	0.500000	0.500000	0.003922 
		0.500000	0.500000	0.500000	0.000000 
		0.500000	0.500000	0.500000	0.000000 
		0.500000	0.500000	0.500000	0.000000 
		0.500000	0.500000	0.500000	0.000000 
		0.500000	0.500000	0.500000	0.000000 
		0.500000	0.500000	0.500000	0.000000 
		0.500000	0.500000	0.500000	0.000000 
		0.500000	0.500000	0.500000	0.000000 
		0.500000	0.500000	0.500000	0.000000 
		0.500000	0.500000	0.500000	0.000000 
		0.500000	0.500000	0.500000	0.000000 
		0.363173	0.500000	0.500000	0.000000 
		0.500000	0.500000	0.500000	0.000000 
		0.363173	0.500000	0.500000	0.000000 
		0.500000	0.500000	0.500000	0.000000 
		0.363173	0.500000	0.500000	0.000000 
		0.500000	0.500000	0.500000	0.000000 
		0.500000	0.500000	0.500000	0.000000 
		0.500000	0.500000	0.500000	0.000000 
		0.500000	0.500000	0.500000	0.000000 
		0.500000	0.500000	0.500000	0.000000 
		0.461789	0.500000	0.500000	0.000000 
		0.500000	0.500000	0.500000	0.000000 
		0.500000	0.500000	0.500000	0.003922 
		0.500000	0.500000	0.500000	0.003922 
		0.500000	0.500000	0.500000	0.003922 
		0.500000	0.500000	0.500000	0.003922 
		0.500000	0.500000	0.500000	0.003922 
		0.320904	0.500000	0.500000	0.000000 
		0.500000	0.500000	0.500000	0.003922 
		0.500000	0.500000	0.500000	0.003922 
		0.500000	0.500000	0.500000	0.003922 
		0.500000	0.500000	0.500000	0.003922 
		0.500000	0.500000	0.500000	0.003922 
		0.500000	0.500000	0.500000	0.003922 
		0.500000	0.500000	0.500000	0.000000 
		0.500000	0.500000	0.500000	0.000000 
		0.500000	0.500000	0.500000	0.000000 
		0.500000	0.500000	0.500000	0.000000 
		0.500000	0.500000	0.500000	0.000000 
		0.500000	0.500000	0.500000	0.000000 
		0.500000	0.500000	0.500000	0.000000 
		0.500000	0.500000	0.500000	0.000000 
		0.500000	0.500000	0.500000	0.000000 
		0.500000	0.500000	0.500000	0.000000 
		0.500000	0.500000	0.500000	0.000000 
		0.500000	0.500000	0.500000	0.000000 
		0.500000	0.500000	0.500000	0.000000 
		0.500000	0.500000	0.500000	0.000000 
		0.500000	0.500000	0.500000	0.000000 
		0.500000	0.500000	0.500000	0.000000 
		0.500000	0.500000	0.500000	0.000000 
		0.500000	0.500000	0.500000	0.000000 
	}

	Tex0 173 { 
		0.629883	0.186523 
		0.629883	0.766602 
		0.182617	0.186523 
		0.629883	-0.023438 
		0.629883	0.976563 
		0.182617	0.976563 
		0.182617	0.766602 
		0.996094	0.976563 
		0.791992	0.976563 
		0.791992	0.766602 
		1.004883	0.942383 
		1.009766	0.476563 
		0.791992	0.186523 
		0.009766	0.476563 
		0.037109	0.186523 
		0.037109	0.766602 
		0.021484	0.881836 
		0.031250	0.917969 
		0.037109	0.925781 
		0.023438	0.979492 
		0.254883	-0.023438 
		0.791992	-0.023438 
		0.996094	-0.023438 
		1.004883	0.011719 
		0.021484	0.072266 
		0.031250	0.036133 
		0.037109	0.028320 
		0.249023	0.991211 
		0.018555	0.991211 
		0.018555	0.715820 
		0.249023	0.518555 
		0.018555	0.518555 
		0.662109	0.463867 
		0.714844	0.466797 
		0.789063	0.465820 
		0.675781	0.458008 
		0.716797	0.458008 
		0.711914	0.458008 
		0.750000	0.958984 
		0.750000	0.907227 
		0.517578	0.905273 
		0.517578	0.957031 
		0.750000	0.803711 
		0.517578	0.802734 
		0.750000	0.733398 
		0.518555	0.730469 
		0.541992	0.007813 
		0.541992	0.024414 
		0.325195	0.022461 
		0.315430	0.006836 
		0.541992	0.034180 
		0.340820	0.031250 
		0.750977	0.644531 
		0.750977	0.567383 
		0.524414	0.567383 
		0.521484	0.644531 
		0.750977	0.501953 
		0.524414	0.501953 
		0.672852	0.107422 
		0.138672	0.153320 
		0.130859	0.111328 
		0.143555	0.056641 
		0.674805	0.245117 
		0.166016	0.207031 
		0.214844	0.244141 
		0.191406	0.231445 
		0.990234	0.105469 
		0.991211	0.235352 
		0.008789	0.014648 
		0.014648	0.014648 
		0.017578	0.030273 
		0.008789	0.048828 
		0.014648	0.087891 
		0.029297	0.047852 
		0.051758	0.105469 
		0.061523	0.061523 
		0.108398	0.064453 
		0.161133	0.040039 
		0.176758	0.000977 
		0.672852	0.004883 
		0.699219	0.042969 
		0.751953	0.058594 
		0.838867	0.029297 
		0.851563	0.004883 
		0.989258	0.006836 
		0.808594	0.050781 
		0.000977	0.978516 
		0.000977	0.715820 
		0.000977	0.517578 
		0.714844	0.463867 
		0.664063	0.460938 
		0.788086	0.461914 
		0.703125	0.458008 
		0.500977	0.901367 
		0.500977	0.946289 
		0.500977	0.800781 
		0.500977	0.722656 
		0.636719	0.079102 
		0.628906	0.079102 
		0.639648	0.079102 
		0.504883	0.567383 
		0.501953	0.640625 
		0.503906	0.501953 
		0.480469	0.715820 
		0.480469	0.991211 
		0.480469	0.518555 
		0.982422	0.905273 
		0.982422	0.957031 
		0.982422	0.802734 
		0.981445	0.730469 
		0.759766	0.022461 
		0.769531	0.006836 
		0.743164	0.031250 
		0.976563	0.567383 
		0.979492	0.644531 
		0.976563	0.501953 
		0.498047	0.978516 
		0.498047	0.715820 
		0.498047	0.517578 
		1.000000	0.946289 
		1.000000	0.901367 
		1.000000	0.800781 
		0.999023	0.722656 
		0.629883	0.071289 
		0.636719	0.071289 
		0.639648	0.071289 
		1.000000	0.640625 
		0.997070	0.567383 
		0.997070	0.501953 
		0.675781	0.359375 
		0.352539	0.389648 
		0.355469	0.444336 
		0.677734	0.498047 
		0.994141	0.486328 
		0.993164	0.355469 
		0.020508	0.285156 
		0.016602	0.269531 
		0.010742	0.269531 
		0.010742	0.303711 
		0.031250	0.302734 
		0.017578	0.342773 
		0.053711	0.361328 
		0.063477	0.316406 
		0.132813	0.367188 
		0.111328	0.319336 
		0.146484	0.310547 
		0.701172	0.293945 
		0.164063	0.294922 
		0.674805	0.254883 
		0.178711	0.254883 
		0.840820	0.279297 
		0.991211	0.255859 
		0.853516	0.254883 
		0.810547	0.300781 
		0.753906	0.309570 
		0.351563	0.310547 
		0.351563	0.330078 
		0.351563	0.364258 
		0.356445	0.475586 
		0.357422	0.490234 
		0.217773	0.500000 
		0.195313	0.487305 
		0.141602	0.409180 
		0.168945	0.462891 
		0.546875	0.616211 
		0.546875	0.636719 
		0.561523	0.630859 
		0.568359	0.616211 
		0.532227	0.630859 
		0.525391	0.616211 
		0.532227	0.601563 
		0.546875	0.595703 
		0.561523	0.601563 
	}

	Tex1 0 
	Adj 250 { 
		P 0 
		N 0 
		C0 0 
		T0 0 
		P 1 
		N 1 
		C0 1 
		T0 1 
		P 2 
		N 2 
		C0 2 
		T0 2 
		P 3 
		N 3 
		C0 3 
		T0 3 
		P 4 
		N 4 
		C0 4 
		T0 4 
		P 5 
		N 5 
		C0 5 
		T0 5 
		P 6 
		N 6 
		C0 6 
		T0 6 
		P 7 
		N 7 
		C0 7 
		T0 7 
		P 8 
		N 8 
		C0 8 
		T0 8 
		P 9 
		N 9 
		C0 9 
		T0 9 
		P 10 
		N 7 
		C0 10 
		T0 10 
		P 11 
		N 7 
		C0 11 
		T0 11 
		P 12 
		N 10 
		C0 12 
		T0 12 
		P 13 
		N 11 
		C0 13 
		T0 13 
		P 14 
		N 12 
		C0 14 
		T0 14 
		P 15 
		N 13 
		C0 15 
		T0 15 
		P 16 
		N 11 
		C0 16 
		T0 16 
		P 17 
		N 11 
		C0 17 
		T0 17 
		P 18 
		N 14 
		C0 18 
		T0 18 
		P 19 
		N 15 
		C0 19 
		T0 19 
		P 20 
		N 16 
		C0 20 
		T0 19 
		P 21 
		N 17 
		C0 21 
		T0 19 
		P 15 
		N 13 
		C0 22 
		T0 19 
		P 22 
		N 18 
		C0 23 
		T0 19 
		P 23 
		N 19 
		C0 24 
		T0 19 
		P 24 
		N 20 
		C0 25 
		T0 19 
		P 25 
		N 21 
		C0 26 
		T0 19 
		P 26 
		N 22 
		C0 27 
		T0 19 
		P 6 
		N 6 
		C0 28 
		T0 19 
		P 5 
		N 5 
		C0 29 
		T0 19 
		P 1 
		N 1 
		C0 30 
		T0 19 
		P 27 
		N 23 
		C0 31 
		T0 19 
		P 28 
		N 24 
		C0 32 
		T0 19 
		P 4 
		N 4 
		C0 33 
		T0 19 
		P 29 
		N 25 
		C0 34 
		T0 19 
		P 30 
		N 26 
		C0 35 
		T0 19 
		P 31 
		N 27 
		C0 36 
		T0 19 
		P 32 
		N 28 
		C0 37 
		T0 19 
		P 9 
		N 9 
		C0 38 
		T0 19 
		P 8 
		N 8 
		C0 39 
		T0 19 
		P 18 
		N 14 
		C0 40 
		T0 19 
		P 33 
		N 29 
		C0 41 
		T0 20 
		P 34 
		N 30 
		C0 42 
		T0 21 
		P 35 
		N 7 
		C0 43 
		T0 22 
		P 36 
		N 7 
		C0 44 
		T0 23 
		P 37 
		N 11 
		C0 45 
		T0 24 
		P 38 
		N 11 
		C0 46 
		T0 25 
		P 39 
		N 14 
		C0 47 
		T0 26 
		P 40 
		N 31 
		C0 48 
		T0 19 
		P 41 
		N 32 
		C0 49 
		T0 19 
		P 42 
		N 33 
		C0 50 
		T0 19 
		P 14 
		N 12 
		C0 51 
		T0 19 
		P 43 
		N 34 
		C0 52 
		T0 19 
		P 44 
		N 35 
		C0 53 
		T0 19 
		P 45 
		N 36 
		C0 54 
		T0 19 
		P 46 
		N 21 
		C0 55 
		T0 19 
		P 47 
		N 37 
		C0 56 
		T0 19 
		P 33 
		N 29 
		C0 57 
		T0 19 
		P 2 
		N 2 
		C0 58 
		T0 19 
		P 48 
		N 38 
		C0 59 
		T0 19 
		P 49 
		N 39 
		C0 60 
		T0 19 
		P 0 
		N 0 
		C0 61 
		T0 19 
		P 3 
		N 3 
		C0 62 
		T0 19 
		P 50 
		N 40 
		C0 63 
		T0 19 
		P 51 
		N 41 
		C0 64 
		T0 19 
		P 52 
		N 27 
		C0 65 
		T0 19 
		P 53 
		N 42 
		C0 66 
		T0 19 
		P 34 
		N 30 
		C0 67 
		T0 19 
		P 12 
		N 10 
		C0 68 
		T0 19 
		P 39 
		N 14 
		C0 69 
		T0 19 
		P 54 
		N 43 
		C0 70 
		T0 27 
		P 55 
		N 44 
		C0 71 
		T0 28 
		P 56 
		N 44 
		C0 72 
		T0 29 
		P 11 
		N 43 
		C0 73 
		T0 30 
		P 10 
		N 44 
		C0 74 
		T0 31 
		P 54 
		N 45 
		C0 75 
		T0 32 
		P 57 
		N 46 
		C0 76 
		T0 33 
		P 58 
		N 47 
		C0 77 
		T0 33 
		P 55 
		N 48 
		C0 78 
		T0 32 
		P 59 
		N 49 
		C0 79 
		T0 34 
		P 60 
		N 50 
		C0 80 
		T0 34 
		P 59 
		N 49 
		C0 81 
		T0 35 
		P 61 
		N 51 
		C0 82 
		T0 36 
		P 62 
		N 52 
		C0 83 
		T0 37 
		P 60 
		N 50 
		C0 84 
		T0 35 
		P 61 
		N 51 
		C0 85 
		T0 38 
		P 63 
		N 53 
		C0 86 
		T0 39 
		P 64 
		N 54 
		C0 87 
		T0 40 
		P 62 
		N 52 
		C0 88 
		T0 41 
		P 65 
		N 55 
		C0 89 
		T0 42 
		P 66 
		N 56 
		C0 90 
		T0 43 
		P 67 
		N 57 
		C0 91 
		T0 44 
		P 68 
		N 58 
		C0 92 
		T0 45 
		P 67 
		N 59 
		C0 93 
		T0 46 
		P 69 
		N 60 
		C0 94 
		T0 47 
		P 70 
		N 61 
		C0 95 
		T0 48 
		P 68 
		N 58 
		C0 96 
		T0 49 
		P 71 
		N 62 
		C0 97 
		T0 50 
		P 72 
		N 63 
		C0 98 
		T0 51 
		P 71 
		N 62 
		C0 99 
		T0 52 
		P 73 
		N 64 
		C0 100 
		T0 53 
		P 74 
		N 65 
		C0 101 
		T0 54 
		P 72 
		N 63 
		C0 102 
		T0 55 
		P 13 
		N 66 
		C0 103 
		T0 56 
		P 16 
		N 67 
		C0 104 
		T0 57 
		P 75 
		N 68 
		C0 105 
		T0 58 
		P 76 
		N 69 
		C0 106 
		T0 59 
		P 77 
		N 70 
		C0 107 
		T0 60 
		P 25 
		N 71 
		C0 108 
		T0 61 
		P 78 
		N 72 
		C0 109 
		T0 62 
		P 79 
		N 73 
		C0 110 
		T0 63 
		P 80 
		N 74 
		C0 111 
		T0 64 
		P 81 
		N 75 
		C0 112 
		T0 65 
		P 82 
		N 76 
		C0 113 
		T0 66 
		P 83 
		N 77 
		C0 114 
		T0 67 
		P 17 
		N 78 
		C0 115 
		T0 68 
		P 18 
		N 79 
		C0 116 
		T0 69 
		P 21 
		N 80 
		C0 117 
		T0 70 
		P 84 
		N 81 
		C0 118 
		T0 71 
		P 85 
		N 82 
		C0 119 
		T0 72 
		P 20 
		N 83 
		C0 120 
		T0 73 
		P 86 
		N 84 
		C0 121 
		T0 74 
		P 22 
		N 85 
		C0 122 
		T0 75 
		P 24 
		N 86 
		C0 123 
		T0 76 
		P 26 
		N 87 
		C0 124 
		T0 77 
		P 5 
		N 87 
		C0 125 
		T0 78 
		P 4 
		N 87 
		C0 126 
		T0 79 
		P 28 
		N 87 
		C0 127 
		T0 80 
		P 29 
		N 88 
		C0 128 
		T0 81 
		P 32 
		N 87 
		C0 129 
		T0 82 
		P 8 
		N 87 
		C0 130 
		T0 83 
		P 7 
		N 89 
		C0 131 
		T0 84 
		P 31 
		N 68 
		C0 132 
		T0 85 
		P 56 
		N 90 
		C0 133 
		T0 29 
		P 55 
		N 48 
		C0 134 
		T0 28 
		P 83 
		N 77 
		C0 135 
		T0 86 
		P 82 
		N 76 
		C0 136 
		T0 87 
		P 7 
		N 89 
		C0 137 
		T0 88 
		P 10 
		N 90 
		C0 138 
		T0 31 
		P 78 
		N 72 
		C0 139 
		T0 89 
		P 83 
		N 77 
		C0 140 
		T0 90 
		P 80 
		N 74 
		C0 141 
		T0 91 
		P 81 
		N 75 
		C0 142 
		T0 92 
		P 80 
		N 74 
		C0 143 
		T0 35 
		P 79 
		N 73 
		C0 144 
		T0 93 
		P 81 
		N 75 
		C0 145 
		T0 94 
		P 76 
		N 69 
		C0 146 
		T0 95 
		P 77 
		N 70 
		C0 147 
		T0 96 
		P 86 
		N 84 
		C0 148 
		T0 97 
		P 77 
		N 70 
		C0 149 
		T0 98 
		P 68 
		N 58 
		C0 150 
		T0 98 
		P 70 
		N 61 
		C0 151 
		T0 97 
		P 85 
		N 82 
		C0 152 
		T0 99 
		P 72 
		N 63 
		C0 153 
		T0 99 
		P 84 
		N 81 
		C0 154 
		T0 100 
		P 85 
		N 82 
		C0 155 
		T0 101 
		P 17 
		N 78 
		C0 156 
		T0 102 
		P 87 
		N 91 
		C0 157 
		T0 103 
		P 88 
		N 92 
		C0 158 
		T0 104 
		P 36 
		N 93 
		C0 159 
		T0 105 
		P 89 
		N 94 
		C0 160 
		T0 33 
		P 88 
		N 92 
		C0 161 
		T0 32 
		P 90 
		N 95 
		C0 162 
		T0 34 
		P 91 
		N 96 
		C0 163 
		T0 37 
		P 90 
		N 95 
		C0 164 
		T0 35 
		P 92 
		N 97 
		C0 165 
		T0 106 
		P 91 
		N 96 
		C0 166 
		T0 107 
		P 93 
		N 98 
		C0 167 
		T0 108 
		P 94 
		N 99 
		C0 168 
		T0 109 
		P 95 
		N 100 
		C0 169 
		T0 110 
		P 94 
		N 99 
		C0 170 
		T0 111 
		P 96 
		N 101 
		C0 171 
		T0 112 
		P 97 
		N 102 
		C0 172 
		T0 113 
		P 96 
		N 101 
		C0 173 
		T0 114 
		P 37 
		N 103 
		C0 174 
		T0 115 
		P 98 
		N 104 
		C0 175 
		T0 116 
		P 99 
		N 105 
		C0 176 
		T0 117 
		P 36 
		N 106 
		C0 177 
		T0 105 
		P 35 
		N 107 
		C0 178 
		T0 118 
		P 100 
		N 108 
		C0 179 
		T0 119 
		P 101 
		N 109 
		C0 180 
		T0 120 
		P 102 
		N 110 
		C0 181 
		T0 121 
		P 103 
		N 111 
		C0 182 
		T0 122 
		P 94 
		N 99 
		C0 183 
		T0 123 
		P 103 
		N 111 
		C0 184 
		T0 123 
		P 104 
		N 112 
		C0 185 
		T0 124 
		P 95 
		N 100 
		C0 186 
		T0 124 
		P 105 
		N 113 
		C0 187 
		T0 125 
		P 96 
		N 101 
		C0 188 
		T0 125 
		P 105 
		N 113 
		C0 189 
		T0 126 
		P 106 
		N 114 
		C0 190 
		T0 127 
		P 38 
		N 115 
		C0 191 
		T0 128 
		P 107 
		N 116 
		C0 192 
		T0 129 
		P 108 
		N 117 
		C0 193 
		T0 130 
		P 109 
		N 118 
		C0 194 
		T0 131 
		P 110 
		N 119 
		C0 195 
		T0 132 
		P 98 
		N 104 
		C0 196 
		T0 133 
		P 99 
		N 105 
		C0 197 
		T0 134 
		P 40 
		N 120 
		C0 198 
		T0 135 
		P 39 
		N 121 
		C0 199 
		T0 136 
		P 38 
		N 115 
		C0 200 
		T0 137 
		P 106 
		N 114 
		C0 201 
		T0 138 
		P 41 
		N 122 
		C0 202 
		T0 139 
		P 105 
		N 113 
		C0 203 
		T0 140 
		P 104 
		N 112 
		C0 204 
		T0 141 
		P 43 
		N 123 
		C0 205 
		T0 142 
		P 103 
		N 111 
		C0 206 
		T0 143 
		P 44 
		N 124 
		C0 207 
		T0 144 
		P 46 
		N 125 
		C0 208 
		T0 145 
		P 48 
		N 117 
		C0 209 
		T0 146 
		P 47 
		N 117 
		C0 210 
		T0 147 
		P 3 
		N 117 
		C0 211 
		T0 148 
		P 33 
		N 117 
		C0 212 
		T0 149 
		P 53 
		N 117 
		C0 213 
		T0 150 
		P 35 
		N 107 
		C0 214 
		T0 151 
		P 34 
		N 117 
		C0 215 
		T0 152 
		P 52 
		N 116 
		C0 216 
		T0 153 
		P 50 
		N 126 
		C0 217 
		T0 154 
		P 111 
		N 126 
		C0 218 
		T0 155 
		P 112 
		N 116 
		C0 219 
		T0 156 
		P 98 
		N 104 
		C0 220 
		T0 90 
		P 110 
		N 119 
		C0 221 
		T0 89 
		P 113 
		N 127 
		C0 222 
		T0 91 
		P 113 
		N 127 
		C0 223 
		T0 35 
		P 100 
		N 108 
		C0 224 
		T0 92 
		P 114 
		N 117 
		C0 225 
		T0 157 
		P 115 
		N 117 
		C0 226 
		T0 158 
		P 116 
		N 117 
		C0 227 
		T0 159 
		P 113 
		N 127 
		C0 228 
		T0 160 
		P 100 
		N 108 
		C0 229 
		T0 161 
		P 102 
		N 110 
		C0 230 
		T0 162 
		P 101 
		N 109 
		C0 231 
		T0 163 
		P 117 
		N 128 
		C0 232 
		T0 164 
		P 118 
		N 128 
		C0 233 
		T0 165 
		P 119 
		N 128 
		C0 234 
		T0 166 
		P 120 
		N 128 
		C0 235 
		T0 167 
		P 121 
		N 128 
		C0 236 
		T0 168 
		P 122 
		N 128 
		C0 237 
		T0 169 
		P 123 
		N 128 
		C0 238 
		T0 170 
		P 124 
		N 128 
		C0 239 
		T0 171 
		P 125 
		N 128 
		C0 240 
		T0 172 
		P 126 
		N 128 
		C0 241 
		T0 166 
		P 127 
		N 128 
		C0 242 
		T0 165 
		P 128 
		N 128 
		C0 243 
		T0 164 
		P 129 
		N 128 
		C0 244 
		T0 167 
		P 130 
		N 128 
		C0 245 
		T0 168 
		P 131 
		N 128 
		C0 246 
		T0 169 
		P 132 
		N 128 
		C0 247 
		T0 170 
		P 133 
		N 128 
		C0 248 
		T0 171 
		P 134 
		N 128 
		C0 249 
		T0 172 
	}

	Mtl 3 { 
		{
			Name "#2" 
			Priority 32 
			Prim 11 { 
				{
					Type TRISTRIP
					Priority 32 
					Idx 7 { 41 3 2 1 6 4 5 }
				}
				{
					Type TRISTRIP2
					Priority 32 
					Idx 4 { 15 6 14 2 }
				}
				{
					Type TRISTRIP2
					Priority 32 
					Idx 10 { 46 45 47 45 14 13 15 16 18 17 }
				}
				{
					Type TRISTRIP2
					Priority 32 
					Idx 4 { 1 9 0 12 }
				}
				{
					Type TRISTRIP2
					Priority 32 
					Idx 10 { 43 42 44 12 11 12 10 9 7 8 }
				}
				{
					Type TRISTRIP2
					Priority 32 
					Idx 9 { 33 32 30 31 38 35 38 37 39 }
				}
				{
					Type TRISTRIP
					Priority 32 
					Idx 6 { 32 31 34 35 36 37 }
				}
				{
					Type TRISTRIP
					Priority 32 
					Idx 15 { 57 58 56 54 55 54 53 54 52 50 49 50 48 51 69 }
				}
				{
					Type TRISTRIP2
					Priority 32 
					Idx 4 { 51 58 50 54 }
				}
				{
					Type TRISTRIP2
					Priority 32 
					Idx 18 { 40 21 22 20 19 23 24 25 24 26 24 27 24 29 24 28 19 22 }
				}
				{
					Type TRISTRIP2
					Priority 32 
					Idx 17 { 67 66 68 66 64 65 64 63 64 59 60 62 60 61 60 68 64 }
				}
			}

		}
		{
			Name "#3" 
			Priority 32 
			Prim 21 { 
				{
					Type TRISTRIP
					Priority 32 
					Idx 6 { 134 135 133 136 138 137 }
				}
				{
					Type TRISTRIP
					Priority 32 
					Idx 10 { 142 143 83 84 82 81 163 164 224 223 }
				}
				{
					Type TRISTRIP
					Priority 32 
					Idx 11 { 179 180 166 165 85 86 88 87 88 144 145 }
				}
				{
					Type TRISTRIP2
					Priority 32 
					Idx 6 { 150 149 151 148 153 152 }
				}
				{
					Type TRISTRIP2
					Priority 32 
					Idx 6 { 184 183 185 186 187 188 }
				}
				{
					Type TRISTRIP2
					Priority 32 
					Idx 13 { 220 161 221 160 222 160 162 76 79 77 80 139 141 }
				}
				{
					Type TRISTRIP
					Priority 32 
					Idx 8 { 139 140 77 78 76 75 160 161 }
				}
				{
					Type TRISTRIP
					Priority 32 
					Idx 9 { 170 169 93 94 96 94 95 97 98 }
				}
				{
					Type TRISTRIP2
					Priority 32 
					Idx 4 { 97 171 94 169 }
				}
				{
					Type TRISTRIP2
					Priority 32 
					Idx 13 { 189 173 190 172 191 172 174 100 103 101 104 154 156 }
				}
				{
					Type TRISTRIP
					Priority 32 
					Idx 8 { 154 155 101 102 100 99 172 173 }
				}
				{
					Type TRISTRIP
					Priority 32 
					Idx 18 { 196 197 195 192 194 193 194 230 194 231 226 229 227 228 227 195 226 194 }
				}
				{
					Type TRISTRIP
					Priority 32 
					Idx 15 { 130 131 129 113 132 113 128 105 128 108 128 124 127 125 126 }
				}
				{
					Type TRISTRIP2
					Priority 32 
					Idx 17 { 180 165 181 167 182 167 168 89 91 90 92 90 147 90 146 87 144 }
				}
				{
					Type TRISTRIP
					Priority 32 
					Idx 6 { 90 87 89 86 167 165 }
				}
				{
					Type TRISTRIP
					Priority 32 
					Idx 22 { 115 116 118 117 118 120 119 120 121 122 121 123 107 108 107 105 106 105 110 109 112 111 }
				}
				{
					Type TRISTRIP
					Priority 32 
					Idx 4 { 105 113 109 114 }
				}
				{
					Type TRISTRIP
					Priority 32 
					Idx 25 { 211 212 209 210 209 208 209 218 217 218 219 208 206 207 204 205 204 202 203 202 201 198 201 199 200 }
				}
				{
					Type TRISTRIP2
					Priority 32 
					Idx 16 { 215 214 213 197 216 197 217 192 219 225 206 225 230 225 193 192 }
				}
				{
					Type TRISTRIP2
					Priority 32 
					Idx 9 { 74 72 73 71 73 70 73 157 159 }
				}
				{
					Type TRISTRIP
					Priority 32 
					Idx 9 { 178 176 177 176 157 175 157 158 70 }
				}
			}

		}
		{
			Name "#4" 
			Priority 32 
			Prim 3 { 
				{
					Type TRISTRIP
					Priority 32 
					Idx 7 { 234 235 233 232 236 238 237 }
				}
				{
					Type TRISTRIP2
					Priority 32 
					Idx 5 { 238 239 232 240 235 }
				}
				{
					Type TRISTRIP
					Priority 32 
					Idx 15 { 249 244 243 241 243 242 243 245 243 246 243 247 243 248 249 }
				}
			}

		}
	}

	Offset 0 
}
