{
	Skinned 0 
	PosSkin 0 
	Pos 6 { 
		-1.752964	0.007289	-5.455284 
		-1.750305	-0.000049	0.025709 
		1.765576	-0.000049	0.025709 
		1.768245	0.007289	-5.455274 
		-1.750305	0.007289	6.474705 
		1.765576	0.007289	6.474705 
	}

	Nrm 1 { 
		0.000000	1.000000	0.000000 
	}

	Cpv 8 { 
		1.000000	1.000000	1.000000	1.000000 
		1.000000	1.000000	1.000000	1.000000 
		1.000000	1.000000	1.000000	1.000000 
		1.000000	1.000000	1.000000	1.000000 
		1.000000	1.000000	1.000000	1.000000 
		1.000000	1.000000	1.000000	1.000000 
		1.000000	1.000000	1.000000	1.000000 
		1.000000	1.000000	1.000000	1.000000 
	}

	Tex0 4 { 
		1.000000	0.900391 
		1.000000	0.030273 
		0.000000	0.030273 
		0.000000	0.900391 
	}

	Tex1 0 
	Adj 8 { 
		P 0 
		N 0 
		C0 0 
		T0 0 
		P 1 
		N 0 
		C0 1 
		T0 1 
		P 2 
		N 0 
		C0 2 
		T0 2 
		P 3 
		N 0 
		C0 3 
		T0 3 
		P 2 
		N 0 
		C0 4 
		T0 1 
		P 1 
		N 0 
		C0 5 
		T0 2 
		P 4 
		N 0 
		C0 6 
		T0 3 
		P 5 
		N 0 
		C0 7 
		T0 0 
	}

	Mtl 1 { 
		{
			Name "#0" 
			Priority 32 
			Prim 2 { 
				{
					Type TRISTRIP
					Priority 32 
					Idx 4 { 0 1 3 2 }
				}
				{
					Type TRISTRIP
					Priority 32 
					Idx 4 { 5 6 4 7 }
				}
			}

		}
	}

	Offset 0 
}
