{
	Skinned 0 
	PosSkin 0 
	Pos 8 { 
		-0.116836	0.293192	0.325336 
		-0.116835	0.293192	-0.325336 
		-0.116835	-0.357479	-0.325336 
		-0.116835	-0.357479	0.325336 
		0.110102	0.293351	0.000186 
		-0.115813	0.293351	0.000186 
		-0.115813	-0.356518	0.000186 
		0.110102	-0.356518	0.000186 
	}

	Nrm 2 { 
		-1.000000	0.000000	0.000000 
		0.000000	-1.000000	0.000000 
	}

	Cpv 8 { 
		1.000000	1.000000	1.000000	1.000000 
		1.000000	1.000000	1.000000	1.000000 
		1.000000	1.000000	1.000000	1.000000 
		1.000000	1.000000	1.000000	1.000000 
		1.000000	1.000000	1.000000	1.000000 
		1.000000	1.000000	1.000000	1.000000 
		1.000000	1.000000	1.000000	1.000000 
		1.000000	1.000000	1.000000	1.000000 
	}

	Tex0 8 { 
		0.490234	0.973633 
		0.014648	0.973633 
		0.014648	0.026367 
		0.490234	0.026367 
		0.532227	0.999023 
		0.532227	-0.002930 
		0.996094	-0.002930 
		0.996094	0.999023 
	}

	Tex1 0 
	Adj 8 { 
		P 0 
		N 0 
		C0 0 
		T0 0 
		P 1 
		N 0 
		C0 1 
		T0 1 
		P 2 
		N 0 
		C0 2 
		T0 2 
		P 3 
		N 0 
		C0 3 
		T0 3 
		P 4 
		N 1 
		C0 4 
		T0 4 
		P 5 
		N 1 
		C0 5 
		T0 5 
		P 6 
		N 1 
		C0 6 
		T0 6 
		P 7 
		N 1 
		C0 7 
		T0 7 
	}

	Mtl 1 { 
		{
			Name "#1" 
			Priority 32 
			Prim 2 { 
				{
					Type TRISTRIP
					Priority 32 
					Idx 4 { 1 2 0 3 }
				}
				{
					Type TRISTRIP
					Priority 32 
					Idx 4 { 5 6 4 7 }
				}
			}

		}
	}

	Offset 0 
}
