{
	Skinned 0 
	PosSkin 0 
	Pos 20 { 
		1.416796	3.184374	-7.385790 
		1.042903	3.754320	-7.385790 
		1.042903	3.754320	-9.489901 
		1.416796	3.184374	-9.818361 
		1.416796	3.184374	-4.966866 
		1.042903	3.754320	-4.966866 
		1.416796	3.184374	-2.547943 
		1.042903	3.754320	-2.547943 
		1.416796	3.184374	-0.755625 
		1.042903	3.754320	-0.755625 
		-1.416796	3.184374	-9.818361 
		-1.042903	3.754320	-9.489901 
		-1.042903	3.754320	-7.385790 
		-1.416796	3.184374	-7.385790 
		-1.042903	3.754320	-4.966866 
		-1.416796	3.184374	-4.966866 
		-1.042903	3.754320	-2.547943 
		-1.416796	3.184374	-2.547943 
		-1.042903	3.754320	-0.755625 
		-1.416796	3.184374	-0.755625 
	}

	Nrm 4 { 
		-0.843750	-0.546875	0.000000 
		0.843750	-0.546875	0.000000 
		0.000000	0.000000	-1.000000 
		0.000000	-0.500000	0.859375 
	}

	Cpv 38 { 
		1.000000	1.000000	1.000000	1.000000 
		1.000000	1.000000	1.000000	1.000000 
		1.000000	1.000000	1.000000	1.000000 
		1.000000	1.000000	1.000000	1.000000 
		1.000000	1.000000	1.000000	1.000000 
		1.000000	1.000000	1.000000	1.000000 
		1.000000	1.000000	1.000000	1.000000 
		1.000000	1.000000	1.000000	1.000000 
		1.000000	1.000000	1.000000	1.000000 
		1.000000	1.000000	1.000000	1.000000 
		1.000000	1.000000	1.000000	1.000000 
		1.000000	1.000000	1.000000	1.000000 
		1.000000	1.000000	1.000000	1.000000 
		1.000000	1.000000	1.000000	1.000000 
		1.000000	1.000000	1.000000	1.000000 
		1.000000	1.000000	1.000000	1.000000 
		1.000000	1.000000	1.000000	1.000000 
		1.000000	1.000000	1.000000	1.000000 
		1.000000	1.000000	1.000000	1.000000 
		1.000000	1.000000	1.000000	1.000000 
		1.000000	1.000000	1.000000	1.000000 
		1.000000	1.000000	1.000000	1.000000 
		1.000000	1.000000	1.000000	1.000000 
		1.000000	1.000000	1.000000	1.000000 
		1.000000	1.000000	1.000000	1.000000 
		1.000000	1.000000	1.000000	1.000000 
		1.000000	1.000000	1.000000	1.000000 
		1.000000	1.000000	1.000000	1.000000 
		1.000000	1.000000	1.000000	1.000000 
		1.000000	1.000000	1.000000	1.000000 
		1.000000	1.000000	1.000000	1.000000 
		1.000000	1.000000	1.000000	1.000000 
		1.000000	1.000000	1.000000	1.000000 
		1.000000	1.000000	1.000000	1.000000 
		1.000000	1.000000	1.000000	1.000000 
		1.000000	1.000000	1.000000	1.000000 
		1.000000	1.000000	1.000000	1.000000 
		1.000000	1.000000	1.000000	1.000000 
	}

	Tex0 33 { 
		0.469727	0.323242 
		0.476563	0.422852 
		0.317383	0.422852 
		0.261719	0.323242 
		0.909180	0.779297 
		0.909180	0.877930 
		0.702148	0.877930 
		0.702148	0.779297 
		0.360352	-0.164063 
		0.360352	-0.074219 
		0.163086	-0.074219 
		0.163086	-0.164063 
		0.764648	0.404297 
		0.764648	0.500000 
		0.515625	0.500000 
		0.515625	0.404297 
		0.237305	0.295898 
		0.237305	0.396484 
		0.132813	0.396484 
		0.132813	0.295898 
		0.029297	0.396484 
		0.029297	0.295898 
		0.476563	0.314453 
		0.476563	0.416992 
		0.268555	0.416992 
		0.268555	0.314453 
		1.011719	0.292969 
		1.249023	0.294922 
		1.232422	0.398438 
		1.036133	0.398438 
		0.731445	0.500000 
		0.542969	0.500000 
		0.513672	0.404297 
	}

	Tex1 0 
	Adj 38 { 
		P 0 
		N 0 
		C0 0 
		T0 0 
		P 1 
		N 0 
		C0 1 
		T0 1 
		P 2 
		N 0 
		C0 2 
		T0 2 
		P 3 
		N 0 
		C0 3 
		T0 3 
		P 4 
		N 0 
		C0 4 
		T0 4 
		P 5 
		N 0 
		C0 5 
		T0 5 
		P 1 
		N 0 
		C0 6 
		T0 6 
		P 0 
		N 0 
		C0 7 
		T0 7 
		P 6 
		N 0 
		C0 8 
		T0 8 
		P 7 
		N 0 
		C0 9 
		T0 9 
		P 5 
		N 0 
		C0 10 
		T0 10 
		P 4 
		N 0 
		C0 11 
		T0 11 
		P 8 
		N 0 
		C0 12 
		T0 12 
		P 9 
		N 0 
		C0 13 
		T0 13 
		P 7 
		N 0 
		C0 14 
		T0 14 
		P 6 
		N 0 
		C0 15 
		T0 15 
		P 10 
		N 1 
		C0 16 
		T0 16 
		P 11 
		N 1 
		C0 17 
		T0 17 
		P 12 
		N 1 
		C0 18 
		T0 18 
		P 13 
		N 1 
		C0 19 
		T0 19 
		P 14 
		N 1 
		C0 20 
		T0 20 
		P 15 
		N 1 
		C0 21 
		T0 21 
		P 15 
		N 1 
		C0 22 
		T0 22 
		P 14 
		N 1 
		C0 23 
		T0 23 
		P 16 
		N 1 
		C0 24 
		T0 24 
		P 17 
		N 1 
		C0 25 
		T0 25 
		P 17 
		N 1 
		C0 26 
		T0 12 
		P 16 
		N 1 
		C0 27 
		T0 13 
		P 18 
		N 1 
		C0 28 
		T0 14 
		P 19 
		N 1 
		C0 29 
		T0 15 
		P 8 
		N 2 
		C0 30 
		T0 26 
		P 19 
		N 2 
		C0 31 
		T0 27 
		P 18 
		N 2 
		C0 32 
		T0 28 
		P 9 
		N 2 
		C0 33 
		T0 29 
		P 2 
		N 3 
		C0 34 
		T0 30 
		P 11 
		N 3 
		C0 35 
		T0 31 
		P 10 
		N 3 
		C0 36 
		T0 32 
		P 3 
		N 3 
		C0 37 
		T0 12 
	}

	Mtl 1 { 
		{
			Name "#1" 
			Priority 32 
			Prim 9 { 
				{
					Type TRISTRIP
					Priority 32 
					Idx 4 { 2 3 1 0 }
				}
				{
					Type TRISTRIP
					Priority 32 
					Idx 4 { 6 7 5 4 }
				}
				{
					Type TRISTRIP
					Priority 32 
					Idx 4 { 10 11 9 8 }
				}
				{
					Type TRISTRIP
					Priority 32 
					Idx 4 { 14 15 13 12 }
				}
				{
					Type TRISTRIP
					Priority 32 
					Idx 6 { 16 17 19 18 21 20 }
				}
				{
					Type TRISTRIP
					Priority 32 
					Idx 4 { 22 23 25 24 }
				}
				{
					Type TRISTRIP
					Priority 32 
					Idx 4 { 26 27 29 28 }
				}
				{
					Type TRISTRIP
					Priority 32 
					Idx 4 { 31 32 30 33 }
				}
				{
					Type TRISTRIP
					Priority 32 
					Idx 4 { 36 37 35 34 }
				}
			}

		}
	}

	Offset 0 
}
