{
	Skinned 0 
	PosSkin 0 
	Pos 6 { 
		-1.861315	0.000000	-4.577012 
		-1.859907	-0.000000	0.076855 
		1.859908	-0.000000	0.076854 
		1.861315	0.000000	-4.577012 
		-1.858499	-0.000000	4.577012 
		1.858501	-0.000000	4.577011 
	}

	Nrm 1 { 
		0.000000	1.000000	0.000000 
	}

	Cpv 8 { 
		1.000000	1.000000	1.000000	1.000000 
		1.000000	1.000000	1.000000	1.000000 
		1.000000	1.000000	1.000000	1.000000 
		1.000000	1.000000	1.000000	1.000000 
		1.000000	1.000000	1.000000	1.000000 
		1.000000	1.000000	1.000000	1.000000 
		1.000000	1.000000	1.000000	1.000000 
		1.000000	1.000000	1.000000	1.000000 
	}

	Tex0 4 { 
		1.000000	0.900391 
		1.000000	0.030273 
		0.000000	0.030273 
		0.000000	0.900391 
	}

	Tex1 0 
	Adj 8 { 
		P 0 
		N 0 
		C0 0 
		T0 0 
		P 1 
		N 0 
		C0 1 
		T0 1 
		P 2 
		N 0 
		C0 2 
		T0 2 
		P 3 
		N 0 
		C0 3 
		T0 3 
		P 2 
		N 0 
		C0 4 
		T0 1 
		P 1 
		N 0 
		C0 5 
		T0 2 
		P 4 
		N 0 
		C0 6 
		T0 3 
		P 5 
		N 0 
		C0 7 
		T0 0 
	}

	Mtl 1 { 
		{
			Name "#5" 
			Priority 32 
			Prim 2 { 
				{
					Type TRISTRIP
					Priority 32 
					Idx 4 { 0 1 3 2 }
				}
				{
					Type TRISTRIP
					Priority 32 
					Idx 4 { 5 6 4 7 }
				}
			}

		}
	}

	Offset 0 
}
