{
	Skinned 0 
	PosSkin 0 
	Pos 24 { 
		0.122648	0.307376	0.307454 
		0.122647	-0.307525	-0.307454 
		0.122647	0.307376	-0.307454 
		0.122648	-0.307525	0.307454 
		-0.122648	0.307376	-0.307454 
		-0.122648	-0.307525	0.307454 
		-0.122647	0.307376	0.307454 
		-0.122648	-0.307525	-0.307454 
		-0.122427	0.000454	-0.306888 
		0.121545	0.000454	-0.306888 
		0.121545	-0.216678	-0.216952 
		-0.122427	-0.216677	-0.216952 
		0.121545	-0.306617	0.000183 
		-0.122427	-0.306617	0.000183 
		0.121545	-0.216677	0.217313 
		-0.122427	-0.216677	0.217313 
		0.121546	0.000456	0.307249 
		-0.122426	0.000456	0.307248 
		0.121546	0.217586	0.217312 
		-0.122426	0.217586	0.217312 
		0.121545	0.307525	0.000185 
		-0.122426	0.307525	0.000184 
		0.121545	0.217589	-0.216960 
		-0.122427	0.217589	-0.216960 
	}

	Nrm 18 { 
		1.000000	0.000000	0.000000 
		-1.000000	0.000000	0.000000 
		0.000000	-0.140625	-0.984375 
		0.000000	0.140625	-0.984375 
		0.000000	-0.609375	-0.796875 
		0.000000	-0.796875	-0.609375 
		0.000000	-0.984375	-0.140625 
		0.000000	-0.984375	0.140625 
		0.000000	-0.796875	0.609375 
		0.000000	-0.609375	0.796875 
		0.000000	-0.140625	0.984375 
		0.000000	0.140625	0.984375 
		0.000000	0.609375	0.796875 
		0.000000	0.796875	0.609375 
		0.000000	0.984375	0.140625 
		0.000000	0.984375	-0.140625 
		0.000000	0.796875	-0.609375 
		0.000000	0.609375	-0.796875 
	}

	Cpv 40 { 
		1.000000	1.000000	1.000000	1.000000 
		1.000000	1.000000	1.000000	1.000000 
		1.000000	1.000000	1.000000	1.000000 
		1.000000	1.000000	1.000000	1.000000 
		1.000000	1.000000	1.000000	1.000000 
		1.000000	1.000000	1.000000	1.000000 
		1.000000	1.000000	1.000000	1.000000 
		1.000000	1.000000	1.000000	1.000000 
		1.000000	1.000000	1.000000	1.000000 
		1.000000	1.000000	1.000000	1.000000 
		1.000000	1.000000	1.000000	1.000000 
		1.000000	1.000000	1.000000	1.000000 
		1.000000	1.000000	1.000000	1.000000 
		1.000000	1.000000	1.000000	1.000000 
		1.000000	1.000000	1.000000	1.000000 
		1.000000	1.000000	1.000000	1.000000 
		1.000000	1.000000	1.000000	1.000000 
		1.000000	1.000000	1.000000	1.000000 
		1.000000	1.000000	1.000000	1.000000 
		1.000000	1.000000	1.000000	1.000000 
		1.000000	1.000000	1.000000	1.000000 
		1.000000	1.000000	1.000000	1.000000 
		1.000000	1.000000	1.000000	1.000000 
		1.000000	1.000000	1.000000	1.000000 
		1.000000	1.000000	1.000000	1.000000 
		1.000000	1.000000	1.000000	1.000000 
		1.000000	1.000000	1.000000	1.000000 
		1.000000	1.000000	1.000000	1.000000 
		1.000000	1.000000	1.000000	1.000000 
		1.000000	1.000000	1.000000	1.000000 
		1.000000	1.000000	1.000000	1.000000 
		1.000000	1.000000	1.000000	1.000000 
		1.000000	1.000000	1.000000	1.000000 
		1.000000	1.000000	1.000000	1.000000 
		1.000000	1.000000	1.000000	1.000000 
		1.000000	1.000000	1.000000	1.000000 
		1.000000	1.000000	1.000000	1.000000 
		1.000000	1.000000	1.000000	1.000000 
		1.000000	1.000000	1.000000	1.000000 
		1.000000	1.000000	1.000000	1.000000 
	}

	Tex0 8 { 
		0.497070	0.990234 
		0.004883	0.009766 
		0.004883	0.990234 
		0.497070	0.009766 
		0.530273	0.000000 
		0.530273	1.000000 
		0.990234	1.000000 
		0.990234	0.000000 
	}

	Tex1 0 
	Adj 40 { 
		P 0 
		N 0 
		C0 0 
		T0 0 
		P 1 
		N 0 
		C0 1 
		T0 1 
		P 2 
		N 0 
		C0 2 
		T0 2 
		P 3 
		N 0 
		C0 3 
		T0 3 
		P 4 
		N 1 
		C0 4 
		T0 2 
		P 5 
		N 1 
		C0 5 
		T0 3 
		P 6 
		N 1 
		C0 6 
		T0 0 
		P 7 
		N 1 
		C0 7 
		T0 1 
		P 8 
		N 2 
		C0 8 
		T0 4 
		P 9 
		N 3 
		C0 9 
		T0 5 
		P 10 
		N 4 
		C0 10 
		T0 6 
		P 11 
		N 5 
		C0 11 
		T0 7 
		P 11 
		N 5 
		C0 12 
		T0 5 
		P 10 
		N 4 
		C0 13 
		T0 4 
		P 12 
		N 6 
		C0 14 
		T0 7 
		P 13 
		N 7 
		C0 15 
		T0 6 
		P 13 
		N 7 
		C0 16 
		T0 4 
		P 12 
		N 6 
		C0 17 
		T0 5 
		P 14 
		N 8 
		C0 18 
		T0 6 
		P 15 
		N 9 
		C0 19 
		T0 7 
		P 15 
		N 9 
		C0 20 
		T0 4 
		P 14 
		N 8 
		C0 21 
		T0 5 
		P 16 
		N 10 
		C0 22 
		T0 6 
		P 17 
		N 11 
		C0 23 
		T0 7 
		P 17 
		N 11 
		C0 24 
		T0 4 
		P 16 
		N 10 
		C0 25 
		T0 5 
		P 18 
		N 12 
		C0 26 
		T0 6 
		P 19 
		N 13 
		C0 27 
		T0 7 
		P 19 
		N 13 
		C0 28 
		T0 4 
		P 18 
		N 12 
		C0 29 
		T0 5 
		P 20 
		N 14 
		C0 30 
		T0 6 
		P 21 
		N 15 
		C0 31 
		T0 7 
		P 21 
		N 15 
		C0 32 
		T0 4 
		P 20 
		N 14 
		C0 33 
		T0 5 
		P 22 
		N 16 
		C0 34 
		T0 6 
		P 23 
		N 17 
		C0 35 
		T0 7 
		P 23 
		N 17 
		C0 36 
		T0 4 
		P 22 
		N 16 
		C0 37 
		T0 5 
		P 9 
		N 3 
		C0 38 
		T0 6 
		P 8 
		N 2 
		C0 39 
		T0 7 
	}

	Mtl 1 { 
		{
			Name "#0" 
			Priority 32 
			Prim 10 { 
				{
					Type TRISTRIP
					Priority 32 
					Idx 4 { 2 0 1 3 }
				}
				{
					Type TRISTRIP
					Priority 32 
					Idx 4 { 6 4 5 7 }
				}
				{
					Type TRISTRIP
					Priority 32 
					Idx 4 { 9 10 8 11 }
				}
				{
					Type TRISTRIP
					Priority 32 
					Idx 4 { 13 14 12 15 }
				}
				{
					Type TRISTRIP
					Priority 32 
					Idx 4 { 17 18 16 19 }
				}
				{
					Type TRISTRIP
					Priority 32 
					Idx 4 { 21 22 20 23 }
				}
				{
					Type TRISTRIP
					Priority 32 
					Idx 4 { 25 26 24 27 }
				}
				{
					Type TRISTRIP
					Priority 32 
					Idx 4 { 29 30 28 31 }
				}
				{
					Type TRISTRIP
					Priority 32 
					Idx 4 { 33 34 32 35 }
				}
				{
					Type TRISTRIP
					Priority 32 
					Idx 4 { 37 38 36 39 }
				}
			}

		}
	}

	Offset 0 
}
