{
	Skinned 0 
	PosSkin 0 
	Pos 6 { 
		-1.426158	0.000000	2.784052 
		1.426158	0.000000	2.784052 
		1.426158	0.000000	0.307941 
		-1.426158	0.000000	0.307941 
		1.426158	0.000000	-2.765871 
		-1.426158	0.000000	-2.765871 
	}

	Nrm 1 { 
		0.000000	1.000000	0.000000 
	}

	Cpv 6 { 
		1.000000	1.000000	1.000000	1.000000 
		1.000000	1.000000	1.000000	1.000000 
		1.000000	1.000000	1.000000	1.000000 
		1.000000	1.000000	1.000000	1.000000 
		1.000000	1.000000	1.000000	1.000000 
		1.000000	1.000000	1.000000	1.000000 
	}

	Tex0 4 { 
		0.000000	0.988281 
		1.000000	0.988281 
		1.000000	0.011719 
		0.000000	0.011719 
	}

	Tex1 0 
	Adj 6 { 
		P 0 
		N 0 
		C0 0 
		T0 0 
		P 1 
		N 0 
		C0 1 
		T0 1 
		P 2 
		N 0 
		C0 2 
		T0 2 
		P 3 
		N 0 
		C0 3 
		T0 3 
		P 4 
		N 0 
		C0 4 
		T0 1 
		P 5 
		N 0 
		C0 5 
		T0 0 
	}

	Mtl 1 { 
		{
			Name "#0" 
			Priority 32 
			Prim 1 { 
				{
					Type TRISTRIP
					Priority 32 
					Idx 7 { 5 3 4 3 2 0 1 }
				}
			}

		}
	}

	Offset 0 
}
