{
	Skinned 0 
	PosSkin 0 
	Pos 24 { 
		0.142365	0.411330	0.411752 
		0.142364	-0.412172	-0.411752 
		0.142364	0.411330	-0.411752 
		0.142365	-0.412171	0.411752 
		-0.142365	0.411330	-0.411752 
		-0.142365	-0.412172	0.411752 
		-0.142364	0.411330	0.411752 
		-0.142365	-0.412171	-0.411752 
		-0.142102	0.000288	-0.411004 
		0.141083	0.000289	-0.411004 
		0.141083	-0.290505	-0.290565 
		-0.142102	-0.290505	-0.290565 
		0.141083	-0.410956	0.000236 
		-0.142102	-0.410956	0.000236 
		0.141083	-0.290505	0.291025 
		-0.142102	-0.290505	0.291025 
		0.141083	0.000288	0.411476 
		-0.142102	0.000288	0.411476 
		0.141083	0.291081	0.291025 
		-0.142102	0.291081	0.291025 
		0.141083	0.411532	0.000236 
		-0.142102	0.411532	0.000236 
		0.141083	0.291081	-0.290565 
		-0.142102	0.291081	-0.290565 
	}

	Nrm 18 { 
		1.000000	0.000000	0.000000 
		-1.000000	0.000000	0.000000 
		0.000000	-0.984375	0.140625 
		0.000000	-0.984375	-0.140625 
		0.000000	-0.796875	0.609375 
		0.000000	-0.609375	0.796875 
		0.000000	-0.140625	0.984375 
		0.000000	0.140625	0.984375 
		0.000000	0.609375	0.796875 
		0.000000	0.796875	0.609375 
		0.000000	0.984375	0.140625 
		0.000000	0.984375	-0.140625 
		0.000000	0.796875	-0.609375 
		0.000000	0.609375	-0.796875 
		0.000000	0.140625	-0.984375 
		0.000000	-0.140625	-0.984375 
		0.000000	-0.609375	-0.796875 
		0.000000	-0.796875	-0.609375 
	}

	Cpv 24 { 
		1.000000	1.000000	1.000000	1.000000 
		1.000000	1.000000	1.000000	1.000000 
		1.000000	1.000000	1.000000	1.000000 
		1.000000	1.000000	1.000000	1.000000 
		1.000000	1.000000	1.000000	1.000000 
		1.000000	1.000000	1.000000	1.000000 
		1.000000	1.000000	1.000000	1.000000 
		1.000000	1.000000	1.000000	1.000000 
		1.000000	1.000000	1.000000	1.000000 
		1.000000	1.000000	1.000000	1.000000 
		1.000000	1.000000	1.000000	1.000000 
		1.000000	1.000000	1.000000	1.000000 
		1.000000	1.000000	1.000000	1.000000 
		1.000000	1.000000	1.000000	1.000000 
		1.000000	1.000000	1.000000	1.000000 
		1.000000	1.000000	1.000000	1.000000 
		1.000000	1.000000	1.000000	1.000000 
		1.000000	1.000000	1.000000	1.000000 
		1.000000	1.000000	1.000000	1.000000 
		1.000000	1.000000	1.000000	1.000000 
		1.000000	1.000000	1.000000	1.000000 
		1.000000	1.000000	1.000000	1.000000 
		1.000000	1.000000	1.000000	1.000000 
		1.000000	1.000000	1.000000	1.000000 
	}

	Tex0 8 { 
		0.493164	0.985352 
		0.007813	0.014648 
		0.007813	0.985352 
		0.493164	0.014648 
		0.987305	0.001953 
		0.987305	1.000977 
		0.519531	1.000977 
		0.519531	0.001953 
	}

	Tex1 0 
	Adj 24 { 
		P 0 
		N 0 
		C0 0 
		T0 0 
		P 1 
		N 0 
		C0 1 
		T0 1 
		P 2 
		N 0 
		C0 2 
		T0 2 
		P 3 
		N 0 
		C0 3 
		T0 3 
		P 4 
		N 1 
		C0 4 
		T0 2 
		P 5 
		N 1 
		C0 5 
		T0 3 
		P 6 
		N 1 
		C0 6 
		T0 0 
		P 7 
		N 1 
		C0 7 
		T0 1 
		P 8 
		N 2 
		C0 8 
		T0 4 
		P 9 
		N 3 
		C0 9 
		T0 5 
		P 10 
		N 4 
		C0 10 
		T0 6 
		P 11 
		N 5 
		C0 11 
		T0 7 
		P 12 
		N 6 
		C0 12 
		T0 5 
		P 13 
		N 7 
		C0 13 
		T0 4 
		P 14 
		N 8 
		C0 14 
		T0 6 
		P 15 
		N 9 
		C0 15 
		T0 7 
		P 16 
		N 10 
		C0 16 
		T0 5 
		P 17 
		N 11 
		C0 17 
		T0 4 
		P 18 
		N 12 
		C0 18 
		T0 6 
		P 19 
		N 13 
		C0 19 
		T0 7 
		P 20 
		N 14 
		C0 20 
		T0 5 
		P 21 
		N 15 
		C0 21 
		T0 4 
		P 22 
		N 16 
		C0 22 
		T0 6 
		P 23 
		N 17 
		C0 23 
		T0 7 
	}

	Mtl 1 { 
		{
			Name "#1" 
			Priority 32 
			Prim 3 { 
				{
					Type TRISTRIP
					Priority 32 
					Idx 4 { 2 0 1 3 }
				}
				{
					Type TRISTRIP
					Priority 32 
					Idx 4 { 6 4 5 7 }
				}
				{
					Type TRISTRIP
					Priority 32 
					Idx 18 { 10 8 9 23 22 21 20 19 18 17 16 15 14 13 12 11 10 8 }
				}
			}

		}
	}

	Offset 0 
}
