{
	Skinned 0 
	PosSkin 0 
	Pos 6 { 
		-1.324959	-0.000049	-2.765272 
		1.340958	-0.000049	-2.765272 
		1.339951	-0.000049	0.044084 
		-1.323950	-0.000049	0.044084 
		1.338943	-0.000049	2.853440 
		-1.322942	-0.000049	2.853440 
	}

	Nrm 1 { 
		0.000000	0.000000	-1.000000 
	}

	Cpv 8 { 
		1.000000	1.000000	1.000000	1.000000 
		1.000000	1.000000	1.000000	1.000000 
		1.000000	1.000000	1.000000	1.000000 
		1.000000	1.000000	1.000000	1.000000 
		1.000000	1.000000	1.000000	1.000000 
		1.000000	1.000000	1.000000	1.000000 
		1.000000	1.000000	1.000000	1.000000 
		1.000000	1.000000	1.000000	1.000000 
	}

	Tex0 4 { 
		1.000000	0.900391 
		0.000000	0.900391 
		0.000000	0.030273 
		1.000000	0.030273 
	}

	Tex1 0 
	Adj 8 { 
		P 0 
		N 0 
		C0 0 
		T0 0 
		P 1 
		N 0 
		C0 1 
		T0 1 
		P 2 
		N 0 
		C0 2 
		T0 2 
		P 3 
		N 0 
		C0 3 
		T0 3 
		P 2 
		N 0 
		C0 4 
		T0 3 
		P 4 
		N 0 
		C0 5 
		T0 0 
		P 5 
		N 0 
		C0 6 
		T0 1 
		P 3 
		N 0 
		C0 7 
		T0 2 
	}

	Mtl 1 { 
		{
			Name "#1" 
			Priority 32 
			Prim 2 { 
				{
					Type TRISTRIP
					Priority 32 
					Idx 4 { 0 1 3 2 }
				}
				{
					Type TRISTRIP
					Priority 32 
					Idx 4 { 7 4 6 5 }
				}
			}

		}
	}

	Offset 0 
}
