{
	Skinned 0 
	PosSkin 0 
	Pos 38 { 
		0.991337	2.959306	-3.863581 
		0.954500	3.050138	-3.768929 
		0.954500	3.050138	-3.621586 
		0.991337	2.959306	-3.526934 
		0.475811	2.959306	-3.863581 
		0.475811	3.050138	-3.768929 
		0.475811	3.050138	-3.621586 
		0.475811	2.959306	-3.526934 
		0.158604	3.050138	-3.768929 
		0.158604	2.959306	-3.863581 
		-0.158604	2.959306	-3.863581 
		-0.158604	3.050138	-3.768929 
		0.158604	3.050138	-3.621586 
		-0.158604	3.050138	-3.621586 
		-0.158604	2.959306	-3.526934 
		0.158604	2.959306	-3.526934 
		-0.991337	2.959306	-3.863581 
		-0.991337	2.959306	-3.526934 
		-0.954500	3.050138	-3.621586 
		-0.954500	3.050138	-3.768929 
		-0.475811	3.050138	-3.768929 
		-0.475811	2.959306	-3.863581 
		-0.475811	3.050138	-3.621586 
		-0.475811	2.959306	-3.526934 
		0.954500	2.868474	-3.795497 
		0.954500	2.868474	-3.595017 
		0.954500	2.815807	-3.595017 
		0.954500	2.815807	-3.795497 
		0.000000	2.868474	-3.595017 
		0.000000	2.815807	-3.595017 
		0.000000	2.868474	-3.795497 
		0.000000	2.815807	-3.795497 
		0.000000	2.959306	-3.863581 
		0.000000	2.959306	-3.526934 
		-0.954500	2.868474	-3.795497 
		-0.954500	2.868474	-3.595017 
		-0.954500	2.815807	-3.795497 
		-0.954500	2.815807	-3.595017 
	}

	Nrm 15 { 
		0.921875	0.375000	0.000000 
		0.000000	0.718750	-0.687500 
		0.000000	1.000000	0.000000 
		0.000000	0.718750	0.687500 
		0.000000	0.921875	-0.375000 
		0.000000	0.921875	0.375000 
		-0.921875	0.375000	0.000000 
		0.921875	-0.375000	0.000000 
		1.000000	0.000000	0.000000 
		0.000000	0.000000	1.000000 
		0.000000	0.000000	-1.000000 
		0.000000	-0.593750	-0.796875 
		0.000000	-0.593750	0.796875 
		-0.921875	-0.375000	0.000000 
		-1.000000	0.000000	0.000000 
	}

	Cpv 110 { 
		0.500000	0.500000	0.500000	0.003922 
		0.500000	0.500000	0.500000	0.003922 
		0.500000	0.500000	0.500000	0.003922 
		0.500000	0.500000	0.500000	0.003922 
		0.500000	0.500000	0.500000	0.003922 
		0.500000	0.500000	0.500000	0.003922 
		0.500000	0.500000	0.500000	0.003922 
		0.500000	0.500000	0.500000	0.003922 
		0.500000	0.500000	0.500000	0.003922 
		0.500000	0.500000	0.500000	0.003922 
		0.500000	0.500000	0.500000	0.003922 
		0.500000	0.500000	0.500000	0.003922 
		0.500000	0.500000	0.500000	0.003922 
		0.500000	0.500000	0.500000	0.003922 
		0.500000	0.500000	0.500000	0.003922 
		0.500000	0.500000	0.500000	0.003922 
		0.500000	0.500000	0.500000	0.003922 
		0.500000	0.500000	0.500000	0.003922 
		0.500000	0.500000	0.500000	0.003922 
		0.500000	0.500000	0.500000	0.003922 
		0.500000	0.500000	0.500000	0.003922 
		0.500000	0.500000	0.500000	0.003922 
		0.500000	0.500000	0.500000	0.003922 
		0.500000	0.500000	0.500000	0.003922 
		0.500000	0.500000	0.500000	0.003922 
		0.500000	0.500000	0.500000	0.003922 
		0.500000	0.500000	0.500000	0.003922 
		0.500000	0.500000	0.500000	0.003922 
		0.500000	0.500000	0.500000	0.003922 
		0.500000	0.500000	0.500000	0.003922 
		0.500000	0.500000	0.500000	0.003922 
		0.500000	0.500000	0.500000	0.003922 
		0.500000	0.500000	0.500000	0.003922 
		0.500000	0.500000	0.500000	0.003922 
		0.500000	0.500000	0.500000	0.003922 
		0.500000	0.500000	0.500000	0.003922 
		0.500000	0.500000	0.500000	0.003922 
		0.500000	0.500000	0.500000	0.003922 
		0.500000	0.500000	0.500000	0.003922 
		0.500000	0.500000	0.500000	0.003922 
		0.500000	0.500000	0.500000	0.003922 
		0.500000	0.500000	0.500000	0.003922 
		0.500000	0.500000	0.500000	0.003922 
		0.500000	0.500000	0.500000	0.003922 
		0.500000	0.500000	0.500000	0.003922 
		0.500000	0.500000	0.500000	0.003922 
		0.500000	0.500000	0.500000	0.003922 
		0.500000	0.500000	0.500000	0.003922 
		0.500000	0.500000	0.500000	0.003922 
		0.500000	0.500000	0.500000	0.003922 
		0.500000	0.500000	0.500000	0.003922 
		0.500000	0.500000	0.500000	0.003922 
		0.500000	0.500000	0.500000	0.003922 
		0.500000	0.500000	0.500000	0.003922 
		0.500000	0.500000	0.500000	0.003922 
		0.500000	0.500000	0.500000	0.003922 
		0.500000	0.500000	0.500000	0.003922 
		0.500000	0.500000	0.500000	0.003922 
		0.500000	0.500000	0.500000	0.003922 
		0.500000	0.500000	0.500000	0.003922 
		0.500000	0.500000	0.500000	0.003922 
		0.500000	0.500000	0.500000	0.003922 
		0.500000	0.500000	0.500000	0.003922 
		0.500000	0.500000	0.500000	0.003922 
		0.500000	0.500000	0.500000	0.003922 
		0.500000	0.500000	0.500000	0.003922 
		0.500000	0.500000	0.500000	0.003922 
		0.500000	0.500000	0.500000	0.003922 
		0.500000	0.500000	0.500000	0.003922 
		0.500000	0.500000	0.500000	0.003922 
		0.500000	0.500000	0.500000	0.003922 
		0.500000	0.500000	0.500000	0.003922 
		0.500000	0.500000	0.500000	0.003922 
		0.500000	0.500000	0.500000	0.003922 
		0.500000	0.500000	0.500000	0.003922 
		0.500000	0.500000	0.500000	0.003922 
		0.500000	0.500000	0.500000	0.003922 
		0.500000	0.500000	0.500000	0.003922 
		0.500000	0.500000	0.500000	0.003922 
		0.500000	0.500000	0.500000	0.003922 
		0.500000	0.500000	0.500000	0.003922 
		0.500000	0.500000	0.500000	0.003922 
		0.500000	0.500000	0.500000	0.003922 
		0.500000	0.500000	0.500000	0.003922 
		0.500000	0.500000	0.500000	0.003922 
		0.500000	0.500000	0.500000	0.003922 
		0.500000	0.500000	0.500000	0.003922 
		0.500000	0.500000	0.500000	0.003922 
		0.500000	0.500000	0.500000	0.003922 
		0.500000	0.500000	0.500000	0.003922 
		0.500000	0.500000	0.500000	0.003922 
		0.500000	0.500000	0.500000	0.003922 
		0.500000	0.500000	0.500000	0.003922 
		0.500000	0.500000	0.500000	0.003922 
		0.500000	0.500000	0.500000	0.003922 
		0.500000	0.500000	0.500000	0.003922 
		0.500000	0.500000	0.500000	0.003922 
		0.500000	0.500000	0.500000	0.003922 
		0.500000	0.500000	0.500000	0.003922 
		0.500000	0.500000	0.500000	0.003922 
		0.500000	0.500000	0.500000	0.003922 
		0.500000	0.500000	0.500000	0.003922 
		0.500000	0.500000	0.500000	0.003922 
		0.500000	0.500000	0.500000	0.003922 
		0.500000	0.500000	0.500000	0.003922 
		0.500000	0.500000	0.500000	0.003922 
		0.500000	0.500000	0.500000	0.003922 
		0.500000	0.500000	0.500000	0.003922 
		0.500000	0.500000	0.500000	0.003922 
		0.500000	0.500000	0.500000	0.003922 
	}

	Tex0 37 { 
		0.909180	0.469727 
		0.910156	0.464844 
		0.910156	0.458008 
		0.909180	0.454102 
		0.932617	0.469727 
		0.932617	0.464844 
		0.932617	0.458008 
		0.932617	0.454102 
		0.841797	0.393555 
		0.841797	0.430664 
		0.830078	0.430664 
		0.830078	0.393555 
		0.889648	0.472656 
		0.909180	0.472656 
		0.909180	0.466797 
		0.889648	0.466797 
		0.889648	0.458008 
		0.909180	0.452148 
		0.889648	0.452148 
		0.230469	0.283203 
		0.233398	0.275391 
		0.215820	0.275391 
		0.219727	0.283203 
		0.391602	0.769531 
		0.348633	0.769531 
		0.348633	0.820313 
		0.391602	0.820313 
		0.391602	0.993164 
		0.348633	0.993164 
		0.247070	0.283203 
		0.182617	0.283203 
		0.184570	0.275391 
		0.247070	0.275391 
		0.066406	0.438477 
		0.005859	0.438477 
		0.005859	0.494141 
		0.066406	0.494141 
	}

	Tex1 0 
	Adj 110 { 
		P 0 
		N 0 
		C0 0 
		T0 0 
		P 1 
		N 0 
		C0 1 
		T0 1 
		P 2 
		N 0 
		C0 2 
		T0 2 
		P 3 
		N 0 
		C0 3 
		T0 3 
		P 1 
		N 1 
		C0 4 
		T0 1 
		P 0 
		N 1 
		C0 5 
		T0 0 
		P 4 
		N 1 
		C0 6 
		T0 4 
		P 5 
		N 1 
		C0 7 
		T0 5 
		P 2 
		N 2 
		C0 8 
		T0 2 
		P 1 
		N 2 
		C0 9 
		T0 1 
		P 5 
		N 2 
		C0 10 
		T0 5 
		P 6 
		N 2 
		C0 11 
		T0 6 
		P 3 
		N 3 
		C0 12 
		T0 3 
		P 2 
		N 3 
		C0 13 
		T0 2 
		P 6 
		N 3 
		C0 14 
		T0 6 
		P 7 
		N 3 
		C0 15 
		T0 7 
		P 8 
		N 4 
		C0 16 
		T0 8 
		P 9 
		N 1 
		C0 17 
		T0 9 
		P 10 
		N 1 
		C0 18 
		T0 10 
		P 11 
		N 4 
		C0 19 
		T0 11 
		P 12 
		N 5 
		C0 20 
		T0 8 
		P 13 
		N 5 
		C0 21 
		T0 11 
		P 14 
		N 3 
		C0 22 
		T0 10 
		P 15 
		N 3 
		C0 23 
		T0 9 
		P 4 
		N 1 
		C0 24 
		T0 12 
		P 9 
		N 1 
		C0 25 
		T0 13 
		P 8 
		N 1 
		C0 26 
		T0 14 
		P 5 
		N 1 
		C0 27 
		T0 15 
		P 5 
		N 2 
		C0 28 
		T0 15 
		P 8 
		N 2 
		C0 29 
		T0 14 
		P 12 
		N 2 
		C0 30 
		T0 2 
		P 6 
		N 2 
		C0 31 
		T0 16 
		P 6 
		N 3 
		C0 32 
		T0 16 
		P 12 
		N 3 
		C0 33 
		T0 2 
		P 15 
		N 3 
		C0 34 
		T0 17 
		P 7 
		N 3 
		C0 35 
		T0 18 
		P 16 
		N 6 
		C0 36 
		T0 0 
		P 17 
		N 6 
		C0 37 
		T0 3 
		P 18 
		N 6 
		C0 38 
		T0 2 
		P 19 
		N 6 
		C0 39 
		T0 1 
		P 19 
		N 1 
		C0 40 
		T0 1 
		P 20 
		N 1 
		C0 41 
		T0 5 
		P 21 
		N 1 
		C0 42 
		T0 4 
		P 16 
		N 1 
		C0 43 
		T0 0 
		P 18 
		N 2 
		C0 44 
		T0 2 
		P 22 
		N 2 
		C0 45 
		T0 6 
		P 20 
		N 2 
		C0 46 
		T0 5 
		P 19 
		N 2 
		C0 47 
		T0 1 
		P 17 
		N 3 
		C0 48 
		T0 3 
		P 23 
		N 3 
		C0 49 
		T0 7 
		P 22 
		N 3 
		C0 50 
		T0 6 
		P 18 
		N 3 
		C0 51 
		T0 2 
		P 21 
		N 1 
		C0 52 
		T0 12 
		P 20 
		N 1 
		C0 53 
		T0 15 
		P 11 
		N 1 
		C0 54 
		T0 14 
		P 10 
		N 1 
		C0 55 
		T0 13 
		P 20 
		N 2 
		C0 56 
		T0 15 
		P 22 
		N 2 
		C0 57 
		T0 16 
		P 13 
		N 2 
		C0 58 
		T0 2 
		P 11 
		N 2 
		C0 59 
		T0 14 
		P 22 
		N 3 
		C0 60 
		T0 16 
		P 23 
		N 3 
		C0 61 
		T0 18 
		P 14 
		N 3 
		C0 62 
		T0 17 
		P 13 
		N 3 
		C0 63 
		T0 2 
		P 24 
		N 7 
		C0 64 
		T0 19 
		P 0 
		N 7 
		C0 65 
		T0 20 
		P 3 
		N 7 
		C0 66 
		T0 21 
		P 25 
		N 7 
		C0 67 
		T0 22 
		P 25 
		N 8 
		C0 68 
		T0 23 
		P 26 
		N 8 
		C0 69 
		T0 24 
		P 27 
		N 8 
		C0 70 
		T0 25 
		P 24 
		N 8 
		C0 71 
		T0 26 
		P 26 
		N 9 
		C0 72 
		T0 24 
		P 25 
		N 9 
		C0 73 
		T0 23 
		P 28 
		N 9 
		C0 74 
		T0 27 
		P 29 
		N 9 
		C0 75 
		T0 28 
		P 30 
		N 10 
		C0 76 
		T0 27 
		P 24 
		N 10 
		C0 77 
		T0 23 
		P 27 
		N 10 
		C0 78 
		T0 24 
		P 31 
		N 10 
		C0 79 
		T0 28 
		P 32 
		N 11 
		C0 80 
		T0 29 
		P 0 
		N 11 
		C0 81 
		T0 30 
		P 24 
		N 11 
		C0 82 
		T0 31 
		P 30 
		N 11 
		C0 83 
		T0 32 
		P 3 
		N 12 
		C0 84 
		T0 30 
		P 33 
		N 12 
		C0 85 
		T0 29 
		P 28 
		N 12 
		C0 86 
		T0 32 
		P 25 
		N 12 
		C0 87 
		T0 31 
		P 3 
		N 2 
		C0 88 
		T0 33 
		P 0 
		N 2 
		C0 89 
		T0 34 
		P 32 
		N 2 
		C0 90 
		T0 35 
		P 33 
		N 2 
		C0 91 
		T0 36 
		P 34 
		N 13 
		C0 92 
		T0 19 
		P 35 
		N 13 
		C0 93 
		T0 22 
		P 17 
		N 13 
		C0 94 
		T0 21 
		P 16 
		N 13 
		C0 95 
		T0 20 
		P 35 
		N 14 
		C0 96 
		T0 23 
		P 34 
		N 14 
		C0 97 
		T0 26 
		P 36 
		N 14 
		C0 98 
		T0 25 
		P 37 
		N 14 
		C0 99 
		T0 24 
		P 37 
		N 9 
		C0 100 
		T0 24 
		P 35 
		N 9 
		C0 101 
		T0 23 
		P 36 
		N 10 
		C0 102 
		T0 24 
		P 34 
		N 10 
		C0 103 
		T0 23 
		P 34 
		N 11 
		C0 104 
		T0 31 
		P 16 
		N 11 
		C0 105 
		T0 30 
		P 17 
		N 12 
		C0 106 
		T0 30 
		P 35 
		N 12 
		C0 107 
		T0 31 
		P 17 
		N 2 
		C0 108 
		T0 33 
		P 16 
		N 2 
		C0 109 
		T0 34 
	}

	Mtl 1 { 
		{
			Name "#2" 
			Priority 32 
			Prim 24 { 
				{
					Type TRISTRIP
					Priority 32 
					Idx 4 { 1 2 0 3 }
				}
				{
					Type TRISTRIP
					Priority 32 
					Idx 4 { 6 7 5 4 }
				}
				{
					Type TRISTRIP
					Priority 32 
					Idx 4 { 10 11 9 8 }
				}
				{
					Type TRISTRIP
					Priority 32 
					Idx 4 { 14 15 13 12 }
				}
				{
					Type TRISTRIP
					Priority 32 
					Idx 4 { 25 26 24 27 }
				}
				{
					Type TRISTRIP
					Priority 32 
					Idx 4 { 29 30 28 31 }
				}
				{
					Type TRISTRIP
					Priority 32 
					Idx 4 { 33 34 32 35 }
				}
				{
					Type TRISTRIP
					Priority 32 
					Idx 4 { 36 37 39 38 }
				}
				{
					Type TRISTRIP
					Priority 32 
					Idx 4 { 43 40 42 41 }
				}
				{
					Type TRISTRIP
					Priority 32 
					Idx 4 { 47 44 46 45 }
				}
				{
					Type TRISTRIP
					Priority 32 
					Idx 4 { 51 48 50 49 }
				}
				{
					Type TRISTRIP
					Priority 32 
					Idx 4 { 52 53 55 54 }
				}
				{
					Type TRISTRIP
					Priority 32 
					Idx 4 { 56 57 59 58 }
				}
				{
					Type TRISTRIP
					Priority 32 
					Idx 4 { 60 61 63 62 }
				}
				{
					Type TRISTRIP
					Priority 32 
					Idx 4 { 64 65 67 66 }
				}
				{
					Type TRISTRIP
					Priority 32 
					Idx 4 { 70 71 69 68 }
				}
				{
					Type TRISTRIP
					Priority 32 
					Idx 6 { 77 78 76 79 103 102 }
				}
				{
					Type TRISTRIP
					Priority 32 
					Idx 6 { 81 82 80 83 105 104 }
				}
				{
					Type TRISTRIP
					Priority 32 
					Idx 6 { 88 89 91 90 108 109 }
				}
				{
					Type TRISTRIP
					Priority 32 
					Idx 4 { 92 93 95 94 }
				}
				{
					Type TRISTRIP
					Priority 32 
					Idx 4 { 98 99 97 96 }
				}
				{
					Type TRISTRIP
					Priority 32 
					Idx 9 { 23 20 22 20 21 16 19 17 18 }
				}
				{
					Type TRISTRIP2
					Priority 32 
					Idx 6 { 73 72 74 75 101 100 }
				}
				{
					Type TRISTRIP2
					Priority 32 
					Idx 6 { 84 87 85 86 106 107 }
				}
			}

		}
	}

	Offset 0 
}
