{
	Skinned 0 
	PosSkin 0 
	Pos 14 { 
		0.000000	3.201722	-9.839117 
		-0.000000	3.201722	-5.293694 
		0.000000	1.117476	-5.293694 
		0.000000	1.117476	-9.839117 
		-0.000000	3.201722	-1.236024 
		-0.000000	1.117476	-1.236024 
		0.340715	2.819583	-0.629389 
		-0.244106	2.819583	-0.642900 
		-0.244106	1.499615	-0.642900 
		0.340715	1.499615	-0.629389 
		-1.328200	3.208560	-9.837097 
		1.331542	3.194848	-9.739859 
		1.328200	1.110637	-9.750415 
		-1.331542	1.124350	-9.847653 
	}

	Nrm 3 { 
		1.000000	0.000000	0.000000 
		-0.015625	0.000000	1.000000 
		0.031250	0.000000	-1.000000 
	}

	Cpv 16 { 
		0.801400	0.774900	0.699600	1.000000 
		0.801400	0.774900	0.699600	1.000000 
		0.000200	0.000000	0.085100	1.000000 
		0.141800	0.141800	0.141800	1.000000 
		0.801400	0.774900	0.699600	1.000000 
		0.652500	0.652500	0.652500	1.000000 
		0.000200	0.000000	0.085100	1.000000 
		0.000200	0.000000	0.085100	1.000000 
		1.000000	1.000000	1.000000	1.000000 
		1.000000	1.000000	1.000000	1.000000 
		0.000200	0.000000	0.085100	1.000000 
		0.000200	0.000000	0.085100	1.000000 
		0.652500	0.652500	0.652500	1.000000 
		0.652500	0.652500	0.652500	1.000000 
		0.141800	0.141800	0.141800	1.000000 
		0.141800	0.141800	0.141800	1.000000 
	}

	Tex0 11 { 
		1.000000	0.390625 
		0.512695	0.390625 
		0.512695	0.000000 
		1.000000	0.000000 
		0.996094	0.500000 
		0.996094	0.396484 
		0.758789	0.396484 
		0.758789	0.500000 
		0.608398	0.393555 
		1.000000	0.393555 
		0.608398	0.000000 
	}

	Tex1 0 
	Adj 16 { 
		P 0 
		N 0 
		C0 0 
		T0 0 
		P 1 
		N 0 
		C0 1 
		T0 1 
		P 2 
		N 0 
		C0 2 
		T0 2 
		P 3 
		N 0 
		C0 3 
		T0 3 
		P 1 
		N 0 
		C0 4 
		T0 0 
		P 4 
		N 0 
		C0 5 
		T0 1 
		P 5 
		N 0 
		C0 6 
		T0 2 
		P 2 
		N 0 
		C0 7 
		T0 3 
		P 6 
		N 1 
		C0 8 
		T0 4 
		P 7 
		N 1 
		C0 9 
		T0 5 
		P 8 
		N 1 
		C0 10 
		T0 6 
		P 9 
		N 1 
		C0 11 
		T0 7 
		P 10 
		N 2 
		C0 12 
		T0 8 
		P 11 
		N 2 
		C0 13 
		T0 9 
		P 12 
		N 2 
		C0 14 
		T0 3 
		P 13 
		N 2 
		C0 15 
		T0 10 
	}

	Mtl 1 { 
		{
			Name "#3" 
			Priority 32 
			Prim 4 { 
				{
					Type TRISTRIP
					Priority 32 
					Idx 4 { 3 0 2 1 }
				}
				{
					Type TRISTRIP
					Priority 32 
					Idx 4 { 7 4 6 5 }
				}
				{
					Type TRISTRIP
					Priority 32 
					Idx 4 { 10 11 9 8 }
				}
				{
					Type TRISTRIP
					Priority 32 
					Idx 4 { 15 12 14 13 }
				}
			}

		}
	}

	Offset 0 
}
