{
	Skinned 0 
	PosSkin 0 
	Pos 24 { 
		-0.561476	2.529663	4.521498 
		0.409438	2.529663	4.521498 
		0.409438	3.579069	4.737954 
		-0.561476	3.579069	4.737954 
		-0.327015	3.018998	3.714232 
		0.174977	3.018998	3.714232 
		0.174977	2.766024	3.994629 
		-0.327015	2.766024	3.994629 
		0.174977	3.367577	3.715151 
		0.174977	3.477264	3.996505 
		-0.327015	3.367577	3.715151 
		-0.327015	3.477264	3.996505 
		0.409438	2.531052	3.994010 
		-0.561476	2.531052	3.994010 
		0.409438	3.581023	3.996778 
		-0.561476	3.581023	3.996778 
		0.546984	3.681921	3.892043 
		-0.699022	3.681921	3.892043 
		-0.699022	3.679414	4.843219 
		0.546984	3.679414	4.843219 
		-0.699022	3.581299	3.891778 
		0.546984	3.581299	3.891778 
		-0.699022	3.578793	4.842954 
		0.546984	3.578793	4.842954 
	}

	Nrm 9 { 
		0.000000	-0.203125	0.984375 
		0.000000	-0.750000	-0.671875 
		1.000000	0.000000	0.000000 
		0.000000	0.937500	-0.359375 
		-1.000000	0.000000	0.000000 
		0.000000	0.000000	-1.000000 
		0.000000	-1.000000	0.000000 
		0.000000	1.000000	0.000000 
		0.000000	0.000000	1.000000 
	}

	Cpv 72 { 
		0.500000	0.500000	0.500000	0.003922 
		0.500000	0.500000	0.500000	0.003922 
		0.502563	0.460407	0.500000	0.003922 
		0.505776	0.381476	0.500000	0.003922 
		0.500000	0.500000	0.500000	0.003922 
		0.500000	0.500000	0.500000	0.003922 
		0.500000	0.500000	0.500000	0.003922 
		0.500000	0.500000	0.500000	0.003922 
		0.500000	0.500000	0.500000	0.003922 
		0.500000	0.500000	0.500000	0.003922 
		0.500000	0.500000	0.500000	0.003922 
		0.500000	0.500000	0.500000	0.003922 
		0.500000	0.500000	0.500000	0.003922 
		0.500000	0.500000	0.500000	0.003922 
		0.500000	0.500000	0.500000	0.003922 
		0.500000	0.500000	0.500000	0.003922 
		0.500000	0.500000	0.500000	0.003922 
		0.500000	0.500000	0.500000	0.003922 
		0.500000	0.500000	0.500000	0.003922 
		0.500000	0.500000	0.500000	0.003922 
		0.500000	0.500000	0.500000	0.003922 
		0.500000	0.500000	0.500000	0.003922 
		0.500000	0.500000	0.500000	0.003922 
		0.500000	0.500000	0.500000	0.003922 
		0.500000	0.500000	0.500000	0.003922 
		0.500000	0.500000	0.500000	0.003922 
		0.500000	0.500000	0.500000	0.003922 
		0.500000	0.500000	0.500000	0.003922 
		0.500000	0.500000	0.500000	0.003922 
		0.502563	0.460407	0.500000	0.003922 
		0.500000	0.500000	0.500000	0.003922 
		0.505776	0.381476	0.500000	0.003922 
		0.500000	0.500000	0.500000	0.003922 
		0.500000	0.500000	0.500000	0.003922 
		0.500000	0.500000	0.500000	0.003922 
		0.500000	0.500000	0.500000	0.003922 
		0.500000	0.500000	0.500000	0.003922 
		0.502563	0.460407	0.500000	0.003922 
		0.502563	0.460407	0.500000	0.003922 
		0.500000	0.500000	0.500000	0.003922 
		0.493746	0.471248	0.500000	0.003922 
		0.497870	0.369954	0.500000	0.003922 
		0.497870	0.369954	0.500000	0.003922 
		0.493746	0.471248	0.500000	0.003922 
		0.505776	0.381476	0.500000	0.003922 
		0.500000	0.500000	0.500000	0.003922 
		0.500000	0.500000	0.500000	0.003922 
		0.505776	0.381476	0.500000	0.003922 
		0.502563	0.460407	0.500000	0.003922 
		0.505776	0.381476	0.500000	0.003922 
		0.506050	0.370287	0.500000	0.003922 
		0.501926	0.471581	0.500000	0.003922 
		0.505776	0.381476	0.500000	0.003922 
		0.506050	0.370287	0.500000	0.003922 
		0.502563	0.460407	0.500000	0.003922 
		0.501926	0.471581	0.500000	0.003922 
		0.501926	0.471581	0.500000	0.003922 
		0.506050	0.370287	0.500000	0.003922 
		0.497870	0.369954	0.500000	0.003922 
		0.493746	0.471248	0.500000	0.003922 
		0.506050	0.370287	0.500000	0.003922 
		0.506050	0.370287	0.500000	0.003922 
		0.497870	0.369954	0.500000	0.003922 
		0.497870	0.369954	0.500000	0.003922 
		0.506050	0.370287	0.500000	0.003922 
		0.501926	0.471581	0.500000	0.003922 
		0.493746	0.471248	0.500000	0.003922 
		0.497870	0.369954	0.500000	0.003922 
		0.501926	0.471581	0.500000	0.003922 
		0.501926	0.471581	0.500000	0.003922 
		0.493746	0.471248	0.500000	0.003922 
		0.493746	0.471248	0.500000	0.003922 
	}

	Tex0 47 { 
		0.428711	0.387695 
		0.575195	0.387695 
		0.575195	0.545898 
		0.428711	0.545898 
		0.489258	0.934570 
		0.489258	0.790039 
		0.568359	0.790039 
		0.568359	0.934570 
		0.438477	0.696289 
		0.438477	0.738281 
		0.472656	0.751953 
		0.472656	0.665039 
		0.535156	0.422852 
		0.482422	0.422852 
		0.458008	0.387695 
		0.559570	0.387695 
		0.482422	0.530273 
		0.458008	0.545898 
		0.535156	0.530273 
		0.559570	0.545898 
		0.775391	0.785156 
		0.934570	0.785156 
		0.934570	0.698242 
		0.775391	0.698242 
		0.538086	0.387695 
		0.538086	0.545898 
		0.425781	0.545898 
		0.436523	0.934570 
		0.450195	0.798828 
		0.661133	0.798828 
		0.615234	0.934570 
		0.404297	0.545898 
		0.404297	0.387695 
		0.484375	0.387695 
		0.516602	0.545898 
		0.898438	0.781250 
		0.790039	0.781250 
		0.775391	0.792969 
		0.914063	0.792969 
		0.790039	0.698242 
		0.775391	0.686523 
		0.898438	0.698242 
		0.914063	0.686523 
		0.226563	0.966797 
		0.226563	0.225586 
		0.203125	0.225586 
		0.203125	0.966797 
	}

	Tex1 0 
	Adj 72 { 
		P 0 
		N 0 
		C0 0 
		T0 0 
		P 1 
		N 0 
		C0 1 
		T0 1 
		P 2 
		N 0 
		C0 2 
		T0 2 
		P 3 
		N 0 
		C0 3 
		T0 3 
		P 4 
		N 1 
		C0 4 
		T0 4 
		P 5 
		N 1 
		C0 5 
		T0 5 
		P 6 
		N 1 
		C0 6 
		T0 6 
		P 7 
		N 1 
		C0 7 
		T0 7 
		P 5 
		N 2 
		C0 8 
		T0 8 
		P 8 
		N 2 
		C0 9 
		T0 9 
		P 9 
		N 2 
		C0 10 
		T0 10 
		P 6 
		N 2 
		C0 11 
		T0 11 
		P 8 
		N 3 
		C0 12 
		T0 4 
		P 10 
		N 3 
		C0 13 
		T0 5 
		P 11 
		N 3 
		C0 14 
		T0 6 
		P 9 
		N 3 
		C0 15 
		T0 7 
		P 10 
		N 4 
		C0 16 
		T0 9 
		P 4 
		N 4 
		C0 17 
		T0 8 
		P 7 
		N 4 
		C0 18 
		T0 11 
		P 11 
		N 4 
		C0 19 
		T0 10 
		P 4 
		N 5 
		C0 20 
		T0 5 
		P 10 
		N 5 
		C0 21 
		T0 6 
		P 8 
		N 5 
		C0 22 
		T0 7 
		P 5 
		N 5 
		C0 23 
		T0 4 
		P 7 
		N 5 
		C0 24 
		T0 12 
		P 6 
		N 5 
		C0 25 
		T0 13 
		P 12 
		N 5 
		C0 26 
		T0 14 
		P 13 
		N 5 
		C0 27 
		T0 15 
		P 9 
		N 5 
		C0 28 
		T0 16 
		P 14 
		N 5 
		C0 29 
		T0 17 
		P 11 
		N 5 
		C0 30 
		T0 18 
		P 15 
		N 5 
		C0 31 
		T0 19 
		P 13 
		N 6 
		C0 32 
		T0 20 
		P 12 
		N 6 
		C0 33 
		T0 21 
		P 1 
		N 6 
		C0 34 
		T0 22 
		P 0 
		N 6 
		C0 35 
		T0 23 
		P 12 
		N 2 
		C0 36 
		T0 24 
		P 14 
		N 2 
		C0 37 
		T0 25 
		P 2 
		N 2 
		C0 38 
		T0 26 
		P 1 
		N 2 
		C0 39 
		T0 14 
		P 16 
		N 7 
		C0 40 
		T0 27 
		P 17 
		N 7 
		C0 41 
		T0 28 
		P 18 
		N 7 
		C0 42 
		T0 29 
		P 19 
		N 7 
		C0 43 
		T0 30 
		P 15 
		N 4 
		C0 44 
		T0 31 
		P 13 
		N 4 
		C0 45 
		T0 32 
		P 0 
		N 4 
		C0 46 
		T0 33 
		P 3 
		N 4 
		C0 47 
		T0 34 
		P 14 
		N 6 
		C0 48 
		T0 35 
		P 15 
		N 6 
		C0 49 
		T0 36 
		P 20 
		N 6 
		C0 50 
		T0 37 
		P 21 
		N 6 
		C0 51 
		T0 38 
		P 3 
		N 6 
		C0 52 
		T0 39 
		P 22 
		N 6 
		C0 53 
		T0 40 
		P 2 
		N 6 
		C0 54 
		T0 41 
		P 23 
		N 6 
		C0 55 
		T0 42 
		P 21 
		N 5 
		C0 56 
		T0 43 
		P 20 
		N 5 
		C0 57 
		T0 44 
		P 17 
		N 5 
		C0 58 
		T0 45 
		P 16 
		N 5 
		C0 59 
		T0 46 
		P 20 
		N 4 
		C0 60 
		T0 43 
		P 22 
		N 4 
		C0 61 
		T0 44 
		P 18 
		N 4 
		C0 62 
		T0 45 
		P 17 
		N 4 
		C0 63 
		T0 46 
		P 22 
		N 8 
		C0 64 
		T0 43 
		P 23 
		N 8 
		C0 65 
		T0 44 
		P 19 
		N 8 
		C0 66 
		T0 45 
		P 18 
		N 8 
		C0 67 
		T0 46 
		P 23 
		N 2 
		C0 68 
		T0 43 
		P 21 
		N 2 
		C0 69 
		T0 44 
		P 16 
		N 2 
		C0 70 
		T0 45 
		P 19 
		N 2 
		C0 71 
		T0 46 
	}

	Mtl 1 { 
		{
			Name "#2" 
			Priority 32 
			Prim 16 { 
				{
					Type TRISTRIP
					Priority 32 
					Idx 4 { 0 1 3 2 }
				}
				{
					Type TRISTRIP
					Priority 32 
					Idx 4 { 7 4 6 5 }
				}
				{
					Type TRISTRIP
					Priority 32 
					Idx 4 { 11 8 10 9 }
				}
				{
					Type TRISTRIP
					Priority 32 
					Idx 4 { 13 14 12 15 }
				}
				{
					Type TRISTRIP
					Priority 32 
					Idx 4 { 18 19 17 16 }
				}
				{
					Type TRISTRIP
					Priority 32 
					Idx 4 { 20 21 23 22 }
				}
				{
					Type TRISTRIP
					Priority 32 
					Idx 4 { 32 33 35 34 }
				}
				{
					Type TRISTRIP
					Priority 32 
					Idx 4 { 36 37 39 38 }
				}
				{
					Type TRISTRIP
					Priority 32 
					Idx 4 { 41 42 40 43 }
				}
				{
					Type TRISTRIP
					Priority 32 
					Idx 4 { 45 46 44 47 }
				}
				{
					Type TRISTRIP
					Priority 32 
					Idx 4 { 57 58 56 59 }
				}
				{
					Type TRISTRIP
					Priority 32 
					Idx 4 { 60 61 63 62 }
				}
				{
					Type TRISTRIP
					Priority 32 
					Idx 4 { 64 65 67 66 }
				}
				{
					Type TRISTRIP
					Priority 32 
					Idx 4 { 69 70 68 71 }
				}
				{
					Type TRISTRIP
					Priority 32 
					Idx 12 { 51 55 54 53 52 53 49 50 49 51 48 54 }
				}
				{
					Type TRISTRIP
					Priority 32 
					Idx 12 { 31 29 28 26 25 26 24 27 24 31 30 28 }
				}
			}

		}
	}

	Offset 0 
}
